<svg width="32" height="32" viewBox="0 0 32 32" fill="none" xmlns="http://www.w3.org/2000/svg">
<path d="M22.1394 20.203C21.8449 20.2028 21.5626 20.0858 21.3543 19.8778C21.1459 19.6699 21.0285 19.3878 21.0277 19.0934C21.0277 18.48 21.525 17.9834 22.1394 17.9834C22.4338 17.9835 22.7162 18.1005 22.9246 18.3086C23.133 18.5166 23.2504 18.7989 23.251 19.0934C23.251 19.7067 22.7504 20.203 22.1394 20.203ZM9.86402 20.203C9.56961 20.2028 9.28731 20.0858 9.07895 19.8778C8.87059 19.6699 8.75315 19.3878 8.75235 19.0934C8.75235 18.48 9.25002 17.9834 9.86402 17.9834C10.1585 17.9835 10.4409 18.1005 10.6493 18.3086C10.8577 18.5166 10.9751 18.7989 10.9757 19.0934C10.9757 19.7067 10.4784 20.2034 9.86435 20.2034L9.86402 20.203ZM22.5367 13.5274L24.7567 9.69102C24.8837 9.47102 24.8067 9.18769 24.5867 9.06102C24.4804 9.00031 24.3544 8.98412 24.2361 9.01596C24.1179 9.04781 24.0171 9.12512 23.9557 9.23102L21.709 13.1177C19.9897 12.3344 18.06 11.8977 16.0004 11.8977C13.9404 11.8977 12.011 12.3344 10.2917 13.1177L8.04502 9.23102C7.98359 9.12512 7.88277 9.04781 7.76456 9.01596C7.64635 8.98412 7.52034 9.00031 7.41402 9.06102C7.30812 9.1222 7.23077 9.22284 7.19891 9.34091C7.16705 9.45899 7.18327 9.58488 7.24402 9.69102L9.46402 13.5277C5.65102 15.5967 3.04669 19.4497 2.66669 23.9997H29.3334C28.9527 19.4467 26.349 15.594 22.5367 13.5274Z" fill="black"/>
</svg>
