<svg width="32" height="32" viewBox="0 0 32 32" fill="none" xmlns="http://www.w3.org/2000/svg">
<path fill-rule="evenodd" clip-rule="evenodd" d="M4 5C3.44772 5 3 5.44772 3 6C3 6.55228 3.44772 7 4 7H28C28.5523 7 29 6.55228 29 6C29 5.44772 28.5523 5 28 5H4ZM10 9C9.44772 9 9 9.44772 9 10C9 10.5523 9.44772 11 10 11H28C28.5523 11 29 10.5523 29 10C29 9.44772 28.5523 9 28 9H10ZM13 14C13 13.4477 13.4477 13 14 13H28C28.5523 13 29 13.4477 29 14C29 14.5523 28.5523 15 28 15H14C13.4477 15 13 14.5523 13 14ZM6 17C5.44772 17 5 17.4477 5 18C5 18.5523 5.44772 19 6 19H28C28.5523 19 29 18.5523 29 18C29 17.4477 28.5523 17 28 17H6ZM3 22C3 21.4477 3.44772 21 4 21H28C28.5523 21 29 21.4477 29 22C29 22.5523 28.5523 23 28 23H4C3.44772 23 3 22.5523 3 22ZM18 25C17.4477 25 17 25.4477 17 26C17 26.5523 17.4477 27 18 27H28C28.5523 27 29 26.5523 29 26C29 25.4477 28.5523 25 28 25H18Z" fill="black"/>
</svg>
