<svg width="32" height="32" viewBox="0 0 32 32" fill="none" xmlns="http://www.w3.org/2000/svg">
<path d="M26 15H10.414L14.707 10.707C15.098 10.316 15.098 9.68401 14.707 9.29301C14.316 8.90201 13.684 8.90201 13.293 9.29301L7.29297 15.293C7.20097 15.385 7.12797 15.496 7.07697 15.618C6.97597 15.863 6.97597 16.138 7.07697 16.382C7.12797 16.504 7.20097 16.615 7.29297 16.707L13.293 22.707C13.488 22.902 13.744 23 14 23C14.256 23 14.512 22.902 14.707 22.707C15.098 22.316 15.098 21.684 14.707 21.293L10.414 17H26C26.552 17 27 16.552 27 16C27 15.448 26.552 15 26 15V15Z" fill="black"/>
</svg>
