<svg width="32" height="32" viewBox="0 0 32 32" fill="none" xmlns="http://www.w3.org/2000/svg">
<path d="M16.63 3.31001C16.93 3.91001 29.05 28.15 29.17 28.4L29.19 28.41C29.23 28.49 29.26 28.57 29.26 28.66C29.26 28.98 29 29.24 28.68 29.24H19.58C19.35 29.24 19.16 29.12 19.06 28.92L14.68 20.14C12.01 14.82 12.38 8.53001 15.67 3.33001C15.79 3.14001 15.97 3.02001 16.19 3.01001H16.2C16.38 3.02001 16.54 3.14001 16.63 3.31001Z" fill="black"/>
<path d="M9.99001 15.02C10.19 15 10.4 15.08 10.54 15.24C13.9 18.82 15.08 24.95 13.18 28.9C13.1 29.1 12.9 29.22 12.68 29.22H3.58001C3.49001 29.22 3.41001 29.2 3.32001 29.16C3.03001 29.02 2.92001 28.69 3.06001 28.4L9.59001 15.34C9.66001 15.18 9.82001 15.05 9.99001 15.02Z" fill="black"/>
</svg>
