<svg width="32" height="32" viewBox="0 0 32 32" fill="none" xmlns="http://www.w3.org/2000/svg">
<path fill-rule="evenodd" clip-rule="evenodd" d="M19 4C19 2.89543 19.8954 2 21 2H25C26.1046 2 27 2.89543 27 4V8C27 9.10457 26.1046 10 25 10H21C19.8954 10 19 9.10457 19 8V4ZM21 4H25V8H21V4Z" fill="black"/>
<path fill-rule="evenodd" clip-rule="evenodd" d="M9.26757 13C9.09739 12.7058 9 12.3643 9 12V8C9 6.89543 9.89543 6 11 6H15C16.1046 6 17 6.89543 17 8V12H21C22.1046 12 23 12.8954 23 14V18C23 19.1046 22.1046 20 21 20H17C16.6357 20 16.2942 19.9026 16 19.7324C15.7058 19.9026 15.3643 20 15 20H11C9.89543 20 9 19.1046 9 18V14C9 13.6357 9.09739 13.2942 9.26757 13ZM11 8H15V12H11V8ZM11 14H15V18H11V14ZM21 14V18H17V14H21Z" fill="black"/>
<path fill-rule="evenodd" clip-rule="evenodd" d="M8 22C5.79086 22 4 23.7909 4 26C4 28.2091 5.79086 30 8 30H24C26.2091 30 28 28.2091 28 26C28 23.7909 26.2091 22 24 22H8ZM8 24C6.89543 24 6 24.8954 6 26C6 27.1046 6.89543 28 8 28H24C25.1046 28 26 27.1046 26 26C26 24.8954 25.1046 24 24 24H8Z" fill="black"/>
</svg>
