<svg width="32" height="32" viewBox="0 0 32 32" fill="none" xmlns="http://www.w3.org/2000/svg">
<path d="M16.1711 22.275C14.8181 20.578 14.0231 19.091 13.7581 17.818C13.4951 16.791 13.5981 15.97 14.0491 15.353C14.5261 14.643 15.2371 14.297 16.1701 14.297C17.1031 14.297 17.8131 14.642 18.2901 15.36C18.7361 15.97 18.8481 16.792 18.5761 17.825C18.2851 19.123 17.4911 20.61 16.1641 22.283L16.1711 22.275ZM25.7721 23.415C25.5871 24.661 24.7381 25.695 23.5721 26.198C21.3191 27.178 19.0891 25.615 17.1801 23.494C20.3371 19.543 20.9201 16.466 19.5651 14.476C18.7701 13.336 17.6321 12.781 16.1711 12.781C13.2271 12.781 11.6081 15.271 12.2441 18.163C12.6141 19.728 13.5961 21.506 15.1611 23.495C14.1811 24.58 13.2511 25.351 12.4291 25.828C11.7931 26.172 11.1841 26.386 10.6011 26.437C7.92207 26.836 5.82307 24.237 6.77607 21.557C6.90807 21.212 7.17107 20.577 7.62107 19.596L7.64607 19.543C9.11007 16.365 10.8881 12.753 12.9311 8.748L12.9841 8.616L13.5641 7.5C14.0141 6.678 14.1991 6.31 14.9151 5.857C15.2611 5.647 15.6851 5.542 16.1611 5.542C17.1151 5.542 17.8591 6.1 18.1771 6.549C18.3351 6.788 18.5221 7.106 18.7591 7.502L19.3171 8.591L19.3971 8.75C21.4381 12.754 23.2181 16.358 24.6761 19.544L24.7021 19.569L25.2351 20.789L25.5531 21.553C25.7961 22.166 25.8471 22.775 25.7661 23.411L25.7721 23.415ZM26.9921 21.025C26.8061 20.442 26.4871 19.754 26.0921 18.931V18.901C24.2031 14.895 22.4501 11.293 20.7851 8.057L20.6741 7.894C19.4871 5.461 18.6381 4 16.1711 4C13.7311 4 12.6951 5.695 11.6361 7.898L11.5551 8.058C9.88607 11.294 8.13407 14.901 6.25207 18.905V18.958L5.69307 20.178C5.48307 20.682 5.37607 20.946 5.34807 21.025C3.99807 24.74 6.78107 28 10.1501 28C10.1771 28 10.2821 28 10.4151 27.973H10.7871C12.5371 27.76 14.3411 26.648 16.1711 24.656C18.0001 26.645 19.8061 27.76 21.5531 27.973H21.9251C22.0581 28 22.1641 28 22.1901 28C25.5601 28.003 28.3421 24.739 26.9921 21.025Z" fill="black"/>
</svg>
