<svg width="32" height="32" viewBox="0 0 32 32" fill="none" xmlns="http://www.w3.org/2000/svg">
<path fill-rule="evenodd" clip-rule="evenodd" d="M11 2C8.23858 2 6 4.23858 6 7V10C3.79086 10 2 11.7909 2 14C2 15.4806 2.8044 16.7733 4 17.4649V25C4 26.6569 5.34315 28 7 28C7 29.1046 7.89543 30 9 30C10.1046 30 11 29.1046 11 28H21C21 29.1046 21.8954 30 23 30C24.1046 30 25 29.1046 25 28C26.6569 28 28 26.6569 28 25V17.4649C29.1956 16.7733 30 15.4806 30 14C30 11.7909 28.2091 10 26 10V7C26 4.23858 23.7614 2 21 2H11ZM24 10.5351V7C24 5.34315 22.6569 4 21 4H11C9.34315 4 8 5.34315 8 7V10.5351C9.1956 11.2267 10 12.5194 10 14V16.6594C10.1843 16.6142 10.3866 16.5677 10.6065 16.5215C11.8565 16.2583 13.6756 16 16 16C18.3244 16 20.1435 16.2583 21.3935 16.5215C21.6134 16.5677 21.8157 16.6142 22 16.6594V14C22 12.5194 22.8044 11.2267 24 10.5351ZM6 12C4.89543 12 4 12.8954 4 14C4 15.1046 4.89543 16 6 16C6.55228 16 7 16.4477 7 17C7 17.5523 6.55228 18 6 18V25C6 25.5523 6.44772 26 7 26H25C25.5523 26 26 25.5523 26 25V18C25.4477 18 25 17.5523 25 17C25 16.4477 25.4477 16 26 16C27.1046 16 28 15.1046 28 14C28 12.8954 27.1046 12 26 12C24.8954 12 24 12.8954 24 14V17.9771C24.0004 17.9925 24.0004 18.008 24 18.0236V23C24 23.5523 23.5523 24 23 24C22.4477 24 22 23.5523 22 23V18.7273C21.7388 18.6534 21.3982 18.5663 20.9815 18.4785C19.8565 18.2417 18.1756 18 16 18C13.8244 18 12.1435 18.2417 11.0185 18.4785C10.6018 18.5663 10.2612 18.6534 10 18.7273V23C10 23.5523 9.55228 24 9 24C8.44772 24 8 23.5523 8 23V18.023C7.99965 18.0078 7.99965 17.9927 8 17.9776V14C8 12.8954 7.10457 12 6 12Z" fill="black"/>
</svg>
