<svg width="32" height="32" viewBox="0 0 32 32" fill="none" xmlns="http://www.w3.org/2000/svg">
<path d="M27.6454 11.228C27.4713 11.363 24.399 13.0942 24.399 16.9436C24.399 21.396 28.3084 22.9712 28.4254 23.0102C28.4074 23.1062 27.8044 25.1674 26.3642 27.2676C25.0801 29.1158 23.739 30.961 21.6988 30.961C19.6586 30.961 19.1335 29.7759 16.7783 29.7759C14.483 29.7759 13.667 31 11.8008 31C9.93459 31 8.63246 29.2898 7.13531 27.1896C5.40113 24.7234 4 20.892 4 17.2556C4 11.423 7.79237 8.32973 11.5247 8.32973C13.5079 8.32973 15.1611 9.63186 16.4062 9.63186C17.5914 9.63186 19.4395 8.25173 21.6958 8.25173C22.5509 8.25173 25.6232 8.32973 27.6454 11.228V11.228ZM20.6247 5.78248C21.5578 4.67537 22.2178 3.13921 22.2178 1.60306C22.2178 1.39004 22.1998 1.17402 22.1608 1C20.6427 1.05701 18.8365 2.0111 17.7474 3.27423C16.8923 4.24632 16.0942 5.78248 16.0942 7.33963C16.0942 7.57366 16.1332 7.80768 16.1512 7.88269C16.2472 7.90069 16.4032 7.92169 16.5593 7.92169C17.9214 7.92169 19.6346 7.0096 20.6247 5.78248V5.78248Z" fill="black"/>
</svg>
