<svg width="32" height="32" viewBox="0 0 32 32" fill="none" xmlns="http://www.w3.org/2000/svg">
<path fill-rule="evenodd" clip-rule="evenodd" d="M4 5C3.44772 5 3 5.44772 3 6C3 6.55228 3.44772 7 4 7H28C28.5523 7 29 6.55228 29 6C29 5.44772 28.5523 5 28 5H4ZM4 9C3.44772 9 3 9.44772 3 10C3 10.5523 3.44772 11 4 11H22C22.5523 11 23 10.5523 23 10C23 9.44772 22.5523 9 22 9H4ZM3 14C3 13.4477 3.44772 13 4 13H18C18.5523 13 19 13.4477 19 14C19 14.5523 18.5523 15 18 15H4C3.44772 15 3 14.5523 3 14ZM4 17C3.44772 17 3 17.4477 3 18C3 18.5523 3.44772 19 4 19H26C26.5523 19 27 18.5523 27 18C27 17.4477 26.5523 17 26 17H4ZM3 22C3 21.4477 3.44772 21 4 21H28C28.5523 21 29 21.4477 29 22C29 22.5523 28.5523 23 28 23H4C3.44772 23 3 22.5523 3 22ZM4 25C3.44772 25 3 25.4477 3 26C3 26.5523 3.44772 27 4 27H14C14.5523 27 15 26.5523 15 26C15 25.4477 14.5523 25 14 25H4Z" fill="black"/>
</svg>
