<svg width="32" height="32" viewBox="0 0 32 32" fill="none" xmlns="http://www.w3.org/2000/svg">
<path d="M24 14.9925C24 11.0325 20.73 9.9925 19 9.9925H10.41L14.71 5.7025C15.1 5.3125 15.1 4.6825 14.71 4.2925C14.32 3.9025 13.69 3.9025 13.3 4.2925L7.3 10.2925C7.21 10.3825 7.13 10.4925 7.08 10.6225C7.03 10.7425 7 10.8725 7 11.0025C7 11.1325 7.03 11.2625 7.08 11.3825C7.13 11.5025 7.2 11.6125 7.3 11.7125L13.3 17.7125C13.69 18.1025 14.32 18.1025 14.71 17.7125C15.1 17.3225 15.1 16.6925 14.71 16.3025L10.42 12.0125H18.99C19.49 12.0125 22 12.1925 22 15.0125V27.0125C22 27.5625 22.45 28.0125 23 28.0125C23.55 28.0125 24 27.5625 24 27.0125V14.9925Z" fill="black"/>
</svg>
