<svg width="32" height="32" viewBox="0 0 32 32" fill="none" xmlns="http://www.w3.org/2000/svg">
<path d="M18.8782 24.1653L20.8053 29.5737H22.2268L20.1914 23.9057C19.7604 24.0234 19.3216 24.1108 18.8782 24.1653ZM2 29.5739H8.42332L10.5025 23.0275H4.2351C3.42992 25.1882 2.6846 27.3719 2 29.5739ZM10.4638 14.8338L14.1726 11.7369C14.7799 10.0936 15.4142 8.44728 16.0737 7.04507C16.403 7.79267 16.7148 8.54027 17.0421 9.33628C18.4733 8.16063 19.4137 7.52153 19.4611 7.49062L19.4803 7.47697C20.0676 7.10368 20.7102 6.82554 21.3843 6.65283C20.8268 5.42644 20.2505 4.20869 19.6556 3H12.4585C11.8581 4.15535 9.62008 8.77745 7.00255 15.1322H9.65018C10.081 15.1322 10.2972 14.9733 10.4638 14.8338ZM25.5221 19.976C24.5668 21.525 23.1496 22.7351 21.4703 23.4361L23.6522 29.5739H30C28.7314 25.7225 27.3708 22.2488 26.0935 18.9941C25.9154 19.3476 25.7254 19.6487 25.5221 19.976ZM23.6405 9.63063C23.8237 9.63063 23.994 9.67322 24.1489 9.74788C24.1181 9.74298 24.0859 9.73715 24.0541 9.73715C23.8739 9.73715 23.7011 9.80843 23.5734 9.93544C23.4456 10.0624 23.3733 10.2348 23.3723 10.415C23.3724 10.5043 23.3901 10.5926 23.4245 10.675C23.4589 10.7575 23.5092 10.8323 23.5725 10.8952C23.6359 10.9581 23.711 11.0078 23.7937 11.0416C23.8763 11.0754 23.9648 11.0925 24.0541 11.092C24.1431 11.0923 24.2313 11.075 24.3137 11.0412C24.396 11.0073 24.4709 10.9576 24.534 10.8948C24.5971 10.8321 24.6473 10.7575 24.6816 10.6753C24.7159 10.5932 24.7337 10.5051 24.7339 10.416C24.7339 10.3927 24.731 10.3724 24.7292 10.3521C24.7886 10.4941 24.8192 10.6465 24.8193 10.8004C24.8193 11.4454 24.2915 11.9703 23.6407 11.9703C22.9925 11.9719 22.4654 11.4486 22.4622 10.8004C22.4622 10.1517 22.9907 9.63063 23.6405 9.63063ZM17.0613 22.8347C18.6126 22.8347 22.3148 22.4406 24.3184 19.2227C26.3249 16.0027 27.0241 10.8944 27.0241 10.8944L29.2204 9.85335C29.358 9.78463 29.3222 9.54733 29.1545 9.54733H26.787C26.416 8.96925 25.131 7.73935 23.2378 7.73935C22.1145 7.73935 21.1305 8.0561 20.2493 8.63033C20.2493 8.63033 18.9643 9.50568 17.0953 11.1132L11.3739 15.8729C10.9334 16.241 10.3939 16.4801 9.64832 16.4801H2.4501C2.24675 16.4801 2.31453 16.6505 2.34743 16.7493C2.85493 18.2958 4.20967 19.6759 6.5745 19.6759L4.88563 21.4161C4.81878 21.4819 4.81878 21.6795 4.98632 21.6795H11.4087C16.0502 21.6795 18.9041 19.6477 20.7798 16.8326C20.9406 16.5914 21.0917 16.3349 21.235 16.087C21.3057 16.1199 21.3124 16.1876 21.2794 16.2536C20.8058 17.3962 19.6234 19.7127 17.4601 21.0896C16.7143 21.5255 16.4781 21.6601 15.4303 22.0619C15.3587 22.093 15.3296 22.2072 15.3625 22.306L17.9617 29.5737H19.3804L16.9981 22.8338H17.0631L17.0613 22.8347Z" fill="black"/>
</svg>
