<svg width="32" height="32" viewBox="0 0 32 32" fill="none" xmlns="http://www.w3.org/2000/svg">
<path d="M26.1728 11.8643C26.022 11.9813 23.3593 13.4816 23.3593 16.8178C23.3593 20.6766 26.7475 22.0417 26.8489 22.0755C26.8333 22.1587 26.3106 23.9451 25.0625 25.7653C23.9496 27.367 22.7873 28.9662 21.0191 28.9662C19.2509 28.9662 18.7959 27.9391 16.7547 27.9391C14.7655 27.9391 14.0582 29 12.4409 29C10.8235 29 9.69497 27.5179 8.39744 25.6977C6.89449 23.5603 5.68018 20.2397 5.68018 17.0882C5.68018 12.0333 8.9669 9.35244 12.2016 9.35244C13.9204 9.35244 15.3531 10.4809 16.4322 10.4809C17.4594 10.4809 19.0611 9.28483 21.0165 9.28483C21.7576 9.28483 24.4202 9.35243 26.1728 11.8643ZM20.0882 7.14481C20.8969 6.18532 21.4689 4.85399 21.4689 3.52265C21.4689 3.33803 21.4534 3.15082 21.4195 3C20.1038 3.04941 18.5385 3.87629 17.5946 4.971C16.8535 5.81348 16.1618 7.14481 16.1618 8.49435C16.1618 8.69717 16.1956 8.89999 16.2112 8.965C16.2944 8.9806 16.4296 8.9988 16.5649 8.9988C17.7454 8.9988 19.2301 8.20832 20.0882 7.14481Z" fill="black"/>
</svg>
