<svg width="32" height="32" viewBox="0 0 32 32" fill="none" xmlns="http://www.w3.org/2000/svg">
<path d="M23 2H9C7.346 2 6 3.346 6 5V27C6 28.654 7.346 30 9 30H23C24.654 30 26 28.654 26 27V5C26 3.346 24.654 2 23 2ZM24 27C24 27.551 23.551 28 23 28H9C8.449 28 8 27.551 8 27V16H24V27ZM24 14H8V10H24V14ZM24 8H8V5C8 4.449 8.449 4 9 4H23C23.551 4 24 4.449 24 5V8Z" fill="black"/>
<path d="M14 20H18C18.552 20 19 19.552 19 19C19 18.448 18.552 18 18 18H14C13.448 18 13 18.448 13 19C13 19.552 13.448 20 14 20Z" fill="black"/>
</svg>
