<svg width="32" height="32" viewBox="0 0 32 32" fill="none" xmlns="http://www.w3.org/2000/svg">
<path fill-rule="evenodd" clip-rule="evenodd" d="M4 5C3.44772 5 3 5.44772 3 6C3 6.55228 3.44772 7 4 7H28C28.5523 7 29 6.55228 29 6C29 5.44772 28.5523 5 28 5H4ZM7 9C6.44772 9 6 9.44772 6 10C6 10.5523 6.44772 11 7 11H25C25.5523 11 26 10.5523 26 10C26 9.44772 25.5523 9 25 9H7ZM8 14C8 13.4477 8.44772 13 9 13H23C23.5523 13 24 13.4477 24 14C24 14.5523 23.5523 15 23 15H9C8.44772 15 8 14.5523 8 14ZM5 17C4.44772 17 4 17.4477 4 18C4 18.5523 4.44772 19 5 19H27C27.5523 19 28 18.5523 28 18C28 17.4477 27.5523 17 27 17H5ZM3 22C3 21.4477 3.44772 21 4 21H28C28.5523 21 29 21.4477 29 22C29 22.5523 28.5523 23 28 23H4C3.44772 23 3 22.5523 3 22ZM11 25C10.4477 25 10 25.4477 10 26C10 26.5523 10.4477 27 11 27H21C21.5523 27 22 26.5523 22 26C22 25.4477 21.5523 25 21 25H11Z" fill="black"/>
</svg>
