<svg width="32" height="32" viewBox="0 0 32 32" fill="none" xmlns="http://www.w3.org/2000/svg">
<path d="M29.923 9.38225C30.024 9.13725 30.024 8.86225 29.923 8.61825C29.872 8.49625 29.799 8.38525 29.707 8.29325L23.707 2.29325C23.316 1.90225 22.684 1.90225 22.293 2.29325C21.902 2.68425 21.902 3.31625 22.293 3.70725L26.586 8.00025H11C10.448 8.00025 10 8.44825 10 9.00025C10 9.55225 10.448 10.0003 11 10.0003H26.586L22.293 14.2933C21.902 14.6842 21.902 15.3163 22.293 15.7073C22.488 15.9023 22.744 16.0003 23 16.0003C23.256 16.0003 23.512 15.9023 23.707 15.7073L29.707 9.70725C29.799 9.61525 29.872 9.50425 29.923 9.38225Z" fill="black"/>
<path d="M2.07575 22.618C1.97475 22.863 1.97475 23.138 2.07575 23.382C2.12675 23.504 2.19975 23.615 2.29175 23.707L8.29175 29.707C8.68275 30.098 9.31475 30.098 9.70575 29.707C10.0967 29.316 10.0967 28.684 9.70575 28.293L5.41275 24L20.9987 24C21.5507 24 21.9987 23.552 21.9987 23C21.9987 22.448 21.5507 22 20.9987 22L5.41275 22L9.70575 17.707C10.0968 17.316 10.0968 16.684 9.70575 16.293C9.51075 16.098 9.25475 16 8.99875 16C8.74275 16 8.48675 16.098 8.29175 16.293L2.29175 22.293C2.19975 22.385 2.12675 22.496 2.07575 22.618Z" fill="black"/>
</svg>
