<svg width="32" height="32" viewBox="0 0 32 32" fill="none" xmlns="http://www.w3.org/2000/svg">
<path d="M27 24H15C11.04 24 10 20.73 10 19V10.41L5.71001 14.71C5.32001 15.1 4.69001 15.1 4.30001 14.71C3.91001 14.32 3.91001 13.69 4.30001 13.3L10.3 7.3C10.39 7.21 10.5 7.13 10.63 7.08C10.75 7.03 10.88 7 11.01 7C11.14 7 11.27 7.03 11.39 7.08C11.51 7.13 11.62 7.2 11.72 7.3L17.72 13.3C18.11 13.69 18.11 14.32 17.72 14.71C17.33 15.1 16.7 15.1 16.31 14.71L12.02 10.42V18.99C12.02 19.49 12.2 22 15.02 22H27.02C27.57 22 28.02 22.45 28.02 23C28.02 23.55 27.57 24 27.02 24H27Z" fill="black"/>
</svg>
