<svg width="32" height="32" viewBox="0 0 32 32" fill="none" xmlns="http://www.w3.org/2000/svg">
<path fill-rule="evenodd" clip-rule="evenodd" d="M9 7H7L7 9H9V7ZM11 25V23C11 21.8954 10.1046 21 9 21H7C5.89543 21 5 21.8954 5 23V25C5 26.1046 5.89543 27 7 27H9C10.1046 27 11 26.1046 11 25ZM11 17V15C11 13.8954 10.1046 13 9 13H7C5.89543 13 5 13.8954 5 15V17C5 18.1046 5.89543 19 7 19H9C10.1046 19 11 18.1046 11 17ZM11 9V7C11 5.89543 10.1046 5 9 5H7C5.89543 5 5 5.89543 5 7V9C5 10.1046 5.89543 11 7 11H9C10.1046 11 11 10.1046 11 9ZM21 7V9C21 10.1046 21.8954 11 23 11H25C26.1046 11 27 10.1046 27 9V7C27 5.89543 26.1046 5 25 5H23C21.8954 5 21 5.89543 21 7ZM21 15V17C21 18.1046 21.8954 19 23 19H25C26.1046 19 27 18.1046 27 17V15C27 13.8954 26.1046 13 25 13H23C21.8954 13 21 13.8954 21 15ZM21 23V25C21 26.1046 21.8954 27 23 27H25C26.1046 27 27 26.1046 27 25V23C27 21.8954 26.1046 21 25 21H23C21.8954 21 21 21.8954 21 23ZM9 15H7L7 17H9V15ZM9 23H7L7 25H9V23ZM25 7H23V9H25V7ZM25 15H23V17H25V15ZM25 23H23V25H25V23ZM17 7H15V9H17V7ZM17 15H15V17H17V15ZM17 23H15V25H17V23ZM15 5H17C18.1046 5 19 5.89543 19 7V9C19 10.1046 18.1046 11 17 11H15C13.8954 11 13 10.1046 13 9V7C13 5.89543 13.8954 5 15 5ZM17 13H15C13.8954 13 13 13.8954 13 15V17C13 18.1046 13.8954 19 15 19H17C18.1046 19 19 18.1046 19 17V15C19 13.8954 18.1046 13 17 13ZM15 21H17C18.1046 21 19 21.8954 19 23V25C19 26.1046 18.1046 27 17 27H15C13.8954 27 13 26.1046 13 25V23C13 21.8954 13.8954 21 15 21Z" fill="black"/>
</svg>
