<svg width="32" height="32" viewBox="0 0 32 32" fill="none" xmlns="http://www.w3.org/2000/svg">
<path fill-rule="evenodd" clip-rule="evenodd" d="M25.9117 3H6.08828C4.37721 3 3 4.375 3 6.08333V25.9167C3 27.625 4.37721 29 6.08828 29H25.9117C27.6228 29 29 27.625 29 25.9167V6.08333C29 4.375 27.6228 3 25.9117 3ZM14.1846 21.7083C14.1846 22.2917 13.7255 22.75 13.1413 22.75H8.80096C8.21669 22.75 7.75762 22.2917 7.75762 21.7083V8.83333C7.75762 8.25 8.21669 7.79167 8.80096 7.79167H13.1413C13.7255 7.79167 14.1846 8.25 14.1846 8.83333V21.7083ZM24.2006 15.7917C24.2006 16.375 23.7416 16.8333 23.199 16.8333H18.817C18.2327 16.8333 17.7737 16.375 17.7737 15.7917V8.83333C17.7737 8.25 18.2327 7.79167 18.817 7.79167H23.1573C23.7416 7.79167 24.2006 8.25 24.2006 8.83333V15.7917Z" fill="black"/>
</svg>
