<svg width="32" height="32" viewBox="0 0 32 32" fill="none" xmlns="http://www.w3.org/2000/svg">
<path fill-rule="evenodd" clip-rule="evenodd" d="M20.5703 22.4481C20.8266 22.5837 21.1556 22.569 21.383 22.366L21.3926 22.3756C22.0795 21.766 23.3277 20.6775 24.0292 20.0921C24.3098 19.86 24.2614 19.4874 24.0388 19.1778C23.9714 19.0844 23.9035 18.9929 23.836 18.9019C23.2744 18.145 22.7423 17.4279 22.7423 15.9897V10.6294C22.7423 10.4462 22.7434 10.2643 22.7444 10.0837C22.7562 8.02721 22.7669 6.14922 21.2281 4.71279C19.9073 3.44524 17.7207 3.00012 16.0468 3.00012C12.7764 3.00012 9.12401 4.21933 8.35482 8.26365C8.27742 8.69429 8.58701 8.92159 8.86754 8.98462L12.2057 9.34255C12.5153 9.32807 12.7426 9.02326 12.8007 8.71357C13.0861 7.32028 14.2569 6.64786 15.5679 6.64786C16.2743 6.64786 17.0773 6.90912 17.4983 7.5429C17.9281 8.17676 17.9215 9.02104 17.9157 9.77855C17.915 9.8651 17.9143 9.95051 17.9143 10.0343V10.4795C17.5925 10.5162 17.2546 10.5507 16.9064 10.5863C15.0983 10.7713 13.012 10.9847 11.4461 11.6744C9.29339 12.6032 7.77907 14.5045 7.77907 17.2959C7.77907 20.871 10.0335 22.6562 12.9265 22.6562C15.3745 22.6562 16.7097 22.0805 18.5964 20.155C18.6959 20.2981 18.7847 20.4296 18.8683 20.5533C19.3131 21.2117 19.6091 21.6499 20.5703 22.4481ZM17.9145 14.1646C17.9144 14.1042 17.9143 14.0433 17.9143 13.982V13.237C15.4276 13.237 12.8007 13.7691 12.8007 16.7008C12.8007 18.186 13.5699 19.1923 14.8907 19.1923C15.8582 19.1923 16.7242 18.5973 17.2709 17.6296C17.9172 16.4941 17.9159 15.4245 17.9145 14.1646ZM21.383 22.366C21.383 22.366 21.383 22.3659 21.383 22.366V22.366Z" fill="black"/>
<path d="M3.70693 22.7831C7.97868 25.3875 14.591 29.4189 25.13 24.4032C25.5842 24.2136 25.9015 24.5302 25.4521 25.104C24.9996 25.6827 21.3827 29.0001 15.3029 29.0001C9.22721 29.0001 4.57257 24.8492 3.15226 23.1271C2.76323 22.6802 3.21161 22.4784 3.47542 22.642C3.55182 22.6885 3.62899 22.7355 3.70693 22.7831Z" fill="black"/>
<path d="M25.4701 22.4067C26.3915 22.2935 27.8557 22.3635 28.1438 22.7388C28.3629 23.0245 28.1365 24.3088 27.7654 25.2294C27.3918 26.145 26.835 26.7921 26.5274 27.0419C26.2156 27.2918 25.9862 27.1951 26.1522 26.8198C26.324 26.4445 27.2648 24.1177 26.892 23.6292C26.5466 23.1777 24.9798 23.3412 24.2519 23.4171C24.1978 23.4227 24.1483 23.4279 24.1043 23.4323C23.9505 23.4461 23.8266 23.4599 23.7263 23.4711C23.4129 23.5061 23.3292 23.5154 23.2824 23.4193C23.162 23.0807 24.5472 22.5167 25.4701 22.4067Z" fill="black"/>
</svg>
