<svg width="32" height="32" viewBox="0 0 32 32" fill="none" xmlns="http://www.w3.org/2000/svg">
<path fill-rule="evenodd" clip-rule="evenodd" d="M3 12H18.126C18.5701 13.7252 20.1362 15 22 15C23.8638 15 25.4299 13.7252 25.874 12H29C29.5523 12 30 11.5523 30 11C30 10.4477 29.5523 10 29 10H25.874C25.4299 8.27477 23.8638 7 22 7C20.1362 7 18.5701 8.27477 18.126 10H3C2.44772 10 2 10.4477 2 11C2 11.5523 2.44771 12 3 12ZM23.9371 11.5015L24.0662 11L23.9371 10.4985C23.715 9.63547 22.9292 9 22 9C21.0708 9 20.285 9.63547 20.0629 10.4985L19.9338 11L20.0629 11.5015C20.285 12.3645 21.0708 13 22 13C22.9292 13 23.715 12.3645 23.9371 11.5015Z" fill="black"/>
<path fill-rule="evenodd" clip-rule="evenodd" d="M29 22H13.874C13.4299 23.7252 11.8638 25 10 25C8.13616 25 6.57006 23.7252 6.12602 22H3C2.44772 22 2 21.5523 2 21C2 20.4477 2.44771 20 3 20H6.12602C6.57006 18.2748 8.13616 17 10 17C11.8638 17 13.4299 18.2748 13.874 20H29C29.5523 20 30 20.4477 30 21C30 21.5523 29.5523 22 29 22ZM8.06289 21.5015L7.93382 21L8.06289 20.4985C8.28502 19.6355 9.07082 19 10 19C10.9292 19 11.715 19.6355 11.9371 20.4985L12.0662 21L11.9371 21.5015C11.715 22.3645 10.9292 23 10 23C9.07082 23 8.28502 22.3645 8.06289 21.5015Z" fill="black"/>
</svg>
