<svg width="32" height="32" viewBox="0 0 32 32" fill="none" xmlns="http://www.w3.org/2000/svg">
<path d="M9.38151 2.07651C9.13651 1.97551 8.8615 1.97551 8.6175 2.07651C8.4955 2.12751 8.3845 2.20051 8.2925 2.29251L2.2925 8.29251C1.9015 8.68351 1.9015 9.31551 2.2925 9.70651C2.6835 10.0975 3.3155 10.0975 3.7065 9.70651L7.9995 5.41351L7.9995 20.9995C7.9995 21.5515 8.4475 21.9995 8.9995 21.9995C9.5515 21.9995 9.9995 21.5515 9.9995 20.9995L9.9995 5.41351L14.2925 9.70651C14.6835 10.0975 15.3155 10.0975 15.7065 9.70651C15.9015 9.51151 15.9995 9.25551 15.9995 8.99951C15.9995 8.74351 15.9015 8.48751 15.7065 8.29251L9.7065 2.29251C9.6145 2.20051 9.50351 2.12751 9.38151 2.07651V2.07651Z" fill="black"/>
<path d="M22.6172 29.9237C22.8622 30.0247 23.1372 30.0247 23.3812 29.9237C23.5032 29.8727 23.6142 29.7997 23.7062 29.7077L29.7062 23.7077C30.0972 23.3167 30.0972 22.6847 29.7062 22.2937C29.3152 21.9027 28.6832 21.9027 28.2922 22.2937L23.9992 26.5867L23.9992 11.0007C23.9992 10.4487 23.5512 10.0007 22.9992 10.0007C22.4472 10.0007 21.9992 10.4487 21.9992 11.0007L21.9992 26.5867L17.7062 22.2937C17.3152 21.9027 16.6832 21.9027 16.2922 22.2937C16.0972 22.4887 15.9992 22.7447 15.9992 23.0007C15.9992 23.2567 16.0972 23.5127 16.2922 23.7077L22.2922 29.7077C22.3842 29.7997 22.4952 29.8727 22.6172 29.9237V29.9237Z" fill="black"/>
</svg>
