<svg width="32" height="32" viewBox="0 0 32 32" fill="none" xmlns="http://www.w3.org/2000/svg">
<path d="M26.1728 10.8643C26.022 10.9813 23.3593 12.4816 23.3593 15.8178C23.3593 19.6766 26.7475 21.0417 26.8489 21.0755C26.8333 21.1587 26.3106 22.9451 25.0625 24.7653C23.9496 26.367 22.7873 27.9662 21.0191 27.9662C19.2509 27.9662 18.7959 26.9391 16.7547 26.9391C14.7655 26.9391 14.0582 28 12.4409 28C10.8235 28 9.69497 26.5179 8.39744 24.6977C6.89449 22.5603 5.68018 19.2397 5.68018 16.0882C5.68018 11.0333 8.9669 8.35244 12.2016 8.35244C13.9204 8.35244 15.3531 9.48095 16.4322 9.48095C17.4594 9.48095 19.0611 8.28483 21.0165 8.28483C21.7576 8.28483 24.4202 8.35243 26.1728 10.8643ZM20.0882 6.14481C20.8969 5.18532 21.4689 3.85399 21.4689 2.52265C21.4689 2.33803 21.4534 2.15082 21.4195 2C20.1038 2.04941 18.5385 2.87629 17.5946 3.971C16.8535 4.81348 16.1618 6.14481 16.1618 7.49435C16.1618 7.69717 16.1956 7.89999 16.2112 7.965C16.2944 7.9806 16.4296 7.9988 16.5649 7.9988C17.7454 7.9988 19.2301 7.20832 20.0882 6.14481Z" fill="black"/>
</svg>
