<svg width="32" height="32" viewBox="0 0 32 32" fill="none" xmlns="http://www.w3.org/2000/svg">
<path d="M27 7H15C11.04 7 10 10.27 10 12V20.59L5.71001 16.29C5.32001 15.9 4.69001 15.9 4.30001 16.29C3.91001 16.68 3.91001 17.31 4.30001 17.7L10.3 23.7C10.39 23.79 10.5 23.87 10.63 23.92C10.75 23.97 10.88 24 11.01 24C11.14 24 11.27 23.97 11.39 23.92C11.51 23.87 11.62 23.8 11.72 23.7L17.72 17.7C18.11 17.31 18.11 16.68 17.72 16.29C17.33 15.9 16.7 15.9 16.31 16.29L12.02 20.58V12.01C12.02 11.51 12.2 9 15.02 9H27.02C27.57 9 28.02 8.55 28.02 8C28.02 7.45 27.57 7 27.02 7H27Z" fill="black"/>
</svg>
