<svg width="32" height="32" viewBox="0 0 32 32" fill="none" xmlns="http://www.w3.org/2000/svg">
<g id="AisArrowDown">
<path id="Vector" d="M23.707 18.293C23.316 17.902 22.684 17.902 22.293 18.293L18 22.586V7C18 6.448 17.552 6 17 6C16.448 6 16 6.448 16 7V22.586L11.707 18.293C11.316 17.902 10.684 17.902 10.293 18.293C9.90201 18.684 9.90201 19.316 10.293 19.707L16.293 25.707C16.385 25.799 16.496 25.872 16.618 25.923C16.74 25.974 16.87 26 17 26C17.13 26 17.26 25.973 17.382 25.923C17.504 25.872 17.615 25.799 17.707 25.707L23.707 19.707C24.098 19.316 24.098 18.684 23.707 18.293Z" fill="black"/>
</g>
</svg>
