<svg width="32" height="32" viewBox="0 0 32 32" fill="none" xmlns="http://www.w3.org/2000/svg">
<path d="M25.899 5.10099C24.766 3.96799 23.259 3.34399 21.657 3.34399C20.055 3.34399 18.548 3.96799 17.414 5.10099L15.293 7.22199C14.902 7.61299 14.902 8.24499 15.293 8.63599C15.488 8.83099 15.744 8.92899 16 8.92899C16.256 8.92899 16.5119 8.83099 16.7069 8.63599L18.828 6.51499C19.584 5.75999 20.589 5.34399 21.657 5.34399C22.725 5.34399 23.729 5.75999 24.485 6.51499C26.045 8.07499 26.045 10.613 24.485 12.172L18.828 17.829L13.172 23.486C12.416 24.241 11.411 24.657 10.343 24.657C9.275 24.657 8.27099 24.241 7.51499 23.486C5.95499 21.926 5.95499 19.388 7.51499 17.829L12.606 12.738C13.385 11.957 14.656 11.959 15.435 12.738C15.813 13.116 16.021 13.618 16.021 14.152C16.021 14.686 15.813 15.189 15.435 15.567C15.41 15.592 15.401 15.625 15.379 15.651C15.352 15.673 15.319 15.683 15.293 15.708L11.758 19.244C11.367 19.635 11.367 20.268 11.758 20.658C11.953 20.853 12.209 20.951 12.465 20.951C12.721 20.951 12.977 20.853 13.172 20.658L16.7069 17.122C16.7319 17.097 16.741 17.064 16.763 17.038C16.79 17.016 16.823 17.006 16.849 16.981C17.605 16.226 18.021 15.221 18.021 14.152C18.021 13.083 17.605 12.079 16.849 11.324C15.287 9.76299 12.751 9.76499 11.192 11.324L6.10099 16.415C3.76199 18.754 3.76199 22.561 6.10099 24.9C7.23399 26.033 8.741 26.657 10.343 26.657C11.945 26.657 13.452 26.033 14.586 24.9L20.242 19.243L25.899 13.586C28.238 11.247 28.238 7.43999 25.899 5.10099V5.10099Z" fill="black"/>
</svg>
