<svg width="32" height="32" viewBox="0 0 32 32" fill="none" xmlns="http://www.w3.org/2000/svg">
<path fill-rule="evenodd" clip-rule="evenodd" d="M26 28C26 29.1046 25.1046 30 24 30C22.8954 30 22 29.1046 22 28H10C10 29.1046 9.10457 30 8 30C6.89543 30 6 29.1046 6 28H5C3.89543 28 3 27.1046 3 26V12C3 10.8954 3.89543 10 5 10H7V6.71699C7 5.33783 7.71113 4.04982 8.98054 3.51067C10.6252 2.81216 13.1501 2 16 2C18.8499 2 21.3748 2.81217 23.0195 3.51068C24.2889 4.04982 25 5.33783 25 6.71699V10H27C28.1046 10 29 10.8954 29 12V26C29 27.1046 28.1046 28 27 28H26ZM16 17C18.8968 17 21.451 17.3544 23 17.631V20H9V17.631C10.549 17.3544 13.1032 17 16 17ZM23 22H9V26H23V22ZM25 12V26H27V12H25ZM23 6.71699C23 5.99162 22.6406 5.5227 22.2376 5.35152C20.7365 4.71396 18.4876 4 16 4C13.5124 4 11.2635 4.71396 9.76239 5.35152C9.35935 5.5227 9 5.99163 9 6.71699V15.601C10.645 15.3223 13.1614 15 16 15C18.8386 15 21.355 15.3223 23 15.601V6.71699ZM7 12H5L5 26H7V12Z" fill="black"/>
</svg>
