<svg width="32" height="32" viewBox="0 0 32 32" fill="none" xmlns="http://www.w3.org/2000/svg">
<g id="AisArrowUp">
<path id="Vector" d="M22.707 12.293L16.707 6.293C16.615 6.201 16.504 6.128 16.382 6.077C16.137 5.976 15.862 5.976 15.618 6.077C15.496 6.128 15.385 6.201 15.293 6.293L9.29301 12.293C8.90201 12.684 8.90201 13.316 9.29301 13.707C9.68401 14.098 10.316 14.098 10.707 13.707L15 9.414V25C15 25.552 15.448 26 16 26C16.552 26 17 25.552 17 25V9.414L21.293 13.707C21.488 13.902 21.744 14 22 14C22.256 14 22.512 13.902 22.707 13.707C23.098 13.316 23.098 12.684 22.707 12.293Z" fill="black"/>
</g>
</svg>
