<svg width="32" height="32" viewBox="0 0 32 32" fill="none" xmlns="http://www.w3.org/2000/svg">
<g id="AisArrowRight">
<path id="Vector" d="M25.923 16.382C26.024 16.137 26.024 15.862 25.923 15.618C25.872 15.496 25.799 15.385 25.707 15.293L19.707 9.29301C19.316 8.90201 18.684 8.90201 18.293 9.29301C17.902 9.68401 17.902 10.316 18.293 10.707L22.586 15H7C6.448 15 6 15.448 6 16C6 16.552 6.448 17 7 17H22.586L18.293 21.293C17.902 21.684 17.902 22.316 18.293 22.707C18.488 22.902 18.744 23 19 23C19.256 23 19.512 22.902 19.707 22.707L25.707 16.707C25.799 16.615 25.872 16.504 25.923 16.382V16.382Z" fill="black"/>
</g>
</svg>
