<svg width="32" height="32" viewBox="0 0 32 32" fill="none" xmlns="http://www.w3.org/2000/svg">
<path d="M28.8315 2H15.3386C15.3386 5.35014 18.0724 8.08403 21.4236 8.08403H23.915V10.4594C23.915 13.8095 26.6488 16.5434 30 16.5434V3.16527C30 2.5042 29.4929 2 28.8315 2Z" fill="black"/>
<path d="M22.1622 8.71147H8.66928C8.66928 12.0616 11.4031 14.7955 14.7543 14.7955H17.2457V17.2157C17.2457 20.5658 19.9795 23.2997 23.3307 23.2997V9.87674C23.3307 9.24929 22.8236 8.71147 22.1622 8.71147Z" fill="black"/>
<path d="M2 15.4566H15.4929C16.1103 15.4566 16.6614 15.9608 16.6614 16.6219V30C13.3102 30 10.5764 27.2661 10.5764 23.916V21.5406H8.08505C4.73386 21.5406 2 18.8067 2 15.4566Z" fill="black"/>
</svg>
