<svg width="32" height="32" viewBox="0 0 32 32" fill="none" xmlns="http://www.w3.org/2000/svg">
<path d="M11.2929 2.29289C11.6834 1.90237 12.3166 1.90237 12.7071 2.29289C13.0976 2.68342 13.0976 3.31658 12.7071 3.70711L7.41421 9H17.5C23.299 9 28 13.701 28 19.5C28 25.299 23.299 30 17.5 30H6.5C6.37197 30 6.24447 29.9977 6.11755 29.9932C6.07899 29.9977 6.03977 30 6 30C5.44772 30 5 29.5523 5 29C5 28.4477 5.44772 28 6 28V27.9855C6.16544 27.9951 6.33215 28 6.5 28H17.5C22.1944 28 26 24.1944 26 19.5C26 14.8056 22.1944 11 17.5 11H7.41421L12.7071 16.2929C13.0976 16.6834 13.0976 17.3166 12.7071 17.7071C12.3166 18.0976 11.6834 18.0976 11.2929 17.7071L4.29289 10.7071C3.90237 10.3166 3.90237 9.68342 4.29289 9.29289L11.2929 2.29289Z" fill="black"/>
</svg>
