<svg width="32" height="32" viewBox="0 0 32 32" fill="none" xmlns="http://www.w3.org/2000/svg">
<path d="M5.97372 3.36602L11.1699 6.36602L13.9019 5.63397L19.0981 8.63397L19.8301 11.366L25.0263 14.366" stroke="black" stroke-width="2" stroke-linecap="round" stroke-linejoin="round"/>
<rect x="15" y="2" width="2" height="27" rx="1" fill="black"/>
<rect x="9" y="26" width="14" height="4" rx="1" fill="black"/>
<path d="M27.7197 20.9282C28.3023 21.8848 27.9591 23.1298 26.8544 23.481C25.7776 23.8233 24.645 24 23.5 24C22.355 24 21.2224 23.8233 20.1456 23.481C19.0409 23.1298 18.6977 21.8848 19.2803 20.9282L23.5 14L27.7197 20.9282Z" fill="black"/>
<path d="M9.8656 11.4484C10.0113 11.6876 10.0273 11.9384 9.96687 12.1284C9.91079 12.3046 9.78398 12.454 9.55142 12.528C8.57267 12.8392 7.54232 13 6.5 13C5.45768 13 4.42733 12.8392 3.44858 12.528C3.21602 12.454 3.08921 12.3046 3.03314 12.1284C2.97269 11.9384 2.98873 11.6876 3.1344 11.4484L6.5 5.92244L9.8656 11.4484Z" stroke="black" stroke-width="2"/>
</svg>
