<svg width="32" height="32" viewBox="0 0 32 32" fill="none" xmlns="http://www.w3.org/2000/svg">
<path fill-rule="evenodd" clip-rule="evenodd" d="M16 2C13.2386 2 11 4.23858 11 7V9H7.6396C6.68623 9 5.8654 9.67292 5.67843 10.6078L3.43533 21.8233C2.69278 25.5361 5.53253 29 9.31881 29H22.6812C26.4674 29 29.3072 25.5361 28.5646 21.8233L26.3215 10.6078C26.1346 9.67292 25.3137 9 24.3604 9H21V7C21 4.23858 18.7614 2 16 2ZM19 11V13C19 13.5523 19.4477 14 20 14C20.5523 14 21 13.5523 21 13V11H24.3604L26.6035 22.2155C27.0985 24.6907 25.2053 27 22.6812 27H9.31881C6.79463 27 4.90145 24.6907 5.39649 22.2155L7.6396 11H11V13C11 13.5523 11.4477 14 12 14C12.5523 14 13 13.5523 13 13V11H19ZM19 9V7C19 5.34315 17.6569 4 16 4C14.3431 4 13 5.34315 13 7V9H19Z" fill="black"/>
</svg>
