<svg width="32" height="32" viewBox="0 0 32 32" fill="none" xmlns="http://www.w3.org/2000/svg">
<path fill-rule="evenodd" clip-rule="evenodd" d="M16.6458 13C17.4762 12.2671 18 11.1947 18 10L18 3C18 2.44772 17.5523 2 17 2H11C10.4477 2 10 2.44772 10 3L10 10C10 11.1947 10.5238 12.2671 11.3542 13C10.5238 13.7329 10 14.8053 10 16V18H8V14C8 13.2597 7.5978 12.6134 7 12.2676V9H5V12.2676C4.4022 12.6134 4 13.2597 4 14V18C2.89543 18 2 18.8954 2 20V28H4V29C4 29.5523 4.44772 30 5 30C5.55228 30 6 29.5523 6 29V28H26V29C26 29.5523 26.4477 30 27 30C27.5523 30 28 29.5523 28 29V28H30V20C30 18.8954 29.1046 18 28 18C29.1046 18 30 17.1046 30 16V12L20 12V16C20 17.1046 20.8954 18 22 18L18 18V16C18 14.8053 17.4762 13.7329 16.6458 13ZM12 8L12 4L16 4L16 8H12ZM12 10C12 11.1046 12.8954 12 14 12C15.1046 12 16 11.1046 16 10L12 10ZM14 14C12.8954 14 12 14.8954 12 16V18H16V16C16 14.8954 15.1046 14 14 14ZM4 26V20H28V26H4ZM28 16L22 16V14L28 14V16Z" fill="black"/>
<path d="M23 6C22.4477 6 22 6.44771 22 7V9C22 9.55228 22.4477 10 23 10C23.5523 10 24 9.55228 24 9V7C24 6.44771 23.5523 6 23 6Z" fill="black"/>
<path d="M26 5C26 4.44772 26.4477 4 27 4C27.5523 4 28 4.44772 28 5V9C28 9.55228 27.5523 10 27 10C26.4477 10 26 9.55228 26 9V5Z" fill="black"/>
</svg>
