<svg width="32" height="32" viewBox="0 0 32 32" fill="none" xmlns="http://www.w3.org/2000/svg">
<path d="M7 8H25C25.552 8 26 7.552 26 7C26 6.448 25.552 6 25 6H7C6.448 6 6 6.448 6 7C6 7.552 6.448 8 7 8Z" fill="black"/>
<path d="M25 12H7C6.448 12 6 12.448 6 13C6 13.552 6.448 14 7 14H25C25.552 14 26 13.552 26 13C26 12.448 25.552 12 25 12Z" fill="black"/>
<path d="M25 18H7C6.448 18 6 18.448 6 19C6 19.552 6.448 20 7 20H25C25.552 20 26 19.552 26 19C26 18.448 25.552 18 25 18Z" fill="black"/>
<path d="M25 24H7C6.448 24 6 24.448 6 25C6 25.552 6.448 26 7 26H25C25.552 26 26 25.552 26 25C26 24.448 25.552 24 25 24Z" fill="black"/>
</svg>
