<svg width="32" height="32" viewBox="0 0 32 32" fill="none" xmlns="http://www.w3.org/2000/svg">
<rect x="15" y="2" width="2" height="27" rx="1" fill="black"/>
<rect x="9" y="26" width="14" height="4" rx="1" fill="black"/>
<path d="M5 9H11L13 7L19 7L21 9L27 9" stroke="black" stroke-width="2" stroke-linecap="round" stroke-linejoin="round"/>
<path d="M9.8656 16.4484C10.0113 16.6876 10.0273 16.9384 9.96687 17.1284C9.91079 17.3046 9.78398 17.454 9.55142 17.528C8.57267 17.8392 7.54232 18 6.5 18C5.45768 18 4.42733 17.8392 3.44858 17.528C3.21602 17.454 3.08921 17.3046 3.03314 17.1284C2.97269 16.9384 2.98873 16.6876 3.1344 16.4484L6.5 10.9224L9.8656 16.4484Z" stroke="black" stroke-width="2"/>
<path d="M28.8656 16.4484C29.0113 16.6876 29.0273 16.9384 28.9669 17.1284C28.9108 17.3046 28.784 17.454 28.5514 17.528C27.5727 17.8392 26.5423 18 25.5 18C24.4577 18 23.4273 17.8392 22.4486 17.528C22.216 17.454 22.0892 17.3046 22.0331 17.1284C21.9727 16.9384 21.9887 16.6876 22.1344 16.4484L25.5 10.9224L28.8656 16.4484Z" stroke="black" stroke-width="2"/>
</svg>
