<svg width="32" height="32" viewBox="0 0 32 32" fill="none" xmlns="http://www.w3.org/2000/svg">
<path fill-rule="evenodd" clip-rule="evenodd" d="M26 3C26 2.44772 25.5523 2 25 2C22.9246 2 20.478 2.53323 18.5167 3.78134C17.207 4.61476 16.1021 5.77984 15.497 7.30373C15.4112 7.2463 15.3215 7.19224 15.228 7.14165C14.1525 6.55999 12.7755 6.56884 11.4764 6.71638C10.4441 6.83362 9.29618 7.06319 8.16139 7.29013C7.83621 7.35517 7.5118 7.42004 7.19179 7.48194C5.71613 7.76737 4.28901 7.99999 3 8C2.44772 8 2 8.44771 2 8.99999V29C2 29.5523 2.44772 30 3 30C4.62616 30 6.28518 29.6626 7.80504 29.2826C8.39913 29.1341 8.95918 28.983 9.49201 28.8393C10.3743 28.6013 11.182 28.3834 11.9461 28.2306C13.1972 27.9804 13.949 27.9988 14.3653 28.2069C14.5428 28.2957 14.7726 28.4804 14.9014 29.0068C15.0326 29.5432 15.4476 29.9999 15.9999 29.9999L16.7877 30C16.9049 30 16.9996 29.9049 17.0035 29.7877C17.0305 28.9996 17.2061 28.6127 17.3632 28.4214C17.5044 28.2495 17.7298 28.1146 18.1683 28.0656C18.6288 28.014 19.2357 28.0695 20.0076 28.2214C20.772 28.3718 21.6206 28.6 22.5584 28.8526L22.6202 28.8693C24.5438 29.3875 26.817 30 29 30C29.5523 30 30 29.5523 30 29V9C30 8.44771 29.5523 8 29 8C28.0637 8 27.0521 7.87705 26 7.69959V3ZM24 4.04723C22.4834 4.18858 20.877 4.64996 19.5904 5.46866C18.051 6.44834 17 7.90751 17 10V24.9684C17.438 24.5181 17.9304 24.1238 18.4592 23.7838C18.4869 23.766 18.5147 23.7484 18.5425 23.7309C20.0735 22.7697 21.9028 22.2458 23.6463 22.0691C23.7646 22.0571 23.8826 22.0467 24 22.0378V4.04723ZM14.2765 8.90083C14.6357 9.0951 15 9.49556 15 10.68V26.3031C13.9617 25.8993 12.705 26.0392 11.5539 26.2694C10.7344 26.4333 9.80618 26.6831 8.86977 26.935C8.35003 27.0749 7.82755 27.2155 7.31996 27.3424C6.19366 27.6239 5.07555 27.8578 4 27.9535V9.96376C5.19192 9.88132 6.41417 9.66942 7.5716 9.44555C7.9259 9.37702 8.27258 9.30775 8.61144 9.24005C9.72919 9.01672 10.7619 8.81038 11.7021 8.7036C12.9566 8.56114 13.785 8.63499 14.2765 8.90083Z" fill="black"/>
</svg>
