<svg width="32" height="32" viewBox="0 0 32 32" fill="none" xmlns="http://www.w3.org/2000/svg">
<path d="M6.97372 14.366L12.1699 11.366L12.9019 8.63397L18.0981 5.63397L20.8301 6.36602L26.0263 3.36602" stroke="black" stroke-width="2" stroke-linecap="round" stroke-linejoin="round"/>
<path d="M28.8656 11.4484C29.0113 11.6876 29.0273 11.9384 28.9669 12.1284C28.9108 12.3046 28.784 12.454 28.5514 12.528C27.5727 12.8392 26.5423 13 25.5 13C24.4577 13 23.4273 12.8392 22.4486 12.528C22.216 12.454 22.0892 12.3046 22.0331 12.1284C21.9727 11.9384 21.9887 11.6876 22.1344 11.4484L25.5 5.92244L28.8656 11.4484Z" stroke="black" stroke-width="2"/>
<path d="M12.7197 20.9282C13.3023 21.8848 12.9591 23.1298 11.8544 23.481C10.7776 23.8233 9.64501 24 8.5 24C7.35498 24 6.22244 23.8233 5.1456 23.481C4.04085 23.1298 3.69773 21.8848 4.28034 20.9282L8.5 14L12.7197 20.9282Z" fill="black"/>
<rect x="15" y="2" width="2" height="27" rx="1" fill="black"/>
<rect x="9" y="26" width="14" height="4" rx="1" fill="black"/>
</svg>
