<svg width="32" height="32" viewBox="0 0 32 32" fill="none" xmlns="http://www.w3.org/2000/svg">
<path fill-rule="evenodd" clip-rule="evenodd" d="M8 2C5.79086 2 4 3.79086 4 6V14C2.89543 14 2 14.8954 2 16V20C2 24.0796 5.05369 27.446 9 27.9381V29C9 29.5523 9.44772 30 10 30C10.5523 30 11 29.5523 11 29V28H21V29C21 29.5523 21.4477 30 22 30C22.5523 30 23 29.5523 23 29V27.9381C26.9463 27.446 30 24.0796 30 20V16C30 14.8954 29.1046 14 28 14H26C26 12.8954 25.1046 12 24 12H18C16.8954 12 16 12.8954 16 14H6V6C6 4.89543 6.89543 4 8 4C9.10457 4 10 4.89543 10 6V8.5H12V6C12 3.79086 10.2091 2 8 2ZM24 14H18V20H24V14ZM28 20C28 23.3137 25.3137 26 22 26H10C6.68629 26 4 23.3137 4 20V16H16V20C16 21.1046 16.8954 22 18 22H24C25.1046 22 26 21.1046 26 20V16H28V20Z" fill="black"/>
</svg>
