<svg width="32" height="32" viewBox="0 0 32 32" fill="none" xmlns="http://www.w3.org/2000/svg">
<path d="M28 6L4 6C3.448 6 3 5.553 3 5C3 4.447 3.448 4 4 4L28 4C28.552 4 29 4.447 29 5C29 5.553 28.552 6 28 6Z" fill="black"/>
<path d="M4 10L28 10C28.552 10 29 9.553 29 9C29 8.447 28.552 8 28 8L4 8C3.448 8 3 8.447 3 9C3 9.553 3.448 10 4 10Z" fill="black"/>
<path d="M8 16C7.44772 16 7 16.4477 7 17C7 17.5523 7.44772 18 8 18H20C20.5523 18 21 17.5523 21 17C21 16.4477 20.5523 16 20 16H8Z" fill="black"/>
<path d="M7 21C7 20.4477 7.44772 20 8 20H16C16.5523 20 17 20.4477 17 21C17 21.5523 16.5523 22 16 22H8C7.44772 22 7 21.5523 7 21Z" fill="black"/>
<path d="M22 22C21.4477 22 21 22.4477 21 23C21 23.5523 21.4477 24 22 24H25C25.5523 24 26 23.5523 26 23C26 22.4477 25.5523 22 25 22H22Z" fill="black"/>
<path fill-rule="evenodd" clip-rule="evenodd" d="M28 28C28.552 28 29 27.553 29 27L29 13C29 12.447 28.552 12 28 12L4 12C3.448 12 3 12.447 3 13L3 27C3 27.553 3.448 28 4 28L28 28ZM5 14L27 14L27 26L5 26L5 14Z" fill="black"/>
</svg>
