<svg width="32" height="32" viewBox="0 0 32 32" fill="none" xmlns="http://www.w3.org/2000/svg">
<path d="M23.367 10H21V7C21 4.243 18.757 2 16 2C13.243 2 11 4.243 11 7V10H8.633C7.181 10 6 11.181 6 12.633V27.367C6 28.819 7.181 30 8.633 30H23.367C24.819 30 26 28.819 26 27.367V12.633C26 11.181 24.819 10 23.367 10ZM13 7C13 5.346 14.346 4 16 4C17.654 4 19 5.346 19 7V10H13V7ZM24 27.367C24 27.716 23.716 28 23.367 28H8.633C8.284 28 8 27.716 8 27.367V12.633C8 12.284 8.284 12 8.633 12H11V15C11 15.552 11.447 16 12 16C12.553 16 13 15.552 13 15V12H19V15C19 15.552 19.447 16 20 16C20.553 16 21 15.552 21 15V12H23.367C23.716 12 24 12.284 24 12.633V27.367Z" fill="black"/>
</svg>
