<svg width="32" height="32" viewBox="0 0 32 32" fill="none" xmlns="http://www.w3.org/2000/svg">
<path d="M14 10C13.4477 10 13 10.4477 13 11V13C13 13.5523 13.4477 14 14 14H18C18.5523 14 19 13.5523 19 13V11C19 10.4477 18.5523 10 18 10H14Z" fill="black"/>
<path fill-rule="evenodd" clip-rule="evenodd" d="M25.8112 2.41529C25.6233 2.15452 25.3214 2 25 2H22C21.6212 2 21.275 2.214 21.1056 2.55279L19.2832 6.19744C18.8332 6.06706 18.3649 6 17.8921 6H14.1079C13.6351 6 13.1668 6.06706 12.7168 6.19744L10.8944 2.55279C10.725 2.214 10.3788 2 10 2H7.00001C6.67856 2 6.37672 2.15452 6.18877 2.41529C6.00081 2.67606 5.94967 3.01128 6.05132 3.31623L8.0237 9.23335C7.36979 10.0913 7 11.1522 7 12.2648V13.5116C7 14.3231 7.19749 15.1223 7.57541 15.8404L11.772 23.8138L11.5858 24H6C4.89543 24 4 24.8954 4 26V27.105C4 28.1241 4.76627 28.9802 5.77914 29.0927L13.9446 30H18.0554L26.2209 29.0927C27.2337 28.9802 28 28.1241 28 27.105V26C28 24.8954 27.1046 24 26 24H20.4142L20.228 23.8138L24.4246 15.8404C24.8025 15.1223 25 14.3231 25 13.5116V12.2648C25 11.1522 24.6302 10.0913 23.9763 9.23335L25.9487 3.31623C26.0503 3.01128 25.9992 2.67606 25.8112 2.41529ZM9.66559 7.83446L10.9222 7.08048L9.38197 4H8.38743L9.66559 7.83446ZM22.3344 7.83446L21.0778 7.08048L22.618 4H23.6126L22.3344 7.83446ZM18.2764 24.6906C18.287 24.7017 18.2978 24.7125 18.3089 24.7231L18.7832 25.1975L17.382 28H14.618L13.2168 25.1975L13.6911 24.7231C13.7022 24.7125 13.713 24.7017 13.7236 24.6906L14.4142 24H17.5858L18.2764 24.6906ZM18.7324 22.3613L20.2558 19.4668L17.6977 20.1063C16.5831 20.385 15.4169 20.385 14.3022 20.1063L11.7442 19.4668L13.2676 22.3613C13.6014 22.1277 14.0012 22 14.4142 22H17.5858C17.9988 22 18.3986 22.1277 18.7324 22.3613ZM21.5053 17.0929L22.6548 14.9089C22.8815 14.478 23 13.9985 23 13.5116V12.2648C23 11.211 22.4471 10.2345 21.5435 9.69228L19.4356 8.42752C18.9693 8.14777 18.4358 8 17.8921 8H14.1079C13.5642 8 13.0307 8.14777 12.5644 8.42752L10.4565 9.69228C9.5529 10.2345 9 11.211 9 12.2648V13.5116C9 13.9985 9.11849 14.478 9.34525 14.9089L10.4947 17.0929L14.7873 18.166C15.5835 18.3651 16.4165 18.3651 17.2127 18.166L21.5053 17.0929ZM11.382 26H6V27.105L12.2835 27.8031L11.382 26ZM26 26H20.618L19.7165 27.8031L26 27.105V26Z" fill="black"/>
</svg>
