<svg width="32" height="32" viewBox="0 0 32 32" fill="none" xmlns="http://www.w3.org/2000/svg">
<path d="M26 18H23V14.414L25.707 11.7069C26.098 11.3159 26.098 10.684 25.707 10.293C25.316 9.90201 24.684 9.90201 24.293 10.293L22.76 11.826C22.428 11.048 21.771 10.4499 20.965 10.1729C20.976 10.1149 21 10.061 21 9.99998C21 8.47198 20.296 7.11896 19.213 6.20096L19.707 5.70695C20.098 5.31595 20.098 4.68401 19.707 4.29301C19.316 3.90201 18.684 3.90201 18.293 4.29301L17.371 5.215C16.932 5.089 16.479 4.99998 16 4.99998C15.521 4.99998 15.068 5.089 14.629 5.215L13.707 4.29301C13.316 3.90201 12.684 3.90201 12.293 4.29301C11.902 4.68401 11.902 5.31595 12.293 5.70695L12.787 6.20096C11.703 7.11896 11 8.47198 11 9.99998C11 10.062 11.024 10.1149 11.035 10.1729C10.229 10.4489 9.57199 11.047 9.23999 11.826L7.70697 10.293C7.31597 9.90201 6.68403 9.90201 6.29303 10.293C5.90203 10.684 5.90203 11.3159 6.29303 11.7069L9 14.414V18H6C5.447 18 5 18.447 5 19C5 19.553 5.447 20 6 20H9V21C9 21.492 9.05202 21.9719 9.15002 22.4359L6.29303 25.293C5.90203 25.684 5.90203 26.3159 6.29303 26.7069C6.48803 26.9019 6.744 27 7 27C7.256 27 7.51197 26.9019 7.70697 26.7069L9.935 24.479C11.145 26.579 13.408 28 16 28C18.592 28 20.855 26.579 22.065 24.479L24.293 26.7069C24.488 26.9019 24.744 27 25 27C25.256 27 25.512 26.9019 25.707 26.7069C26.098 26.3159 26.098 25.684 25.707 25.293L22.85 22.4359C22.947 21.9719 23 21.492 23 21V20H26C26.553 20 27 19.553 27 19C27 18.447 26.553 18 26 18ZM19 9.99998H13C13 8.34598 14.346 6.99998 16 6.99998C17.654 6.99998 19 8.34598 19 9.99998ZM16 26C13.243 26 11 23.757 11 21V13C11 12.448 11.448 12 12 12H20C20.552 12 21 12.448 21 13V21C21 23.757 18.757 26 16 26Z" fill="black"/>
</svg>
