<svg width="32" height="32" viewBox="0 0 32 32" fill="none" xmlns="http://www.w3.org/2000/svg">
<path fill-rule="evenodd" clip-rule="evenodd" d="M6 22C5.447 22 5 22.447 5 23C5 23.553 5.447 24 6 24H26C26.553 24 27 23.553 27 23C27 22.447 26.553 22 26 22H25V19H23V22H20V19H18V22H14V10H18V13H20V10H23V13H25V10H26C26.553 10 27 9.55301 27 9.00001V6.00001C27 5.52301 26.663 5.11303 26.196 5.02003L16.196 3.02003C16.067 2.99503 15.932 2.99503 15.803 3.02003L5.80301 5.02003C5.33601 5.11403 4.99899 5.52401 4.99899 6.00001V9.00001C4.99899 9.55301 5.44599 10 5.99899 10H6.99899V22H6ZM7 6.81898L16 5.01899L25 6.81898V8.00001H7V6.81898ZM9 10H12V22H9V10Z" fill="black"/>
<path d="M3 26C2.447 26 2 26.447 2 27C2 27.553 2.447 28 3 28H29C29.553 28 30 27.553 30 27C30 26.447 29.553 26 29 26H3Z" fill="black"/>
<path d="M26.4453 12.1679C26.9048 11.8616 27.5257 11.9858 27.8321 12.4453L29.8321 15.4453C30.056 15.7812 30.056 16.2188 29.8321 16.5547L27.8321 19.5547C27.5257 20.0142 26.9048 20.1384 26.4453 19.832C25.9858 19.5257 25.8616 18.9048 26.168 18.4453L27.1315 17H18C17.4477 17 17 16.5523 17 16C17 15.4477 17.4477 15 18 15H27.1315L26.168 13.5547C25.8616 13.0952 25.9858 12.4743 26.4453 12.1679Z" fill="black"/>
</svg>
