<svg width="32" height="32" viewBox="0 0 32 32" fill="none" xmlns="http://www.w3.org/2000/svg">
<path d="M23 26H8C4.691 26 2 23.309 2 20C2 17.032 4.166 14.561 7 14.083C7 14.055 7 14.028 7 14C7 9.589 10.589 6 15 6C18.676 6 21.847 8.521 22.742 12.005C26.719 11.847 30 15.054 30 19C30 22.86 26.86 26 23 26ZM7.952 16C5.768 16.025 4 17.81 4 20C4 22.206 5.794 24 8 24H23C25.757 24 28 21.757 28 19C28 16.243 25.757 14 23 14C22.718 14 22.427 14.027 22.112 14.084C21.843 14.133 21.565 14.068 21.344 13.906C21.123 13.744 20.978 13.499 20.944 13.227C20.561 10.247 18.006 8 15 8C11.691 8 9 10.691 9 14C9 14.256 9.02201 14.531 9.07001 14.866C9.11201 15.156 9.024 15.45 8.83 15.67C8.636 15.89 8.396 16.02 8.062 16.008C8.034 16.008 7.991 16.004 7.952 16V16Z" fill="black"/>
</svg>
