<svg width="32" height="32" viewBox="0 0 32 32" fill="none" xmlns="http://www.w3.org/2000/svg">
<mask id="path-1-inside-1_213_9" fill="white">
<path fill-rule="evenodd" clip-rule="evenodd" d="M16 2C8.26801 2 2 8.26801 2 16C2 19.6144 3.36971 22.909 5.6184 25.3928L2.0718 30H15.9282L15.9281 29.9998C15.952 29.9999 15.976 30 16 30C23.732 30 30 23.732 30 16C30 8.26801 23.732 2 16 2Z"/>
</mask>
<path d="M5.6184 25.3928L7.20321 26.6128L8.22227 25.289L7.10106 24.0506L5.6184 25.3928ZM2.0718 30L0.486985 28.78L-1.99176 32H2.0718V30ZM15.9282 30V32H19.9873L17.5141 28.7814L15.9282 30ZM15.9281 29.9998L15.9381 27.9998L11.8532 27.9794L14.3422 31.2184L15.9281 29.9998ZM4 16C4 9.37258 9.37258 4 16 4V0C7.16344 0 0 7.16344 0 16H4ZM7.10106 24.0506C5.17233 21.9201 4 19.0993 4 16H0C0 20.1296 1.5671 23.8978 4.13573 26.7351L7.10106 24.0506ZM3.65661 31.22L7.20321 26.6128L4.03358 24.1728L0.486985 28.78L3.65661 31.22ZM15.9282 28H2.0718V32H15.9282V28ZM14.3422 31.2184L14.3423 31.2186L17.5141 28.7814L17.5139 28.7812L14.3422 31.2184ZM16 28C15.9794 28 15.9588 27.9999 15.9381 27.9998L15.918 31.9998C15.9453 31.9999 15.9726 32 16 32V28ZM28 16C28 22.6274 22.6274 28 16 28V32C24.8366 32 32 24.8366 32 16H28ZM16 4C22.6274 4 28 9.37258 28 16H32C32 7.16344 24.8366 0 16 0V4Z" fill="black" mask="url(#path-1-inside-1_213_9)"/>
</svg>
