<svg width="32" height="32" viewBox="0 0 32 32" fill="none" xmlns="http://www.w3.org/2000/svg">
<g id="AisChevronSort">
<g id="Group">
<g id="Vector">
<path d="M21.293 20.293L16 25.586L10.707 20.293C10.316 19.902 9.68401 19.902 9.29301 20.293C8.90201 20.684 8.90201 21.316 9.29301 21.707L15.293 27.707C15.488 27.902 15.744 28 16 28C16.256 28 16.512 27.902 16.707 27.707L22.707 21.707C23.098 21.316 23.098 20.684 22.707 20.293C22.316 19.902 21.684 19.902 21.293 20.293Z" fill="black"/>
<path d="M10.707 11.707L16 6.41401L21.293 11.707C21.488 11.902 21.744 12 22 12C22.256 12 22.512 11.902 22.707 11.707C23.098 11.316 23.098 10.684 22.707 10.293L16.707 4.29301C16.316 3.90201 15.684 3.90201 15.293 4.29301L9.29301 10.293C8.90201 10.684 8.90201 11.316 9.29301 11.707C9.68401 12.098 10.316 12.098 10.707 11.707Z" fill="black"/>
</g>
</g>
</g>
</svg>
