<svg width="32" height="32" viewBox="0 0 32 32" fill="none" xmlns="http://www.w3.org/2000/svg">
<g id="AisCamera">
<g id="Vector">
<path d="M25 8H20.618L20.171 7.105C19.83 6.423 19.145 6 18.382 6H13.617C12.855 6 12.169 6.424 11.828 7.105L11.381 8H6.99902C5.34502 8 3.99902 9.346 3.99902 11V23C3.99902 24.654 5.34502 26 6.99902 26H24.999C26.653 26 27.999 24.654 27.999 23V11C27.999 9.346 26.653 8 24.999 8H25ZM26 23C26 23.551 25.551 24 25 24H7.00003C6.44903 24 6.00003 23.551 6.00003 23V11C6.00003 10.449 6.44903 10 7.00003 10H11.382C12.144 10 12.83 9.576 13.171 8.895L13.618 8H18.382L18.829 8.895C19.17 9.577 19.855 10 20.618 10H25C25.551 10 26 10.449 26 11V23Z" fill="black"/>
<path d="M16 12C13.243 12 11 14.243 11 17C11 19.757 13.243 22 16 22C18.757 22 21 19.757 21 17C21 14.243 18.757 12 16 12ZM16 20C14.346 20 13 18.654 13 17C13 15.346 14.346 14 16 14C17.654 14 19 15.346 19 17C19 18.654 17.654 20 16 20Z" fill="black"/>
</g>
</g>
</svg>
