<svg width="32" height="32" viewBox="0 0 32 32" fill="none" xmlns="http://www.w3.org/2000/svg">
<path d="M23.6315 6.30506C23.8722 7.41235 23.8111 8.57897 23.3503 9.61419C21.6254 13.4892 19.347 15.6671 17 16.1479V17.982C19.0974 17.9064 21.1029 17.5929 22.652 17.0622C22.7359 17.031 22.8226 17.0117 22.9096 17.0039C23.0347 16.9924 23.1588 17.005 23.276 17.0388C23.4343 17.0842 23.5822 17.1686 23.7038 17.2893C23.7768 17.3615 23.8395 17.4458 23.8883 17.5405C24.0169 17.7884 24.0322 18.0717 23.9463 18.3235C23.9031 18.4501 23.8344 18.5688 23.7417 18.6711C23.6849 18.7339 23.6197 18.79 23.547 18.8374C21.6822 20.1171 19.3536 20.8142 17 20.9675V24H22C22.5523 24 23 24.4477 23 25C23 25.5523 22.5523 26 22 26H10C9.44772 26 9 25.5523 9 25C9 24.4477 9.44772 24 10 24H15V20.9675C12.6463 20.8142 10.3178 20.1171 8.4529 18.8374C8.38085 18.7904 8.31616 18.7348 8.25973 18.6726C8.16628 18.57 8.09708 18.4507 8.05369 18.3234C8.00591 18.1839 7.9886 18.0332 8.00683 17.8816C8.0207 17.7644 8.0555 17.6485 8.11228 17.5394C8.16102 17.4451 8.22346 17.3612 8.29621 17.2893C8.4181 17.1683 8.56643 17.0837 8.7252 17.0384C8.84204 17.0049 8.96569 16.9925 9.09036 17.0039C9.1774 17.0117 9.26405 17.031 9.34797 17.0622C10.8971 17.5929 12.9025 17.9064 15 17.982V16.1479C12.653 15.6671 10.3746 13.4892 8.64972 9.61419C8.18892 8.57897 8.12775 7.41235 8.36847 6.30506L8.79175 4.35793C8.92856 3.72862 9.23122 3.13665 9.82297 2.88252C10.8281 2.45085 12.7566 2 16 2C19.2434 2 21.1719 2.45085 22.177 2.88252C22.7688 3.13665 23.0714 3.72862 23.2082 4.35793L23.6315 6.30506Z" fill="black"/>
<path d="M10 30C10.5523 30 11 29.5523 11 29C11 28.4477 10.5523 28 10 28C9.44772 28 9 28.4477 9 29C9 29.5523 9.44772 30 10 30Z" fill="black"/>
<path d="M17 29C17 29.5523 16.5523 30 16 30C15.4477 30 15 29.5523 15 29C15 28.4477 15.4477 28 16 28C16.5523 28 17 28.4477 17 29Z" fill="black"/>
<path d="M22 30C22.5523 30 23 29.5523 23 29C23 28.4477 22.5523 28 22 28C21.4477 28 21 28.4477 21 29C21 29.5523 21.4477 30 22 30Z" fill="black"/>
</svg>
