<svg width="32" height="32" viewBox="0 0 32 32" fill="none" xmlns="http://www.w3.org/2000/svg">
<path d="M22.5909 12.5909L21.5454 14.8637H6.72726L7.54545 12.5909H22.5909ZM20.6364 17.1364L19.5909 19.4091H6.72726L7.54545 17.1364H20.6364ZM25.2727 6.45456L24.1818 8.8182C23.697 8.3788 23.1856 8.00002 22.6477 7.68184C22.1098 7.36365 21.5454 7.11744 20.9545 6.9432C20.3636 6.76896 19.7424 6.68184 19.0909 6.68184C17.803 6.68184 16.6439 7.0379 15.6136 7.75002C14.5833 8.46214 13.7689 9.51138 13.1704 10.8977C12.572 12.2841 12.2727 13.9849 12.2727 16C12.2727 18.0152 12.572 19.7159 13.1704 21.1023C13.7689 22.4887 14.5833 23.5379 15.6136 24.25C16.6439 24.9621 17.803 25.3182 19.0909 25.3182C19.7576 25.3182 20.3864 25.2311 20.9773 25.0568C21.5757 24.8826 22.1326 24.644 22.6477 24.3409C23.1704 24.0379 23.6515 23.697 24.0909 23.3182L25.2273 25.6818C24.4318 26.4318 23.5 27 22.4318 27.3864C21.3636 27.7652 20.25 27.9546 19.0909 27.9546C17.2273 27.9546 15.5757 27.4697 14.1364 26.5C12.7045 25.5303 11.5795 24.1515 10.7614 22.3637C9.95075 20.5758 9.54545 18.4546 9.54545 16C9.54545 13.5455 9.95075 11.4243 10.7614 9.63638C11.5795 7.8485 12.7045 6.46971 14.1364 5.50002C15.5757 4.53032 17.2273 4.04547 19.0909 4.04547C20.2954 4.04547 21.4204 4.2538 22.4659 4.67047C23.5189 5.08714 24.4545 5.68184 25.2727 6.45456Z" fill="black"/>
</svg>
