<svg width="32" height="32" viewBox="0 0 32 32" fill="none" xmlns="http://www.w3.org/2000/svg">
<path fill-rule="evenodd" clip-rule="evenodd" d="M4.2875 19.9663C4.18534 19.7812 4.11127 19.5773 4.0715 19.3597L3.44276 15.9213C2.60934 15.6801 2 14.9112 2 14C2 12.8954 2.89543 12 4 12C5.10457 12 6 12.8954 6 14C6 14.1399 5.98564 14.2765 5.9583 14.4082L6.98792 14.7244C8.52007 15.1948 10.1851 14.7052 11.2188 13.4804L14.6212 9.4488C14.2385 9.08448 14 8.5701 14 8C14 6.89543 14.8954 6 16 6C17.1046 6 18 6.89543 18 8C18 8.5701 17.7615 9.08448 17.3788 9.4488L20.7812 13.4804C21.8149 14.7052 23.4799 15.1948 25.0121 14.7244L26.0417 14.4082C26.0144 14.2765 26 14.1399 26 14C26 12.8954 26.8954 12 28 12C29.1046 12 30 12.8954 30 14C30 14.9112 29.3907 15.6801 28.5572 15.9213L27.9285 19.3597C27.8887 19.5773 27.8147 19.7812 27.7125 19.9663C27.895 20.268 28 20.6217 28 21V23C28 24.1046 27.1046 25 26 25H6C4.89543 25 4 24.1046 4 23V21C4 20.6217 4.10502 20.268 4.2875 19.9663ZM6 21L6 23H26V21H6Z" fill="black"/>
</svg>
