<svg width="32" height="32" viewBox="0 0 32 32" fill="none" xmlns="http://www.w3.org/2000/svg">
<g id="AisComment">
<g id="Vector">
<path d="M25 4H7C4.243 4 2 6.243 2 9V19C2 21.415 3.721 23.435 6 23.899V27C6 27.404 6.244 27.769 6.617 27.924C6.741 27.975 6.871 28 7 28C7.26 28 7.516 27.898 7.707 27.707L11.414 24H25C27.757 24 30 21.757 30 19V9C30 6.243 27.757 4 25 4ZM28 19C28 20.654 26.654 22 25 22H11C10.735 22 10.48 22.105 10.293 22.293L8 24.586V23C8 22.448 7.552 22 7 22C5.346 22 4 20.654 4 19V9C4 7.346 5.346 6 7 6H25C26.654 6 28 7.346 28 9V19Z" fill="black"/>
<path d="M23 10H9C8.448 10 8 10.448 8 11C8 11.552 8.448 12 9 12H23C23.552 12 24 11.552 24 11C24 10.448 23.552 10 23 10Z" fill="black"/>
<path d="M17 14H9C8.448 14 8 14.448 8 15C8 15.552 8.448 16 9 16H17C17.552 16 18 15.552 18 15C18 14.448 17.552 14 17 14Z" fill="black"/>
</g>
</g>
</svg>
