<svg width="32" height="32" viewBox="0 0 32 32" fill="none" xmlns="http://www.w3.org/2000/svg">
<g id="AisCopy">
<g id="Vector">
<path d="M25 4H11C9.346 4 8 5.346 8 7V21C8 22.654 9.346 24 11 24H25C26.654 24 28 22.654 28 21V7C28 5.346 26.654 4 25 4ZM26 21C26 21.551 25.552 22 25 22H11C10.448 22 10 21.551 10 21V7C10 6.449 10.448 6 11 6H25C25.552 6 26 6.449 26 7V21Z" fill="black"/>
<path d="M22 28C22.5523 28 23 27.5523 23 27C23 26.4477 22.5523 26 22 26C21.4477 26 21 26.4477 21 27C21 27.5523 21.4477 28 22 28Z" fill="black"/>
<path d="M18 28C18.5523 28 19 27.5523 19 27C19 26.4477 18.5523 26 18 26C17.4477 26 17 26.4477 17 27C17 27.5523 17.4477 28 18 28Z" fill="black"/>
<path d="M14 28C14.5523 28 15 27.5523 15 27C15 26.4477 14.5523 26 14 26C13.4477 26 13 26.4477 13 27C13 27.5523 13.4477 28 14 28Z" fill="black"/>
<path d="M10 28C10.5523 28 11 27.5523 11 27C11 26.4477 10.5523 26 10 26C9.44772 26 9 26.4477 9 27C9 27.5523 9.44772 28 10 28Z" fill="black"/>
<path d="M5 11C5.55228 11 6 10.5523 6 10C6 9.44772 5.55228 9 5 9C4.44772 9 4 9.44772 4 10C4 10.5523 4.44772 11 5 11Z" fill="black"/>
<path d="M5 15C5.55228 15 6 14.5523 6 14C6 13.4477 5.55228 13 5 13C4.44772 13 4 13.4477 4 14C4 14.5523 4.44772 15 5 15Z" fill="black"/>
<path d="M5 19C5.55228 19 6 18.5523 6 18C6 17.4477 5.55228 17 5 17C4.44772 17 4 17.4477 4 18C4 18.5523 4.44772 19 5 19Z" fill="black"/>
<path d="M5 23C5.55228 23 6 22.5523 6 22C6 21.4477 5.55228 21 5 21C4.44772 21 4 21.4477 4 22C4 22.5523 4.44772 23 5 23Z" fill="black"/>
<path d="M6 27C6.55228 27 7 26.5523 7 26C7 25.4477 6.55228 25 6 25C5.44772 25 5 25.4477 5 26C5 26.5523 5.44772 27 6 27Z" fill="black"/>
</g>
</g>
</svg>
