<svg width="32" height="32" viewBox="0 0 32 32" fill="none" xmlns="http://www.w3.org/2000/svg">
<path d="M15.6278 28.7273V1.45453H17.3749V28.7273H15.6278ZM21.5084 9.63635C21.3806 8.5568 20.8621 7.71873 19.9531 7.12214C19.044 6.52555 17.9289 6.22726 16.6079 6.22726C15.642 6.22726 14.7968 6.38351 14.0724 6.69601C13.355 7.00851 12.794 7.43819 12.3891 7.98507C11.9914 8.53194 11.7925 9.15339 11.7925 9.84942C11.7925 10.4318 11.931 10.9325 12.208 11.3515C12.4921 11.7635 12.8543 12.1079 13.2947 12.3849C13.735 12.6548 14.1967 12.8785 14.6796 13.0561C15.1626 13.2265 15.6065 13.365 16.0113 13.4716L18.2272 14.0682C18.7954 14.2173 19.4275 14.4233 20.1235 14.6861C20.8266 14.9488 21.4978 15.3075 22.137 15.7621C22.7833 16.2095 23.316 16.7848 23.735 17.4879C24.154 18.191 24.3636 19.054 24.3636 20.0767C24.3636 21.2557 24.0546 22.321 23.4367 23.2727C22.8259 24.2244 21.931 24.9808 20.7521 25.5419C19.5802 26.103 18.1562 26.3835 16.48 26.3835C14.9175 26.3835 13.5646 26.1314 12.4211 25.6271C11.2847 25.1229 10.3898 24.4197 9.73643 23.5177C9.09012 22.6158 8.72436 21.5682 8.63913 20.375H11.3664C11.4374 21.1988 11.7144 21.8807 12.1974 22.4204C12.6874 22.9531 13.3053 23.3508 14.0511 23.6136C14.8039 23.8693 15.6136 23.9971 16.48 23.9971C17.4886 23.9971 18.3941 23.8338 19.1967 23.5071C19.9992 23.1733 20.6349 22.7116 21.1036 22.1221C21.5724 21.5256 21.8067 20.8295 21.8067 20.0341C21.8067 19.3096 21.6043 18.7202 21.1995 18.2656C20.7947 17.8111 20.262 17.4417 19.6015 17.1577C18.941 16.8736 18.2272 16.625 17.4602 16.4119L14.7755 15.6449C13.0709 15.1548 11.7215 14.4552 10.7272 13.5461C9.73288 12.6371 9.23572 11.4474 9.23572 9.97726C9.23572 8.75567 9.56598 7.69032 10.2265 6.78123C10.8941 5.86504 11.789 5.15481 12.9111 4.65055C14.0404 4.13919 15.3011 3.88351 16.6931 3.88351C18.0994 3.88351 19.3494 4.13564 20.4431 4.6399C21.5369 5.13706 22.4033 5.81888 23.0425 6.68535C23.6888 7.55183 24.0298 8.5355 24.0653 9.63635H21.5084Z" fill="black"/>
</svg>
