<svg width="32" height="32" viewBox="0 0 32 32" fill="none" xmlns="http://www.w3.org/2000/svg">
<path fill-rule="evenodd" clip-rule="evenodd" d="M16.5555 3.37108C16.2192 3.14645 15.7808 3.14645 15.4445 3.37108L14.0618 4.29479C13.8413 4.44207 13.5714 4.49577 13.3113 4.44407L11.6803 4.11982C11.2837 4.04097 10.8786 4.20876 10.6539 4.54497L9.72992 5.92753C9.58259 6.14797 9.35375 6.30088 9.0937 6.35263L7.46279 6.67722C7.06618 6.75615 6.75615 7.06618 6.67722 7.46279L6.35263 9.0937C6.30088 9.35375 6.14797 9.58259 5.92753 9.72992L4.54497 10.6539C4.20876 10.8786 4.04097 11.2837 4.11982 11.6803L4.44407 13.3113C4.49577 13.5714 4.44207 13.8413 4.29479 14.0618L3.37108 15.4445C3.14645 15.7808 3.14645 16.2192 3.37108 16.5555L4.29479 17.9382C4.44207 18.1587 4.49577 18.4286 4.44407 18.6887L4.11982 20.3197C4.04097 20.7163 4.20876 21.1214 4.54497 21.3461L5.92753 22.2701C6.14797 22.4174 6.30088 22.6463 6.35263 22.9063L6.67722 24.5372C6.75615 24.9338 7.06618 25.2438 7.46279 25.3228L9.0937 25.6474C9.35375 25.6991 9.58259 25.852 9.72992 26.0725L10.6539 27.455C10.8786 27.7912 11.2837 27.959 11.6803 27.8802L13.3113 27.5559C13.5714 27.5042 13.8413 27.5579 14.0618 27.7052L15.4445 28.6289C15.7808 28.8536 16.2192 28.8536 16.5555 28.6289L17.9382 27.7052C18.1587 27.5579 18.4286 27.5042 18.6887 27.5559L20.3197 27.8802C20.7163 27.959 21.1214 27.7912 21.3461 27.455L22.2701 26.0725C22.4174 25.852 22.6463 25.6991 22.9063 25.6474L24.5372 25.3228C24.9338 25.2438 25.2438 24.9338 25.3228 24.5372L25.6474 22.9063C25.6991 22.6463 25.852 22.4174 26.0725 22.2701L27.455 21.3461C27.7912 21.1214 27.959 20.7163 27.8802 20.3197L27.5559 18.6887C27.5042 18.4286 27.5579 18.1587 27.7052 17.9382L28.6289 16.5555C28.8536 16.2192 28.8536 15.7808 28.6289 15.4445L27.7052 14.0618C27.5579 13.8413 27.5042 13.5714 27.5559 13.3113L27.8802 11.6803C27.959 11.2837 27.7912 10.8786 27.455 10.6539L26.0725 9.72992C25.852 9.58259 25.6991 9.35375 25.6474 9.0937L25.3228 7.46279C25.2438 7.06618 24.9338 6.75615 24.5372 6.67722L22.9063 6.35263C22.6463 6.30088 22.4174 6.14797 22.2701 5.92753L21.3461 4.54497C21.1214 4.20876 20.7163 4.04097 20.3197 4.11982L18.6887 4.44407C18.4286 4.49577 18.1587 4.44207 17.9382 4.29479L16.5555 3.37108ZM14.715 20.715L22.715 12.715C23.106 12.324 23.106 11.692 22.715 11.301C22.324 10.91 21.692 10.91 21.301 11.301L14.008 18.594L10.707 15.293C10.316 14.902 9.684 14.902 9.293 15.293C8.902 15.684 8.902 16.316 9.293 16.707L13.301 20.715C13.496 20.91 13.752 21.008 14.008 21.008C14.264 21.008 14.52 20.91 14.715 20.715Z" fill="black"/>
</svg>
