<svg width="32" height="32" viewBox="0 0 32 32" fill="none" xmlns="http://www.w3.org/2000/svg">
<path d="M15 3C15 2.44772 15.4477 2 16 2C16.5523 2 17 2.44772 17 3V7C17 7.55228 16.5523 8 16 8C15.4477 8 15 7.55228 15 7V3Z" fill="black"/>
<path d="M9.00001 5C9.00001 4.44772 9.44773 4 10 4C10.5523 4 11 4.44772 11 5V7C11 7.55228 10.5523 8 10 8C9.44773 8 9.00001 7.55228 9.00001 7V5Z" fill="black"/>
<path fill-rule="evenodd" clip-rule="evenodd" d="M4.00001 19.118V26C4.00001 28.2091 5.79087 30 8.00001 30H24C26.2092 30 28 28.2091 28 26V19.118L30.4472 17.8944C30.9412 17.6474 31.1414 17.0467 30.8944 16.5528C30.6475 16.0588 30.0468 15.8586 29.5528 16.1055L28 16.8819V14C28 11.7909 26.2092 10 24 10H8.00001C5.79087 10 4.00001 11.7909 4.00001 14V16.8819L2.44722 16.1055C1.95324 15.8586 1.35257 16.0588 1.10558 16.5528C0.858589 17.0467 1.05881 17.6474 1.55279 17.8944L4.00001 19.118ZM8.00001 12C6.89544 12 6.00001 12.8954 6.00001 14H26C26 12.8954 25.1046 12 24 12H8.00001ZM26 16H6.00001V18.4801C6.0003 18.4939 6.0003 18.5076 6.00001 18.5214V26C6.00001 27.1046 6.89544 28 8.00001 28H24C25.1046 28 26 27.1046 26 26V18.5214L25.9998 18.502L26 18.4801V16Z" fill="black"/>
<path d="M22 4C21.4477 4 21 4.44772 21 5V7C21 7.55228 21.4477 8 22 8C22.5523 8 23 7.55228 23 7V5C23 4.44772 22.5523 4 22 4Z" fill="black"/>
</svg>
