<svg width="32" height="32" viewBox="0 0 32 32" fill="none" xmlns="http://www.w3.org/2000/svg">
<path d="M24.3691 28H7.99698V25.3438H24.3691V28ZM19.1532 18.3892H7.90039V15.6364H19.1532V18.3892ZM13.1646 10.7585L13.551 21.2386C13.5993 22.2528 13.5067 23.1906 13.2733 24.0518C13.0479 24.9051 12.6092 25.5611 11.9572 26.0199L8.96289 25.3438C9.44585 25.3438 9.81611 25.1023 10.0737 24.6193C10.3313 24.1364 10.5043 23.5729 10.5929 22.929C10.6814 22.285 10.7176 21.7216 10.7015 21.2386L10.3635 10.7585C10.2991 9.00379 10.617 7.54688 11.3173 6.38779C12.0256 5.2287 12.9513 4.3634 14.0943 3.79191C15.2453 3.22041 16.4487 2.93466 17.7044 2.93466C18.8554 2.93466 19.9018 3.14394 20.8436 3.5625C21.7853 3.97301 22.5782 4.52841 23.2221 5.2287C23.8661 5.92898 24.3168 6.71781 24.5744 7.59517C24.832 8.46449 24.844 9.35796 24.6106 10.2756L21.8095 9.50284C21.9222 8.66572 21.7934 7.95739 21.4231 7.37784C21.0609 6.79025 20.5538 6.34754 19.9018 6.04972C19.2579 5.74385 18.5737 5.59091 17.8493 5.59091C17.0765 5.59091 16.332 5.77604 15.6156 6.14631C14.8992 6.50853 14.3116 7.07197 13.8528 7.83665C13.394 8.59328 13.1646 9.56724 13.1646 10.7585Z" fill="black"/>
</svg>
