<svg width="32" height="32" viewBox="0 0 32 32" fill="none" xmlns="http://www.w3.org/2000/svg">
<path fill-rule="evenodd" clip-rule="evenodd" d="M8 10C10.2091 10 12 8.20914 12 6C12 3.79086 10.2091 2 8 2C5.79086 2 4 3.79086 4 6C4 8.20914 5.79086 10 8 10ZM8 8C9.10457 8 10 7.10457 10 6C10 4.89543 9.10457 4 8 4C6.89543 4 6 4.89543 6 6C6 7.10457 6.89543 8 8 8Z" fill="black"/>
<path fill-rule="evenodd" clip-rule="evenodd" d="M4.2907 13.1885C5.53887 12.2898 7.00664 12 8 12C9.25702 12 17.2921 12.6738 21.0866 13.0038C21.6034 13.0487 22 13.4813 22 14V16C22 16.5095 21.6169 16.9376 21.1104 16.9939L12.8506 17.9116L10.9839 28.1789C10.8974 28.6544 10.4833 29 10 29H6C5.44772 29 5 28.5523 5 28V23H3C2.44772 23 2 22.5523 2 22V18C2 15.6741 2.99153 14.1239 4.2907 13.1885ZM5.4593 14.8115C4.67513 15.3761 4 16.3259 4 18V21H6C6.55228 21 7 21.4477 7 22V27H9.16542L11.0161 16.8211C11.0952 16.3863 11.4503 16.0549 11.8896 16.0061L20 15.105V14.9173C15.9183 14.5663 9.0591 14 8 14C7.32669 14 6.29447 14.2102 5.4593 14.8115Z" fill="black"/>
<path d="M15 4C14.4477 4 14 4.44772 14 5C14 5.55228 14.4477 6 15 6H28V21H15C14.4477 21 14 21.4477 14 22C14 22.5523 14.4477 23 15 23H29C29.5523 23 30 22.5523 30 22V5C30 4.44772 29.5523 4 29 4H15Z" fill="black"/>
</svg>
