<svg width="32" height="32" viewBox="0 0 32 32" fill="none" xmlns="http://www.w3.org/2000/svg">
<mask id="path-1-inside-1_18_30" fill="white">
<path fill-rule="evenodd" clip-rule="evenodd" d="M8 4H24C26.2091 4 28 5.79086 28 8V24C28 26.2091 26.2091 28 24 28H8C5.79086 28 4 26.2091 4 24V8C4 5.79086 5.79086 4 8 4ZM22 15H10V17H22V15Z"/>
</mask>
<path fill-rule="evenodd" clip-rule="evenodd" d="M8 4H24C26.2091 4 28 5.79086 28 8V24C28 26.2091 26.2091 28 24 28H8C5.79086 28 4 26.2091 4 24V8C4 5.79086 5.79086 4 8 4ZM22 15H10V17H22V15Z" fill="black"/>
<path d="M10 15V13H8V15H10ZM22 15H24V13H22V15ZM10 17H8V19H10V17ZM22 17V19H24V17H22ZM24 2H8V6H24V2ZM30 8C30 4.68629 27.3137 2 24 2V6C25.1046 6 26 6.89543 26 8H30ZM30 24V8H26V24H30ZM24 30C27.3137 30 30 27.3137 30 24H26C26 25.1046 25.1046 26 24 26V30ZM8 30H24V26H8V30ZM2 24C2 27.3137 4.68629 30 8 30V26C6.89543 26 6 25.1046 6 24H2ZM2 8V24H6V8H2ZM8 2C4.68629 2 2 4.68629 2 8H6C6 6.89543 6.89543 6 8 6V2ZM10 17H22V13H10V17ZM12 17V15H8V17H12ZM22 15H10V19H22V15ZM20 15V17H24V15H20Z" fill="black" mask="url(#path-1-inside-1_18_30)"/>
</svg>
