<svg width="32" height="32" viewBox="0 0 32 32" fill="none" xmlns="http://www.w3.org/2000/svg">
<path fill-rule="evenodd" clip-rule="evenodd" d="M11.1116 8.99869C9.95749 9.04094 8.83292 8.411 8.29862 7.30443C7.5782 5.8124 8.20372 4.01885 9.69575 3.29843C11.5918 2.38293 13.8772 2 16.0002 2C18.1232 2 20.4086 2.38293 22.3046 3.29843C23.7966 4.01885 24.4222 5.8124 23.7018 7.30443C23.1675 8.411 22.0429 9.04094 20.8888 8.99869L19.9669 16.7776C21.3358 16.6181 22.6081 16.3738 23.6916 16.0485C23.7676 16.0238 23.8453 16.0087 23.9231 16.0027C24.0751 15.9908 24.2248 16.0143 24.3621 16.0677C24.4958 16.1195 24.6191 16.2002 24.7216 16.3072C24.8008 16.3895 24.8666 16.4863 24.9147 16.5951C24.9621 16.702 24.9894 16.8138 24.9976 16.9258C25.0089 17.0748 24.9861 17.2215 24.9346 17.3563C24.8822 17.494 24.7992 17.6209 24.6885 17.7257C24.6316 17.7797 24.568 17.8274 24.4983 17.8674C24.026 18.1512 23.5274 18.406 23.0081 18.6321L24.9819 28.8095C25.087 29.3517 24.7328 29.8765 24.1906 29.9816C23.6484 30.0868 23.1236 29.7325 23.0185 29.1903L21.1024 19.3107C19.4756 19.7738 17.7292 20 16.0002 20C14.2712 20 12.5248 19.7738 10.8979 19.3108L8.98189 29.1903C8.87674 29.7325 8.35198 30.0868 7.80979 29.9816C7.26761 29.8765 6.91333 29.3517 7.01848 28.8095L8.99228 18.6321C8.47292 18.406 7.97431 18.1512 7.50206 17.8673C7.43237 17.8274 7.36871 17.7797 7.31186 17.7257C7.20112 17.6209 7.11817 17.494 7.06578 17.3563C6.97417 17.1156 6.97595 16.8418 7.08589 16.5947C7.13389 16.486 7.1997 16.3894 7.27871 16.3072C7.38128 16.2002 7.50456 16.1195 7.63823 16.0677C7.77551 16.0143 7.92525 15.9908 8.07727 16.0027C8.15497 16.0087 8.23258 16.0238 8.30849 16.0485C9.39205 16.3738 10.6645 16.6181 12.0335 16.7776L11.1116 8.99869ZM13.0557 8.40969L14.0599 16.8823C14.0625 16.9045 14.0644 16.9266 14.0656 16.9486C14.7029 16.9827 15.3504 17 16.0002 17C16.65 17 17.2975 16.9827 17.9348 16.9486C17.936 16.9266 17.9378 16.9045 17.9405 16.8823L18.9446 8.40969C18.1372 8.15711 17.1137 8 16.0002 8C14.8867 8 13.8632 8.15711 13.0557 8.40969Z" fill="black"/>
</svg>
