<svg width="32" height="32" viewBox="0 0 32 32" fill="none" xmlns="http://www.w3.org/2000/svg">
<g id="AisCart">
<g id="Vector">
<path d="M9.99997 28C11.1045 28 12 27.1046 12 26C12 24.8954 11.1045 24 9.99997 24C8.8954 24 7.99997 24.8954 7.99997 26C7.99997 27.1046 8.8954 28 9.99997 28Z" fill="black"/>
<path d="M22 28C23.1045 28 24 27.1046 24 26C24 24.8954 23.1045 24 22 24C20.8954 24 20 24.8954 20 26C20 27.1046 20.8954 28 22 28Z" fill="black"/>
<path d="M27.344 8.708C26.963 8.258 26.406 8 25.816 8H8.58096L8.28897 6.443C8.02197 5.027 6.78397 4 5.34497 4H5.00098C4.44798 4 4.00098 4.448 4.00098 5C4.00098 5.552 4.44798 6 5.00098 6H5.34497C5.82397 6 6.23597 6.342 6.32397 6.812L8.71198 19.553C8.97797 20.971 10.217 22 11.659 22H23.307C24.78 22 26.024 20.946 26.265 19.495L27.792 10.332C27.889 9.75 27.726 9.158 27.344 8.708ZM24.292 19.166C24.212 19.649 23.797 20 23.307 20H11.659C11.179 20 10.766 19.658 10.678 19.186L8.95596 10L25.82 10.003L24.293 19.166H24.292Z" fill="black"/>
</g>
</g>
</svg>
