<svg width="32" height="32" viewBox="0 0 32 32" fill="none" xmlns="http://www.w3.org/2000/svg">
<path d="M16 4C9.373 4 4 9.373 4 16C4 22.627 9.373 28 16 28C22.627 28 28 22.627 28 16C28 9.373 22.627 4 16 4ZM22.715 12.715L14.715 20.715C14.52 20.91 14.264 21.008 14.008 21.008C13.752 21.008 13.496 20.91 13.301 20.715L9.293 16.707C8.902 16.316 8.902 15.684 9.293 15.293C9.684 14.902 10.316 14.902 10.707 15.293L14.008 18.594L21.301 11.301C21.692 10.91 22.324 10.91 22.715 11.301C23.106 11.692 23.106 12.324 22.715 12.715V12.715Z" fill="black"/>
</svg>
