<svg width="32" height="32" viewBox="0 0 32 32" fill="none" xmlns="http://www.w3.org/2000/svg">
<path d="M13 12C14.1046 12 15 11.1046 15 10C15 8.89543 14.1046 8 13 8C11.8954 8 11 8.89543 11 10C11 11.1046 11.8954 12 13 12Z" fill="black"/>
<path d="M25 20C25 21.1046 24.1046 22 23 22C21.8954 22 21 21.1046 21 20C21 18.8954 21.8954 18 23 18C24.1046 18 25 18.8954 25 20Z" fill="black"/>
<path d="M12 21C12 22.1046 11.1046 23 10 23C8.89543 23 8 22.1046 8 21C8 19.8954 8.89543 19 10 19C11.1046 19 12 19.8954 12 21Z" fill="black"/>
<path d="M15 15C15 15.5523 14.5523 16 14 16C13.4477 16 13 15.5523 13 15C13 14.4477 13.4477 14 14 14C14.5523 14 15 14.4477 15 15Z" fill="black"/>
<path d="M16 24C16.5523 24 17 23.5523 17 23C17 22.4477 16.5523 22 16 22C15.4477 22 15 22.4477 15 23C15 23.5523 15.4477 24 16 24Z" fill="black"/>
<path fill-rule="evenodd" clip-rule="evenodd" d="M2 16C2 23.7 8.3 30 16 30C23.7 30 30 23.7 30 16C30 15.5 30 14.9 29.9 14.3L29.8942 14.2622C29.7954 13.6203 29.1206 13.2414 28.5212 13.4912L28.5 13.5C27.1 14 25.8 12.9 25.8 11.6C25.8 11.3907 25.835 11.1814 25.9051 10.9794C26.0772 10.4838 26.1338 9.89283 25.7902 9.49636L25.6772 9.36594C25.3473 8.98533 24.7894 8.91977 24.3315 9.12942C23.6462 9.44314 22.9231 9.6 22.2 9.6C19.4 9.6 17.2 7.4 17.2 4.6C17.2 4.2 17.3 3.7 17.4 3.3L17.4112 3.25516C17.5619 2.65232 17.1321 2.05944 16.5123 2.01517L16.3 2H16C8.3 2 2 8.3 2 16ZM4 16C4 9.6 9 4.4 15.3 4C15.2 4.2 15.2 4.4 15.2 4.6C15.2 8.5 18.3 11.6 22.2 11.6C22.8 11.6 23.3 11.5 23.8 11.4V11.6C23.8 13.9 25.7 15.7 28 15.6V16C28 22.6 22.6 28 16 28C9.4 28 4 22.6 4 16Z" fill="black"/>
<path d="M30 3C30 3.55228 29.5523 4 29 4C28.4477 4 28 3.55228 28 3C28 2.44772 28.4477 2 29 2C29.5523 2 30 2.44772 30 3Z" fill="black"/>
<path d="M23 7C24.1046 7 25 6.10457 25 5C25 3.89543 24.1046 3 23 3C21.8954 3 21 3.89543 21 5C21 6.10457 21.8954 7 23 7Z" fill="black"/>
</svg>
