<svg width="32" height="32" viewBox="0 0 32 32" fill="none" xmlns="http://www.w3.org/2000/svg">
<path fill-rule="evenodd" clip-rule="evenodd" d="M28 16C28 22.6274 22.6274 28 16 28C9.37258 28 4 22.6274 4 16C4 9.37258 9.37258 4 16 4C22.6274 4 28 9.37258 28 16ZM26 16C26 21.5228 21.5228 26 16 26C13.5987 26 11.3951 25.1536 9.67127 23.7429L23.7429 9.67127C25.1536 11.3951 26 13.5987 26 16ZM8.25705 22.3287L22.3287 8.25705C20.6049 6.84637 18.4013 6 16 6C10.4772 6 6 10.4772 6 16C6 18.4013 6.84637 20.6049 8.25705 22.3287Z" fill="black"/>
</svg>
