<svg width="32" height="32" viewBox="0 0 32 32" fill="none" xmlns="http://www.w3.org/2000/svg">
<path fill-rule="evenodd" clip-rule="evenodd" d="M7 2C5.89543 2 5 2.89543 5 4V18C5 19.1046 5.89543 20 7 20H13C14.1046 20 15 19.1046 15 18V4C15 2.89543 14.1046 2 13 2H7ZM7 22C5.89543 22 5 22.8954 5 24V28C5 29.1046 5.89543 30 7 30H13C14.1046 30 15 29.1046 15 28V24C15 22.8954 14.1046 22 13 22H7ZM27 8C27 9.10457 26.1046 10 25 10L19 10C17.8954 10 17 9.10457 17 8L17 4C17 2.89543 17.8954 2 19 2H25C26.1046 2 27 2.89543 27 4V8ZM25 30C26.1046 30 27 29.1046 27 28L27 14C27 12.8954 26.1046 12 25 12L19 12C17.8954 12 17 12.8954 17 14L17 28C17 29.1046 17.8954 30 19 30H25Z" fill="black"/>
</svg>
