<svg width="32" height="32" viewBox="0 0 32 32" fill="none" xmlns="http://www.w3.org/2000/svg">
<mask id="path-1-inside-1_18_34" fill="white">
<path fill-rule="evenodd" clip-rule="evenodd" d="M8 4H24C26.2091 4 28 5.79086 28 8V24C28 26.2091 26.2091 28 24 28H8C5.79086 28 4 26.2091 4 24V8C4 5.79086 5.79086 4 8 4ZM21.7071 13.7071C22.0976 13.3166 22.0976 12.6834 21.7071 12.2929C21.3166 11.9024 20.6834 11.9024 20.2929 12.2929L14.0382 18.5476L11.7433 15.9977C11.3738 15.5872 10.7415 15.5539 10.331 15.9234C9.92053 16.2928 9.88725 16.9251 10.2567 17.3356L13.2567 20.669C13.4402 20.8729 13.6995 20.9924 13.9737 20.9997C14.248 21.0069 14.5131 20.9011 14.7071 20.7071L21.7071 13.7071Z"/>
</mask>
<path fill-rule="evenodd" clip-rule="evenodd" d="M8 4H24C26.2091 4 28 5.79086 28 8V24C28 26.2091 26.2091 28 24 28H8C5.79086 28 4 26.2091 4 24V8C4 5.79086 5.79086 4 8 4ZM21.7071 13.7071C22.0976 13.3166 22.0976 12.6834 21.7071 12.2929C21.3166 11.9024 20.6834 11.9024 20.2929 12.2929L14.0382 18.5476L11.7433 15.9977C11.3738 15.5872 10.7415 15.5539 10.331 15.9234C9.92053 16.2928 9.88725 16.9251 10.2567 17.3356L13.2567 20.669C13.4402 20.8729 13.6995 20.9924 13.9737 20.9997C14.248 21.0069 14.5131 20.9011 14.7071 20.7071L21.7071 13.7071Z" fill="black"/>
<path d="M21.7071 12.2929L20.2929 13.7071L20.2929 13.7071L21.7071 12.2929ZM21.7071 13.7071L20.2929 12.2929L20.2929 12.2929L21.7071 13.7071ZM20.2929 12.2929L21.7071 13.7071L21.7071 13.7071L20.2929 12.2929ZM14.0382 18.5476L12.5516 19.8855L13.9618 21.4524L15.4524 19.9618L14.0382 18.5476ZM11.7433 15.9977L13.2299 14.6598L13.2299 14.6598L11.7433 15.9977ZM10.331 15.9234L11.669 17.41L11.669 17.41L10.331 15.9234ZM10.2567 17.3356L8.77012 18.6736L8.77012 18.6736L10.2567 17.3356ZM13.2567 20.669L14.7433 19.331H14.7433L13.2567 20.669ZM14.7071 20.7071L16.1213 22.1213H16.1213L14.7071 20.7071ZM24 2H8V6H24V2ZM30 8C30 4.68629 27.3137 2 24 2V6C25.1046 6 26 6.89543 26 8H30ZM30 24V8H26V24H30ZM24 30C27.3137 30 30 27.3137 30 24H26C26 25.1046 25.1046 26 24 26V30ZM8 30H24V26H8V30ZM2 24C2 27.3137 4.68629 30 8 30V26C6.89543 26 6 25.1046 6 24H2ZM2 8V24H6V8H2ZM8 2C4.68629 2 2 4.68629 2 8H6C6 6.89543 6.89543 6 8 6V2ZM20.2929 13.7071C19.9024 13.3166 19.9024 12.6834 20.2929 12.2929L23.1213 15.1213C24.2929 13.9497 24.2929 12.0503 23.1213 10.8787L20.2929 13.7071ZM21.7071 13.7071C21.3166 14.0976 20.6834 14.0976 20.2929 13.7071L23.1213 10.8787C21.9497 9.70711 20.0503 9.70711 18.8787 10.8787L21.7071 13.7071ZM15.4524 19.9618L21.7071 13.7071L18.8787 10.8787L12.624 17.1334L15.4524 19.9618ZM10.2567 17.3356L12.5516 19.8855L15.5248 17.2097L13.2299 14.6598L10.2567 17.3356ZM11.669 17.41C11.2585 17.7794 10.6262 17.7461 10.2567 17.3356L13.2299 14.6598C12.1215 13.4282 10.2246 13.3284 8.99311 14.4368L11.669 17.41ZM11.7433 15.9977C12.1128 16.4082 12.0795 17.0405 11.669 17.41L8.99311 14.4368C7.76157 15.5452 7.66175 17.442 8.77012 18.6736L11.7433 15.9977ZM14.7433 19.331L11.7433 15.9977L8.77012 18.6736L11.7701 22.0069L14.7433 19.331ZM14.0263 19.0003C14.3005 19.0076 14.5598 19.1271 14.7433 19.331L11.7701 22.0069C12.3207 22.6186 13.0984 22.9773 13.9211 22.999L14.0263 19.0003ZM13.2929 19.2929C13.4869 19.0989 13.752 18.9931 14.0263 19.0003L13.9211 22.999C14.7439 23.0206 15.5394 22.7033 16.1213 22.1213L13.2929 19.2929ZM20.2929 12.2929L13.2929 19.2929L16.1213 22.1213L23.1213 15.1213L20.2929 12.2929Z" fill="black" mask="url(#path-1-inside-1_18_34)"/>
</svg>
