<svg width="32" height="32" viewBox="0 0 32 32" fill="none" xmlns="http://www.w3.org/2000/svg">
<path d="M15 2C15 1.44772 15.4477 1 16 1C16.5523 1 17 1.44772 17 2V4C17 4.55228 16.5523 5 16 5C15.4477 5 15 4.55228 15 4V2Z" fill="black"/>
<path d="M23.7072 6.87956C23.3167 7.27009 23.3167 7.90325 23.7072 8.29378C24.0978 8.6843 24.7309 8.6843 25.1214 8.29378L26.7075 6.70774C27.098 6.31721 27.098 5.68405 26.7075 5.29352C26.317 4.903 25.6838 4.903 25.2933 5.29352L23.7072 6.87956Z" fill="black"/>
<path d="M1 16C1 15.4477 1.44772 15 2 15H4C4.55228 15 5 15.4477 5 16C5 16.5523 4.55228 17 4 17H2C1.44772 17 1 16.5523 1 16Z" fill="black"/>
<path d="M27 16C27 15.4477 27.4477 15 28 15H30C30.5523 15 31 15.4477 31 16C31 16.5523 30.5523 17 30 17H28C27.4477 17 27 16.5523 27 16Z" fill="black"/>
<path d="M5.29323 25.2936C4.9027 25.6841 4.9027 26.3173 5.29323 26.7078C5.68375 27.0983 6.31692 27.0983 6.70744 26.7078L8.29348 25.1217C8.68401 24.7312 8.68401 24.098 8.29348 23.7075C7.90296 23.317 7.26979 23.317 6.87927 23.7075L5.29323 25.2936Z" fill="black"/>
<path d="M5.2925 6.70772C4.90197 6.31719 4.90197 5.68403 5.2925 5.2935C5.68302 4.90298 6.31619 4.90298 6.70671 5.2935L8.29275 6.87954C8.68327 7.27007 8.68327 7.90323 8.29275 8.29376C7.90223 8.68428 7.26906 8.68428 6.87854 8.29376L5.2925 6.70772Z" fill="black"/>
<path fill-rule="evenodd" clip-rule="evenodd" d="M24.9258 17.0747C25.8366 17.9716 26.483 19.1019 26.7939 20.3418C27.8839 20.7598 28.793 21.5464 29.3633 22.565C29.9337 23.5835 30.1293 24.7697 29.9161 25.9174C29.7029 27.0652 29.0945 28.102 28.1964 28.8478C27.2983 29.5936 26.1674 30.0013 25 30H15C14.1718 30.0038 13.3557 29.8009 12.6257 29.4096C11.8957 29.0183 11.2749 28.451 10.8195 27.7591C10.3642 27.0672 10.0887 26.2727 10.0181 25.4475C9.94746 24.6222 10.0839 23.7924 10.415 23.0332C9.21897 22.0867 8.2831 20.8518 7.69527 19.4443C7.10745 18.0369 6.88696 16.5032 7.05449 14.9872C7.22203 13.4712 7.77211 12.0226 8.65307 10.7775C9.53403 9.53239 10.717 8.5316 12.0908 7.8691C13.4647 7.2066 14.9844 6.90412 16.5072 6.99007C18.03 7.07602 19.506 7.54757 20.7966 8.36045C22.0872 9.17333 23.15 10.3009 23.8853 11.6372C24.6205 12.9735 25.0041 14.4748 25 16C24.9981 16.3595 24.9733 16.7184 24.9258 17.0747ZM10.995 11.1031C9.71495 12.4115 8.99873 14.1696 9 16C9.00115 17.0321 9.23157 18.051 9.67461 18.9832C10.1177 19.9153 10.7622 20.7374 11.5618 21.39C12.0354 20.9358 12.594 20.5796 13.2056 20.3418C13.5831 18.8228 14.4561 17.4729 15.6866 16.5055C16.9171 15.5382 18.4348 15.0084 20 15C21.0352 15.0071 22.0554 15.2474 22.9849 15.7031C22.9085 13.8743 22.1183 12.1482 20.7839 10.8953C19.4494 9.64235 17.6771 8.96237 15.847 9.00122C14.017 9.04007 12.2751 9.79466 10.995 11.1031ZM15 28H25C25.7348 28.0019 26.4446 27.7335 26.9944 27.2459C27.5441 26.7584 27.8955 26.0857 27.9814 25.356C28.0674 24.6262 27.8821 23.8903 27.4608 23.2883C27.0394 22.6864 26.4114 22.2603 25.6963 22.0913L25.0376 21.9341L24.939 21.2646C24.7644 20.0794 24.1695 18.9965 23.2627 18.2136C22.356 17.4306 21.198 16.9999 20 16.9999C18.802 16.9999 17.644 17.4306 16.7373 18.2136C15.8305 18.9965 15.2356 20.0794 15.061 21.2646L14.9624 21.9346L14.3037 22.0918C13.5891 22.2613 12.9617 22.6874 12.5407 23.2892C12.1198 23.8911 11.9347 24.6266 12.0207 25.356C12.1067 26.0854 12.4577 26.7577 13.007 27.2452C13.5563 27.7327 14.2656 28.0013 15 28Z" fill="black"/>
</svg>
