<svg width="32" height="32" viewBox="0 0 32 32" fill="none" xmlns="http://www.w3.org/2000/svg">
<path d="M16.1633 6.71915C13.1662 6.71915 11.996 10.9658 11.996 16.028C11.996 21.0913 13.1662 25.2808 16.1633 25.2808C17.9612 25.2808 19.4942 24.2273 19.5 23.3617C19.4993 23.2624 19.4784 23.1643 19.4384 23.0735C19.3985 22.9826 19.3405 22.9008 19.2678 22.8332C18.4162 22.0095 18.0825 21.1858 18.0802 20.4602C18.0743 19.073 19.2772 18.0405 20.3867 18.0405C21.9103 18.0405 22.8098 19.2387 22.8098 20.7903C22.8098 22.2603 22.1833 23.4853 21.502 24.4653C21.4767 24.5021 21.4629 24.5455 21.4623 24.5902C21.4623 24.666 21.509 24.7302 21.5767 24.7302C21.6175 24.7302 21.6653 24.7068 21.719 24.6543L29.3735 17.253C29.7562 16.9263 30 16.5437 30 16.0012C30 15.4552 29.755 15.0748 29.3735 14.7493L21.719 7.34565C21.6665 7.29315 21.6175 7.27099 21.5767 7.27099C21.5078 7.27099 21.4635 7.33515 21.4623 7.41099C21.4623 7.45182 21.474 7.49615 21.502 7.53582C22.1833 8.51582 22.8087 9.74082 22.8087 11.2108C22.8087 12.7613 21.9103 13.9595 20.3867 13.9595C19.2783 13.9595 18.0743 12.9282 18.0802 11.541C18.0825 10.8153 18.4162 9.99165 19.2678 9.16915C19.3408 9.10128 19.3991 9.01914 19.439 8.92783C19.4789 8.83652 19.4997 8.73798 19.5 8.63832C19.4953 7.77149 17.9612 6.71915 16.1633 6.71915ZM10.2798 7.34449L2.6265 14.7517C2.24383 15.0748 2 15.4563 2 16C2 16.5425 2.245 16.9252 2.6265 17.2518L10.2798 24.6543C10.3288 24.7045 10.3767 24.7243 10.4163 24.7243C10.4887 24.7243 10.5388 24.6578 10.5365 24.5808C10.533 24.5264 10.5092 24.4752 10.47 24.4373C8.67333 22.2067 7.36667 19.647 7.36667 16.028C7.36667 12.4067 8.67333 9.79682 10.47 7.56382C10.5095 7.52612 10.5333 7.47484 10.5365 7.42032C10.5388 7.34099 10.4898 7.27682 10.4163 7.27682C10.3767 7.27682 10.3288 7.29665 10.2798 7.34682" fill="black"/>
</svg>
