<svg width="32" height="32" viewBox="0 0 32 32" fill="none" xmlns="http://www.w3.org/2000/svg">
<path fill-rule="evenodd" clip-rule="evenodd" d="M7 4H13V18H7L7 4ZM5 4C5 2.89543 5.89543 2 7 2H13C14.1046 2 15 2.89543 15 4V18C15 19.1046 14.1046 20 13 20H7C5.89543 20 5 19.1046 5 18V4ZM7 24H13V28H7L7 24ZM5 24C5 22.8954 5.89543 22 7 22H13C14.1046 22 15 22.8954 15 24V28C15 29.1046 14.1046 30 13 30H7C5.89543 30 5 29.1046 5 28V24ZM19 8L25 8V4L19 4L19 8ZM25 10C26.1046 10 27 9.10457 27 8V4C27 2.89543 26.1046 2 25 2H19C17.8954 2 17 2.89543 17 4L17 8C17 9.10457 17.8954 10 19 10L25 10ZM25 28H19L19 14L25 14L25 28ZM27 28C27 29.1046 26.1046 30 25 30H19C17.8954 30 17 29.1046 17 28L17 14C17 12.8954 17.8954 12 19 12L25 12C26.1046 12 27 12.8954 27 14L27 28Z" fill="black"/>
</svg>
