<svg width="32" height="32" viewBox="0 0 32 32" fill="none" xmlns="http://www.w3.org/2000/svg">
<path fill-rule="evenodd" clip-rule="evenodd" d="M16 29C23.1797 29 29 23.1797 29 16C29 8.8203 23.1797 3 16 3C8.8203 3 3 8.8203 3 16C3 23.1797 8.8203 29 16 29ZM22.715 12.715L14.715 20.715C14.52 20.91 14.264 21.008 14.008 21.008C13.752 21.008 13.496 20.91 13.301 20.715L9.293 16.707C8.902 16.316 8.902 15.684 9.293 15.293C9.684 14.902 10.316 14.902 10.707 15.293L14.008 18.594L21.301 11.301C21.692 10.91 22.324 10.91 22.715 11.301C23.106 11.692 23.106 12.324 22.715 12.715Z" fill="black"/>
</svg>
