<svg width="32" height="32" viewBox="0 0 32 32" fill="none" xmlns="http://www.w3.org/2000/svg">
<path fill-rule="evenodd" clip-rule="evenodd" d="M6 11C6 10.4477 6.44772 10 7 10H11C11.5523 10 12 10.4477 12 11V14C12 14.5523 11.5523 15 11 15H7C6.44772 15 6 14.5523 6 14V11ZM8 13V12H10V13H8Z" fill="black"/>
<path d="M6 21C6 20.4477 6.44772 20 7 20H15C15.5523 20 16 20.4477 16 21C16 21.5523 15.5523 22 15 22H7C6.44772 22 6 21.5523 6 21Z" fill="black"/>
<path d="M18 21C18 20.4477 18.4477 20 19 20H21C21.5523 20 22 20.4477 22 21C22 21.5523 21.5523 22 21 22H19C18.4477 22 18 21.5523 18 21Z" fill="black"/>
<path fill-rule="evenodd" clip-rule="evenodd" d="M2 10C2 7.79086 3.79086 6 6 6H26C28.2091 6 30 7.79086 30 10V22C30 24.2091 28.2091 26 26 26H6C3.79086 26 2 24.2091 2 22V10ZM6 8H26C27.1046 8 28 8.89543 28 10V22C28 23.1046 27.1046 24 26 24H6C4.89543 24 4 23.1046 4 22V10C4 8.89543 4.89543 8 6 8Z" fill="black"/>
</svg>
