<svg width="32" height="32" viewBox="0 0 32 32" fill="none" xmlns="http://www.w3.org/2000/svg">
<path d="M16 2C8.2685 2 2 8.2685 2 16C2 23.7315 8.2685 30 16 30C23.7315 30 30 23.7315 30 16C30 8.2685 23.7315 2 16 2ZM10.1223 10.96C11.002 10.96 11.6822 11.6005 11.7615 12.36C11.842 13.0402 11.562 13.6398 10.8025 14.0003C10.4023 14.1998 10.2425 14.201 10.162 14.0808C10.1223 14.0003 10.162 13.921 10.2425 13.8405C10.9623 13.2408 10.9623 12.7602 10.8818 12.0812C10.8422 11.6402 10.5225 11.3602 10.2017 11.3602C8.80167 11.3602 6.802 14.4798 7.082 16.7607C7.20217 17.6403 7.7225 18.681 8.8425 18.681C9.20183 18.681 9.60083 18.5608 9.9625 18.401C10.5458 18.093 10.8947 17.8527 11.2423 17.4677C11.1572 16.4352 12.0637 15.0807 13.4018 15.0807C14.0027 15.0807 14.4822 15.3198 14.5218 15.7608C14.6012 16.3605 14.082 16.4398 13.9222 16.4398C13.7623 16.4398 13.4812 16.4002 13.4812 16.2415C13.4415 16.0805 13.8417 16.1598 13.802 15.8005C13.7612 15.5602 13.522 15.4808 13.2817 15.4808C12.4417 15.4808 11.9622 16.6405 12.0812 17.3603C12.122 17.6812 12.2818 18.0008 12.6027 18.0008C12.8418 18.0008 13.2023 17.6392 13.3225 17.12C13.4018 16.7607 13.7227 16.5203 14.0027 16.5203C14.1217 16.5203 14.201 16.56 14.2418 16.7198V16.8808C14.2022 17.0407 14.082 17.5202 14.1228 17.6403C14.1228 17.7208 14.1625 17.8398 14.3212 17.8398C14.4285 17.8398 14.8298 17.6298 15.2277 17.3043C15.3642 16.616 15.5228 15.79 15.5228 15.7212C15.5625 15.4412 15.6827 15.1612 16.2427 15.1612C16.3628 15.1612 16.4422 15.2008 16.4818 15.3607V15.5217L16.3232 16.2415C16.8423 15.5613 17.603 15.0818 18.0825 15.0818C18.2832 15.0818 18.443 15.2008 18.443 15.4015C18.443 15.5217 18.443 15.7212 18.3625 15.9218C18.2027 16.3617 18.002 17.0418 17.8818 17.6415C17.8818 17.8013 17.9227 17.9612 18.1233 17.9612C18.3228 17.9612 18.9225 17.7208 19.402 17.0815L19.4102 17.0768C19.4078 16.9975 19.402 16.9205 19.402 16.8412C19.402 16.3617 19.4428 15.9615 19.5233 15.6815C19.6027 15.3618 20.0028 15.0818 20.2432 15.0818C20.3633 15.0818 20.4823 15.1623 20.4823 15.2813C20.4823 15.3222 20.4823 15.4015 20.4427 15.4412C20.2828 15.9615 20.1627 16.441 20.1627 16.9217C20.1627 17.2017 20.2023 17.6007 20.2817 17.841C20.2817 17.8807 20.3225 17.9215 20.3633 17.9215C20.4427 17.9215 21.0027 17.4023 21.4017 16.7222C21.0423 16.4818 20.8417 16.0817 20.8417 15.6022C20.8417 14.7622 21.362 14.3223 21.8427 14.3223C22.2428 14.3223 22.5625 14.6023 22.5625 15.1623C22.5625 15.5217 22.4423 15.9207 22.2428 16.2823H22.3618C22.4887 16.2865 22.6151 16.2636 22.7325 16.2154C22.85 16.1671 22.9558 16.0945 23.0432 16.0023C23.0799 15.9417 23.1345 15.894 23.1995 15.8658C23.5903 15.37 24.1678 15.0025 24.8445 15.0025C25.4045 15.0025 25.9225 15.2417 25.9633 15.6815C26.0427 16.2823 25.5223 16.4025 25.3625 16.4025L25.3602 16.4002C25.1992 16.4002 24.9203 16.3593 24.9203 16.1995C24.9203 16.0397 25.2808 16.1202 25.24 15.7608C25.2003 15.5205 24.96 15.44 24.7197 15.44C23.9193 15.44 23.4013 16.4795 23.5203 17.3195C23.56 17.6403 23.7198 17.9997 24.0395 17.9997C24.2798 17.9997 24.6403 17.6403 24.8002 17.12C24.8795 16.8003 25.2003 16.5203 25.4803 16.5203C25.6005 16.5203 25.6787 16.56 25.7195 16.7198C25.7195 16.8003 25.7195 16.9602 25.5597 17.4805C25.3613 17.8398 25.3602 18.0405 25.3998 18.2003C25.4395 18.52 25.5993 18.7603 25.7603 18.8805C25.8 18.9202 25.8397 18.9995 25.8397 18.9995C25.8397 19.08 25.8 19.1605 25.6798 19.1605C25.6402 19.1605 25.6005 19.1605 25.5597 19.1197C24.96 18.8805 24.7197 18.4803 24.6392 18.0802C24.4 18.3602 24.12 18.52 23.7992 18.52C23.28 18.52 22.7608 18.0405 22.6792 17.4397C22.6562 17.1839 22.686 16.9262 22.7667 16.6825C22.5298 16.8342 22.2743 16.9193 22.0398 16.9193H21.8415C21.32 17.68 20.76 18.2003 20.3598 18.4395C20.2239 18.5118 20.0738 18.5533 19.92 18.5608C19.8407 18.5608 19.7205 18.52 19.6808 18.4395C19.57 18.2622 19.4988 17.9822 19.4557 17.6613C18.8945 18.2762 18.1198 18.6005 17.7605 18.6005C17.3603 18.6005 17.1212 18.3602 17.0815 17.9588V17.5202C17.2005 16.6405 17.5213 16.1202 17.5213 15.9603C17.5202 15.9392 17.5114 15.9193 17.4966 15.9042C17.4818 15.8892 17.4619 15.8801 17.4408 15.8787C17.1608 15.8787 16.2415 16.84 16.0805 17.4805L15.9603 17.9997C15.881 18.3602 15.5205 18.6005 15.2813 18.6005C15.1612 18.6005 15.0807 18.5597 15.041 18.3998V18.24L15.0947 17.9682C14.5872 18.3298 14.0797 18.5608 13.8405 18.5608C13.4812 18.5608 13.2805 18.3602 13.2408 18.0802C13.0005 18.3998 12.7217 18.5608 12.3612 18.5608C11.9505 18.5608 11.5492 18.2808 11.3555 17.869C11.0708 18.1898 10.7453 18.5142 10.3615 18.7603C9.8015 19.1208 9.16217 19.4008 8.4015 19.4008C7.7225 19.4008 7.12167 19.0403 6.802 18.7207C6.32133 18.2808 6.0425 17.6007 6.00167 16.9602C5.7625 15.0002 6.96183 12.4802 8.80167 11.3602C9.24267 11.121 9.6825 10.96 10.1223 10.96ZM21.5207 14.7995C21.3993 14.7995 21.32 15.0002 21.32 15.1997C21.32 15.5193 21.4798 15.8798 21.6805 16.0805C21.7587 15.8622 21.799 15.6322 21.7995 15.4003C21.7995 15.0002 21.6408 14.7995 21.5207 14.7995Z" fill="black"/>
</svg>
