<svg width="32" height="32" viewBox="0 0 32 32" fill="none" xmlns="http://www.w3.org/2000/svg">
<path d="M29.97 19.754L29.31 17.116C29.005 15.897 27.961 14.99 26.711 14.859L22.835 14.452C22.763 14.343 22.669 14.246 22.554 14.169L18.569 11.512C17.087 10.523 15.361 10.001 13.578 10.001H6.99902C6.66502 10.001 6.35302 10.168 6.16702 10.446L4.40903 13.083L4.12003 13.066C3.57903 13.035 3.02802 13.231 2.62802 13.608C2.22902 13.985 1.99902 14.516 1.99902 15.065V19.385C1.99902 20.146 2.42203 20.83 3.10303 21.171L4.07703 21.658C4.37803 22.996 5.57102 24.001 6.99902 24.001C8.30102 24.001 9.40103 23.162 9.81503 22.001H20.999C21.061 22.001 21.114 21.977 21.172 21.966C21.576 23.145 22.684 24.001 23.999 24.001C25.301 24.001 26.401 23.162 26.815 22.001H27.996C29.1 22.001 29.999 21.102 29.999 19.998C29.999 19.916 29.989 19.834 29.969 19.755L29.97 19.754ZM7.53503 12H13.578C14.964 12 16.307 12.406 17.459 13.175L18.725 14.019L16.949 13.832L6.72003 13.22L7.53403 11.999L7.53503 12ZM7.00003 22C6.44903 22 6.00003 21.551 6.00003 21C6.00003 20.449 6.44903 20 7.00003 20C7.55103 20 8.00003 20.449 8.00003 21C8.00003 21.551 7.55103 22 7.00003 22ZM24 22C23.449 22 23 21.551 23 21C23 20.449 23.449 20 24 20C24.551 20 25 20.449 25 21C25 21.551 24.551 22 24 22ZM26.816 20C26.402 18.839 25.302 18 24 18C22.685 18 21.578 18.856 21.173 20.035C21.115 20.024 21.061 20 21 20H9.81604C9.40204 18.839 8.30203 18 7.00003 18C5.86503 18 4.88702 18.641 4.37802 19.573L4.00003 19.385L4.00204 15.062L16.785 15.826L26.502 16.849C26.919 16.893 27.268 17.196 27.369 17.602L27.97 20H26.816V20Z" fill="black"/>
</svg>
