<svg width="32" height="32" viewBox="0 0 32 32" fill="none" xmlns="http://www.w3.org/2000/svg">
<path d="M20 13H4C2.897 13 2 13.897 2 15V25C2 26.103 2.897 27 4 27H20C21.103 27 22 26.103 22 25V15C22 13.897 21.103 13 20 13ZM4 25V15H20L20.002 25H4Z" fill="black"/>
<path d="M23.004 9H8C6.897 9 6 9.897 6 11H23.004C23.553 11 24 11.447 24 11.996V23C25.103 23 26 22.103 26 21V11.996C26 10.344 24.656 9 23.004 9Z" fill="black"/>
<path d="M26.996 5H12C10.897 5 10 5.897 10 7H26.996C27.55 7 28 7.45 28 8.004V19C29.103 19 30 18.103 30 17V8.004C30 6.348 28.652 5 26.996 5Z" fill="black"/>
</svg>
