<svg width="32" height="32" viewBox="0 0 32 32" fill="none" xmlns="http://www.w3.org/2000/svg">
<path fill-rule="evenodd" clip-rule="evenodd" d="M7 16H5C4.44772 16 4 15.5523 4 15V5C4 4.44772 4.44772 4 5 4H17C17.5523 4 18 4.44772 18 5V15C18 15.5523 17.5523 16 17 16H15V18H25V14H23C22.4477 14 22 13.5523 22 13V9C22 8.44772 22.4477 8 23 8H29C29.5523 8 30 8.44772 30 9V13C30 13.5523 29.5523 14 29 14H27V18H29C29.5523 18 30 18.4477 30 19V27C30 27.5523 29.5523 28 29 28H3C2.44771 28 2 27.5523 2 27V19C2 18.4477 2.44772 18 3 18H7V16ZM6 14V6H16V14H6ZM9 16V18H13V16H9ZM24 10V12H28V10H24ZM4 26V24H8C8.55228 24 9 23.5523 9 23C9 22.4477 8.55228 22 8 22H4V20H28V26H4Z" fill="black"/>
</svg>
