<svg width="32" height="32" viewBox="0 0 32 32" fill="none" xmlns="http://www.w3.org/2000/svg">
<path d="M17.414 16L24.707 8.70701C25.098 8.31601 25.098 7.68401 24.707 7.29301C24.316 6.90201 23.684 6.90201 23.293 7.29301L16 14.586L8.70701 7.29301C8.31601 6.90201 7.68401 6.90201 7.29301 7.29301C6.90201 7.68401 6.90201 8.31601 7.29301 8.70701L14.586 16L7.29301 23.293C6.90201 23.684 6.90201 24.316 7.29301 24.707C7.48801 24.902 7.74401 25 8.00001 25C8.25601 25 8.51201 24.902 8.70701 24.707L16 17.414L23.293 24.707C23.488 24.902 23.744 25 24 25C24.256 25 24.512 24.902 24.707 24.707C25.098 24.316 25.098 23.684 24.707 23.293L17.414 16Z" fill="black"/>
</svg>
