<svg width="32" height="32" viewBox="0 0 32 32" fill="none" xmlns="http://www.w3.org/2000/svg">
<path d="M14 8H10V4C10 3.448 9.552 3 9 3C8.448 3 8 3.448 8 4V8H4C3.448 8 3 8.448 3 9C3 9.552 3.448 10 4 10H8V14C8 14.552 8.448 15 9 15C9.552 15 10 14.552 10 14V10H14C14.552 10 15 9.552 15 9C15 8.448 14.552 8 14 8Z" fill="black"/>
<path d="M27.707 18.293C27.316 17.902 26.684 17.902 26.293 18.293L23 21.586L19.707 18.293C19.316 17.902 18.684 17.902 18.293 18.293C17.902 18.684 17.902 19.316 18.293 19.707L21.586 23L18.293 26.293C17.902 26.684 17.902 27.316 18.293 27.707C18.488 27.902 18.744 28 19 28C19.256 28 19.512 27.902 19.707 27.707L23 24.414L26.293 27.707C26.488 27.902 26.744 28 27 28C27.256 28 27.512 27.902 27.707 27.707C28.098 27.316 28.098 26.684 27.707 26.293L24.414 23L27.707 19.707C28.098 19.316 28.098 18.684 27.707 18.293Z" fill="black"/>
<path d="M13 19H5C4.448 19 4 19.448 4 20C4 20.552 4.448 21 5 21H13C13.552 21 14 20.552 14 20C14 19.448 13.552 19 13 19Z" fill="black"/>
<path d="M13 25H5C4.448 25 4 25.448 4 26C4 26.552 4.448 27 5 27H13C13.552 27 14 26.552 14 26C14 25.448 13.552 25 13 25Z" fill="black"/>
<path d="M19 10H27C27.552 10 28 9.552 28 9C28 8.448 27.552 8 27 8H19C18.448 8 18 8.448 18 9C18 9.552 18.448 10 19 10Z" fill="black"/>
</svg>
