<svg width="32" height="32" viewBox="0 0 32 32" fill="none" xmlns="http://www.w3.org/2000/svg">
<g id="AisColorPalette">
<g id="Vector">
<path d="M16 3C9.097 3 3.04102 8.607 3.04102 15C3.04102 15.604 3.26103 16.125 3.67603 16.509C4.68403 17.441 6.52898 17.297 8.66998 17.126C9.28698 17.077 9.92101 17.027 10.518 17.009C10.539 17.501 10.467 18.361 10.412 19.029C10.191 21.669 9.89098 25.284 11.842 27.405C12.817 28.464 14.216 29.001 16.001 29.001C23.169 29.001 29.001 23.169 29.001 16.001C29.001 8.83298 23.169 3.00098 16.001 3.00098L16 3ZM16 27C14.78 27 13.901 26.689 13.312 26.05C11.955 24.575 12.214 21.465 12.404 19.195C12.562 17.288 12.659 16.137 12.023 15.446C11.758 15.159 11.395 15.001 11 15.001C10.193 15.001 9.339 15.068 8.513 15.134C7.416 15.219 5.37302 15.382 5.04102 15.001C5.04102 9.67398 10.162 5.00098 16 5.00098C22.065 5.00098 27 9.93598 27 16.001C27 22.066 22.065 27 16 27Z" fill="black"/>
<path d="M16 11C17.1046 11 18 10.1046 18 9C18 7.89543 17.1046 7 16 7C14.8954 7 14 7.89543 14 9C14 10.1046 14.8954 11 16 11Z" fill="black"/>
<path d="M23 18C24.1046 18 25 17.1046 25 16C25 14.8954 24.1046 14 23 14C21.8954 14 21 14.8954 21 16C21 17.1046 21.8954 18 23 18Z" fill="black"/>
<path d="M21 13C22.1046 13 23 12.1046 23 11C23 9.89543 22.1046 9 21 9C19.8954 9 19 9.89543 19 11C19 12.1046 19.8954 13 21 13Z" fill="black"/>
<path d="M11 13C12.1046 13 13 12.1046 13 11C13 9.89543 12.1046 9 11 9C9.89543 9 9 9.89543 9 11C9 12.1046 9.89543 13 11 13Z" fill="black"/>
<path d="M21 23C22.1046 23 23 22.1046 23 21C23 19.8954 22.1046 19 21 19C19.8954 19 19 19.8954 19 21C19 22.1046 19.8954 23 21 23Z" fill="black"/>
<path d="M16 25C17.1046 25 18 24.1046 18 23C18 21.8954 17.1046 21 16 21C14.8954 21 14 21.8954 14 23C14 24.1046 14.8954 25 16 25Z" fill="black"/>
</g>
</g>
</svg>
