<svg width="32" height="32" viewBox="0 0 32 32" fill="none" xmlns="http://www.w3.org/2000/svg">
<path d="M24 2H8C6.346 2 5 3.346 5 5V27C5 28.654 6.346 30 8 30H24C25.654 30 27 28.654 27 27V5C27 3.346 25.654 2 24 2ZM25 27C25 27.551 24.551 28 24 28H8C7.449 28 7 27.551 7 27V5C7 4.449 7.449 4 8 4H24C24.551 4 25 4.449 25 5V27Z" fill="black"/>
<path d="M10 18C10.5523 18 11 17.5523 11 17C11 16.4477 10.5523 16 10 16C9.44772 16 9 16.4477 9 17C9 17.5523 9.44772 18 10 18Z" fill="black"/>
<path d="M14 18C14.5523 18 15 17.5523 15 17C15 16.4477 14.5523 16 14 16C13.4477 16 13 16.4477 13 17C13 17.5523 13.4477 18 14 18Z" fill="black"/>
<path d="M18 18C18.5523 18 19 17.5523 19 17C19 16.4477 18.5523 16 18 16C17.4477 16 17 16.4477 17 17C17 17.5523 17.4477 18 18 18Z" fill="black"/>
<path d="M22 18C22.5523 18 23 17.5523 23 17C23 16.4477 22.5523 16 22 16C21.4477 16 21 16.4477 21 17C21 17.5523 21.4477 18 22 18Z" fill="black"/>
<path d="M10 22C10.5523 22 11 21.5523 11 21C11 20.4477 10.5523 20 10 20C9.44772 20 9 20.4477 9 21C9 21.5523 9.44772 22 10 22Z" fill="black"/>
<path d="M14 22C14.5523 22 15 21.5523 15 21C15 20.4477 14.5523 20 14 20C13.4477 20 13 20.4477 13 21C13 21.5523 13.4477 22 14 22Z" fill="black"/>
<path d="M18 22C18.5523 22 19 21.5523 19 21C19 20.4477 18.5523 20 18 20C17.4477 20 17 20.4477 17 21C17 21.5523 17.4477 22 18 22Z" fill="black"/>
<path d="M22 22C22.5523 22 23 21.5523 23 21C23 20.4477 22.5523 20 22 20C21.4477 20 21 20.4477 21 21C21 21.5523 21.4477 22 22 22Z" fill="black"/>
<path d="M10 14C10.5523 14 11 13.5523 11 13C11 12.4477 10.5523 12 10 12C9.44772 12 9 12.4477 9 13C9 13.5523 9.44772 14 10 14Z" fill="black"/>
<path d="M14 14C14.5523 14 15 13.5523 15 13C15 12.4477 14.5523 12 14 12C13.4477 12 13 12.4477 13 13C13 13.5523 13.4477 14 14 14Z" fill="black"/>
<path d="M18 14C18.5523 14 19 13.5523 19 13C19 12.4477 18.5523 12 18 12C17.4477 12 17 12.4477 17 13C17 13.5523 17.4477 14 18 14Z" fill="black"/>
<path d="M22 14C22.5523 14 23 13.5523 23 13C23 12.4477 22.5523 12 22 12C21.4477 12 21 12.4477 21 13C21 13.5523 21.4477 14 22 14Z" fill="black"/>
<path d="M10 26C10.5523 26 11 25.5523 11 25C11 24.4477 10.5523 24 10 24C9.44772 24 9 24.4477 9 25C9 25.5523 9.44772 26 10 26Z" fill="black"/>
<path d="M14 26C14.5523 26 15 25.5523 15 25C15 24.4477 14.5523 24 14 24C13.4477 24 13 24.4477 13 25C13 25.5523 13.4477 26 14 26Z" fill="black"/>
<path d="M18 26C18.5523 26 19 25.5523 19 25C19 24.4477 18.5523 24 18 24C17.4477 24 17 24.4477 17 25C17 25.5523 17.4477 26 18 26Z" fill="black"/>
<path d="M22 26C22.5523 26 23 25.5523 23 25C23 24.4477 22.5523 24 22 24C21.4477 24 21 24.4477 21 25C21 25.5523 21.4477 26 22 26Z" fill="black"/>
<path d="M23 6H9V10H23V6Z" fill="black"/>
</svg>
