<svg width="32" height="32" viewBox="0 0 32 32" fill="none" xmlns="http://www.w3.org/2000/svg">
<path d="M17 3.005C17 2.45272 17.4477 2.005 18 2.005C18.5523 2.005 19 2.45272 19 3.005V5.005C19 5.55729 18.5523 6.005 18 6.005C17.4477 6.005 17 5.55729 17 5.005V3.005Z" fill="black"/>
<path d="M23.6571 6.93382C23.2666 7.32435 23.2666 7.95751 23.6571 8.34804C24.0476 8.73856 24.6808 8.73856 25.0713 8.34804L26.4855 6.93382C26.8761 6.5433 26.8761 5.91013 26.4855 5.51961C26.095 5.12909 25.4619 5.12909 25.0713 5.51961L23.6571 6.93382Z" fill="black"/>
<path fill-rule="evenodd" clip-rule="evenodd" d="M21.743 18.6922C22.1395 18.3757 22.4946 18.0107 22.8 17.6056C23.3496 16.8741 23.7245 16.0267 23.8962 15.128C24.0678 14.2293 24.0316 13.3033 23.7902 12.4208C23.5489 11.5383 23.1089 10.7227 22.5039 10.0365C21.8988 9.35018 21.1448 8.81141 20.2995 8.4614C19.4542 8.11138 18.54 7.95939 17.6269 8.01705C16.7139 8.07471 15.8261 8.3405 15.0315 8.79408C14.237 9.24766 13.5567 9.877 13.0428 10.6339C12.5289 11.3909 12.195 12.2553 12.0666 13.1612C10.7472 13.4238 9.52188 14.0337 8.51707 14.9282C7.51226 15.8226 6.76443 16.969 6.35079 18.2491C4.95976 18.6454 3.75898 19.5314 2.97003 20.7436C2.18107 21.9559 1.85719 23.4126 2.05813 24.8449C2.25907 26.2773 2.97128 27.5886 4.06334 28.537C5.1554 29.4854 6.55362 30.0068 7.99999 30.005H19C20.3446 30.0083 21.6512 29.5587 22.7091 28.7288C23.7671 27.8988 24.5147 26.7368 24.8315 25.43C25.1484 24.1232 25.016 22.7479 24.4557 21.5255C23.8954 20.3032 22.9398 19.3051 21.743 18.6922ZM18 10.005C19.0605 10.0061 20.0773 10.4279 20.8272 11.1778C21.5771 11.9277 21.9989 12.9445 22 14.005C22.0027 14.8707 21.7217 15.7135 21.2 16.4044C20.937 16.7506 20.6196 17.0518 20.26 17.2961C19.6927 16.1184 18.829 15.1085 17.7536 14.3652C16.6783 13.622 15.4283 13.1711 14.1261 13.0566C14.3378 12.1881 14.8344 11.4156 15.5366 10.8625C16.2388 10.3093 17.1061 10.0074 18 10.005ZM19 28.005H7.99999C6.99794 28.0072 6.03167 27.6326 5.293 26.9555C4.55433 26.2784 4.09727 25.3483 4.01254 24.3498C3.92782 23.3513 4.22162 22.3575 4.83564 21.5656C5.44965 20.7737 6.33898 20.2416 7.32709 20.075L7.98999 19.963L8.13559 19.3068C8.40722 18.0866 9.08672 16.9954 10.062 16.2134C11.0373 15.4313 12.25 15.0051 13.5001 15.0051C14.7502 15.0051 15.9629 15.4313 16.9382 16.2134C17.9135 16.9954 18.593 18.0866 18.8646 19.3068L19.011 19.963L19.6732 20.0753C20.6609 20.2423 21.5498 20.7746 22.1635 21.5664C22.7771 22.3582 23.0707 23.3518 22.9859 24.35C22.9012 25.3481 22.4443 26.278 21.706 26.9551C20.9676 27.6321 20.0018 28.0069 19 28.005Z" fill="black"/>
<path d="M26 14.005C26 13.4527 26.4477 13.005 27 13.005H29C29.5523 13.005 30 13.4527 30 14.005C30 14.5573 29.5523 15.005 29 15.005H27C26.4477 15.005 26 14.5573 26 14.005Z" fill="black"/>
<path d="M9.51512 5.51964C9.1246 5.91016 9.1246 6.54333 9.51512 6.93385L10.9293 8.34807C11.3199 8.73859 11.953 8.73859 12.3435 8.34807C12.7341 7.95754 12.7341 7.32438 12.3435 6.93385L10.9293 5.51964C10.5388 5.12911 9.90564 5.12911 9.51512 5.51964Z" fill="black"/>
</svg>
