<svg width="32" height="32" viewBox="0 0 32 32" fill="none" xmlns="http://www.w3.org/2000/svg">
<g id="AisCheckboxChecked">
<path id="Subtract" fill-rule="evenodd" clip-rule="evenodd" d="M8 4H24C26.2091 4 28 5.79086 28 8V24C28 26.2091 26.2091 28 24 28H8C5.79086 28 4 26.2091 4 24V8C4 5.79086 5.79086 4 8 4ZM21.7071 13.7071C22.0976 13.3166 22.0976 12.6834 21.7071 12.2929C21.3166 11.9024 20.6834 11.9024 20.2929 12.2929L14.0382 18.5476L11.7433 15.9977C11.3738 15.5872 10.7415 15.5539 10.331 15.9234C9.92053 16.2928 9.88725 16.9251 10.2567 17.3356L13.2567 20.669C13.4402 20.8729 13.6995 20.9924 13.9737 20.9997C14.248 21.0069 14.5131 20.9011 14.7071 20.7071L21.7071 13.7071Z" fill="black"/>
</g>
</svg>
