<svg width="32" height="32" viewBox="0 0 32 32" fill="none" xmlns="http://www.w3.org/2000/svg">
<path d="M24.186 6H23V5C23 4.448 22.552 4 22 4C21.448 4 21 4.448 21 5V6H11V5C11 4.448 10.552 4 10 4C9.448 4 9 4.448 9 5V6H7.814C6.262 6 5 7.263 5 8.814V25.185C5 26.737 6.263 27.999 7.814 27.999H24.185C25.737 27.999 26.999 26.736 26.999 25.185V8.814C26.999 7.262 25.736 6 24.185 6H24.186ZM25 25.186C25 25.635 24.635 26 24.186 26H7.815C7.366 26 7.00101 25.635 7.00101 25.186V8.815C7.00101 8.366 7.366 8.001 7.815 8.001H9.00101V9.00101C9.00101 9.55301 9.44901 10.001 10.001 10.001C10.553 10.001 11.001 9.55301 11.001 9.00101V8.001H21.001V9.00101C21.001 9.55301 21.449 10.001 22.001 10.001C22.553 10.001 23.001 9.55301 23.001 9.00101V8.001H24.187C24.636 8.001 25.001 8.366 25.001 8.815V25.186H25Z" fill="black"/>
<path d="M18 10H14C13.448 10 13 10.448 13 11C13 11.552 13.448 12 14 12H18C18.552 12 19 11.552 19 11C19 10.448 18.552 10 18 10Z" fill="black"/>
<path d="M10 16C10.5523 16 11 15.5523 11 15C11 14.4477 10.5523 14 10 14C9.44772 14 9 14.4477 9 15C9 15.5523 9.44772 16 10 16Z" fill="black"/>
<path d="M14 16C14.5523 16 15 15.5523 15 15C15 14.4477 14.5523 14 14 14C13.4477 14 13 14.4477 13 15C13 15.5523 13.4477 16 14 16Z" fill="black"/>
<path d="M18 16C18.5523 16 19 15.5523 19 15C19 14.4477 18.5523 14 18 14C17.4477 14 17 14.4477 17 15C17 15.5523 17.4477 16 18 16Z" fill="black"/>
<path d="M22 16C22.5523 16 23 15.5523 23 15C23 14.4477 22.5523 14 22 14C21.4477 14 21 14.4477 21 15C21 15.5523 21.4477 16 22 16Z" fill="black"/>
<path d="M10 20C10.5523 20 11 19.5523 11 19C11 18.4477 10.5523 18 10 18C9.44772 18 9 18.4477 9 19C9 19.5523 9.44772 20 10 20Z" fill="black"/>
<path d="M14 20C14.5523 20 15 19.5523 15 19C15 18.4477 14.5523 18 14 18C13.4477 18 13 18.4477 13 19C13 19.5523 13.4477 20 14 20Z" fill="black"/>
<path d="M18 20C18.5523 20 19 19.5523 19 19C19 18.4477 18.5523 18 18 18C17.4477 18 17 18.4477 17 19C17 19.5523 17.4477 20 18 20Z" fill="black"/>
<path d="M22 20C22.5523 20 23 19.5523 23 19C23 18.4477 22.5523 18 22 18C21.4477 18 21 18.4477 21 19C21 19.5523 21.4477 20 22 20Z" fill="black"/>
<path d="M10 24C10.5523 24 11 23.5523 11 23C11 22.4477 10.5523 22 10 22C9.44772 22 9 22.4477 9 23C9 23.5523 9.44772 24 10 24Z" fill="black"/>
<path d="M14 24C14.5523 24 15 23.5523 15 23C15 22.4477 14.5523 22 14 22C13.4477 22 13 22.4477 13 23C13 23.5523 13.4477 24 14 24Z" fill="black"/>
<path d="M18 24C18.5523 24 19 23.5523 19 23C19 22.4477 18.5523 22 18 22C17.4477 22 17 22.4477 17 23C17 23.5523 17.4477 24 18 24Z" fill="black"/>
<path d="M22 24C22.5523 24 23 23.5523 23 23C23 22.4477 22.5523 22 22 22C21.4477 22 21 22.4477 21 23C21 23.5523 21.4477 24 22 24Z" fill="black"/>
</svg>
