<svg width="32" height="32" viewBox="0 0 32 32" fill="none" xmlns="http://www.w3.org/2000/svg">
<path d="M29.75 2.875C30.0917 2.875 30.3833 3 30.625 3.25C30.875 3.49167 31 3.78333 31 4.125V27.875C31 28.2167 30.875 28.5083 30.625 28.75C30.3833 29 30.0917 29.125 29.75 29.125H9.75C9.40833 29.125 9.11667 29 8.875 28.75C8.625 28.5083 8.5 28.2167 8.5 27.875V23.5H2.25C1.90833 23.5 1.61667 23.375 1.375 23.125C1.125 22.8833 1 22.5917 1 22.25V9.75C1 9.40833 1.125 9.11667 1.375 8.875C1.60833 8.625 1.9 8.5 2.25 8.5H8.5V4.125C8.5 3.78333 8.625 3.49167 8.875 3.25C9.11667 3 9.40833 2.875 9.75 2.875H29.75ZM8.5 17.6L10.275 20.925H12.95L9.975 16.0875L12.9 11.3375H10.325L8.7 14.3375L8.6375 14.4375L8.5875 14.55L7.7875 12.95L6.9625 11.3375H4.2375L7.075 16.1125L3.975 20.925H6.675L8.5 17.6ZM18.8125 27.25V23.5H10.375V27.25H18.8125ZM18.8125 21.625V16.9375H16V21.625H18.8125ZM18.8125 15.0625V10.375H16V15.0625H18.8125ZM18.8125 8.5V4.75H10.375V8.5H18.8125ZM29.125 27.25V23.5H20.6875V27.25H29.125ZM29.125 21.625V16.9375H20.6875V21.625H29.125ZM29.125 15.0625V10.375H20.6875V15.0625H29.125ZM29.125 8.5V4.75H20.6875V8.5H29.125Z" fill="black"/>
</svg>
