<svg width="32" height="32" viewBox="0 0 32 32" fill="none" xmlns="http://www.w3.org/2000/svg">
<g id="AisDashboard">
<path id="Union" fill-rule="evenodd" clip-rule="evenodd" d="M4 4H16V16H4V4ZM2 4C2 2.89543 2.89543 2 4 2H16C17.1046 2 18 2.89543 18 4V16C18 17.1046 17.1046 18 16 18H4C2.89543 18 2 17.1046 2 16V4ZM10 22H16V28H10V22ZM8 22C8 20.8954 8.89543 20 10 20H16C17.1046 20 18 20.8954 18 22V28C18 29.1046 17.1046 30 16 30H10C8.89543 30 8 29.1046 8 28V22ZM24 22H22V24H24V22ZM22 20C20.8954 20 20 20.8954 20 22V24C20 25.1046 20.8954 26 22 26H24C25.1046 26 26 25.1046 26 24V22C26 20.8954 25.1046 20 24 20H22ZM22 10H28V16H22V10ZM20 10C20 8.89543 20.8954 8 22 8H28C29.1046 8 30 8.89543 30 10V16C30 17.1046 29.1046 18 28 18H22C20.8954 18 20 17.1046 20 16V10Z" fill="black"/>
</g>
</svg>
