<svg width="32" height="32" viewBox="0 0 32 32" fill="none" xmlns="http://www.w3.org/2000/svg">
<path d="M2 2V30H30V2H2ZM15.8017 3.7535C17.4417 3.71777 19.0723 4.00993 20.598 4.61283C22.1236 5.21573 23.5134 6.11724 24.686 7.26446C25.8585 8.41168 26.7901 9.78152 27.4262 11.2936C28.0622 12.8057 28.3899 14.4296 28.39 16.07C28.46 22.79 22.93 28.32 16.07 28.32C12.8146 28.3201 9.69155 27.0317 7.3831 24.7363C5.07465 22.441 3.7685 19.3253 3.75 16.07C3.75012 12.9622 4.9248 9.96919 7.03862 7.69094C9.15244 5.41269 12.0492 4.0175 15.1483 3.785C15.3658 3.76872 15.5836 3.75822 15.8017 3.7535ZM4.8 12.78C4.8 12.78 5.01 14.18 5.01 16.07C5.01 17.89 4.8 19.29 4.8 19.29H7.18C7.95 19.29 9.35 18.73 9.35 16.07C9.28 13.34 7.95 12.78 7.18 12.78H4.8ZM10.26 12.78C10.26 12.78 10.12 14.46 9.77 16.07C9.42 17.61 8.93 19.29 8.93 19.29H11.03C11.03 19.29 10.96 19.01 11.03 18.45C11.1 17.89 11.24 17.61 11.24 17.61H12.22C12.22 17.61 12.36 17.96 12.43 18.45C12.5 19.01 12.43 19.29 12.43 19.29H16.42C16.42 19.29 16.28 18.87 16.21 18.17C16.14 17.47 16.21 17.05 16.21 17.05C16.21 17.05 16.49 17.47 16.77 18.17C16.98 18.87 16.98 19.29 16.98 19.29H19.29C19.29 19.29 18.94 18.52 18.45 17.68C17.96 16.84 17.68 16.42 17.68 16.42C17.68 16.42 18.8 16.07 18.8 14.6V14.25C18.94 14.18 19.29 14.11 19.85 14.11C19.85 14.11 19.92 15.3 19.85 16.42C19.78 17.54 19.64 19.36 19.64 19.36H21.74C21.74 19.36 21.6 17.54 21.53 16.42C21.46 15.3 21.53 14.11 21.53 14.11C21.53 14.11 22.09 14.11 22.65 14.32V12.99C22.86 13.41 23.49 14.74 23.77 16.07C24.12 17.75 23.91 19.29 23.91 19.29H26.01C26.01 19.29 25.8 17.68 26.15 16.07C26.5 14.46 27.41 12.78 27.41 12.78H25.52L25.03 14.67L24.54 12.78H18.73V13.9C18.6382 13.5931 18.4551 13.3215 18.2049 13.1214C17.9548 12.9212 17.6496 12.8022 17.33 12.78H14.39C14.39 12.78 14.6 13.97 14.6 16.07C14.6 17.33 14.53 18.31 14.46 18.8C14.25 18.17 13.97 17.12 13.76 16.07C13.41 14.53 13.27 12.78 13.27 12.78H10.26ZM16.28 13.9C16.28 13.9 16.98 13.9 16.98 14.74C17.05 15.58 16.28 15.58 16.28 15.58V13.9ZM6.7285 14.0342C6.9035 14.0237 7.6 14.1018 7.6 16C7.6 18.24 6.69 17.96 6.69 17.96V14.04C6.69 14.04 6.704 14.0365 6.7285 14.0342ZM11.7988 14.11L12.2188 16.28H11.3812L11.7988 14.11Z" fill="black"/>
</svg>
