<svg width="32" height="32" viewBox="0 0 32 32" fill="none" xmlns="http://www.w3.org/2000/svg">
<path d="M22.9568 19.0333V12.878H24.3825V17.7827H26.8792V19.031H22.9568V19.0333ZM11.5422 15.1973L15.0188 12.5233C15.3467 12.7893 15.6722 13.0577 16 13.3248L12.7018 15.8215L13.4147 16.4457L16.7128 13.8603C17.0407 14.1263 17.3662 14.3947 17.694 14.663C16.5999 15.5314 15.5004 16.3932 14.3958 17.2483L15.1075 17.8737L18.4092 15.1962L18.408 12.8792H19.8348V17.7838H22.4202V19.0322H18.4978V16.714C17.337 17.6042 16.1797 18.4978 15.02 19.388L11.5422 16.714C11.3742 17.5645 10.7803 18.3007 10.0115 18.6903C9.679 18.8618 9.315 18.9703 8.944 19.0123C8.7305 19.038 8.51583 19.0322 8.30117 19.0322H6.102V12.8792H8.63833C9.30171 12.8859 9.94371 13.1147 10.4618 13.529C10.9915 13.949 11.3695 14.5463 11.5433 15.1973M7.44133 14.1275V17.8725L8.55317 17.8713C8.7869 17.8637 9.01616 17.8052 9.22492 17.6998C9.43368 17.5944 9.61692 17.4447 9.76183 17.2612C10.0068 16.9538 10.1572 16.582 10.1949 16.1907C10.2326 15.7995 10.1559 15.4058 9.97417 15.0573C9.85947 14.8355 9.69844 14.6409 9.50199 14.4867C9.30553 14.3325 9.07824 14.2224 8.8355 14.1637C8.64183 14.117 8.44117 14.1287 8.244 14.1263H7.44133V14.1275ZM15.79 2H16.1832C18.3821 2.02871 20.543 2.57763 22.489 3.60183C24.3881 4.60127 26.0344 6.02051 27.3027 7.75167C29.0159 10.0854 29.9588 12.8952 30 15.79V16.21C29.9561 19.6958 28.6094 23.039 26.2247 25.5818C24.9394 26.9546 23.39 28.0536 21.6694 28.8128C19.9489 29.572 18.0928 29.9758 16.2123 30H15.7912C14.1363 29.975 12.499 29.6567 10.9553 29.0597C9.07486 28.3277 7.37416 27.1992 5.969 25.751C4.46521 24.2048 3.33714 22.3334 2.672 20.2817C2.24831 18.9654 2.02186 17.5937 2 16.2112L2 15.79C2.04569 13.1317 2.85219 10.5421 4.324 8.328C5.69904 6.2534 7.5936 4.57525 9.819 3.46067C11.6748 2.5328 13.7154 2.03362 15.79 2ZM15.6115 3.435C12.8752 3.51306 10.2399 4.48642 8.10983 6.20583C6.3677 7.6083 5.03105 9.44995 4.23767 11.541C3.08434 14.609 3.16505 18.0046 4.46283 21.0143C5.35751 23.0716 6.7858 24.8523 8.59983 26.1722C10.2476 27.3738 12.1647 28.1533 14.1835 28.4425C15.8822 28.6863 17.631 28.5872 19.2888 28.1392C21.5581 27.5264 23.6096 26.2886 25.2097 24.5668C26.8109 22.8478 27.8968 20.7133 28.3433 18.4068C28.6917 16.5972 28.6431 14.7335 28.201 12.9445C27.686 10.8821 26.6561 8.9841 25.2079 7.42808C23.7596 5.87207 21.9402 4.70892 19.92 4.0475C18.5303 3.59452 17.0723 3.38725 15.6115 3.435Z" fill="black"/>
</svg>
