<svg width="32" height="32" viewBox="0 0 32 32" fill="none" xmlns="http://www.w3.org/2000/svg">
<path d="M28.8375 25.2312H3.1625C2.87852 25.2312 2.59731 25.1753 2.33495 25.0666C2.07258 24.958 1.83419 24.7987 1.63338 24.5979C1.43257 24.3971 1.27329 24.1587 1.16461 23.8963C1.05593 23.6339 1 23.3527 1 23.0687V8.93124C1 8.35771 1.22783 7.80767 1.63338 7.40212C2.03893 6.99657 2.58897 6.76874 3.1625 6.76874H28.8375C29.1215 6.76874 29.4027 6.82467 29.6651 6.93335C29.9274 7.04202 30.1658 7.20131 30.3666 7.40212C30.5674 7.60293 30.7267 7.84132 30.8354 8.10369C30.9441 8.36605 31 8.64725 31 8.93124V23.0662C31.0002 23.3503 30.9444 23.6317 30.8357 23.8942C30.7271 24.1567 30.5679 24.3952 30.3671 24.5962C30.1662 24.7971 29.9278 24.9565 29.6653 25.0653C29.4029 25.174 29.1216 25.2312 28.8375 25.2312ZM8.21125 20.9037V15.2787L11.0962 18.885L13.98 15.2787V20.9037H16.865V11.0975H13.98L11.0962 14.7037L8.21125 11.0975H5.325V20.9062L8.21125 20.9037ZM27.54 16H24.6538V11.0962H21.77V16H18.885L23.2112 21.0487L27.54 16Z" fill="black"/>
</svg>
