<svg width="32" height="32" viewBox="0 0 32 32" fill="none" xmlns="http://www.w3.org/2000/svg">
<path d="M22.742 12.005C21.846 8.521 18.676 6 15 6C13.595 6 12.275 6.367 11.127 7.005L12.618 8.496C13.349 8.178 14.154 8 15.001 8C18.006 8 20.562 10.247 20.944 13.227C20.979 13.498 21.124 13.744 21.344 13.906C21.565 14.068 21.842 14.131 22.113 14.084C22.427 14.027 22.717 14 23.001 14C25.758 14 28.001 16.243 28.001 19C28.001 20.348 27.459 21.567 26.59 22.467L28.006 23.883C29.238 22.621 30.001 20.898 30.001 18.999C30.001 15.053 26.672 11.839 22.743 12.004L22.742 12.005Z" fill="black"/>
<path d="M5.70703 4.29301C5.31603 3.90201 4.68403 3.90201 4.29303 4.29301C3.90203 4.68401 3.90203 5.31601 4.29303 5.70701L8.27402 9.68801C7.47202 10.934 7.00003 12.412 7.00003 14C7.00003 14.028 7.00003 14.055 7.00003 14.083C4.16503 14.561 1.99902 17.032 1.99902 20C1.99902 23.309 4.69002 26 7.99902 26H22.999C23.49 26 23.966 25.941 24.428 25.843L26.292 27.707C26.487 27.902 26.743 28 26.999 28C27.255 28 27.511 27.902 27.706 27.707C28.097 27.316 28.097 26.684 27.706 26.293L5.70602 4.29301H5.70703ZM8.00003 24C5.79403 24 4.00003 22.206 4.00003 20C4.00003 17.81 5.76903 16.026 7.95203 16C7.99203 16.004 8.03602 16.007 8.06302 16.008C8.35102 16.007 8.63702 15.889 8.83102 15.669C9.02502 15.449 9.11204 15.155 9.07004 14.864C9.02204 14.531 9.00003 14.257 9.00003 13.999C9.00003 12.965 9.26702 11.994 9.73203 11.145L22.586 23.999H8.00003V24Z" fill="black"/>
</svg>
