<svg width="32" height="32" viewBox="0 0 32 32" fill="none" xmlns="http://www.w3.org/2000/svg">
<path d="M15.293 18.707C15.488 18.902 15.744 19 16 19C16.256 19 16.5119 18.902 16.7069 18.707L25.7069 9.70701C26.0979 9.31601 26.0979 8.68401 25.7069 8.29301C25.3159 7.90201 24.684 7.90201 24.293 8.29301L16 16.586L7.70695 8.29301C7.31595 7.90201 6.68401 7.90201 6.29301 8.29301C5.90201 8.68401 5.90201 9.31601 6.29301 9.70701L15.293 18.707Z" fill="black"/>
<path d="M27 23H5C4.447 23 4 23.448 4 24C4 24.552 4.447 25 5 25H27C27.553 25 28 24.552 28 24C28 23.448 27.553 23 27 23Z" fill="black"/>
</svg>
