<svg width="32" height="32" viewBox="0 0 32 32" fill="none" xmlns="http://www.w3.org/2000/svg">
<path d="M24 2H8C6.897 2 6 2.897 6 4V8C6 9.103 6.897 10 8 10H24C25.103 10 26 9.103 26 8V4C26 2.897 25.103 2 24 2ZM8 8V4H24V8H8Z" fill="black"/>
<path d="M24 12H8C6.897 12 6 12.897 6 14V18C6 19.103 6.897 20 8 20H24C25.103 20 26 19.103 26 18V14C26 12.897 25.103 12 24 12ZM8 18V14H24V18H8Z" fill="black"/>
<path d="M24 22H8C6.897 22 6 22.897 6 24V28C6 29.103 6.897 30 8 30H24C25.103 30 26 29.103 26 28V24C26 22.897 25.103 22 24 22ZM8 28V24H24V28H8Z" fill="black"/>
<path d="M10 7C10.5523 7 11 6.55228 11 6C11 5.44772 10.5523 5 10 5C9.44772 5 9 5.44772 9 6C9 6.55228 9.44772 7 10 7Z" fill="black"/>
<path d="M10 17C10.5523 17 11 16.5523 11 16C11 15.4477 10.5523 15 10 15C9.44772 15 9 15.4477 9 16C9 16.5523 9.44772 17 10 17Z" fill="black"/>
<path d="M10 27C10.5523 27 11 26.5523 11 26C11 25.4477 10.5523 25 10 25C9.44772 25 9 25.4477 9 26C9 26.5523 9.44772 27 10 27Z" fill="black"/>
</svg>
