<svg width="32" height="32" viewBox="0 0 32 32" fill="none" xmlns="http://www.w3.org/2000/svg">
<path d="M26.7433 11.0055C26.7433 10.8319 26.5697 10.6583 26.3262 10.5889L23.4073 9.51308C22.9212 9.30471 22.3652 9.54773 22.3652 9.8954V22.1251C22.3652 22.2986 22.5388 22.5069 22.7125 22.5764L25.7008 23.6523C26.1525 23.8257 26.7433 23.5827 26.7433 23.2004V11.0055ZM21.288 6.73198C21.288 6.55791 21.1143 6.38431 20.8708 6.3149L17.9524 5.23911C17.4659 5.03075 16.9098 5.27376 16.9098 5.62155V13.0559C16.9098 13.2295 17.0833 13.4377 17.257 13.5077L20.2454 14.5835C20.6972 14.7576 21.288 14.5141 21.288 14.1321V6.73198ZM21.288 20.1093C21.288 19.9357 21.1143 19.7622 20.8708 19.6927L17.9524 18.6169C17.4659 18.4086 16.9098 18.6516 16.9098 18.9992V26.4337C16.9098 26.6073 17.0833 26.8156 17.257 26.8851L20.2454 27.9608C20.6972 28.1349 21.288 27.8915 21.288 27.509V20.1093ZM15.8326 21.6038C15.8326 21.4301 15.6589 21.2562 15.4155 21.1866L12.497 20.1108C12.008 19.9025 11.4544 20.1455 11.4544 20.4932V28.4152C11.4544 28.5887 11.628 28.7975 11.8017 28.8669L14.79 29.9428C15.2418 30.117 15.8326 29.8734 15.8326 29.4913V21.6038ZM15.8326 3.56961C15.8326 3.39601 15.6589 3.22241 15.4155 3.153L12.497 2.0771C12.008 1.86873 11.4544 2.11175 11.4544 2.45941V10.3814C11.4544 10.5555 11.628 10.7637 11.8017 10.8333L14.79 11.9089C15.2418 12.0825 15.8326 11.8396 15.8326 11.4572V3.56961ZM10.3781 3.88263C10.3781 3.70903 10.2045 3.53496 9.96107 3.46543L7.04265 2.38976C6.55615 2.18128 6 2.4243 6 2.77208V28.1365C6 28.3099 6.1736 28.5183 6.34767 28.5877L9.3355 29.6636C9.78747 29.8372 10.3781 29.5942 10.3781 29.2117V3.88263Z" fill="black"/>
</svg>
