<svg width="32" height="32" viewBox="0 0 32 32" fill="none" xmlns="http://www.w3.org/2000/svg">
<path d="M17.875 2.875C19.0858 2.875 20.2504 3.03125 21.3687 3.34375C22.4871 3.65625 23.5321 4.09792 24.5037 4.66875C25.4754 5.24042 26.3588 5.92417 27.1538 6.72C27.9504 7.51583 28.6342 8.39958 29.205 9.37125C29.7767 10.3429 30.2188 11.3879 30.5312 12.5063C30.8438 13.6246 31 14.7892 31 16C31 17.2108 30.8438 18.3754 30.5312 19.4937C30.2188 20.6121 29.7771 21.6571 29.2063 22.6287C28.6346 23.6004 27.9508 24.4838 27.155 25.2788C26.3592 26.0754 25.4754 26.7592 24.5037 27.33C23.5321 27.9017 22.4871 28.3438 21.3687 28.6562C20.2504 28.9688 19.0858 29.125 17.875 29.125C16.8 29.125 15.75 28.9979 14.725 28.7437C13.7 28.4904 12.7262 28.1221 11.8037 27.6388C10.8804 27.1554 10.0208 26.5646 9.225 25.8662C8.42917 25.1679 7.72375 24.3792 7.10875 23.5H2.24625C1.90375 23.5 1.61042 23.3779 1.36625 23.1338C1.12208 22.8896 1 22.5967 1 22.255V9.745C1 9.40333 1.12208 9.11042 1.36625 8.86625C1.61042 8.62208 1.90333 8.5 2.245 8.5H7.1075C7.72333 7.62083 8.42917 6.83208 9.225 6.13375C10.0208 5.43625 10.8804 4.84542 11.8037 4.36125C12.7262 3.87792 13.7 3.50958 14.725 3.25625C15.75 3.00208 16.8 2.875 17.875 2.875ZM18.8125 4.79375V15.0625H29.0812C28.9646 13.6958 28.6204 12.4142 28.0487 11.2175C27.4771 10.0208 26.7346 8.96625 25.8213 8.05375C24.9088 7.14042 23.8517 6.39792 22.65 5.82625C21.4492 5.25542 20.17 4.91125 18.8125 4.79375ZM12.235 14.2562C12.235 13.6896 12.14 13.2038 11.95 12.7987C11.7592 12.3938 11.4979 12.0646 11.1663 11.8113C10.8338 11.5571 10.4429 11.3713 9.99375 11.2537C9.54458 11.1371 9.05625 11.0787 8.52875 11.0787H4.56V20.9075H6.86V17.48H8.4125C8.89083 17.48 9.35708 17.4092 9.81125 17.2675C10.2654 17.1258 10.6729 16.9204 11.0338 16.6512C11.3954 16.3829 11.6863 16.0487 11.9062 15.6488C12.1254 15.2487 12.235 14.7846 12.235 14.2562ZM17.875 27.25C18.8517 27.25 19.7942 27.1304 20.7025 26.8912C21.6108 26.6521 22.4675 26.3104 23.2725 25.8662C24.0783 25.4212 24.8183 24.8888 25.4925 24.2687C26.1658 23.6488 26.7567 22.9554 27.265 22.1888C27.7733 21.4221 28.1833 20.5946 28.495 19.7062C28.8075 18.8171 29.0029 17.8892 29.0812 16.9225H16.9525V4.79375C15.5067 4.91042 14.1442 5.28875 12.865 5.92875C11.5858 6.56875 10.4629 7.42583 9.49625 8.5H14.755C15.0967 8.5 15.3896 8.62208 15.6337 8.86625C15.8779 9.11042 16 9.40333 16 9.745V22.255C16 22.5967 15.8779 22.8896 15.6337 23.1338C15.3896 23.3779 15.0967 23.5 14.755 23.5H9.49625C10.0329 24.0958 10.6212 24.6254 11.2612 25.0887C11.9012 25.5529 12.5775 25.9463 13.29 26.2687C14.0025 26.5912 14.7446 26.8354 15.5162 27.0013C16.2887 27.1671 17.075 27.25 17.875 27.25ZM8.265 12.9975C8.74417 12.9975 9.12542 13.0925 9.40875 13.2825C9.69208 13.4733 9.83375 13.8225 9.83375 14.33C9.83375 14.555 9.78208 14.7383 9.67875 14.88C9.57625 15.0217 9.44708 15.1362 9.29125 15.2237C9.13458 15.3112 8.95875 15.3721 8.76375 15.4062C8.56875 15.4404 8.38333 15.4575 8.2075 15.4575H6.85875V12.9975H8.265Z" fill="black"/>
</svg>
