<svg width="32" height="32" viewBox="0 0 32 32" fill="none" xmlns="http://www.w3.org/2000/svg">
<path d="M29.755 2.875C30.0967 2.875 30.3896 2.99708 30.6338 3.24125C30.8779 3.48542 31 3.77833 31 4.12V27.88C31 28.2217 30.8779 28.5146 30.6338 28.7588C30.3896 29.0029 30.0967 29.125 29.755 29.125H9.745C9.40333 29.125 9.11042 29.0029 8.86625 28.7588C8.62208 28.5146 8.5 28.2217 8.5 27.88V23.5H2.245C1.90333 23.5 1.61042 23.3779 1.36625 23.1338C1.12208 22.8896 1 22.5967 1 22.255V9.745C1 9.40333 1.12208 9.11042 1.36625 8.86625C1.61042 8.62208 1.90333 8.5 2.245 8.5H8.5V4.12C8.5 3.77833 8.62208 3.48542 8.86625 3.24125C9.11042 2.99708 9.40333 2.875 9.745 2.875H29.755ZM8.54375 15.0037L10.3463 20.9225H12.3962L14.3588 11.0775H12.295L11.1237 16.8938L9.4675 11.2688H7.725L5.9675 16.9225L4.795 11.0787H2.64L4.6025 20.9212H6.65375L8.54375 15.0037ZM29.125 27.25V23.5H10.375V27.25H29.125ZM29.125 21.625V16.9375H16V21.625H29.125ZM29.125 15.0625V10.375H16V15.0625H29.125ZM29.125 8.5V4.75H10.375V8.5H29.125Z" fill="black"/>
</svg>
