<svg width="32" height="32" viewBox="0 0 32 32" fill="none" xmlns="http://www.w3.org/2000/svg">
<path d="M23.4537 19.25V12.655H24.9812V17.91H27.6563V19.2475H23.4537V19.25ZM11.2237 15.14L14.9488 12.275C15.3 12.56 15.6488 12.8475 16 13.1337L12.4663 15.8088L13.23 16.4775L16.7638 13.7075C17.115 13.9925 17.4637 14.28 17.815 14.5675C16.6427 15.498 15.4648 16.4213 14.2812 17.3375L15.0437 18.0075L18.5812 15.1387L18.58 12.6562H20.1087V17.9113H22.8788V19.2487H18.6762V16.765C17.4325 17.7188 16.1925 18.6763 14.95 19.63L11.2237 16.765C11.0437 17.6763 10.4075 18.465 9.58375 18.8825C9.2275 19.0662 8.8375 19.1825 8.44 19.2275C8.21125 19.255 7.98125 19.2487 7.75125 19.2487H5.395V12.6562H8.1125C8.82326 12.6635 9.51112 12.9086 10.0662 13.3525C10.6337 13.8025 11.0388 14.4425 11.225 15.14M6.83 13.9938V18.0062L8.02125 18.005C8.27168 17.9969 8.51731 17.9341 8.74099 17.8212C8.96466 17.7083 9.16099 17.5479 9.31625 17.3513C9.57867 17.0219 9.73986 16.6235 9.78025 16.2044C9.82063 15.7852 9.73847 15.3634 9.54375 14.99C9.42086 14.7523 9.24833 14.5438 9.03784 14.3786C8.82736 14.2134 8.58383 14.0954 8.32375 14.0325C8.11625 13.9825 7.90125 13.995 7.69 13.9925H6.83V13.9938ZM15.775 1H16.1962C18.5522 1.03076 20.8675 1.61889 22.9525 2.71625C24.9873 3.78708 26.7511 5.30769 28.11 7.1625C29.9456 9.6629 30.9558 12.6735 31 15.775V16.225C30.953 19.9598 29.51 23.5418 26.955 26.2662C25.5779 27.7371 23.9178 28.9146 22.0744 29.728C20.231 30.5415 18.2422 30.9741 16.2275 31H15.7763C14.0032 30.9732 12.2489 30.6321 10.595 29.9925C8.58021 29.2083 6.75803 27.9992 5.2525 26.4475C3.6413 24.7908 2.43265 22.7858 1.72 20.5875C1.26605 19.1773 1.02342 17.7076 1 16.2262L1 15.775C1.04895 12.9268 1.91306 10.1523 3.49 7.78C4.96326 5.55722 6.99314 3.75919 9.3775 2.565C11.3659 1.57085 13.5522 1.03602 15.775 1ZM15.5837 2.5375C12.6519 2.62114 9.82849 3.66402 7.54625 5.50625C5.67967 7.00889 4.24756 8.98209 3.3975 11.2225C2.16179 14.5096 2.24826 18.1478 3.63875 21.3725C4.59734 23.5767 6.12765 25.4846 8.07125 26.8987C9.83674 28.1862 11.8908 29.0214 14.0537 29.3313C15.8737 29.5925 17.7475 29.4863 19.5238 29.0063C21.9551 28.3497 24.1531 27.0235 25.8675 25.1788C27.5832 23.3369 28.7466 21.05 29.225 18.5787C29.5982 16.6399 29.5462 14.6431 29.0725 12.7262C28.5207 10.5165 27.4173 8.48296 25.8656 6.8158C24.3138 5.14865 22.3645 3.90242 20.2 3.19375C18.7111 2.70842 17.1489 2.48634 15.5837 2.5375Z" fill="black"/>
</svg>
