<svg width="32" height="32" viewBox="0 0 32 32" fill="none" xmlns="http://www.w3.org/2000/svg">
<path d="M16.6549 2.24431C16.2791 1.91856 15.7209 1.91856 15.3451 2.24431L3.34507 12.6443C3.12591 12.8343 3 13.11 3 13.4V29C3 29.5523 3.44772 30 4 30C4.55228 30 5 29.5523 5 29V13.8566L16 4.3233L27 13.8566V29C27 29.5523 27.4477 30 28 30C28.5523 30 29 29.5523 29 29V13.4C29 13.11 28.8741 12.8343 28.6549 12.6443L16.6549 2.24431Z" fill="black"/>
<path fill-rule="evenodd" clip-rule="evenodd" d="M9 13V25C9 25.5523 9.44772 26 10 26H15V28H10C9.44772 28 9 28.4477 9 29C9 29.5523 9.44772 30 10 30H22C22.5523 30 23 29.5523 23 29C23 28.4477 22.5523 28 22 28H17V26H22C22.5523 26 23 25.5523 23 25V13C23 12.4477 22.5523 12 22 12H10C9.44772 12 9 12.4477 9 13ZM11 14V16H21V14H11ZM21 24V22H11V24H21ZM21 20V18H11V20H21Z" fill="black"/>
</svg>
