<svg width="32" height="32" viewBox="0 0 32 32" fill="none" xmlns="http://www.w3.org/2000/svg">
<path d="M30.5375 20.125C29.65 19.1938 27.83 18.6625 25.2575 18.6625C23.8825 18.6625 22.2863 18.795 20.5563 19.105C19.4964 18.0858 18.5312 16.9725 17.6725 15.7788C17.0075 14.8913 16.43 13.9163 15.8975 12.9838C16.9188 9.87877 17.4063 7.35002 17.4063 5.53127C17.4063 3.49127 16.6525 1.36127 14.4788 1.36127C13.8138 1.36127 13.1475 1.76127 12.7925 2.33752C11.8175 4.06752 12.2613 7.83752 13.9463 11.5638C13.312 13.4693 12.6019 15.3487 11.8175 17.1975C11.1075 18.8838 10.3088 20.6138 9.42125 22.21C4.5425 24.1625 1.3925 26.425 1.0375 28.1975C0.905003 28.8638 1.12625 29.485 1.615 29.9725C1.7925 30.1063 2.41375 30.6388 3.4775 30.6388C6.715 30.6388 10.1313 25.4038 11.8613 22.255C13.1925 21.8113 14.5238 21.3675 15.8538 21.0125C17.257 20.6314 18.6783 20.3206 20.1125 20.0813C23.5275 23.1413 26.5438 23.63 28.0525 23.63C29.915 23.63 30.5813 22.875 30.8025 22.255C31.2025 21.455 30.9363 20.5688 30.5375 20.125ZM28.7625 21.4125C28.6288 22.0775 27.9625 22.5213 27.0325 22.5213C26.7663 22.5213 26.545 22.4763 26.2775 22.4325C24.5925 22.0325 22.995 21.19 21.3988 19.8588C22.6295 19.6506 23.8756 19.5469 25.1238 19.5488C26.0563 19.5488 26.855 19.5925 27.3863 19.7263C28.0075 19.8588 28.9838 20.2588 28.7613 21.4113L28.7625 21.4125ZM19.3575 19.3275C18.1197 19.5595 16.8917 19.8405 15.6763 20.17C14.6163 20.4456 13.5657 20.7562 12.5263 21.1013C13.0666 20.0548 13.5698 18.9895 14.035 17.9075C14.5675 16.665 15.01 15.3788 15.455 14.1813C15.8975 14.935 16.3863 15.69 16.8738 16.355C17.6708 17.3712 18.4992 18.3625 19.3575 19.3275ZM13.5475 2.82502C13.6259 2.66788 13.7459 2.53525 13.8945 2.44158C14.043 2.34791 14.2144 2.29679 14.39 2.29377C15.3213 2.29377 15.4988 3.35752 15.4988 4.20127C15.4988 5.62002 15.055 7.79377 14.3013 10.2775C13.0138 6.81752 12.9263 3.93502 13.5475 2.82502ZM8.6675 23.4963C6.405 27.2225 4.23125 29.5288 2.90125 29.5288C2.66127 29.5302 2.42752 29.4525 2.23625 29.3075C1.97 29.0413 1.83625 28.7313 1.925 28.3763C2.19125 27.045 4.76375 25.1825 8.6675 23.4963Z" fill="black"/>
</svg>
