<svg width="32" height="32" viewBox="0 0 32 32" fill="none" xmlns="http://www.w3.org/2000/svg">
<path d="M22.7071 10.7071C23.0976 10.3166 23.0976 9.68342 22.7071 9.29289C22.3166 8.90237 21.6834 8.90237 21.2929 9.29289L9.29289 21.2929C8.90237 21.6834 8.90237 22.3166 9.29289 22.7071C9.68342 23.0976 10.3166 23.0976 10.7071 22.7071L22.7071 10.7071Z" fill="black"/>
<path fill-rule="evenodd" clip-rule="evenodd" d="M12 15C13.6569 15 15 13.6569 15 12C15 10.3431 13.6569 9 12 9C10.3431 9 9 10.3431 9 12C9 13.6569 10.3431 15 12 15ZM12 13C12.5523 13 13 12.5523 13 12C13 11.4477 12.5523 11 12 11C11.4477 11 11 11.4477 11 12C11 12.5523 11.4477 13 12 13Z" fill="black"/>
<path fill-rule="evenodd" clip-rule="evenodd" d="M23 20C23 21.6569 21.6569 23 20 23C18.3431 23 17 21.6569 17 20C17 18.3431 18.3431 17 20 17C21.6569 17 23 18.3431 23 20ZM21 20C21 20.5523 20.5523 21 20 21C19.4477 21 19 20.5523 19 20C19 19.4477 19.4477 19 20 19C20.5523 19 21 19.4477 21 20Z" fill="black"/>
<path fill-rule="evenodd" clip-rule="evenodd" d="M2 14C2 7.37258 7.37258 2 14 2H18C24.6274 2 30 7.37258 30 14V18C30 24.6274 24.6274 30 18 30H14C7.37258 30 2 24.6274 2 18V14ZM14 4H18C23.5228 4 28 8.47715 28 14V18C28 23.5228 23.5228 28 18 28H14C8.47715 28 4 23.5228 4 18V14C4 8.47715 8.47715 4 14 4Z" fill="black"/>
</svg>
