<svg width="32" height="32" viewBox="0 0 32 32" fill="none" xmlns="http://www.w3.org/2000/svg">
<path d="M21.4975 2L20.1827 14.348L17.938 3.93667L10.8995 5.41367L13.1442 15.8227L3 17.9483L4.79083 26.2632L22.6303 30L26.7113 20.9653L28.6527 2.742L21.4975 2ZM15.1147 17.8783C15.244 17.8761 15.3723 17.9024 15.4903 17.9553C15.733 18.0638 16.1437 18.2937 16.2253 18.646C16.3455 19.1523 16.23 19.5782 15.8613 19.9107V19.913C15.4938 20.2443 15.0073 20.214 14.4917 20.0448C13.9772 19.8757 13.7485 19.2608 13.9433 18.5177C14.088 17.9658 14.7717 17.8842 15.1147 17.8783ZM19.947 18.5177C20.4685 18.5037 20.9177 18.7347 21.172 19.1512C21.4252 19.5677 21.2968 20.0262 21.0297 20.4847H21.0273C20.7602 20.942 20.059 21.0038 19.3683 20.6713C18.9028 20.4462 18.9052 19.8733 18.9565 19.5245C18.9835 19.3336 19.0612 19.1535 19.1817 19.003C19.3473 18.7965 19.6262 18.527 19.947 18.5177Z" fill="black"/>
</svg>
