<svg width="32" height="32" viewBox="0 0 32 32" fill="none" xmlns="http://www.w3.org/2000/svg">
<path fill-rule="evenodd" clip-rule="evenodd" d="M12 5V4C12 3.44771 11.5523 3 11 3H5C4.44772 3 4 3.44771 4 4V18C4 18.5523 4.44772 19 5 19H11C11.5523 19 12 18.5523 12 18V17.8086C13.8308 18.9198 15 20.9244 15 23.1401V28C15 28.5523 15.4477 29 16 29H17C19.2091 29 21 27.2091 21 25V21C21 20.4477 21.4477 20 22 20H24C26.2091 20 28 18.2091 28 16V11C28 7.68629 25.3137 5 22 5H12ZM6 5V17H10V5H6ZM12 7V15.5659C15.0051 16.8483 17 19.8142 17 23.1401V27C18.1046 27 19 26.1046 19 25V21C19 19.3431 20.3431 18 22 18H24C25.1046 18 26 17.1046 26 16V11C26 8.79086 24.2091 7 22 7H12Z" fill="black"/>
</svg>
