<svg width="32" height="32" viewBox="0 0 32 32" fill="none" xmlns="http://www.w3.org/2000/svg">
<path d="M22.62 8.005C21.724 4.522 18.554 2 14.878 2C10.467 2 6.87799 5.589 6.87799 10C6.87799 10.027 6.87799 10.056 6.87799 10.083C4.04299 10.561 1.87701 13.032 1.87701 16C1.87701 19.309 4.56801 22 7.87701 22H11.999C12.552 22 12.999 21.553 12.999 21C12.999 20.447 12.552 20 11.999 20H7.87701C5.67101 20 3.87701 18.206 3.87701 16C3.87701 13.81 5.647 12.024 7.832 12C7.876 12.005 7.92601 12.008 7.95801 12.008C8.24801 12.008 8.52399 11.882 8.71399 11.662C8.90399 11.442 8.98899 11.151 8.94699 10.864C8.89899 10.531 8.87701 10.257 8.87701 10C8.87701 6.691 11.568 4 14.877 4C17.882 4 20.438 6.24703 20.82 9.22803C20.855 9.49903 21 9.74401 21.22 9.90601C21.44 10.068 21.717 10.135 21.987 10.085C22.306 10.028 22.597 10.001 22.877 10.001C25.634 10.001 27.877 12.244 27.877 15.001C27.877 17.758 25.634 20.001 22.877 20.001H19.999C19.446 20.001 18.999 20.448 18.999 21.001C18.999 21.554 19.446 22.001 19.999 22.001H22.877C26.736 22.001 29.877 18.86 29.877 15.001C29.877 11.056 26.567 7.87998 22.619 8.00598L22.62 8.005Z" fill="black"/>
<path d="M19.293 24.293L17 26.586V13C17 12.447 16.553 12 16 12C15.447 12 15 12.447 15 13V26.586L12.707 24.293C12.316 23.902 11.684 23.902 11.293 24.293C10.902 24.684 10.902 25.316 11.293 25.707L15.292 29.706C15.384 29.799 15.495 29.872 15.618 29.923C15.74 29.974 15.87 30 16 30C16.13 30 16.26 29.974 16.382 29.923C16.505 29.872 16.616 29.799 16.708 29.706L20.707 25.707C21.098 25.316 21.098 24.684 20.707 24.293C20.316 23.902 19.684 23.902 19.293 24.293Z" fill="black"/>
</svg>
