<svg width="32" height="32" viewBox="0 0 32 32" fill="none" xmlns="http://www.w3.org/2000/svg">
<g id="AisDownload">
<g id="Vector">
<path d="M10.7069 13.707L15 9.41401V21C15 21.552 15.447 22 16 22C16.553 22 17 21.552 17 21V9.41401L21.293 13.707C21.488 13.902 21.744 14 22 14C22.256 14 22.5119 13.902 22.7069 13.707C23.0979 13.316 23.0979 12.684 22.7069 12.293L16.708 6.29401C16.616 6.20101 16.505 6.128 16.382 6.077C16.138 5.976 15.862 5.976 15.618 6.077C15.495 6.128 15.385 6.20101 15.292 6.29401L9.29301 12.293C8.90201 12.684 8.90201 13.316 9.29301 13.707C9.68401 14.098 10.3159 14.098 10.7069 13.707Z" fill="black"/>
<path d="M23 24H9C8.447 24 8 24.448 8 25C8 25.552 8.447 26 9 26H23C23.553 26 24 25.552 24 25C24 24.448 23.553 24 23 24Z" fill="black"/>
</g>
</g>
</svg>
