<svg width="32" height="32" viewBox="0 0 32 32" fill="none" xmlns="http://www.w3.org/2000/svg">
<path d="M30.5375 20.125C29.65 19.1937 27.83 18.6625 25.2575 18.6625C23.8825 18.6625 22.2863 18.795 20.5563 19.105C19.4964 18.0857 18.5311 16.9724 17.6725 15.7787C17.0075 14.8912 16.43 13.9162 15.8975 12.9837C16.9188 9.87871 17.4063 7.34996 17.4063 5.53121C17.4063 3.49121 16.6525 1.36121 14.4788 1.36121C13.8138 1.36121 13.1475 1.76121 12.7925 2.33746C11.8175 4.06746 12.2613 7.83746 13.9463 11.5637C13.312 13.4692 12.6019 15.3487 11.8175 17.1975C11.1075 18.8837 10.3088 20.6137 9.42125 22.21C4.5425 24.1625 1.3925 26.425 1.0375 28.1975C0.905 28.8637 1.12625 29.485 1.615 29.9725C1.7925 30.1062 2.41375 30.6387 3.4775 30.6387C6.715 30.6387 10.1313 25.4037 11.8613 22.255C13.1925 21.8112 14.5238 21.3675 15.8538 21.0125C17.257 20.6314 18.6783 20.3206 20.1125 20.0812C23.5275 23.1412 26.5438 23.63 28.0525 23.63C29.915 23.63 30.5813 22.875 30.8025 22.255C31.2025 21.455 30.9363 20.5687 30.5375 20.125ZM28.7625 21.4125C28.6287 22.0775 27.9625 22.5212 27.0325 22.5212C26.7663 22.5212 26.545 22.4762 26.2775 22.4325C24.5925 22.0325 22.995 21.19 21.3988 19.8587C22.6295 19.6506 23.8756 19.5469 25.1238 19.5487C26.0563 19.5487 26.855 19.5925 27.3862 19.7262C28.0075 19.8587 28.9838 20.2587 28.7613 21.4112L28.7625 21.4125ZM19.3575 19.3275C18.1197 19.5594 16.8917 19.8405 15.6763 20.17C14.6163 20.4455 13.5657 20.7561 12.5263 21.1012C13.0666 20.0547 13.5698 18.9895 14.035 17.9075C14.5675 16.665 15.01 15.3787 15.455 14.1812C15.8975 14.935 16.3863 15.69 16.8738 16.355C17.6708 17.3712 18.4991 18.3625 19.3575 19.3275ZM13.5475 2.82496C13.6259 2.66782 13.7459 2.53519 13.8945 2.44152C14.043 2.34785 14.2144 2.29673 14.39 2.29371C15.3213 2.29371 15.4988 3.35746 15.4988 4.20121C15.4988 5.61996 15.055 7.79371 14.3013 10.2775C13.0138 6.81746 12.9263 3.93496 13.5475 2.82496ZM8.6675 23.4962C6.405 27.2225 4.23125 29.5287 2.90125 29.5287C2.66127 29.5302 2.42752 29.4524 2.23625 29.3075C1.97 29.0412 1.83625 28.7312 1.925 28.3762C2.19125 27.045 4.76375 25.1825 8.6675 23.4962Z" fill="black"/>
</svg>
