<svg width="32" height="32" viewBox="0 0 32 32" fill="none" xmlns="http://www.w3.org/2000/svg">
<path fill-rule="evenodd" clip-rule="evenodd" d="M21.6655 4.00816C23.2677 5.30741 24.3747 7.11789 24.8008 9.13618C26.3788 9.45795 27.7811 10.3543 28.7357 11.6514C29.6903 12.9485 30.1291 14.5539 29.9671 16.1563C29.805 17.7586 29.0537 19.2437 27.8588 20.3234C26.6638 21.4032 25.1105 22.0006 23.5 22H21.6177L19.894 25.4473C19.7753 25.6845 19.5673 25.8649 19.3157 25.9488C19.1911 25.9903 19.0595 26.0069 18.9285 25.9976C18.7975 25.9883 18.6696 25.9532 18.5522 25.8945C18.4347 25.8357 18.33 25.7544 18.2439 25.6552C18.1579 25.556 18.0922 25.4408 18.0507 25.3162C18.0092 25.1916 17.9926 25.06 18.0019 24.929C18.0112 24.798 18.0462 24.6701 18.105 24.5527L19.3813 22H8.49997C6.88941 22.0006 5.336 21.4031 4.14107 20.3233C2.94613 19.2434 2.19484 17.7583 2.03293 16.1559C1.87102 14.5535 2.31002 12.948 3.26479 11.651C4.21956 10.3539 5.62203 9.45772 7.20017 9.13618C7.62629 7.11789 8.73321 5.30741 10.3354 4.00816C11.9376 2.70892 13.9377 1.99988 16.0005 1.99988C18.0633 1.99988 20.0634 2.70892 21.6655 4.00816ZM8.49997 20H23.5C24.6622 20.0005 25.7795 19.551 26.6177 18.7458C27.4558 17.9406 27.9497 16.8422 27.9958 15.6808C28.0418 14.5195 27.6366 13.3854 26.8649 12.5163C26.0932 11.6472 25.015 11.1106 23.8564 11.019L23.041 10.9551L22.9424 10.1431C22.7347 8.44816 21.9142 6.88777 20.6354 5.75611C19.3567 4.62445 17.7081 3.99973 16.0005 3.99973C14.2929 3.99973 12.6443 4.62445 11.3655 5.75611C10.0868 6.88777 9.26622 8.44816 9.05857 10.1431L8.95947 10.9551L8.14397 11.019C6.98538 11.1106 5.90723 11.6472 5.13555 12.5162C4.36386 13.3853 3.95856 14.5193 4.00459 15.6806C4.05062 16.8419 4.54442 17.9403 5.38247 18.7456C6.22053 19.5508 7.33776 20.0003 8.49997 20Z" fill="black"/>
<path d="M10.513 29.8734C10.6619 29.9564 10.8295 30 11 30C11.1857 30.0002 11.3679 29.9486 11.5259 29.8509C11.6839 29.7533 11.8115 29.6134 11.8943 29.4472L13.8943 25.4472C13.9543 25.3296 13.9903 25.2013 14.0005 25.0698C14.0106 24.9382 13.9946 24.8059 13.9534 24.6805C13.9122 24.5551 13.8465 24.4392 13.7602 24.3393C13.674 24.2394 13.5688 24.1576 13.4508 24.0985C13.3327 24.0395 13.2042 24.0044 13.0725 23.9953C12.9408 23.9862 12.8087 24.0032 12.6836 24.0454C12.5586 24.0877 12.4431 24.1542 12.3439 24.2412C12.2447 24.3283 12.1637 24.4341 12.1056 24.5526L10.1056 28.5526C10.0293 28.7051 9.9933 28.8745 10.0009 29.0448C10.0086 29.2151 10.0596 29.3806 10.1493 29.5257C10.2389 29.6707 10.3641 29.7904 10.513 29.8734Z" fill="black"/>
</svg>
