<svg width="32" height="32" viewBox="0 0 32 32" fill="none" xmlns="http://www.w3.org/2000/svg">
<path d="M28.8375 25.2313H3.1625C2.87852 25.2313 2.59731 25.1754 2.33495 25.0667C2.07258 24.958 1.83419 24.7987 1.63338 24.5979C1.43257 24.3971 1.27329 24.1587 1.16461 23.8964C1.05593 23.634 1 23.3528 1 23.0688V8.9313C1 8.35777 1.22783 7.80773 1.63338 7.40218C2.03893 6.99663 2.58897 6.7688 3.1625 6.7688H28.8375C29.1215 6.7688 29.4027 6.82473 29.6651 6.93341C29.9274 7.04209 30.1658 7.20137 30.3666 7.40218C30.5674 7.60299 30.7267 7.84138 30.8354 8.10375C30.9441 8.36611 31 8.64732 31 8.9313V23.0663C31.0002 23.3504 30.9444 23.6317 30.8357 23.8942C30.7271 24.1567 30.5679 24.3953 30.3671 24.5962C30.1662 24.7972 29.9278 24.9566 29.6653 25.0653C29.4029 25.1741 29.1216 25.2313 28.8375 25.2313ZM8.21125 20.9038V15.2788L11.0962 18.885L13.98 15.2788V20.9038H16.865V11.0975H13.98L11.0962 14.7038L8.21125 11.0975H5.325V20.9063L8.21125 20.9038ZM27.54 16H24.6538V11.0963H21.77V16H18.885L23.2112 21.0488L27.54 16Z" fill="black"/>
</svg>
