<svg width="32" height="32" viewBox="0 0 32 32" fill="none" xmlns="http://www.w3.org/2000/svg">
<path d="M12 7C12 6.44772 12.4477 6 13 6C13.5523 6 14 6.44772 14 7C14 7.55228 13.5523 8 13 8C12.4477 8 12 7.55228 12 7Z" fill="black"/>
<path d="M9 6C8.44772 6 8 6.44772 8 7C8 7.55228 8.44772 8 9 8C9.55228 8 10 7.55228 10 7C10 6.44772 9.55228 6 9 6Z" fill="black"/>
<path d="M12 11C12 10.4477 12.4477 10 13 10C13.5523 10 14 10.4477 14 11C14 11.5523 13.5523 12 13 12C12.4477 12 12 11.5523 12 11Z" fill="black"/>
<path d="M9 10C8.44772 10 8 10.4477 8 11C8 11.5523 8.44772 12 9 12C9.55228 12 10 11.5523 10 11C10 10.4477 9.55228 10 9 10Z" fill="black"/>
<path d="M12 15C12 14.4477 12.4477 14 13 14C13.5523 14 14 14.4477 14 15C14 15.5523 13.5523 16 13 16C12.4477 16 12 15.5523 12 15Z" fill="black"/>
<path d="M9 14C8.44772 14 8 14.4477 8 15C8 15.5523 8.44772 16 9 16C9.55228 16 10 15.5523 10 15C10 14.4477 9.55228 14 9 14Z" fill="black"/>
<path d="M12 19C12 18.4477 12.4477 18 13 18C13.5523 18 14 18.4477 14 19C14 19.5523 13.5523 20 13 20C12.4477 20 12 19.5523 12 19Z" fill="black"/>
<path d="M9 18C8.44772 18 8 18.4477 8 19C8 19.5523 8.44772 20 9 20C9.55228 20 10 19.5523 10 19C10 18.4477 9.55228 18 9 18Z" fill="black"/>
<path d="M17 6C16.4477 6 16 6.44772 16 7C16 7.55228 16.4477 8 17 8C17.5523 8 18 7.55228 18 7C18 6.44772 17.5523 6 17 6Z" fill="black"/>
<path d="M16 15C16 14.4477 16.4477 14 17 14C17.5523 14 18 14.4477 18 15C18 15.5523 17.5523 16 17 16C16.4477 16 16 15.5523 16 15Z" fill="black"/>
<path d="M17 18C16.4477 18 16 18.4477 16 19C16 19.5523 16.4477 20 17 20C17.5523 20 18 19.5523 18 19C18 18.4477 17.5523 18 17 18Z" fill="black"/>
<path d="M16 11C16 10.4477 16.4477 10 17 10C17.5523 10 18 10.4477 18 11C18 11.5523 17.5523 12 17 12C16.4477 12 16 11.5523 16 11Z" fill="black"/>
<path fill-rule="evenodd" clip-rule="evenodd" d="M22 14V4C22 2.89543 21.1046 2 20 2H6C4.89543 2 4 2.89543 4 4V28C4 29.1046 4.89543 30 6 30H26C27.1046 30 28 29.1046 28 28V16C28 14.8954 27.1046 14 26 14H22ZM20 4H6L6 28H10V24C10 22.8954 10.8954 22 12 22H14C15.1046 22 16 22.8954 16 24V28H20V4ZM22 16V28H26V16H22Z" fill="black"/>
</svg>
