<svg width="32" height="32" viewBox="0 0 32 32" fill="none" xmlns="http://www.w3.org/2000/svg">
<path fill-rule="evenodd" clip-rule="evenodd" d="M19.9734 4.77094C19.8469 4.23334 19.3085 3.90007 18.7709 4.02656C18.2333 4.15306 17.9001 4.69142 18.0266 5.22902L20.6822 16.5157C20.3022 16.2578 19.8599 16.0849 19.3825 16.0242C19.3844 15.8436 19.3615 15.6589 19.311 15.4738L18.2058 11.4213C17.4939 8.81093 15.1229 7 12.4172 7H11.2458C10.2456 7 9.39925 7.7388 9.26412 8.72977L8.30958 15.7298C8.29717 15.8207 8.29106 15.911 8.29089 16H5C3.34315 16 2 17.3431 2 19V21C2 21.892 2.38929 22.693 3.00723 23.2426C3.13262 25.3388 4.87231 27 7 27C8.86384 27 10.4299 25.7252 10.874 24H14.126C14.5701 25.7252 16.1362 27 18 27C20.2091 27 22 25.2091 22 23C22 22.6281 21.9492 22.268 21.8543 21.9263C21.8749 21.8628 21.8934 21.7983 21.9098 21.7329L22.0266 22.229C22.0879 22.4895 22.251 22.7146 22.4795 22.8539C22.7081 22.9932 22.9829 23.035 23.2425 22.9701L29.2425 21.4701C29.7783 21.3362 30.1041 20.7932 29.9701 20.2574C29.8362 19.7217 29.2932 19.3959 28.7574 19.5298L23.7412 20.7839L19.9734 4.77094ZM12.4172 9H11.2458L10.2912 16L17.3815 16L16.2763 11.9475C15.8017 10.2073 14.221 9 12.4172 9ZM10.2912 18H17.3815H19C19.5523 18 20 18.4477 20 19V19.5351C19.4117 19.1948 18.7286 19 18 19C16.1362 19 14.5701 20.2748 14.126 22H10.874C10.4299 20.2748 8.86384 19 7 19C5.80531 19 4.73294 19.5238 4 20.3542V19C4 18.4477 4.44772 18 5 18H10.2912ZM5 23C5 24.1046 5.89543 25 7 25C8.10457 25 9 24.1046 9 23C9 21.8954 8.10457 21 7 21C5.89543 21 5 21.8954 5 23ZM16 23C16 24.1046 16.8954 25 18 25C19.1046 25 20 24.1046 20 23C20 21.8954 19.1046 21 18 21C16.8954 21 16 21.8954 16 23Z" fill="black"/>
</svg>
