<svg width="32" height="32" viewBox="0 0 32 32" fill="none" xmlns="http://www.w3.org/2000/svg">
<path d="M27.923 16.382C28.024 16.137 28.024 15.862 27.923 15.618C27.872 15.496 27.799 15.385 27.707 15.293L23.707 11.293C23.316 10.902 22.684 10.902 22.293 11.293C21.902 11.684 21.902 12.316 22.293 12.707L24.586 15H14C13.448 15 13 15.448 13 16C13 16.552 13.448 17 14 17H24.586L22.293 19.293C21.902 19.684 21.902 20.316 22.293 20.707C22.488 20.902 22.744 21 23 21C23.256 21 23.512 20.902 23.707 20.707L27.707 16.707C27.799 16.615 27.872 16.504 27.923 16.382Z" fill="black"/>
<path d="M17 20C16.448 20 16 20.448 16 21L15.996 24L6 23.996L6.004 8L16 8.004V11C16 11.552 16.448 12 17 12C17.552 12 18 11.552 18 11V8.004C18 6.899 17.101 6 15.996 6H6.004C4.899 6 4 6.899 4 8.004V23.996C4 25.101 4.899 26 6.004 26H15.996C17.101 26 18 25.101 18 23.996V21C18 20.448 17.552 20 17 20Z" fill="black"/>
</svg>
