<svg width="32" height="32" viewBox="0 0 32 32" fill="none" xmlns="http://www.w3.org/2000/svg">
<g id="AisEye">
<g id="Vector">
<path d="M27.852 15.476C27.639 15.13 22.559 7 16 7C9.44102 7 4.36101 15.13 4.14801 15.476C3.95001 15.798 3.95001 16.203 4.14801 16.525C4.36101 16.871 9.44102 25.001 16 25.001C22.559 25.001 27.639 16.871 27.852 16.525C28.05 16.203 28.05 15.798 27.852 15.476ZM16 23C11.416 23 7.38302 17.709 6.20102 16C7.38402 14.291 11.416 9 16 9C20.584 9 24.617 14.291 25.799 16C24.616 17.709 20.584 23 16 23Z" fill="black"/>
<path d="M16 19C17.6569 19 19 17.6569 19 16C19 14.3431 17.6569 13 16 13C14.3432 13 13 14.3431 13 16C13 17.6569 14.3432 19 16 19Z" fill="black"/>
</g>
</g>
</svg>
