<svg width="32" height="32" viewBox="0 0 32 32" fill="none" xmlns="http://www.w3.org/2000/svg">
<path d="M29 21.2783V19C29 17.9391 28.5786 16.9217 27.8284 16.1716C27.0783 15.4214 26.0609 15 25 15C23.9391 15 22.9217 15.4214 22.1716 16.1716C21.4214 16.9217 21 17.9391 21 19V21.2783C20.697 21.4525 20.4452 21.7032 20.2697 22.0054C20.0942 22.3075 20.0012 22.6506 20 23V28C20.0007 28.5302 20.2116 29.0386 20.5865 29.4135C20.9614 29.7884 21.4698 29.9993 22 30H28C28.5302 29.9993 29.0386 29.7884 29.4135 29.4135C29.7884 29.0386 29.9993 28.5302 30 28V23C29.9988 22.6506 29.9058 22.3075 29.7303 22.0054C29.5548 21.7032 29.303 21.4525 29 21.2783ZM25 17C25.5302 17.0007 26.0386 17.2116 26.4135 17.5865C26.7884 17.9614 26.9993 18.4698 27 19V21H23V19C23.0007 18.4698 23.2116 17.9614 23.5865 17.5865C23.9614 17.2116 24.4698 17.0007 25 17ZM22 28V23H28V28H22ZM2 2H4V5C4 5.55228 3.55228 6 3 6V6C2.44772 6 2 5.55228 2 5V2ZM14 2H16V5C16 5.55228 15.5523 6 15 6V6C14.4477 6 14 5.55228 14 5V2ZM18 2H20V5C20 5.55228 19.5523 6 19 6V6C18.4477 6 18 5.55228 18 5V2ZM2 9C2 8.44772 2.44772 8 3 8V8C3.55228 8 4 8.44772 4 9V15C4 15.5523 3.55228 16 3 16V16C2.44772 16 2 15.5523 2 15V9ZM2 19C2 18.4477 2.44772 18 3 18V18C3.55228 18 4 18.4477 4 19V25C4 25.5523 3.55228 26 3 26V26C2.44772 26 2 25.5523 2 25V19ZM14 19C14 18.4477 14.4477 18 15 18V18C15.5523 18 16 18.4477 16 19V25C16 25.5523 15.5523 26 15 26V26C14.4477 26 14 25.5523 14 25V19ZM6 9C6 8.44772 6.44772 8 7 8V8C7.55228 8 8 8.44772 8 9V15C8 15.5523 7.55228 16 7 16V16C6.44772 16 6 15.5523 6 15V9ZM18 9C18 8.44772 18.4477 8 19 8V8C19.5523 8 20 8.44772 20 9V13C20 13.5523 19.5523 14 19 14V14C18.4477 14 18 13.5523 18 13V9ZM10 26H8C7.46975 25.9994 6.9614 25.7885 6.58646 25.4135C6.21152 25.0386 6.00061 24.5302 6 24V20C6.00061 19.4698 6.21152 18.9614 6.58646 18.5865C6.9614 18.2115 7.46975 18.0006 8 18H10C10.5302 18.0006 11.0386 18.2115 11.4135 18.5865C11.7885 18.9614 11.9994 19.4698 12 20V24C11.9994 24.5302 11.7885 25.0386 11.4135 25.4135C11.0386 25.7885 10.5302 25.9994 10 26ZM8 20V24H10V20H8ZM14 16H12C11.4698 15.9994 10.9614 15.7885 10.5865 15.4135C10.2115 15.0386 10.0006 14.5302 10 14V10C10.0006 9.46975 10.2115 8.9614 10.5865 8.58646C10.9614 8.21152 11.4698 8.00061 12 8H14C14.5302 8.00061 15.0386 8.21152 15.4135 8.58646C15.7885 8.9614 15.9994 9.46975 16 10V14C15.9994 14.5302 15.7885 15.0386 15.4135 15.4135C15.0386 15.7885 14.5302 15.9994 14 16ZM12 10V14H14V10H12ZM10 6H8C7.46975 5.99939 6.9614 5.78848 6.58646 5.41354C6.21152 5.0386 6.00061 4.53025 6 4V2H8V4H10V2H12V4C11.9994 4.53025 11.7885 5.0386 11.4135 5.41354C11.0386 5.78848 10.5302 5.99939 10 6Z" fill="black"/>
</svg>
