<svg width="32" height="32" viewBox="0 0 32 32" fill="none" xmlns="http://www.w3.org/2000/svg">
<path d="M27.7069 4.29301C26.2149 2.80101 23.785 2.80101 22.293 4.29301L20.5 6.08598L19.7069 5.29301C19.3159 4.90201 18.684 4.90201 18.293 5.29301C17.902 5.68401 17.902 6.31595 18.293 6.70695L19.086 7.49998L10.293 16.293C10.105 16.481 9.99998 16.734 9.99998 17V18.586L8.29301 20.293C7.90201 20.684 7.90201 21.316 8.29301 21.707L10.293 23.707C10.488 23.902 10.744 24 11 24C11.256 24 11.5119 23.902 11.7069 23.707L13.414 22H15C15.266 22 15.5199 21.895 15.7069 21.707L24.5 12.914L25.293 13.707C25.488 13.902 25.744 14 26 14C26.256 14 26.5119 13.902 26.7069 13.707C27.0979 13.316 27.0979 12.684 26.7069 12.293L25.914 11.5L27.7069 9.70695C29.1999 8.21495 29.1999 5.78501 27.7069 4.29301ZM14.586 20H13C12.734 20 12.48 20.105 12.293 20.293L11 21.586L10.414 21L11.7069 19.707C11.8949 19.519 12 19.266 12 19V17.414L20.5 8.91398L23.086 11.5L14.586 20ZM26.293 8.29301L24.5 10.086L21.914 7.49998L23.7069 5.70695C24.4199 4.99395 25.58 4.99395 26.293 5.70695C27.006 6.41995 27.006 7.58001 26.293 8.29301Z" fill="black"/>
<path d="M5 29C6.10457 29 7 28.1046 7 27C7 25.8954 6.10457 25 5 25C3.89543 25 3 25.8954 3 27C3 28.1046 3.89543 29 5 29Z" fill="black"/>
</svg>
