<svg width="32" height="32" viewBox="0 0 32 32" fill="none" xmlns="http://www.w3.org/2000/svg">
<rect x="2" y="27" width="8" height="2" rx="1" fill="black"/>
<rect x="12" y="27" width="8" height="2" rx="1" fill="black"/>
<rect x="12" y="23" width="8" height="2" rx="1" fill="black"/>
<rect x="22" y="23" width="8" height="2" rx="1" fill="black"/>
<rect x="2" y="23" width="8" height="2" rx="1" fill="black"/>
<rect x="22" y="15" width="8" height="2" rx="1" fill="black"/>
<rect x="2" y="15" width="8" height="2" rx="1" fill="black"/>
<rect x="2" y="11" width="8" height="2" rx="1" fill="black"/>
<rect x="12" y="19" width="8" height="2" rx="1" fill="black"/>
<rect x="22" y="19" width="8" height="2" rx="1" fill="black"/>
<rect x="2" y="19" width="8" height="2" rx="1" fill="black"/>
<rect x="22" y="11" width="8" height="2" rx="1" fill="black"/>
<rect x="22" y="7" width="8" height="2" rx="1" fill="black"/>
<rect x="22" y="3" width="8" height="2" rx="1" fill="black"/>
<rect x="22" y="27" width="8" height="2" rx="1" fill="black"/>
</svg>
