<svg width="32" height="32" viewBox="0 0 32 32" fill="none" xmlns="http://www.w3.org/2000/svg">
<path d="M15 11C15 10.448 15.448 10 16 10C16.552 10 17 10.448 17 11V17C17 17.552 16.552 18 16 18C15.448 18 15 17.552 15 17V11Z" fill="black"/>
<path d="M17 21C17 21.5523 16.5523 22 16 22C15.4477 22 15 21.5523 15 21C15 20.4477 15.4477 20 16 20C16.5523 20 17 20.4477 17 21Z" fill="black"/>
<path fill-rule="evenodd" clip-rule="evenodd" d="M10.9559 28C9.91913 28 8.95225 27.425 8.43386 26.5L3.38879 17.5C2.8704 16.574 2.8704 15.425 3.38879 14.5L8.43289 5.5C8.95225 4.575 9.91816 4 10.9549 4H21.0441C22.0809 4 23.0478 4.575 23.5661 5.5L28.6112 14.5C29.1296 15.426 29.1296 16.575 28.6112 17.5L23.5671 26.5C23.0478 27.425 22.0818 28 21.0451 28H10.9559ZM21.8229 25.5213C21.6468 25.8346 21.3369 26 21.0451 26H10.9559C10.6629 26 10.3531 25.8337 10.1786 25.5222L5.13394 16.523C4.95534 16.2038 4.95574 15.795 5.13347 15.4778L10.1768 6.47916C10.3529 6.16578 10.6631 6 10.9549 6H21.0441C21.3371 6 21.6469 6.16631 21.8214 6.47777L26.8666 15.478C27.0448 15.7971 27.0441 16.2053 26.8665 16.5222L21.8229 25.5213Z" fill="black"/>
</svg>
