<svg width="32" height="32" viewBox="0 0 32 32" fill="none" xmlns="http://www.w3.org/2000/svg">
<path fill-rule="evenodd" clip-rule="evenodd" d="M18.7574 4.75736C19.9287 3.58598 21.466 3 23 3H26C28.7614 3 31 5.23858 31 8V10C31 12.7614 28.7614 15 26 15H25.4853L13.2426 27.2426C12.0713 28.414 10.534 29 9 29H6C3.23858 29 1 26.7614 1 24V22C1 19.2386 3.23858 17 6 17H6.51472L7 16.5147V11C7 9.95651 7.53275 9.03746 8.3411 8.5C7.53275 7.96254 7 7.04349 7 6C7 4.34315 8.34315 3 10 3C11.6569 3 13 4.34315 13 6C13 7.04349 12.4672 7.96254 11.6589 8.5C12.3484 8.95841 12.8373 9.69442 12.9662 10.5485L18.7574 4.75736ZM23 5C21.9748 5 20.9528 5.39033 20.1716 6.17157L7.92893 18.4142C7.55386 18.7893 7.04515 19 6.51472 19H6C4.34315 19 3 20.3431 3 22V24C3 25.6569 4.34315 27 6 27H9C10.0252 27 11.0472 26.6097 11.8284 25.8284L24.0711 13.5858C24.4461 13.2107 24.9548 13 25.4853 13H26C27.6569 13 29 11.6569 29 10V8C29 6.34315 27.6569 5 26 5H23ZM11 11V12.5147L9 14.5147V11C9 10.4477 9.44772 10 10 10C10.5523 10 11 10.4477 11 11ZM11 6C11 6.55228 10.5523 7 10 7C9.44772 7 9 6.55228 9 6C9 5.44772 9.44772 5 10 5C10.5523 5 11 5.44772 11 6Z" fill="black"/>
<path d="M27 22.4142V23C27 23.5523 27.4477 24 28 24C28.5523 24 29 23.5523 29 23V20C29 19.4477 28.5523 19 28 19H25C24.4477 19 24 19.4477 24 20C24 20.5523 24.4477 21 25 21H25.5858L21.2929 25.2929C20.9024 25.6834 20.9024 26.3166 21.2929 26.7071C21.6834 27.0976 22.3166 27.0976 22.7071 26.7071L27 22.4142Z" fill="black"/>
</svg>
