<svg width="32" height="32" viewBox="0 0 32 32" fill="none" xmlns="http://www.w3.org/2000/svg">
<path d="M16 20C17.6569 20 19 18.6569 19 17C19 15.3431 17.6569 14 16 14C14.3431 14 13 15.3431 13 17C13 18.6569 14.3431 20 16 20Z" fill="black"/>
<path fill-rule="evenodd" clip-rule="evenodd" d="M28 6H4C2.897 6 2 6.897 2 8V24C2 25.103 2.897 26 4 26H28C29.103 26 30 25.103 30 24V8C30 6.897 29.103 6 28 6ZM26.438 8L19.6885 13.6243C20.1441 14.1219 20.5004 14.7119 20.7259 15.363L28 9.30099V23.999H4V9.30099L11.2741 15.363C11.4996 14.7119 11.8559 14.1219 12.3115 13.6243L5.562 8H26.438Z" fill="black"/>
</svg>
