<svg width="32" height="32" viewBox="0 0 32 32" fill="none" xmlns="http://www.w3.org/2000/svg">
<path fill-rule="evenodd" clip-rule="evenodd" d="M13.2426 4.75736C12.0713 3.58598 10.534 3 9 3H6C3.23858 3 1 5.23858 1 8V10C1 12.7614 3.23858 15 6 15H6.51472L18.7574 27.2426C19.9287 28.414 21.466 29 23 29H26C28.7614 29 31 26.7614 31 24V22C31 19.2386 28.7614 17 26 17H25.4853L25 16.5147V11C25 9.95651 24.4672 9.03746 23.6589 8.5C24.4672 7.96254 25 7.04349 25 6C25 4.34315 23.6569 3 22 3C20.3431 3 19 4.34315 19 6C19 7.04349 19.5328 7.96254 20.3411 8.5C19.6516 8.95841 19.1627 9.69442 19.0338 10.5485L13.2426 4.75736ZM9 5C10.0252 5 11.0472 5.39033 11.8284 6.17157L24.0711 18.4142C24.4461 18.7893 24.9548 19 25.4853 19H26C27.6569 19 29 20.3431 29 22V24C29 25.6569 27.6569 27 26 27H23C21.9748 27 20.9528 26.6097 20.1716 25.8284L7.92893 13.5858C7.55386 13.2107 7.04515 13 6.51472 13H6C4.34315 13 3 11.6569 3 10V8C3 6.34315 4.34315 5 6 5H9ZM23 11V14.5147L21 12.5147V11C21 10.4477 21.4477 10 22 10C22.5523 10 23 10.4477 23 11ZM23 6C23 6.55228 22.5523 7 22 7C21.4477 7 21 6.55228 21 6C21 5.44772 21.4477 5 22 5C22.5523 5 23 5.44772 23 6Z" fill="black"/>
<path d="M7.58579 25H7C6.44771 25 6 25.4477 6 26C6 26.5523 6.44771 27 7 27H10C10.5523 27 11 26.5523 11 26V23C11 22.4477 10.5523 22 10 22C9.44771 22 9 22.4477 9 23V23.5858L4.70711 19.2929C4.31658 18.9024 3.68342 18.9024 3.29289 19.2929C2.90237 19.6834 2.90237 20.3166 3.29289 20.7071L7.58579 25Z" fill="black"/>
</svg>
