<svg width="32" height="32" viewBox="0 0 32 32" fill="none" xmlns="http://www.w3.org/2000/svg">
<path d="M26 12H20V6.08C20 4.933 19.067 4 17.92 4H6.08C4.933 4 4 4.933 4 6.08V25.92C4 27.067 4.933 28 6.08 28H17.92C17.947 28 17.973 27.993 18 27.992V28H26C27.103 28 28 27.103 28 26V14C28 12.897 27.103 12 26 12ZM17.92 26H15V22C15.552 22 16 21.552 16 21C16 20.448 15.552 20 15 20H13V26H6.08C6.036 26 6 25.964 6 25.92V6.08C6 6.036 6.036 6 6.08 6H17.92C17.964 6 18 6.036 18 6.08V25.92C18 25.964 17.964 26 17.92 26ZM26 26H20V14H26V26Z" fill="black"/>
<path d="M10 8H8V11C8 11.552 8.448 12 9 12C9.552 12 10 11.552 10 11V10C10.552 10 11 9.552 11 9C11 8.448 10.552 8 10 8Z" fill="black"/>
<path d="M15 8H13V11C13 11.552 13.448 12 14 12C14.552 12 15 11.552 15 11V10C15.552 10 16 9.552 16 9C16 8.448 15.552 8 15 8Z" fill="black"/>
<path d="M10 14H8V17C8 17.552 8.448 18 9 18C9.552 18 10 17.552 10 17V16C10.552 16 11 15.552 11 15C11 14.448 10.552 14 10 14Z" fill="black"/>
<path d="M15 14H13V17C13 17.552 13.448 18 14 18C14.552 18 15 17.552 15 17V16C15.552 16 16 15.552 16 15C16 14.448 15.552 14 15 14Z" fill="black"/>
<path d="M22.29 17.71C22.48 17.89 22.74 18 23 18C23.13 18 23.26 17.97 23.38 17.92C23.51 17.87 23.62 17.8 23.71 17.71C23.8 17.61 23.87 17.5 23.92 17.38C23.97 17.26 24 17.13 24 17C24 16.74 23.89 16.48 23.71 16.29C23.34 15.92 22.66 15.92 22.29 16.29C22.11 16.48 22 16.74 22 17C22 17.13 22.03 17.26 22.08 17.38C22.13 17.5 22.2 17.61 22.29 17.71Z" fill="black"/>
<path d="M23 22C23.27 22 23.52 21.89 23.71 21.71C23.89 21.52 24 21.26 24 21C24 20.87 23.98 20.74 23.92 20.62C23.87 20.5 23.8 20.39 23.71 20.29C23.66 20.25 23.61 20.21 23.56 20.17C23.5 20.13 23.44 20.1 23.38 20.08C23.32 20.05 23.26 20.03 23.2 20.02C22.87 19.96 22.53 20.06 22.29 20.29C22.2 20.39 22.13 20.5 22.08 20.62C22.03 20.74 22 20.87 22 21C22 21.26 22.11 21.52 22.29 21.71C22.48 21.89 22.74 22 23 22Z" fill="black"/>
<path d="M10 20H8V23C8 23.552 8.448 24 9 24C9.552 24 10 23.552 10 23V22C10.552 22 11 21.552 11 21C11 20.448 10.552 20 10 20Z" fill="black"/>
</svg>
