<svg width="32" height="32" viewBox="0 0 32 32" fill="none" xmlns="http://www.w3.org/2000/svg">
<path d="M6 13C6 12.4477 6.44772 12 7 12H15C15.5523 12 16 12.4477 16 13C16 13.5523 15.5523 14 15 14H7C6.44772 14 6 13.5523 6 13Z" fill="black"/>
<path d="M7 16C6.44772 16 6 16.4477 6 17C6 17.5523 6.44772 18 7 18H15C15.5523 18 16 17.5523 16 17C16 16.4477 15.5523 16 15 16H7Z" fill="black"/>
<path fill-rule="evenodd" clip-rule="evenodd" d="M10.2929 2.29289C10.6834 1.90237 11.3166 1.90237 11.7071 2.29289L19.7071 10.2929C19.8946 10.4804 20 10.7348 20 11V14H29C29.5523 14 30 14.4477 30 15V29C30 29.5523 29.5523 30 29 30H3C2.44772 30 2 29.5523 2 29V11C2 10.7348 2.10536 10.4804 2.29289 10.2929L10.2929 2.29289ZM12 28V22H10V28H12ZM14 28V21C14 20.4477 13.5523 20 13 20H9C8.44772 20 8 20.4477 8 21V28H4V11.4142L11 4.41421L18 11.4142V28H14ZM28 28H20V16H28V28Z" fill="black"/>
</svg>
