<svg width="32" height="32" viewBox="0 0 32 32" fill="none" xmlns="http://www.w3.org/2000/svg">
<g id="AisError">
<g id="Vector">
<path d="M28.991 14.5L23.794 5.5C23.26 4.575 22.264 4 21.196 4H10.803C9.73502 4 8.74002 4.575 8.20502 5.5L3.00902 14.5C2.47502 15.425 2.47502 16.574 3.00902 17.5L8.20602 26.5C8.74002 27.425 9.73602 28 10.804 28H21.197C22.265 28 23.26 27.425 23.795 26.5L28.991 17.5C29.525 16.575 29.525 15.426 28.991 14.5ZM27.259 16.5L22.063 25.5C21.885 25.809 21.553 26 21.197 26H10.804C10.448 26 10.116 25.808 9.93802 25.5L4.74201 16.5C4.56401 16.191 4.56401 15.808 4.74201 15.5L9.93802 6.5C10.116 6.191 10.448 6 10.804 6H21.197C21.553 6 21.885 6.192 22.063 6.5L27.259 15.5C27.437 15.809 27.437 16.192 27.259 16.5Z" fill="black"/>
<path d="M16 10C15.448 10 15 10.448 15 11V17C15 17.552 15.448 18 16 18C16.552 18 17 17.552 17 17V11C17 10.448 16.552 10 16 10Z" fill="black"/>
<path d="M16 22C16.5523 22 17 21.5523 17 21C17 20.4477 16.5523 20 16 20C15.4477 20 15 20.4477 15 21C15 21.5523 15.4477 22 16 22Z" fill="black"/>
</g>
</g>
</svg>
