<svg width="32" height="32" viewBox="0 0 32 32" fill="none" xmlns="http://www.w3.org/2000/svg">
<g id="AisEyeClosed">
<g id="Vector">
<path d="M27.852 15.476C27.639 15.13 22.559 7 16 7C14.873 7 13.795 7.252 12.772 7.651L14.344 9.22301C14.885 9.08101 15.438 8.99899 15.999 8.99899C20.583 8.99899 24.616 14.29 25.798 15.999C25.401 16.573 24.675 17.554 23.721 18.601L25.142 20.022C26.763 18.261 27.758 16.672 27.85 16.524C28.048 16.202 28.048 15.797 27.85 15.475L27.852 15.476Z" fill="black"/>
<path d="M7.707 5.29301C7.316 4.90201 6.684 4.90201 6.293 5.29301C5.902 5.68401 5.902 6.31601 6.293 6.70701L9.29401 9.708C6.26301 12.107 4.27901 15.263 4.14801 15.475C3.95001 15.797 3.95001 16.202 4.14801 16.524C4.36101 16.87 9.441 25 16 25C18.317 25 20.442 23.981 22.239 22.653L25.293 25.707C25.488 25.902 25.744 26 26 26C26.256 26 26.512 25.902 26.707 25.707C27.098 25.316 27.098 24.684 26.707 24.293L7.707 5.29301ZM14.399 14.813L17.185 17.599C16.414 18.157 15.272 18.1 14.586 17.414C14.208 17.036 14 16.534 14 16C14 15.565 14.144 15.156 14.399 14.813ZM16 23C11.416 23 7.38299 17.709 6.20099 16C6.88999 15.005 8.552 12.805 10.72 11.134L12.985 13.399C12.357 14.125 12 15.031 12 16C12 17.068 12.416 18.073 13.172 18.828C13.927 19.584 14.932 20 16 20C16.969 20 17.875 19.642 18.601 19.015L20.811 21.225C19.366 22.249 17.723 23 16 23Z" fill="black"/>
</g>
</g>
</svg>
