<svg width="32" height="32" viewBox="0 0 32 32" fill="none" xmlns="http://www.w3.org/2000/svg">
<path d="M13 13C13 14.1046 12.1046 15 11 15C9.89543 15 9 14.1046 9 13C9 11.8954 9.89543 11 11 11C12.1046 11 13 11.8954 13 13Z" fill="black"/>
<path d="M21 15C22.1046 15 23 14.1046 23 13C23 11.8954 22.1046 11 21 11C19.8954 11 19 11.8954 19 13C19 14.1046 19.8954 15 21 15Z" fill="black"/>
<path d="M11.7071 18.6568C14.0502 21 17.8492 21 20.1924 18.6568C20.5829 18.2663 21.2161 18.2663 21.6066 18.6568C21.9971 19.0474 21.9971 19.6805 21.6066 20.0711C21.3901 20.2875 21.1643 20.489 20.9305 20.6755C21.066 20.8251 21.1808 20.9977 21.2684 21.1906L21.7147 22.1724C22.3166 23.4966 21.3486 25 19.894 25H18.6422C18.1393 25 17.6566 24.8015 17.2992 24.4477L15.2771 22.446C15.2558 22.4249 15.2362 22.4032 15.2182 22.3809C13.421 22.2168 11.6687 21.4469 10.2929 20.0711C9.90236 19.6805 9.90236 19.0474 10.2929 18.6568C10.6834 18.2663 11.3166 18.2663 11.7071 18.6568Z" fill="black"/>
<path fill-rule="evenodd" clip-rule="evenodd" d="M30 16C30 23.732 23.732 30 16 30C8.26801 30 2 23.732 2 16C2 8.26801 8.26801 2 16 2C23.732 2 30 8.26801 30 16ZM28 16C28 22.6274 22.6274 28 16 28C9.37258 28 4 22.6274 4 16C4 9.37258 9.37258 4 16 4C22.6274 4 28 9.37258 28 16Z" fill="black"/>
</svg>
