<svg width="32" height="32" viewBox="0 0 32 32" fill="none" xmlns="http://www.w3.org/2000/svg">
<path d="M25.8795 11.2259C26.1463 11.6179 26.3587 12.0617 26.5166 12.5572H29.1057C28.9642 11.7404 28.6919 10.9972 28.289 10.3274C27.886 9.65223 27.3769 9.0696 26.7616 8.57954C26.1518 8.08949 25.4548 7.71105 24.6707 7.44425C23.8921 7.17744 23.0508 7.04403 22.1469 7.04403C21.0634 7.04403 20.0642 7.24278 19.1494 7.64027C18.2401 8.03231 17.4478 8.60133 16.7726 9.3473C16.1029 10.0878 15.5829 10.989 15.2126 12.0508C14.8424 13.1126 14.6572 14.3105 14.6572 15.6445C14.6572 17.4087 14.9758 18.9334 15.6128 20.2184C16.2499 21.498 17.1375 22.4863 18.2755 23.1832C19.4189 23.8802 20.7475 24.2287 22.2613 24.2287C23.6117 24.2287 24.8096 23.9483 25.855 23.3874C26.9059 22.8266 27.7281 22.0316 28.3216 21.0025C28.9206 19.9679 29.2201 18.7482 29.2201 17.3434V15.4403H22.6451V17.5231H26.7768C26.7608 18.392 26.5733 19.1516 26.2144 19.8018C25.8441 20.477 25.3187 20.9998 24.638 21.37C23.9629 21.7403 23.1706 21.9254 22.2613 21.9254C21.2812 21.9254 20.4072 21.6831 19.6395 21.1985C18.8717 20.7139 18.2673 20.0033 17.8263 19.0668C17.3852 18.1302 17.1647 16.984 17.1647 15.6282C17.1647 14.2778 17.3825 13.1371 17.8181 12.206C18.2591 11.2694 18.8581 10.5588 19.615 10.0742C20.3718 9.58961 21.2213 9.3473 22.1633 9.3473C22.7187 9.3473 23.2278 9.42081 23.6906 9.56783C24.1589 9.71484 24.5754 9.92992 24.9402 10.2131C25.3051 10.4908 25.6182 10.8284 25.8795 11.2259Z" fill="black"/>
<path fill-rule="evenodd" clip-rule="evenodd" d="M4.55021 23.8366C5.19273 24.1307 5.91148 24.2777 6.70646 24.2777C7.39798 24.2777 7.9915 24.177 8.487 23.9755C8.9825 23.774 9.38816 23.5208 9.70397 23.2159C10.0198 22.911 10.2566 22.6006 10.4146 22.2848H10.5126V24H12.8975V15.669C12.8975 14.7543 12.7396 14.011 12.4238 13.4393C12.108 12.8621 11.7023 12.4183 11.2068 12.108C10.7168 11.7976 10.1886 11.5852 9.6223 11.4709C9.06146 11.3511 8.53056 11.2912 8.02961 11.2912C7.27275 11.2912 6.55128 11.4001 5.8652 11.6179C5.17912 11.8303 4.57199 12.1733 4.04382 12.647C3.52109 13.1153 3.1236 13.7306 2.85135 14.4929L5.14645 15.0156C5.32613 14.5746 5.65012 14.1744 6.11839 13.815C6.59211 13.4502 7.24008 13.2678 8.06228 13.2678C8.85182 13.2678 9.44533 13.4638 9.84282 13.8558C10.2458 14.2479 10.4472 14.8005 10.4472 15.5138V15.571C10.4472 15.8651 10.341 16.0774 10.1287 16.2081C9.91633 16.3388 9.57601 16.4341 9.10774 16.494L7.27819 16.7063C6.68468 16.7771 6.10206 16.8806 5.53032 17.0167C4.95859 17.1528 4.44131 17.3543 3.97848 17.6211C3.51565 17.8879 3.1481 18.25 2.87585 18.7074C2.6036 19.1648 2.46747 19.7474 2.46747 20.4553C2.46747 21.2775 2.6526 21.9717 3.02287 22.538C3.39858 23.1043 3.90769 23.5372 4.55021 23.8366ZM8.96889 21.9173C8.48972 22.1841 7.91254 22.3175 7.23735 22.3175C6.54583 22.3175 5.97682 22.165 5.53032 21.8601C5.08383 21.5497 4.86058 21.0923 4.86058 20.4879C4.86058 20.0523 4.97493 19.7038 5.20362 19.4425C5.43776 19.1757 5.74813 18.9715 6.13473 18.8299C6.52677 18.6883 6.95966 18.5876 7.43338 18.5277C7.63485 18.5005 7.88532 18.4678 8.1848 18.4297C8.48428 18.3861 8.79192 18.3398 9.10774 18.2908C9.42355 18.2364 9.70397 18.1738 9.949 18.103C10.1995 18.0268 10.3683 17.9451 10.4554 17.858V19.4751C10.4554 19.9706 10.3274 20.4362 10.0715 20.8718C9.82104 21.302 9.4535 21.6504 8.96889 21.9173Z" fill="black"/>
</svg>
