<svg width="32" height="32" viewBox="0 0 32 32" fill="none" xmlns="http://www.w3.org/2000/svg">
<path d="M11 12C10.4477 12 10 12.4477 10 13C10 13.5523 10.4477 14 11 14H21C21.5523 14 22 13.5523 22 13C22 12.4477 21.5523 12 21 12H11Z" fill="black"/>
<path d="M11 16C10.4477 16 10 16.4477 10 17C10 17.5523 10.4477 18 11 18H21C21.5523 18 22 17.5523 22 17C22 16.4477 21.5523 16 21 16H11Z" fill="black"/>
<path d="M10 21C10 20.4477 10.4477 20 11 20H15C15.5523 20 16 20.4477 16 21C16 21.5523 15.5523 22 15 22H11C10.4477 22 10 21.5523 10 21Z" fill="black"/>
<path fill-rule="evenodd" clip-rule="evenodd" d="M8 2C6.89543 2 6 2.89543 6 4V28C6 29.1046 6.89543 30 8 30H24C25.1046 30 26 29.1046 26 28V8.82843C26 8.29799 25.7893 7.78929 25.4142 7.41421L20.5858 2.58579C20.2107 2.21071 19.702 2 19.1716 2H8ZM18 4H8V28H24V10H19C18.4477 10 18 9.55228 18 9V4ZM20 4.82843V8H23.1716L20 4.82843Z" fill="black"/>
</svg>
