<svg width="32" height="32" viewBox="0 0 32 32" fill="none" xmlns="http://www.w3.org/2000/svg">
<path d="M20.2929 3.29289C20.6834 2.90237 21.3166 2.90237 21.7071 3.29289L24 5.58579L26.2929 3.29289C26.6834 2.90237 27.3166 2.90237 27.7071 3.29289C28.0976 3.68342 28.0976 4.31658 27.7071 4.70711L25.4142 7L27.7071 9.29289C28.0976 9.68342 28.0976 10.3166 27.7071 10.7071C27.3166 11.0976 26.6834 11.0976 26.2929 10.7071L24 8.41421L21.7071 10.7071C21.3166 11.0976 20.6834 11.0976 20.2929 10.7071C19.9024 10.3166 19.9024 9.68342 20.2929 9.29289L22.5858 7L20.2929 4.70711C19.9024 4.31658 19.9024 3.68342 20.2929 3.29289Z" fill="black"/>
<path d="M17 7C17 6.30503 17.1013 5.63371 17.2899 5H5.00103C4.62703 5 4.28403 5.208 4.11203 5.541C3.94103 5.873 3.96802 6.273 4.18502 6.578L11.875 17.43V26C11.875 26.335 12.043 26.648 12.322 26.833C12.489 26.944 12.682 27 12.875 27H12.877C13.009 27 13.142 26.974 13.267 26.921L18.517 24.699C18.887 24.542 19.127 24.18 19.127 23.778V17.43L21.8061 13.6493C21.1556 13.4348 20.5473 13.1275 19.9969 12.7431L17.311 16.533C17.19 16.702 17.126 16.904 17.126 17.111V23.115L13.876 24.49V17.111C13.876 16.904 13.811 16.702 13.691 16.533L6.93502 7H17Z" fill="black"/>
</svg>
