<svg width="32" height="32" viewBox="0 0 32 32" fill="none" xmlns="http://www.w3.org/2000/svg">
<path d="M17.9806 13.1961C18.0889 12.6545 17.7377 12.1277 17.1961 12.0194C16.6546 11.9111 16.1277 12.2623 16.0194 12.8038L14.0194 22.8038C13.9111 23.3454 14.2623 23.8722 14.8039 23.9805C15.3454 24.0888 15.8723 23.7376 15.9806 23.1961L17.9806 13.1961Z" fill="black"/>
<path d="M12.5547 14.1679C13.0142 14.4743 13.1384 15.0951 12.8321 15.5547L11.2019 18L12.8321 20.4453C13.1384 20.9048 13.0142 21.5257 12.5547 21.832C12.0952 22.1384 11.4743 22.0142 11.1679 21.5547L9.16795 18.5547C8.94402 18.2188 8.94402 17.7812 9.16795 17.4453L11.1679 14.4453C11.4743 13.9857 12.0952 13.8616 12.5547 14.1679Z" fill="black"/>
<path d="M19.1679 20.4453C18.8616 20.9048 18.9858 21.5257 19.4453 21.832C19.9048 22.1384 20.5257 22.0142 20.832 21.5547L22.8321 18.5547C23.056 18.2188 23.056 17.7812 22.8321 17.4453L20.8321 14.4453C20.5257 13.9857 19.9048 13.8616 19.4453 14.1679C18.9858 14.4743 18.8616 15.0951 19.1679 15.5547L20.7982 18L19.1679 20.4453Z" fill="black"/>
<path fill-rule="evenodd" clip-rule="evenodd" d="M8 2C6.89543 2 6 2.89543 6 4V28C6 29.1046 6.89543 30 8 30H24C25.1046 30 26 29.1046 26 28V8.82843C26 8.29799 25.7893 7.78929 25.4142 7.41421L20.5858 2.58579C20.2107 2.21071 19.702 2 19.1716 2H8ZM18 4H8V28H24V10H18V4ZM20 4.82843V8H23.1716L20 4.82843Z" fill="black"/>
</svg>
