<svg width="32" height="32" viewBox="0 0 32 32" fill="none" xmlns="http://www.w3.org/2000/svg">
<path fill-rule="evenodd" clip-rule="evenodd" d="M17.0217 2.00024C17.5141 2.01093 17.9254 2.37851 17.9911 2.86659L20.767 23.4878L22.5265 15.9937C22.6326 15.5417 23.0358 15.2222 23.5 15.2222H27C27.5523 15.2222 28 15.6699 28 16.2222C28 16.7745 27.5523 17.2222 27 17.2222H24.2924L21.4735 29.2286C21.3633 29.6982 20.9335 30.0222 20.4516 29.9988C19.9698 29.9755 19.5733 29.6115 19.5089 29.1334L16.8599 9.45459L13.9843 25.5096C13.8986 25.9882 13.4811 26.3358 12.9949 26.3333C12.5087 26.3308 12.0947 25.979 12.0139 25.4995L10.0864 14.063L8.9218 16.8321C8.76576 17.2031 8.4025 17.4444 8 17.4444H5C4.44772 17.4444 4 16.9967 4 16.4444C4 15.8922 4.44772 15.4444 5 15.4444H7.33572L9.5782 10.1123C9.75068 9.70221 10.1734 9.45537 10.6153 9.50667C11.0573 9.55798 11.4122 9.89509 11.4861 10.3338L13.0299 19.494L16.0157 2.8237C16.1025 2.33893 16.5293 1.98955 17.0217 2.00024Z" fill="black"/>
</svg>
