<svg width="32" height="32" viewBox="0 0 32 32" fill="none" xmlns="http://www.w3.org/2000/svg">
<path d="M11 15C12.1046 15 13 14.1046 13 13C13 11.8954 12.1046 11 11 11C9.89543 11 9 11.8954 9 13C9 14.1046 9.89543 15 11 15Z" fill="black"/>
<path d="M23 13C23 14.1046 22.1046 15 21 15C19.8954 15 19 14.1046 19 13C19 11.8954 19.8954 11 21 11C22.1046 11 23 11.8954 23 13Z" fill="black"/>
<path fill-rule="evenodd" clip-rule="evenodd" d="M30 16C30 23.732 23.732 30 16 30C8.26801 30 2 23.732 2 16C2 8.26801 8.26801 2 16 2C23.732 2 30 8.26801 30 16ZM28 16C28 22.6274 22.6274 28 16 28C9.37258 28 4 22.6274 4 16C4 9.37258 9.37258 4 16 4C22.6274 4 28 9.37258 28 16Z" fill="black"/>
<rect x="8" y="19" width="16" height="4" rx="2" stroke="black" stroke-width="2"/>
<rect x="11" y="20" width="2" height="2" fill="black"/>
<rect x="15" y="20" width="2" height="2" fill="black"/>
<rect x="19" y="20" width="2" height="2" fill="black"/>
</svg>
