<svg width="32" height="32" viewBox="0 0 32 32" fill="none" xmlns="http://www.w3.org/2000/svg">
<g id="AisFileSlide">
<g id="Union">
<path d="M15 19L17 17L15 15V19Z" fill="black"/>
<path fill-rule="evenodd" clip-rule="evenodd" d="M22 14C22 12.8954 21.1046 12 20 12H12C10.8954 12 10 12.8954 10 14V20C10 21.1046 10.8954 22 12 22H20C21.1046 22 22 21.1046 22 20V14ZM12 14H20V20H12V14Z" fill="black"/>
<path fill-rule="evenodd" clip-rule="evenodd" d="M8 2H20.414L26 7.586V28C26 29.103 25.103 30 24 30H8C6.897 30 6 29.103 6 28V4C6 2.897 6.897 2 8 2ZM23.586 8L20 4.414V8H23.586ZM8 4V28H24V10H18V4H8Z" fill="black"/>
</g>
</g>
</svg>
