<svg width="32" height="32" viewBox="0 0 32 32" fill="none" xmlns="http://www.w3.org/2000/svg">
<path d="M17 7C17 6.30503 17.1013 5.63371 17.2899 5H5.00103C4.62703 5 4.28403 5.208 4.11203 5.541C3.94103 5.873 3.96802 6.273 4.18502 6.578L11.875 17.43V26C11.875 26.335 12.043 26.648 12.322 26.833C12.489 26.944 12.682 27 12.875 27H12.877C13.009 27 13.142 26.974 13.267 26.921L18.517 24.699C18.887 24.542 19.127 24.18 19.127 23.778V17.43L21.8061 13.6493C21.1556 13.4348 20.5473 13.1275 19.9969 12.7431L17.311 16.533C17.19 16.702 17.126 16.904 17.126 17.111V23.115L13.876 24.49V17.111C13.876 16.904 13.811 16.702 13.691 16.533L6.93502 7H17Z" fill="black"/>
<path d="M23.5111 3.27653C23.6242 2.74983 24.3758 2.74983 24.4889 3.27653L25.1696 6.44654C25.2109 6.63888 25.3611 6.78912 25.5535 6.83042L28.7235 7.51114C29.2502 7.62425 29.2502 8.37575 28.7235 8.48886L25.5535 9.16958C25.3611 9.21088 25.2109 9.36112 25.1696 9.55346L24.4889 12.7235C24.3758 13.2502 23.6242 13.2502 23.5111 12.7235L22.8304 9.55346C22.7891 9.36112 22.6389 9.21088 22.4465 9.16958L19.2765 8.48886C18.7498 8.37575 18.7498 7.62425 19.2765 7.51114L22.4465 6.83042C22.6389 6.78912 22.7891 6.63888 22.8304 6.44654L23.5111 3.27653Z" fill="black"/>
</svg>
