<svg width="32" height="32" viewBox="0 0 32 32" fill="none" xmlns="http://www.w3.org/2000/svg">
<circle cx="11" cy="13" r="2" fill="black"/>
<circle cx="21" cy="13" r="2" fill="black"/>
<path fill-rule="evenodd" clip-rule="evenodd" d="M23.6713 24.5052C24.3996 23.8578 25.4885 23.8295 26.2494 24.4383L28 25.8388V16C28 9.37258 22.6274 4 16 4C9.37258 4 4 9.37258 4 16V25.8388L5.75061 24.4383C6.51153 23.8295 7.60041 23.8578 8.32873 24.5052L11.5 27.3241L14.6713 24.5052C15.429 23.8316 16.571 23.8316 17.3287 24.5052L20.5 27.3241L23.6713 24.5052ZM25 26L28.3753 28.7002C29.0301 29.2241 30 28.7579 30 27.9194V16C30 8.26801 23.732 2 16 2C8.26801 2 2 8.26801 2 16V27.9194C2 28.7579 2.96993 29.2241 3.6247 28.7002L7 26L10.8356 29.4095C11.2145 29.7462 11.7855 29.7462 12.1644 29.4095L16 26L19.8356 29.4095C20.2145 29.7462 20.7855 29.7462 21.1644 29.4095L25 26Z" fill="black"/>
</svg>
