<svg width="32" height="32" viewBox="0 0 32 32" fill="none" xmlns="http://www.w3.org/2000/svg">
<rect x="4" y="3" width="18" height="26" rx="1" stroke="black" stroke-width="2"/>
<path d="M12.3464 5.90193C12.6687 5.45722 13.3313 5.45722 13.6536 5.90193V5.90193C13.9012 6.24363 14.3703 6.33693 14.7298 6.116V6.116C15.1977 5.82847 15.8099 6.08206 15.9375 6.61624V6.61624C16.0355 7.02669 16.4331 7.29238 16.8498 7.22585V7.22585C17.3922 7.13927 17.8607 7.60785 17.7741 8.15018V8.15018C17.7076 8.56689 17.9733 8.96452 18.3838 9.06252V9.06252C18.9179 9.19008 19.1715 9.8023 18.884 10.2702V10.2702C18.6631 10.6297 18.7564 11.0988 19.0981 11.3464V11.3464C19.5428 11.6687 19.5428 12.3313 19.0981 12.6536V12.6536C18.7564 12.9012 18.6631 13.3703 18.884 13.7298V13.7298C19.1715 14.1977 18.9179 14.8099 18.3838 14.9375V14.9375C17.9733 15.0355 17.7076 15.4331 17.7741 15.8498V15.8498C17.8607 16.3922 17.3922 16.8607 16.8498 16.7741V16.7741C16.4331 16.7076 16.0355 16.9733 15.9375 17.3838V17.3838C15.8099 17.9179 15.1977 18.1715 14.7298 17.884V17.884C14.3703 17.6631 13.9012 17.7564 13.6536 18.0981V18.0981C13.3313 18.5428 12.6687 18.5428 12.3464 18.0981V18.0981C12.0988 17.7564 11.6297 17.6631 11.2702 17.884V17.884C10.8023 18.1715 10.1901 17.9179 10.0625 17.3838V17.3838C9.96452 16.9733 9.56689 16.7076 9.15018 16.7741V16.7741C8.60785 16.8607 8.13927 16.3922 8.22585 15.8498V15.8498C8.29238 15.4331 8.02669 15.0355 7.61624 14.9375V14.9375C7.08206 14.8099 6.82847 14.1977 7.116 13.7298V13.7298C7.33693 13.3703 7.24363 12.9012 6.90193 12.6536V12.6536C6.45722 12.3313 6.45722 11.6687 6.90193 11.3464V11.3464C7.24363 11.0988 7.33693 10.6297 7.116 10.2702V10.2702C6.82847 9.8023 7.08206 9.19008 7.61624 9.06252V9.06252C8.02669 8.96452 8.29238 8.56689 8.22585 8.15018V8.15018C8.13927 7.60785 8.60785 7.13927 9.15018 7.22585V7.22585C9.56689 7.29238 9.96452 7.02669 10.0625 6.61624V6.61624C10.1901 6.08206 10.8023 5.82847 11.2702 6.116V6.116C11.6297 6.33693 12.0988 6.24363 12.3464 5.90193V5.90193Z" fill="black"/>
<path d="M10 14C10 13.4477 10.4477 13 11 13H15C15.5523 13 16 13.4477 16 14V24.5858C16 25.4767 14.9229 25.9229 14.2929 25.2929L13.7071 24.7071C13.3166 24.3166 12.6834 24.3166 12.2929 24.7071L11.7071 25.2929C11.0771 25.9229 10 25.4767 10 24.5858V14Z" fill="black"/>
</svg>
