<svg width="32" height="32" viewBox="0 0 32 32" fill="none" xmlns="http://www.w3.org/2000/svg">
<path d="M15.8452 9.35566C20.1514 9.35566 23.2221 5.77279 22.9969 2.02193C20.5189 1.82359 17.083 2.94477 15.8452 6.44363C14.6073 2.94477 11.1703 1.82476 8.69345 2.0231C8.46828 5.77279 11.539 9.35566 15.8452 9.35566ZM28.681 17.4781C28.5188 13.4962 25.3898 10.0557 21.0392 10.0557C19.0675 10.0557 17.2639 10.7965 15.8452 12.0903C14.4253 10.7953 12.6216 10.0557 10.6511 10.0557C6.30059 10.0557 3.1704 13.4962 3.0094 17.4781C2.7294 24.3883 8.74362 30 15.8452 30C22.9467 30 28.961 24.3883 28.681 17.4781Z" fill="black"/>
</svg>
