<svg width="32" height="32" viewBox="0 0 32 32" fill="none" xmlns="http://www.w3.org/2000/svg">
<path d="M8 14C8 13.4477 8.44772 13 9 13H13C13.5523 13 14 13.4477 14 14C14 14.5523 13.5523 15 13 15H9C8.44772 15 8 14.5523 8 14Z" fill="black"/>
<path d="M19 13C18.4477 13 18 13.4477 18 14C18 14.5523 18.4477 15 19 15H23C23.5523 15 24 14.5523 24 14C24 13.4477 23.5523 13 23 13H19Z" fill="black"/>
<path d="M25.6574 19.1558C26.0298 18.0335 25.09 17 23.9074 17H8.45533C7.27278 17 6.33295 18.0335 6.70532 19.1558C8.02455 23.1323 11.7686 26 16.1814 26C20.5941 26 24.3382 23.1323 25.6574 19.1558Z" fill="black"/>
<path fill-rule="evenodd" clip-rule="evenodd" d="M16 30C23.732 30 30 23.732 30 16C30 8.26801 23.732 2 16 2C8.26801 2 2 8.26801 2 16C2 23.732 8.26801 30 16 30ZM16 28C22.6274 28 28 22.6274 28 16C28 9.37258 22.6274 4 16 4C9.37258 4 4 9.37258 4 16C4 22.6274 9.37258 28 16 28Z" fill="black"/>
</svg>
