<svg width="32" height="32" viewBox="0 0 32 32" fill="none" xmlns="http://www.w3.org/2000/svg">
<path d="M13 23C13 22.4477 13.4477 22 14 22H18C18.5523 22 19 22.4477 19 23C19 23.5523 18.5523 24 18 24H14C13.4477 24 13 23.5523 13 23Z" fill="black"/>
<path fill-rule="evenodd" clip-rule="evenodd" d="M10 10C7.23858 10 5 12.2386 5 15C5 17.7614 7.23858 20 10 20C12.7614 20 15 17.7614 15 15C15 12.2386 12.7614 10 10 10ZM11.9845 17.2498C11.9947 17.168 12 17.0846 12 17C12 15.8954 11.1046 15 10 15C8.89543 15 8 15.8954 8 17C8 17.0846 8.00526 17.168 8.01546 17.2498C7.39274 16.7001 7 15.8959 7 15C7 13.3431 8.34315 12 10 12C11.6569 12 13 13.3431 13 15C13 15.8959 12.6073 16.7001 11.9845 17.2498Z" fill="black"/>
<path fill-rule="evenodd" clip-rule="evenodd" d="M17 15C17 12.2386 19.2386 10 22 10C24.7614 10 27 12.2386 27 15C27 17.7614 24.7614 20 22 20C19.2386 20 17 17.7614 17 15ZM22 15C20.8954 15 20 15.8954 20 17C20 17.0846 20.0053 17.168 20.0155 17.2498C19.3927 16.7001 19 15.8959 19 15C19 13.3431 20.3431 12 22 12C23.6569 12 25 13.3431 25 15C25 15.8959 24.6073 16.7001 23.9845 17.2498C23.9947 17.168 24 17.0846 24 17C24 15.8954 23.1046 15 22 15Z" fill="black"/>
<path fill-rule="evenodd" clip-rule="evenodd" d="M16 30C23.732 30 30 23.732 30 16C30 8.26801 23.732 2 16 2C8.26801 2 2 8.26801 2 16C2 23.732 8.26801 30 16 30ZM16 28C22.6274 28 28 22.6274 28 16C28 9.37258 22.6274 4 16 4C9.37258 4 4 9.37258 4 16C4 22.6274 9.37258 28 16 28Z" fill="black"/>
</svg>
