<svg width="32" height="32" viewBox="0 0 32 32" fill="none" xmlns="http://www.w3.org/2000/svg">
<path d="M8 20V12H10.0645L12.129 14.9412L14.1935 12H16.2581V20H14.1935V15.4118L12.129 18.3529L10.0645 15.4118V20H8ZM20.9032 20L17.8065 16.1176H19.871V12H21.9355V16.1176H24L20.9032 20Z" fill="black"/>
<path fill-rule="evenodd" clip-rule="evenodd" d="M18 3H20V8H25V10H18V3Z" fill="black"/>
<path fill-rule="evenodd" clip-rule="evenodd" d="M8 4H19.1716L24 8.82843V10H26V8.82843C26 8.29799 25.7893 7.78929 25.4142 7.41421L20.5858 2.58579C20.2107 2.21071 19.702 2 19.1716 2H8C6.89543 2 6 2.89543 6 4V10H8V4ZM8 22H6V28C6 29.1046 6.89543 30 8 30H24C25.1046 30 26 29.1046 26 28V22H24V28H8V22Z" fill="black"/>
</svg>
