<svg width="32" height="32" viewBox="0 0 32 32" fill="none" xmlns="http://www.w3.org/2000/svg">
<path d="M11 15C12.1046 15 13 14.1046 13 13C13 11.8954 12.1046 11 11 11C9.89543 11 9 11.8954 9 13C9 14.1046 9.89543 15 11 15Z" fill="black"/>
<path d="M23 13C23 14.1046 22.1046 15 21 15C19.8954 15 19 14.1046 19 13C19 11.8954 19.8954 11 21 11C22.1046 11 23 11.8954 23 13Z" fill="black"/>
<path d="M8 19C7.44772 19 7 19.4477 7 20C7 20.5523 7.44772 21 8 21L8.00851 20.9998C8.05951 20.9979 8.12843 20.9954 8.50128 21.5547C8.51528 21.5757 8.53018 21.5984 8.54601 21.6224C8.83865 22.0675 9.45177 23 10.6667 23C11.8816 23 12.4947 22.0675 12.7873 21.6224C12.8031 21.5984 12.8181 21.5757 12.8321 21.5547C13.2049 20.9954 13.2738 20.9979 13.3248 20.9998L13.3333 21L13.3418 20.9998C13.3928 20.9979 13.4618 20.9954 13.8346 21.5547C13.8486 21.5757 13.8635 21.5984 13.8793 21.6224C14.172 22.0675 14.7851 23 16 23C17.2149 23 17.828 22.0675 18.1207 21.6224C18.1365 21.5984 18.1514 21.5757 18.1654 21.5547C18.5382 20.9954 18.6072 20.9979 18.6582 20.9998L18.6667 21L18.6752 20.9998C18.7262 20.9979 18.7951 20.9954 19.1679 21.5547C19.182 21.5757 19.1968 21.5984 19.2127 21.6224C19.5053 22.0675 20.1184 23 21.3333 23C22.5482 23 23.1613 22.0675 23.454 21.6224C23.4698 21.5984 23.4847 21.5757 23.4987 21.5547C23.8716 20.9954 23.9405 20.9979 23.9915 20.9998L24 21C24.5523 21 25 20.5523 25 20C25 19.4477 24.5523 19 24 19C22.7851 19 22.172 19.9325 21.8793 20.3776C21.8635 20.4016 21.8486 20.4243 21.8346 20.4453C21.4618 21.0046 21.3928 21.0021 21.3418 21.0002L21.3333 21L21.3248 21.0002C21.2738 21.0021 21.2049 21.0046 20.8321 20.4453C20.8181 20.4243 20.8032 20.4016 20.7873 20.3776C20.4947 19.9325 19.8816 19 18.6667 19C17.4518 19 16.8387 19.9325 16.546 20.3776C16.5302 20.4016 16.5153 20.4243 16.5013 20.4453C16.1284 21.0046 16.0595 21.0021 16.0085 21.0002L16 21L15.9915 21.0002C15.9405 21.0021 15.8716 21.0046 15.4987 20.4453C15.4847 20.4243 15.4698 20.4016 15.454 20.3776C15.1613 19.9325 14.5482 19 13.3333 19C12.1184 19 11.5053 19.9325 11.2127 20.3776C11.1968 20.4016 11.182 20.4243 11.1679 20.4453C10.7951 21.0046 10.7262 21.0021 10.6752 21.0002L10.6667 21L10.6582 21.0002C10.6072 21.0021 10.5382 21.0046 10.1654 20.4453C10.1515 20.4245 10.1367 20.402 10.121 20.3781C9.82839 19.9331 9.2149 19 8 19Z" fill="black"/>
<path fill-rule="evenodd" clip-rule="evenodd" d="M16 30C23.732 30 30 23.732 30 16C30 8.26801 23.732 2 16 2C8.26801 2 2 8.26801 2 16C2 23.732 8.26801 30 16 30ZM16 28C22.6274 28 28 22.6274 28 16C28 9.37258 22.6274 4 16 4C9.37258 4 4 9.37258 4 16C4 22.6274 9.37258 28 16 28Z" fill="black"/>
</svg>
