<svg width="32" height="32" viewBox="0 0 32 32" fill="none" xmlns="http://www.w3.org/2000/svg">
<path d="M11 23C11 22.4477 11.4477 22 12 22H20C20.5523 22 21 22.4477 21 23C21 23.5523 20.5523 24 20 24H12C11.4477 24 11 23.5523 11 23Z" fill="black"/>
<path fill-rule="evenodd" clip-rule="evenodd" d="M30 16C30 23.732 23.732 30 16 30C8.26801 30 2 23.732 2 16C2 8.26801 8.26801 2 16 2C23.732 2 30 8.26801 30 16ZM28 16C28 22.6274 22.6274 28 16 28C9.37258 28 4 22.6274 4 16C4 15.3186 4.0568 14.6504 4.16592 14H6V15C6 17.2091 7.79086 19 10 19H11C13.2091 19 15 17.2091 15 15V14H17V15C17 17.2091 18.7909 19 21 19H22C24.2091 19 26 17.2091 26 15V14H27.8341C27.9432 14.6504 28 15.3186 28 16ZM27.3172 12H25.4649C24.7733 10.8044 23.4806 10 22 10H21C19.5194 10 18.2267 10.8044 17.5351 12H14.4649C13.7733 10.8044 12.4806 10 11 10H10C8.51943 10 7.22675 10.8044 6.53513 12H4.68282C6.33017 7.33923 10.7751 4 16 4C21.2249 4 25.6698 7.33923 27.3172 12ZM11 12H10C8.89543 12 8 12.8954 8 14V15C8 16.1046 8.89543 17 10 17H11C12.1046 17 13 16.1046 13 15V14C13 12.8954 12.1046 12 11 12ZM21 12H22C23.1046 12 24 12.8954 24 14V15C24 16.1046 23.1046 17 22 17H21C19.8954 17 19 16.1046 19 15V14C19 12.8954 19.8954 12 21 12Z" fill="black"/>
</svg>
