<svg width="32" height="32" viewBox="0 0 32 32" fill="none" xmlns="http://www.w3.org/2000/svg">
<path fill-rule="evenodd" clip-rule="evenodd" d="M5 5C5 3.89543 5.89543 3 7 3H13C13.3643 3 13.7058 3.09739 14 3.26757C14.2942 3.09739 14.6357 3 15 3H21C21.3643 3 21.7058 3.09739 22 3.26757C22.2942 3.09739 22.6357 3 23 3H29C29.5523 3 30 3.44772 30 4C30 4.55228 29.5523 5 29 5H23V9H29C29.5523 9 30 9.44772 30 10C30 10.5523 29.5523 11 29 11H27V11.5241C26.3327 11.3516 25.6451 11.3576 25 11.5242V11H19V15L21.233 15C20.7019 15.7003 20.2196 16.3637 19.7867 17H15V21H17.622C17.377 21.6685 17.2039 22.3297 17.1035 23H11L11 27H17.3846C17.5952 27.6974 17.8906 28.3693 18.2659 29H11C10.6357 29 10.2942 28.9026 10 28.7324C9.70583 28.9026 9.36429 29 9 29H3C2.44772 29 2 28.5523 2 28C2 27.4477 2.44772 27 3 27L9 27L9 23H3C2.44772 23 2 22.5523 2 22C2 21.4477 2.44772 21 3 21H5V17H3C2.44772 17 2 16.5523 2 16C2 15.4477 2.44772 15 3 15H9V11L3 11C2.44772 11 2 10.5523 2 10C2 9.44771 2.44772 9 3 9H5V5ZM7 17V21H13V17H7ZM13 9H7V5H13V9ZM15 5H21V9H15V5ZM17 15H11L11 11L17 11V15Z" fill="black"/>
<path d="M28 22.3972V19.3972C29.875 20.8258 31 22.3972 31 24.3972C31 25.3787 30.7112 26.3384 30.1696 27.1569C29.628 27.9753 28.8575 28.6163 27.9542 29C27.6486 27.6415 26.9721 26.3943 26 25.3972C25.0279 26.3943 24.3514 27.6415 24.0458 29C23.1425 28.6163 22.372 27.9753 21.8304 27.1569C21.2888 26.3384 21 25.3787 21 24.3972C21 22.3972 22 20.3972 26 15.3972V18.3972C26 20.8972 27 22.3972 28 22.3972Z" fill="black"/>
</svg>
