<svg width="32" height="32" viewBox="0 0 32 32" fill="none" xmlns="http://www.w3.org/2000/svg">
<path fill-rule="evenodd" clip-rule="evenodd" d="M16 4H7V28H14V30H7C5.89543 30 5 29.1046 5 28V4C5 2.89543 5.89543 2 7 2H17.6279C18.184 2 18.715 2.23156 19.0934 2.6391L24.4656 8.42448C24.8091 8.79441 25 9.28056 25 9.78538V12H23V11H17C16.4477 11 16 10.5523 16 10V4ZM18 4.40077V9H22.2707L18 4.40077Z" fill="black"/>
<path fill-rule="evenodd" clip-rule="evenodd" d="M27 19C27 20.2267 26.6318 21.3675 26 22.3178V29C26 29.3466 25.8205 29.6684 25.5257 29.8507C25.2309 30.0329 24.8628 30.0494 24.5528 29.8944L21 28.118L17.4472 29.8944C17.1372 30.0494 16.7691 30.0329 16.4743 29.8507C16.1795 29.6684 16 29.3466 16 29V22.3178C15.3682 21.3675 15 20.2267 15 19C15 15.6863 17.6863 13 21 13C24.3137 13 27 15.6863 27 19ZM25 19C25 21.2091 23.2091 23 21 23C18.7909 23 17 21.2091 17 19C17 16.7909 18.7909 15 21 15C23.2091 15 25 16.7909 25 19ZM21 25C22.0929 25 23.1175 24.7078 24 24.1973V27.382L21.4472 26.1056C21.1657 25.9648 20.8343 25.9648 20.5528 26.1056L18 27.382V24.1973C18.8825 24.7078 19.9071 25 21 25Z" fill="black"/>
</svg>
