<svg width="32" height="32" viewBox="0 0 32 32" fill="none" xmlns="http://www.w3.org/2000/svg">
<g clip-path="url(#clip0_62_58)">
<path d="M1.00124 15.5487C1.00124 7.18625 7.55124 1 16.0012 1C24.4512 1 31 7.1875 31 15.5487C31 23.91 24.45 30.0963 16 30.0963C14.4875 30.0963 13.025 29.8962 11.6625 29.5212C11.3966 29.4497 11.1141 29.4717 10.8625 29.5838L7.87499 30.8962C7.69489 30.9764 7.49782 31.011 7.3012 30.9969C7.10458 30.9828 6.91445 30.9205 6.74764 30.8154C6.58082 30.7104 6.44245 30.5659 6.34475 30.3947C6.24705 30.2234 6.19304 30.0308 6.18749 29.8337L6.09999 27.1588C6.09321 26.9976 6.05434 26.8394 5.98565 26.6934C5.91697 26.5475 5.81985 26.4167 5.69999 26.3088C4.19701 24.9525 3.00058 23.2913 2.19054 21.4361C1.3805 19.5808 0.975475 17.5742 1.00249 15.55L1.00124 15.5487ZM11.4012 12.8113L7.00124 19.8112C6.56374 20.4737 7.40124 21.235 8.02624 20.7487L12.7637 17.1612C13.0887 16.9113 13.5137 16.9113 13.8512 17.1612L17.3512 19.7863C18.4012 20.5737 19.9012 20.2862 20.6012 19.1862L25.0012 12.1863C25.4387 11.5238 24.6012 10.7738 23.9762 11.2488L19.2387 14.8363C18.9262 15.0863 18.4887 15.0863 18.1637 14.8363L14.6637 12.2113C14.4148 12.0232 14.1296 11.889 13.826 11.8171C13.5225 11.7452 13.2073 11.7372 12.9005 11.7937C12.5937 11.8501 12.302 11.9697 12.0439 12.1449C11.7858 12.32 11.567 12.547 11.4012 12.8113Z" fill="black"/>
</g>
<defs>
<clipPath id="clip0_62_58">
<rect width="30" height="30" fill="white" transform="translate(1 1)"/>
</clipPath>
</defs>
</svg>
