<svg width="32" height="32" viewBox="0 0 32 32" fill="none" xmlns="http://www.w3.org/2000/svg">
<path d="M26.3413 10.4C26.3413 10.4 24.449 10.2763 24.3767 11.9972V12.0438C24.449 13.7658 26.3413 13.6655 26.3413 13.6655C27.2012 13.6655 27.6678 13.3972 27.8883 12.9048H28.8707L29.1413 11.1607H27.865C27.6433 10.6707 27.2 10.3755 26.3413 10.4ZM20.9863 12.1687C20.8148 12.3903 19.9807 12.3903 19.9807 12.3903C19.1442 12.4393 17.8923 12.4137 17.9168 13.151C17.9402 13.9362 18.9482 13.8393 19.4393 13.8148C19.9807 13.7903 20.4462 13.6422 20.816 13.1755C21.159 12.7823 21.012 12.1932 20.9863 12.1687ZM5.8325 2L4.65417 9.41767H5.16983C5.1465 9.196 5.1465 8.286 5.808 7.698C5.808 7.698 6.54533 6.96067 8.70717 7.13217C8.70717 7.13217 10.9168 7.30483 10.9168 8.90083H9.39317C9.39317 8.90083 9.34417 8.01767 7.96983 8.06667C7.96983 8.06667 6.56983 8.04217 6.69117 9.39317H10.9157V10.0815C11.0393 9.88317 11.359 9.56467 12.1687 9.34417C12.1687 9.34417 15.6313 8.58117 16 11.0638V14.551H14.4787V11.702C14.257 10.155 12.5117 10.4245 12.5117 10.4245C11.3322 10.5225 10.988 11.2097 10.9145 11.702V14.6H9.39317V10.4735H6.71567V14.6H5.19317V10.4735H4.50483L2 26.1687L26.1687 30L28.6747 14.1077C28.159 14.4763 27.2992 14.747 25.9237 14.6735C25.359 14.649 24.9168 14.5743 24.5482 14.4285C23.8598 14.1835 22.7562 13.4695 22.7562 12.094V11.9225C22.7305 10.5692 23.861 9.85867 24.5482 9.58917C24.9168 9.44217 25.359 9.39083 25.9248 9.34417C27.9875 9.2205 28.8707 9.90767 29.2393 10.498L29.9778 5.78117L5.8325 2ZM21.0867 14.5988L21.0365 14.0097V13.9863C20.4228 14.747 18.9493 14.6968 18.9493 14.6968C16.1983 14.747 16.2473 13.249 16.2473 13.249C16.0257 11.6763 18.0405 11.7008 19.71 11.604C21.3807 11.5048 20.9875 10.8422 20.9875 10.8422C20.914 10.3008 19.7112 10.2518 19.7112 10.2518C18.0405 10.1293 18.016 11.135 18.016 11.135H16.4433C16.4433 11.135 16.4433 9.80967 18.0895 9.441C18.1128 9.441 19.0718 9.147 20.767 9.441C20.767 9.441 22.657 9.686 22.5357 11.5037L22.5847 14.6233H21.0867V14.5988Z" fill="black"/>
</svg>
