<svg width="32" height="32" viewBox="0 0 32 32" fill="none" xmlns="http://www.w3.org/2000/svg">
<path d="M12.875 27C12.682 27 12.489 26.944 12.322 26.833C12.043 26.648 11.875 26.335 11.875 26V17.43L4.18502 6.578C3.96802 6.273 3.94103 5.873 4.11203 5.541C4.28403 5.208 4.62703 5 5.00103 5H26.001C26.375 5 26.718 5.208 26.89 5.541C27.061 5.873 27.034 6.273 26.817 6.578L19.127 17.43V23.778C19.127 24.18 18.887 24.542 18.517 24.699L13.267 26.921C13.142 26.974 13.009 27 12.877 27H12.875ZM6.93502 7L13.691 16.533C13.811 16.702 13.876 16.904 13.876 17.111V24.49L17.126 23.115V17.111C17.126 16.904 17.19 16.702 17.311 16.533L24.067 7H6.93603H6.93502Z" fill="black"/>
</svg>
