<svg width="32" height="32" viewBox="0 0 32 32" fill="none" xmlns="http://www.w3.org/2000/svg">
<path fill-rule="evenodd" clip-rule="evenodd" d="M30 16C30 23.732 23.732 30 16 30C8.26801 30 2 23.732 2 16C2 8.26801 8.26801 2 16 2C23.732 2 30 8.26801 30 16ZM28 16C28 22.6274 22.6274 28 16 28C9.37258 28 4 22.6274 4 16C4 9.37258 9.37258 4 16 4C22.6274 4 28 9.37258 28 16Z" fill="black"/>
<rect x="17.5" y="12.5" width="7" height="1" rx="0.5" stroke="black"/>
<rect x="10" y="12" width="2" height="2" rx="1" stroke="black" stroke-width="2"/>
<path fill-rule="evenodd" clip-rule="evenodd" d="M11.7071 20.2426C14.0502 22.5857 17.8492 22.5857 20.1924 20.2426C20.5829 19.8521 21.2161 19.8521 21.6066 20.2426C21.9971 20.6331 21.9971 21.2663 21.6066 21.6568C18.4824 24.781 13.4171 24.781 10.2929 21.6568C9.90236 21.2663 9.90236 20.6331 10.2929 20.2426C10.6834 19.8521 11.3166 19.8521 11.7071 20.2426Z" fill="black"/>
</svg>
