<svg width="32" height="32" viewBox="0 0 32 32" fill="none" xmlns="http://www.w3.org/2000/svg">
<path d="M13 23C13 22.4477 13.4477 22 14 22H18C18.5523 22 19 22.4477 19 23C19 23.5523 18.5523 24 18 24H14C13.4477 24 13 23.5523 13 23Z" fill="black"/>
<path fill-rule="evenodd" clip-rule="evenodd" d="M10 10C7.23858 10 5 12.2386 5 15C5 17.7614 7.23858 20 10 20C12.7614 20 15 17.7614 15 15C15 12.2386 12.7614 10 10 10ZM7 15C7 16.6569 8.34315 18 10 18C11.6569 18 13 16.6569 13 15C13 14.1041 12.6073 13.2999 11.9845 12.7502C11.9947 12.832 12 12.9154 12 13C12 14.1046 11.1046 15 10 15C8.89543 15 8 14.1046 8 13C8 12.9154 8.00526 12.832 8.01546 12.7502C7.39274 13.2999 7 14.1041 7 15Z" fill="black"/>
<path fill-rule="evenodd" clip-rule="evenodd" d="M17 15C17 12.2386 19.2386 10 22 10C24.7614 10 27 12.2386 27 15C27 17.7614 24.7614 20 22 20C19.2386 20 17 17.7614 17 15ZM20.0155 12.7502C20.0053 12.832 20 12.9154 20 13C20 14.1046 20.8954 15 22 15C23.1046 15 24 14.1046 24 13C24 12.9154 23.9947 12.832 23.9845 12.7502C24.6073 13.2999 25 14.1041 25 15C25 16.6569 23.6569 18 22 18C20.3431 18 19 16.6569 19 15C19 14.1041 19.3927 13.2999 20.0155 12.7502Z" fill="black"/>
<path fill-rule="evenodd" clip-rule="evenodd" d="M16 30C23.732 30 30 23.732 30 16C30 8.26801 23.732 2 16 2C8.26801 2 2 8.26801 2 16C2 23.732 8.26801 30 16 30ZM16 28C22.6274 28 28 22.6274 28 16C28 9.37258 22.6274 4 16 4C9.37258 4 4 9.37258 4 16C4 22.6274 9.37258 28 16 28Z" fill="black"/>
</svg>
