<svg width="32" height="32" viewBox="0 0 32 32" fill="none" xmlns="http://www.w3.org/2000/svg">
<g id="AisFilePdf">
<path id="Subtract" fill-rule="evenodd" clip-rule="evenodd" d="M20.414 2H8C6.897 2 6 2.897 6 4V19.423H8V4H19.586L24 8.414V15.001H26V7.586L20.414 2ZM12.175 17.128L12.101 17.269C11.606 18.24 11.123 19.133 10.664 19.925L10.022 20.267L9.93866 20.3116C9.67928 20.4503 9.36491 20.6183 9.25501 20.685C7.49401 21.737 6.36402 22.926 6.15702 23.946C6.04102 24.505 6.24102 25.026 6.69602 25.292L7.155 25.521C7.418 25.652 7.71001 25.721 8.00101 25.721C9.35201 25.721 10.751 24.306 12.664 20.996C14.671 20.353 16.924 19.818 18.903 19.512C20.576 20.427 22.545 21.035 23.851 21.035C24.124 21.035 24.356 21.008 24.544 20.955C24.906 20.865 25.213 20.653 25.409 20.357C25.699 19.914 25.804 19.317 25.712 18.643C25.671 18.271 25.383 17.956 25.293 17.867C24.823 17.403 23.907 17.169 22.493 17.15H22.327C21.549 17.15 20.623 17.216 19.639 17.344C19.234 17.106 18.826 16.848 18.508 16.553C17.552 15.657 16.744 14.418 16.223 13.053L16.286 12.783C16.348 12.431 16.884 9.316 16.72 8.14C16.695 7.949 16.675 7.869 16.619 7.717L16.558 7.55099C16.278 6.89899 15.758 6.508 15.145 6.508L14.833 6.49899C14.051 6.49899 13.407 6.92899 13.232 7.56799C12.85 8.97199 13.207 10.965 13.87 13.52L13.759 13.787C13.2889 14.932 12.6992 16.0899 12.1805 17.1084L12.1804 17.1084L12.171 17.127L12.175 17.128ZM16.644 17.896C15.67 18.115 14.77 18.358 13.929 18.627C13.9641 18.5618 13.9992 18.4954 14.0345 18.4285L14.101 18.303C14.501 17.545 14.844 16.831 15.151 16.115C15.593 16.775 16.092 17.371 16.644 17.896ZM9 28H24V23.378H26V28C26 29.103 25.103 30 24 30H8C6.897 30 6 29.103 6 28H8H9Z" fill="black"/>
</g>
</svg>
