<svg width="32" height="32" viewBox="0 0 32 32" fill="none" xmlns="http://www.w3.org/2000/svg">
<path d="M11 15C12.1046 15 13 14.1046 13 13C13 11.8954 12.1046 11 11 11C9.89543 11 9 11.8954 9 13C9 14.1046 9.89543 15 11 15Z" fill="black"/>
<path d="M23 13C23 14.1046 22.1046 15 21 15C19.8954 15 19 14.1046 19 13C19 11.8954 19.8954 11 21 11C22.1046 11 23 11.8954 23 13Z" fill="black"/>
<path d="M20.1924 20.2426C17.8492 22.5857 14.0502 22.5857 11.7071 20.2426C11.3166 19.8521 10.6834 19.8521 10.2929 20.2426C9.90236 20.6331 9.90236 21.2663 10.2929 21.6568C13.4171 24.781 18.4824 24.781 21.6066 21.6568C21.9971 21.2663 21.9971 20.6331 21.6066 20.2426C21.2161 19.8521 20.5829 19.8521 20.1924 20.2426Z" fill="black"/>
<path fill-rule="evenodd" clip-rule="evenodd" d="M16 30C23.732 30 30 23.732 30 16C30 8.26801 23.732 2 16 2C8.26801 2 2 8.26801 2 16C2 23.732 8.26801 30 16 30ZM16 28C22.6274 28 28 22.6274 28 16C28 9.37258 22.6274 4 16 4C9.37258 4 4 9.37258 4 16C4 22.6274 9.37258 28 16 28Z" fill="black"/>
</svg>
