<svg width="32" height="32" viewBox="0 0 32 32" fill="none" xmlns="http://www.w3.org/2000/svg">
<path d="M20.7071 2.29289C20.3166 1.90237 19.6834 1.90237 19.2929 2.29289C18.9024 2.68342 18.9024 3.31658 19.2929 3.70711L24.5858 9H14.5C8.70101 9 4 13.701 4 19.5C4 25.299 8.70101 30 14.5 30H25.5C25.628 30 25.7555 29.9977 25.8825 29.9932C25.921 29.9977 25.9602 30 26 30C26.5523 30 27 29.5523 27 29C27 28.4477 26.5523 28 26 28V27.9855C25.8346 27.9951 25.6678 28 25.5 28H14.5C9.80558 28 6 24.1944 6 19.5C6 14.8056 9.80558 11 14.5 11H24.5858L19.2929 16.2929C18.9024 16.6834 18.9024 17.3166 19.2929 17.7071C19.6834 18.0976 20.3166 18.0976 20.7071 17.7071L27.7071 10.7071C28.0976 10.3166 28.0976 9.68342 27.7071 9.29289L20.7071 2.29289Z" fill="black"/>
</svg>
