<svg width="32" height="32" viewBox="0 0 32 32" fill="none" xmlns="http://www.w3.org/2000/svg">
<g id="AisFolders">
<g id="Vector">
<path d="M22 11H14.414L12.414 9H5C3.346 9 2 10.346 2 12V25C2 26.654 3.346 28 5 28H22C23.654 28 25 26.654 25 25V14C25 12.346 23.654 11 22 11ZM23 25C23 25.551 22.551 26 22 26H5C4.449 26 4 25.551 4 25V12C4 11.449 4.449 11 5 11H11.586L13.586 13H22C22.551 13 23 13.449 23 14V25Z" fill="black"/>
<path d="M27 6H18.414L16.414 4H9C7.346 4 6 5.346 6 7H8C8 6.449 8.449 6 9 6H15.586L17.586 8H27C27.551 8 28 8.449 28 9V19C28 19.551 27.551 20 27 20V22C28.654 22 30 20.654 30 19V9C30 7.346 28.654 6 27 6Z" fill="black"/>
</g>
</g>
</svg>
