<svg width="32" height="32" viewBox="0 0 32 32" fill="none" xmlns="http://www.w3.org/2000/svg">
<path fill-rule="evenodd" clip-rule="evenodd" d="M20.8281 12H11.1719C10.5247 12 10 12.5247 10 13.1719V22.8281C10 23.4753 10.5247 24 11.1719 24H20.8281C21.4753 24 22 23.4753 22 22.8281V13.1719C22 12.5247 21.4753 12 20.8281 12ZM17.4283 21.549V22.7223C17.619 22.8201 17.8446 22.8934 18.105 22.9423C18.3655 22.9912 18.6399 23.0156 18.9285 23.0156C19.2097 23.0156 19.4769 22.9887 19.73 22.935C19.9831 22.8812 20.205 22.7926 20.3957 22.6691C20.5865 22.5457 20.7375 22.3844 20.8487 22.1851C20.96 21.9859 21.0156 21.7397 21.0156 21.4463C21.0156 21.2337 20.9838 21.0473 20.9203 20.8872C20.8567 20.7271 20.765 20.5847 20.6451 20.46C20.5253 20.3354 20.3817 20.2235 20.2142 20.1245C20.0466 20.0255 19.8577 19.932 19.6474 19.8441C19.4934 19.7805 19.3552 19.7188 19.2329 19.6589C19.1107 19.599 19.0068 19.5379 18.9212 19.4756C18.8356 19.4132 18.7695 19.3472 18.7231 19.2776C18.6766 19.2079 18.6534 19.1291 18.6534 19.0411C18.6534 18.9604 18.6742 18.8877 18.7157 18.8229C18.7573 18.7581 18.816 18.7025 18.8918 18.6561C18.9676 18.6097 19.0605 18.5736 19.1706 18.5479C19.2806 18.5223 19.4029 18.5094 19.5374 18.5094C19.6352 18.5094 19.7385 18.5168 19.8473 18.5314C19.9562 18.5461 20.0656 18.5687 20.1756 18.5993C20.2857 18.6298 20.3927 18.6683 20.4966 18.7148C20.6005 18.7612 20.6965 18.815 20.7845 18.8761V17.7798C20.606 17.7113 20.411 17.6606 20.1995 17.6276C19.988 17.5946 19.7452 17.5781 19.4714 17.5781C19.1926 17.5781 18.9285 17.6081 18.6791 17.668C18.4296 17.7278 18.2102 17.8213 18.0206 17.9484C17.8311 18.0756 17.6814 18.2375 17.5713 18.4343C17.4613 18.631 17.4062 18.8663 17.4062 19.1401C17.4062 19.4896 17.5071 19.7878 17.7089 20.0347C17.9106 20.2816 18.2169 20.4906 18.6277 20.6617C18.7891 20.7277 18.9395 20.7925 19.0789 20.856C19.2183 20.9196 19.3387 20.9856 19.4402 21.054C19.5417 21.1225 19.6217 21.197 19.6805 21.2777C19.7391 21.3583 19.7685 21.45 19.7685 21.5527C19.7685 21.6285 19.7501 21.6987 19.7135 21.7635C19.6768 21.8283 19.6211 21.8845 19.5466 21.9322C19.472 21.9798 19.3791 22.0171 19.2678 22.044C19.1565 22.0709 19.0263 22.0843 18.8771 22.0843C18.6228 22.0843 18.371 22.0397 18.1215 21.9505C17.8721 21.8613 17.641 21.7275 17.4283 21.549ZM15.4558 18.6582H16.9609V17.6953H12.7656V18.6582H14.2634V22.9453H15.4558V18.6582Z" fill="black"/>
<path fill-rule="evenodd" clip-rule="evenodd" d="M8 2H20.414L26 7.586V28C26 29.103 25.103 30 24 30H8C6.897 30 6 29.103 6 28V4C6 2.897 6.897 2 8 2ZM23.586 8L20 4.414V8H23.586ZM8 4V28H24V10H18V4H8Z" fill="black"/>
</svg>
