<svg width="32" height="32" viewBox="0 0 32 32" fill="none" xmlns="http://www.w3.org/2000/svg">
<path d="M23.6 11.6C24.6 11 25.3 10.1 25.7 9C26.1 7.9 26.1 6.8 25.8 5.7C25.5 4.6 24.8 3.7 23.9 3C23 2.3 21.8 2 20.7 2H11.5C10.3 2 9.19999 2.4 8.29999 3C7.19999 3.7 6.59999 4.7 6.19999 5.7C5.89999 6.8 5.89999 8 6.29999 9C6.69999 10.1 7.39999 11 8.39999 11.6C7.69999 12.1 6.99999 12.7 6.59999 13.5C6.19999 14.3 5.99999 15.1 5.99999 16C5.99999 16.9 6.19999 17.7 6.59999 18.5C6.99999 19.3 7.59999 19.9 8.39999 20.4C7.39999 21 6.69999 21.9 6.29999 23C5.89999 24.1 5.89999 25.2 6.19999 26.3C6.49999 27.4 7.19999 28.3 8.19999 29C9.09999 29.7 10.3 30 11.4 30C12.8 30 14.2 29.4 15.3 28.5C16.3 27.5 16.9 26.2 16.9 24.8V20C17.9 20.9 19.2 21.4 20.5 21.4H20.6C21.8 21.4 22.9 21 23.8 20.4C24.7 19.7 25.4 18.8 25.7 17.7C26 16.6 26 15.5 25.6 14.4C25.3 13.1 24.5 12.2 23.6 11.6ZM16.9 3.7H20.6C21.1 3.7 21.6 3.7 22 3.9C22.5 4.1 22.9 4.3 23.2 4.7C23.6 5 23.8 5.4 24 5.9C24.2 6.4 24.3 6.8 24.3 7.3C24.3 7.8 24.2 8.3 24 8.7C23.8 9.1 23.5 9.5 23.2 9.9C22.8 10.2 22.4 10.5 22 10.7C21.5 10.9 21 10.9 20.6 10.9H16.9V3.7ZM11.4 3.7H15.1V10.7H11.4C10.5 10.7 9.59999 10.3 8.99999 9.6C8.29999 9 7.99999 8.1 7.99999 7.2C7.99999 6.3 8.39999 5.4 8.99999 4.8C9.59999 4.2 10.5 3.8 11.4 3.7ZM7.79999 16C7.79999 15.1 8.19999 14.2 8.89999 13.5C9.59999 12.8 10.5 12.5 11.5 12.5H15.2V19.5H11.5C10.5 19.5 9.59999 19.1 8.89999 18.5C8.19999 17.8 7.79999 16.9 7.79999 16ZM15.1 24.7C15.1 25.7 14.7 26.6 14 27.2C13.3 27.9 12.4 28.2 11.4 28.2C10.9 28.2 10.4 28.2 9.99999 28C9.49999 27.8 9.09999 27.6 8.79999 27.3C8.39999 27 8.19999 26.6 7.99999 26.1C7.79999 25.7 7.69999 25.2 7.69999 24.7C7.69999 24.2 7.79999 23.7 7.99999 23.3C8.19999 22.9 8.49999 22.5 8.79999 22.1C9.19999 21.8 9.59999 21.5 9.99999 21.3C10.5 21.1 11 21.1 11.4 21.1H15.1V24.7ZM20.6 19.5H20.5C19.6 19.5 18.7 19.1 18.1 18.4C17.5 17.7 17.1 16.9 17.1 16C17.1 15.1 17.5 14.2 18.1 13.6C18.7 12.9 19.6 12.6 20.5 12.5H20.6C21.1 12.5 21.6 12.5 22 12.7C22.5 12.9 22.9 13.1 23.2 13.5C23.6 13.8 23.8 14.2 24 14.7C24.2 15.1 24.3 15.6 24.3 16.1C24.3 16.6 24.2 17.1 24 17.5C23.8 17.9 23.5 18.3 23.2 18.7C22.8 19 22.4 19.3 22 19.5C21.6 19.5 21.1 19.5 20.6 19.5Z" fill="black"/>
</svg>
