<svg width="32" height="32" viewBox="0 0 32 32" fill="none" xmlns="http://www.w3.org/2000/svg">
<path d="M29 26H3C2.447 26 2 26.447 2 27C2 27.553 2.447 28 3 28H29C29.553 28 30 27.553 30 27C30 26.447 29.553 26 29 26Z" fill="black"/>
<path d="M6 22C5.447 22 5 22.447 5 23C5 23.553 5.447 24 6 24H26C26.553 24 27 23.553 27 23C27 22.447 26.553 22 26 22H25V11H26C26.553 11 27 10.553 27 10V7.00001C27 6.52301 26.663 6.11303 26.196 6.02003L16.196 4.02003C16.067 3.99503 15.932 3.99503 15.803 4.02003L5.80301 6.02003C5.33601 6.11403 4.99899 6.52401 4.99899 7.00001V10C4.99899 10.553 5.44599 11 5.99899 11H6.99899V22H5.99899H6ZM18 11V22H14V11H18ZM23 22H20V11H23V22ZM7 7.81898L16 6.01899L25 7.81898V9.00001H7V7.81898ZM9 11H12V22H9V11Z" fill="black"/>
</svg>
