<svg width="32" height="32" viewBox="0 0 32 32" fill="none" xmlns="http://www.w3.org/2000/svg">
<path fill-rule="evenodd" clip-rule="evenodd" d="M18 4H8V20H6V4C6 2.89543 6.89543 2 8 2H19.1716C19.702 2 20.2107 2.21071 20.5858 2.58579L25.4142 7.41421C25.7893 7.78929 26 8.29799 26 8.82843V15H24V10H19C18.4477 10 18 9.55228 18 9V4ZM23.1716 8L20 4.82843V8H23.1716Z" fill="black"/>
<path d="M6 28C6 29.1046 6.89543 30 8 30H24C25.1046 30 26 29.1046 26 28V23H24V28H6Z" fill="black"/>
<path fill-rule="evenodd" clip-rule="evenodd" d="M12.101 17.269L12.175 17.128L12.171 17.127L12.1804 17.1085C12.6992 16.09 13.2889 14.9321 13.759 13.787L13.87 13.52C13.207 10.965 12.85 8.97202 13.232 7.56802C13.407 6.92902 14.051 6.49902 14.833 6.49902L15.145 6.50803C15.758 6.50803 16.278 6.89903 16.558 7.55103L16.619 7.71703C16.675 7.86903 16.695 7.94903 16.72 8.14003C16.884 9.31603 16.348 12.431 16.286 12.783L16.223 13.053C16.744 14.418 17.552 15.657 18.508 16.553C18.826 16.848 19.234 17.106 19.639 17.344C20.623 17.216 21.549 17.15 22.327 17.15H22.493C23.907 17.169 24.823 17.403 25.293 17.867C25.383 17.956 25.671 18.271 25.712 18.643C25.804 19.317 25.699 19.914 25.409 20.357C25.213 20.653 24.906 20.865 24.544 20.955C24.356 21.008 24.124 21.035 23.851 21.035C22.545 21.035 20.576 20.427 18.903 19.512C16.924 19.818 14.671 20.353 12.664 20.996C10.751 24.306 9.35201 25.721 8.00101 25.721C7.71001 25.721 7.418 25.652 7.155 25.521L6.69602 25.292C6.24102 25.026 6.04102 24.505 6.15702 23.946C6.36402 22.926 7.49401 21.737 9.25501 20.685C9.36491 20.6184 9.67928 20.4503 9.93866 20.3116L10.022 20.267L10.664 19.925C11.123 19.133 11.606 18.24 12.101 17.269ZM13.929 18.627C14.77 18.358 15.67 18.115 16.644 17.896C16.092 17.371 15.593 16.775 15.151 16.115C14.844 16.831 14.501 17.545 14.101 18.303L14.0345 18.4286C13.9992 18.4954 13.9641 18.5618 13.929 18.627Z" fill="black"/>
</svg>
