<svg width="32" height="32" viewBox="0 0 32 32" fill="none" xmlns="http://www.w3.org/2000/svg">
<path d="M14 22C13.4477 22 13 22.4477 13 23C13 23.5523 13.4477 24 14 24H18C18.5523 24 19 23.5523 19 23C19 22.4477 18.5523 22 18 22H14Z" fill="black"/>
<path d="M14.3639 10.7071C14.7545 11.0976 14.7545 11.7308 14.3639 12.1213L12.9497 13.5355L14.3639 14.9497C14.7545 15.3403 14.7545 15.9734 14.3639 16.364C13.9734 16.7545 13.3402 16.7545 12.9497 16.364L11.5355 14.9497L10.1213 16.3639C9.73077 16.7545 9.09761 16.7545 8.70708 16.3639C8.31656 15.9734 8.31656 15.3402 8.70708 14.9497L10.1213 13.5355L8.70708 12.1213C8.31655 11.7308 8.31655 11.0976 8.70708 10.7071C9.0976 10.3166 9.73077 10.3166 10.1213 10.7071L11.5355 12.1213L12.9497 10.7071C13.3402 10.3166 13.9734 10.3166 14.3639 10.7071Z" fill="black"/>
<path d="M19.1213 10.7071C18.7308 10.3166 18.0976 10.3166 17.7071 10.7071C17.3166 11.0976 17.3166 11.7308 17.7071 12.1213L19.1213 13.5355L17.7071 14.9497C17.3166 15.3402 17.3166 15.9734 17.7071 16.3639C18.0976 16.7545 18.7308 16.7545 19.1213 16.3639L20.5355 14.9497L21.9497 16.364C22.3402 16.7545 22.9734 16.7545 23.3639 16.364C23.7545 15.9734 23.7545 15.3403 23.3639 14.9497L21.9497 13.5355L23.3639 12.1213C23.7545 11.7308 23.7545 11.0976 23.3639 10.7071C22.9734 10.3166 22.3402 10.3166 21.9497 10.7071L20.5355 12.1213L19.1213 10.7071Z" fill="black"/>
<path fill-rule="evenodd" clip-rule="evenodd" d="M30 16C30 23.732 23.732 30 16 30C8.26801 30 2 23.732 2 16C2 8.26801 8.26801 2 16 2C23.732 2 30 8.26801 30 16ZM28 16C28 22.6274 22.6274 28 16 28C9.37258 28 4 22.6274 4 16C4 9.37258 9.37258 4 16 4C22.6274 4 28 9.37258 28 16Z" fill="black"/>
</svg>
