<svg width="32" height="32" viewBox="0 0 32 32" fill="none" xmlns="http://www.w3.org/2000/svg">
<path d="M17.1961 12.0194C17.7377 12.1277 18.0889 12.6546 17.9806 13.1961L15.9806 23.1961C15.8723 23.7377 15.3454 24.0889 14.8039 23.9806C14.2623 23.8723 13.9111 23.3454 14.0194 22.8039L16.0194 12.8039C16.1277 12.2623 16.6546 11.9111 17.1961 12.0194Z" fill="black"/>
<path d="M12.8321 15.5547C13.1384 15.0952 13.0142 14.4743 12.5547 14.1679C12.0952 13.8616 11.4743 13.9858 11.1679 14.4453L9.16795 17.4453C8.94402 17.7812 8.94402 18.2188 9.16795 18.5547L11.1679 21.5547C11.4743 22.0142 12.0952 22.1384 12.5547 21.8321C13.0142 21.5257 13.1384 20.9048 12.8321 20.4453L11.2019 18L12.8321 15.5547Z" fill="black"/>
<path d="M19.1679 20.4453C18.8616 20.9048 18.9858 21.5257 19.4453 21.8321C19.9048 22.1384 20.5257 22.0142 20.832 21.5547L22.8321 18.5547C23.056 18.2188 23.056 17.7812 22.8321 17.4453L20.8321 14.4453C20.5257 13.9858 19.9048 13.8616 19.4453 14.168C18.9858 14.4743 18.8616 15.0952 19.1679 15.5547L20.7982 18L19.1679 20.4453Z" fill="black"/>
<path fill-rule="evenodd" clip-rule="evenodd" d="M8 2H20.414L26 7.586V28C26 29.103 25.103 30 24 30H8C6.897 30 6 29.103 6 28V4C6 2.897 6.897 2 8 2ZM23.586 8L20 4.414V8H23.586ZM8 4V28H24V10H18V4H8Z" fill="black"/>
</svg>
