<svg width="32" height="32" viewBox="0 0 32 32" fill="none" xmlns="http://www.w3.org/2000/svg">
<path d="M29.3375 1H2.6625C2.22259 1.00327 1.80162 1.17948 1.49055 1.49055C1.17948 1.80162 1.00327 2.22259 1 2.6625V29.3375C1.00327 29.7774 1.17948 30.1984 1.49055 30.5094C1.80162 30.8205 2.22259 30.9967 2.6625 31H17.025V19.4H13.125V14.8625H17.025V11.525C17.025 7.65 19.3875 5.5375 22.8625 5.5375C24.025 5.5375 25.1875 5.5375 26.35 5.7125V9.75H23.9625C22.075 9.75 21.7125 10.65 21.7125 11.9625V14.85H26.2125L25.625 19.3875H21.7125V31H29.3375C29.7774 30.9967 30.1984 30.8205 30.5094 30.5094C30.8205 30.1984 30.9967 29.7774 31 29.3375V2.6625C30.9967 2.22259 30.8205 1.80162 30.5094 1.49055C30.1984 1.17948 29.7774 1.00327 29.3375 1V1Z" fill="black"/>
</svg>
