<svg width="32" height="32" viewBox="0 0 32 32" fill="none" xmlns="http://www.w3.org/2000/svg">
<path d="M13.3915 11.6493L11.0493 22.425C10.6323 24.3557 9.754 25.9343 8.41435 27.1606C7.0747 28.3869 5.69513 29 4.27563 29C3.49491 29 2.92267 28.8521 2.55893 28.5564C2.18631 28.2694 2 27.9042 2 27.4606C2 27.0866 2.11533 26.7561 2.346 26.4691C2.57667 26.1821 2.90937 26.0386 3.34409 26.0386C3.61911 26.0386 3.86309 26.0995 4.07601 26.2213C4.28007 26.343 4.46194 26.4952 4.62163 26.6779C4.74584 26.8257 4.88779 27.0258 5.04748 27.278C5.1983 27.5302 5.33138 27.7476 5.44672 27.9303C6.12985 27.8781 6.71096 27.4258 7.19004 26.5735C7.67799 25.7212 8.0994 24.5036 8.45428 22.9207L10.9029 11.6493H8.30789L8.58735 10.4621H11.1558L11.3421 9.57501C11.555 8.56615 11.8921 7.6573 12.3535 6.84847C12.8148 6.03964 13.3382 5.35257 13.9238 4.78726C14.5004 4.23064 15.1525 3.79579 15.88 3.48269C16.6164 3.1609 17.3217 3 17.996 3C18.7767 3 19.3489 3.14785 19.7127 3.44355C20.0853 3.73056 20.2716 4.09584 20.2716 4.53939C20.2716 4.91336 20.1607 5.24385 19.9389 5.53086C19.726 5.81786 19.3888 5.96136 18.9275 5.96136C18.6525 5.96136 18.4129 5.90483 18.2089 5.79177C18.0048 5.67001 17.823 5.51346 17.6633 5.32213C17.4858 5.1047 17.3439 4.90032 17.2374 4.70898C17.131 4.51765 16.9979 4.30457 16.8382 4.06974C16.226 4.09584 15.6848 4.49155 15.2146 5.2569C14.7444 6.02224 14.3186 7.29637 13.9371 9.07928L13.6443 10.4621H16.9846L16.7051 11.6493H13.3915Z" fill="black"/>
<path d="M29.9996 11.4797C29.9907 11.9841 29.8 12.3581 29.4273 12.6016C29.0636 12.8364 28.6644 12.9538 28.2296 12.9538C27.9635 12.9538 27.6619 12.9104 27.3247 12.8234C26.9876 12.7277 26.7214 12.6494 26.5263 12.5886C26.127 12.9364 25.6612 13.4496 25.1289 14.1279C24.6055 14.8063 24.1087 15.5543 23.6385 16.3718C23.8514 17.198 24.0421 17.9068 24.2107 18.4982C24.3793 19.081 24.5611 19.668 24.7563 20.2594C24.9249 20.7899 25.1866 21.2161 25.5415 21.5379C25.9052 21.851 26.3799 22.0075 26.9654 22.0075C27.1783 22.0075 27.4711 21.9814 27.8437 21.9293C28.2163 21.8684 28.5047 21.8031 28.7087 21.7336L28.4692 22.5946C27.6175 22.9425 26.9743 23.1686 26.5396 23.273C26.1137 23.3773 25.6524 23.4295 25.1556 23.4295C24.5345 23.4295 24.02 23.2904 23.6118 23.012C23.2126 22.7337 22.8888 22.1597 22.6404 21.29C22.4629 20.6551 22.3166 20.1246 22.2012 19.6984C22.0948 19.2636 21.9883 18.8331 21.8818 18.4069C21.4737 19.007 21.1366 19.5202 20.8704 19.9463C20.6043 20.3638 20.1607 20.9421 19.5397 21.6814C18.9985 22.325 18.5017 22.7816 18.0492 23.0512C17.5967 23.3208 17.1354 23.4556 16.6652 23.4556C16.2482 23.4556 15.9066 23.3382 15.6405 23.1034C15.3655 22.8598 15.2279 22.525 15.2279 22.0988C15.2279 21.6901 15.3876 21.3422 15.707 21.0552C16.0264 20.7595 16.4656 20.6116 17.0245 20.6116C17.3084 20.6116 17.5834 20.6638 17.8496 20.7682C18.1246 20.8639 18.4085 20.9552 18.7013 21.0421C19.0384 20.7291 19.482 20.242 20.0321 19.581C20.591 18.9201 21.11 18.1678 21.5891 17.3241C21.4205 16.7066 21.2342 16.0283 21.0301 15.289C20.835 14.5498 20.6486 13.9018 20.4712 13.3452C20.2405 12.6407 19.9744 12.1885 19.6727 11.9885C19.3711 11.7884 18.9852 11.6884 18.515 11.6884C18.2577 11.6884 17.9827 11.7232 17.6899 11.7928C17.406 11.8624 17.1398 11.9319 16.8914 12.0015L17.1443 11.1405C17.8274 10.8622 18.4396 10.6361 18.9807 10.4621C19.5308 10.2795 19.9034 10.1882 20.0986 10.1882C20.7107 10.1882 21.2164 10.336 21.6157 10.6317C22.0238 10.9187 22.3476 11.4797 22.5871 12.3146C22.8622 13.28 23.0219 13.8714 23.0662 14.0888C23.1195 14.2975 23.217 14.715 23.359 15.3412C23.7848 14.6976 24.1309 14.154 24.397 13.7105C24.6632 13.2669 25.0979 12.6799 25.7012 11.9493C26.2601 11.2623 26.7747 10.7926 27.2449 10.5404C27.724 10.2795 28.1809 10.149 28.6156 10.149C29.0059 10.149 29.3342 10.2751 29.6004 10.5273C29.8754 10.7709 30.0085 11.0883 29.9996 11.4797Z" fill="black"/>
</svg>
