<svg width="32" height="32" viewBox="0 0 32 32" fill="none" xmlns="http://www.w3.org/2000/svg">
<path fill-rule="evenodd" clip-rule="evenodd" d="M6 5C3.79086 5 2 6.79086 2 9V11.3446C0.936799 11.9059 0.260624 13.085 0.421512 14.3721L1.67151 24.3721C1.85917 25.8734 3.13537 27 4.64834 27H26C28.2091 27 30 25.2091 30 23V9C30 6.79086 28.2091 5 26 5H6ZM27.9744 23.3208C27.9912 23.2164 28 23.1092 28 23V9C28 7.89543 27.1046 7 26 7H6C4.89543 7 4 7.89543 4 9V11H12.5L14.5 13H23.8981C25.3911 13 26.6568 14.0978 26.868 15.5757L27.9744 23.3208ZM3.39835 13H11.6716L13.6716 15H23.8981C24.3958 15 24.8177 15.3659 24.8881 15.8586L26.0309 23.8586C26.117 24.461 25.6495 25 25.041 25H4.64834C4.14402 25 3.71862 24.6245 3.65607 24.124L2.40607 14.124C2.33146 13.5272 2.79685 13 3.39835 13Z" fill="black"/>
</svg>
