<svg width="32" height="32" viewBox="0 0 32 32" fill="none" xmlns="http://www.w3.org/2000/svg">
<path d="M22.619 2.5356C20.6226 1.55234 18.3758 1 16 1C10.8066 1 6.22955 3.63935 3.53717 7.64988L5.24166 8.63397C10.9812 11.9477 18.3203 9.98118 21.634 4.24167L22.619 2.5356Z" fill="black"/>
<path d="M7.64987 28.4628C3.63935 25.7704 1 21.1934 1 16C1 13.6242 1.55234 11.3774 2.5356 9.38103L4.24167 10.366C9.98118 13.6797 11.9477 21.0188 8.63397 26.7583L7.64987 28.4628Z" fill="black"/>
<path d="M28.4628 24.3501C25.7705 28.3607 21.1935 31 16 31C13.6242 31 11.3774 30.4477 9.38102 29.4644L10.366 27.7583C13.6797 22.0188 21.0188 20.0523 26.7583 23.366L28.4628 24.3501Z" fill="black"/>
<path d="M24.3501 3.53716C28.3607 6.22955 31 10.8065 31 16C31 18.3758 30.4477 20.6226 29.4644 22.619L27.7583 21.634C22.0188 18.3203 20.0523 10.9812 23.366 5.24166L24.3501 3.53716Z" fill="black"/>
</svg>
