<svg width="32" height="32" viewBox="0 0 32 32" fill="none" xmlns="http://www.w3.org/2000/svg">
<path d="M14.7273 18.7784V18.9474H16.6115V18.7784C16.6148 18.4536 16.6562 18.1801 16.7358 17.9581C16.8186 17.736 16.9429 17.5405 17.1087 17.3714C17.2777 17.2024 17.4931 17.04 17.755 16.8842C18.0665 16.6986 18.3366 16.4915 18.5653 16.2628C18.794 16.0308 18.9713 15.7656 19.0973 15.4673C19.2266 15.1657 19.2912 14.821 19.2912 14.4332C19.2912 13.8532 19.147 13.3577 18.8587 12.9467C18.5703 12.5357 18.1726 12.2225 17.6655 12.0071C17.1584 11.7883 16.575 11.679 15.9155 11.679C15.3156 11.679 14.767 11.7867 14.2699 12.0021C13.7727 12.2142 13.3733 12.5374 13.0717 12.9716C12.7701 13.4024 12.611 13.9493 12.5945 14.6122H14.6229C14.6328 14.3404 14.6991 14.1134 14.8217 13.9311C14.9444 13.7455 15.1018 13.6063 15.294 13.5135C15.4863 13.4174 15.6901 13.3693 15.9055 13.3693C16.1276 13.3693 16.3298 13.4157 16.5121 13.5085C16.6977 13.6013 16.8452 13.7339 16.9545 13.9062C17.0639 14.0786 17.1186 14.2791 17.1186 14.5078C17.1186 14.7232 17.0705 14.9188 16.9744 15.0944C16.8783 15.2668 16.749 15.4242 16.5866 15.5667C16.4242 15.7093 16.2403 15.8468 16.0348 15.9794C15.7597 16.1517 15.5244 16.344 15.3288 16.5561C15.1333 16.7682 14.9841 17.0466 14.8814 17.3913C14.782 17.736 14.7306 18.1984 14.7273 18.7784Z" fill="black"/>
<path d="M14.8615 21.7812C15.0968 22.0132 15.3802 22.1292 15.7116 22.1292C15.9238 22.1292 16.1193 22.0762 16.2983 21.9701C16.4773 21.8608 16.6214 21.7166 16.7308 21.5376C16.8435 21.3553 16.9015 21.1548 16.9048 20.9361C16.9015 20.6112 16.7805 20.3328 16.5419 20.1008C16.3033 19.8688 16.0265 19.7528 15.7116 19.7528C15.3802 19.7528 15.0968 19.8688 14.8615 20.1008C14.6295 20.3328 14.5151 20.6112 14.5185 20.9361C14.5151 21.2642 14.6295 21.5459 14.8615 21.7812Z" fill="black"/>
<path fill-rule="evenodd" clip-rule="evenodd" d="M5 27H27C28.654 27 30 25.654 30 24V10C30 8.346 28.654 7 27 7H14.414L12.414 5H5C3.346 5 2 6.346 2 8V24C2 25.654 3.346 27 5 27ZM4 8C4 7.449 4.448 7 5 7H11.586L13.586 9H27C27.552 9 28 9.449 28 10V24C28 24.551 27.552 25 27 25H5C4.448 25 4 24.551 4 24V8Z" fill="black"/>
</svg>
