<svg width="32" height="32" viewBox="0 0 32 32" fill="none" xmlns="http://www.w3.org/2000/svg">
<path fill-rule="evenodd" clip-rule="evenodd" d="M30 16C30 23.732 23.732 30 16 30C8.26801 30 2 23.732 2 16C2 8.26801 8.26801 2 16 2C23.732 2 30 8.26801 30 16ZM28 16C28 22.6274 22.6274 28 16 28C9.37258 28 4 22.6274 4 16C4 9.37258 9.37258 4 16 4C22.6274 4 28 9.37258 28 16Z" fill="black"/>
<rect x="7" y="11" width="7" height="7" rx="3" stroke="black" stroke-width="2"/>
<rect x="18" y="11" width="7" height="7" rx="3" stroke="black" stroke-width="2"/>
<rect x="11" y="22" width="10" height="2" rx="1" fill="black"/>
<rect x="3" y="12" width="4" height="2" fill="black"/>
<rect x="14" y="12" width="4" height="2" fill="black"/>
<rect x="25" y="12" width="4" height="2" fill="black"/>
</svg>
