<svg width="32" height="32" viewBox="0 0 32 32" fill="none" xmlns="http://www.w3.org/2000/svg">
<path fill-rule="evenodd" clip-rule="evenodd" d="M7 3C7 2.44772 6.55228 2 6 2C5.44772 2 5 2.44772 5 3V29C5 29.5523 5.44772 30 6 30C6.55228 30 7 29.5523 7 29V20H26C26.3977 20 26.7577 19.7643 26.9166 19.3997C27.0756 19.0351 27.0034 18.611 26.7328 18.3195L20.8646 12L26.7328 5.68045C27.0034 5.38899 27.0756 4.96486 26.9166 4.60028C26.7577 4.2357 26.3977 4 26 4H7V3ZM7 6V18H23.7068L18.7672 12.6805C18.4109 12.2968 18.4109 11.7032 18.7672 11.3195L23.7068 6H7Z" fill="black"/>
</svg>
