<svg width="32" height="32" viewBox="0 0 32 32" fill="none" xmlns="http://www.w3.org/2000/svg">
<path d="M13 23C13 22.4477 13.4477 22 14 22H18C18.5523 22 19 22.4477 19 23C19 23.5523 18.5523 24 18 24H14C13.4477 24 13 23.5523 13 23Z" fill="black"/>
<path d="M11 15C11 15.5523 10.5523 16 10 16C9.44772 16 9 15.5523 9 15C9 14.4477 9.44772 14 10 14C10.5523 14 11 14.4477 11 15Z" fill="black"/>
<path fill-rule="evenodd" clip-rule="evenodd" d="M10 10C7.23858 10 5 12.2386 5 15C5 17.7614 7.23858 20 10 20C12.7614 20 15 17.7614 15 15C15 12.2386 12.7614 10 10 10ZM7 15C7 16.6569 8.34315 18 10 18C11.6569 18 13 16.6569 13 15C13 13.3431 11.6569 12 10 12C8.34315 12 7 13.3431 7 15Z" fill="black"/>
<path d="M22 16C22.5523 16 23 15.5523 23 15C23 14.4477 22.5523 14 22 14C21.4477 14 21 14.4477 21 15C21 15.5523 21.4477 16 22 16Z" fill="black"/>
<path fill-rule="evenodd" clip-rule="evenodd" d="M17 15C17 12.2386 19.2386 10 22 10C24.7614 10 27 12.2386 27 15C27 17.7614 24.7614 20 22 20C19.2386 20 17 17.7614 17 15ZM22 18C20.3431 18 19 16.6569 19 15C19 13.3431 20.3431 12 22 12C23.6569 12 25 13.3431 25 15C25 16.6569 23.6569 18 22 18Z" fill="black"/>
<path fill-rule="evenodd" clip-rule="evenodd" d="M16 30C23.732 30 30 23.732 30 16C30 8.26801 23.732 2 16 2C8.26801 2 2 8.26801 2 16C2 23.732 8.26801 30 16 30ZM16 28C22.6274 28 28 22.6274 28 16C28 9.37258 22.6274 4 16 4C9.37258 4 4 9.37258 4 16C4 22.6274 9.37258 28 16 28Z" fill="black"/>
</svg>
