<svg width="32" height="32" viewBox="0 0 32 32" fill="none" xmlns="http://www.w3.org/2000/svg">
<path d="M15 19L17 17L15 15V19Z" fill="black"/>
<path fill-rule="evenodd" clip-rule="evenodd" d="M22 14C22 12.8954 21.1046 12 20 12H12C10.8954 12 10 12.8954 10 14V20C10 21.1046 10.8954 22 12 22H20C21.1046 22 22 21.1046 22 20V14ZM12 14H20V20H12V14Z" fill="black"/>
<path fill-rule="evenodd" clip-rule="evenodd" d="M8 2C6.89543 2 6 2.89543 6 4V28C6 29.1046 6.89543 30 8 30H24C25.1046 30 26 29.1046 26 28V8.82843C26 8.29799 25.7893 7.78929 25.4142 7.41421L20.5858 2.58579C20.2107 2.21071 19.702 2 19.1716 2H8ZM18 4H8V28H24V10H19C18.4477 10 18 9.55228 18 9V4ZM20 4.82843V8H23.1716L20 4.82843Z" fill="black"/>
</svg>
