<svg width="32" height="32" viewBox="0 0 32 32" fill="none" xmlns="http://www.w3.org/2000/svg">
<path d="M10.1738 17.043C10.6243 17.043 10.9368 16.9531 11.1113 16.7734C11.2858 16.5938 11.373 16.3034 11.373 15.9023V15.0391C11.373 14.5573 11.4395 14.1719 11.5723 13.8828C11.7077 13.5911 11.8952 13.3711 12.1348 13.2227C12.377 13.0742 12.6634 12.9753 12.9941 12.9258C13.3249 12.8763 13.6868 12.8516 14.0801 12.8516V14.0938C13.7728 14.0938 13.5384 14.1341 13.377 14.2148C13.2181 14.293 13.11 14.4154 13.0527 14.582C12.9954 14.7461 12.9668 14.9544 12.9668 15.207V16.3477C12.9668 16.5456 12.9303 16.7344 12.8574 16.9141C12.7845 17.0911 12.6491 17.2487 12.4512 17.3867C12.2533 17.5221 11.9707 17.6302 11.6035 17.7109L11.5762 17.7166V17.873L11.6035 17.8789C11.9707 17.957 12.2533 18.0651 12.4512 18.2031C12.6491 18.3385 12.7845 18.4961 12.8574 18.6758C12.9303 18.8529 12.9668 19.0417 12.9668 19.2422V20.3828C12.9668 20.6328 12.9954 20.8398 13.0527 21.0039C13.11 21.1706 13.2181 21.293 13.377 21.3711C13.5384 21.4518 13.7728 21.4922 14.0801 21.4922V22.7383C13.6868 22.7383 13.3249 22.7135 12.9941 22.6641C12.6634 22.6146 12.377 22.5156 12.1348 22.3672C11.8952 22.2188 11.7077 21.9987 11.5723 21.707C11.4395 21.418 11.373 21.0326 11.373 20.5508V19.6836C11.373 19.2826 11.2858 18.9922 11.1113 18.8125C10.9368 18.6328 10.6243 18.543 10.1738 18.543V17.043Z" fill="black"/>
<path d="M16.8076 19.9062L16.7646 20.3359C16.7308 20.6797 16.6657 21.0221 16.5693 21.3633C16.4756 21.707 16.3766 22.0182 16.2725 22.2969C16.1709 22.5755 16.0889 22.7943 16.0264 22.9531H14.9482C14.9873 22.7995 15.0407 22.5846 15.1084 22.3086C15.1761 22.0352 15.2399 21.7279 15.2998 21.3867C15.3597 21.0456 15.3975 20.6979 15.4131 20.3438L15.4326 19.9062H16.8076Z" fill="black"/>
<path d="M15.4482 16.625C15.6331 16.8073 15.8545 16.8984 16.1123 16.8984C16.2816 16.8984 16.4365 16.8568 16.5771 16.7734C16.7178 16.6901 16.8311 16.5781 16.917 16.4375C17.0055 16.2943 17.0498 16.1354 17.0498 15.9609C17.0498 15.7057 16.9561 15.4883 16.7686 15.3086C16.5811 15.1263 16.3623 15.0352 16.1123 15.0352C15.8545 15.0352 15.6331 15.1263 15.4482 15.3086C15.266 15.4883 15.1748 15.7057 15.1748 15.9609C15.1748 16.2214 15.266 16.4427 15.4482 16.625Z" fill="black"/>
<path d="M20.8877 18.8125C21.0648 18.6328 21.3773 18.543 21.8252 18.543V17.043C21.3773 17.043 21.0648 16.9531 20.8877 16.7734C20.7132 16.5938 20.626 16.3034 20.626 15.9023V15.0391C20.626 14.5573 20.5583 14.1719 20.4229 13.8828C20.29 13.5911 20.1025 13.3711 19.8604 13.2227C19.6208 13.0742 19.3356 12.9753 19.0049 12.9258C18.6768 12.8763 18.3148 12.8516 17.9189 12.8516V14.0938C18.2262 14.0938 18.4593 14.1341 18.6182 14.2148C18.7796 14.293 18.889 14.4154 18.9463 14.582C19.0036 14.7461 19.0322 14.9544 19.0322 15.207V16.3477C19.0322 16.5456 19.0687 16.7344 19.1416 16.9141C19.2145 17.0911 19.3499 17.2487 19.5479 17.3867C19.7458 17.5221 20.0283 17.6302 20.3955 17.7109L20.4229 17.7166V17.873L20.3955 17.8789C20.0283 17.957 19.7458 18.0651 19.5479 18.2031C19.3499 18.3385 19.2145 18.4961 19.1416 18.6758C19.0687 18.8529 19.0322 19.0417 19.0322 19.2422V20.3828C19.0322 20.6328 19.0036 20.8398 18.9463 21.0039C18.889 21.1706 18.7796 21.293 18.6182 21.3711C18.4593 21.4518 18.2262 21.4922 17.9189 21.4922V22.7383C18.3148 22.7383 18.6768 22.7135 19.0049 22.6641C19.3356 22.6146 19.6208 22.5156 19.8604 22.3672C20.1025 22.2188 20.29 21.9987 20.4229 21.707C20.5583 21.418 20.626 21.0326 20.626 20.5508V19.6836C20.626 19.2826 20.7132 18.9922 20.8877 18.8125Z" fill="black"/>
<path fill-rule="evenodd" clip-rule="evenodd" d="M8 2C6.89543 2 6 2.89543 6 4V28C6 29.1046 6.89543 30 8 30H24C25.1046 30 26 29.1046 26 28V8.82843C26 8.29799 25.7893 7.78929 25.4142 7.41421L20.5858 2.58579C20.2107 2.21071 19.702 2 19.1716 2H8ZM18 4H8V28H24V10H18V4ZM20 4.82843V8H23.1716L20 4.82843Z" fill="black"/>
</svg>
