<svg width="32" height="32" viewBox="0 0 32 32" fill="none" xmlns="http://www.w3.org/2000/svg">
<path d="M11 15C12.1046 15 13 14.1046 13 13C13 11.8954 12.1046 11 11 11C9.89543 11 9 11.8954 9 13C9 14.1046 9.89543 15 11 15Z" fill="black"/>
<path d="M23 13C23 14.1046 22.1046 15 21 15C19.8954 15 19 14.1046 19 13C19 11.8954 19.8954 11 21 11C22.1046 11 23 11.8954 23 13Z" fill="black"/>
<path fill-rule="evenodd" clip-rule="evenodd" d="M30 16C30 23.732 23.732 30 16 30C8.26801 30 2 23.732 2 16C2 8.26801 8.26801 2 16 2C23.732 2 30 8.26801 30 16ZM28 16C28 22.6274 22.6274 28 16 28C9.37258 28 4 22.6274 4 16C4 9.37258 9.37258 4 16 4C22.6274 4 28 9.37258 28 16Z" fill="black"/>
<path fill-rule="evenodd" clip-rule="evenodd" d="M11.7071 18.6568C14.0502 21 17.8492 21 20.1924 18.6568C20.5829 18.2663 21.2161 18.2663 21.6066 18.6568C21.9971 19.0474 21.9971 19.6805 21.6066 20.0711C18.4824 23.1952 13.4171 23.1952 10.2929 20.0711C9.90236 19.6805 9.90236 19.0474 10.2929 18.6568C10.6834 18.2663 11.3166 18.2663 11.7071 18.6568Z" fill="black"/>
<path d="M17.2992 24.4477L15.2771 22.446C14.8079 21.9815 15.1368 21.1818 15.7969 21.1818C15.884 21.1818 15.9704 21.1664 16.0521 21.1364L18.7572 20.1412C19.7399 19.7796 20.8351 20.2373 21.2684 21.1906L21.7147 22.1724C22.3166 23.4966 21.3486 25 19.894 25H18.6422C18.1393 25 17.6566 24.8015 17.2992 24.4477Z" fill="black"/>
</svg>
