<svg width="32" height="32" viewBox="0 0 32 32" fill="none" xmlns="http://www.w3.org/2000/svg">
<g id="AisFileTable">
<g id="Union">
<path fill-rule="evenodd" clip-rule="evenodd" d="M10 12H22V22H10V12ZM20 20V18H17V20H20ZM20 16V14H17V16H20ZM15 18V20H12V18H15ZM15 16V14H12V16H15Z" fill="black"/>
<path fill-rule="evenodd" clip-rule="evenodd" d="M20.414 2H8C6.897 2 6 2.897 6 4V28C6 29.103 6.897 30 8 30H24C25.103 30 26 29.103 26 28V7.586L20.414 2ZM20 4.414L23.586 8H20V4.414ZM8 28V4H18V10H24V28H8Z" fill="black"/>
</g>
</g>
</svg>
