<svg width="32" height="32" viewBox="0 0 32 32" fill="none" xmlns="http://www.w3.org/2000/svg">
<path fill-rule="evenodd" clip-rule="evenodd" d="M5 27C3.34315 27 2 25.6569 2 24V8C2 6.34315 3.34315 5 5 5H26C28.2091 5 30 6.79086 30 9L30 24C30 25.6569 28.6569 27 27 27H5ZM15.4038 7L17.5 9H27C27.3506 9 27.6872 9.06015 28 9.17071V9C28 7.89543 27.1046 7 26 7H15.4038ZM12.5066 7H5C4.44771 7 4 7.44772 4 8V24C4 24.5523 4.44772 25 5 25H26C27.1033 25 27.998 24.1066 28 23.0038L28 23V12C28 11.4477 27.5523 11 27 11H16.6989L12.5066 7Z" fill="black"/>
</svg>
