<svg width="32" height="32" viewBox="0 0 32 32" fill="none" xmlns="http://www.w3.org/2000/svg">
<g id="AisFingerPrint">
<g id="Vector">
<path d="M7.02398 5.26404C7.20498 5.27404 7.38198 5.21704 7.52398 5.10404C10.01 3.36504 12.992 2.48103 16.024 2.58403C19.06 2.47203 22.059 3.28404 24.624 4.91404C24.97 5.16104 25.451 5.08604 25.704 4.74404C25.948 4.39804 25.868 3.92103 25.524 3.67403C22.504 1.50403 18.684 1.05404 16.024 1.05404C12.646 0.938036 9.32302 1.93204 6.56402 3.88404C6.37702 4.02804 6.26697 4.24903 6.26397 4.48403C6.25897 4.90903 6.59898 5.25804 7.02398 5.26404Z" fill="black"/>
<path d="M28.864 11.104C25.834 6.84403 21.634 4.76404 16.024 4.76404C10.973 4.64704 6.17999 6.99303 3.17399 11.054C3.15999 11.071 3.14695 11.088 3.13395 11.106C2.89395 11.45 2.97895 11.924 3.32395 12.164C3.66695 12.41 4.14396 12.334 4.39396 11.994C7.10596 8.30703 11.449 6.17903 16.024 6.29403C22.804 6.29403 25.894 9.54402 27.624 11.984C27.769 12.189 28.003 12.312 28.254 12.314C28.405 12.308 28.55 12.26 28.674 12.174C29.021 11.93 29.106 11.452 28.864 11.104Z" fill="black"/>
<path d="M16.024 8.44403C9.58699 8.37203 4.29902 13.508 4.18402 19.944C4.17402 20.071 4.171 20.199 4.172 20.327C4.206 22.685 6.14603 24.569 8.50403 24.535C10.795 24.681 12.792 22.989 13.024 20.705C13.264 18.355 14.164 17.355 16.024 17.355C16.162 17.345 16.301 17.345 16.439 17.355C17.981 17.47 19.138 18.813 19.024 20.355C19.024 24.445 16.394 27.885 12.024 29.565C12.01 29.57 11.995 29.576 11.981 29.582C11.6 29.744 11.422 30.184 11.584 30.565C11.702 30.86 11.987 31.053 12.304 31.055C12.374 31.063 12.444 31.063 12.514 31.055C17.514 29.145 20.514 25.165 20.514 20.425C20.523 20.267 20.524 20.11 20.516 19.952C20.396 17.575 18.371 15.745 15.994 15.865C13.324 15.865 11.794 17.445 11.434 20.555C11.434 20.563 11.432 20.571 11.432 20.58C11.282 22.086 9.94002 23.185 8.43402 23.035C8.32502 23.036 8.21701 23.031 8.10901 23.02C6.58801 22.86 5.48398 21.496 5.64398 19.975C5.64398 19.967 5.64398 19.959 5.64398 19.951C5.75498 14.33 10.402 9.86304 16.024 9.97504C21.784 9.96404 26.466 14.615 26.494 20.375C26.422 22.404 25.992 24.405 25.224 26.285C25.223 26.288 25.222 26.29 25.221 26.293C25.061 26.681 25.246 27.125 25.634 27.285C26.023 27.439 26.465 27.258 26.634 26.875C27.483 24.809 27.953 22.607 28.024 20.375C27.985 13.775 22.624 8.44504 16.024 8.44504V8.44403Z" fill="black"/>
<path d="M16.024 12.194C13.794 12.134 11.633 12.969 10.024 14.514C8.572 15.989 7.77303 17.985 7.80403 20.054C7.80403 20.057 7.80403 20.061 7.80403 20.064C7.81003 20.484 8.15399 20.819 8.57399 20.814C8.99499 20.814 9.33901 20.475 9.34401 20.054C9.32401 18.381 9.98403 16.771 11.174 15.594C12.503 14.333 14.283 13.66 16.114 13.724C22.334 13.724 22.814 18.814 22.814 20.374C22.791 23.614 21.524 26.722 19.274 29.054C19.272 29.056 19.271 29.057 19.269 29.059C18.974 29.357 18.976 29.838 19.274 30.134C19.418 30.26 19.602 30.331 19.794 30.334C20.016 30.33 20.225 30.227 20.364 30.054C22.855 27.445 24.251 23.981 24.264 20.374C24.264 16.594 22.104 12.194 16.024 12.194Z" fill="black"/>
<path d="M16.794 20.434C16.811 20.014 16.493 19.656 16.074 19.624C16.063 19.623 16.051 19.622 16.04 19.622C15.626 19.602 15.274 19.921 15.254 20.334C15.194 22.07 14.429 23.706 13.134 24.864C11.744 26.024 9.784 26.464 7.294 26.184C6.874 26.137 6.49597 26.439 6.44897 26.859C6.40197 27.279 6.70402 27.657 7.12402 27.704C7.64202 27.763 8.16302 27.793 8.68402 27.794C10.644 27.882 12.57 27.265 14.114 26.054C15.74 24.627 16.709 22.596 16.794 20.434Z" fill="black"/>
</g>
</g>
</svg>
