<svg width="32" height="32" viewBox="0 0 32 32" fill="none" xmlns="http://www.w3.org/2000/svg">
<path fill-rule="evenodd" clip-rule="evenodd" d="M15 9C15 5.68629 17.6863 3 21 3C21.5523 3 22 3.44772 22 4V5C22 7.973 19.8377 10.441 17 10.917V15.7084C18.4659 14.0475 20.6106 13 23 13C23.5523 13 24 13.4477 24 14V15C24 19.0796 20.9463 22.446 17 22.9381V25.1356C18.0471 25.3658 19.0274 25.9624 19.7277 26.9254C20.2187 27.6005 21.0031 28 21.8379 28H29C29.5523 28 30 28.4477 30 29C30 29.5523 29.5523 30 29 30H21.8379C20.3633 30 18.9776 29.2944 18.1102 28.1017C17.0682 26.669 14.9318 26.669 13.8898 28.1017C13.0224 29.2944 11.6367 30 10.1621 30H3C2.44772 30 2 29.5523 2 29C2 28.4477 2.44772 28 3 28H10.1621C10.9969 28 11.7813 27.6005 12.2723 26.9254C12.9726 25.9624 13.9529 25.3658 15 25.1356V21H12C8.68629 21 6 18.3137 6 15V13C6 12.4477 6.44771 12 7 12H11C12.5367 12 13.9385 12.5777 15 13.5278V9ZM17.002 8.87348C17.0581 7.0663 18.313 5.56114 19.998 5.12652C19.9419 6.9337 18.687 8.43886 17.002 8.87348ZM15 18C15 15.7909 13.2091 14 11 14H8V15C8 17.2091 9.79086 19 12 19H15V18ZM17.0006 20.9169C17.0404 17.9813 19.1885 15.5549 21.9994 15.0831C21.9596 18.0187 19.8115 20.4451 17.0006 20.9169Z" fill="black"/>
</svg>
