<svg width="32" height="32" viewBox="0 0 32 32" fill="none" xmlns="http://www.w3.org/2000/svg">
<path d="M12.871 3.37905C14.0014 3.09975 15 4.03149 15 5.19583V16C15 16.2652 15.1054 16.5196 15.2929 16.7071L22.9314 24.3456C23.7551 25.1693 23.7077 26.5342 22.7106 27.1364C20.7516 28.3193 18.4553 29 16 29C8.8203 29 3 23.1797 3 16C3 9.89904 7.20273 4.77966 12.871 3.37905Z" fill="black"/>
<path d="M19.1289 3.37903C17.9985 3.09973 17 4.03148 17 5.19583V13C17 14.1046 17.8954 15 19 15H26.8042C27.9685 15 28.9003 14.0015 28.621 12.8712C27.468 8.20499 23.795 4.53197 19.1289 3.37903Z" fill="black"/>
<path d="M28.6211 19.1284C28.9004 17.998 27.9685 17 26.8042 17H23.2426C21.4608 17 20.5685 19.1543 21.8284 20.4142L24.3456 22.9314C25.1693 23.7551 26.5342 23.7077 27.1364 22.7106C27.7997 21.6121 28.3051 20.4076 28.6211 19.1284Z" fill="black"/>
</svg>
