<svg width="32" height="32" viewBox="0 0 32 32" fill="none" xmlns="http://www.w3.org/2000/svg">
<path d="M29 26H4V5C4 4.448 3.552 4 3 4C2.448 4 2 4.448 2 5V27C2 27.552 2.448 28 3 28H29C29.552 28 30 27.552 30 27C30 26.448 29.552 26 29 26Z" fill="black"/>
<path d="M6.47001 23.848C6.63501 23.951 6.818 24 6.999 24C7.332 24 7.65801 23.833 7.84801 23.53L12.181 16.596L16.292 20.707C16.514 20.929 16.825 21.032 17.138 20.99C17.449 20.947 17.721 20.76 17.873 20.486L22.786 11.643L29.65 5.76001C30.069 5.40101 30.118 4.769 29.758 4.35C29.398 3.931 28.766 3.882 28.348 4.242L21.348 10.242C21.258 10.319 21.182 10.412 21.125 10.515L16.769 18.356L12.707 14.294C12.492 14.079 12.192 13.97 11.887 14.007C11.584 14.042 11.314 14.212 11.152 14.471L6.152 22.471C5.86 22.939 6.00201 23.556 6.47001 23.849V23.848Z" fill="black"/>
</svg>
