<svg width="32" height="32" viewBox="0 0 32 32" fill="none" xmlns="http://www.w3.org/2000/svg">
<path fill-rule="evenodd" clip-rule="evenodd" d="M2 4C2 2.89543 2.89543 2 4 2H28C29.1046 2 30 2.89543 30 4V12C30 13.1046 29.1046 14 28 14H4C2.89543 14 2 13.1046 2 12V4ZM4 4H28V12H4V4Z" fill="black"/>
<path d="M11 16C9.89543 16 9 16.8954 9 18C9 19.1046 9.89543 20 11 20C12.1046 20 13 19.1046 13 18C13 16.8954 12.1046 16 11 16Z" fill="black"/>
<path d="M6 19C4.89543 19 4 19.8954 4 21C4 22.1046 4.89543 23 6 23C7.10457 23 8 22.1046 8 21C8 19.8954 7.10457 19 6 19Z" fill="black"/>
<path d="M14 21C14 19.8954 14.8954 19 16 19C17.1046 19 18 19.8954 18 21C18 22.1046 17.1046 23 16 23C14.8954 23 14 22.1046 14 21Z" fill="black"/>
<path d="M21 16C19.8954 16 19 16.8954 19 18C19 19.1046 19.8954 20 21 20C22.1046 20 23 19.1046 23 18C23 16.8954 22.1046 16 21 16Z" fill="black"/>
<path d="M24 21C24 19.8954 24.8954 19 26 19C27.1046 19 28 19.8954 28 21C28 22.1046 27.1046 23 26 23C24.8954 23 24 22.1046 24 21Z" fill="black"/>
<path d="M2 28C2 25.7909 3.79086 24 6 24C8.20914 24 10 25.7909 10 28V29C10 29.5523 9.55228 30 9 30C8.44772 30 8 29.5523 8 29V28C8 26.8954 7.10457 26 6 26C4.89543 26 4 26.8954 4 28V29C4 29.5523 3.55228 30 3 30C2.44772 30 2 29.5523 2 29V28Z" fill="black"/>
<path d="M16 24C13.7909 24 12 25.7909 12 28V29C12 29.5523 12.4477 30 13 30C13.5523 30 14 29.5523 14 29V28C14 26.8954 14.8954 26 16 26C17.1046 26 18 26.8954 18 28V29C18 29.5523 18.4477 30 19 30C19.5523 30 20 29.5523 20 29V28C20 25.7909 18.2091 24 16 24Z" fill="black"/>
<path d="M22 28C22 25.7909 23.7909 24 26 24C28.2091 24 30 25.7909 30 28V29C30 29.5523 29.5523 30 29 30C28.4477 30 28 29.5523 28 29V28C28 26.8954 27.1046 26 26 26C24.8954 26 24 26.8954 24 28V29C24 29.5523 23.5523 30 23 30C22.4477 30 22 29.5523 22 29V28Z" fill="black"/>
</svg>
