<svg width="32" height="32" viewBox="0 0 32 32" fill="none" xmlns="http://www.w3.org/2000/svg">
<g id="AisGrid">
<g id="Vector">
<path d="M12 4H7C5.346 4 4 5.346 4 7V12C4 13.654 5.346 15 7 15H12C13.654 15 15 13.654 15 12V7C15 5.346 13.654 4 12 4ZM13 12C13 12.551 12.551 13 12 13H7C6.449 13 6 12.551 6 12V7C6 6.449 6.449 6 7 6H12C12.551 6 13 6.449 13 7V12Z" fill="black"/>
<path d="M25 4H20C18.346 4 17 5.346 17 7V12C17 13.654 18.346 15 20 15H25C26.654 15 28 13.654 28 12V7C28 5.346 26.654 4 25 4ZM26 12C26 12.551 25.551 13 25 13H20C19.449 13 19 12.551 19 12V7C19 6.449 19.449 6 20 6H25C25.551 6 26 6.449 26 7V12Z" fill="black"/>
<path d="M12 17H7C5.346 17 4 18.346 4 20V25C4 26.654 5.346 28 7 28H12C13.654 28 15 26.654 15 25V20C15 18.346 13.654 17 12 17ZM13 25C13 25.551 12.551 26 12 26H7C6.449 26 6 25.551 6 25V20C6 19.449 6.449 19 7 19H12C12.551 19 13 19.449 13 20V25Z" fill="black"/>
<path d="M25 17H20C18.346 17 17 18.346 17 20V25C17 26.654 18.346 28 20 28H25C26.654 28 28 26.654 28 25V20C28 18.346 26.654 17 25 17ZM26 25C26 25.551 25.551 26 25 26H20C19.449 26 19 25.551 19 25V20C19 19.449 19.449 19 20 19H25C25.551 19 26 19.449 26 20V25Z" fill="black"/>
</g>
</g>
</svg>
