<svg width="32" height="32" viewBox="0 0 32 32" fill="none" xmlns="http://www.w3.org/2000/svg">
<g id="AisGoogle">
<path id="Union" d="M20.9833 10.0958C19.6292 8.80667 17.9175 8.14583 16 8.14583C12.6092 8.14583 9.73833 10.4317 8.70917 13.5192C8.44917 14.2992 8.2975 15.1333 8.2975 16C8.2975 16.8667 8.43833 17.7008 8.70917 18.4808C9.73833 21.5683 12.6092 23.8542 16 23.8542C17.755 23.8542 19.2392 23.3775 20.4092 22.5975C21.7742 21.6767 22.695 20.3225 23.0092 18.7192H16V13.8333H28.2417C28.3717 14.6242 28.4475 15.4367 28.4475 16.2925C28.4475 20.2467 27.0392 23.5833 24.5908 25.8475C22.4458 27.83 19.51 29 16 29C10.9192 29 6.53167 26.075 4.3975 21.8283C3.50917 20.0733 3 18.1017 3 16C3 13.8983 3.50917 11.9267 4.3975 10.1717C6.53167 5.925 10.9192 3 16 3C19.51 3 22.4458 4.28917 24.6883 6.39083L20.9833 10.0958Z" fill="black"/>
</g>
</svg>
