<svg width="32" height="32" viewBox="0 0 32 32" fill="none" xmlns="http://www.w3.org/2000/svg">
<path fill-rule="evenodd" clip-rule="evenodd" d="M6.10051 13.1005C8.72602 10.475 12.287 9 16 9C19.713 9 23.274 10.475 25.8995 13.1005C28.525 15.726 30 19.287 30 23C30 23.5523 29.5523 24 29 24H18.8293C18.4175 25.1652 17.3062 26 16 26C14.6938 26 13.5825 25.1652 13.1707 24H3C2.44772 24 2 23.5523 2 23C2 19.287 3.475 15.726 6.10051 13.1005ZM27.9583 22H18.8293C18.7998 21.9166 18.7667 21.8349 18.7303 21.755L23.364 17.1213C23.7545 16.7308 23.7545 16.0976 23.364 15.7071C22.9734 15.3166 22.3403 15.3166 21.9498 15.7071L17.3411 20.3157C16.9375 20.1137 16.482 20 16 20C14.6938 20 13.5825 20.8348 13.1707 22H4.04171C4.27712 19.1837 5.50119 16.5282 7.51472 14.5147C9.76516 12.2643 12.8174 11 16 11C19.1826 11 22.2348 12.2643 24.4853 14.5147C26.4988 16.5282 27.7229 19.1837 27.9583 22Z" fill="black"/>
</svg>
