<svg width="32" height="32" viewBox="0 0 32 32" fill="none" xmlns="http://www.w3.org/2000/svg">
<g id="AisGraphPie">
<path id="Vector" d="M16 3C8.832 3 3 8.832 3 16C3 23.168 8.832 29 16 29C23.168 29 29 23.168 29 16C29 8.832 23.168 3 16 3ZM26.949 15H17V5.05099C22.268 5.52899 26.472 9.732 26.949 15ZM5 16C5 10.272 9.402 5.55799 15 5.05099V16C15 16.13 15.027 16.26 15.077 16.382C15.128 16.504 15.201 16.615 15.293 16.707L23.034 24.448C21.126 26.04 18.674 27 16 27C9.935 27 5 22.065 5 16V16ZM24.448 23.034L18.414 17H26.949C26.742 19.283 25.838 21.366 24.448 23.034Z" fill="black"/>
</g>
</svg>
