<svg width="32" height="32" viewBox="0 0 32 32" fill="none" xmlns="http://www.w3.org/2000/svg">
<path fill-rule="evenodd" clip-rule="evenodd" d="M15.9731 2.00009C12.4179 2.00056 8.97883 3.24997 6.27107 5.52483C3.56331 7.79968 1.76353 10.9516 1.19366 14.4167C0.623796 17.8818 1.32102 21.4341 3.16063 24.4381C5.00023 27.4421 7.8622 29.7019 11.2346 30.8132C11.9833 30.9505 12.3042 30.4963 12.3042 30.1055C12.3042 29.7147 12.3042 28.8275 12.3042 27.5918C8.14328 28.479 7.26617 25.6061 7.26617 25.6061C6.97357 24.7008 6.35774 23.9313 5.53334 23.4409C4.17488 22.5326 5.6403 22.5432 5.6403 22.5432C6.1148 22.6093 6.56771 22.7817 6.96443 23.0472C7.36115 23.3126 7.6912 23.664 7.92935 24.0746C8.34368 24.8084 9.03616 25.3497 9.85454 25.5794C10.6729 25.8092 11.5502 25.7086 12.2935 25.2998C12.3539 24.5504 12.6885 23.8484 13.2348 23.3247C9.9189 22.9445 6.42115 21.6771 6.42115 16.0158C6.39689 14.5455 6.94872 13.1227 7.96144 12.0445C7.50306 10.771 7.55665 9.37233 8.11119 8.1366C8.11119 8.1366 9.36269 7.73525 12.2293 9.64697C14.6804 8.98679 17.2658 8.98679 19.7169 9.64697C22.5729 7.73525 23.8244 8.1366 23.8244 8.1366C24.3789 9.37233 24.4325 10.771 23.9741 12.0445C24.9868 13.1227 25.5387 14.5455 25.5144 16.0158C25.5144 21.6982 22.0167 22.9445 18.6793 23.3142C19.0368 23.672 19.3125 24.1013 19.4878 24.5732C19.6631 25.045 19.7339 25.5485 19.6955 26.0497C19.6955 28.0248 19.6955 29.6197 19.6955 30.1055C19.6955 30.5914 19.9629 30.9611 20.7652 30.8132C24.142 29.7005 27.0069 27.4364 28.8462 24.4268C30.6855 21.4173 31.3789 17.8592 30.802 14.3906C30.2251 10.9219 28.4157 7.76966 25.6982 5.49903C22.9808 3.22841 19.533 1.98794 15.9731 2.00009V2.00009Z" fill="black"/>
</svg>
