<svg width="32" height="32" viewBox="0 0 32 32" fill="none" xmlns="http://www.w3.org/2000/svg">
<g id="AisGraphBar">
<path id="Vector" d="M29 26H28V15C28 14.448 27.552 14 27 14H23C22.448 14 22 14.448 22 15V26H20V19C20 18.448 19.552 18 19 18H15C14.448 18 14 18.448 14 19V26H12V9C12 8.448 11.552 8 11 8H7C6.448 8 6 8.448 6 9V26H4V5C4 4.448 3.552 4 3 4C2.448 4 2 4.448 2 5V27C2 27.552 2.448 28 3 28H29C29.552 28 30 27.552 30 27C30 26.448 29.552 26 29 26ZM8 26V10H10V26H8ZM16 26V20H18V26H16ZM24 26V16H26V26H24Z" fill="black"/>
</g>
</svg>
