<svg width="32" height="32" viewBox="0 0 32 32" fill="none" xmlns="http://www.w3.org/2000/svg">
<path d="M16 2C8.265 2 2 8.2685 2 16C2 22.1868 6.011 27.4333 11.5725 29.2825C12.2725 29.4143 12.5292 28.9815 12.5292 28.6093C12.5292 28.2768 12.5175 27.396 12.5117 26.2293C8.61733 27.074 7.796 24.351 7.796 24.351C7.159 22.7352 6.2385 22.3035 6.2385 22.3035C4.97033 21.4355 6.3365 21.453 6.3365 21.453C7.74233 21.551 8.48083 22.895 8.48083 22.895C9.72917 25.0358 11.758 24.4175 12.5583 24.0593C12.6843 23.154 13.0448 22.5368 13.445 22.1868C10.3358 21.8368 7.068 20.6328 7.068 15.2685C7.068 13.7402 7.6105 12.4918 8.50883 11.5118C8.35133 11.1583 7.87883 9.735 8.63133 7.8065C8.63133 7.8065 9.80383 7.43083 12.4813 9.2415C13.6013 8.93 14.7913 8.776 15.9813 8.769C17.1713 8.776 18.3613 8.93 19.4813 9.2415C22.1413 7.43083 23.3138 7.8065 23.3138 7.8065C24.0663 9.735 23.5938 11.1583 23.4538 11.5118C24.3463 12.4918 24.8888 13.7402 24.8888 15.2685C24.8888 20.6468 21.6163 21.831 18.5013 22.1752C18.9913 22.5952 19.4463 23.4538 19.4463 24.7652C19.4463 26.6388 19.4288 28.1438 19.4288 28.5988C19.4288 28.9663 19.6738 29.4038 20.3913 29.2638C25.9925 27.4275 30 22.1775 30 16C30 8.2685 23.7315 2 16 2Z" fill="black"/>
</svg>
