<svg width="32" height="32" viewBox="0 0 32 32" fill="none" xmlns="http://www.w3.org/2000/svg">
<path fill-rule="evenodd" clip-rule="evenodd" d="M21 26V6C21 4.89543 21.8954 4 23 4H25C26.1046 4 27 4.89543 27 6V26H29C29.5523 26 30 26.4477 30 27C30 27.5523 29.5523 28 29 28H3C2.44771 28 2 27.5523 2 27C2 26.4477 2.44772 26 3 26H5V18C5 16.8954 5.89543 16 7 16H9C10.1046 16 11 16.8954 11 18V26H13V14C13 12.8954 13.8954 12 15 12H17C18.1046 12 19 12.8954 19 14V26H21ZM23 6H25V26H23V6ZM17 14H15V26H17V14ZM7 18H9V26H7V18Z" fill="black"/>
</svg>
