<svg width="32" height="32" viewBox="0 0 32 32" fill="none" xmlns="http://www.w3.org/2000/svg">
<path d="M29.535 13.6742L29.4957 13.5736L25.6843 3.62729C25.6068 3.43229 25.4695 3.26687 25.2921 3.15477C25.1146 3.04464 24.9076 2.99162 24.699 3.00287C24.4905 3.01411 24.2904 3.08908 24.1257 3.21766C23.9629 3.3499 23.8447 3.52911 23.7874 3.73089L21.2142 11.6039H10.7942L8.22074 3.73089C8.16492 3.52799 8.04652 3.34786 7.8824 3.21614C7.71775 3.0876 7.51764 3.01267 7.30906 3.00147C7.10049 2.99027 6.8935 3.04333 6.71603 3.15349C6.53905 3.26601 6.40185 3.43124 6.32378 3.62589L2.50548 13.5678L2.46756 13.6684C1.91891 15.1019 1.85118 16.6749 2.27458 18.1502C2.69798 19.6255 3.58955 20.9232 4.81487 21.8476L4.82806 21.8578L4.86306 21.8826L10.6686 26.2303L13.5411 28.4042L15.2906 29.725C15.4952 29.8804 15.7451 29.9645 16.0021 29.9645C16.259 29.9645 16.5089 29.8804 16.7136 29.725L18.4631 28.4042L21.3354 26.2303L27.176 21.8564L27.1906 21.8447C28.4131 20.9201 29.3026 19.6238 29.7254 18.1504C30.1482 16.6771 30.0813 15.1063 29.535 13.6742Z" fill="black"/>
</svg>
