<svg width="32" height="32" viewBox="0 0 32 32" fill="none" xmlns="http://www.w3.org/2000/svg">
<path fill-rule="evenodd" clip-rule="evenodd" d="M30 16C30 8.26801 23.732 2 16 2C8.26801 2 2 8.26801 2 16C2 23.732 8.26801 30 16 30C23.732 30 30 23.732 30 16ZM16.9306 27.4763C16.4643 27.9366 16.1521 28 16 28C15.8479 28 15.5357 27.9366 15.0694 27.4763C14.5945 27.0076 14.075 26.2302 13.5956 25.1117C12.728 23.0871 12.1206 20.2463 12.016 17H19.984C19.8794 20.2463 19.272 23.0871 18.4044 25.1117C17.925 26.2302 17.4055 27.0076 16.9306 27.4763ZM19.984 15H12.016C12.1206 11.7537 12.728 8.91293 13.5956 6.88834C14.075 5.76981 14.5945 4.9924 15.0694 4.52368C15.5357 4.06345 15.8479 4 16 4C16.1521 4 16.4643 4.06345 16.9306 4.52368C17.4055 4.9924 17.925 5.76981 18.4044 6.88834C19.272 8.91293 19.8794 11.7537 19.984 15ZM21.9849 17C21.8533 21.3526 20.8689 25.1559 19.4192 27.5059C24.0737 26.1248 27.5467 21.9963 27.9589 17H21.9849ZM27.9589 15H21.9849C21.8533 10.6474 20.8689 6.84406 19.4192 4.49415C24.0737 5.87523 27.5467 10.0037 27.9589 15ZM10.0151 15C10.1467 10.6474 11.1311 6.84406 12.5808 4.49415C7.92632 5.87523 4.45326 10.0037 4.04107 15H10.0151ZM4.04107 17C4.45326 21.9963 7.92632 26.1248 12.5808 27.5059C11.1311 25.1559 10.1467 21.3526 10.0151 17H4.04107Z" fill="black"/>
</svg>
