<svg width="32" height="32" viewBox="0 0 32 32" fill="none" xmlns="http://www.w3.org/2000/svg">
<path fill-rule="evenodd" clip-rule="evenodd" d="M16 3C8.832 3 3 8.832 3 16C3 23.168 8.832 29 16 29C23.168 29 29 23.168 29 16C29 8.832 23.168 3 16 3ZM22.9291 17C22.7595 18.186 22.2926 19.276 21.6063 20.1923L24.448 23.034C25.838 21.366 26.742 19.283 26.949 17H22.9291ZM20.1923 21.6063C19.0237 22.4816 17.5724 23 16 23C12.134 23 9 19.866 9 16C9 12.4735 11.6077 9.55612 15 9.07089V5.05099C9.402 5.55799 5 10.272 5 16C5 22.065 9.935 27 16 27C18.674 27 21.126 26.04 23.034 24.448L20.1923 21.6063ZM17 9.07089V5.05099C22.268 5.529 26.472 9.732 26.949 15H22.9291C22.4906 11.9343 20.0657 9.5094 17 9.07089ZM21 16C21 18.7614 18.7614 21 16 21C13.2386 21 11 18.7614 11 16C11 13.2386 13.2386 11 16 11C18.7614 11 21 13.2386 21 16Z" fill="black"/>
</svg>
