<svg width="32" height="32" viewBox="0 0 32 32" fill="none" xmlns="http://www.w3.org/2000/svg">
<g id="AisGoogleDrive">
<path id="Union" fill-rule="evenodd" clip-rule="evenodd" d="M28.9851 19.7846H29C29 20.2463 28.8809 20.7079 28.6426 21.1249L26.3643 25.071L25.8877 25.89C25.6495 26.307 25.307 26.6346 24.9049 26.8729C24.5029 27.0962 24.0412 27.2302 23.5647 27.2302H8.43528C7.95876 27.2302 7.49714 27.1111 7.09507 26.8729C6.69301 26.6346 6.35052 26.307 6.11226 25.89L4.96564 23.9095L3.35739 21.1249C3.11913 20.7079 3 20.2463 3 19.7846C3.00031 19.3144 3.12351 18.8524 3.35739 18.4444L10.9221 5.34021C11.1604 4.92325 11.5029 4.59565 11.9049 4.35739C12.307 4.13402 12.7686 4 13.2451 4H18.7549C19.2314 4 19.693 4.11913 20.0951 4.35739C20.4971 4.59565 20.8396 4.92325 21.0779 5.34021L24.8603 11.8923L28.6277 18.4444C28.866 18.8614 28.9851 19.323 28.9851 19.7846ZM16 11.4456L11.1901 19.7846H20.8093L16 11.4456Z" fill="black"/>
</g>
</svg>
