<svg width="32" height="32" viewBox="0 0 32 32" fill="none" xmlns="http://www.w3.org/2000/svg">
<path d="M16.0125 2.85625C13.41 2.85625 11.32 2.88125 11.3338 2.915C11.3463 2.94 13.4688 6.66625 16.0513 11.19L20.7512 19.4075H25.4513C28.0525 19.4075 30.1425 19.3825 30.1287 19.3487C30.1225 19.3237 27.9937 15.5975 25.41 11.0737L20.71 2.85625H16.0125ZM10.0625 5.01875C8.53786 7.64467 7.02535 10.2776 5.525 12.9175L1 20.835L3.3625 24.9575L5.71875 29.0787L10.2437 21.16L14.7662 13.2475L12.4163 9.13875C11.125 6.88 10.0687 5.02625 10.0625 5.01875ZM12.8862 20.835L12.6325 21.27C12.49 21.5175 11.4325 23.36 10.2825 25.3787C9.58 26.6191 8.87249 27.8566 8.16 29.0912C8.1475 29.1237 12.21 29.1437 17.1875 29.1437H26.2425L28.4875 25.1975C29.7275 23.03 30.8 21.16 30.87 21.0437L31 20.835H21.9387H12.8862Z" fill="black"/>
</svg>
