<svg width="32" height="32" viewBox="0 0 32 32" fill="none" xmlns="http://www.w3.org/2000/svg">
<path d="M21.75 9.1875C20.1875 7.7 18.2125 6.9375 16 6.9375C12.0875 6.9375 8.775 9.575 7.5875 13.1375C7.2875 14.0375 7.1125 15 7.1125 16C7.1125 17 7.275 17.9625 7.5875 18.8625C8.775 22.425 12.0875 25.0625 16 25.0625C18.025 25.0625 19.7375 24.5125 21.0875 23.6125C22.6625 22.55 23.725 20.9875 24.0875 19.1375H16V13.5H30.125C30.275 14.4125 30.3625 15.35 30.3625 16.3375C30.3625 20.9 28.7375 24.75 25.9125 27.3625C23.4375 29.65 20.05 31 16 31C10.1375 31 5.075 27.625 2.6125 22.725C1.5875 20.7 1 18.425 1 16C1 13.575 1.5875 11.3 2.6125 9.275C5.075 4.375 10.1375 1 16 1C20.05 1 23.4375 2.4875 26.025 4.9125L21.75 9.1875Z" fill="black"/>
</svg>
