<svg width="32" height="32" viewBox="0 0 32 32" fill="none" xmlns="http://www.w3.org/2000/svg">
<path fill-rule="evenodd" clip-rule="evenodd" d="M15.9767 3.00008C12.8955 3.00049 9.91498 4.09143 7.56826 6.07776C5.22154 8.06409 3.66173 10.8162 3.16784 13.8418C2.67396 16.8675 3.27822 19.9692 4.87254 22.5922C6.46687 25.2152 8.94724 27.1884 11.87 28.1587C12.5189 28.2786 12.797 27.882 12.797 27.5408C12.797 27.1996 12.797 26.4249 12.797 25.3459C9.19085 26.1206 8.43068 23.6121 8.43068 23.6121C8.17709 22.8216 7.64337 22.1497 6.92889 21.7215C5.75156 20.9284 7.02159 20.9376 7.02159 20.9376C7.43283 20.9954 7.82535 21.1459 8.16918 21.3777C8.513 21.6094 8.79904 21.9163 9.00544 22.2748C9.36452 22.9156 9.96467 23.3882 10.6739 23.5888C11.3832 23.7894 12.1435 23.7016 12.7877 23.3446C12.8401 22.6903 13.13 22.0773 13.6035 21.6201C10.7297 21.288 7.69833 20.1814 7.69833 15.2382C7.67731 13.9543 8.15556 12.712 9.03325 11.7706C8.63598 10.6585 8.68243 9.43727 9.16303 8.35828C9.16303 8.35828 10.2477 8.00783 12.7321 9.67708C14.8564 9.10063 17.097 9.10063 19.2213 9.67708C21.6965 8.00783 22.7811 8.35828 22.7811 8.35828C23.2617 9.43727 23.3082 10.6585 22.9109 11.7706C23.7886 12.712 24.2668 13.9543 24.2458 15.2382C24.2458 20.1998 21.2144 21.288 18.3221 21.6108C18.6319 21.9232 18.8708 22.2981 19.0228 22.7101C19.1747 23.1222 19.2361 23.5618 19.2028 23.9994C19.2028 25.724 19.2028 27.1166 19.2028 27.5408C19.2028 27.965 19.4345 28.2878 20.1298 28.1587C23.0564 27.1872 25.5393 25.2102 27.1334 22.5824C28.7275 19.9545 29.3284 16.8477 28.8284 13.819C28.3285 10.7903 26.7603 8.03787 24.4051 6.05524C22.05 4.0726 19.0619 2.98947 15.9767 3.00008Z" fill="black"/>
</svg>
