<svg width="33" height="32" viewBox="0 0 33 32" fill="none" xmlns="http://www.w3.org/2000/svg">
<path fill-rule="evenodd" clip-rule="evenodd" d="M14.6482 7.88268C15.441 6.70578 17.1731 6.70577 17.9658 7.88268L20.2694 11.3027C21.1643 12.6311 20.2124 14.42 18.6107 14.42H14.0034C12.4017 14.42 11.4498 12.6311 12.3446 11.3027L14.6482 7.88268ZM16.307 9L18.6107 12.42H14.0034L16.307 9Z" fill="black"/>
<path fill-rule="evenodd" clip-rule="evenodd" d="M17.9658 24.9573C17.1731 26.1342 15.441 26.1342 14.6482 24.9573L12.3446 21.5373C11.4498 20.2088 12.4017 18.42 14.0034 18.42L18.6107 18.42C20.2124 18.42 21.1643 20.2088 20.2694 21.5373L17.9658 24.9573ZM16.307 23.84L14.0034 20.42L18.6107 20.42L16.307 23.84Z" fill="black"/>
</svg>
