<svg width="32" height="32" viewBox="0 0 32 32" fill="none" xmlns="http://www.w3.org/2000/svg">
<path fill-rule="evenodd" clip-rule="evenodd" d="M9.69915 12H6C4.89543 12 4 12.8954 4 14V28C4 29.1045 4.89543 30 6 30H26C27.1046 30 28 29.1045 28 28V14C28 12.8954 27.1046 12 26 12H22.4308C22.8435 11.7634 23.1815 11.5286 23.4068 11.3033C24.9354 9.77467 24.9354 7.29633 23.4068 5.76774C21.8782 4.23915 19.3999 4.23915 17.8713 5.76774C17.0934 6.54566 16.4048 8.87065 15.9161 10.9666C15.3543 8.38465 14.4853 5.16016 13.4876 4.16251C11.741 2.41588 8.90917 2.41588 7.16254 4.16251C5.41592 5.90913 5.41592 8.74097 7.16254 10.4876C7.6477 10.9728 8.59045 11.4965 9.69915 12ZM8.57676 5.57672C9.54233 4.61115 11.1078 4.61115 12.0734 5.57672L12.0721 5.57536C12.0761 5.58 12.1023 5.60992 12.1463 5.67585C12.199 5.75478 12.2641 5.86558 12.3394 6.0137C12.4916 6.31303 12.6551 6.70507 12.8239 7.1806C13.1615 8.13169 13.4749 9.28751 13.7454 10.4355C13.8339 10.8111 13.9168 11.1816 13.9936 11.5386C13.7396 11.4497 13.4789 11.3568 13.2151 11.2605C12.1742 10.8806 11.1141 10.4597 10.2265 10.0402C9.26846 9.58742 8.74578 9.2424 8.57676 9.07338C7.61118 8.1078 7.61118 6.5423 8.57676 5.57672ZM26 14H18V20H26V14ZM26 22H18V28H26V22ZM14 20V14H6V20H14ZM6 22H14V28H6V22ZM19.29 7.1776L19.2884 7.17906C20.0362 6.43441 21.246 6.43537 21.9926 7.18195C22.7401 7.9295 22.7401 9.1415 21.9926 9.88905C21.8781 10.0036 21.4562 10.2902 20.6186 10.686C19.8515 11.0486 18.9317 11.414 18.0242 11.7451C17.9386 11.7764 17.8533 11.8072 17.7686 11.8376C17.8072 11.6654 17.8472 11.4908 17.8887 11.3149C18.1245 10.3143 18.3964 9.3127 18.6874 8.49259C18.833 8.08255 18.972 7.75019 19.0987 7.50099C19.2035 7.29488 19.2708 7.2039 19.2865 7.18264C19.2889 7.17932 19.2901 7.1777 19.29 7.1776Z" fill="black"/>
</svg>
