<svg width="32" height="32" viewBox="0 0 32 32" fill="none" xmlns="http://www.w3.org/2000/svg">
<path d="M4.99874 24C4.81774 24 4.63475 23.951 4.46975 23.848V23.849C4.00175 23.556 3.85974 22.939 4.15174 22.471L9.15174 14.471C9.31374 14.212 9.58374 14.042 9.88674 14.007C10.1917 13.97 10.4917 14.079 10.7067 14.294L14.7687 18.356L19.1247 10.515C19.1817 10.412 19.2578 10.319 19.3478 10.242L26.3477 4.242C26.7657 3.882 27.3977 3.931 27.7577 4.35C28.1177 4.769 28.0687 5.40101 27.6497 5.76001L20.7857 11.643L15.8727 20.486C15.7207 20.76 15.4487 20.947 15.1377 20.99C14.8247 21.032 14.5138 20.929 14.2918 20.707L10.1807 16.596L5.84775 23.53C5.65775 23.833 5.33174 24 4.99874 24Z" fill="black"/>
<path d="M3 26C2.44772 26 2 26.4477 2 27C2 27.5523 2.44771 28 3 28H29C29.5523 28 30 27.5523 30 27C30 26.4477 29.5523 26 29 26H3Z" fill="black"/>
</svg>
