<svg width="32" height="32" viewBox="0 0 32 32" fill="none" xmlns="http://www.w3.org/2000/svg">
<path fill-rule="evenodd" clip-rule="evenodd" d="M16.6332 5.81015C16.2649 5.50876 15.7351 5.50876 15.3668 5.81015L6.36676 13.1738C6.13463 13.3637 6 13.6478 6 13.9477V25H12V17C12 15.8954 12.8954 15 14 15H18C19.1046 15 20 15.8954 20 17V25H26V13.9477C26 13.6478 25.8654 13.3637 25.6332 13.1738L16.6332 5.81015ZM14.1003 4.26223C15.2054 3.35806 16.7946 3.35806 17.8997 4.26223L26.8997 11.6259C27.5961 12.1957 28 13.0479 28 13.9477V25C28 26.1046 27.1046 27 26 27H20C18.8954 27 18 26.1046 18 25V17H14V25C14 26.1046 13.1046 27 12 27H6C4.89543 27 4 26.1046 4 25V13.9477C4 13.0479 4.40388 12.1957 5.10029 11.6259L14.1003 4.26223Z" fill="black"/>
</svg>
