<svg width="32" height="32" viewBox="0 0 32 32" fill="none" xmlns="http://www.w3.org/2000/svg">
<path d="M3 5C2.44772 5 2 5.44772 2 6V26C2 26.5523 2.44772 27 3 27C3.55228 27 4 26.5523 4 26V17H14V26C14 26.5523 14.4477 27 15 27C15.5523 27 16 26.5523 16 26V6C16 5.44772 15.5523 5 15 5C14.4477 5 14 5.44772 14 6V15H4V6C4 5.44772 3.55228 5 3 5Z" fill="black"/>
<path d="M21.9041 26.6946C22.6712 27.0308 23.5424 27.1989 24.5178 27.1989C25.5121 27.1989 26.3951 27.0189 27.1669 26.6591C27.9387 26.2945 28.5471 25.795 28.9922 25.1605C29.442 24.526 29.6645 23.8087 29.6598 23.0085C29.6645 22.09 29.3994 21.3205 28.8643 20.7003C28.3449 20.0927 27.6165 19.7123 26.6791 19.559C26.6452 19.5535 26.62 19.5243 26.62 19.49C26.62 19.4583 26.6416 19.4306 26.6722 19.4223C27.4055 19.2243 27.9942 18.8477 28.4382 18.2926C28.8975 17.7244 29.1248 17.0331 29.12 16.2187C29.1248 15.5038 28.9401 14.8456 28.5661 14.2443C28.1967 13.643 27.6712 13.1624 26.9893 12.8026C26.3123 12.438 25.5073 12.2557 24.5746 12.2557C23.6844 12.2557 22.8748 12.4238 22.1456 12.7599C21.4164 13.0961 20.8293 13.5625 20.3842 14.1591C20.1444 14.484 19.9664 14.8371 19.8501 15.2182C19.6856 15.7578 20.1547 16.233 20.7188 16.233H20.8534C21.3892 16.233 21.797 15.7821 22.066 15.3187C22.1123 15.2389 22.1649 15.1625 22.2237 15.0895C22.4794 14.7675 22.8108 14.5213 23.218 14.3509C23.63 14.1757 24.0727 14.0881 24.5462 14.0881C25.0433 14.0881 25.4742 14.1828 25.8388 14.3722C26.2081 14.5616 26.4922 14.8243 26.6911 15.1605C26.8946 15.4919 26.9964 15.8826 26.9964 16.3324C26.9964 16.8011 26.8804 17.2107 26.6484 17.5611C26.4164 17.9067 26.0945 18.1766 25.6825 18.3707C25.2753 18.5649 24.8018 18.6619 24.2621 18.6619H23.9283C23.434 18.6619 23.0334 19.0626 23.0334 19.5568C23.0334 20.051 23.434 20.4517 23.9283 20.4517H24.2621C24.9344 20.4517 25.5073 20.5582 25.9808 20.7713C26.459 20.9844 26.8213 21.2779 27.0675 21.652C27.3184 22.0213 27.4439 22.4498 27.4439 22.9375C27.4439 23.4062 27.3184 23.8205 27.0675 24.1804C26.8165 24.5355 26.4685 24.8125 26.0234 25.0114C25.5831 25.2102 25.0765 25.3097 24.5036 25.3097C23.9827 25.3097 23.5092 25.2244 23.0831 25.054C22.657 24.8835 22.3113 24.642 22.0462 24.3295C21.9846 24.2546 21.9296 24.1765 21.881 24.0952C21.6108 23.643 21.2034 23.2074 20.6767 23.2074H20.4256C19.8569 23.2074 19.3869 23.6898 19.556 24.2327C19.6751 24.6149 19.8541 24.9691 20.093 25.2955C20.5381 25.892 21.1418 26.3584 21.9041 26.6946Z" fill="black"/>
</svg>
