<svg width="32" height="32" viewBox="0 0 32 32" fill="none" xmlns="http://www.w3.org/2000/svg">
<path fill-rule="evenodd" clip-rule="evenodd" d="M16 29C23.1797 29 29 23.1797 29 16C29 8.8203 23.1797 3 16 3C8.8203 3 3 8.8203 3 16C3 23.1797 8.8203 29 16 29ZM15 16C15 15.4477 15.4477 15 16 15C16.0446 15 16.0886 15.0029 16.1316 15.0086C16.1766 14.997 16.2222 14.9882 16.2679 14.982C16.4311 14.9599 16.5917 14.9177 16.746 14.8557C17.108 14.7101 17.4196 14.4619 17.6423 14.1414C17.865 13.821 17.9891 13.4424 17.9993 13.0524C18.0095 12.6623 17.9054 12.2777 17.6998 11.9461C17.4942 11.6145 17.196 11.3502 16.8421 11.1859C16.4881 11.0216 16.0939 10.9645 15.7078 11.0215C15.3218 11.0785 14.9609 11.2471 14.6695 11.5067C14.5454 11.6174 14.4361 11.7424 14.3439 11.8788C14.1374 12.1836 13.7798 12.4051 13.4242 12.3098C12.7129 12.1192 12.2749 11.3673 12.6877 10.7575C12.6993 10.7405 12.7109 10.7235 12.7227 10.7067C12.7522 10.6645 12.7826 10.6229 12.8137 10.5818C12.9195 10.4424 13.0346 10.3097 13.1585 10.1847C13.2168 10.1259 13.277 10.0688 13.3391 10.0134C13.9218 9.49429 14.6436 9.15692 15.4157 9.04291C16.1877 8.92891 16.9763 9.04324 17.6841 9.37183C18.392 9.70041 18.9883 10.2289 19.3996 10.8922C19.8108 11.5555 20.0191 12.3246 19.9986 13.1047C19.9782 13.8849 19.73 14.642 19.2846 15.2829C18.8392 15.9237 18.2161 16.4203 17.492 16.7113C17.331 16.776 17.1667 16.8299 17 16.873V18C17 18.5523 16.5523 19 16 19C15.4477 19 15 18.5523 15 18V16ZM16 21C15.4477 21 15 21.4477 15 22C15 22.5523 15.4477 23 16 23C16.5523 23 17 22.5523 17 22C17 21.4477 16.5523 21 16 21Z" fill="black"/>
</svg>
