<svg width="32" height="32" viewBox="0 0 32 32" fill="none" xmlns="http://www.w3.org/2000/svg">
<path d="M3 5C2.44772 5 2 5.44772 2 6V26C2 26.5523 2.44772 27 3 27C3.55228 27 4 26.5523 4 26V17H14V26C14 26.5523 14.4477 27 15 27C15.5523 27 16 26.5523 16 26V6C16 5.44772 15.5523 5 15 5C14.4477 5 14 5.44772 14 6V15H4V6C4 5.44772 3.55228 5 3 5Z" fill="black"/>
<path d="M22.0985 26.6875C22.8088 27.0284 23.609 27.1989 24.4991 27.1989C25.4745 27.1989 26.3386 26.9882 27.0914 26.5668C27.849 26.1406 28.4409 25.5582 28.867 24.8196C29.2979 24.081 29.511 23.2405 29.5062 22.2983C29.511 21.3561 29.3121 20.5227 28.9096 19.7983C28.5119 19.0691 27.965 18.4938 27.269 18.0724C26.5777 17.651 25.7894 17.4403 24.9039 17.4403C24.3642 17.4403 23.8575 17.5327 23.3841 17.7173C22.9242 17.8985 22.5532 18.1229 22.2711 18.3906C22.2606 18.4006 22.2467 18.4062 22.2322 18.4062C22.1988 18.4062 22.1729 18.3772 22.1766 18.344L22.5306 15.2239C22.5879 14.7185 23.0155 14.3366 23.5242 14.3366H27.862C28.3818 14.3366 28.8031 13.9153 28.8031 13.3956C28.8031 12.8759 28.3818 12.4545 27.862 12.4545H21.7007C21.1913 12.4545 20.7633 12.8375 20.7068 13.3438L20.096 18.8257C20.0364 19.3606 20.4107 19.8466 20.943 19.9256L21.5345 20.0134C21.8288 20.0571 22.1225 19.9587 22.3773 19.805C22.5812 19.682 22.815 19.5756 23.0787 19.4858C23.5237 19.3343 23.9664 19.2585 24.4068 19.2585C24.9844 19.2633 25.4958 19.3982 25.9409 19.6634C26.3907 19.9285 26.7434 20.2931 26.9991 20.7571C27.2548 21.2211 27.3826 21.7491 27.3826 22.3409C27.3826 22.9233 27.2572 23.4418 27.0062 23.8963C26.76 24.3509 26.4191 24.7083 25.9835 24.9688C25.5526 25.2244 25.0578 25.3523 24.4991 25.3523C23.7984 25.3523 23.197 25.151 22.6951 24.7486C22.4513 24.553 22.2605 24.3312 22.1229 24.0832C21.8705 23.6284 21.4641 23.2074 20.944 23.2074H20.771C20.2043 23.2074 19.7353 23.6863 19.9005 24.2284C20.0135 24.599 20.1827 24.9452 20.4082 25.267C20.8296 25.8684 21.3931 26.3419 22.0985 26.6875Z" fill="black"/>
</svg>
