<svg width="32" height="32" viewBox="0 0 32 32" fill="none" xmlns="http://www.w3.org/2000/svg">
<path fill-rule="evenodd" clip-rule="evenodd" d="M16 8C16.5523 8 17 8.44772 17 9V15.5858L19.7071 18.2929C20.0976 18.6834 20.0976 19.3166 19.7071 19.7071C19.3166 20.0976 18.6834 20.0976 18.2929 19.7071L15 16.4142V9C15 8.44772 15.4477 8 16 8Z" fill="black"/>
<path d="M22.6569 21.2427L23.7468 22.3327C24.9904 20.8114 25.7636 18.9509 25.9576 16.9807C26.1845 14.677 25.6056 12.3659 24.3195 10.4411C23.0334 8.51634 21.1197 7.09705 18.9045 6.42508C16.6893 5.7531 14.3096 5.87001 12.171 6.75588C10.0323 7.64174 8.26693 9.24177 7.1757 11.2833C6.08447 13.3249 5.73488 15.6816 6.18649 17.952C6.6381 20.2224 7.86298 22.266 9.65241 23.7346C11.4153 25.1814 13.6187 25.9818 15.8972 26.0052C15.931 26.0018 15.9653 26 16 26C16.5523 26 17 26.4477 17 27C17 27.5523 16.5523 28 16 28C15.9978 28 15.9957 28 15.9935 28C13.2195 27.9985 10.5317 27.036 8.38728 25.2761C6.2412 23.5149 4.7722 21.064 4.23058 18.3411C3.68896 15.6182 4.10823 12.7917 5.41695 10.3432C6.72567 7.8948 8.84287 5.97588 11.4078 4.91345C13.9727 3.85102 16.8267 3.71081 19.4834 4.51672C22.1401 5.32263 24.4352 7.02478 25.9776 9.33316C27.52 11.6415 28.2143 14.4133 27.9422 17.1762C27.7029 19.6059 26.7293 21.8965 25.1629 23.7487L26.3137 24.8995C26.9437 25.5295 26.4975 26.6066 25.6066 26.6066H21.9497C21.3975 26.6066 20.9497 26.1589 20.9497 25.6066V21.9498C20.9497 21.0589 22.0269 20.6127 22.6569 21.2427Z" fill="black"/>
</svg>
