<svg width="32" height="32" viewBox="0 0 32 32" fill="none" xmlns="http://www.w3.org/2000/svg">
<path d="M3 5C2.44772 5 2 5.44772 2 6V26C2 26.5523 2.44772 27 3 27C3.55228 27 4 26.5523 4 26V17H14V26C14 26.5523 14.4477 27 15 27C15.5523 27 16 26.5523 16 26V6C16 5.44772 15.5523 5 15 5C14.4477 5 14 5.44772 14 6V15H4V6C4 5.44772 3.55228 5 3 5Z" fill="black"/>
<path d="M19.7663 26C19.7663 26.5523 20.2141 27 20.7663 27H28.3992C28.9189 27 29.3402 26.5787 29.3402 26.0589C29.3402 25.5392 28.9189 25.1179 28.3992 25.1179H22.868C22.826 25.1179 22.7919 25.0838 22.7919 25.0419C22.7919 25.0223 22.7995 25.0035 22.813 24.9893L25.6825 21.9858C26.568 21.0862 27.2592 20.3215 27.7564 19.6918C28.2536 19.0573 28.6016 18.482 28.8004 17.9659C29.004 17.4498 29.1058 16.9219 29.1058 16.3821C29.1058 15.6009 28.9093 14.9001 28.5163 14.2798C28.1233 13.6548 27.5765 13.1624 26.8757 12.8026C26.1797 12.438 25.3748 12.2557 24.4609 12.2557C23.5566 12.2557 22.7493 12.4403 22.0391 12.8097C21.3288 13.1742 20.7701 13.688 20.3629 14.3509C20.116 14.7528 19.944 15.1956 19.8468 15.6794C19.738 16.2208 20.1999 16.6733 20.7521 16.6733H20.8473C21.3996 16.6733 21.8209 16.2125 21.9964 15.6889C22.0409 15.5561 22.0954 15.4297 22.1598 15.3097C22.3681 14.9214 22.6664 14.6207 23.0547 14.4077C23.443 14.1946 23.8975 14.0881 24.4183 14.0881C24.9108 14.0881 25.3535 14.1851 25.7465 14.3793C26.1394 14.5687 26.4496 14.8409 26.6769 15.196C26.9041 15.5464 27.0178 15.9631 27.0178 16.446C27.0178 16.8722 26.9325 17.2746 26.7621 17.6534C26.5916 18.0322 26.3336 18.4323 25.9879 18.8537C25.647 19.2704 25.2138 19.7557 24.6882 20.3097L20.0468 25.1185C19.8669 25.3049 19.7663 25.5539 19.7663 25.813V26Z" fill="black"/>
</svg>
