<svg width="32" height="32" viewBox="0 0 32 32" fill="none" xmlns="http://www.w3.org/2000/svg">
<path d="M27.633 14.226L16.633 5.22601C16.266 4.92401 15.735 4.92401 15.367 5.22601L4.36702 14.226C3.93902 14.576 3.87599 15.205 4.22499 15.633C4.57499 16.06 5.20404 16.123 5.63204 15.774L5.99904 15.474V24C5.99904 25.654 7.34504 27 8.99904 27H22.999C24.653 27 25.999 25.654 25.999 24V15.474L26.366 15.774C26.552 15.926 26.775 16 26.998 16C27.288 16 27.575 15.875 27.773 15.633C28.123 15.205 28.059 14.575 27.631 14.226H27.633ZM14 25V19H18V25H14ZM24 24C24 24.551 23.552 25 23 25H20V18.661C20 17.745 19.255 17 18.34 17H13.66C12.745 17 12 17.745 12 18.661V25H9.00002C8.44802 25 8.00002 24.551 8.00002 24V13.837L16 7.29199L24 13.837V24Z" fill="black"/>
</svg>
