<svg width="32" height="32" viewBox="0 0 32 32" fill="none" xmlns="http://www.w3.org/2000/svg">
<path fill-rule="evenodd" clip-rule="evenodd" d="M13.9751 5.2216C14.0975 4.68304 13.7602 4.14724 13.2216 4.02484C12.6831 3.90244 12.1473 4.2398 12.0249 4.77835L10.8381 10H7C6.44772 10 6 10.4477 6 11C6 11.5523 6.44772 12 7 12H10.3836L8.56541 20H5C4.44772 20 4 20.4477 4 21C4 21.5523 4.44772 22 5 22H8.11086L7.02487 26.7784C6.90247 27.3169 7.23983 27.8527 7.77838 27.9751C8.31694 28.0975 8.85274 27.7601 8.97514 27.2216L10.1619 22H19.1109L18.0249 26.7784C17.9025 27.3169 18.2398 27.8527 18.7784 27.9751C19.3169 28.0975 19.8527 27.7601 19.9751 27.2216L21.1619 22H25C25.5523 22 26 21.5523 26 21C26 20.4477 25.5523 20 25 20H21.6164L23.4346 12H27C27.5523 12 28 11.5523 28 11C28 10.4477 27.5523 10 27 10H23.8891L24.9751 5.2216C25.0975 4.68304 24.7602 4.14724 24.2216 4.02484C23.6831 3.90244 23.1473 4.2398 23.0249 4.77835L21.8381 10H12.8891L13.9751 5.2216ZM19.5654 20L21.3836 12H12.4346L10.6164 20H19.5654Z" fill="black"/>
</svg>
