<svg width="32" height="32" viewBox="0 0 32 32" fill="none" xmlns="http://www.w3.org/2000/svg">
<path d="M3 5C2.44772 5 2 5.44772 2 6V26C2 26.5523 2.44772 27 3 27C3.55228 27 4 26.5523 4 26V17H14V26C14 26.5523 14.4477 27 15 27C15.5523 27 16 26.5523 16 26V6C16 5.44772 15.5523 5 15 5C14.4477 5 14 5.44772 14 6V15H4V6C4 5.44772 3.55228 5 3 5Z" fill="black"/>
<path d="M26.1911 13.4545C26.1911 12.9023 25.7433 12.4545 25.1911 12.4545H24.3511C24.1568 12.4545 23.9666 12.5112 23.804 12.6175L20.8226 14.5662C20.5739 14.7287 20.424 15.0058 20.424 15.3029C20.424 16.0021 21.2 16.4222 21.7855 16.0399L23.8878 14.6669C23.8984 14.66 23.9109 14.6562 23.9237 14.6562C23.9599 14.6562 23.9894 14.6857 23.9894 14.7219V26C23.9894 26.5523 24.4371 27 24.9894 27H25.1911C25.7433 27 26.1911 26.5523 26.1911 26V13.4545Z" fill="black"/>
</svg>
