<svg width="32" height="32" viewBox="0 0 32 32" fill="none" xmlns="http://www.w3.org/2000/svg">
<g id="AisHeartFilled">
<g id="Vector">
<path d="M26 7.00001C23.239 4.23901 18.761 4.23901 16 7.00001C13.239 4.23901 8.76101 4.23901 6.00001 7.00001C3.23901 9.76101 3.23901 14.239 6.00001 17L16 27L26 17C28.761 14.239 28.761 9.76101 26 7.00001Z" fill="black"/>
<path d="M16 28C15.744 28 15.488 27.902 15.293 27.707L5.29303 17.707C3.76903 16.183 2.92902 14.156 2.92902 12C2.92902 9.84399 3.76903 7.81699 5.29303 6.29299C8.21403 3.37199 12.836 3.16399 16 5.66399C19.165 3.16399 23.787 3.37199 26.707 6.29299C28.231 7.81699 29.071 9.84399 29.071 12C29.071 14.156 28.231 16.183 26.707 17.707L16.707 27.707C16.512 27.902 16.256 28 16 28ZM11 5.932C9.445 5.932 7.89097 6.52399 6.70697 7.70699C5.56097 8.85299 4.92902 10.378 4.92902 12C4.92902 13.622 5.56097 15.146 6.70697 16.293L16 25.586L25.293 16.293C26.439 15.147 27.071 13.622 27.071 12C27.071 10.378 26.439 8.85399 25.293 7.70699C22.926 5.34099 19.074 5.34099 16.707 7.70699C16.316 8.09799 15.684 8.09799 15.293 7.70699C14.109 6.52399 12.555 5.932 11 5.932Z" fill="black"/>
</g>
</g>
</svg>
