<svg width="32" height="32" viewBox="0 0 32 32" fill="none" xmlns="http://www.w3.org/2000/svg">
<path d="M3 5C2.44772 5 2 5.44772 2 6V26C2 26.5523 2.44772 27 3 27C3.55228 27 4 26.5523 4 26V17H14V26C14 26.5523 14.4477 27 15 27C15.5523 27 16 26.5523 16 26V6C16 5.44772 15.5523 5 15 5C14.4477 5 14 5.44772 14 6V15H4V6C4 5.44772 3.55228 5 3 5Z" fill="black"/>
<path fill-rule="evenodd" clip-rule="evenodd" d="M18.5508 23.1591C18.5508 23.7114 18.9985 24.1591 19.5508 24.1591H25.4471V26C25.4471 26.5523 25.8948 27 26.4471 27H26.5423C27.0945 27 27.5423 26.5523 27.5423 26V24.1591H28.5366C29.0504 24.1591 29.467 23.7425 29.467 23.2287C29.467 22.7148 29.0504 22.2983 28.5366 22.2983H27.5423V13.4545C27.5423 12.9023 27.0945 12.4545 26.5423 12.4545H26.4613C26.245 12.4545 26.0447 12.5232 25.8811 12.64C25.7292 12.5237 25.5392 12.4545 25.333 12.4545C25.0238 12.4545 24.736 12.6129 24.5706 12.8743L18.7059 22.1386C18.6046 22.2986 18.5508 22.4841 18.5508 22.6734V23.1591ZM25.4613 15.1049C25.3464 15.1482 25.2467 15.228 25.1792 15.3348L20.8655 22.1631C20.8566 22.1772 20.8519 22.1935 20.8519 22.2102C20.8519 22.2588 20.8914 22.2983 20.94 22.2983H25.4613V15.1049Z" fill="black"/>
</svg>
