<svg width="32" height="32" viewBox="0 0 32 32" fill="none" xmlns="http://www.w3.org/2000/svg">
<path d="M16 29.9998H15.587L18.457 22.1307H22.391C23.0875 22.1307 23.8482 21.608 24.0873 20.9558L27.1953 12.4345C27.6958 11.0438 26.913 9.89117 25.4127 9.89117H19.9352L12.7602 29.6312C6.5885 28.1507 2 22.6067 2 15.9998C2 9.58667 6.326 4.17334 12.2177 2.52134L5.087 22.1307H8.04333L11.8257 11.717H14.0657L10.2822 22.1307H13.2397L16.7828 12.4123C17.2822 11.0217 16.5005 9.86901 15.0002 9.86901H12.5L15.37 2.02317C15.587 2.02317 15.783 2.00101 16 2.00101C23.7397 2.00101 30 8.26134 30 16.001C30 23.7407 23.7397 29.9998 16 29.9998ZM24.4782 11.7182H22.2382L19.1092 20.2815H21.348L24.4782 11.7182Z" fill="black"/>
</svg>
