<svg width="32" height="32" viewBox="0 0 32 32" fill="none" xmlns="http://www.w3.org/2000/svg">
<path d="M23.5515 11.2516V7.93131C23.9909 7.72585 24.363 7.39997 24.6247 6.9915C24.8863 6.58303 25.0267 6.10872 25.0296 5.62364V5.54547C25.0278 4.86738 24.7577 4.21756 24.2783 3.73797C23.7989 3.25837 23.1492 2.98796 22.4711 2.9858H22.393C21.7151 2.98796 21.0656 3.25821 20.5862 3.73755C20.1069 4.2169 19.8366 4.86641 19.8345 5.54431V5.62247C19.8366 6.10474 19.9748 6.5766 20.2332 6.9838C20.4916 7.391 20.8597 7.717 21.2951 7.92431L21.3103 7.93131V11.2586C20.0408 11.4526 18.8455 11.98 17.8465 12.787L17.8605 12.7753L8.72779 5.66447C8.90167 5.01307 8.84422 4.32153 8.56525 3.70775C8.28627 3.09397 7.80304 2.59595 7.19794 2.29861C6.59284 2.00127 5.90334 1.92302 5.247 2.07719C4.59066 2.23137 4.00811 2.60843 3.59868 3.14408C3.18925 3.67973 2.97829 4.34081 3.00177 5.01461C3.02524 5.68841 3.2817 6.3332 3.72742 6.83906C4.17314 7.34492 4.78051 7.68052 5.44599 7.78864C6.11147 7.89676 6.79386 7.77071 7.37679 7.43198L7.36279 7.43898L16.3426 14.4285C15.5488 15.6187 15.1272 17.0182 15.1316 18.4488C15.1316 20.0157 15.6275 21.4682 16.4698 22.657L16.4546 22.6337L13.7223 25.3672C13.5036 25.2966 13.2755 25.2592 13.0456 25.2563H13.0433C12.5742 25.2563 12.1156 25.3954 11.7256 25.6561C11.3355 25.9167 11.0315 26.2871 10.852 26.7205C10.6725 27.1539 10.6255 27.6308 10.717 28.0909C10.8086 28.551 11.0344 28.9736 11.3662 29.3053C11.6979 29.637 12.1205 29.8629 12.5806 29.9544C13.0407 30.0459 13.5176 29.999 13.951 29.8195C14.3844 29.6399 14.7548 29.3359 15.0154 28.9459C15.276 28.5558 15.4151 28.0973 15.4151 27.6282C15.412 27.3922 15.3726 27.1581 15.2985 26.934L15.3043 26.9503L18.0075 24.2472C18.8885 24.9195 19.9113 25.382 20.998 25.5995C22.0848 25.817 23.2068 25.7839 24.2787 25.5025C25.3507 25.2212 26.3444 24.6991 27.1842 23.9759C28.024 23.2527 28.6879 22.3476 29.1252 21.3293C29.5626 20.3109 29.762 19.2063 29.7082 18.0993C29.6544 16.9924 29.3488 15.9122 28.8148 14.9411C28.2807 13.97 27.5323 13.1335 26.6263 12.4952C25.7203 11.8568 24.6807 11.4336 23.5865 11.2575L23.5445 11.2516H23.5515ZM22.4268 22.1927C21.6875 22.1906 20.9655 21.9695 20.3518 21.5573C19.7381 21.1451 19.2603 20.5603 18.9788 19.8767C18.6973 19.1931 18.6246 18.4415 18.77 17.7166C18.9154 16.9918 19.2724 16.3263 19.7958 15.8042C20.3192 15.2821 20.9856 14.9268 21.7107 14.7832C22.4359 14.6396 23.1874 14.7142 23.8703 14.9974C24.5531 15.2806 25.1368 15.7598 25.5474 16.3745C25.9581 16.9893 26.1774 17.7119 26.1776 18.4512V18.4535C26.1778 18.9449 26.0811 19.4315 25.8932 19.8855C25.7052 20.3395 25.4296 20.752 25.0821 21.0995C24.7347 21.4469 24.3221 21.7225 23.8681 21.9105C23.4141 22.0985 22.9275 22.1951 22.4361 22.195L22.4268 22.1927Z" fill="black"/>
</svg>
