<svg width="32" height="32" viewBox="0 0 32 32" fill="none" xmlns="http://www.w3.org/2000/svg">
<path d="M16 15C15.4477 15 15 15.4477 15 16V18C15 18.5523 15.4477 19 16 19C16.5523 19 17 18.5523 17 18V16.873C17.1667 16.8299 17.331 16.776 17.492 16.7113C18.2161 16.4203 18.8392 15.9237 19.2846 15.2829C19.73 14.642 19.9782 13.8849 19.9986 13.1047C20.0191 12.3246 19.8108 11.5555 19.3996 10.8922C18.9883 10.2289 18.392 9.70041 17.6841 9.37183C16.9763 9.04324 16.1877 8.92891 15.4157 9.04291C14.6436 9.15692 13.9218 9.49429 13.3391 10.0134C13.277 10.0688 13.2168 10.1259 13.1585 10.1847C13.0346 10.3097 12.9195 10.4424 12.8137 10.5818C12.7826 10.6229 12.7522 10.6645 12.7227 10.7067C12.7109 10.7235 12.6993 10.7405 12.6877 10.7575C12.2749 11.3673 12.7129 12.1192 13.4242 12.3098C13.7798 12.4051 14.1374 12.1836 14.3439 11.8788C14.4361 11.7424 14.5454 11.6174 14.6695 11.5067C14.9609 11.2471 15.3218 11.0785 15.7078 11.0215C16.0939 10.9645 16.4881 11.0216 16.8421 11.1859C17.196 11.3502 17.4942 11.6145 17.6998 11.9461C17.9054 12.2777 18.0095 12.6623 17.9993 13.0524C17.9891 13.4424 17.865 13.821 17.6423 14.1414C17.4196 14.4619 17.108 14.7101 16.746 14.8557C16.5917 14.9177 16.4311 14.9599 16.2679 14.982C16.2222 14.9882 16.1766 14.997 16.1316 15.0086C16.0886 15.0029 16.0446 15 16 15Z" fill="black"/>
<path d="M15 22C15 21.4477 15.4477 21 16 21C16.5523 21 17 21.4477 17 22C17 22.5523 16.5523 23 16 23C15.4477 23 15 22.5523 15 22Z" fill="black"/>
<path fill-rule="evenodd" clip-rule="evenodd" d="M29 16C29 23.1797 23.1797 29 16 29C8.8203 29 3 23.1797 3 16C3 8.8203 8.8203 3 16 3C23.1797 3 29 8.8203 29 16ZM27 16C27 22.0751 22.0751 27 16 27C9.92487 27 5 22.0751 5 16C5 9.92487 9.92487 5 16 5C22.0751 5 27 9.92487 27 16Z" fill="black"/>
</svg>
