<svg width="32" height="32" viewBox="0 0 32 32" fill="none" xmlns="http://www.w3.org/2000/svg">
<path fill-rule="evenodd" clip-rule="evenodd" d="M17 14H25C26.3261 14 27.5979 14.5268 28.5355 15.4645C29.4732 16.4022 30 17.6739 30 19V29C30 29.5523 29.5523 30 29 30C28.4477 30 28 29.5523 28 29V24H4V29C4 29.5523 3.55228 30 3 30C2.44772 30 2 29.5523 2 29V10C2.00048 9.81911 2.05003 9.64173 2.14336 9.48676C2.2367 9.33179 2.37032 9.20504 2.53 9.12002L15.53 2.12002C15.6747 2.04298 15.8361 2.00269 16 2.00269C16.1639 2.00269 16.3253 2.04298 16.47 2.12002L28.5944 8.64854C29.0785 8.90919 29.2605 9.51227 29.0015 9.99722C28.7413 10.4844 28.135 10.6675 27.6486 10.4059L16 4.14002L4 10.6V22H15V16C15 15.4696 15.2107 14.9609 15.5858 14.5858C15.9609 14.2107 16.4696 14 17 14ZM17 16V22H28V19C28 18.2044 27.6839 17.4413 27.1213 16.8787C26.5587 16.3161 25.7956 16 25 16H17Z" fill="black"/>
<path fill-rule="evenodd" clip-rule="evenodd" d="M7.55551 13.5899C8.13108 13.2053 8.80777 13 9.5 13C10.4283 13 11.3185 13.3687 11.9749 14.0251C12.6313 14.6815 13 15.5717 13 16.5C13 17.1922 12.7947 17.8689 12.4101 18.4445C12.0256 19.0201 11.4789 19.4687 10.8394 19.7336C10.1999 19.9985 9.49612 20.0678 8.81718 19.9327C8.13825 19.7977 7.51461 19.4644 7.02513 18.9749C6.53564 18.4854 6.2023 17.8617 6.06725 17.1828C5.9322 16.5039 6.00152 15.8001 6.26642 15.1606C6.53133 14.5211 6.97993 13.9744 7.55551 13.5899ZM10.3334 15.2528C10.0867 15.088 9.79667 15 9.5 15C9.10218 15 8.72065 15.158 8.43934 15.4393C8.15804 15.7206 8 16.1022 8 16.5C8 16.7967 8.08797 17.0867 8.2528 17.3334C8.41762 17.58 8.65189 17.7723 8.92598 17.8858C9.20007 17.9993 9.50167 18.0291 9.79264 17.9712C10.0836 17.9133 10.3509 17.7704 10.5607 17.5607C10.7704 17.3509 10.9133 17.0836 10.9712 16.7926C11.0291 16.5017 10.9994 16.2001 10.8858 15.926C10.7723 15.6519 10.58 15.4176 10.3334 15.2528Z" fill="black"/>
</svg>
