<svg width="32" height="32" viewBox="0 0 32 32" fill="none" xmlns="http://www.w3.org/2000/svg">
<path d="M3 5C2.44772 5 2 5.44772 2 6V26C2 26.5523 2.44772 27 3 27C3.55228 27 4 26.5523 4 26V17H14V26C14 26.5523 14.4477 27 15 27C15.5523 27 16 26.5523 16 26V6C16 5.44772 15.5523 5 15 5C14.4477 5 14 5.44772 14 6V15H4V6C4 5.44772 3.55228 5 3 5Z" fill="black"/>
<path fill-rule="evenodd" clip-rule="evenodd" d="M22.7022 26.8438C23.332 27.071 23.9712 27.1894 24.6199 27.1989C25.6331 27.2083 26.5185 26.9953 27.2761 26.5597C28.0337 26.1193 28.6208 25.5227 29.0375 24.7699C29.4589 24.017 29.6696 23.1766 29.6696 22.2486C29.6696 21.3205 29.466 20.4967 29.0588 19.777C28.6516 19.0573 28.1047 18.4938 27.4181 18.0866C26.7363 17.6747 25.974 17.4687 25.1312 17.4687C24.6246 17.4687 24.1416 17.5492 23.6824 17.7102C23.2278 17.8665 22.8159 18.0914 22.4466 18.3849C22.0916 18.6661 21.7905 19.0056 21.5433 19.4035C21.5308 19.4237 21.5088 19.4361 21.485 19.4361C21.4473 19.4361 21.4168 19.4052 21.4171 19.3675C21.4298 17.7479 21.728 16.4805 22.3116 15.5653C22.9082 14.6373 23.7392 14.1733 24.8045 14.1733C25.5053 14.1733 26.0735 14.3651 26.5091 14.7486C26.7534 14.9637 26.9522 15.2138 27.1057 15.4989C27.3245 15.9053 27.7077 16.233 28.1694 16.233H28.3898C29.0004 16.233 29.4776 15.6826 29.2514 15.1154C29.1194 14.7842 28.951 14.4725 28.7463 14.1804C28.3296 13.5791 27.7851 13.108 27.1127 12.767C26.4404 12.4261 25.671 12.2557 24.8045 12.2557C23.9617 12.2557 23.2018 12.4332 22.5247 12.7884C21.8476 13.1435 21.2699 13.6619 20.7917 14.3437C20.3135 15.0208 19.9466 15.8518 19.6909 16.8366C19.4399 17.8215 19.3145 18.9484 19.3145 20.2173C19.3145 21.5573 19.466 22.6747 19.769 23.5696C20.0768 24.4645 20.4863 25.1771 20.9977 25.7074C21.5091 26.2377 22.0772 26.6165 22.7022 26.8438ZM26.1113 24.9403C25.671 25.215 25.1715 25.3523 24.6127 25.3523C24.054 25.3523 23.5521 25.2126 23.1071 24.9332C22.6667 24.6491 22.3187 24.2751 22.063 23.8111C21.8121 23.3471 21.6866 22.8428 21.6866 22.2983C21.6866 21.8911 21.7624 21.5052 21.9139 21.1406C22.0701 20.7713 22.2832 20.4446 22.5531 20.1605C22.823 19.8764 23.1355 19.6539 23.4906 19.4929C23.8504 19.3319 24.2411 19.2514 24.6625 19.2514C25.2164 19.2514 25.7089 19.3864 26.1397 19.6562C26.5753 19.9261 26.9163 20.2907 27.1625 20.75C27.4134 21.2093 27.5389 21.7183 27.5389 22.277C27.5389 22.8499 27.411 23.3684 27.1554 23.8324C26.8997 24.2964 26.5517 24.6657 26.1113 24.9403Z" fill="black"/>
</svg>
