<svg width="32" height="32" viewBox="0 0 32 32" fill="none" xmlns="http://www.w3.org/2000/svg">
<g id="AisHardDrive">
<g id="Vector">
<path d="M23 2H9C7.346 2 6 3.346 6 5V27C6 28.654 7.346 30 9 30H23C24.654 30 26 28.654 26 27V5C26 3.346 24.654 2 23 2ZM24 27C24 27.551 23.552 28 23 28H9C8.448 28 8 27.551 8 27V5C8 4.449 8.448 4 9 4H23C23.552 4 24 4.449 24 5V27Z" fill="black"/>
<path d="M16 6C12.691 6 10 8.691 10 12C10 15.309 12.691 18 16 18C16.553 18 17 17.552 17 17C17 16.448 16.553 16 16 16C13.794 16 12 14.206 12 12C12 9.794 13.794 8 16 8C18.206 8 20 9.794 20 12C20 12.552 20.447 13 21 13C21.553 13 22 12.552 22 12C22 8.691 19.309 6 16 6Z" fill="black"/>
<path d="M19.707 14.293C19.316 13.902 18.684 13.902 18.293 14.293C17.902 14.684 17.902 15.316 18.293 15.707L20.293 17.707C20.488 17.902 20.744 18 21 18C21.256 18 21.512 17.902 21.707 17.707C22.098 17.316 22.098 16.684 21.707 16.293L19.707 14.293Z" fill="black"/>
<path d="M16 13C16.5523 13 17 12.5523 17 12C17 11.4477 16.5523 11 16 11C15.4477 11 15 11.4477 15 12C15 12.5523 15.4477 13 16 13Z" fill="black"/>
<path d="M11 26C11.5523 26 12 25.5523 12 25C12 24.4477 11.5523 24 11 24C10.4477 24 10 24.4477 10 25C10 25.5523 10.4477 26 11 26Z" fill="black"/>
</g>
</g>
</svg>
