<svg width="32" height="32" viewBox="0 0 32 32" fill="none" xmlns="http://www.w3.org/2000/svg">
<path d="M1 10V22H31V10H1ZM16.0025 21.4C7.635 21.4 1.6 18.95 1.6 16C1.6 13.05 7.63875 10.6 16.0025 10.6C24.365 10.6 30.4 13.05 30.4 16C30.4 18.95 24.37 21.4 16.0025 21.4ZM15.7213 13.8225H20.9413V15.0275C20.8125 14.9688 20.6875 14.9688 20.5588 14.9688H18.3612V15.5438H20.4725V16.4587H18.3612V17.03H20.5588C20.6875 17.03 20.8125 17.03 20.9413 16.9675V18.1763H15.7213C15.7863 18.05 15.7863 17.9288 15.7863 17.8025V14.2C15.7863 14.0738 15.7863 13.9525 15.7213 13.8225ZM6.87625 14.2V17.8013C6.87625 17.9275 6.87625 18.0487 6.94125 18.175H4C4.065 18.0487 4.065 17.9275 4.065 17.8013V14.2C4.065 14.0738 4.065 13.9525 4 13.8262H6.94125C6.87625 13.9525 6.87625 14.0738 6.87625 14.2ZM14.935 17.8013C15.03 17.935 15.1325 18.0612 15.2537 18.175H12.0063C12.0063 18.0487 11.8813 17.7925 11.7438 17.5912C11.6063 17.39 10.8625 16.2863 10.8625 16.2863V17.8013C10.8625 17.9275 10.8625 18.0487 10.9275 18.175H8.2225C8.2875 18.0487 8.2875 17.9275 8.2875 17.8013V14.2C8.2875 14.0738 8.2875 13.9525 8.2225 13.8262H10.9275C10.8625 13.9525 10.8625 14.0738 10.8625 14.2V15.7738C10.8625 15.7738 11.7262 14.6738 11.925 14.4175C12.075 14.225 12.26 13.9512 12.26 13.8262H15.0813C14.8875 13.9525 14.6725 14.1788 14.4962 14.3888L13.4637 15.6187C13.4637 15.6187 14.7625 17.5538 14.935 17.8013ZM28.1175 14.045C28.1175 13.9866 28.0946 13.9306 28.0537 13.889C28.0127 13.8474 27.9571 13.8235 27.8987 13.8225H27.6363V14.5113H27.74V14.2675H27.89L28.0275 14.5113H28.1438L27.9937 14.2463C28.0306 14.227 28.0616 14.1982 28.0834 14.1627C28.1052 14.1273 28.117 14.0866 28.1175 14.045ZM27.8812 14.1712H27.7388V13.9325H27.8937C27.9625 13.9325 28.01 13.9912 28.01 14.0587C28.01 14.125 27.95 14.175 27.8812 14.1712ZM27.855 13.6H27.8162C27.7427 13.6011 27.6701 13.6169 27.6027 13.6463C27.5353 13.6757 27.4745 13.7182 27.4236 13.7714C27.3728 13.8245 27.3331 13.8872 27.3067 13.9559C27.2803 14.0245 27.2678 14.0977 27.27 14.1712C27.27 14.18 27.27 14.1925 27.2663 14.2C27.2724 14.3539 27.3393 14.499 27.4522 14.6037C27.5651 14.7084 27.7149 14.7642 27.8688 14.7588C27.9449 14.7578 28.0201 14.7418 28.0901 14.7117C28.1601 14.6817 28.2235 14.6381 28.2767 14.5836C28.3299 14.529 28.3717 14.4645 28.4 14.3938C28.4282 14.323 28.4422 14.2474 28.4412 14.1712V14.15C28.439 14.0754 28.422 14.0019 28.3913 13.9338C28.3606 13.8657 28.3168 13.8044 28.2623 13.7533C28.2078 13.7022 28.1438 13.6624 28.0739 13.6361C28.004 13.6098 27.9296 13.5975 27.855 13.6ZM27.855 14.6288C27.7323 14.6298 27.6142 14.5822 27.5264 14.4965C27.4386 14.4108 27.3882 14.2939 27.3862 14.1712V14.1375C27.3891 14.0789 27.4036 14.0214 27.4287 13.9683C27.4538 13.9153 27.4892 13.8677 27.5327 13.8284C27.5762 13.789 27.6271 13.7586 27.6824 13.739C27.7377 13.7193 27.7964 13.7107 27.855 13.7137C28.1125 13.7137 28.3237 13.92 28.3237 14.1712C28.3237 14.4225 28.1137 14.6288 27.855 14.6288ZM26.7588 14.205C26.7113 14.0788 26.6425 13.9575 26.6775 13.8313H22.9062C22.9237 13.9575 22.8762 14.0788 22.8287 14.205L21.4912 17.8062C21.4496 17.9432 21.3807 18.0703 21.2888 18.18H23.52C23.5025 18.0538 23.55 17.9325 23.5925 17.8062C23.635 17.68 23.6825 17.5587 23.6825 17.5587L23.7087 17.4913H25.3388L25.365 17.5538C25.425 17.7013 25.4688 17.8013 25.4688 17.8013C25.52 17.9275 25.5675 18.0487 25.555 18.175H28.3837C28.2883 18.0664 28.2163 17.9391 28.1725 17.8013C27.7039 16.6014 27.2327 15.4027 26.7588 14.205ZM24.05 16.5712C24.2438 16.0462 24.4113 15.6063 24.4238 15.5638C24.4588 15.4713 24.4838 15.375 24.5013 15.2788C24.5225 15.375 24.5525 15.4713 24.5875 15.5638L24.9825 16.5712H24.05Z" fill="black"/>
</svg>
