<svg width="32" height="32" viewBox="0 0 32 32" fill="none" xmlns="http://www.w3.org/2000/svg">
<g id="AisImport">
<g id="Vector">
<path d="M18.293 19.293C17.902 19.684 17.902 20.316 18.293 20.707C18.488 20.902 18.744 21 19 21C19.256 21 19.512 20.902 19.707 20.707L23.707 16.707C23.799 16.615 23.872 16.504 23.923 16.382C24.024 16.137 24.024 15.862 23.923 15.618C23.872 15.496 23.799 15.385 23.707 15.293L19.707 11.293C19.316 10.902 18.684 10.902 18.293 11.293C17.902 11.684 17.902 12.316 18.293 12.707L20.586 15H5C4.448 15 4 15.448 4 16C4 16.552 4.448 17 5 17H20.586L18.293 19.293Z" fill="black"/>
<path d="M25.996 6H16.004C14.899 6 14 6.899 14 8.004V11C14 11.552 14.448 12 15 12C15.552 12 16 11.552 16 11L16.004 8L26 8.004L25.996 24L16 23.996V21C16 20.447 15.552 20 15 20C14.448 20 14 20.447 14 21V23.996C14 25.1 14.899 26 16.004 26H25.996C27.101 26 28 25.101 28 23.996V8.004C28 6.899 27.101 6 25.996 6Z" fill="black"/>
</g>
</g>
</svg>
