<svg width="32" height="32" viewBox="0 0 32 32" fill="none" xmlns="http://www.w3.org/2000/svg">
<path fill-rule="evenodd" clip-rule="evenodd" d="M16 21C16 19.8954 16.8954 19 18 19H22C23.1046 19 24 19.8954 24 21V23C24 24.1046 23.1046 25 22 25H18C16.8954 25 16 24.1046 16 23V21ZM18 21H22V23H18V21Z" fill="black"/>
<path fill-rule="evenodd" clip-rule="evenodd" d="M20.6169 3.89182C20.6744 2.83084 21.5514 2 22.614 2H25.386C26.4486 2 27.3256 2.83084 27.3831 3.89183L28 15.2806L28 27L29 27C29.5523 27 30 27.4477 30 28C30 28.5523 29.5523 29 29 29H3C2.44771 29 2 28.5523 2 28C2 27.4477 2.44772 27 3 27H4V12C4 10.3519 5.88153 9.41111 7.2 10.4L12 14V12C12 10.3519 13.8815 9.41111 15.2 10.4L20.0667 14.05L20.6169 3.89182ZM26 27H14V21C14 19.8954 13.1046 19 12 19H10C8.89543 19 8 19.8954 8 21V27H6V12L10.8 15.6C12.1185 16.5888 14 15.6481 14 14V12L20.1333 16.6C20.4795 16.8596 20.9006 17 21.3333 17H26L26 19L26 19.0028V27ZM10 27H12V21H10V27ZM25.386 4L25.9819 15H22.0181L22.614 4L25.386 4Z" fill="black"/>
</svg>
