<svg width="32" height="32" viewBox="0 0 32 32" fill="none" xmlns="http://www.w3.org/2000/svg">
<g clip-path="url(#clip0_1_1499)">
<path fill-rule="evenodd" clip-rule="evenodd" d="M2 16C2 22.08 5.36 27 9.5 27C13 27 14.97 24.28 16 22.01C17.03 24.28 19 27 22.5 27C26.64 27 30 22.08 30 16C30 9.92 28.64 5 24.5 5C20.15 5 17.36 11.28 16 15.43C14.64 11.28 11.85 5 7.5 5C3.36 5 2 9.92 2 16ZM4 16C4 18.69 4.75 21.03 5.85 22.65C6.95 24.28 8.28 25 9.5 25C11.44 25 12.78 23.75 13.76 22.02C14.2859 21.0692 14.686 20.054 14.95 19L14.92 18.88C14.4034 16.8061 13.7143 14.7791 12.86 12.82C12.2147 11.2649 11.3344 9.818 10.25 8.53C9.25 7.45 8.35 7 7.5 7C6.9 7 6.47 7.17 6.13 7.44C5.75 7.73 5.37 8.22 5.03 9.01C4.33 10.63 4 13.05 4 16ZM28 16C28 18.69 27.25 21.03 26.15 22.65C25.05 24.28 23.72 25 22.5 25C20.56 25 19.22 23.75 18.24 22.02C17.7141 21.0692 17.314 20.054 17.05 19L17.08 18.88C17.5966 16.8061 18.2857 14.7791 19.14 12.82C19.88 11.16 20.76 9.62 21.75 8.53C22.75 7.45 23.65 7 24.5 7C25.1 7 25.53 7.17 25.87 7.44C26.25 7.73 26.63 8.22 26.97 9.01C27.67 10.63 28 13.05 28 16Z" fill="black"/>
</g>
<defs>
<clipPath id="clip0_1_1499">
<rect width="28" height="22" fill="white" transform="translate(2 5)"/>
</clipPath>
</defs>
</svg>
