<svg width="32" height="32" viewBox="0 0 32 32" fill="none" xmlns="http://www.w3.org/2000/svg">
<path d="M9 9C9.552 9 10 8.552 10 8V7H16V8C16 8.552 16.448 9 17 9C17.552 9 18 8.552 18 8V7H20V10C20 10.552 20.448 11 21 11C21.552 11 22 10.552 22 10V7C22 5.897 21.103 5 20 5H18V4C18 3.448 17.552 3 17 3C16.448 3 16 3.448 16 4V5H10V4C10 3.448 9.552 3 9 3C8.448 3 8 3.448 8 4V5H6C4.897 5 4 5.897 4 7V21C4 22.103 4.897 23 6 23H9C9.552 23 10 22.553 10 22C10 21.447 9.552 21 9 21H6V7H8V8C8 8.552 8.448 9 9 9Z" fill="black"/>
<path d="M20 13C15.589 13 12 16.589 12 21C12 25.411 15.589 29 20 29C24.411 29 28 25.411 28 21C28 16.589 24.411 13 20 13ZM20 27C16.691 27 14 24.309 14 21C14 17.691 16.691 15 20 15C23.309 15 26 17.691 26 21C26 24.309 23.309 27 20 27Z" fill="black"/>
<path d="M21 20.586V18C21 17.447 20.552 17 20 17C19.448 17 19 17.447 19 18V21.414L21.293 23.707C21.488 23.902 21.744 24 22 24C22.256 24 22.512 23.902 22.707 23.707C23.098 23.316 23.098 22.684 22.707 22.293L21 20.586Z" fill="black"/>
</svg>
