<svg width="32" height="32" viewBox="0 0 32 32" fill="none" xmlns="http://www.w3.org/2000/svg">
<path d="M26 4H6C4.897 4 4 4.897 4 6V26C4 27.103 4.897 28 6 28H26C27.103 28 28 27.103 28 26V6C28 4.897 27.103 4 26 4ZM6 6H26V17.587L21.707 13.293C21.316 12.902 20.684 12.902 20.293 13.293L7.586 26H6V6ZM10.414 26L21 15.414L26.001 20.415V26H10.414Z" fill="black"/>
<path d="M12 16C14.206 16 16 14.206 16 12C16 9.794 14.206 8 12 8C9.794 8 8 9.794 8 12C8 14.206 9.794 16 12 16ZM12 10C13.103 10 14 10.897 14 12C14 13.103 13.103 14 12 14C10.897 14 10 13.103 10 12C10 10.897 10.897 10 12 10Z" fill="black"/>
</svg>
