<svg width="32" height="32" viewBox="0 0 32 32" fill="none" xmlns="http://www.w3.org/2000/svg">
<path d="M20.68 10.73C20.7865 10.6436 20.8741 10.5363 20.9373 10.4147C21.0006 10.293 21.0382 10.1597 21.0477 10.0229C21.0573 9.88618 21.0386 9.74891 20.9929 9.61967C20.9471 9.49042 20.8753 9.37196 20.7819 9.27164C20.6884 9.17133 20.5754 9.0913 20.4497 9.03652C20.324 8.98175 20.1884 8.9534 20.0513 8.95325C19.9142 8.95309 19.7785 8.98113 19.6527 9.03561C19.5269 9.0901 19.4137 9.16987 19.32 9.26998L14.67 13.63L12.68 11.77C12.5863 11.6699 12.4731 11.5901 12.3473 11.5356C12.2215 11.4811 12.0858 11.4531 11.9487 11.4532C11.8116 11.4534 11.676 11.4817 11.5503 11.5365C11.4246 11.5913 11.3116 11.6713 11.2181 11.7716C11.1247 11.872 11.0528 11.9904 11.0071 12.1197C10.9614 12.2489 10.9427 12.3862 10.9523 12.5229C10.9618 12.6597 10.9994 12.793 11.0627 12.9147C11.1259 13.0363 11.2135 13.1436 11.32 13.23L13.98 15.73C14.1655 15.9043 14.4104 16.0014 14.665 16.0014C14.9196 16.0014 15.1645 15.9043 15.35 15.73L20.68 10.73Z" fill="black"/>
<path fill-rule="evenodd" clip-rule="evenodd" d="M2 6C2 4.9 2.9 4 4 4H28C28.5304 4 29.0391 4.21071 29.4142 4.58579C29.7893 4.96086 30 5.46957 30 6V19C30 19.5304 29.7893 20.0391 29.4142 20.4142C29.0391 20.7893 28.5304 21 28 21H4C3.46957 21 2.96086 20.7893 2.58579 20.4142C2.21071 20.0391 2 19.5304 2 19V6ZM4 6H28V19H4V6Z" fill="black"/>
<path d="M26 23H6C6 23.5304 6.21071 24.0391 6.58579 24.4142C6.96086 24.7893 7.46957 25 8 25H24C24.5304 25 25.0391 24.7893 25.4142 24.4142C25.7893 24.0391 26 23.5304 26 23Z" fill="black"/>
<path d="M11 27H21C21 27.5304 20.7893 28.0391 20.4142 28.4142C20.0391 28.7893 19.5304 29 19 29H13C11.9 29 11 28.1 11 27Z" fill="black"/>
</svg>
