<svg width="32" height="32" viewBox="0 0 32 32" fill="none" xmlns="http://www.w3.org/2000/svg">
<path d="M15.3451 2.24431C15.7209 1.91856 16.2791 1.91856 16.6549 2.24431L28.6549 12.6443C28.8741 12.8343 29 13.11 29 13.4V29C29 29.5523 28.5523 30 28 30C27.4477 30 27 29.5523 27 29V13.8566L16 4.3233L5 13.8566V29C5 29.5523 4.55228 30 4 30C3.44772 30 3 29.5523 3 29V13.4C3 13.11 3.12591 12.8343 3.34507 12.6443L15.3451 2.24431Z" fill="black"/>
<path fill-rule="evenodd" clip-rule="evenodd" d="M9 29V17C9 16.4477 9.44772 16 10 16H16C16.5523 16 17 16.4477 17 17V22H22C22.5523 22 23 22.4477 23 23V29C23 29.5523 22.5523 30 22 30H10C9.44772 30 9 29.5523 9 29ZM11 22V18H15V22H11ZM17 28V24H21V28H17ZM11 24H15V28H11V24Z" fill="black"/>
</svg>
