<svg width="32" height="32" viewBox="0 0 32 32" fill="none" xmlns="http://www.w3.org/2000/svg">
<path d="M16 3.5C9.107 3.5 3.5 9.107 3.5 16C3.5 22.893 9.107 28.5 16 28.5C22.893 28.5 28.5 22.893 28.5 16C28.5 9.107 22.893 3.5 16 3.5ZM16 26.5C10.21 26.5 5.5 21.79 5.5 16C5.5 10.21 10.21 5.5 16 5.5C21.79 5.5 26.5 10.21 26.5 16C26.5 21.79 21.79 26.5 16 26.5Z" fill="black"/>
<path d="M16 11C16.5523 11 17 10.5523 17 10C17 9.44772 16.5523 9 16 9C15.4477 9 15 9.44772 15 10C15 10.5523 15.4477 11 16 11Z" fill="black"/>
<path d="M18 21H17V14C17 13.448 16.552 13 16 13H14C13.448 13 13 13.448 13 14C13 14.552 13.448 15 14 15H15V21H14C13.448 21 13 21.447 13 22C13 22.553 13.448 23 14 23H18C18.552 23 19 22.553 19 22C19 21.447 18.552 21 18 21Z" fill="black"/>
</svg>
