<svg width="32" height="32" viewBox="0 0 32 32" fill="none" xmlns="http://www.w3.org/2000/svg">
<path fill-rule="evenodd" clip-rule="evenodd" d="M15.5516 16.4484L10.8199 16.0844C9.65567 15.9949 8.51041 16.4185 7.68472 17.2442L3.97921 20.9497L11.0503 28.0208L14.7558 24.3153C15.5815 23.4896 16.0051 22.3443 15.9156 21.1801L15.5516 16.4484ZM16.4484 15.5516L21.1801 15.9156C22.3444 16.0051 23.4896 15.5815 24.3153 14.7558L28.0208 11.0503L20.9498 3.97918L17.2443 7.6847C16.4186 8.51039 15.9949 9.65565 16.0845 10.8199L16.4484 15.5516ZM10.9733 14.0903C9.22694 13.956 7.50904 14.5915 6.27051 15.83L2.56499 19.5355C1.78394 20.3166 1.78394 21.5829 2.56499 22.364L9.63606 29.435C10.4171 30.2161 11.6834 30.2161 12.4645 29.435L16.17 25.7295C17.4085 24.491 18.044 22.7731 17.9097 21.0267L17.6499 17.6499L21.0267 17.9097C22.7731 18.044 24.491 17.4085 25.7295 16.17L29.435 12.4645C30.2161 11.6834 30.2161 10.4171 29.435 9.63604L22.364 2.56497C21.5829 1.78392 20.3166 1.78392 19.5356 2.56497L15.83 6.27049C14.5915 7.50902 13.956 9.22691 14.0904 10.9733L14.3501 14.3501L10.9733 14.0903Z" fill="black"/>
<path d="M3 11C3 7.68629 5.68629 5 9 5" stroke="black" stroke-width="2" stroke-linecap="round"/>
<path d="M29 21C29 24.3137 26.3137 27 23 27" stroke="black" stroke-width="2" stroke-linecap="round"/>
<path d="M18.2481 27.832C17.6543 27.4362 17.6543 26.5638 18.2481 26.1679L21.4453 24.0365C22.1099 23.5934 23 24.0698 23 24.8685L23 29.1315C23 29.9302 22.1099 30.4066 21.4453 29.9635L18.2481 27.832Z" fill="black"/>
<path d="M13.7519 4.16795C14.3457 4.56377 14.3457 5.43623 13.7519 5.83205L10.5547 7.96353C9.89015 8.40657 9 7.93018 9 7.13148L9 2.86852C9 2.06982 9.89015 1.59343 10.5547 2.03647L13.7519 4.16795Z" fill="black"/>
</svg>
