<svg width="32" height="32" viewBox="0 0 32 32" fill="none" xmlns="http://www.w3.org/2000/svg">
<path d="M16.6549 2.24431C16.2791 1.91856 15.7209 1.91856 15.3451 2.24431L3.34507 12.6443C3.12591 12.8343 3 13.11 3 13.4V29C3 29.5523 3.44772 30 4 30C4.55228 30 5 29.5523 5 29V13.8566L16 4.3233L27 13.8566V29C27 29.5523 27.4477 30 28 30C28.5523 30 29 29.5523 29 29V13.4C29 13.11 28.8741 12.8343 28.6549 12.6443L16.6549 2.24431Z" fill="black"/>
<path fill-rule="evenodd" clip-rule="evenodd" d="M16 11C13.7909 11 12 12.7909 12 15C12 17.2091 13.7909 19 16 19C18.2091 19 20 17.2091 20 15C20 12.7909 18.2091 11 16 11ZM14 15C14 16.1046 14.8954 17 16 17C17.1046 17 18 16.1046 18 15C18 13.8954 17.1046 13 16 13C14.8954 13 14 13.8954 14 15Z" fill="black"/>
<path d="M10 27C10 23.6863 12.6863 21 16 21C19.3137 21 22 23.6863 22 27V29C22 29.5523 21.5523 30 21 30C20.4477 30 20 29.5523 20 29V27C20 24.7909 18.2091 23 16 23C13.7909 23 12 24.7909 12 27V29C12 29.5523 11.5523 30 11 30C10.4477 30 10 29.5523 10 29V27Z" fill="black"/>
</svg>
