<svg width="32" height="32" viewBox="0 0 32 32" fill="none" xmlns="http://www.w3.org/2000/svg">
<path d="M26.5 2H5.5C3.56683 2 2 3.56683 2 5.5V26.5C2 28.4343 3.56683 30 5.5 30H26.5C28.4343 30 30 28.4343 30 26.5V5.5C30 3.56683 28.4343 2 26.5 2ZM19.7322 7.13217C19.7322 6.61883 20.1522 6.19883 20.6678 6.19883C21.1812 6.19883 21.6012 6.61883 21.6012 7.13217V19.6015C21.6012 20.1172 21.1812 20.536 20.6678 20.536C20.151 20.536 19.7322 20.1172 19.7322 19.6015V7.13217ZM15.0667 6.65967C15.0667 6.14633 15.4832 5.7275 16 5.7275C16.5168 5.7275 16.9333 6.14633 16.9333 6.65967V20.1953C16.9333 20.7087 16.5168 21.1287 16 21.1287C15.4832 21.1287 15.0667 20.7087 15.0667 20.1953V6.65967ZM10.4 7.13217C10.4 6.61883 10.8188 6.19883 11.3322 6.19883C11.849 6.19883 12.2678 6.61883 12.2678 7.13217V19.6015C12.2678 20.1172 11.8478 20.536 11.3322 20.536C10.8188 20.536 10.4 20.1172 10.4 19.6015V7.13217ZM5.73217 9C5.73217 8.48433 6.15217 8.06667 6.66783 8.06667C7.18117 8.06667 7.6 8.48433 7.6 9V17.3942C7.6 17.9087 7.18117 18.3275 6.66783 18.3275C6.151 18.3275 5.73217 17.9075 5.73217 17.3942V9ZM25.94 23.2357C25.7965 23.3582 22.3397 26.2608 16 26.2608C9.6615 26.2608 6.2035 23.3605 6.05883 23.2357C5.668 22.8997 5.62133 22.3117 5.9585 21.9197C6.291 21.53 6.88017 21.4822 7.271 21.8147C7.32583 21.8625 10.4128 24.3942 15.9988 24.3942C21.6548 24.3942 24.6975 21.8438 24.7243 21.8193C25.114 21.4822 25.7032 21.5277 26.0403 21.9197C26.3775 22.3117 26.332 22.8997 25.94 23.2357ZM26.2678 17.3942C26.2678 17.9087 25.8478 18.3275 25.3333 18.3275C24.8188 18.3275 24.3988 17.9075 24.3988 17.3942V9C24.3988 8.48433 24.82 8.06667 25.3333 8.06667C25.8478 8.06667 26.2678 8.48317 26.2678 9V17.3942Z" fill="black"/>
</svg>
