<svg width="32" height="32" viewBox="0 0 32 32" fill="none" xmlns="http://www.w3.org/2000/svg">
<path fill-rule="evenodd" clip-rule="evenodd" d="M22.9974 28.1028C22.9991 28.0687 23 28.0345 23 28V22.7596C23 21.0081 22.2346 19.344 20.9047 18.2041L18.3333 16L20.9047 13.7959C21.4201 13.3542 21.8507 12.8337 22.1848 12.2599C22.7024 11.6698 23 10.9034 23 10.0945C23 10.0066 22.9896 9.92113 22.9701 9.83923C22.9899 9.64121 23 9.44137 23 9.24039V4C23 2.89543 22.1046 2 21 2H11C9.89543 2 9 2.89543 9 4V9.24039C9 9.44137 9.01008 9.64121 9.02993 9.83923C9.01036 9.92113 9 10.0066 9 10.0945C9 10.9034 9.29757 11.6698 9.81516 12.2599C10.1493 12.8337 10.5799 13.3542 11.0953 13.7959L13.6667 16L11.0953 18.2041C9.76538 19.344 9 21.0081 9 22.7596V28C9 28.0345 9.00087 28.0687 9.00259 28.1028C9.00086 28.1396 9 28.1767 9 28.2138C9 28.3367 9.0282 28.453 9.07847 28.5566C9.31955 29.3903 10.0886 30 11 30H21C21.9114 30 22.6804 29.3903 22.9215 28.5566C22.9718 28.453 23 28.3367 23 28.2138C23 28.1767 22.9991 28.1396 22.9974 28.1028ZM16 16.6342L12.3968 19.7226C11.5103 20.4825 11 21.5919 11 22.7596V25.5714L16 22L21 25.5714V22.7596C21 21.5919 20.4897 20.4825 19.6032 19.7226L16 16.6342ZM21 9H11V4H21V9Z" fill="black"/>
</svg>
