<svg width="32" height="32" viewBox="0 0 32 32" fill="none" xmlns="http://www.w3.org/2000/svg">
<path fill-rule="evenodd" clip-rule="evenodd" d="M16 29C23.1797 29 29 23.1797 29 16C29 8.8203 23.1797 3 16 3C8.8203 3 3 8.8203 3 16C3 23.1797 8.8203 29 16 29ZM17 10C17 10.5523 16.5523 11 16 11C15.4477 11 15 10.5523 15 10C15 9.44771 15.4477 9 16 9C16.5523 9 17 9.44771 17 10ZM17 21H18C18.552 21 19 21.447 19 22C19 22.553 18.552 23 18 23H14C13.448 23 13 22.553 13 22C13 21.447 13.448 21 14 21H15V15H14C13.448 15 13 14.552 13 14C13 13.448 13.448 13 14 13H16C16.552 13 17 13.448 17 14V21Z" fill="black"/>
</svg>
