<svg width="32" height="32" viewBox="0 0 32 32" fill="none" xmlns="http://www.w3.org/2000/svg">
<path fill-rule="evenodd" clip-rule="evenodd" d="M21.6569 6.34315C18.5327 3.21895 13.4673 3.21895 10.3431 6.34315C7.21895 9.46734 7.21895 14.5327 10.3431 17.6569L10.3751 17.6889L11.7681 19.3597L10.2319 20.6404L8.89618 19.0382C5.02372 15.1303 5.03464 8.82323 8.92893 4.92893C12.8342 1.02369 19.1658 1.02369 23.0711 4.92893C26.9654 8.82323 26.9763 15.1303 23.1038 19.0382L21.7681 20.6404L20.2319 19.3597L21.6249 17.6889L21.6569 17.6569C24.781 14.5327 24.781 9.46734 21.6569 6.34315Z" fill="black"/>
<path fill-rule="evenodd" clip-rule="evenodd" d="M10 25C10 24.4477 10.4477 24 11 24H21C21.5523 24 22 24.4477 22 25C22 25.5523 21.5523 26 21 26H11C10.4477 26 10 25.5523 10 25Z" fill="black"/>
<path fill-rule="evenodd" clip-rule="evenodd" d="M12 29C12 28.4477 12.4477 28 13 28H19C19.5523 28 20 28.4477 20 29C20 29.5523 19.5523 30 19 30H13C12.4477 30 12 29.5523 12 29Z" fill="black"/>
<path fill-rule="evenodd" clip-rule="evenodd" d="M21 19C21.5523 19 22 19.4477 22 20V21C22 21.5523 21.5523 22 21 22C20.4477 22 20 21.5523 20 21V20C20 19.4477 20.4477 19 21 19Z" fill="black"/>
<path fill-rule="evenodd" clip-rule="evenodd" d="M11 19C11.5523 19 12 19.4477 12 20V21C12 21.5523 11.5523 22 11 22C10.4477 22 10 21.5523 10 21V20C10 19.4477 10.4477 19 11 19Z" fill="black"/>
</svg>
