<svg width="32" height="32" viewBox="0 0 32 32" fill="none" xmlns="http://www.w3.org/2000/svg">
<path d="M27.25 1H4.75C2.67875 1 1 2.67875 1 4.75V27.25C1 29.3225 2.67875 31 4.75 31H27.25C29.3225 31 31 29.3225 31 27.25V4.75C31 2.67875 29.3225 1 27.25 1ZM19.9988 6.49875C19.9988 5.94875 20.4487 5.49875 21.0012 5.49875C21.5512 5.49875 22.0013 5.94875 22.0013 6.49875V19.8587C22.0013 20.4112 21.5512 20.86 21.0012 20.86C20.4475 20.86 19.9988 20.4112 19.9988 19.8587V6.49875ZM15 5.9925C15 5.4425 15.4463 4.99375 16 4.99375C16.5537 4.99375 17 5.4425 17 5.9925V20.495C17 21.045 16.5537 21.495 16 21.495C15.4463 21.495 15 21.045 15 20.495V5.9925ZM10 6.49875C10 5.94875 10.4488 5.49875 10.9988 5.49875C11.5525 5.49875 12.0012 5.94875 12.0012 6.49875V19.8587C12.0012 20.4112 11.5513 20.86 10.9988 20.86C10.4488 20.86 10 20.4112 10 19.8587V6.49875ZM4.99875 8.5C4.99875 7.9475 5.44875 7.5 6.00125 7.5C6.55125 7.5 7 7.9475 7 8.5V17.4937C7 18.045 6.55125 18.4937 6.00125 18.4937C5.4475 18.4937 4.99875 18.0437 4.99875 17.4937V8.5ZM26.65 23.7525C26.4963 23.8837 22.7925 26.9938 16 26.9938C9.20875 26.9938 5.50375 23.8862 5.34875 23.7525C4.93 23.3925 4.88 22.7625 5.24125 22.3425C5.5975 21.925 6.22875 21.8737 6.6475 22.23C6.70625 22.2812 10.0137 24.9937 15.9987 24.9937C22.0587 24.9937 25.3188 22.2613 25.3475 22.235C25.765 21.8738 26.3963 21.9225 26.7575 22.3425C27.1188 22.7625 27.07 23.3925 26.65 23.7525ZM27.0013 17.4937C27.0013 18.045 26.5513 18.4937 26 18.4937C25.4487 18.4937 24.9987 18.0437 24.9987 17.4937V8.5C24.9987 7.9475 25.45 7.5 26 7.5C26.5513 7.5 27.0013 7.94625 27.0013 8.5V17.4937Z" fill="black"/>
</svg>
