<svg width="32" height="32" viewBox="0 0 32 32" fill="none" xmlns="http://www.w3.org/2000/svg">
<path fill-rule="evenodd" clip-rule="evenodd" d="M9 22.7596C9 21.0081 9.76538 19.344 11.0953 18.2041L13.6667 16L11.0953 13.7959C9.76538 12.656 9 10.9919 9 9.24039V4C9 2.89543 9.89543 2 11 2H21C22.1046 2 23 2.89543 23 4V9.24039C23 10.9919 22.2346 12.656 20.9047 13.7959L18.3333 16L20.9047 18.2041C22.2346 19.344 23 21.0081 23 22.7596V28C23 29.1046 22.1046 30 21 30H11C9.89543 30 9 29.1046 9 28V22.7596ZM19.6032 12.2774L16 15.3658L12.3968 12.2774C11.5103 11.5175 11 10.4081 11 9.24039V4L21 4V9.24039C21 10.4081 20.4897 11.5175 19.6032 12.2774Z" fill="black"/>
</svg>
