<svg width="32" height="32" viewBox="0 0 32 32" fill="none" xmlns="http://www.w3.org/2000/svg">
<path d="M24.0075 9.79251C25.0016 9.79251 25.8075 8.98662 25.8075 7.99251C25.8075 6.9984 25.0016 6.19251 24.0075 6.19251C23.0134 6.19251 22.2075 6.9984 22.2075 7.99251C22.2075 8.98662 23.0134 9.79251 24.0075 9.79251Z" fill="black"/>
<path fill-rule="evenodd" clip-rule="evenodd" d="M16 8.29725C14.4765 8.29725 12.9873 8.74901 11.7206 9.5954C10.4539 10.4418 9.46659 11.6448 8.88359 13.0523C8.30059 14.4598 8.14805 16.0085 8.44526 17.5027C8.74247 18.9969 9.47609 20.3694 10.5533 21.4467C11.6306 22.5239 13.0031 23.2575 14.4973 23.5547C15.9915 23.852 17.5402 23.6994 18.9477 23.1164C20.3552 22.5334 21.5582 21.5461 22.4046 20.2794C23.251 19.0127 23.7028 17.5235 23.7028 16C23.7028 13.9571 22.8912 11.9979 21.4467 10.5533C20.0021 9.10879 18.0429 8.29725 16 8.29725ZM16 21C15.0111 21 14.0444 20.7068 13.2222 20.1573C12.3999 19.6079 11.759 18.827 11.3806 17.9134C11.0022 16.9998 10.9031 15.9945 11.0961 15.0245C11.289 14.0546 11.7652 13.1637 12.4645 12.4645C13.1637 11.7652 14.0546 11.289 15.0246 11.0961C15.9945 10.9031 16.9998 11.0022 17.9134 11.3806C18.827 11.759 19.6079 12.3999 20.1574 13.2221C20.7068 14.0444 21 15.0111 21 16C21 17.3261 20.4732 18.5978 19.5355 19.5355C18.5979 20.4732 17.3261 21 16 21Z" fill="black"/>
<path fill-rule="evenodd" clip-rule="evenodd" d="M9.8155 1.09025C11.4154 1.01725 11.9263 1 16 1C20.0738 1 20.5846 1.01725 22.1839 1.09088C23.4283 1.1158 24.6594 1.35156 25.825 1.78812C26.8215 2.17345 27.7266 2.76271 28.4821 3.51815C29.2376 4.27358 29.827 5.17853 30.2125 6.175C30.649 7.34037 30.8848 8.57131 30.9097 9.8155C30.9827 11.4154 31 11.9263 31 16C31 20.0738 30.9828 20.5846 30.9104 22.1839C30.8855 23.4283 30.6497 24.6594 30.2131 25.825C29.8277 26.8216 29.2384 27.7267 28.4828 28.4822C27.7273 29.2378 26.8222 29.8271 25.8256 30.2125C24.6601 30.6491 23.4289 30.8848 22.1845 30.9097C20.5846 30.9827 20.0738 31 16 31C11.9263 31 11.4154 30.9828 9.81613 30.9104C8.57173 30.8855 7.34057 30.6497 6.175 30.2131C5.17842 29.8277 4.27335 29.2384 3.5178 28.4828C2.76225 27.7273 2.17289 26.8222 1.7875 25.8256C1.35093 24.6601 1.11517 23.4289 1.09025 22.1845C1.01725 20.5846 1 20.0738 1 16C1 11.9263 1.01725 11.4154 1.09025 9.81613C1.11516 8.57173 1.35092 7.34057 1.7875 6.175C2.17289 5.17842 2.76225 4.27335 3.5178 3.5178C4.27335 2.76225 5.17842 2.17289 6.175 1.7875C7.34037 1.35099 8.57131 1.11523 9.8155 1.09025ZM22.0613 3.79025C20.4796 3.718 20.0051 3.70275 16 3.70275C11.9949 3.70275 11.5204 3.718 9.93875 3.79013C8.98756 3.80145 8.04539 3.97616 7.15337 4.30662C6.50649 4.55625 5.91901 4.9385 5.42873 5.4288C4.93845 5.91911 4.55622 6.5066 4.30662 7.1535C3.97616 8.04551 3.80145 8.98768 3.79013 9.93888C3.71788 11.5205 3.70262 11.995 3.70262 16.0001C3.70262 20.0052 3.718 20.4797 3.79013 22.0614C3.80145 23.0126 3.97616 23.9547 4.30662 24.8468C4.55623 25.4936 4.93847 26.0811 5.42875 26.5714C5.91903 27.0617 6.5065 27.4439 7.15337 27.6935C8.04539 28.024 8.98756 28.1987 9.93875 28.21C11.5202 28.2822 11.9945 28.2975 16 28.2975C20.0055 28.2975 20.4798 28.2821 22.0613 28.21C23.0124 28.1987 23.9546 28.024 24.8466 27.6935C25.4935 27.4439 26.081 27.0617 26.5713 26.5714C27.0615 26.0811 27.4438 25.4936 27.6934 24.8468C28.0238 23.9547 28.1986 23.0126 28.2099 22.0614C28.2821 20.4797 28.2974 20.0052 28.2974 16.0001C28.2974 11.995 28.282 11.5205 28.2099 9.93888C28.1986 8.98768 28.0238 8.04551 27.6934 7.1535C27.4438 6.50663 27.0615 5.91915 26.5713 5.42887C26.081 4.93859 25.4935 4.55636 24.8466 4.30675C23.9546 3.97628 23.0124 3.80157 22.0613 3.79025Z" fill="black"/>
</svg>
