<svg width="32" height="32" viewBox="0 0 32 32" fill="none" xmlns="http://www.w3.org/2000/svg">
<path fill-rule="evenodd" clip-rule="evenodd" d="M16 16.6342L12.3968 19.7226C11.5103 20.4825 11 21.5919 11 22.7596V28H21V22.7596C21 21.5919 20.4897 20.4825 19.6032 19.7226L16 16.6342ZM16 15.3658L19.6032 12.2774C20.4897 11.5175 21 10.4081 21 9.24039V4L11 4V9.24039C11 10.4081 11.5103 11.5175 12.3968 12.2774L16 15.3658ZM11.0953 18.2041C9.76538 19.344 9 21.0081 9 22.7596V28C9 29.1046 9.89543 30 11 30H21C22.1046 30 23 29.1046 23 28V22.7596C23 21.0081 22.2346 19.344 20.9047 18.2041L18.3333 16L20.9047 13.7959C22.2346 12.656 23 10.9919 23 9.24039V4C23 2.89543 22.1046 2 21 2H11C9.89543 2 9 2.89543 9 4V9.24039C9 10.9919 9.76538 12.656 11.0953 13.7959L13.6667 16L11.0953 18.2041Z" fill="black"/>
</svg>
