<svg width="32" height="32" viewBox="0 0 32 32" fill="none" xmlns="http://www.w3.org/2000/svg">
<path d="M16.6549 2.24431C16.2791 1.91856 15.7209 1.91856 15.3451 2.24431L3.34507 12.6443C3.12591 12.8343 3 13.11 3 13.4V29C3 29.5523 3.44772 30 4 30C4.55228 30 5 29.5523 5 29V13.8566L16 4.3233L27 13.8566V29C27 29.5523 27.4477 30 28 30C28.5523 30 29 29.5523 29 29V13.4C29 13.11 28.8741 12.8343 28.6549 12.6443L16.6549 2.24431Z" fill="black"/>
<mask id="path-2-inside-1_364_43" fill="white">
<rect x="9" y="20" width="8" height="8" rx="1"/>
</mask>
<rect x="9" y="20" width="8" height="8" rx="1" stroke="black" stroke-width="4" mask="url(#path-2-inside-1_364_43)"/>
<mask id="path-3-inside-2_364_43" fill="white">
<rect x="9" y="14" width="8" height="8" rx="1"/>
</mask>
<rect x="9" y="14" width="8" height="8" rx="1" stroke="black" stroke-width="4" mask="url(#path-3-inside-2_364_43)"/>
<mask id="path-4-inside-3_364_43" fill="white">
<rect x="15" y="20" width="8" height="8" rx="1"/>
</mask>
<rect x="15" y="20" width="8" height="8" rx="1" stroke="black" stroke-width="4" mask="url(#path-4-inside-3_364_43)"/>
</svg>
