<svg width="32" height="32" viewBox="0 0 32 32" fill="none" xmlns="http://www.w3.org/2000/svg">
<g id="AisIndustry">
<path id="Vector" d="M27.472 9.11798C27.148 8.94398 26.752 8.96403 26.446 9.16803L22.001 12.132V10C22.001 9.631 21.798 9.29198 21.473 9.11798C21.15 8.94398 20.752 8.96403 20.447 9.16803L16.002 12.132V10C16.002 9.631 15.799 9.29198 15.474 9.11798C15.15 8.94398 14.754 8.96403 14.448 9.16803L10.003 12.132V5C10.003 4.447 9.55599 4 9.00299 4H5.00299C4.44999 4 4.00299 4.447 4.00299 5V27C4.00299 27.553 4.44999 28 5.00299 28H27.003C27.556 28 28.003 27.553 28.003 27V10C28.003 9.631 27.8 9.29198 27.475 9.11798H27.472ZM10 26V20H12V26H10ZM26 26H14V19C14 18.447 13.553 18 13 18H9C8.447 18 8 18.447 8 19V26H6V6H8V14C8 14.369 8.20302 14.708 8.52802 14.882C8.85202 15.056 9.24799 15.036 9.55399 14.832L13.999 11.868V14C13.999 14.369 14.202 14.708 14.527 14.882C14.851 15.056 15.248 15.036 15.553 14.832L19.998 11.868V14C19.998 14.369 20.201 14.708 20.526 14.882C20.85 15.056 21.246 15.036 21.552 14.832L25.997 11.868V26H26Z" fill="black"/>
</g>
</svg>
