<svg width="32" height="32" viewBox="0 0 32 32" fill="none" xmlns="http://www.w3.org/2000/svg">
<path d="M2 10V21.2H30V10H2ZM16.0023 20.64C8.19267 20.64 2.56 18.3533 2.56 15.6C2.56 12.8467 8.19617 10.56 16.0023 10.56C23.8073 10.56 29.44 12.8467 29.44 15.6C29.44 18.3533 23.812 20.64 16.0023 20.64ZM15.7398 13.5677H20.6118V14.6923C20.4917 14.6375 20.375 14.6375 20.2548 14.6375H18.2038V15.1742H20.1743V16.0282H18.2038V16.5613H20.2548C20.375 16.5613 20.4917 16.5613 20.6118 16.503V17.6312H15.7398C15.8005 17.5133 15.8005 17.4002 15.8005 17.2823V13.92C15.8005 13.8022 15.8005 13.689 15.7398 13.5677ZM7.4845 13.92V17.2812C7.4845 17.399 7.4845 17.5122 7.54517 17.63H4.8C4.86067 17.5122 4.86067 17.399 4.86067 17.2812V13.92C4.86067 13.8022 4.86067 13.689 4.8 13.5712H7.54517C7.4845 13.689 7.4845 13.8022 7.4845 13.92ZM15.006 17.2812C15.0947 17.406 15.1903 17.5238 15.3035 17.63H12.2725C12.2725 17.5122 12.1558 17.273 12.0275 17.0852C11.8992 16.8973 11.205 15.8672 11.205 15.8672V17.2812C11.205 17.399 11.205 17.5122 11.2657 17.63H8.741C8.80167 17.5122 8.80167 17.399 8.80167 17.2812V13.92C8.80167 13.8022 8.80167 13.689 8.741 13.5712H11.2657C11.205 13.689 11.205 13.8022 11.205 13.92V15.3888C11.205 15.3888 12.0112 14.3622 12.1967 14.123C12.3367 13.9433 12.5093 13.6878 12.5093 13.5712H15.1425C14.9617 13.689 14.761 13.9002 14.5965 14.0962L13.6328 15.2442C13.6328 15.2442 14.845 17.0502 15.006 17.2812ZM27.3097 13.7753C27.3097 13.7209 27.2883 13.6686 27.2501 13.6297C27.2119 13.5909 27.16 13.5686 27.1055 13.5677H26.8605V14.2105H26.9573V13.983H27.0973L27.2257 14.2105H27.3342L27.1942 13.9632C27.2286 13.9452 27.2575 13.9183 27.2779 13.8852C27.2982 13.8521 27.3092 13.8142 27.3097 13.7753ZM27.0892 13.8932H26.9562V13.6703H27.1008C27.165 13.6703 27.2093 13.7252 27.2093 13.7882C27.2093 13.85 27.1533 13.8967 27.0892 13.8932ZM27.0647 13.36H27.0285C26.9599 13.3611 26.8921 13.3757 26.8292 13.4032C26.7663 13.4306 26.7095 13.4703 26.6621 13.5199C26.6146 13.5695 26.5775 13.6281 26.5529 13.6922C26.5283 13.7562 26.5166 13.8246 26.5187 13.8932C26.5187 13.9013 26.5187 13.913 26.5152 13.92C26.5209 14.0636 26.5833 14.1991 26.6887 14.2968C26.7941 14.3945 26.9339 14.4466 27.0775 14.4415C27.1486 14.4406 27.2188 14.4257 27.2841 14.3976C27.3495 14.3696 27.4086 14.3289 27.4582 14.278C27.5079 14.2271 27.547 14.1669 27.5733 14.1009C27.5997 14.0348 27.6128 13.9643 27.6118 13.8932V13.8733C27.6097 13.8037 27.5939 13.7351 27.5652 13.6716C27.5366 13.608 27.4956 13.5508 27.4448 13.5031C27.394 13.4554 27.3342 13.4182 27.269 13.3937C27.2038 13.3691 27.1343 13.3577 27.0647 13.36ZM27.0647 14.3202C26.9502 14.3211 26.8399 14.2768 26.758 14.1968C26.676 14.1168 26.629 14.0077 26.6272 13.8932V13.8617C26.6299 13.8069 26.6433 13.7533 26.6668 13.7038C26.6902 13.6543 26.7232 13.6099 26.7639 13.5731C26.8045 13.5364 26.852 13.508 26.9036 13.4897C26.9552 13.4713 27.01 13.4633 27.0647 13.4662C27.305 13.4662 27.5022 13.6587 27.5022 13.8932C27.5022 14.1277 27.3062 14.3202 27.0647 14.3202ZM26.0415 13.9247C25.9972 13.8068 25.933 13.6937 25.9657 13.5758H22.4458C22.4622 13.6937 22.4178 13.8068 22.3735 13.9247L21.1252 17.2858C21.0862 17.4136 21.022 17.5323 20.9362 17.6347H23.0187C23.0023 17.5168 23.0467 17.4037 23.0863 17.2858C23.126 17.168 23.1703 17.0548 23.1703 17.0548L23.1948 16.9918H24.7162L24.7407 17.0502C24.7967 17.1878 24.8375 17.2812 24.8375 17.2812C24.8853 17.399 24.9297 17.5122 24.918 17.63H27.5582C27.469 17.5286 27.4019 17.4098 27.361 17.2812C26.9237 16.1613 26.4838 15.0425 26.0415 13.9247ZM23.5133 16.1332C23.6942 15.6432 23.8505 15.2325 23.8622 15.1928C23.8948 15.1065 23.9182 15.0167 23.9345 14.9268C23.9543 15.0167 23.9823 15.1065 24.015 15.1928L24.3837 16.1332H23.5133Z" fill="black"/>
</svg>
