<svg width="32" height="32" viewBox="0 0 32 32" fill="none" xmlns="http://www.w3.org/2000/svg">
<path d="M29.19 19.129L25.399 10H26.999C27.552 10 27.999 9.553 27.999 9C27.999 8.447 27.552 8 26.999 8H21.413L19.413 6H16.999V4C16.999 3.447 16.552 3 15.999 3C15.446 3 14.999 3.447 14.999 4V6H12.585L10.585 8H4.99899C4.44599 8 3.99899 8.447 3.99899 9C3.99899 9.553 4.44599 10 4.99899 10H6.69799L2.923 19.139C2.821 19.384 2.821 19.66 2.923 19.905C3.026 20.15 3.221 20.344 3.466 20.446C3.835 20.598 4.207 20.729 4.579 20.842C4.706 20.88 4.83599 20.911 4.96499 20.943L5.24499 21.013C5.40399 21.054 5.562 21.095 5.716 21.125C5.87 21.156 6.02599 21.178 6.18099 21.199L6.471 21.242C6.608 21.263 6.74498 21.283 6.87798 21.297C7.03498 21.313 7.19399 21.319 7.35299 21.326L7.635 21.34C7.777 21.348 7.917 21.355 8.057 21.355C8.196 21.355 8.33398 21.347 8.47298 21.339L8.785 21.323C8.935 21.317 9.08599 21.309 9.23199 21.295C9.37399 21.281 9.51598 21.26 9.65798 21.237L9.941 21.195C10.093 21.174 10.245 21.152 10.395 21.122C10.558 21.09 10.721 21.047 10.884 21.005L11.168 20.933C11.291 20.903 11.415 20.872 11.535 20.836C11.908 20.722 12.281 20.59 12.649 20.437C13.159 20.225 13.4 19.64 13.189 19.13L9.398 10.001H11.413L13.413 8.00098H14.999V26.001H9.99899C9.44599 26.001 8.99899 26.448 8.99899 27.001C8.99899 27.554 9.44599 28.001 9.99899 28.001H21.999C22.552 28.001 22.999 27.554 22.999 27.001C22.999 26.448 22.552 26.001 21.999 26.001H16.999V8.00098H18.585L20.585 10.001H22.698L18.923 19.14C18.821 19.385 18.821 19.661 18.923 19.906C19.026 20.151 19.221 20.345 19.466 20.447C19.835 20.599 20.207 20.73 20.579 20.843C20.706 20.881 20.836 20.912 20.965 20.944L21.245 21.014C21.404 21.055 21.562 21.096 21.716 21.126C21.87 21.157 22.026 21.179 22.181 21.2L22.471 21.243C22.608 21.264 22.745 21.284 22.878 21.298C23.035 21.314 23.194 21.32 23.353 21.327L23.635 21.341C23.777 21.349 23.917 21.356 24.057 21.356C24.196 21.356 24.334 21.348 24.473 21.34L24.785 21.324C24.935 21.318 25.086 21.31 25.232 21.296C25.374 21.282 25.516 21.261 25.658 21.238L25.941 21.196C26.093 21.175 26.245 21.153 26.395 21.123C26.558 21.091 26.721 21.048 26.884 21.006L27.168 20.934C27.291 20.904 27.415 20.873 27.535 20.837C27.908 20.723 28.281 20.591 28.649 20.438C29.159 20.226 29.4 19.641 29.189 19.131L29.19 19.129ZM10.7 18.987L10.376 19.069C10.251 19.101 10.128 19.134 10.004 19.16C9.89299 19.181 9.77898 19.197 9.66598 19.213L9.346 19.261C9.243 19.277 9.142 19.294 9.035 19.304C8.923 19.316 8.80898 19.32 8.69698 19.325L8.359 19.343C8.155 19.355 7.95099 19.355 7.74499 19.343L7.43499 19.328C7.31699 19.323 7.198 19.318 7.078 19.307C6.977 19.297 6.87699 19.281 6.77499 19.266L6.45599 19.219C6.34199 19.202 6.22699 19.188 6.10699 19.163C5.98799 19.14 5.87 19.108 5.751 19.077L5.59298 19.036L5.42898 18.996C5.34498 18.976 5.25998 18.957 5.17498 18.932L8.05099 11.968L10.941 18.926C10.862 18.95 10.782 18.969 10.702 18.988L10.7 18.987ZM26.7 18.987L26.376 19.069C26.251 19.101 26.128 19.134 26.004 19.16C25.893 19.181 25.779 19.197 25.666 19.213L25.346 19.261C25.243 19.277 25.142 19.294 25.035 19.304C24.923 19.316 24.809 19.32 24.697 19.325L24.359 19.343C24.155 19.355 23.951 19.355 23.745 19.343L23.435 19.328C23.317 19.323 23.198 19.318 23.078 19.307C22.977 19.297 22.877 19.281 22.775 19.266L22.456 19.219C22.342 19.202 22.227 19.188 22.107 19.163C21.988 19.14 21.87 19.108 21.751 19.077L21.593 19.036L21.429 18.996C21.345 18.976 21.26 18.957 21.175 18.932L24.051 11.968L26.941 18.926C26.862 18.95 26.782 18.969 26.702 18.988L26.7 18.987Z" fill="black"/>
</svg>
