<svg width="32" height="32" viewBox="0 0 32 32" fill="none" xmlns="http://www.w3.org/2000/svg">
<path d="M14.0019 7.51278C13.063 7.1807 12.0526 7 11 7C6.02944 7 2 11.0294 2 16C2 20.9706 6.02944 25 11 25C12.0526 25 13.063 24.8193 14.0019 24.4872C11.5578 22.4697 10 19.4167 10 16C10 12.5833 11.5578 9.53035 14.0019 7.51278Z" fill="black"/>
<path d="M16 23.4845C18.412 21.8699 20 19.1204 20 16C20 12.8796 18.412 10.1301 16 8.51556C13.588 10.1301 12 12.8796 12 16C12 19.1204 13.588 21.8699 16 23.4845Z" fill="black"/>
<path fill-rule="evenodd" clip-rule="evenodd" d="M18 7.51278C18.7589 7.24435 19.5646 7.07483 20.4015 7.01971C20.5999 7.00664 20.8001 7 21.0019 7C25.9724 7 30.0019 11.0294 30.0019 16C30.0019 20.9706 25.9724 25 21.0019 25C20.8001 25 20.5999 24.9934 20.4015 24.9803C19.5646 24.9252 18.7589 24.7556 18 24.4872C18.5881 24.0017 19.1249 23.4563 19.6011 22.8602C21.1036 20.9793 22.0019 18.5946 22.0019 16C22.0019 13.4054 21.1036 11.0207 19.6011 9.13979C19.1249 8.54374 18.5881 7.99828 18 7.51278ZM28.0019 16C28.0019 19.5261 25.3947 22.4433 22.0029 22.929C23.2684 20.9237 24.0019 18.5471 24.0019 16C24.0019 13.4529 23.2684 11.0763 22.0029 9.07104C25.3947 9.55673 28.0019 12.4739 28.0019 16Z" fill="black"/>
</svg>
