<svg width="32" height="32" viewBox="0 0 32 32" fill="none" xmlns="http://www.w3.org/2000/svg">
<path fill-rule="evenodd" clip-rule="evenodd" d="M11.6004 7.01971C12.4373 7.07483 13.243 7.24435 14.0019 7.51278C13.4137 7.99828 12.8769 8.54374 12.4008 9.13979C10.8983 11.0207 10 13.4054 10 16C10 18.5946 10.8983 20.9793 12.4008 22.8602C12.8769 23.4563 13.4137 24.0017 14.0019 24.4872C13.243 24.7556 12.4373 24.9252 11.6004 24.9803C11.4019 24.9934 11.2017 25 11 25C6.02944 25 2 20.9706 2 16C2 11.0294 6.02944 7 11 7C11.2017 7 11.4019 7.00664 11.6004 7.01971ZM9.99893 22.929C6.60716 22.4433 4 19.5261 4 16C4 12.4739 6.60716 9.55673 9.99893 9.07104C8.7335 11.0763 8 13.4529 8 16C8 18.5471 8.7335 20.9237 9.99893 22.929Z" fill="black"/>
<path d="M16 23.4845C18.412 21.8699 20 19.1204 20 16C20 12.8796 18.412 10.1301 16 8.51556C13.588 10.1301 12 12.8796 12 16C12 19.1204 13.588 21.8699 16 23.4845Z" fill="black"/>
<path d="M21.0019 7C19.9493 7 18.9389 7.1807 18 7.51278C20.4441 9.53035 22.0019 12.5833 22.0019 16C22.0019 19.4167 20.4441 22.4697 18 24.4872C18.9389 24.8193 19.9493 25 21.0019 25C25.9724 25 30.0019 20.9706 30.0019 16C30.0019 11.0294 25.9724 7 21.0019 7Z" fill="black"/>
</svg>
