<svg width="32" height="32" viewBox="0 0 32 32" fill="none" xmlns="http://www.w3.org/2000/svg">
<path d="M21.293 9.29294C20.902 9.68394 20.902 10.3169 21.293 10.7069C21.684 11.0969 22.317 11.0979 22.707 10.7069C23.098 10.3159 23.098 9.68294 22.707 9.29294C22.316 8.90195 21.683 8.90195 21.293 9.29294Z" fill="black"/>
<path d="M25.95 6.04992C23.221 3.32092 18.78 3.32092 16.051 6.04992C14.171 7.92992 13.538 10.647 14.349 13.14L5.33099 21.2559C5.11999 21.4449 5 21.7159 5 21.9989V25.9989C5 26.2819 5.12 26.5519 5.33 26.7409C5.515 26.9079 5.754 26.9989 6 26.9989C6.033 26.9989 6.067 26.9969 6.101 26.9939L7.43201 26.8589C7.66101 26.8359 7.87499 26.7339 8.03799 26.5709L9.505 25.1039L10.662 25.0179C11.044 24.9899 11.376 24.747 11.517 24.3899L12.292 22.4419L14.24 21.6669C14.495 21.5649 14.698 21.3629 14.8 21.1079L15.578 19.1519L18.209 18.0649L20.999 17.9989C22.869 17.9989 24.626 17.2699 25.949 15.9489C28.678 13.2199 28.679 8.77892 25.95 6.04992ZM24.536 14.5349C23.592 15.4789 22.336 15.9989 20.976 15.9999L17.976 16.071C17.853 16.074 17.732 16.0989 17.618 16.1459L14.424 17.4659C14.174 17.5689 13.977 17.7689 13.877 18.0199L13.102 19.9689L11.154 20.7439C10.899 20.8459 10.696 21.0479 10.594 21.3039L9.89101 23.0709L8.987 23.1379C8.748 23.1559 8.523 23.2579 8.354 23.4279L7 24.7819V22.4449L16.196 14.1679C16.517 13.8789 16.616 13.4159 16.442 13.0199C15.597 11.1109 15.998 8.92993 17.464 7.46393C19.413 5.51493 22.586 5.51493 24.535 7.46393C26.484 9.41393 26.485 12.5859 24.536 14.5349Z" fill="black"/>
</svg>
