<svg width="32" height="32" viewBox="0 0 32 32" fill="none" xmlns="http://www.w3.org/2000/svg">
<g id="AisKey">
<g id="Vector">
<path d="M21.293 9.29301C20.902 9.68401 20.902 10.317 21.293 10.707C21.684 11.097 22.317 11.098 22.707 10.707C23.098 10.316 23.098 9.68301 22.707 9.29301C22.316 8.90201 21.683 8.90201 21.293 9.29301Z" fill="black"/>
<path d="M25.95 6.04998C23.221 3.32098 18.78 3.32098 16.051 6.04998C14.171 7.92999 13.538 10.647 14.349 13.14L5.33099 21.256C5.11999 21.445 5 21.716 5 21.999V25.999C5 26.282 5.12 26.552 5.33 26.741C5.515 26.908 5.754 26.999 6 26.999C6.033 26.999 6.067 26.997 6.101 26.994L7.43201 26.859C7.66101 26.836 7.87499 26.734 8.03799 26.571L9.505 25.104L10.662 25.018C11.044 24.99 11.376 24.747 11.517 24.39L12.292 22.442L14.24 21.667C14.495 21.565 14.698 21.363 14.8 21.108L15.578 19.152L18.209 18.065L20.999 17.999C22.869 17.999 24.626 17.27 25.949 15.949C28.678 13.22 28.679 8.77899 25.95 6.04998ZM24.536 14.535C23.592 15.479 22.336 15.999 20.976 16L17.976 16.071C17.853 16.074 17.732 16.099 17.618 16.146L14.424 17.466C14.174 17.569 13.977 17.769 13.877 18.02L13.102 19.969L11.154 20.744C10.899 20.846 10.696 21.048 10.594 21.304L9.89101 23.071L8.987 23.138C8.748 23.156 8.523 23.258 8.354 23.428L7 24.782V22.445L16.196 14.168C16.517 13.879 16.616 13.416 16.442 13.02C15.597 11.111 15.998 8.92999 17.464 7.46399C19.413 5.51499 22.586 5.51499 24.535 7.46399C26.484 9.41399 26.485 12.586 24.536 14.535Z" fill="black"/>
</g>
</g>
</svg>
