<svg width="32" height="32" viewBox="0 0 32 32" fill="none" xmlns="http://www.w3.org/2000/svg">
<path fill-rule="evenodd" clip-rule="evenodd" d="M16 31C24.2843 31 31 24.2843 31 16C31 7.71573 24.2843 1 16 1C7.71573 1 1 7.71573 1 16C1 24.2843 7.71573 31 16 31ZM12 7H7V25H12V7ZM13.7362 13.2668L18.0869 7.74605C18.4578 7.2751 19.0188 7 19.6154 7H24.8053L18.634 14.3672C18.1997 14.8879 18.175 15.6386 18.5753 16.1888L25 25H19.9276C19.2878 25 18.6927 24.686 18.3264 24.1607L13.6157 17.3732C12.7517 16.1251 12.8012 14.4605 13.7378 13.2668H13.7362Z" fill="black"/>
</svg>
