<svg width="32" height="32" viewBox="0 0 32 32" fill="none" xmlns="http://www.w3.org/2000/svg">
<path d="M28.634 4.22696C28.308 3.95696 27.847 3.92498 27.486 4.14298L17.957 9.86099L4.44804 3.10599C4.07804 2.91999 3.63004 2.98395 3.32404 3.26395C3.01804 3.54495 2.91804 3.98694 3.07204 4.37094L8.36404 17.5999C8.14004 18.0199 8.00104 18.492 8.00104 19C8.00104 20.203 8.71704 21.236 9.74204 21.713C9.00304 24.188 6.71404 26 4.00104 26C3.44804 26 3.00104 26.447 3.00104 27C3.00104 27.553 3.44804 28 4.00104 28C7.76004 28 10.911 25.39 11.763 21.89C12.721 21.637 13.487 20.925 13.817 20H23.001C23.424 20 23.801 19.734 23.942 19.336L28.942 5.33597C29.085 4.93897 28.962 4.49396 28.634 4.22696ZM11 20C10.448 20 10 19.552 10 19C10 18.448 10.448 18 11 18C11.552 18 12 18.448 12 19C12 19.552 11.552 20 11 20ZM22.295 18H13.816C13.402 16.839 12.302 16 11 16C10.631 16 10.282 16.076 9.95604 16.198L5.90504 6.06998L17.552 11.894C17.859 12.046 18.22 12.033 18.514 11.857L26.118 7.29495L22.295 18Z" fill="black"/>
</svg>
