<svg width="32" height="32" viewBox="0 0 32 32" fill="none" xmlns="http://www.w3.org/2000/svg">
<g id="AisListOrdered">
<g id="Vector">
<path d="M14 11C14 10.4477 14.4477 9.99999 15 9.99999H27C27.5523 9.99999 28 10.4477 28 11C28 11.5523 27.5523 12 27 12H15C14.4477 12 14 11.5523 14 11Z" fill="black"/>
<path d="M14 21C14 20.4477 14.4477 20 15 20H27C27.5523 20 28 20.4477 28 21C28 21.5523 27.5523 22 27 22H15C14.4477 22 14 21.5523 14 21Z" fill="black"/>
<path d="M8.75355 7.72726V15H7.21591V9.18678H7.1733L5.50781 10.2308V8.86718L7.30824 7.72726H8.75355Z" fill="black"/>
<path d="M5.58949 25V23.892L8.17827 21.495C8.39844 21.282 8.5831 21.0902 8.73224 20.9197C8.88376 20.7493 8.99858 20.5824 9.0767 20.419C9.15483 20.2533 9.19389 20.0746 9.19389 19.8828C9.19389 19.6697 9.14536 19.4863 9.0483 19.3324C8.95123 19.1761 8.81866 19.0566 8.65057 18.9737C8.48248 18.8885 8.2919 18.8459 8.07884 18.8459C7.8563 18.8459 7.66217 18.8909 7.49645 18.9808C7.33073 19.0708 7.20289 19.1998 7.11293 19.3679C7.02296 19.536 6.97798 19.736 6.97798 19.968H5.51847C5.51847 19.4922 5.62618 19.0791 5.84162 18.7287C6.05705 18.3783 6.3589 18.1072 6.74716 17.9155C7.13542 17.7237 7.58286 17.6278 8.08949 17.6278C8.61032 17.6278 9.06368 17.7202 9.44957 17.9048C9.83783 18.0871 10.1397 18.3404 10.3551 18.6648C10.5705 18.9891 10.6783 19.3608 10.6783 19.7798C10.6783 20.0544 10.6238 20.3255 10.5149 20.593C10.4084 20.8606 10.2178 21.1577 9.94318 21.4844C9.66856 21.8087 9.28149 22.1981 8.78196 22.6527L7.72017 23.6932V23.7429H10.7741V25H5.58949Z" fill="black"/>
</g>
</g>
</svg>
