<svg width="32" height="32" viewBox="0 0 32 32" fill="none" xmlns="http://www.w3.org/2000/svg">
<g id="AisLocation">
<g id="Vector">
<path d="M16 10.515C14.078 10.515 12.515 12.078 12.515 14C12.515 15.922 14.078 17.485 16 17.485C17.922 17.485 19.485 15.922 19.485 14C19.485 12.078 17.922 10.515 16 10.515ZM16 15.486C15.181 15.486 14.515 14.819 14.515 14.001C14.515 13.183 15.181 12.516 16 12.516C16.819 12.516 17.485 13.183 17.485 14.001C17.485 14.819 16.819 15.486 16 15.486Z" fill="black"/>
<path d="M23.776 6.20302C19.489 1.94002 12.51 1.94002 8.22302 6.20302C6.14402 8.26902 4.99902 11.017 4.99902 13.941C4.99902 16.865 6.14402 19.613 8.22302 21.68L15.294 28.709C15.489 28.903 15.744 29 15.999 29C16.254 29 16.509 28.903 16.704 28.709L23.775 21.68C25.854 19.613 26.999 16.865 26.999 13.941C26.999 11.017 25.854 8.27002 23.775 6.20302H23.776ZM22.366 20.262L16 26.59L9.63403 20.262C7.93603 18.573 7.00003 16.328 7.00003 13.941C7.00003 11.554 7.93603 9.30902 9.63403 7.62102C11.389 5.87602 13.695 5.00401 16 5.00401C18.305 5.00401 20.611 5.87702 22.366 7.62102C24.064 9.30902 25 11.554 25 13.941C25 16.328 24.064 18.572 22.366 20.262Z" fill="black"/>
</g>
</g>
</svg>
