<svg width="32" height="32" viewBox="0 0 32 32" fill="none" xmlns="http://www.w3.org/2000/svg">
<path d="M2 5C2 4.44772 2.44772 4 3 4H29C29.5523 4 30 4.44772 30 5C30 5.55228 29.5523 6 29 6H3C2.44771 6 2 5.55228 2 5Z" fill="black"/>
<path d="M2 27C2 26.4477 2.44772 26 3 26H29C29.5523 26 30 26.4477 30 27C30 27.5523 29.5523 28 29 28H3C2.44771 28 2 27.5523 2 27Z" fill="black"/>
<path fill-rule="evenodd" clip-rule="evenodd" d="M7 22.1308H8.54005L9.75961 18.6954H14.6653L15.8849 22.1308H17.4249L12.9707 10H11.4543L7 22.1308ZM14.2027 17.3922L12.2599 11.9191H12.1651L10.2222 17.3922H14.2027Z" fill="black"/>
<path d="M18.8643 21.0647V22.1308H25.9959V20.8277H20.8071V20.733L25.8301 14.1463V13.0327H19.0302V14.3358H24.0294V14.4306L18.8643 21.0647Z" fill="black"/>
</svg>
