<svg width="32" height="32" viewBox="0 0 32 32" fill="none" xmlns="http://www.w3.org/2000/svg">
<path d="M25.8995 4.10051C25.509 3.70999 24.8758 3.70999 24.4853 4.10051C24.0948 4.49103 24.0948 5.1242 24.4853 5.51472C29.1716 10.201 29.1716 17.799 24.4853 22.4853C24.0948 22.8758 24.0948 23.509 24.4853 23.8995C24.8758 24.29 25.509 24.29 25.8995 23.8995C31.3668 18.4322 31.3668 9.56785 25.8995 4.10051Z" fill="black"/>
<path d="M7.51472 5.51472C7.90524 5.1242 7.90524 4.49103 7.51472 4.10051C7.12419 3.70999 6.49103 3.70999 6.10051 4.10051C0.633165 9.56785 0.633165 18.4322 6.10051 23.8995C6.49103 24.29 7.12419 24.29 7.51472 23.8995C7.90524 23.509 7.90524 22.8758 7.51472 22.4853C2.82843 17.799 2.82843 10.201 7.51472 5.51472Z" fill="black"/>
<path d="M21.6569 6.92891C22.0474 6.53839 22.6805 6.53839 23.0711 6.92891C26.9763 10.8342 26.9763 17.1658 23.0711 21.071C22.6805 21.4616 22.0474 21.4616 21.6569 21.071C21.2663 20.6805 21.2663 20.0474 21.6569 19.6568C24.781 16.5326 24.781 11.4673 21.6569 8.34313C21.2663 7.9526 21.2663 7.31944 21.6569 6.92891Z" fill="black"/>
<path d="M10.3431 6.92891C10.7337 7.31944 10.7337 7.9526 10.3431 8.34313C7.21895 11.4673 7.21895 16.5326 10.3431 19.6568C10.7337 20.0474 10.7337 20.6805 10.3431 21.071C9.95262 21.4616 9.31946 21.4616 8.92893 21.071C5.02369 17.1658 5.02369 10.8342 8.92893 6.92891C9.31946 6.53839 9.95262 6.53839 10.3431 6.92891Z" fill="black"/>
<path d="M20.2426 9.75735C19.8521 9.36682 19.219 9.36682 18.8284 9.75735C18.4379 10.1479 18.4379 10.781 18.8284 11.1716C20.3905 12.7337 20.3905 15.2663 18.8284 16.8284C18.4379 17.2189 18.4379 17.8521 18.8284 18.2426C19.219 18.6332 19.8521 18.6332 20.2426 18.2426C22.5858 15.8995 22.5858 12.1005 20.2426 9.75735Z" fill="black"/>
<path d="M13.1716 11.1716C13.5621 10.781 13.5621 10.1479 13.1716 9.75735C12.781 9.36682 12.1479 9.36682 11.7574 9.75735C9.41421 12.1005 9.41421 15.8995 11.7574 18.2426C12.1479 18.6332 12.781 18.6332 13.1716 18.2426C13.5621 17.8521 13.5621 17.2189 13.1716 16.8284C11.6095 15.2663 11.6095 12.7337 13.1716 11.1716Z" fill="black"/>
<path d="M18 14C18 14.7403 17.5978 15.3866 17 15.7324V29C17 29.5523 16.5523 30 16 30C15.4477 30 15 29.5523 15 29V15.7324C14.4022 15.3866 14 14.7403 14 14C14 12.8954 14.8954 12 16 12C17.1046 12 18 12.8954 18 14Z" fill="black"/>
</svg>
