<svg width="32" height="32" viewBox="0 0 32 32" fill="none" xmlns="http://www.w3.org/2000/svg">
<path d="M23.532 12H22V10C22 6.691 19.309 4 16 4C12.691 4 10 6.691 10 10V12H8.46802C7.10802 12 6 13.107 6 14.468V25.532C6 26.892 7.10702 28 8.46802 28H23.532C24.892 28 26 26.893 26 25.532V14.468C26 13.107 24.893 12 23.532 12ZM12 10C12 7.794 13.794 6 16 6C18.206 6 20 7.794 20 10V12H12V10ZM24 25.532C24 25.79 23.79 26 23.532 26H8.46802C8.21002 26 8 25.79 8 25.532V14.468C8 14.21 8.21002 14 8.46802 14H23.532C23.79 14 24 14.21 24 14.468V25.532Z" fill="black"/>
</svg>
