<svg width="32" height="32" viewBox="0 0 32 32" fill="none" xmlns="http://www.w3.org/2000/svg">
<path fill-rule="evenodd" clip-rule="evenodd" d="M2.86275 21.8261C4.58485 24.8351 8.16626 26.1522 11.4771 26.2991C15.3348 26.4808 19.2226 25.4175 22.5488 23.4792C25.9254 21.4886 29.0223 18.4064 29.8425 14.4485C30.3981 11.8859 29.4614 9.07164 27.3877 7.44129C24.332 4.99106 20.1204 4.62967 16.3801 5.29259C11.5069 6.1885 6.77736 8.75631 3.89416 12.8627C2.07643 15.3997 1.2477 18.9841 2.86275 21.8261ZM10.1052 11.8901L10.0351 11.865C9.93895 11.8383 9.84984 11.7908 9.77414 11.7258C9.75302 11.703 9.73752 11.6755 9.72887 11.6456C9.72021 11.6157 9.71865 11.5842 9.7243 11.5536C9.75878 11.3806 9.96065 11.3827 10.0605 11.3837L10.08 11.3839H21.3631C22.1721 11.3839 22.5726 11.4217 22.8201 11.6596C23.0477 11.8788 23.0341 12.2089 22.8333 12.5941C22.6497 12.9454 22.3403 13.4902 22.3256 13.5101L13.9177 13.6417C13.9177 13.6417 13.8462 13.5909 13.8089 13.5657C12.7198 12.8262 10.7971 12.1378 10.1052 11.8901ZM22.1699 14.0509C24.6946 14.0116 26.8653 13.9779 26.9428 13.9757C27.2065 13.9683 27.3908 14.055 27.3996 14.2135C27.4091 14.3832 27.225 14.5036 27.002 14.5438C24.1633 15.0555 20.2909 15.9042 16.3631 16.8848C12.5698 17.8324 8.67511 18.8072 6.54868 19.3609C6.44194 19.3887 6.33969 19.4146 6.24214 19.4393C6.12627 19.4687 6.01698 19.4963 5.9147 19.5235C5.49325 19.6353 5.37038 19.5784 5.33173 19.4673C5.29308 19.3562 5.37741 19.2605 5.49913 19.1986C5.62284 19.1356 5.95757 19.0138 6.22048 18.9182C6.28137 18.896 6.33926 18.8749 6.38888 18.8567C7.49646 18.4488 9.6275 17.6433 11.325 16.8336C12.9342 16.0661 14.1168 15.2077 14.1215 14.3144C14.1221 14.204 14.152 14.1806 14.2544 14.1766C14.366 14.1722 18.6164 14.1061 22.1676 14.0509L22.1699 14.0509ZM16.8227 19.4805C16.832 19.4807 17.3796 19.4932 17.7802 19.2531C18.4304 18.863 19.2852 18.1547 20.4963 16.4521L7.51803 19.641L16.8227 19.4805Z" fill="black"/>
</svg>
