<svg width="32" height="32" viewBox="0 0 32 32" fill="none" xmlns="http://www.w3.org/2000/svg">
<path d="M27.3009 5.45399C28.0302 5.75682 28.6926 6.20064 29.25 6.76C30.3763 7.88235 31.011 9.40586 31.0147 10.9959C31.0185 12.5859 30.391 14.1124 29.27 15.24L21.27 23.24C20.7098 23.8009 20.044 24.2452 19.3111 24.5473C18.5782 24.8494 17.7927 25.0033 17 25C15.4101 25.0092 13.8815 24.387 12.75 23.27C12.1906 22.7126 11.7468 22.0502 11.444 21.3209C11.1412 20.5916 10.9853 19.8097 10.9853 19.02C10.9853 18.2303 11.1412 17.4484 11.444 16.7191C11.7468 15.9898 12.1906 15.3274 12.75 14.77L14.17 13.35L15.58 14.77L14.17 16.19C13.4194 16.9419 12.9983 17.9611 12.9992 19.0235C13.0002 20.0859 13.4231 21.1044 14.175 21.855C14.9269 22.6056 15.9461 23.0267 17.0085 23.0258C18.0709 23.0248 19.0894 22.6019 19.84 21.85L27.84 13.85C28.2123 13.4777 28.5076 13.0357 28.7091 12.5493C28.9106 12.0629 29.0143 11.5415 29.0143 11.015C29.0143 10.4885 28.9106 9.96714 28.7091 9.48071C28.5076 8.99428 28.2123 8.5523 27.84 8.18C27.4677 7.8077 27.0257 7.51238 26.5393 7.31089C26.0529 7.10941 25.5315 7.00571 25.005 7.00571C24.4785 7.00571 23.9571 7.10941 23.4707 7.31089C22.9843 7.51238 22.5423 7.8077 22.17 8.18L20.75 6.76C21.3074 6.20064 21.9698 5.75682 22.6991 5.45399C23.4284 5.15116 24.2103 4.99527 25 4.99527C25.7897 4.99527 26.5716 5.15116 27.3009 5.45399Z" fill="black"/>
<path d="M3.3181 23.52C3.52029 24.0066 3.81659 24.4483 4.19 24.82C4.56167 25.1934 5.00345 25.4897 5.48997 25.6919C5.97648 25.8941 6.49815 25.9982 7.025 25.9982C7.55185 25.9982 8.07352 25.8941 8.56003 25.6919C9.04655 25.4897 9.48833 25.1934 9.86 24.82L11.28 26.24C10.1417 27.3688 8.6031 28.0015 7 28C5.4109 28.0199 3.87882 27.4085 2.74 26.3C2.17914 25.7424 1.73404 25.0794 1.43032 24.3492C1.1266 23.619 0.970245 22.8359 0.970245 22.045C0.970245 21.2541 1.1266 20.4711 1.43032 19.7408C1.73404 19.0106 2.17914 18.3476 2.74 17.79L10.74 9.79001C11.8685 8.66151 13.3991 8.02753 14.995 8.02753C16.5909 8.02753 18.1215 8.66151 19.25 9.79001C20.3785 10.9185 21.0125 12.4491 21.0125 14.045C21.0125 15.6409 20.3785 17.1715 19.25 18.3L17.13 20.42L15.71 19L17.83 16.85C18.2037 16.4759 18.4996 16.0314 18.7004 15.5422C18.9012 15.053 19.0031 14.5288 19 14C19.0103 13.4728 18.9148 12.949 18.719 12.4594C18.5231 11.9699 18.2311 11.5246 17.86 11.15C17.4883 10.7766 17.0465 10.4803 16.56 10.2781C16.0735 10.0759 15.5519 9.97184 15.025 9.97184C14.4981 9.97184 13.9765 10.0759 13.49 10.2781C13.0035 10.4803 12.5617 10.7766 12.19 11.15L4.19 19.15C3.81659 19.5217 3.52029 19.9635 3.3181 20.45C3.11592 20.9365 3.01184 21.4582 3.01184 21.985C3.01184 22.5119 3.11592 23.0335 3.3181 23.52Z" fill="black"/>
</svg>
