<svg width="32" height="32" viewBox="0 0 32 32" fill="none" xmlns="http://www.w3.org/2000/svg">
<path d="M14.1415 10.6555C13.9432 10.4642 13.7577 10.2787 13.5838 10.1095C14.4087 9.26717 15.2335 8.42484 16.0525 7.5825C16.3313 7.8555 16.5985 8.111 16.854 8.37934C16.8773 8.40267 16.8657 8.47734 16.8423 8.51817C16.5857 9.02334 16.3313 9.5285 16.0758 10.0348C16.0525 10.0815 16.0292 10.1212 15.9942 10.197L16.1505 10.1328C16.6743 9.89484 17.2028 9.66267 17.7255 9.41884C17.8118 9.378 17.8655 9.378 17.9402 9.45384C18.1735 9.686 18.4103 9.91234 18.6203 10.1153C17.778 10.981 16.9473 11.8233 16.1283 12.6598C15.9183 12.4568 15.7212 12.2597 15.5298 12.073C15.9358 11.6612 16.3547 11.2365 16.7723 10.8188L16.7548 10.7838L16.6265 10.8363L15.1285 11.5153C15.0468 11.5503 14.9885 11.562 14.9255 11.4862C14.838 11.3812 14.6805 11.2948 14.6642 11.1852C14.6467 11.0743 14.7505 10.9343 14.8088 10.8118C15.0188 10.3533 15.2335 9.89484 15.4248 9.41884C14.9955 9.8365 14.565 10.2495 14.1415 10.6555ZM27.8032 22.7387C27.8148 22.6862 27.8218 22.6687 27.8218 22.6523C28.0482 21.8555 28.2745 21.0598 28.495 20.2642C28.5067 20.2175 28.5183 20.1428 28.4892 20.1125C28.2162 19.8348 27.9373 19.5677 27.6468 19.2888L25.1782 21.8088C25.3532 21.978 25.5503 22.1705 25.7533 22.3735C26.2935 21.8438 26.8512 21.3037 27.3867 20.7868C27.3867 20.7693 27.3867 20.7868 27.3797 20.8043C27.1942 21.5825 27.0145 22.3618 26.8162 23.1342C26.7648 23.3442 26.7753 23.4888 26.9503 23.6335C27.1487 23.7968 27.3225 23.994 27.5197 24.1912L30 21.6595C29.832 21.4962 29.6395 21.3095 29.4132 21.0832C28.8963 21.6175 28.362 22.1635 27.8032 22.7398V22.7387ZM18.5212 15.0597C18.6658 14.908 18.835 14.74 19.0263 14.5428C18.6775 14.1998 18.3123 13.851 17.9693 13.5197C18.1607 13.3283 18.3357 13.1487 18.527 12.9503C18.8 13.2233 19.0847 13.508 19.3635 13.781C19.5268 13.613 19.6948 13.4438 19.8978 13.2408C19.619 12.9678 19.3227 12.689 19.0613 12.4335L19.451 12.0158C19.8162 12.3752 20.1825 12.7298 20.543 13.0845C20.6993 12.927 20.8627 12.7578 21.0248 12.5898C20.4438 12.0217 19.8512 11.4465 19.2527 10.8597L16.791 13.375C17.3592 13.921 17.946 14.495 18.5212 15.0597ZM5.71817 19.619C5.53733 19.4568 5.37983 19.311 5.241 19.1838C5.584 18.8175 5.927 18.4582 6.27583 18.086C6.12417 17.946 5.96083 17.7897 5.79283 17.6322C5.2235 18.1898 4.64367 18.7592 4.07433 19.3122L6.58267 21.8205C7.15317 21.264 7.73417 20.7005 8.321 20.1253C8.146 19.962 7.98267 19.8103 7.81467 19.6482C7.46 19.9912 7.09483 20.3517 6.746 20.6947L6.20583 20.1883C6.49633 19.8803 6.77517 19.5793 7.06567 19.2713C6.90233 19.1197 6.73433 18.9633 6.51967 18.7592L5.71817 19.619ZM11.8525 11.8642C11.7708 11.835 11.7183 11.8408 11.66 11.905C11.4862 12.0847 11.3007 12.2597 11.1198 12.4335C11.0965 12.4568 11.0802 12.486 11.0498 12.521C11.4932 12.6657 11.9167 12.7998 12.346 12.9387C12.654 13.0378 12.9912 13.0903 13.2642 13.2537C13.5313 13.4158 13.7402 13.6888 13.9665 13.921C14.0832 14.0423 14.1928 14.1707 14.3095 14.3037C14.5428 14.054 14.7447 13.8393 14.9547 13.6188C14.6747 13.3342 14.3737 13.032 14.0832 12.724C14.0338 12.671 13.9978 12.607 13.9782 12.5373C13.8732 12.1138 13.7752 11.6845 13.6702 11.2598C13.5885 10.9168 13.5022 10.5692 13.4147 10.2028C13.165 10.4478 12.9328 10.673 12.7065 10.9005C12.6832 10.9238 12.6832 10.9868 12.6948 11.0288C12.7415 11.2015 12.7928 11.3707 12.8395 11.5445C12.9095 11.7942 12.9795 12.0438 13.0553 12.3227C12.6307 12.1488 12.241 12.01 11.8525 11.8642ZM24.911 16.5285L24.26 15.8962C23.4468 16.7268 22.6278 17.5692 21.7913 18.4232C22.349 18.9692 22.93 19.5315 23.5063 20.0903C23.686 19.9037 23.8832 19.7065 24.0978 19.486C23.7548 19.1488 23.3955 18.8 23.035 18.4523C23.6743 17.7897 24.3008 17.1503 24.911 16.5285ZM4.457 23.9135C5.038 23.3488 5.60733 22.7912 6.1825 22.2277C5.9795 22.041 5.78117 21.8555 5.57817 21.67C5.241 21.9955 4.8875 22.3443 4.52117 22.6978C3.88183 22.0422 3.2495 21.397 2.616 20.746C2.406 20.9677 2.203 21.1765 2 21.397C2.80733 22.2218 3.62633 23.0653 4.457 23.9123V23.9135ZM26.4393 18.086C25.6262 18.9167 24.806 19.759 23.987 20.5943C24.1737 20.781 24.3825 20.991 24.6088 21.2115C25.422 20.3808 26.2468 19.5385 27.0658 18.6962C26.8803 18.5095 26.6657 18.3065 26.4393 18.086ZM22.9708 16.0338C22.6278 16.3022 22.2568 16.3827 21.8322 16.2205C21.6525 16.7782 21.4717 17.3242 21.292 17.8818C21.0703 17.666 20.8627 17.4688 20.6585 17.2542C20.6293 17.2192 20.641 17.1317 20.6527 17.0792C20.7985 16.4118 20.9443 15.7433 21.0948 15.0702C21.1007 15.0468 21.1007 15.0235 21.0832 14.9827C20.6468 15.4353 20.2117 15.8892 19.7812 16.3302L19.1372 15.7025L21.5708 13.1825C22.1168 13.7098 22.6453 14.1975 23.1388 14.7213C23.4702 15.0585 23.3663 15.72 22.9708 16.0338ZM22.3373 14.9022C22.1577 14.7038 21.9488 14.5288 21.7563 14.3492C21.5767 14.5358 21.3853 14.7272 21.1812 14.936C21.2978 15.0585 21.4203 15.1927 21.5428 15.3198C21.5662 15.349 21.5883 15.3782 21.6175 15.3945C21.67 15.4353 21.7225 15.4762 21.7808 15.4995C21.9663 15.5812 22.1752 15.5228 22.2965 15.3665C22.4307 15.2032 22.4598 15.0282 22.3373 14.901V14.9022ZM12.9037 15.0002C12.9037 15.9475 12.0147 16.8003 11.0277 16.8003C10.0862 16.8003 9.2205 15.93 9.2205 14.9827C9.2205 13.9315 9.987 13.1522 11.0335 13.1522C11.2781 13.1489 11.521 13.1943 11.7479 13.2858C11.9748 13.3772 12.1813 13.5129 12.3553 13.6848C12.5293 13.8568 12.6674 14.0616 12.7615 14.2874C12.8557 14.5133 12.904 14.7555 12.9037 15.0002ZM12.0322 15.0002C11.8673 14.5794 11.5557 14.2325 11.1548 14.0237C11.0381 13.9585 10.9048 13.9292 10.7715 13.9396C10.6382 13.95 10.511 13.9995 10.4058 14.082C10.1608 14.257 10.022 14.495 10.0512 14.8088C10.0978 15.3082 10.8177 15.9638 11.3182 15.958C11.7825 15.9522 12.2013 15.4178 12.0322 15.0002ZM10.813 17.6555C10.6147 17.8655 10.4233 18.0743 10.2262 18.2773C10.197 18.3065 10.1153 18.2948 10.0628 18.2832C9.43517 18.1198 8.80867 17.9518 8.181 17.7897C8.13761 17.7757 8.09127 17.7737 8.04683 17.7838L9.3255 19.0963C9.1155 19.3227 8.90667 19.5443 8.71533 19.7473L6.18833 17.2728C6.22333 17.232 6.24667 17.2028 6.27 17.1795C6.66433 16.7852 7.06567 16.3955 7.46 16.0058C7.7225 15.7503 8.03517 15.6173 8.40733 15.664C8.88333 15.7223 9.23217 16.105 9.24383 16.5985C9.24967 16.7735 9.2205 16.9532 9.20883 17.1387C9.749 17.3078 10.2892 17.4875 10.813 17.6555ZM8.40617 16.6918C8.24983 16.5343 8.0515 16.5005 7.88933 16.6277C7.70967 16.7677 7.54633 16.9298 7.3725 17.0862C7.593 17.2903 7.796 17.4817 8.0165 17.6847C8.10983 17.5983 8.23233 17.4875 8.34783 17.3767C8.3945 17.33 8.44117 17.2903 8.47617 17.2367C8.5975 17.0523 8.57417 16.8598 8.40617 16.6918ZM26.9095 24.4175H4.97967C4.96217 24.4 4.9505 24.3825 4.933 24.365C4.97967 24.3417 5.03217 24.33 5.06717 24.295C6.58967 22.7912 8.10517 21.2862 9.62183 19.7882L14.9488 14.5137C15.2568 14.2057 15.5707 13.9093 15.8775 13.5955C15.9767 13.4963 16.0292 13.4963 16.1283 13.5955C17.8585 15.3385 19.6015 17.0745 21.3387 18.8117C23.168 20.6422 24.9927 22.4715 26.822 24.295C26.8583 24.3293 26.8973 24.3605 26.9387 24.3883C26.927 24.4 26.9212 24.4117 26.9095 24.4175Z" fill="black"/>
</svg>
