<svg width="32" height="32" viewBox="0 0 32 32" fill="none" xmlns="http://www.w3.org/2000/svg">
<path d="M27.96 10.792C27.95 10.747 27.956 10.702 27.94 10.658C27.935 10.644 27.923 10.635 27.918 10.622C27.891 10.556 27.849 10.501 27.809 10.442C27.774 10.392 27.746 10.339 27.703 10.297C27.662 10.256 27.611 10.229 27.563 10.195C27.503 10.153 27.447 10.111 27.38 10.083C27.366 10.077 27.357 10.066 27.343 10.06L16.343 6.06C16.122 5.98 15.88 5.98 15.659 6.06L4.659 10.06C4.644 10.065 4.635 10.077 4.621 10.083C4.556 10.11 4.50099 10.152 4.44299 10.192C4.39299 10.226 4.34101 10.255 4.29901 10.297C4.25701 10.339 4.229 10.391 4.194 10.441C4.153 10.5 4.11101 10.556 4.08401 10.622C4.07801 10.636 4.06701 10.644 4.06201 10.658C4.04601 10.702 4.05099 10.747 4.04199 10.792C4.02699 10.861 4.01099 10.928 4.01099 11C4.01099 11.072 4.02699 11.139 4.04199 11.208C4.05199 11.253 4.04601 11.298 4.06201 11.342C4.06701 11.356 4.07901 11.365 4.08401 11.378C4.11101 11.443 4.15299 11.498 4.19299 11.557C4.22799 11.608 4.25699 11.661 4.29999 11.703C4.33999 11.743 4.39001 11.77 4.43701 11.803C4.49801 11.846 4.55499 11.889 4.62399 11.917C4.63699 11.923 4.646 11.934 4.66 11.939L15.66 15.939C15.77 15.979 15.887 15.999 16.002 15.999C16.117 15.999 16.233 15.979 16.344 15.939L27.344 11.939C27.365 11.931 27.378 11.915 27.398 11.906C27.483 11.869 27.562 11.821 27.634 11.762C27.665 11.736 27.692 11.71 27.719 11.682C27.774 11.624 27.819 11.56 27.86 11.488C27.88 11.453 27.902 11.421 27.917 11.384C27.924 11.368 27.935 11.357 27.941 11.341C27.957 11.297 27.952 11.252 27.961 11.207C27.976 11.138 27.992 11.071 27.992 10.999C27.992 10.927 27.976 10.86 27.961 10.791L27.96 10.792ZM16 13.936L7.92599 11L16 8.064L24.074 11L16 13.936Z" fill="black"/>
<path d="M26.658 15.06L16 18.935L5.34202 15.06C4.82102 14.872 4.24901 15.139 4.06101 15.658C3.87201 16.177 4.14001 16.751 4.65901 16.94L15.659 20.94C15.769 20.98 15.886 21.001 16.001 21.001C16.116 21.001 16.232 20.98 16.343 20.94L27.343 16.94C27.862 16.751 28.13 16.177 27.941 15.658C27.753 15.139 27.182 14.871 26.66 15.06H26.658Z" fill="black"/>
<path d="M26.658 20.061L16 23.936L5.34202 20.061C4.82102 19.873 4.24901 20.14 4.06101 20.659C3.87201 21.179 4.14001 21.752 4.65901 21.94L15.659 25.94C15.769 25.98 15.886 26.001 16.001 26.001C16.116 26.001 16.232 25.98 16.343 25.94L27.343 21.94C27.862 21.752 28.13 21.178 27.941 20.659C27.753 20.14 27.182 19.874 26.66 20.061H26.658Z" fill="black"/>
</svg>
