<svg width="32" height="32" viewBox="0 0 32 32" fill="none" xmlns="http://www.w3.org/2000/svg">
<path fill-rule="evenodd" clip-rule="evenodd" d="M8.22302 6.20302C12.51 1.94002 19.489 1.94002 23.776 6.20302H23.775C25.854 8.27002 26.999 11.017 26.999 13.941C26.999 16.865 25.854 19.613 23.775 21.68L16.704 28.709C16.509 28.903 16.254 29 15.999 29C15.744 29 15.489 28.903 15.294 28.709L8.22302 21.68C6.14402 19.613 4.99902 16.865 4.99902 13.941C4.99902 11.017 6.14402 8.26902 8.22302 6.20302ZM14 14C14 12.897 14.897 12 16 12C17.103 12 18 12.897 18 14C18 15.103 17.103 16 16 16C14.897 16 14 15.103 14 14Z" fill="black"/>
</svg>
