<svg width="32" height="32" viewBox="0 0 32 32" fill="none" xmlns="http://www.w3.org/2000/svg">
<path d="M21 4H11C6.589 4 3 7.589 3 12C3 15.364 5.093 18.237 8.042 19.415C8.185 20.437 8.837 21.292 9.741 21.713C9.002 24.188 6.713 26 4 26C3.447 26 3 26.447 3 27C3 27.553 3.447 28 4 28C7.759 28 10.91 25.39 11.762 21.89C12.72 21.637 13.486 20.925 13.816 20H21C25.411 20 29 16.411 29 12C29 7.589 25.411 4 21 4ZM11 20C10.448 20 10 19.552 10 19C10 18.448 10.448 18 11 18C11.552 18 12 18.448 12 19C12 19.552 11.552 20 11 20ZM21 18H13.816C13.402 16.839 12.302 16 11 16C9.926 16 8.989 16.572 8.459 17.424C6.419 16.466 5 14.4 5 12C5 8.691 7.691 6 11 6H21C24.309 6 27 8.691 27 12C27 15.309 24.309 18 21 18Z" fill="black"/>
</svg>
