<svg width="32" height="32" viewBox="0 0 32 32" fill="none" xmlns="http://www.w3.org/2000/svg">
<path fill-rule="evenodd" clip-rule="evenodd" d="M26 16V21C26 23.2091 24.2091 25 22 25H12V16.4341C15.0051 15.1517 17 12.1858 17 8.85986V5C18.1046 5 19 5.89543 19 7V11C19 12.6569 20.3431 14 22 14H24C25.1046 14 26 14.8954 26 16ZM12 14.1914V14C12 13.4477 11.5523 13 11 13H5C4.44772 13 4 13.4477 4 14V28C4 28.5523 4.44772 29 5 29H11C11.5523 29 12 28.5523 12 28V27H22C25.3137 27 28 24.3137 28 21V16C28 13.7909 26.2091 12 24 12H22C21.4477 12 21 11.5523 21 11V7C21 4.79086 19.2091 3 17 3H16C15.4477 3 15 3.44772 15 4V8.85986C15 11.0756 13.8308 13.0802 12 14.1914ZM10 26V15.58V15H6V27H10V26Z" fill="black"/>
</svg>
