<svg width="32" height="32" viewBox="0 0 32 32" fill="none" xmlns="http://www.w3.org/2000/svg">
<path d="M8.50426 13V4.27274H6.76989L4.60938 5.64063V7.277L6.60795 6.02416H6.65909V13H8.50426Z" fill="black"/>
<path d="M4.70739 25.6705V27H10.929V25.4915H7.2642V25.4318L8.53835 24.1832C9.13778 23.6378 9.60227 23.1705 9.93182 22.7813C10.2614 22.3892 10.4901 22.0327 10.6179 21.7117C10.7486 21.3906 10.8139 21.0653 10.8139 20.7358C10.8139 20.233 10.6847 19.7869 10.4261 19.3977C10.1676 19.0085 9.8054 18.7046 9.33949 18.4858C8.87642 18.2642 8.33239 18.1534 7.70739 18.1534C7.09943 18.1534 6.5625 18.2685 6.09659 18.4986C5.63068 18.7287 5.26847 19.054 5.00994 19.4744C4.75142 19.8949 4.62216 20.3906 4.62216 20.9617H6.37358C6.37358 20.6832 6.42756 20.4432 6.53551 20.2415C6.64347 20.0398 6.79688 19.885 6.99574 19.777C7.1946 19.669 7.42756 19.6151 7.6946 19.6151C7.95028 19.6151 8.17898 19.6662 8.38068 19.7685C8.58239 19.8679 8.74148 20.0114 8.85795 20.1989C8.97443 20.3835 9.03267 20.6037 9.03267 20.8594C9.03267 21.0895 8.9858 21.304 8.89205 21.5028C8.7983 21.6989 8.66051 21.8992 8.47869 22.1037C8.29972 22.3082 8.07812 22.5384 7.81392 22.794L4.70739 25.6705Z" fill="black"/>
<path d="M30 22H16V24H30V22Z" fill="black"/>
<path d="M30 8H16V10H30V8Z" fill="black"/>
</svg>
