<svg width="32" height="32" viewBox="0 0 32 32" fill="none" xmlns="http://www.w3.org/2000/svg">
<g clip-path="url(#clip0_112_22)">
<path d="M19.5131 29.9998C19.537 29.9833 19.5609 29.9668 19.5698 29.9602C19.3876 29.8876 19.1905 29.8315 19.0083 29.7325C18.6439 29.5345 18.384 29.2143 18.2197 28.8051C18.1749 28.6962 18.1182 28.65 18.0107 28.6203C17.0608 28.3695 16.096 28.2969 15.1283 28.3431C14.6085 28.3662 14.0918 28.4784 13.5721 28.5576C13.5034 28.5675 13.4197 28.6269 13.3869 28.6896C12.9299 29.5774 11.986 30.0559 11.0182 29.6599C10.5045 29.4487 9.9907 29.2309 9.47395 29.0295C8.90345 28.8084 8.318 28.6995 7.71165 28.7424C7.41594 28.7622 7.12322 28.7391 6.84544 28.6071C6.29882 28.3464 6.02104 27.8711 6.00312 27.2308C5.99714 27.0064 6.05389 26.7589 6.1435 26.5576C6.34064 26.1219 6.33467 25.6797 6.27194 25.2209C6.22714 24.881 6.15844 24.5411 6.22714 24.1945C6.2809 23.9107 6.40038 23.6698 6.61245 23.5015C6.80362 23.3497 7.01271 23.221 7.22478 23.1054C7.62802 22.8876 7.9984 22.6203 8.30008 22.2507C8.33592 22.2077 8.36579 22.1252 8.35385 22.0757C8.03723 20.914 8.12385 19.7589 8.38073 18.6071C8.70332 17.1582 9.30071 15.8513 10.0773 14.6401C10.382 14.1648 10.7135 13.7094 11.0212 13.2375C11.4931 12.5081 11.8546 11.716 11.9143 10.8117C11.9591 10.1681 11.9292 9.52128 11.9173 8.87441C11.8994 7.90742 11.8127 6.94042 11.9053 5.97343C12.0099 4.89092 12.3474 3.91732 13.0523 3.12854C13.6139 2.49818 14.3068 2.16154 15.0924 2.04603C15.7227 1.95362 16.3499 1.97673 16.9593 2.19785C17.9211 2.54438 18.5752 3.26385 18.9814 4.27376C19.2741 5.00313 19.4086 5.7688 19.4623 6.56088C19.5101 7.24405 19.4623 7.92062 19.4175 8.60049C19.3488 9.7358 19.4892 10.8183 20.1254 11.7556C20.3584 12.1021 20.6302 12.4157 20.8901 12.7391C22.2043 14.3926 23.1542 16.2573 23.5425 18.4355C23.7486 19.5807 23.7964 20.7292 23.6112 21.8843C23.6022 21.9305 23.6112 21.9998 23.6381 22.0295C23.8979 22.3332 23.9935 22.716 24.0831 23.1021C24.116 23.254 24.1518 23.4025 24.1907 23.551C24.2594 23.8018 24.3669 24.0295 24.5431 24.2077C25.3735 25.0427 25.021 26.6566 23.9756 27.0724C23.2826 27.3464 22.7091 27.8018 22.2043 28.3794C21.9564 28.6632 21.7175 28.9569 21.4486 29.2176C21.2366 29.4256 20.9976 29.6038 20.7557 29.7655C20.6093 29.8612 20.4301 29.9008 20.2628 29.9635C20.2688 29.9668 20.2867 29.9833 20.3046 29.9965H19.5131V29.9998ZM17.8464 11.178C17.7956 11.2044 17.7598 11.221 17.7269 11.2441C17.2161 11.584 16.7024 11.9239 16.1916 12.2672C16.099 12.3299 16.0064 12.3992 15.9108 12.4586C15.2447 12.8645 14.5906 12.9272 13.9514 12.3827C13.6258 12.1087 13.2913 11.8513 12.9567 11.5873C12.897 11.5411 12.8313 11.5081 12.7536 11.4553C12.7536 11.6434 12.7536 11.8018 12.7536 11.9635C12.7267 13.1681 12.5117 14.3035 11.8934 15.3332C11.0511 16.7292 10.5732 18.2771 10.4746 19.9569C10.4656 20.1153 10.4507 20.2705 10.4387 20.4289H10.3909C9.83836 18.914 9.93096 17.386 10.3491 15.848C10.3222 15.8645 10.3013 15.8843 10.2894 15.9041C9.83239 16.7358 9.50382 17.6203 9.43811 18.6005C9.39629 19.2176 9.44707 19.8216 9.68901 20.3959C9.91304 20.9272 10.2804 21.3035 10.7106 21.6269C11.287 22.0625 11.8665 22.4982 12.428 22.9536C12.7596 23.221 13.0463 23.5477 13.2166 23.9734C13.4347 24.5246 13.2166 25.1153 12.7178 25.3563C12.679 25.3761 12.6401 25.3959 12.5953 25.4157C12.6132 25.4421 12.6192 25.4586 12.6312 25.4718C12.9687 25.8744 13.2614 26.3068 13.4466 26.8216C13.4705 26.8909 13.5482 26.9536 13.6139 26.9899C14.2889 27.3497 15.0088 27.4058 15.7406 27.353C16.5471 27.2936 17.3087 27.0361 18.0465 26.6731C18.166 26.6137 18.2496 26.5477 18.2855 26.3959C18.3273 26.2143 18.396 26.0361 18.4527 25.8612C18.6618 25.2276 18.7664 24.5741 18.7873 23.8942C18.8082 23.2705 18.8619 22.6434 18.9396 22.0229C18.9904 21.6038 19.1696 21.2342 19.5728 21.0988C19.7252 21.0493 19.7789 20.9701 19.8058 20.8084C19.8895 20.3563 20.1732 20.0922 20.5914 20.0691C21.1589 20.0394 21.6368 20.2936 22.0729 20.6632C22.3328 20.8843 22.5568 21.145 22.6823 21.4916C22.751 21.6797 22.7868 21.7061 22.9959 21.6764C22.9929 21.6203 22.9959 21.5642 22.9839 21.5081C22.8704 20.7853 22.518 20.2342 21.9445 19.8942C21.6786 19.7358 21.6129 19.5609 21.6189 19.254C21.6308 18.4454 21.5472 17.6434 21.3053 16.8711C21.1529 16.386 20.9558 15.9239 20.675 15.5015C20.899 16.8084 21.144 18.1153 20.8393 19.4487C20.8124 19.3992 20.7945 19.3464 20.7796 19.2936C20.6929 18.9536 20.6272 18.6038 20.5197 18.2738C20.1732 17.2077 19.6923 16.2077 19.2502 15.1879C18.8082 14.1681 18.3751 13.145 18.0704 12.0592C17.9898 11.7721 17.9211 11.4817 17.8434 11.178H17.8464ZM7.88191 27.9734C7.88191 27.9536 7.88489 27.9305 7.88788 27.9107C8.21943 27.9503 8.55099 27.9701 8.87955 28.0361C9.54863 28.1714 10.1759 28.4586 10.7942 28.7622C11.0511 28.8876 11.3139 28.9602 11.5977 28.9569C12.2249 28.9503 12.7327 28.4949 12.8462 27.8117C12.894 27.5246 12.8432 27.2408 12.7417 26.9701C12.6043 26.5972 12.3982 26.2705 12.1562 25.9701C11.7142 25.4223 11.3408 24.8282 11.057 24.1615C10.8868 23.7622 10.6896 23.3761 10.4746 23.0031C10.3432 22.7754 10.1759 22.5675 9.99368 22.3893C9.67707 22.0823 9.37837 22.112 9.08864 22.4454C9.04383 22.4982 8.99903 22.551 8.9602 22.6104C8.64059 23.0988 8.21645 23.4454 7.73555 23.7127C7.55036 23.815 7.36517 23.914 7.18595 24.0262C7.02167 24.1318 6.93504 24.2969 6.94699 24.5114C6.95297 24.6863 6.9679 24.8612 6.98582 25.0328C7.03361 25.4322 7.09335 25.8348 6.99478 26.2341C6.94401 26.4388 6.86037 26.6335 6.79764 26.8348C6.64232 27.3233 6.84544 27.7787 7.29647 27.9041C7.48464 27.9569 7.68776 27.947 7.88489 27.9668L7.88191 27.9734ZM19.8656 21.881C19.7132 22.0064 19.6475 22.1582 19.6236 22.3233C19.5848 22.5873 19.5549 22.8513 19.54 23.1186C19.5101 23.6038 19.5101 24.0922 19.4683 24.5741C19.4086 25.2441 19.2084 25.881 18.9993 26.5081C18.844 26.9734 18.7484 27.4454 18.7932 27.947C18.844 28.5114 19.1756 28.9668 19.6804 29.0955C20.1911 29.2242 20.6242 29.0328 20.9887 28.6335C21.1649 28.4388 21.3262 28.2242 21.4994 28.0229C21.9982 27.4421 22.5478 26.9305 23.2169 26.5939C23.4439 26.4784 23.6739 26.3563 23.8711 26.1945C24.1399 25.9767 24.2892 25.6698 24.2385 25.2837C24.2086 25.0526 24.0861 24.8711 23.9517 24.7028C23.6709 24.3464 23.4887 23.9404 23.3931 23.4817C23.3603 23.32 23.3155 23.1615 23.2677 23.0064C23.1393 22.5972 22.8794 22.5411 22.521 22.5312C22.4911 22.5312 22.4552 22.5576 22.4313 22.584C22.1625 22.8546 21.8399 23.0229 21.4964 23.1285C21.2127 23.2143 20.9259 23.2408 20.6422 23.1153C20.2449 22.9404 20.0507 22.5873 19.9402 22.1582C19.9193 22.0724 19.8954 21.9833 19.8685 21.8777L19.8656 21.881ZM14.9789 8.52128C14.7937 8.58399 14.6085 8.60709 14.4651 8.7061C13.9335 9.06583 13.4108 9.44207 12.894 9.82491C12.6939 9.97342 12.664 10.178 12.7865 10.4091C12.8313 10.4949 12.891 10.5807 12.9597 10.6434C13.136 10.8018 13.3211 10.9536 13.5063 11.1021C13.8468 11.3695 14.1844 11.6401 14.5309 11.8975C14.6832 12.013 14.8624 12.0361 15.0506 12.0064C15.3224 11.9635 15.5703 11.8612 15.7914 11.6863C16.2304 11.3365 16.6874 11.0196 17.1743 10.7589C17.3326 10.6731 17.482 10.5477 17.6104 10.4124C17.7777 10.2375 17.7627 9.99983 17.5895 9.83811C17.4999 9.7556 17.3953 9.6863 17.2908 9.63019C16.7382 9.33646 16.1826 9.04273 15.6241 8.7655C15.418 8.66319 15.197 8.60379 14.9819 8.52458L14.9789 8.52128ZM15.6988 7.94372C15.7316 7.65329 15.8123 7.38927 15.9646 7.15824C16.1677 6.85131 16.5022 6.78861 16.7263 7.03613C16.8159 7.13184 16.8786 7.27375 16.9174 7.40907C17.013 7.7226 16.9802 8.04273 16.9204 8.35956C16.8696 8.64009 16.8726 8.63349 17.1176 8.749C17.2251 8.79851 17.2729 8.77871 17.3177 8.65989C17.479 8.22425 17.5268 7.7688 17.4969 7.30346C17.476 6.98663 17.4103 6.6797 17.2609 6.40247C17.1415 6.17805 16.9831 5.99653 16.7412 5.94042C16.3768 5.85791 16.0423 5.94042 15.7585 6.21765C15.3553 6.61369 15.188 7.13844 15.1253 7.7127C15.1223 7.749 15.1521 7.81501 15.179 7.82161C15.3463 7.87111 15.5195 7.90742 15.6958 7.94702L15.6988 7.94372ZM13.8767 8.21435C13.9783 8.14504 14.0679 8.09224 14.1485 8.02953C14.1754 8.00643 14.2023 7.96022 14.2023 7.92392C14.1933 7.44867 14.1127 6.99653 13.8409 6.61039C13.6408 6.32986 13.3809 6.23415 13.0673 6.30676C12.8104 6.36616 12.6879 6.58399 12.6192 6.83151C12.4191 7.54108 12.4938 8.23085 12.7686 8.90082C12.7805 8.93382 12.8104 8.95692 12.8373 8.99323C12.9448 8.92722 13.0463 8.86451 13.124 8.81501C13.0673 8.62359 13.0045 8.46187 12.9776 8.29356C12.9358 8.02623 12.9448 7.7589 13.0702 7.51468C13.2136 7.23085 13.5063 7.21765 13.6497 7.49818C13.7333 7.66319 13.7782 7.85791 13.8379 8.03613C13.8558 8.08894 13.8648 8.14504 13.8797 8.21765L13.8767 8.21435Z" fill="black"/>
</g>
<defs>
<clipPath id="clip0_112_22">
<rect width="19" height="28" fill="white" transform="translate(6 2)"/>
</clipPath>
</defs>
</svg>
