<svg width="32" height="32" viewBox="0 0 32 32" fill="none" xmlns="http://www.w3.org/2000/svg">
<path d="M28.75 1H3.25C2 1 1 2 1 3.125V28.75C1 29.875 2 30.875 3.25 30.875H28.75C30 30.875 31 29.875 31 28.75V3.125C31 2 30 1 28.75 1ZM9.875 26.5H5.5V12.25H9.875V26.5ZM7.75 10.25C6.375 10.25 5.125 9.125 5.125 7.625C5.125 6.125 6.25 5 7.75 5C9.125 5 10.375 6.125 10.375 7.625C10.375 9.125 9.125 10.25 7.75 10.25ZM26.625 26.375H22.25V19.375C22.25 17.75 22.25 15.5 19.875 15.5C17.5 15.5 17.25 17.375 17.25 19.125V26.25H12.875V12.25H17V14.125H17.125C17.75 13 19.25 11.75 21.375 11.75C25.875 11.75 26.75 14.75 26.75 18.625V26.375H26.625Z" fill="black"/>
</svg>
