<svg width="32" height="32" viewBox="0 0 32 32" fill="none" xmlns="http://www.w3.org/2000/svg">
<path d="M26 5H6C4.897 5 4 5.897 4 7V9C4 10.103 4.897 11 6 11H26C27.103 11 28 10.103 28 9V7C28 5.897 27.103 5 26 5ZM6 9V7H26V9H6Z" fill="black"/>
<path d="M26 21H6C4.897 21 4 21.897 4 23V25C4 26.103 4.897 27 6 27H26C27.103 27 28 26.103 28 25V23C28 21.897 27.103 21 26 21ZM6 25V23H26L26.002 25H6Z" fill="black"/>
<path d="M26 13H6C4.897 13 4 13.897 4 15V17C4 18.103 4.897 19 6 19H26C27.103 19 28 18.103 28 17V15C28 13.897 27.103 13 26 13ZM6 17V15H26L26.002 17H6Z" fill="black"/>
</svg>
