<svg width="32" height="32" viewBox="0 0 32 32" fill="none" xmlns="http://www.w3.org/2000/svg">
<path d="M15.8794 2C8.21413 2 2 8.2685 2 16.0007C2.00012 23.7327 8.21413 30 15.8794 30C23.5444 30 29.7572 23.7327 29.7572 16.0007C29.7572 8.2685 23.5442 2 15.8794 2ZM15.8794 4.90617C21.9535 4.90617 26.8771 9.87337 26.8771 16.0007C26.8771 22.1278 21.9535 27.0939 15.8794 27.0939C9.80512 27.0939 4.88027 22.1278 4.88027 16.0007C4.88027 9.87337 9.80512 4.90617 15.8794 4.90617ZM17.2183 7.22923C15.5354 7.22923 13.9826 7.7771 12.7194 8.70623H16.4445V12.479C15.7958 12.5121 15.2596 13.0369 15.2596 13.6965V20.0547H16.3612C17.768 20.0547 18.122 18.3593 18.122 18.3593H21.4307L21.4319 21.3856C23.5013 20.0048 24.8662 17.6347 24.8662 14.9442C24.8662 10.6829 21.4426 7.22923 17.2183 7.22923ZM9.45033 9.85423V11.7447C10.0876 11.9101 10.638 12.4579 10.638 13.3567V19.7257C10.638 20.4446 10.1287 21.0899 9.45033 21.2599V23.7033H20.3007V19.5047L18.8605 19.5128C18.4545 20.5005 17.4873 21.1946 16.3613 21.1946H14.1295V13.3062C14.1295 12.4917 14.6595 11.9267 15.3143 11.7487V9.85423H9.45033Z" fill="black"/>
</svg>
