<svg width="32" height="32" viewBox="0 0 32 32" fill="none" xmlns="http://www.w3.org/2000/svg">
<path d="M23 6C22.4477 6 22 6.44772 22 7C22 7.55228 22.4477 8 23 8H25C25.5523 8 26 7.55228 26 7C26 6.44772 25.5523 6 25 6H23Z" fill="black"/>
<path d="M7 10C6.44772 10 6 10.4477 6 11V19C6 19.5523 6.44772 20 7 20H9C9.55229 20 10 19.5523 10 19V11C10 10.4477 9.55229 10 9 10H7Z" fill="black"/>
<path d="M23 22C22.4477 22 22 22.4477 22 23C22 23.5523 22.4477 24 23 24H25C25.5523 24 26 23.5523 26 23C26 22.4477 25.5523 22 25 22H23Z" fill="black"/>
<path d="M22 15C22 14.4477 22.4477 14 23 14H25C25.5523 14 26 14.4477 26 15C26 15.5523 25.5523 16 25 16H23C22.4477 16 22 15.5523 22 15Z" fill="black"/>
<path fill-rule="evenodd" clip-rule="evenodd" d="M4 2C2.89543 2 2 2.89543 2 4V28C2 29.1046 2.89543 30 4 30H28C29.1046 30 30 29.1046 30 28V4C30 2.89543 29.1046 2 28 2H4ZM28 4H14V10H28V4ZM4 4H12V28H4V4ZM28 28H14V20H28V28ZM28 12V18H14V12H28Z" fill="black"/>
</svg>
