<svg width="32" height="32" viewBox="0 0 32 32" fill="none" xmlns="http://www.w3.org/2000/svg">
<path d="M26 5H20C19.448 5 19 5.448 19 6C19 6.552 19.448 7 20 7H23.586L17.293 13.293C16.902 13.684 16.902 14.316 17.293 14.707C17.488 14.902 17.744 15 18 15C18.256 15 18.512 14.902 18.707 14.707L25 8.414V12C25 12.552 25.448 13 26 13C26.552 13 27 12.552 27 12V6C27 5.448 26.552 5 26 5Z" fill="black"/>
<path d="M23 16C22.448 16 22 16.448 22 17V24H8V10H15C15.552 10 16 9.552 16 9C16 8.448 15.552 8 15 8H7C6.448 8 6 8.448 6 9V25C6 25.553 6.448 26 7 26H23C23.552 26 24 25.553 24 25V17C24 16.448 23.552 16 23 16Z" fill="black"/>
</svg>
