<svg width="32" height="32" viewBox="0 0 32 32" fill="none" xmlns="http://www.w3.org/2000/svg">
<g id="AisLink">
<path id="Vector" d="M27.471 7.50001C25.467 5.49601 22.205 5.49601 20.201 7.50001L16.982 10.719C14.977 9.299 12.18 9.47301 10.385 11.268L4.52996 17.123C2.52696 19.127 2.52696 22.389 4.52996 24.393C5.53196 25.395 6.84797 25.896 8.16497 25.896C9.48197 25.896 10.7979 25.395 11.7999 24.393L15.019 21.174C15.905 21.801 16.9399 22.128 17.9809 22.128C19.2969 22.128 20.614 21.627 21.616 20.625L27.471 14.77C29.474 12.766 29.474 9.50501 27.471 7.50001ZM17.156 14.903C17.156 15.745 16.831 16.533 16.241 17.123L15.112 18.252C14.94 17.859 14.845 17.433 14.845 16.99C14.845 16.148 15.17 15.36 15.76 14.77L16.889 13.641C17.061 14.034 17.156 14.46 17.156 14.903ZM10.385 22.979C9.15997 24.204 7.16796 24.204 5.94396 22.979C4.71996 21.754 4.71996 19.762 5.94396 18.538L11.799 12.683C12.411 12.071 13.2149 11.765 14.0199 11.765C14.5439 11.765 15.062 11.909 15.533 12.169L14.346 13.356C13.378 14.323 12.845 15.614 12.845 16.99C12.845 17.976 13.129 18.913 13.64 19.724L10.385 22.979V22.979ZM26.057 13.355L20.202 19.21C19.191 20.222 17.662 20.385 16.467 19.725L17.655 18.537C18.623 17.569 19.156 16.279 19.156 14.903C19.156 13.917 18.872 12.98 18.361 12.169L21.616 8.91401C22.228 8.30201 23.033 7.99601 23.837 7.99601C24.641 7.99601 25.445 8.30201 26.058 8.91401C27.282 10.138 27.282 12.131 26.058 13.355H26.057Z" fill="black"/>
</g>
</svg>
