<svg width="32" height="32" viewBox="0 0 32 32" fill="none" xmlns="http://www.w3.org/2000/svg">
<g id="AisListUnordered">
<g id="Vector">
<path d="M14 11C14 10.4477 14.4477 10 15 10H27C27.5523 10 28 10.4477 28 11C28 11.5523 27.5523 12 27 12H15C14.4477 12 14 11.5523 14 11Z" fill="black"/>
<path d="M14 21C14 20.4477 14.4477 20 15 20H27C27.5523 20 28 20.4477 28 21C28 21.5523 27.5523 22 27 22H15C14.4477 22 14 21.5523 14 21Z" fill="black"/>
<path d="M10 11C10 12.1046 9.10457 13 8 13C6.89543 13 6 12.1046 6 11C6 9.89543 6.89543 9 8 9C9.10457 9 10 9.89543 10 11Z" fill="black"/>
<path d="M10 21C10 22.1046 9.10457 23 8 23C6.89543 23 6 22.1046 6 21C6 19.8954 6.89543 19 8 19C9.10457 19 10 19.8954 10 21Z" fill="black"/>
</g>
</g>
</svg>
