<svg width="32" height="32" viewBox="0 0 32 32" fill="none" xmlns="http://www.w3.org/2000/svg">
<path d="M5 2C5.55229 2 6 2.44772 6 3L6 29C6 29.5523 5.55228 30 5 30C4.44771 30 4 29.5523 4 29L4 3C4 2.44771 4.44772 2 5 2Z" fill="black"/>
<path fill-rule="evenodd" clip-rule="evenodd" d="M20 7C21.1046 7 22 7.89543 22 9V23C22 24.1046 21.1046 25 20 25H12C10.8954 25 10 24.1046 10 23L10 9C10 7.89543 10.8954 7 12 7L20 7ZM20 9V23H12L12 9L20 9Z" fill="black"/>
<path d="M28 28C28 27.4477 27.5523 27 27 27C26.4477 27 26 27.4477 26 28C26 28.5523 26.4477 29 27 29C27.5523 29 28 28.5523 28 28Z" fill="black"/>
<path d="M27 3C27.5523 3 28 3.44772 28 4C28 4.55228 27.5523 5 27 5C26.4477 5 26 4.55228 26 4C26 3.44772 26.4477 3 27 3Z" fill="black"/>
<path d="M28 10C28 9.44771 27.5523 9 27 9C26.4477 9 26 9.44772 26 10C26 10.5523 26.4477 11 27 11C27.5523 11 28 10.5523 28 10Z" fill="black"/>
<path d="M27 15C27.5523 15 28 15.4477 28 16C28 16.5523 27.5523 17 27 17C26.4477 17 26 16.5523 26 16C26 15.4477 26.4477 15 27 15Z" fill="black"/>
<path d="M28 22C28 21.4477 27.5523 21 27 21C26.4477 21 26 21.4477 26 22C26 22.5523 26.4477 23 27 23C27.5523 23 28 22.5523 28 22Z" fill="black"/>
</svg>
