<svg width="32" height="32" viewBox="0 0 32 32" fill="none" xmlns="http://www.w3.org/2000/svg">
<path fill-rule="evenodd" clip-rule="evenodd" d="M16 2C15.4477 2 15 2.44772 15 3V6.54625L7.62428 13H7C6.44772 13 6 13.4477 6 14V17H3C2.44772 17 2 17.4477 2 18C2 18.5523 2.44771 19 3 19H4V28H3C2.44772 28 2 28.4477 2 29C2 29.5523 2.44771 30 3 30H29C29.5523 30 30 29.5523 30 29C30 28.4477 29.5523 28 29 28H28V19H29C29.5523 19 30 18.5523 30 18C30 17.4477 29.5523 17 29 17H26V14C26 13.4477 25.5523 13 25 13H24.3757L17 6.54622V6H20C20.5523 6 21 5.55228 21 5V3C21 2.44772 20.5523 2 20 2H16ZM17 24V28H15V24C15 23.4477 15.4477 23 16 23C16.5523 23 17 23.4477 17 24ZM19 24V28H22V19H10V28H13V24C13 22.3431 14.3431 21 16 21C17.6569 21 19 22.3431 19 24ZM24 17V15H8.00001L8 17H24ZM26 28V19H24V28H26ZM6 28V19H8V28H6ZM16 8.32877L21.3386 13H10.6615L16 8.32877Z" fill="black"/>
</svg>
