<svg width="32" height="32" viewBox="0 0 32 32" fill="none" xmlns="http://www.w3.org/2000/svg">
<path d="M27.9125 6.3825V25.5863C27.9125 26.2588 27.7158 26.8558 27.3225 27.3775C26.9292 27.9 26.4071 28.2542 25.7562 28.44L17.1462 30.9075C17.0329 30.9383 16.9121 30.9613 16.7837 30.9763C16.6537 30.9921 16.5317 31 16.4175 31C16.0875 31 15.7875 30.9563 15.5175 30.8688C15.25 30.7804 14.9767 30.6588 14.6975 30.5038L9.06624 27.3238C8.85958 27.2096 8.69666 27.0571 8.57749 26.8663C8.45833 26.6746 8.39874 26.46 8.39874 26.2225C8.39874 25.8608 8.52541 25.5533 8.77874 25.3C9.03208 25.0458 9.33999 24.9188 9.70249 24.9188H16.9912V7.205L11.5162 9.15875C11.0721 9.31458 10.7154 9.58875 10.4462 9.98125C10.1779 10.3746 10.0437 10.8038 10.0437 11.2688V21.3662C10.0437 21.7796 9.94041 22.1596 9.73374 22.5062C9.52541 22.8529 9.24083 23.1242 8.87999 23.32L6.28999 24.7325C6.05166 24.8558 5.81374 24.9175 5.57624 24.9175C5.16208 24.9175 4.81041 24.7729 4.52124 24.4838C4.23124 24.1946 4.08624 23.8429 4.08624 23.4288V9.20375C4.08624 8.68708 4.22374 8.19125 4.49874 7.71625C4.77208 7.24042 5.13624 6.87333 5.59124 6.615L14.8375 1.35625C15.0442 1.24292 15.2667 1.15542 15.505 1.09375C15.7425 1.03125 15.98 1 16.2175 1C16.3933 1 16.5517 1.01292 16.6925 1.03875C16.8308 1.06458 16.9825 1.10333 17.1475 1.155L25.7575 3.52875C26.0775 3.62042 26.3692 3.7575 26.6325 3.94C26.8967 4.12083 27.1246 4.3375 27.3162 4.59C27.5079 4.84417 27.655 5.12333 27.7575 5.4275C27.8617 5.73333 27.9125 6.05167 27.9125 6.3825ZM25.9275 25.5863V6.3825C25.9275 6.155 25.8608 5.95583 25.7275 5.785C25.5917 5.615 25.4154 5.49833 25.1987 5.435L20.9637 4.2725C20.6329 4.18 20.3021 4.08417 19.9712 3.985C19.6404 3.8875 19.3096 3.7975 18.9787 3.715V28.315L25.1987 26.5312C25.4154 26.4696 25.5912 26.3529 25.7262 26.1813C25.8604 26.0113 25.9275 25.8125 25.9275 25.585V25.5863Z" fill="black"/>
</svg>
