<svg width="32" height="32" viewBox="0 0 32 32" fill="none" xmlns="http://www.w3.org/2000/svg">
<path d="M3 4C2.44772 4 2 4.44772 2 5C2 5.55228 2.44771 6 3 6H29C29.5523 6 30 5.55228 30 5C30 4.44772 29.5523 4 29 4H3Z" fill="black"/>
<path fill-rule="evenodd" clip-rule="evenodd" d="M7 12C7 10.8954 7.89543 10 9 10H23C24.1046 10 25 10.8954 25 12V20C25 21.1046 24.1046 22 23 22H9C7.89543 22 7 21.1046 7 20V12ZM9 12H23V20H9V12Z" fill="black"/>
<path d="M4 28C4.55228 28 5 27.5523 5 27C5 26.4477 4.55228 26 4 26C3.44772 26 3 26.4477 3 27C3 27.5523 3.44772 28 4 28Z" fill="black"/>
<path d="M29 27C29 27.5523 28.5523 28 28 28C27.4477 28 27 27.5523 27 27C27 26.4477 27.4477 26 28 26C28.5523 26 29 26.4477 29 27Z" fill="black"/>
<path d="M22 28C22.5523 28 23 27.5523 23 27C23 26.4477 22.5523 26 22 26C21.4477 26 21 26.4477 21 27C21 27.5523 21.4477 28 22 28Z" fill="black"/>
<path d="M17 27C17 27.5523 16.5523 28 16 28C15.4477 28 15 27.5523 15 27C15 26.4477 15.4477 26 16 26C16.5523 26 17 26.4477 17 27Z" fill="black"/>
<path d="M10 28C10.5523 28 11 27.5523 11 27C11 26.4477 10.5523 26 10 26C9.44771 26 9 26.4477 9 27C9 27.5523 9.44771 28 10 28Z" fill="black"/>
</svg>
