<svg width="32" height="32" viewBox="0 0 32 32" fill="none" xmlns="http://www.w3.org/2000/svg">
<path d="M16 28C10.692 28 5.955 24.438 4.48 19.338C4.378 18.987 4.476 18.61 4.733 18.353C4.99 18.095 5.369 17.999 5.718 18.099C6.638 18.366 7.574 18.5 8.5 18.5C14.014 18.5 18.5 14.014 18.5 8.49997C18.5 7.57297 18.365 6.63796 18.099 5.71896C17.997 5.36796 18.095 4.99098 18.352 4.73398C18.609 4.47498 18.987 4.37898 19.337 4.47998C24.438 5.95598 28 10.693 28 16.001C28 22.618 22.617 28.001 16 28.001V28ZM7.031 20.407C8.69 23.769 12.166 26 16 26C21.514 26 26 21.514 26 16C26 12.167 23.77 8.68998 20.407 7.03098C20.469 7.51998 20.5 8.00997 20.5 8.49997C20.5 15.117 15.117 20.5 8.5 20.5C8.011 20.5 7.521 20.469 7.031 20.407Z" fill="black"/>
</svg>
