<svg width="32" height="32" viewBox="0 0 32 32" fill="none" xmlns="http://www.w3.org/2000/svg">
<path d="M2 5C2 4.44772 2.44772 4 3 4H29C29.5523 4 30 4.44772 30 5C30 5.55228 29.5523 6 29 6H3C2.44771 6 2 5.55228 2 5Z" fill="black"/>
<path fill-rule="evenodd" clip-rule="evenodd" d="M23 12H9L9 20H23V12ZM9 10C7.89543 10 7 10.8954 7 12V20C7 21.1046 7.89543 22 9 22H23C24.1046 22 25 21.1046 25 20V12C25 10.8954 24.1046 10 23 10H9Z" fill="black"/>
<path d="M2 27C2 26.4477 2.44772 26 3 26H29C29.5523 26 30 26.4477 30 27C30 27.5523 29.5523 28 29 28H3C2.44771 28 2 27.5523 2 27Z" fill="black"/>
</svg>
