<svg width="32" height="32" viewBox="0 0 32 32" fill="none" xmlns="http://www.w3.org/2000/svg">
<path d="M18 9C18 8.44772 18.4477 8 19 8H23C23.5523 8 24 8.44772 24 9V13C24 13.5523 23.5523 14 23 14C22.4477 14 22 13.5523 22 13V11.4142L18.7071 14.7071C18.3166 15.0976 17.6834 15.0976 17.2929 14.7071C16.9024 14.3166 16.9024 13.6834 17.2929 13.2929L20.5858 10H19C18.4477 10 18 9.55228 18 9Z" fill="black"/>
<path d="M14 23C14 23.5523 13.5523 24 13 24H9C8.44771 24 8 23.5523 8 23L8 19C8 18.4477 8.44772 18 9 18C9.55228 18 10 18.4477 10 19L10 20.5858L13.2929 17.2929C13.6834 16.9024 14.3166 16.9024 14.7071 17.2929C15.0976 17.6834 15.0976 18.3166 14.7071 18.7071L11.4142 22H13C13.5523 22 14 22.4477 14 23Z" fill="black"/>
<path fill-rule="evenodd" clip-rule="evenodd" d="M4 8C4 5.79086 5.79086 4 8 4H24C26.2091 4 28 5.79086 28 8V24C28 26.2091 26.2091 28 24 28H8C5.79086 28 4 26.2091 4 24V8ZM8 6H24C25.1046 6 26 6.89543 26 8V24C26 25.1046 25.1046 26 24 26H8C6.89543 26 6 25.1046 6 24V8C6 6.89543 6.89543 6 8 6Z" fill="black"/>
</svg>
