<svg width="32" height="32" viewBox="0 0 32 32" fill="none" xmlns="http://www.w3.org/2000/svg">
<path d="M10.0483 9.90226C7.60807 8.44752 4.86779 7.68246 2.08138 7.67797H2V5.78531C1.99931 5.28896 2.08903 4.79733 2.26402 4.33848C2.43901 3.87962 2.69585 3.46254 3.01988 3.11104C3.34391 2.75954 3.72878 2.48051 4.15252 2.28988C4.57626 2.09925 5.03057 2.00074 5.4895 2H26.5105C26.9694 2.00074 27.4237 2.09925 27.8475 2.28988C28.2712 2.48051 28.6561 2.75954 28.9801 3.11104C29.3042 3.46254 29.561 3.87962 29.736 4.33848C29.911 4.79733 30.0007 5.28896 30 5.78531V7.67797C27.2137 7.68244 24.4735 8.4475 22.0334 9.90225C19.5933 11.357 17.5322 13.4544 16.0411 16C14.5498 13.4543 12.4886 11.357 10.0483 9.90226Z" fill="black"/>
<path d="M10.1038 16.7869C12.23 18.777 13.424 21.4729 13.424 24.2833H18.6582C18.6582 21.473 19.8521 18.7773 21.9781 16.7872C24.1042 14.7971 26.9889 13.6749 30 13.6667V26.7333C30.0007 27.1617 29.911 27.586 29.736 27.9819C29.561 28.3779 29.3042 28.7379 28.9801 29.0412C28.6561 29.3445 28.2712 29.5853 27.8475 29.7498C27.4237 29.9144 26.9694 29.9994 26.5105 30H5.4895C5.03057 29.9994 4.57626 29.9144 4.15252 29.7498C3.72878 29.5853 3.34391 29.3445 3.01988 29.0412C2.69585 28.7379 2.43901 28.3779 2.26402 27.9819C2.08903 27.586 1.99931 27.1617 2 26.7333V13.6667H2.08138C5.0926 13.6747 7.97757 14.7968 10.1038 16.7869Z" fill="black"/>
</svg>
