<svg width="32" height="32" viewBox="0 0 32 32" fill="none" xmlns="http://www.w3.org/2000/svg">
<path d="M4 6C4.55228 6 5 5.55228 5 5C5 4.44772 4.55228 4 4 4C3.44772 4 3 4.44772 3 5C3 5.55228 3.44772 6 4 6Z" fill="black"/>
<path fill-rule="evenodd" clip-rule="evenodd" d="M7 12C7 10.8954 7.89543 10 9 10H23C24.1046 10 25 10.8954 25 12V20C25 21.1046 24.1046 22 23 22H9C7.89543 22 7 21.1046 7 20V12ZM23 12V20H9V12H23Z" fill="black"/>
<path d="M2 27C2 26.4477 2.44772 26 3 26H29C29.5523 26 30 26.4477 30 27C30 27.5523 29.5523 28 29 28H3C2.44771 28 2 27.5523 2 27Z" fill="black"/>
<path d="M29 5C29 5.55228 28.5523 6 28 6C27.4477 6 27 5.55228 27 5C27 4.44772 27.4477 4 28 4C28.5523 4 29 4.44772 29 5Z" fill="black"/>
<path d="M22 6C22.5523 6 23 5.55228 23 5C23 4.44772 22.5523 4 22 4C21.4477 4 21 4.44772 21 5C21 5.55228 21.4477 6 22 6Z" fill="black"/>
<path d="M17 5C17 5.55228 16.5523 6 16 6C15.4477 6 15 5.55228 15 5C15 4.44772 15.4477 4 16 4C16.5523 4 17 4.44772 17 5Z" fill="black"/>
<path d="M10 6C10.5523 6 11 5.55228 11 5C11 4.44772 10.5523 4 10 4C9.44771 4 9 4.44772 9 5C9 5.55228 9.44771 6 10 6Z" fill="black"/>
</svg>
