<svg width="32" height="32" viewBox="0 0 32 32" fill="none" xmlns="http://www.w3.org/2000/svg">
<path fill-rule="evenodd" clip-rule="evenodd" d="M3 6C3 3.79086 4.79086 2 7 2H25C27.2091 2 29 3.79086 29 6V24C29 26.2091 27.2091 28 25 28H17.9706L15.9497 30.0208C15.5592 30.4113 14.9261 30.4113 14.5355 30.0208L12.5147 28H7C4.79086 28 3 26.2091 3 24V6ZM13.0111 6.27653C13.1242 5.74983 13.8757 5.74982 13.9888 6.27652L14.9347 10.6814C14.976 10.8737 15.1263 11.024 15.3186 11.0653L19.7235 12.0111C20.2502 12.1242 20.2502 12.8757 19.7235 12.9888L15.3186 13.9347C15.1263 13.976 14.976 14.1263 14.9347 14.3186L13.9888 18.7235C13.8757 19.2502 13.1242 19.2502 13.0111 18.7235L12.0653 14.3186C12.024 14.1263 11.8737 13.976 11.6814 13.9347L7.27653 12.9888C6.74983 12.8757 6.74982 12.1242 7.27652 12.0111L11.6814 11.0653C11.8737 11.024 12.024 10.8737 12.0653 10.6814L13.0111 6.27653ZM21.0111 18.2765C21.1242 17.7498 21.8757 17.7498 21.9888 18.2765L22.2276 19.3885C22.2689 19.5808 22.4192 19.7311 22.6115 19.7724L23.7235 20.0111C24.2502 20.1242 24.2502 20.8757 23.7235 20.9888L22.6115 21.2276C22.4192 21.2689 22.2689 21.4192 22.2276 21.6115L21.9888 22.7235C21.8757 23.2502 21.1242 23.2502 21.0111 22.7235L20.7724 21.6115C20.7311 21.4192 20.5808 21.2689 20.3885 21.2276L19.2765 20.9888C18.7498 20.8757 18.7498 20.1242 19.2765 20.0111L20.3885 19.7724C20.5808 19.7311 20.7311 19.5808 20.7724 19.3885L21.0111 18.2765Z" fill="black"/>
</svg>
