<svg width="32" height="32" viewBox="0 0 32 32" fill="none" xmlns="http://www.w3.org/2000/svg">
<path fill-rule="evenodd" clip-rule="evenodd" d="M11.2929 14.2929C11.6834 13.9024 12.3166 13.9024 12.7071 14.2929L16 17.5858L19.2929 14.2929C19.6834 13.9024 20.3166 13.9024 20.7071 14.2929C21.0976 14.6834 21.0976 15.3166 20.7071 15.7071L16.7071 19.7071C16.3166 20.0976 15.6834 20.0976 15.2929 19.7071L11.2929 15.7071C10.9024 15.3166 10.9024 14.6834 11.2929 14.2929Z" fill="black"/>
<path fill-rule="evenodd" clip-rule="evenodd" d="M24 4H12.4649C12.8052 4.58835 13 5.27143 13 6C13 6.72857 12.8052 7.41165 12.4649 8H16H24C25.1046 8 26 7.10457 26 6C26 4.89543 25.1046 4 24 4ZM17 10H24C26.2091 10 28 8.20914 28 6C28 3.79086 26.2091 2 24 2H9H7C4.79086 2 3 3.79086 3 6C3 8.07107 4.574 9.77451 6.59102 9.97935C6.72549 9.993 6.86193 10 7 10H9H15V19C15 19.5523 15.4477 20 16 20C16.5523 20 17 19.5523 17 19V10ZM7 4H9C10.1046 4 11 4.89543 11 6C11 7.10457 10.1046 8 9 8H7C6.93096 8 6.86275 7.9965 6.79551 7.98967C5.787 7.88725 5 7.03553 5 6C5 4.89543 5.89543 4 7 4ZM18.5351 24H7C5.89543 24 5 24.8954 5 26C5 27.1046 5.89543 28 7 28H18.5351C18.1948 27.4117 18 26.7286 18 26C18 25.2714 18.1948 24.5883 18.5351 24ZM22 22H24C26.2091 22 28 23.7909 28 26C28 28.2091 26.2091 30 24 30H22H7C4.79086 30 3 28.2091 3 26C3 23.7909 4.79086 22 7 22H22ZM22 24C20.8954 24 20 24.8954 20 26C20 27.1046 20.8954 28 22 28H24C25.1046 28 26 27.1046 26 26C26 24.8954 25.1046 24 24 24H22Z" fill="black"/>
</svg>
