<svg width="32" height="32" viewBox="0 0 32 32" fill="none" xmlns="http://www.w3.org/2000/svg">
<path fill-rule="evenodd" clip-rule="evenodd" d="M12 6C12 3.79086 13.7909 2 16 2C18.2091 2 20 3.79086 20 6V18C20 20.2091 18.2091 22 16 22C13.7909 22 12 20.2091 12 18V6ZM18 6V18C18 19.1046 17.1046 20 16 20C14.8954 20 14 19.1046 14 18V6C14 4.89543 14.8954 4 16 4C17.1046 4 18 4.89543 18 6Z" fill="black"/>
<path d="M15 25.9381C11.0537 25.446 8 22.0796 8 18C8 17.4477 8.44772 17 9 17C9.55228 17 10 17.4477 10 18C10 21.3137 12.6863 24 16 24C19.3137 24 22 21.3137 22 18C22 17.4477 22.4477 17 23 17C23.5523 17 24 17.4477 24 18C24 22.0796 20.9463 25.446 17 25.9381V28H20C20.5523 28 21 28.4477 21 29C21 29.5523 20.5523 30 20 30H12C11.4477 30 11 29.5523 11 29C11 28.4477 11.4477 28 12 28H15V25.9381Z" fill="black"/>
</svg>
