<svg width="32" height="32" viewBox="0 0 32 32" fill="none" xmlns="http://www.w3.org/2000/svg">
<g id="AisMobile">
<g id="Vector">
<path d="M22 2H10C8.346 2 7 3.346 7 5V27C7 28.654 8.346 30 10 30H22C23.654 30 25 28.654 25 27V5C25 3.346 23.654 2 22 2ZM23 27C23 27.552 22.551 28 22 28H10C9.449 28 9 27.552 9 27V5C9 4.448 9.449 4 10 4H22C22.551 4 23 4.448 23 5V27Z" fill="black"/>
<path d="M15.8 24.02C15.74 24.031 15.68 24.05 15.62 24.081C15.56 24.101 15.5 24.131 15.44 24.171C15.39 24.201 15.34 24.251 15.29 24.291C15.11 24.48 15 24.741 15 25.001C15 25.271 15.1 25.521 15.29 25.711C15.48 25.9 15.73 26.001 16 26.001C16.27 26.001 16.52 25.9 16.71 25.711C16.9 25.521 17 25.271 17 25.001C17 24.741 16.89 24.48 16.71 24.291C16.47 24.061 16.13 23.951 15.8 24.02Z" fill="black"/>
</g>
</g>
</svg>
