<svg width="32" height="32" viewBox="0 0 32 32" fill="none" xmlns="http://www.w3.org/2000/svg">
<g id="AisMagicHand">
<g id="Vector">
<path d="M28.707 24.293L9.707 5.29301C9.316 4.90201 8.684 4.90201 8.293 5.29301L5.293 8.29301C4.902 8.68401 4.902 9.31595 5.293 9.70695L24.293 28.7069C24.488 28.9019 24.744 29 25 29C25.256 29 25.512 28.9019 25.707 28.7069L28.707 25.7069C29.098 25.3159 29.098 24.684 28.707 24.293ZM9 7.41398L11.586 9.99998L10 11.586L7.414 8.99998L9 7.41398ZM25 26.586L11.414 13L13 11.414L26.586 25L25 26.586Z" fill="black"/>
<path d="M4 5C4.55228 5 5 4.55228 5 4C5 3.44772 4.55228 3 4 3C3.44772 3 3 3.44772 3 4C3 4.55228 3.44772 5 4 5Z" fill="black"/>
<path d="M15 5C15.5523 5 16 4.55228 16 4C16 3.44772 15.5523 3 15 3C14.4477 3 14 3.44772 14 4C14 4.55228 14.4477 5 15 5Z" fill="black"/>
<path d="M4 16C4.55228 16 5 15.5523 5 15C5 14.4477 4.55228 14 4 14C3.44772 14 3 14.4477 3 15C3 15.5523 3.44772 16 4 16Z" fill="black"/>
</g>
</g>
</svg>
