<svg fill="none" height="32" viewBox="0 0 32 32" width="32" xmlns="http://www.w3.org/2000/svg"><g fill="#000"><path d="m28.707 24.293-18.99999-18.99999c-.391-.391-1.023-.391-1.414 0l-3 3c-.391.391-.391 1.02294 0 1.41394l18.99999 18.99995c.195.195.451.2931.707.2931s.512-.0981.707-.2931l3-3c.391-.391.391-1.0229 0-1.4139zm-19.70699-16.87902 3.29299 3.29292-1.586 1.5861-3.29299-3.29302z"/><path d="m4 5c.55228 0 1-.44772 1-1s-.44772-1-1-1-1 .44772-1 1 .44772 1 1 1z"/><path d="m15 5c.5523 0 1-.44772 1-1s-.4477-1-1-1-1 .44772-1 1 .4477 1 1 1z"/><path d="m4 16c.55228 0 1-.4477 1-1s-.44772-1-1-1-1 .4477-1 1 .44772 1 1 1z"/></g></svg>