<svg width="32" height="32" viewBox="0 0 32 32" fill="none" xmlns="http://www.w3.org/2000/svg">
<path d="M22.4051 10.6081H18.3102C17.5612 10.6081 17.4586 10.9114 17.4586 11.3711V18.0209C17.4072 19.5434 16.8402 20.0311 15.7553 20.0311C14.64 20.0311 14.0706 19.5177 14.0473 17.8984V11.3711C14.0473 10.9126 13.94 10.6081 13.191 10.6081H9.09606V18.5179C9.09606 20.2679 9.43439 21.0075 10.16 21.7589C11.2824 22.9255 13.2458 23.419 15.7529 23.419C18.2612 23.419 20.2258 22.9267 21.3505 21.7589C22.0738 21.0075 22.4133 20.2679 22.4133 18.5179L22.4051 10.6081ZM18.6369 3.28971C11.8295 1.9644 5.15047 6.67648 3.7155 13.8105C2.28752 20.948 6.64377 27.8056 13.4535 29.1285C20.2667 30.4492 26.9457 25.7394 28.3772 18.6054C29.8063 11.4691 25.4501 4.61035 18.638 3.28738M15.7623 28.2349C9.15439 28.2349 3.80066 22.8893 3.80066 16.2955C3.80066 9.70392 9.15556 4.36069 15.7623 4.36069C22.3666 4.36069 27.7239 9.70392 27.7239 16.2955C27.7239 22.8893 22.3666 28.2349 15.7623 28.2349ZM2.03086 15.2245C1.53387 22.4028 7.09526 28.6526 14.6808 29.2989C14.2748 29.2639 13.8653 29.2055 13.4535 29.1274C6.64494 27.8056 2.28402 20.9457 3.7155 13.8105C5.13764 6.72431 11.7373 2.03207 18.4969 3.26404C17.9276 3.15438 17.3536 3.07738 16.7632 3.03538C9.04823 2.50689 2.53719 7.96095 2.03319 15.2268M17.6196 3.11355C17.3195 3.08397 17.0181 3.06956 16.7166 3.07038C17.3624 3.08888 18.0055 3.16147 18.6392 3.28738C25.4477 4.61035 29.8075 11.4656 28.376 18.6031C26.9434 25.7359 20.2643 30.448 13.4546 29.1262C13.1537 29.0672 12.8552 28.9963 12.5598 28.9139C13.7171 29.2709 14.9631 29.4657 16.2733 29.4657C17.5869 29.4657 18.6019 29.2884 19.5714 29.069C23.7759 28.1171 27.1814 25.1701 28.8812 21.4789C29.622 19.8211 30.0023 18.0256 30 16.2115C29.9988 8.90827 24.2648 3.6782 17.6184 3.11471" fill="black"/>
</svg>
