<svg width="32" height="32" viewBox="0 0 32 32" fill="none" xmlns="http://www.w3.org/2000/svg">
<path d="M15 26.5858L15 20.8284C15 20.5632 14.8946 20.3089 14.7071 20.1213L7.87868 13.2929C7.31607 12.7303 7 11.9672 7 11.1716V3C7 2.44772 7.44772 2 8 2C8.55229 2 9 2.44772 9 3L9 11.1716C9 11.4368 9.10536 11.6911 9.29289 11.8787L16 18.5858L22.7071 11.8787C22.8946 11.6911 23 11.4368 23 11.1716V3C23 2.44772 23.4477 2 24 2C24.5523 2 25 2.44772 25 3V11.1716C25 11.9672 24.6839 12.7303 24.1213 13.2929L17.2929 20.1213C17.1054 20.3089 17 20.5632 17 20.8284V26.5858L19.2929 24.2929C19.6834 23.9024 20.3166 23.9024 20.7071 24.2929C21.0976 24.6834 21.0976 25.3166 20.7071 25.7071L16.7071 29.7071C16.3166 30.0976 15.6834 30.0976 15.2929 29.7071L11.2929 25.7071C10.9024 25.3166 10.9024 24.6834 11.2929 24.2929C11.6834 23.9024 12.3166 23.9024 12.7071 24.2929L15 26.5858Z" fill="black"/>
</svg>
