<svg width="32" height="32" viewBox="0 0 32 32" fill="none" xmlns="http://www.w3.org/2000/svg">
<path d="M26.5858 17L20.8284 17C20.5632 17 20.3089 17.1054 20.1213 17.2929L13.2929 24.1213C12.7303 24.6839 11.9672 25 11.1716 25L3 25C2.44772 25 2 24.5523 2 24C2 23.4477 2.44772 23 3 23L11.1716 23C11.4368 23 11.6911 22.8946 11.8787 22.7071L18.5858 16L11.8787 9.29289C11.6911 9.10536 11.4368 9 11.1716 9L3 9C2.44771 9 2 8.55228 2 8C2 7.44771 2.44771 7 3 7L11.1716 7C11.9672 7 12.7303 7.31607 13.2929 7.87868L20.1213 14.7071C20.3089 14.8946 20.5632 15 20.8284 15L26.5858 15L24.2929 12.7071C23.9024 12.3166 23.9024 11.6834 24.2929 11.2929C24.6834 10.9024 25.3166 10.9024 25.7071 11.2929L29.7071 15.2929C30.0976 15.6834 30.0976 16.3166 29.7071 16.7071L25.7071 20.7071C25.3166 21.0976 24.6834 21.0976 24.2929 20.7071C23.9024 20.3166 23.9024 19.6834 24.2929 19.2929L26.5858 17Z" fill="black"/>
</svg>
