<svg width="32" height="32" viewBox="0 0 32 32" fill="none" xmlns="http://www.w3.org/2000/svg">
<path d="M21 4L11 4C11 3.46957 11.2107 2.96086 11.5858 2.58579C11.9609 2.21071 12.4696 2 13 2L19 2C20.1 2 21 2.9 21 4Z" fill="black"/>
<path d="M6 8C6 7.46957 6.21072 6.96086 6.58579 6.58579C6.96086 6.21071 7.46957 6 8 6L24 6C24.5304 6 25.0391 6.21072 25.4142 6.58579C25.7893 6.96086 26 7.46957 26 8L6 8Z" fill="black"/>
<path fill-rule="evenodd" clip-rule="evenodd" d="M28 30C29.1 30 30 29.1 30 28L30 12C30 11.4696 29.7893 10.9609 29.4142 10.5858C29.0391 10.2107 28.5304 10 28 10L4 10C3.46957 10 2.96086 10.2107 2.58579 10.5858C2.21072 10.9609 2 11.4696 2 12V28C2 28.5304 2.21071 29.0391 2.58579 29.4142C2.96086 29.7893 3.46957 30 4 30L28 30ZM4 28L28 28L28 12L4 12L4 28Z" fill="black"/>
<path d="M19.9333 19.2C20.4667 19.6 20.4667 20.4 19.9333 20.8L14.6 24.8C13.9408 25.2944 13 24.824 13 24L13 16C13 15.1759 13.9408 14.7056 14.6 15.2L19.9333 19.2Z" fill="black"/>
</svg>
