<svg width="32" height="32" viewBox="0 0 32 32" fill="none" xmlns="http://www.w3.org/2000/svg">
<path fill-rule="evenodd" clip-rule="evenodd" d="M15 3C15 2.44772 15.4477 2 16 2C16.5523 2 17 2.44772 17 3V4.04938C22.0533 4.5511 26 8.81465 26 14V15.514L29.4191 17.092C29.8454 17.2888 30.0775 17.7558 29.9767 18.2145C29.876 18.6732 29.4696 19 29 19L29 28C29.5523 28 30 28.4477 30 29C30 29.5523 29.5523 30 29 30H3C2.44771 30 2 29.5523 2 29C2 28.4477 2.44772 28 3 28L2.99999 19C2.53037 19 2.12402 18.6732 2.02327 18.2145C1.92253 17.7558 2.15454 17.2888 2.58093 17.092L6 15.514V14C6 8.81465 9.94668 4.5511 15 4.04938V3ZM8 14.5909L15.5809 11.092C15.8468 10.9693 16.1532 10.9693 16.4191 11.092L24 14.5909V14C24 9.58172 20.4183 6 16 6C11.5817 6 8 9.58172 8 14V14.5909ZM9 28H5V19H9V28ZM15 28H11V19H15V28ZM21 28H17V19H21V28ZM27 28H23V19H27V28ZM16 13.1014L24.447 17H7.55296L16 13.1014Z" fill="black"/>
</svg>
