<svg width="32" height="32" viewBox="0 0 32 32" fill="none" xmlns="http://www.w3.org/2000/svg">
<path d="M27 2C27.5523 2 28 2.44772 28 3L28 29C28 29.5523 27.5523 30 27 30C26.4477 30 26 29.5523 26 29L26 3C26 2.44771 26.4477 2 27 2Z" fill="black"/>
<path fill-rule="evenodd" clip-rule="evenodd" d="M20 23L20 9L12 9L12 23L20 23ZM22 9C22 7.89543 21.1046 7 20 7L12 7C10.8954 7 10 7.89543 10 9L10 23C10 24.1046 10.8954 25 12 25L20 25C21.1046 25 22 24.1046 22 23L22 9Z" fill="black"/>
<path d="M5 2C5.55228 2 6 2.44772 6 3L6 29C6 29.5523 5.55228 30 5 30C4.44771 30 4 29.5523 4 29L4 3C4 2.44771 4.44772 2 5 2Z" fill="black"/>
</svg>
