<svg width="32" height="32" viewBox="0 0 32 32" fill="none" xmlns="http://www.w3.org/2000/svg">
<g id="AisMoney">
<g id="Vector">
<path d="M28 4H4C3.448 4 3 4.447 3 5V19C3 19.553 3.448 20 4 20H28C28.552 20 29 19.553 29 19V5C29 4.447 28.552 4 28 4ZM27 18H5V6H27V18Z" fill="black"/>
<path d="M28 22H4C3.448 22 3 22.447 3 23C3 23.553 3.448 24 4 24H28C28.552 24 29 23.553 29 23C29 22.447 28.552 22 28 22Z" fill="black"/>
<path d="M28 26H4C3.448 26 3 26.447 3 27C3 27.553 3.448 28 4 28H28C28.552 28 29 27.553 29 27C29 26.447 28.552 26 28 26Z" fill="black"/>
<path d="M8 13C8.55228 13 9 12.5523 9 12C9 11.4477 8.55228 11 8 11C7.44772 11 7 11.4477 7 12C7 12.5523 7.44772 13 8 13Z" fill="black"/>
<path d="M24 13C24.5523 13 25 12.5523 25 12C25 11.4477 24.5523 11 24 11C23.4477 11 23 11.4477 23 12C23 12.5523 23.4477 13 24 13Z" fill="black"/>
<path d="M16 16C18.206 16 20 14.206 20 12C20 9.794 18.206 8 16 8C13.794 8 12 9.794 12 12C12 14.206 13.794 16 16 16ZM16 10C17.103 10 18 10.897 18 12C18 13.103 17.103 14 16 14C14.897 14 14 13.103 14 12C14 10.897 14.897 10 16 10Z" fill="black"/>
</g>
</g>
</svg>
