<svg width="32" height="32" viewBox="0 0 32 32" fill="none" xmlns="http://www.w3.org/2000/svg">
<path d="M11.6748 9.06787L19.3386 6.45479V24.5H9.96501C9.61281 24.5038 9.27156 24.6229 8.99357 24.8392C8.79814 24.9913 8.64156 25.1855 8.53444 25.4057C8.30525 25.5903 8.13986 25.8249 8.05793 26.0845C7.96063 26.3929 7.98642 26.7195 8.13135 27.0144C8.27627 27.3092 8.53234 27.556 8.86029 27.717L13.1837 29.7753L14.85 30.72C15.3178 30.9859 15.8469 31.1255 16.385 31.125C16.6745 31.1248 16.9625 31.0827 17.24 31L25.785 28.565C26.4224 28.3819 26.983 27.9966 27.3825 27.4673C27.782 26.938 27.9987 26.2932 28 25.63V6.37C28.0003 5.70513 27.7796 5.05832 27.3713 4.52772C26.963 3.99713 26.3895 3.61172 25.7378 3.43L18.2395 1.34472C18.0464 1.25023 17.8426 1.1737 17.631 1.11688C17.4399 1.06511 17.2443 1.03037 17.0467 1.01299L17 1L17.0042 1.00953C16.9158 1.00287 16.827 0.999693 16.7381 1.00002C16.17 1.00125 15.6119 1.14042 15.1174 1.40415L5.58968 6.53115C5.10688 6.79068 4.70548 7.16613 4.42628 7.61936C4.14707 8.0726 4 8.58748 4.00001 9.11169V22.4331C3.99928 22.7043 4.07334 22.9709 4.21491 23.2069C4.35648 23.4429 4.56068 23.64 4.80746 23.779C5.05424 23.918 5.33511 23.994 5.62247 23.9997C5.90982 24.0053 6.19379 23.9403 6.44646 23.811L9.0271 22.4964C9.38102 22.3129 9.67607 22.043 9.8813 21.7149C10.0865 21.3868 10.1944 21.0126 10.1936 20.6316V11.0641C10.194 10.6283 10.3363 10.2032 10.6013 9.84615C10.8662 9.48913 11.2409 9.21746 11.6748 9.06787Z" fill="black"/>
</svg>
