<svg width="32" height="32" viewBox="0 0 32 32" fill="none" xmlns="http://www.w3.org/2000/svg">
<path d="M24 2H8C7.46957 2 6.96086 2.21071 6.58579 2.58579C6.21071 2.96086 6 3.46957 6 4V8C6 8.53043 6.21071 9.03914 6.58579 9.41421C6.96086 9.78929 7.46957 10 8 10V28C8 28.5304 8.21071 29.0391 8.58579 29.4142C8.96086 29.7893 9.46957 30 10 30H22C22.5304 30 23.0391 29.7893 23.4142 29.4142C23.7893 29.0391 24 28.5304 24 28V10C24.5304 10 25.0391 9.78929 25.4142 9.41421C25.7893 9.03914 26 8.53043 26 8V4C26 3.46957 25.7893 2.96086 25.4142 2.58579C25.0391 2.21071 24.5304 2 24 2ZM10 14H13V24H10V14ZM22 28H10V26H14C14.5523 26 15 25.5523 15 25V13C15 12.4477 14.5523 12 14 12H10V10H22V28ZM8 8V4H24V8H8Z" fill="black"/>
</svg>
