<svg width="32" height="32" viewBox="0 0 32 32" fill="none" xmlns="http://www.w3.org/2000/svg">
<path d="M9.6232 9.46671C7.00865 7.90806 4.07263 7.08835 1.08719 7.08354H1V5.05569C0.999265 4.52389 1.09538 3.99714 1.28287 3.50551C1.47036 3.01388 1.74555 2.56701 2.09273 2.1904C2.4399 1.8138 2.85226 1.51483 3.30627 1.31058C3.76028 1.10634 4.24703 1.0008 4.73875 1H27.2612C27.753 1.0008 28.2397 1.10634 28.6937 1.31058C29.1477 1.51483 29.5601 1.8138 29.9073 2.1904C30.2544 2.56701 30.5296 3.01388 30.7171 3.50551C30.9046 3.99714 31.0007 4.52389 31 5.05569V7.08354C28.0147 7.08833 25.0788 7.90804 22.4644 9.4667C19.85 11.0254 17.6417 13.2725 16.0441 16C14.4463 13.2725 12.2378 11.0254 9.6232 9.46671Z" fill="black"/>
<path d="M9.68264 16.8431C11.9607 18.9754 13.24 21.8638 13.24 24.875H18.8481C18.8481 21.8639 20.1273 18.9757 22.4052 16.8434C24.6831 14.7112 27.7738 13.5088 31 13.5V27.5C31.0007 27.9589 30.9046 28.4135 30.7171 28.8378C30.5296 29.2621 30.2544 29.6477 29.9073 29.9727C29.5601 30.2977 29.1477 30.5557 28.6937 30.732C28.2397 30.9082 27.753 30.9993 27.2612 31H4.73875C4.24703 30.9993 3.76028 30.9082 3.30627 30.732C2.85226 30.5557 2.4399 30.2977 2.09273 29.9727C1.74555 29.6477 1.47036 29.2621 1.28287 28.8378C1.09538 28.4135 0.999265 27.9589 1 27.5V13.5H1.08719C4.3135 13.5086 7.40454 14.7108 9.68264 16.8431Z" fill="black"/>
</svg>
