<svg width="32" height="32" viewBox="0 0 32 32" fill="none" xmlns="http://www.w3.org/2000/svg">
<path d="M5.28571 10.2857V21H8.18894V14.855L11.0922 18.7941L13.9954 14.855V21H16.8986V10.2857H13.9954L11.0922 14.2248L8.18894 10.2857H5.28571Z" fill="black"/>
<path d="M19.076 15.8004L23.4309 21L27.7857 15.8004H24.8825V10.2857H21.9793V15.8004H19.076Z" fill="black"/>
<path fill-rule="evenodd" clip-rule="evenodd" d="M3.47835 6C2.07746 6 1 7.16278 1 8.52421V22.7615C1 24.1229 2.07746 25.2857 3.47835 25.2857H28.5216C29.9225 25.2857 31 24.1229 31 22.7615V8.52421C31 7.16278 29.9225 6 28.5216 6H3.47835ZM3.14286 8.52421C3.14286 8.28094 3.3252 8.14286 3.47835 8.14286H28.5216C28.6748 8.14286 28.8571 8.28094 28.8571 8.52421V22.7615C28.8571 23.0048 28.6748 23.1429 28.5216 23.1429H3.47835C3.3252 23.1429 3.14286 23.0048 3.14286 22.7615V8.52421Z" fill="black"/>
</svg>
