<svg width="32" height="32" viewBox="0 0 32 32" fill="none" xmlns="http://www.w3.org/2000/svg">
<path d="M28 3C28 2.44772 27.5523 2 27 2C26.4477 2 26 2.44771 26 3L26 29C26 29.5523 26.4477 30 27 30C27.5523 30 28 29.5523 28 29L28 3Z" fill="black"/>
<path fill-rule="evenodd" clip-rule="evenodd" d="M20 7C21.1046 7 22 7.89543 22 9V23C22 24.1046 21.1046 25 20 25H12C10.8954 25 10 24.1046 10 23L10 9C10 7.89543 10.8954 7 12 7L20 7ZM20 23H12L12 9L20 9V23Z" fill="black"/>
<path d="M6 28C6 27.4477 5.55228 27 5 27C4.44772 27 4 27.4477 4 28C4 28.5523 4.44772 29 5 29C5.55228 29 6 28.5523 6 28Z" fill="black"/>
<path d="M5 3C5.55228 3 6 3.44772 6 4C6 4.55228 5.55228 5 5 5C4.44772 5 4 4.55228 4 4C4 3.44772 4.44772 3 5 3Z" fill="black"/>
<path d="M6 10C6 9.44771 5.55228 9 5 9C4.44772 9 4 9.44772 4 10C4 10.5523 4.44772 11 5 11C5.55228 11 6 10.5523 6 10Z" fill="black"/>
<path d="M5 15C5.55228 15 6 15.4477 6 16C6 16.5523 5.55228 17 5 17C4.44772 17 4 16.5523 4 16C4 15.4477 4.44772 15 5 15Z" fill="black"/>
<path d="M6 22C6 21.4477 5.55228 21 5 21C4.44772 21 4 21.4477 4 22C4 22.5523 4.44772 23 5 23C5.55228 23 6 22.5523 6 22Z" fill="black"/>
</svg>
