<svg width="32" height="32" viewBox="0 0 32 32" fill="none" xmlns="http://www.w3.org/2000/svg">
<path fill-rule="evenodd" clip-rule="evenodd" d="M3 18.2884C3 19.8174 3.30199 21.1591 3.91682 22.1817C4.66998 23.4367 5.88608 24.2694 7.80922 24.2694C9.43038 24.2694 10.6618 23.5416 12.104 21.6212C12.9268 20.5244 13.3436 19.8599 14.9891 16.9421L16.0095 15.1346C16.0753 15.2424 16.1415 15.3519 16.2079 15.4629L18.5398 19.358C19.3237 20.6691 20.3427 22.1275 21.2143 22.9485C22.3481 24.0181 23.3734 24.2694 24.5307 24.2694C26.3924 24.2694 27.4991 23.2866 28.0669 22.3029C28.6546 21.2857 29 19.9982 29 18.2459C29 15.2984 28.2622 12.4421 26.7423 10.1745C25.3535 8.10398 23.5389 7 21.6338 7C20.4991 7 19.3716 7.50633 18.3264 8.41772C17.62 9.03386 16.9633 9.81159 16.3546 10.6339C15.6054 9.68546 14.9086 8.96256 14.2333 8.41139C12.9521 7.36528 11.7251 7 10.491 7C8.35985 7 6.5018 8.38789 5.21428 10.3725C3.7631 12.6103 3 15.5081 3 18.2884ZM5.80832 18.3888C5.80832 19.3816 6.02622 20.1438 6.31103 20.6049C6.68445 21.2089 7.24141 21.4647 7.80922 21.4647C8.54159 21.4647 9.21157 21.283 10.5027 19.4973C11.2318 18.4884 12.0526 17.1924 12.7607 16.0743C13.0572 15.6062 13.3339 15.1692 13.5759 14.7975L14.6814 13.0989C14.1417 12.3302 13.6774 11.7453 13.3436 11.3906C12.6754 10.6808 11.8164 9.82369 10.4457 9.82369C9.96719 9.82369 9.51976 9.96854 9.10237 10.2289C8.55215 10.572 8.05412 11.1158 7.60579 11.7929C6.49096 13.4756 5.80832 15.9819 5.80832 18.3888ZM18.9919 14.5425C18.5154 13.7489 18.0632 13.0351 17.6305 12.3931C17.7075 12.2737 17.7843 12.1571 17.8608 12.0434C19.075 10.2378 20.1555 9.22513 21.4982 9.22513C22.7396 9.22513 23.868 10.0461 24.7387 11.3897C25.9656 13.2839 26.5226 15.9349 26.5226 18.3237C26.5226 20 26.1248 21.4647 24.5307 21.4647C23.9023 21.4647 23.4186 21.2152 22.7278 20.3779C22.1908 19.726 21.273 18.3436 19.66 15.6564L18.9919 14.5425Z" fill="black"/>
</svg>
