<svg width="32" height="32" viewBox="0 0 32 32" fill="none" xmlns="http://www.w3.org/2000/svg">
<path d="M15.3352 2.00002C10.1133 1.98252 0.0672766 13.9535 3.82038 17.1244L4.74203 17.9049C4.49328 18.5719 4.40534 19.2882 4.48537 19.9956C4.58337 20.9755 5.0897 21.9135 5.90868 22.6392C6.68567 23.3275 7.70765 23.7638 8.6993 23.7638C10.3396 27.5438 14.0892 29.8631 18.4828 29.9937C23.1961 30.1337 27.1545 27.9218 28.8123 23.9482C28.9208 23.6682 29.3816 22.4129 29.3816 21.3034C29.3816 20.1881 28.7516 19.7261 28.3492 19.7261C28.3375 19.6829 28.2582 19.3924 28.1485 19.0424C28.04 18.6924 27.9268 18.4474 27.9268 18.4474C28.3643 17.7906 28.3725 17.2049 28.3142 16.8724C28.2523 16.4606 28.0808 16.1106 27.7355 15.7478C27.3902 15.385 26.6832 15.0128 25.6904 14.7351L25.17 14.5905C25.1677 14.5683 25.142 13.362 25.1199 12.844C25.1035 12.4707 25.0709 11.885 24.89 11.3099C24.673 10.5305 24.2974 9.84806 23.8272 9.41173C25.1245 8.06775 25.9342 6.58611 25.9319 5.31563C25.9284 2.87151 22.9266 2.13185 19.2283 3.66366L18.4443 3.99615C17.9658 3.52616 17.4867 3.05678 17.007 2.58801C16.545 2.18552 15.9769 2.00235 15.3352 2.00002ZM15.4204 3.0185C15.614 3.0185 15.796 3.04067 15.9629 3.08617C16.3093 3.18417 17.4562 4.51415 17.4562 4.51415C17.4562 4.51415 15.3259 5.69596 13.3496 7.34443C10.6896 9.39423 8.67714 12.3739 7.47316 15.6066C6.52701 15.791 5.69285 16.3276 5.18303 17.0684C4.87853 16.8141 4.31037 16.3218 4.21004 16.1305C3.39572 14.5835 5.09786 11.5782 6.28784 9.88072C8.9968 6.01329 13.1221 3.0115 15.4204 3.0185ZM19.254 6.83694C19.3006 6.83461 19.324 6.89527 19.2866 6.92327C19.1198 7.0516 18.9378 7.2266 18.8048 7.40626C18.7997 7.41312 18.7965 7.42126 18.7957 7.42979C18.7949 7.43832 18.7964 7.44691 18.8001 7.45462C18.8039 7.46233 18.8097 7.46887 18.8169 7.47351C18.8241 7.47815 18.8324 7.48072 18.841 7.48093C19.6098 7.4856 20.6924 7.75509 21.3983 8.15059C21.4461 8.17742 21.4123 8.27075 21.3586 8.25792C20.2911 8.01292 18.5423 7.82742 16.727 8.26958C15.1054 8.66624 13.8687 9.2764 12.9657 9.93322C12.9191 9.96589 12.8654 9.90639 12.9016 9.86322C13.9469 8.65574 15.2337 7.60576 16.3863 7.0166C16.426 6.9956 16.468 7.03877 16.447 7.07727C16.3548 7.2441 16.1787 7.59876 16.1227 7.86826C16.1145 7.90909 16.16 7.94176 16.195 7.91726C16.9125 7.42726 18.1597 6.90461 19.254 6.83694ZM22.7807 10.576L22.8461 10.5772C23.0356 10.5847 23.2195 10.6436 23.3781 10.7475C24.0011 11.1617 24.0897 12.1662 24.1224 12.9C24.1399 13.32 24.1912 14.3338 24.2087 14.6243C24.2484 15.2905 24.4234 15.3838 24.7769 15.5005C24.9752 15.567 25.1619 15.6148 25.4337 15.6918C26.2574 15.9228 26.7462 16.1585 27.0553 16.4595C27.2385 16.6484 27.3237 16.8479 27.3505 17.0393C27.4473 17.7486 26.7998 18.6259 25.0849 19.4204C23.2101 20.2907 20.9351 20.5112 19.3636 20.3362L18.8141 20.2744C17.5565 20.1052 16.839 21.7292 17.5938 22.8422C18.0803 23.5597 19.4045 24.0263 20.7298 24.0263C23.7677 24.0263 26.1022 22.7302 26.9713 21.609C26.9964 21.5772 27.0198 21.5441 27.0413 21.5099C27.0833 21.4457 27.0483 21.4107 26.9947 21.4469C26.2854 21.9322 23.1331 23.8607 19.7615 23.2797C19.7615 23.2797 19.352 23.2132 18.9775 23.0673C18.68 22.9507 18.0582 22.666 17.9823 22.0279C20.7041 22.8678 22.4167 22.0734 22.4167 22.0734C22.4326 22.0662 22.4459 22.0542 22.4546 22.0392C22.4634 22.0241 22.4673 22.0067 22.4657 21.9894C22.4647 21.9791 22.4617 21.9691 22.4568 21.96C22.4519 21.9509 22.4452 21.9429 22.4372 21.9363C22.4292 21.9298 22.4199 21.925 22.41 21.9221C22.4001 21.9192 22.3897 21.9182 22.3794 21.9194C22.3794 21.9194 20.15 22.2495 18.0418 21.4784C18.2716 20.7317 18.8818 21.0024 19.8035 21.0759C21.2374 21.1609 22.6755 21.0055 24.0582 20.6162C25.0125 20.3432 26.2655 19.8031 27.2397 19.0342C27.5675 19.7552 27.683 20.5497 27.683 20.5497C27.683 20.5497 27.9385 20.5031 28.1497 20.6349C28.3515 20.7585 28.4985 21.0152 28.3982 21.679C28.1928 22.9192 27.6655 23.926 26.78 24.8523C26.2263 25.4509 25.5676 25.9428 24.8364 26.3036C24.4397 26.5136 24.0151 26.6933 23.5682 26.8403C20.2281 27.9311 16.8087 26.7318 15.7062 24.157C15.6169 23.9601 15.5432 23.7565 15.4857 23.548C15.0155 21.8505 15.4157 19.8147 16.6617 18.5326C16.7375 18.4509 16.8157 18.3541 16.8157 18.2339C16.8157 18.1324 16.7515 18.0251 16.6967 17.9504C16.2603 17.3169 14.7495 16.2401 15.0529 14.1542C15.271 12.6562 16.5812 11.6004 17.8027 11.6634C17.9065 11.668 18.0092 11.675 18.113 11.6809C18.6415 11.7124 19.1046 11.78 19.5398 11.7975C20.2689 11.8302 20.9246 11.724 21.7016 11.0765C21.9641 10.8584 22.1741 10.6682 22.5299 10.6087C22.5626 10.6029 22.6372 10.576 22.7807 10.576ZM22.8064 13.1193C22.783 13.1196 22.7596 13.1216 22.7364 13.1252C22.3456 13.1882 22.3316 13.6712 22.4704 14.3385C22.5497 14.7118 22.6886 15.0326 22.8437 15.231C23.0479 15.2076 23.2439 15.2053 23.4247 15.231C23.5286 14.9918 23.5461 14.5811 23.4527 14.132C23.3221 13.5078 23.1482 13.1147 22.8064 13.1193ZM18.5365 14.923C18.1111 14.9212 17.6961 15.0544 17.3512 15.3033C17.1645 15.4398 16.9883 15.63 17.0128 15.7443C17.0222 15.7816 17.049 15.8096 17.1155 15.8178C17.2683 15.8353 17.8062 15.5646 18.4245 15.5261C18.8608 15.4993 19.2225 15.6358 19.5013 15.7595C19.7801 15.8808 19.9516 15.9613 20.0181 15.8913C20.0613 15.847 20.0485 15.763 19.982 15.6533C19.8443 15.4293 19.562 15.2018 19.261 15.0735C19.0319 14.9755 18.7856 14.9243 18.5365 14.923ZM23.2987 15.868C23.0992 15.8645 22.9336 16.085 22.9289 16.358C22.9242 16.6333 23.0817 16.8596 23.2824 16.8619C23.4831 16.8654 23.6487 16.6461 23.6534 16.372C23.6581 16.0966 23.4994 15.8715 23.2987 15.868ZM19.1221 16.0686C19.0638 16.0686 19.0031 16.071 18.9413 16.078C18.5785 16.1363 18.3778 16.2553 18.2495 16.3661C18.1398 16.4618 18.0722 16.5679 18.0722 16.6426C18.072 16.6542 18.0741 16.6657 18.0785 16.6765C18.0828 16.6872 18.0892 16.697 18.0974 16.7052C18.1055 16.7135 18.1152 16.72 18.1259 16.7245C18.1366 16.729 18.1481 16.7313 18.1596 16.7313C18.2413 16.7313 18.4256 16.6578 18.4256 16.6578C18.798 16.5174 19.2002 16.4756 19.5935 16.5365C19.7766 16.5575 19.8618 16.5679 19.9026 16.5061C19.9143 16.4875 19.9283 16.449 19.891 16.3895C19.8175 16.2693 19.5293 16.0756 19.1221 16.0686ZM21.7588 16.5353C21.6106 16.5353 21.4846 16.5948 21.4286 16.7079C21.3411 16.8876 21.4694 17.1314 21.7156 17.2516C21.9606 17.3729 22.2324 17.3251 22.3223 17.1466C22.4097 16.9658 22.2814 16.7219 22.0353 16.6018C21.9494 16.5585 21.8549 16.5365 21.7588 16.5353ZM8.18481 16.5633C8.24081 16.5633 8.29914 16.5633 8.35864 16.5668C9.2103 16.6134 10.4656 17.2668 10.7526 19.1217C11.0058 20.7667 10.6033 22.4385 9.06213 22.7022C8.91863 22.7255 8.7728 22.736 8.6258 22.7325C7.20249 22.694 5.66369 21.4119 5.51086 19.8917C5.34169 18.2118 6.20034 16.9191 7.72049 16.6123C7.85698 16.5843 8.01448 16.5656 8.18481 16.5633ZM8.10315 17.6448C7.91799 17.6431 7.73452 17.68 7.5644 17.7532C7.39428 17.8263 7.24124 17.934 7.115 18.0694C6.67167 18.5571 6.60284 19.2221 6.688 19.4577C6.7195 19.5429 6.76967 19.5674 6.80467 19.5721C6.87933 19.5814 6.99133 19.5266 7.06133 19.3387C7.0684 19.3187 7.07501 19.2984 7.08116 19.2781C7.12359 19.127 7.18515 18.9819 7.26433 18.8464C7.32216 18.7579 7.39687 18.6817 7.4842 18.6221C7.57153 18.5625 7.66975 18.5208 7.77324 18.4992C7.87673 18.4776 7.98346 18.4767 8.08732 18.4964C8.19117 18.5162 8.29011 18.5562 8.37848 18.6143C8.6888 18.8172 8.80897 19.1976 8.67597 19.5592C8.60831 19.7471 8.49631 20.1064 8.52081 20.4004C8.57097 20.9965 8.9373 21.2369 9.26746 21.2614C9.58712 21.273 9.81112 21.0945 9.86828 20.9627C9.90212 20.8845 9.87412 20.8379 9.85545 20.8169C9.80529 20.755 9.72362 20.7737 9.64546 20.7924C9.58457 20.8088 9.52185 20.8174 9.45879 20.818C9.3918 20.8199 9.32538 20.8051 9.26552 20.775C9.20565 20.7448 9.15421 20.7003 9.1158 20.6454C9.0248 20.5054 9.03063 20.2954 9.13096 20.0574C9.1438 20.0247 9.16013 19.9897 9.17763 19.9501C9.33863 19.5907 9.60696 18.9876 9.30596 18.4136C9.07846 17.9819 8.70747 17.7113 8.26298 17.6553C8.2096 17.6481 8.15583 17.6442 8.10198 17.6436L8.10315 17.6448Z" fill="black"/>
</svg>
