<svg width="32" height="32" viewBox="0 0 32 32" fill="none" xmlns="http://www.w3.org/2000/svg">
<g id="AisMinimize">
<path id="Union" fill-rule="evenodd" clip-rule="evenodd" d="M27.7071 5.70711C28.0976 5.31658 28.0976 4.68342 27.7071 4.29289C27.3166 3.90237 26.6834 3.90237 26.2929 4.29289L23 7.58579V6C23 5.44771 22.5523 5 22 5C21.4477 5 21 5.44771 21 6V10C21 10.5523 21.4477 11 22 11L26 11C26.5523 11 27 10.5523 27 10C27 9.44772 26.5523 9 26 9L24.4142 9L27.7071 5.70711ZM5.70711 27.7071L9 24.4142V26C9 26.5523 9.44772 27 10 27C10.5523 27 11 26.5523 11 26V22C11 21.4477 10.5523 21 10 21H6C5.44772 21 5 21.4477 5 22C5 22.5523 5.44772 23 6 23H7.58579L4.29289 26.2929C3.90237 26.6834 3.90237 27.3166 4.29289 27.7071C4.68342 28.0976 5.31658 28.0976 5.70711 27.7071ZM15 13H17C18.1046 13 19 13.8954 19 15V17C19 18.1046 18.1046 19 17 19H15C13.8954 19 13 18.1046 13 17V15C13 13.8954 13.8954 13 15 13ZM11 15C11 12.7909 12.7909 11 15 11H17C19.2091 11 21 12.7909 21 15V17C21 19.2091 19.2091 21 17 21H15C12.7909 21 11 19.2091 11 17V15Z" fill="black"/>
</g>
</svg>
