<svg width="32" height="32" viewBox="0 0 32 32" fill="none" xmlns="http://www.w3.org/2000/svg">
<path d="M13.5111 5.27653C13.6242 4.74983 14.3758 4.74983 14.4889 5.27653L15.8767 11.7394C15.918 11.9318 16.0682 12.082 16.2606 12.1233L22.7235 13.5111C23.2502 13.6242 23.2502 14.3758 22.7235 14.4889L16.2606 15.8767C16.0682 15.918 15.918 16.0682 15.8767 16.2606L14.4889 22.7235C14.3758 23.2502 13.6242 23.2502 13.5111 22.7235L12.1233 16.2606C12.082 16.0682 11.9318 15.918 11.7394 15.8767L5.27653 14.4889C4.74983 14.3758 4.74983 13.6242 5.27653 13.5111L11.7394 12.1233C11.9318 12.082 12.082 11.9318 12.1233 11.7394L13.5111 5.27653Z" fill="black"/>
<path d="M23.5111 19.2765C23.6242 18.7498 24.3758 18.7498 24.4889 19.2765L24.9928 21.6233C25.0341 21.8157 25.1843 21.9659 25.3767 22.0072L27.7235 22.5111C28.2502 22.6242 28.2502 23.3758 27.7235 23.4889L25.3767 23.9928C25.1843 24.0341 25.0341 24.1843 24.9928 24.3767L24.4889 26.7235C24.3758 27.2502 23.6242 27.2502 23.5111 26.7235L23.0072 24.3767C22.9659 24.1843 22.8157 24.0341 22.6233 23.9928L20.2765 23.4889C19.7498 23.3758 19.7498 22.6242 20.2765 22.5111L22.6233 22.0072C22.8157 21.9659 22.9659 21.8157 23.0072 21.6233L23.5111 19.2765Z" fill="black"/>
</svg>
