<svg width="32" height="32" viewBox="0 0 32 32" fill="none" xmlns="http://www.w3.org/2000/svg">
<path d="M6 11V21H8.70968V15.2647L11.4194 18.9412L14.129 15.2647V21H16.8387V11H14.129L11.4194 14.6765L8.70968 11H6Z" fill="black"/>
<path d="M18.871 16.1471L22.9355 21L27 16.1471H24.2903V11H21.5806V16.1471H18.871Z" fill="black"/>
<path fill-rule="evenodd" clip-rule="evenodd" d="M4.31313 7C3.00563 7 2 8.08526 2 9.35593V22.6441C2 23.9147 3.00563 25 4.31313 25H27.6869C28.9944 25 30 23.9147 30 22.6441V9.35593C30 8.08526 28.9944 7 27.6869 7H4.31313ZM4 9.35593C4 9.12888 4.17019 9 4.31313 9H27.6869C27.8298 9 28 9.12888 28 9.35593V22.6441C28 22.8711 27.8298 23 27.6869 23H4.31313C4.17019 23 4 22.8711 4 22.6441V9.35593Z" fill="black"/>
</svg>
