<svg width="32" height="32" viewBox="0 0 32 32" fill="none" xmlns="http://www.w3.org/2000/svg">
<path d="M26.857 23.485L24.712 19.91C24.246 19.134 24 18.244 24 17.338V11C24 6.589 20.411 3 16 3C11.589 3 8 6.589 8 11V17.338C8 18.244 7.75299 19.134 7.28799 19.91L5.14301 23.485C4.95701 23.795 4.953 24.179 5.13 24.493C5.307 24.806 5.64 25 6 25H12.007C12.044 27.174 13.818 28.933 16 28.933C18.182 28.933 19.956 27.175 19.993 25H26C26.36 25 26.693 24.807 26.87 24.493C27.048 24.18 27.043 23.795 26.857 23.485ZM16 26.932C14.92 26.932 14.043 26.07 14.007 24.999H17.993C17.957 26.07 17.08 26.932 16 26.932Z" fill="black"/>
</svg>
