<svg width="32" height="32" viewBox="0 0 32 32" fill="none" xmlns="http://www.w3.org/2000/svg">
<path d="M7.20216 6.90933C8.0725 7.61633 8.39916 7.56267 10.0348 7.453L25.4523 6.52783C25.779 6.52783 25.5072 6.20117 25.3987 6.1475L22.8367 4.296C22.3467 3.91567 21.6922 3.47933 20.4392 3.58783L5.51166 4.6775C4.968 4.73117 4.85833 5.00417 5.07533 5.22117L7.20216 6.90933ZM8.12733 10.5027V26.724C8.12733 27.5955 8.5625 27.9222 9.54366 27.8673L26.4872 26.8873C27.4683 26.8337 27.578 26.234 27.578 25.5258V9.413C27.578 8.706 27.3062 8.3245 26.7053 8.37817L8.99883 9.413C8.3455 9.46783 8.12733 9.79567 8.12733 10.5027ZM24.8538 11.3718C24.9623 11.8618 24.8538 12.3518 24.3638 12.4078L23.5472 12.5712V24.5458C22.8378 24.9273 22.1845 25.1455 21.6397 25.1455C20.767 25.1455 20.5488 24.8725 19.8955 24.057L14.5557 15.6733V23.784L16.245 24.1667C16.245 24.1667 16.245 25.1467 14.8823 25.1467L11.1233 25.3637C11.0148 25.1467 11.1233 24.6018 11.5048 24.4933L12.4848 24.2215V13.4963L11.1257 13.3867C11.016 12.8967 11.289 12.1897 12.0508 12.1348L16.0828 11.863L21.6408 20.3552V12.8418L20.2233 12.6797C20.1148 12.08 20.55 11.6448 21.0948 11.5912L24.8538 11.3718ZM4.25866 3.2075L19.787 2.06417C21.6933 1.90083 22.1845 2.00933 23.3827 2.88083L28.3398 6.3645C29.1565 6.963 29.4295 7.12633 29.4295 7.77967V26.8873C29.4295 28.0843 28.9943 28.7937 27.4695 28.901L9.43516 29.9907C8.29183 30.0455 7.74583 29.8822 7.14616 29.1192L3.49566 24.3825C2.84233 23.511 2.5705 22.8588 2.5705 22.0958V5.1115C2.5705 4.13267 3.00683 3.31483 4.25866 3.2075Z" fill="black"/>
</svg>
