<svg width="32" height="32" viewBox="0 0 32 32" fill="none" xmlns="http://www.w3.org/2000/svg">
<path fill-rule="evenodd" clip-rule="evenodd" d="M17.4611 3.13373C16.9873 3.04591 16.4989 3 16 3C11.589 3 8 6.589 8 11V17.338C8 18.244 7.75299 19.134 7.28799 19.91L5.14301 23.485C4.95701 23.795 4.953 24.179 5.13 24.493C5.307 24.806 5.64 25 6 25H12.007C12.044 27.174 13.818 28.933 16 28.933C18.182 28.933 19.956 27.175 19.993 25H26C26.36 25 26.693 24.807 26.87 24.493C27.048 24.18 27.043 23.795 26.857 23.485L24.712 19.91C24.246 19.134 24 18.244 24 17.338V11C24 9.99435 23.8135 9.03143 23.4731 8.14403C22.7925 8.68014 21.9336 9 21 9C18.7909 9 17 7.20914 17 5C17 4.32598 17.1667 3.6909 17.4611 3.13373ZM14.007 24.999C14.043 26.07 14.92 26.932 16 26.932C17.08 26.932 17.957 26.07 17.993 24.999H14.007Z" fill="black"/>
<path d="M23 5C23 6.10457 22.1046 7 21 7C19.8954 7 19 6.10457 19 5C19 3.89543 19.8954 3 21 3C22.1046 3 23 3.89543 23 5Z" fill="black"/>
</svg>
