<svg width="32" height="32" viewBox="0 0 32 32" fill="none" xmlns="http://www.w3.org/2000/svg">
<g id="AisNotebook">
<g id="Vector">
<path d="M28 5H4C2.897 5 2 5.897 2 7V25C2 26.103 2.897 27 4 27H28C29.103 27 30 26.103 30 25V7C30 5.897 29.103 5 28 5ZM4 7H15V25H4V7ZM17 25V7H28V25H17Z" fill="black"/>
<path d="M25 9H20C19.448 9 19 9.447 19 10C19 10.553 19.448 11 20 11H25C25.552 11 26 10.553 26 10C26 9.447 25.552 9 25 9Z" fill="black"/>
<path d="M25 13H20C19.448 13 19 13.447 19 14C19 14.553 19.448 15 20 15H25C25.552 15 26 14.553 26 14C26 13.447 25.552 13 25 13Z" fill="black"/>
<path d="M25 17H20C19.448 17 19 17.447 19 18C19 18.553 19.448 19 20 19H25C25.552 19 26 18.553 26 18C26 17.447 25.552 17 25 17Z" fill="black"/>
<path d="M25 21H20C19.448 21 19 21.447 19 22C19 22.553 19.448 23 20 23H25C25.552 23 26 22.553 26 22C26 21.447 25.552 21 25 21Z" fill="black"/>
</g>
</g>
</svg>
