<svg width="32" height="32" viewBox="0 0 32 32" fill="none" xmlns="http://www.w3.org/2000/svg">
<path d="M5 14V5C5 3.89543 5.89543 3 7 3H25C26.1046 3 27 3.89543 27 5V14" stroke="black" stroke-width="2"/>
<rect x="14.5" y="6.5" width="9" height="1" rx="0.5" stroke="black"/>
<rect x="9" y="7" width="2" height="2" rx="1" stroke="black" stroke-width="2"/>
<rect x="14.5" y="10.5" width="9" height="1" rx="0.5" stroke="black"/>
<rect x="12.5" y="14.5" width="7" height="1" rx="0.5" stroke="black"/>
<path d="M18 20L27.4118 13.155C28.0728 12.6743 29 13.1465 29 13.9638V27C29 28.1046 28.1046 29 27 29H5C3.89543 29 3 28.1046 3 27V13.9638C3 13.1465 3.9272 12.6743 4.58817 13.155L14 20" stroke="black" stroke-width="2"/>
<path d="M4 28L14.8 19.9C15.5111 19.3667 16.4889 19.3667 17.2 19.9L28 28" stroke="black" stroke-width="2"/>
</svg>
