<svg width="32" height="32" viewBox="0 0 32 32" fill="none" xmlns="http://www.w3.org/2000/svg">
<path d="M6.96249 6.25968C7.89499 7.01718 8.24499 6.95968 9.99748 6.84218L26.5162 5.85093C26.8662 5.85093 26.5749 5.50093 26.4587 5.44343L23.7137 3.45968C23.1887 3.05219 22.4875 2.58469 21.145 2.70094L5.15124 3.86843C4.56874 3.92593 4.45124 4.21843 4.68374 4.45093L6.96249 6.25968ZM7.95374 10.1097V27.4896C7.95374 28.4234 8.41999 28.7734 9.47123 28.7146L27.6249 27.6646C28.6762 27.6071 28.7937 26.9646 28.7937 26.2059V8.94217C28.7937 8.18468 28.5024 7.77593 27.8587 7.83343L8.88749 8.94217C8.18749 9.00092 7.95374 9.35217 7.95374 10.1097ZM25.8749 11.0409C25.9912 11.5659 25.8749 12.0909 25.3499 12.1509L24.475 12.3259V25.1559C23.715 25.5646 23.015 25.7984 22.4312 25.7984C21.4962 25.7984 21.2625 25.5059 20.5625 24.6321L14.8412 15.6497V24.3396L16.6512 24.7496C16.6512 24.7496 16.6512 25.7996 15.1912 25.7996L11.1637 26.0321C11.0475 25.7996 11.1637 25.2159 11.5725 25.0996L12.6225 24.8084V13.3172L11.1662 13.1997C11.0487 12.6747 11.3412 11.9172 12.1575 11.8584L16.4775 11.5672L22.4325 20.6659V12.6159L20.9137 12.4422C20.7975 11.7997 21.2637 11.3334 21.8475 11.2759L25.8749 11.0409ZM3.80875 2.29344L20.4462 1.06844C22.4887 0.89344 23.015 1.00969 24.2987 1.94344L29.6099 5.67593C30.4849 6.31718 30.7774 6.49218 30.7774 7.19218V27.6646C30.7774 28.9471 30.3112 29.7071 28.6774 29.8221L9.35498 30.9896C8.12999 31.0484 7.54499 30.8734 6.90249 30.0559L2.99125 24.9809C2.29125 24.0471 2 23.3484 2 22.5309V4.33343C2 3.28469 2.4675 2.40844 3.80875 2.29344Z" fill="black"/>
</svg>
