<svg width="32" height="32" viewBox="0 0 32 32" fill="none" xmlns="http://www.w3.org/2000/svg">
<path d="M10 6C8.89543 6 8 6.89543 8 8C8 9.10457 8.89543 10 10 10C11.1046 10 12 9.10457 12 8C12 6.89543 11.1046 6 10 6Z" fill="black"/>
<path d="M15 6C14.4477 6 14 6.44772 14 7C14 7.55228 14.4477 8 15 8H23C23.5523 8 24 7.55228 24 7C24 6.44772 23.5523 6 23 6H15Z" fill="black"/>
<path d="M14 11C14 10.4477 14.4477 10 15 10H23C23.5523 10 24 10.4477 24 11C24 11.5523 23.5523 12 23 12H15C14.4477 12 14 11.5523 14 11Z" fill="black"/>
<path d="M13 14C12.4477 14 12 14.4477 12 15C12 15.5523 12.4477 16 13 16H19C19.5523 16 20 15.5523 20 15C20 14.4477 19.5523 14 19 14H13Z" fill="black"/>
<path fill-rule="evenodd" clip-rule="evenodd" d="M7 2C5.34315 2 4 3.34315 4 5V11.9602C2.96563 11.9642 2 12.7842 2 13.9638V27C2 28.6569 3.34315 30 5 30H27C28.6569 30 30 28.6569 30 27V13.9638C30 12.7842 29.0344 11.9642 28 11.9602V5C28 3.34315 26.6569 2 25 2H7ZM26 12.9453L17.667 19.0057C16.6588 18.3314 15.3412 18.3314 14.3331 19.0057L6 12.9453V5C6 4.44772 6.44772 4 7 4H25C25.5523 4 26 4.44771 26 5V12.9453ZM28 26.75L19.3447 20.2585L27.9502 14H28V26.75ZM16.6 20.7L26.3334 28H5.66669L15.4 20.7C15.7556 20.4333 16.2445 20.4333 16.6 20.7ZM12.6553 20.2585L4 26.75V14H4.04981L12.6553 20.2585Z" fill="black"/>
</svg>
