<svg width="32" height="32" viewBox="0 0 32 32" fill="none" xmlns="http://www.w3.org/2000/svg">
<path fill-rule="evenodd" clip-rule="evenodd" d="M13 9C14.66 9 16 7.66 16 6C16 4.34 14.66 3 13 3C11.34 3 10 4.34 10 6C10 7.66 11.34 9 13 9ZM13 7C12.45 7 12 6.55 12 6C12 5.45 12.45 5 13 5C13.55 5 14 5.45 14 6C14 6.55 13.55 7 13 7Z" fill="black"/>
<path fill-rule="evenodd" clip-rule="evenodd" d="M27 13C28.66 13 30 11.66 30 10C30 8.34 28.66 7 27 7C25.34 7 24 8.34 24 10C24 11.66 25.34 13 27 13ZM27 11C26.45 11 26 10.55 26 10C26 9.45 26.45 9 27 9C27.55 9 28 9.45 28 10C28 10.55 27.55 11 27 11Z" fill="black"/>
<path fill-rule="evenodd" clip-rule="evenodd" d="M8 14C8 15.66 6.66 17 5 17C3.34 17 2 15.66 2 14C2 12.34 3.34 11 5 11C6.66 11 8 12.34 8 14ZM4 14C4 14.55 4.45 15 5 15C5.55 15 6 14.55 6 14C6 13.45 5.55 13 5 13C4.45 13 4 13.45 4 14Z" fill="black"/>
<path fill-rule="evenodd" clip-rule="evenodd" d="M5 29C6.66 29 8 27.66 8 26C8 24.34 6.66 23 5 23C3.34 23 2 24.34 2 26C2 27.66 3.34 29 5 29ZM5 27C4.45 27 4 26.55 4 26C4 25.45 4.45 25 5 25C5.55 25 6 25.45 6 26C6 26.55 5.55 27 5 27Z" fill="black"/>
<path fill-rule="evenodd" clip-rule="evenodd" d="M24 22C24 23.66 22.66 25 21 25C19.34 25 18 23.66 18 22C18 20.34 19.34 19 21 19C22.66 19 24 20.34 24 22ZM20 22C20 22.55 20.45 23 21 23C21.55 23 22 22.55 22 22C22 21.45 21.55 21 21 21C20.45 21 20 21.45 20 22Z" fill="black"/>
<path d="M29.94 21H26V23H29.94V21Z" fill="black"/>
<path d="M2 21H9.99C10.26 21 10.51 20.9 10.7 20.71L14.41 17H30.06V15H14.01C13.74 15 13.49 15.1 13.3 15.29L9.59 19H2V21Z" fill="black"/>
<path d="M30.06 29H18.13C17.87 29 17.62 28.9 17.43 28.72L13.59 25H10V23H14C14.26 23 14.51 23.1 14.7 23.28L18.54 27H30.06V29Z" fill="black"/>
<path d="M11 13H22.01V11H11.42L7.71 7.29C7.52 7.11 7.27 7 7 7H2V9H6.58L10.29 12.71C10.48 12.89 10.73 13 11 13Z" fill="black"/>
<path d="M19.1 9.02H17V7.02H18.68L22.41 3.29C22.6 3.1 22.85 3 23.12 3H30.06V5H23.53L19.81 8.72C19.62 8.91 19.37 9.01 19.1 9.01V9.02Z" fill="black"/>
<path d="M2 3H8V5H2V3Z" fill="black"/>
</svg>
