<svg width="32" height="32" viewBox="0 0 32 32" fill="none" xmlns="http://www.w3.org/2000/svg">
<path d="M2 16C2 15.4477 2.44772 15 3 15H5C5.55228 15 6 15.4477 6 16C6 16.5523 5.55228 17 5 17H3C2.44772 17 2 16.5523 2 16Z" fill="black"/>
<path d="M8 16C8 15.4477 8.44771 15 9 15H11C11.5523 15 12 15.4477 12 16C12 16.5523 11.5523 17 11 17H9C8.44771 17 8 16.5523 8 16Z" fill="black"/>
<path d="M15 15C14.4477 15 14 15.4477 14 16C14 16.5523 14.4477 17 15 17H17C17.5523 17 18 16.5523 18 16C18 15.4477 17.5523 15 17 15H15Z" fill="black"/>
<path d="M20 16C20 15.4477 20.4477 15 21 15H23C23.5523 15 24 15.4477 24 16C24 16.5523 23.5523 17 23 17H21C20.4477 17 20 16.5523 20 16Z" fill="black"/>
<path d="M27 15C26.4477 15 26 15.4477 26 16C26 16.5523 26.4477 17 27 17H29C29.5523 17 30 16.5523 30 16C30 15.4477 29.5523 15 29 15H27Z" fill="black"/>
</svg>
