<svg width="32" height="32" viewBox="0 0 32 32" fill="none" xmlns="http://www.w3.org/2000/svg">
<path d="M16 5C19.309 5 22 7.691 22 11V17.338C22 17.533 22.023 17.725 22.039 17.918L25.734 21.613L24.712 19.91C24.245 19.133 23.999 18.243 23.999 17.338V11C23.999 6.589 20.41 3 15.999 3C13.57 3 11.395 4.092 9.92599 5.806L11.343 7.22299C12.444 5.86799 14.121 5 15.999 5H16Z" fill="black"/>
<path d="M27.707 26.293L5.70701 4.29301C5.31601 3.90201 4.68401 3.90201 4.29301 4.29301C3.90201 4.68401 3.90201 5.31601 4.29301 5.70701L8.145 9.559C8.058 10.028 8.00001 10.506 8.00001 11V17.338C8.00001 18.243 7.75399 19.133 7.28699 19.91L5.142 23.485C4.956 23.795 4.952 24.179 5.129 24.493C5.306 24.807 5.639 25 5.999 25H12.006C12.043 27.174 13.816 28.933 15.999 28.933C18.182 28.933 19.955 27.175 19.992 25H23.585L26.292 27.707C26.487 27.902 26.743 28 26.999 28C27.255 28 27.511 27.902 27.706 27.707C28.097 27.316 28.097 26.684 27.706 26.293H27.707ZM16 26.933C14.921 26.933 14.043 26.071 14.007 25H17.993C17.957 26.071 17.079 26.933 16 26.933ZM7.766 23L9.00202 20.939C9.65502 19.851 10 18.605 10 17.337V11.413L21.586 22.999H7.766V23Z" fill="black"/>
</svg>
