<svg width="32" height="32" viewBox="0 0 32 32" fill="none" xmlns="http://www.w3.org/2000/svg">
<path fill-rule="evenodd" clip-rule="evenodd" d="M16 3C16.4989 3 16.9873 3.04591 17.4611 3.13373C17.1667 3.6909 17 4.32598 17 5C17 5.0272 17.0003 5.05434 17.0008 5.08141C16.6753 5.02655 16.3409 4.99799 16 4.99799C12.691 4.99799 10 7.68899 10 10.998V17.336C10 18.605 9.65501 19.85 9.00201 20.938L7.76599 22.999H24.234L22.998 20.938C22.345 19.85 22 18.605 22 17.336V10.998C22 10.2787 21.8729 9.58867 21.6399 8.9491C22.3246 8.839 22.9513 8.55508 23.4731 8.14403C23.8135 9.03143 24 9.99435 24 11V17.338C24 18.244 24.246 19.134 24.712 19.91L26.857 23.485C27.043 23.795 27.048 24.18 26.87 24.493C26.693 24.807 26.36 25 26 25H19.993C19.956 27.175 18.182 28.933 16 28.933C13.818 28.933 12.044 27.174 12.007 25H6C5.64 25 5.307 24.806 5.13 24.493C4.953 24.179 4.95701 23.795 5.14301 23.485L7.28799 19.91C7.75299 19.134 8 18.244 8 17.338V11C8 6.589 11.589 3 16 3ZM16 26.932C14.92 26.932 14.043 26.07 14.007 24.999H17.993C17.957 26.07 17.08 26.932 16 26.932Z" fill="black"/>
<path d="M21 7C22.1046 7 23 6.10457 23 5C23 3.89543 22.1046 3 21 3C19.8954 3 19 3.89543 19 5C19 6.10457 19.8954 7 21 7Z" fill="black"/>
</svg>
