<svg width="32" height="32" viewBox="0 0 32 32" fill="none" xmlns="http://www.w3.org/2000/svg">
<path d="M27.9955 13.458C28.3086 12.5151 28.4169 11.5164 28.3131 10.5284C28.2094 9.54038 27.896 8.58589 27.3939 7.72869C26.6495 6.43301 25.5129 5.4072 24.1479 4.79914C22.783 4.19107 21.2602 4.03217 19.7991 4.34535C18.969 3.42201 17.9106 2.73333 16.7301 2.3485C15.5497 1.96366 14.2887 1.89621 13.0739 2.15293C11.8592 2.40964 10.7333 2.98147 9.80948 3.811C8.88564 4.64052 8.19633 5.69854 7.81079 6.87877C6.8374 7.07837 5.91782 7.48344 5.11352 8.06689C4.30921 8.65035 3.6387 9.39876 3.1468 10.2621C2.39434 11.5556 2.07275 13.0549 2.22851 14.5432C2.38427 16.0316 3.00932 17.4318 4.01329 18.5415C3.69906 19.4838 3.5897 20.4824 3.69251 21.4704C3.79532 22.4585 4.10794 23.4131 4.60945 24.2706C5.35477 25.5668 6.49236 26.5928 7.85828 27.2009C9.2242 27.8089 10.7479 27.9676 12.2098 27.6541C12.8693 28.3967 13.6796 28.9901 14.5867 29.3947C15.4937 29.7992 16.4767 30.0056 17.4699 30C18.9674 30.0014 20.4267 29.5268 21.637 28.6449C22.8474 27.763 23.7461 26.5192 24.2036 25.0932C25.1769 24.8933 26.0963 24.4881 26.9006 23.9046C27.7049 23.3212 28.3754 22.5729 28.8676 21.7098C29.6112 20.4182 29.9272 18.9245 29.7706 17.4424C29.614 15.9603 28.9926 14.5656 27.9955 13.458ZM17.4699 28.1674C16.2434 28.1693 15.0553 27.7395 14.1141 26.9531L14.2796 26.8593L19.8543 23.6414C19.993 23.5601 20.1082 23.444 20.1886 23.3046C20.2689 23.1653 20.3116 23.0074 20.3124 22.8466V14.9869L22.6691 16.3502C22.6808 16.3561 22.6908 16.3647 22.6985 16.3753C22.7063 16.3858 22.7114 16.398 22.7134 16.4109V22.9239C22.7105 24.3137 22.1571 25.6457 21.1744 26.6284C20.1916 27.6111 18.8596 28.1645 17.4699 28.1674ZM6.19904 23.3544C5.58394 22.2923 5.36309 21.0473 5.57534 19.8385L5.741 19.9379L11.3212 23.1557C11.4592 23.2368 11.6164 23.2795 11.7765 23.2795C11.9366 23.2795 12.0938 23.2368 12.2319 23.1557L19.0485 19.2258V21.947C19.0478 21.9611 19.044 21.9748 19.0373 21.9873C19.0306 21.9997 19.0212 22.0104 19.0097 22.0187L13.3633 25.2752C12.1583 25.9694 10.727 26.157 9.38381 25.7969C8.04059 25.4368 6.89517 24.5583 6.19904 23.3544ZM4.7309 11.2115C5.35027 10.1426 6.32787 9.32729 7.49065 8.90994V15.5333C7.48855 15.6933 7.52944 15.851 7.60904 15.9898C7.68864 16.1286 7.80404 16.2436 7.9432 16.3226L14.7267 20.2359L12.3699 21.5992C12.3571 21.606 12.3429 21.6095 12.3285 21.6095C12.314 21.6095 12.2998 21.606 12.2871 21.5992L6.6517 18.3483C5.44894 17.6511 4.57148 16.5057 4.21146 15.1629C3.85145 13.8201 4.03823 12.3894 4.7309 11.184V11.2115ZM24.0933 15.71L17.2877 11.758L19.639 10.4C19.6518 10.3932 19.666 10.3897 19.6805 10.3897C19.6949 10.3897 19.7091 10.3932 19.7219 10.4L25.3572 13.6565C26.2189 14.1537 26.9213 14.8857 27.3825 15.7671C27.8437 16.6486 28.0447 17.643 27.9619 18.6343C27.8792 19.6257 27.5161 20.573 26.9152 21.3658C26.3142 22.1585 25.5001 22.764 24.568 23.1114V16.488C24.5631 16.3283 24.5167 16.1725 24.4335 16.0361C24.3503 15.8997 24.2331 15.7874 24.0933 15.71ZM26.4391 12.183L26.2734 12.0836L20.7043 8.83819C20.5654 8.75666 20.4072 8.71368 20.2462 8.71368C20.0851 8.71368 19.9269 8.75666 19.788 8.83819L12.9771 12.768V10.047C12.9757 10.0331 12.978 10.0192 12.9838 10.0065C12.9897 9.99391 12.9988 9.98309 13.0103 9.97522L18.6456 6.72419C19.5093 6.22662 20.4968 5.98526 21.4927 6.02834C22.4885 6.07141 23.4515 6.39713 24.269 6.96741C25.0865 7.5377 25.7247 8.32896 26.1091 9.24865C26.4934 10.1684 26.6079 11.1785 26.4392 12.1609L26.4391 12.183ZM11.6909 17.0068L9.33422 15.6491C9.32243 15.642 9.31235 15.6324 9.30468 15.6209C9.29702 15.6095 9.29197 15.5965 9.28989 15.5829V9.08657C9.29118 8.08997 9.57617 7.11434 10.1115 6.27373C10.6469 5.43313 11.4105 4.7623 12.313 4.33968C13.2156 3.91706 14.2198 3.76011 15.2082 3.88718C16.1967 4.01425 17.1286 4.42009 17.8949 5.05725L17.7292 5.15117L12.1546 8.36884C12.0159 8.45021 11.9007 8.56627 11.8204 8.70563C11.74 8.84499 11.6974 9.00284 11.6965 9.16368L11.6909 17.0068ZM12.9714 14.2472L16.0071 12.4974L19.0485 14.2472V17.7465L16.0182 19.4962L12.977 17.7465L12.9714 14.2472Z" fill="black"/>
</svg>
