<svg width="32" height="32" viewBox="0 0 32 32" fill="none" xmlns="http://www.w3.org/2000/svg">
<path d="M28.6485 13.2763C28.9839 12.2662 29.0999 11.1961 28.9888 10.1375C28.8776 9.07892 28.5418 8.05626 28.0039 7.13783C27.2063 5.74961 25.9886 4.65053 24.5261 3.99903C23.0637 3.34754 21.4321 3.17729 19.8666 3.51284C18.9773 2.52354 17.8433 1.78568 16.5785 1.37336C15.3137 0.961036 13.9627 0.888769 12.6611 1.16382C11.3596 1.43886 10.1533 2.05154 9.1635 2.94032C8.17368 3.82909 7.43513 4.96267 7.02205 6.2272C5.97914 6.44106 4.99388 6.87506 4.13213 7.50019C3.27038 8.12532 2.55198 8.92718 2.02494 9.85219C1.21874 11.2381 0.874173 12.8445 1.04106 14.4391C1.20795 16.0337 1.87764 17.534 2.95332 18.7229C2.61665 19.7326 2.49947 20.8025 2.60963 21.8611C2.71978 22.9197 3.05473 23.9426 3.59206 24.8613C4.39061 26.25 5.60946 27.3493 7.07294 28.0008C8.53643 28.6523 10.169 28.8223 11.7353 28.4864C12.4419 29.2821 13.3101 29.9179 14.2819 30.3513C15.2538 30.7847 16.3069 31.0059 17.371 30.9999C18.9756 31.0014 20.5391 30.4929 21.8359 29.548C23.1326 28.6031 24.0956 27.2705 24.5858 25.7426C25.6285 25.5284 26.6137 25.0943 27.4754 24.4691C28.3371 23.844 29.0555 23.0423 29.5829 22.1175C30.3795 20.7337 30.7182 19.1333 30.5504 17.5454C30.3825 15.9574 29.7168 14.4631 28.6485 13.2763ZM17.371 29.0364C16.0569 29.0385 14.784 28.5779 13.7755 27.7354L13.9529 27.6349L19.9258 24.1872C20.0744 24.1 20.1978 23.9756 20.2839 23.8263C20.37 23.677 20.4157 23.5079 20.4166 23.3355V14.9144L22.9416 16.3752C22.9541 16.3815 22.9649 16.3907 22.9732 16.402C22.9814 16.4133 22.9869 16.4264 22.9891 16.4402V23.4184C22.986 24.9074 22.393 26.3346 21.3401 27.3875C20.2872 28.4404 18.8601 29.0332 17.371 29.0364ZM5.29518 23.8797C4.63615 22.7417 4.39953 21.4078 4.62694 20.1125L4.80444 20.219L10.7832 23.6668C10.9311 23.7536 11.0995 23.7993 11.271 23.7993C11.4426 23.7993 11.611 23.7536 11.7589 23.6668L19.0624 19.4562V22.3717C19.0617 22.3868 19.0576 22.4015 19.0504 22.4148C19.0432 22.4281 19.0332 22.4397 19.0209 22.4485L12.9712 25.9376C11.6801 26.6814 10.1466 26.8824 8.70744 26.4966C7.26827 26.1107 6.04104 25.1695 5.29518 23.8797ZM3.72219 10.8694C4.38579 9.72415 5.43322 8.85061 6.67906 8.40345V15.4999C6.67681 15.6714 6.72061 15.8403 6.8059 15.989C6.89119 16.1378 7.01483 16.2609 7.16393 16.3455L14.4319 20.5384L11.9068 21.999C11.8931 22.0063 11.8779 22.0101 11.8624 22.0101C11.8469 22.0101 11.8317 22.0063 11.818 21.999L5.78018 18.5159C4.49151 17.7689 3.55138 16.5417 3.16565 15.103C2.77992 13.6643 2.98004 12.1314 3.72219 10.8399V10.8694ZM24.4675 15.6892L17.1759 11.4549L19.6951 9.99994C19.7088 9.99269 19.724 9.98889 19.7395 9.98889C19.755 9.98889 19.7702 9.99269 19.7839 9.99994L25.8218 13.4891C26.7449 14.0217 27.4975 14.8061 27.9917 15.7504C28.4859 16.6948 28.7012 17.7603 28.6125 18.8224C28.5238 19.8846 28.1349 20.8996 27.491 21.749C26.8471 22.5983 25.9749 23.247 24.9761 23.6193V16.5228C24.9709 16.3516 24.9212 16.1848 24.8321 16.0386C24.7429 15.8925 24.6173 15.7721 24.4675 15.6892ZM26.9809 11.9103L26.8034 11.8038L20.8365 8.32657C20.6877 8.23923 20.5182 8.19318 20.3456 8.19318C20.1731 8.19318 20.0036 8.23923 19.8548 8.32657L12.5574 12.5371V9.62169C12.5559 9.60687 12.5583 9.5919 12.5646 9.57837C12.5708 9.56484 12.5806 9.55325 12.5929 9.54482L18.6308 6.06158C19.5562 5.52848 20.6142 5.26988 21.6812 5.31603C22.7481 5.36218 23.7799 5.71117 24.6558 6.32218C25.5317 6.9332 26.2155 7.78097 26.6273 8.76636C27.0391 9.75175 27.1617 10.834 26.981 11.8866L26.9809 11.9103ZM11.1793 17.0787L8.6543 15.6239C8.64167 15.6163 8.63086 15.606 8.62266 15.5938C8.61445 15.5815 8.60903 15.5676 8.6068 15.5531V8.5927C8.60819 7.52492 8.91353 6.4796 9.48711 5.57895C10.0607 4.67831 10.8788 3.95957 11.8458 3.50676C12.8129 3.05395 13.8888 2.88579 14.9479 3.02194C16.0069 3.15808 17.0054 3.59291 17.8264 4.27559L17.6489 4.37621L11.6762 7.8237C11.5275 7.91088 11.4041 8.03524 11.318 8.18455C11.232 8.33386 11.1862 8.50299 11.1853 8.67532L11.1793 17.0787ZM12.5513 14.1219L15.8038 12.2472L19.0624 14.1219V17.8712L15.8157 19.7458L12.5573 17.8712L12.5513 14.1219Z" fill="black"/>
</svg>
