<svg width="32" height="32" viewBox="0 0 32 32" fill="none" xmlns="http://www.w3.org/2000/svg">
<path d="M15.8973 1C12.4199 1.02368 9.05867 2.25493 6.38876 4.48312C3.71884 6.71131 1.90611 9.79797 1.26065 13.2151C0.6152 16.6322 1.17714 20.1674 2.85033 23.216C4.52353 26.2645 7.20401 28.637 10.4332 29.9275C10.2162 28.5072 10.2162 27.0622 10.4332 25.6419L12.201 18.1422C11.9213 17.463 11.7827 16.7339 11.7939 15.9994C11.7939 13.9209 13.0046 12.3567 14.5045 12.3567C14.7762 12.3526 15.0456 12.4073 15.2942 12.517C15.5429 12.6268 15.7648 12.789 15.9449 12.9925C16.125 13.196 16.259 13.436 16.3377 13.6961C16.4164 13.9562 16.4379 14.2303 16.4009 14.4995C16.4009 15.7852 15.5866 17.7136 15.1581 19.4922C15.0658 19.8238 15.0548 20.1728 15.1261 20.5097C15.1973 20.8465 15.3486 21.1612 15.5673 21.4271C15.7859 21.693 16.0654 21.9023 16.3821 22.0374C16.6987 22.1724 17.0433 22.2291 17.3865 22.2028C20.0436 22.2028 22.1006 19.385 22.1006 15.3352C22.1274 14.5122 21.9823 13.6927 21.6746 12.929C21.3669 12.1653 20.9034 11.474 20.3137 10.8994C19.7239 10.3248 19.0209 9.87943 18.2495 9.59169C17.478 9.30396 16.655 9.18018 15.833 9.22826C14.9554 9.19056 14.0793 9.33133 13.2578 9.64205C12.4362 9.95276 11.6862 10.427 11.0531 11.0359C10.4201 11.6449 9.91726 12.376 9.57499 13.185C9.23271 13.9939 9.05815 14.8639 9.06185 15.7423C9.04994 16.966 9.42491 18.1621 10.1332 19.16C10.1847 19.2173 10.2214 19.2863 10.2401 19.361C10.2588 19.4357 10.2589 19.5138 10.2404 19.5886C10.1225 20.06 9.8654 21.0885 9.82254 21.2921C9.77968 21.4956 9.59755 21.6242 9.31899 21.4956C7.44406 20.6171 6.27625 17.8851 6.27625 15.678C6.27625 10.9532 9.7154 6.60336 16.1866 6.60336C21.3828 6.60336 25.4327 10.3104 25.4327 15.2709C25.4327 20.435 22.2185 24.592 17.6437 24.592C16.973 24.6153 16.3071 24.4707 15.7065 24.1713C15.1059 23.872 14.5896 23.4273 14.2045 22.8777L13.2724 26.4455C12.8256 27.832 12.1988 29.1539 11.4082 30.3775C12.865 30.808 14.3783 31.0175 15.8973 30.9989C19.8754 30.9989 23.6906 29.4186 26.5035 26.6056C29.3164 23.7927 30.8967 19.9775 30.8967 15.9994C30.8967 12.0213 29.3164 8.20617 26.5035 5.39323C23.6906 2.58029 19.8754 1 15.8973 1" fill="black"/>
</svg>
