<svg width="32" height="32" viewBox="0 0 32 32" fill="none" xmlns="http://www.w3.org/2000/svg">
<path d="M10.2554 26.8932H4.88169C4.77375 26.8931 4.66709 26.8697 4.56906 26.8245C4.47102 26.7793 4.38393 26.7135 4.31376 26.6314C4.2436 26.5494 4.19202 26.4532 4.16258 26.3493C4.13313 26.2455 4.12652 26.1365 4.14319 26.0298L7.76802 3.05117C7.86369 2.44567 8.38636 2 8.99769 2H17.701C20.6994 2 23.042 2.6335 24.3394 4.11167C25.5177 5.45333 25.8607 6.935 25.52 9.11317C25.4932 9.28 25.4652 9.44917 25.4302 9.623C24.2834 15.5147 20.3564 17.5528 15.342 17.5528H12.787C12.1757 17.5528 11.6577 17.9985 11.562 18.6028L10.2554 26.8932ZM26.759 10.0698C26.5495 9.83147 26.3117 9.61952 26.0509 9.43867C26.0357 9.52733 26.0205 9.64283 26.003 9.735C24.918 15.3093 21.3305 18.1362 15.342 18.1362H12.787C12.6299 18.1364 12.4781 18.1928 12.3591 18.2954C12.2401 18.3979 12.1618 18.5397 12.1384 18.695L10.7535 27.4765H10.1632L9.88319 29.2452C9.86851 29.3385 9.87425 29.4339 9.89999 29.5247C9.92574 29.6156 9.97089 29.6998 10.0323 29.7716C10.0938 29.8433 10.17 29.9009 10.2559 29.9404C10.3417 29.9798 10.4351 30.0001 10.5295 30H15.0585C15.5952 30 16.0502 29.6103 16.1342 29.0807C16.2042 28.7773 17.0209 23.42 17.0862 23.1423C17.1263 22.8857 17.257 22.652 17.4545 22.4834C17.652 22.3148 17.9033 22.2224 18.163 22.223H18.8397C23.2264 22.223 26.6622 20.4403 27.6655 15.286C28.0855 13.1312 27.8685 11.3333 26.759 10.0698Z" fill="black"/>
</svg>
