<svg width="32" height="32" viewBox="0 0 32 32" fill="none" xmlns="http://www.w3.org/2000/svg">
<path d="M7 20C6.44772 20 6 20.4477 6 21V23C6 23.5523 6.44772 24 7 24H25C25.5523 24 26 23.5523 26 23V21C26 20.4477 25.5523 20 25 20H7Z" fill="black"/>
<path fill-rule="evenodd" clip-rule="evenodd" d="M2 8C2 5.79086 3.79086 4 6 4H26C28.2091 4 30 5.79086 30 8V24C30 26.2091 28.2091 28 26 28H6C3.79086 28 2 26.2091 2 24V8ZM6 6H26C27.1046 6 28 6.89543 28 8V24C28 25.1046 27.1046 26 26 26H6C4.89543 26 4 25.1046 4 24V8C4 6.89543 4.89543 6 6 6Z" fill="black"/>
</svg>
