<svg width="32" height="32" viewBox="0 0 32 32" fill="none" xmlns="http://www.w3.org/2000/svg">
<path d="M7 18C8.10457 18 9 17.1046 9 16C9 14.8954 8.10457 14 7 14C5.89543 14 5 14.8954 5 16C5 17.1046 5.89543 18 7 18Z" fill="black"/>
<path d="M15 16C15 17.1046 14.1046 18 13 18C11.8954 18 11 17.1046 11 16C11 14.8954 11.8954 14 13 14C14.1046 14 15 14.8954 15 16Z" fill="black"/>
<path d="M19 18C20.1046 18 21 17.1046 21 16C21 14.8954 20.1046 14 19 14C17.8954 14 17 14.8954 17 16C17 17.1046 17.8954 18 19 18Z" fill="black"/>
<path fill-rule="evenodd" clip-rule="evenodd" d="M22 4C21.4477 4 21 4.44772 21 5C21 5.55228 21.4477 6 22 6H23V10H3C1.89543 10 1 10.8954 1 12V20C1 21.1046 1.89543 22 3 22H23V26H22C21.4477 26 21 26.4477 21 27C21 27.5523 21.4477 28 22 28H26C26.5523 28 27 27.5523 27 27C27 26.4477 26.5523 26 26 26H25V22H29C30.1046 22 31 21.1046 31 20V12C31 10.8954 30.1046 10 29 10H25V6H26C26.5523 6 27 5.55228 27 5C27 4.44772 26.5523 4 26 4H22ZM3 12H23V20H3V12ZM25 12H29V20H25V12Z" fill="black"/>
</svg>
