<svg width="32" height="32" viewBox="0 0 32 32" fill="none" xmlns="http://www.w3.org/2000/svg">
<path fill-rule="evenodd" clip-rule="evenodd" d="M21.7071 2.29289C21.3166 1.90237 20.6834 1.90237 20.2929 2.29289C19.9024 2.68342 19.9024 3.31658 20.2929 3.70711L20.3503 3.76447L7.8185 13.4043L7.70711 13.2929C7.31658 12.9024 6.68342 12.9024 6.29289 13.2929C5.90237 13.6834 5.90237 14.3166 6.29289 14.7071L11.0858 19.5L2.29289 28.2929C1.90237 28.6834 1.90237 29.3166 2.29289 29.7071C2.68342 30.0976 3.31658 30.0976 3.70711 29.7071L12.5 20.9142L17.2929 25.7071C17.6834 26.0976 18.3166 26.0976 18.7071 25.7071C19.0976 25.3166 19.0976 24.6834 18.7071 24.2929L18.5957 24.1815L28.2355 11.6497L28.2929 11.7071C28.6834 12.0976 29.3166 12.0976 29.7071 11.7071C30.0976 11.3166 30.0976 10.6834 29.7071 10.2929L21.7071 2.29289ZM26.8093 10.2235L21.7764 5.19066L9.24469 14.8305L17.1695 22.7553L26.8093 10.2235Z" fill="black"/>
</svg>
