<svg width="32" height="32" viewBox="0 0 32 32" fill="none" xmlns="http://www.w3.org/2000/svg">
<path d="M5 6C5 7.10457 4.10457 8 3 8C1.89543 8 1 7.10457 1 6C1 4.89543 1.89543 4 3 4C4.10457 4 5 4.89543 5 6Z" fill="black"/>
<path d="M5 14C5 15.1046 4.10457 16 3 16C1.89543 16 1 15.1046 1 14C1 12.8954 1.89543 12 3 12C4.10457 12 5 12.8954 5 14Z" fill="black"/>
<path d="M5 22C5 23.1046 4.10457 24 3 24C1.89543 24 1 23.1046 1 22C1 20.8954 1.89543 20 3 20C4.10457 20 5 20.8954 5 22Z" fill="black"/>
<path d="M13 6C13 7.10457 12.1046 8 11 8C9.89543 8 9 7.10457 9 6C9 4.89543 9.89543 4 11 4C12.1046 4 13 4.89543 13 6Z" fill="black"/>
<path d="M13 14C13 15.1046 12.1046 16 11 16C9.89543 16 9 15.1046 9 14C9 12.8954 9.89543 12 11 12C12.1046 12 13 12.8954 13 14Z" fill="black"/>
<path d="M21 6C21 7.10457 20.1046 8 19 8C17.8954 8 17 7.10457 17 6C17 4.89543 17.8954 4 19 4C20.1046 4 21 4.89543 21 6Z" fill="black"/>
<path d="M19 10C17.3432 10 16 11.3431 16 13V22.5858L14.2071 20.7929C12.9882 19.5739 11.0119 19.5739 9.79291 20.7929C8.57396 22.0118 8.57395 23.9882 9.79291 25.2071L12.2929 27.7071C12.6834 28.0976 13.3166 28.0976 13.7071 27.7071C14.0976 27.3166 14.0976 26.6834 13.7071 26.2929L11.2071 23.7929C10.7692 23.355 10.7692 22.645 11.2071 22.2071C11.645 21.7692 12.355 21.7692 12.7929 22.2071L16.2929 25.7071C16.5789 25.9931 17.009 26.0787 17.3827 25.9239C17.7564 25.7691 18 25.4045 18 25V13C18 12.4477 18.4477 12 19 12C19.5523 12 20 12.4477 20 13V20C20 20.5523 20.4477 21 21 21H26C27.6569 21 29 22.3431 29 24V27C29 27.5523 29.4477 28 30 28C30.5523 28 31 27.5523 31 27V24C31 21.2386 28.7614 19 26 19H22V13C22 11.3431 20.6569 10 19 10Z" fill="black"/>
</svg>
