<svg width="32" height="32" viewBox="0 0 32 32" fill="none" xmlns="http://www.w3.org/2000/svg">
<g id="AisPower">
<path id="Union" fill-rule="evenodd" clip-rule="evenodd" d="M17 5C17 4.44772 16.5523 4 16 4C15.4477 4 15 4.44772 15 5V13C15 13.5523 15.4477 14 16 14C16.5523 14 17 13.5523 17 13V5ZM21.0004 5.09113C20.4985 4.86078 19.9048 5.08096 19.6745 5.58291C19.4441 6.08486 19.6643 6.67851 20.1662 6.90886C23.6111 8.48972 26 11.9677 26 16.0014C26 21.5233 21.523 26 16 26C10.477 26 6 21.5233 6 16.0014C6 11.9677 8.38894 8.48972 11.8338 6.90886C12.3357 6.67851 12.5559 6.08486 12.3255 5.58291C12.0952 5.08096 11.5015 4.86078 10.9996 5.09113C6.87078 6.98588 4 11.1573 4 16.0014C4 22.6281 9.3727 28 16 28C22.6273 28 28 22.6281 28 16.0014C28 11.1573 25.1292 6.98588 21.0004 5.09113Z" fill="black"/>
</g>
</svg>
