<svg width="32" height="32" viewBox="0 0 32 32" fill="none" xmlns="http://www.w3.org/2000/svg">
<g id="AisPageFirst">
<g id="Vector">
<path d="M18.414 16L24.707 9.70701C25.098 9.31601 25.098 8.68401 24.707 8.29301C24.316 7.90201 23.684 7.90201 23.293 8.29301L16.293 15.293C15.902 15.684 15.902 16.316 16.293 16.707L23.293 23.707C23.488 23.902 23.744 24 24 24C24.256 24 24.512 23.902 24.707 23.707C25.098 23.316 25.098 22.684 24.707 22.293L18.414 16Z" fill="black"/>
<path d="M8 4C7.447 4 7 4.447 7 5V27C7 27.553 7.447 28 8 28C8.553 28 9 27.553 9 27V5C9 4.447 8.553 4 8 4Z" fill="black"/>
</g>
</g>
</svg>
