<svg width="32" height="32" viewBox="0 0 32 32" fill="none" xmlns="http://www.w3.org/2000/svg">
<path d="M9.70701 8.29301C9.31601 7.90201 8.68401 7.90201 8.29301 8.29301C7.90201 8.68401 7.90201 9.31601 8.29301 9.70701L14.586 16L8.29301 22.293C7.90201 22.684 7.90201 23.316 8.29301 23.707C8.48801 23.902 8.74401 24 9.00001 24C9.25601 24 9.51201 23.902 9.70701 23.707L16.707 16.707C17.098 16.316 17.098 15.684 16.707 15.293L9.70701 8.29301Z" fill="black"/>
<path d="M24 4C23.447 4 23 4.447 23 5V27C23 27.553 23.447 28 24 28C24.553 28 25 27.553 25 27V5C25 4.447 24.553 4 24 4Z" fill="black"/>
</svg>
