<svg width="32" height="32" viewBox="0 0 32 32" fill="none" xmlns="http://www.w3.org/2000/svg">
<path d="M27.9422 17.1762C28.2144 14.4133 27.5201 11.6415 25.9777 9.33316C24.4352 7.02478 22.1402 5.32263 19.4834 4.51672C16.8267 3.71081 13.9728 3.85102 11.4078 4.91345C8.84289 5.97588 6.72569 7.8948 5.41697 10.3432C4.10825 12.7917 3.68898 15.6182 4.2306 18.3411C4.77222 21.064 6.24122 23.5149 8.3873 25.2761C10.5334 27.0374 13.2238 28 16 28C16.5523 28 17 28.4477 17 29C17 29.5523 16.5523 30 16 30C12.761 30 9.62228 28.8769 7.11852 26.8222C4.61475 24.7674 2.90092 21.908 2.26903 18.7313C1.63714 15.5545 2.12628 12.257 3.65313 9.40045C5.17997 6.54393 7.65003 4.30519 10.6425 3.06569C13.6349 1.82619 16.9645 1.66261 20.064 2.60284C23.1635 3.54306 25.8411 5.52891 27.6406 8.22202C29.4401 10.9151 30.2501 14.1489 29.9326 17.3722C29.6551 20.1893 28.5315 22.8462 26.7239 25H29C29.5523 25 30 25.4477 30 26C30 26.5523 29.5523 27 29 27H25C23.8954 27 23 26.1046 23 25V21C23 20.4477 23.4477 20 24 20C24.5523 20 25 20.4477 25 21V23.9373C26.6618 22.0531 27.6947 19.689 27.9422 17.1762Z" fill="black"/>
<path fill-rule="evenodd" clip-rule="evenodd" d="M20 12V14.2783C20.303 14.4525 20.5548 14.7032 20.7303 15.0054C20.9059 15.3075 20.9989 15.6506 21 16V21C20.9994 21.5302 20.7884 22.0386 20.4135 22.4135C20.0386 22.7884 19.5302 22.9993 19 23H13C12.4698 22.9993 11.9615 22.7884 11.5865 22.4135C11.2116 22.0386 11.0007 21.5302 11 21V16C11.0012 15.6506 11.0942 15.3075 11.2697 15.0054C11.4452 14.7032 11.6971 14.4525 12 14.2783V12C12 10.9391 12.4214 9.92172 13.1716 9.17157C13.9217 8.42143 14.9391 8 16 8C17.0609 8 18.0783 8.42143 18.8284 9.17157C19.5786 9.92172 20 10.9391 20 12ZM17.4135 10.5865C17.0386 10.2116 16.5302 10.0007 16 10C15.4698 10.0007 14.9615 10.2116 14.5865 10.5865C14.2116 10.9614 14.0007 11.4698 14 12V14H18V12C17.9994 11.4698 17.7884 10.9614 17.4135 10.5865ZM13 16V21H19V16H13Z" fill="black"/>
</svg>
