<svg width="32" height="32" viewBox="0 0 32 32" fill="none" xmlns="http://www.w3.org/2000/svg">
<g id="AisPrint">
<path id="Vector" d="M27 9H25V6C25 4.897 24.103 4 23 4H9C7.897 4 7 4.897 7 6V9H5C3.346 9 2 10.346 2 12V20C2 21.654 3.346 23 5 23H7V26C7 27.103 7.897 28 9 28H23C24.103 28 25 27.103 25 26V23H27C28.654 23 30 21.654 30 20V12C30 10.346 28.654 9 27 9ZM9 6H23V9H9V6ZM23 26H9V16H23V26ZM28 20C28 20.552 27.551 21 27 21H25V16C25 14.897 24.103 14 23 14H9C7.897 14 7 14.897 7 16V21H5C4.449 21 4 20.552 4 20V12C4 11.448 4.449 11 5 11H27C27.551 11 28 11.448 28 12V20Z" fill="black"/>
</g>
</svg>
