<svg width="32" height="32" viewBox="0 0 32 32" fill="none" xmlns="http://www.w3.org/2000/svg">
<path d="M15.911 3C12.8972 3.02052 9.98418 4.08761 7.67026 6.0187C5.35633 7.9498 3.78529 10.6249 3.2259 13.5864C2.66651 16.5479 3.15352 19.6118 4.60362 22.2538C6.05372 24.8959 8.37681 26.952 11.1755 28.0705C10.9874 26.8396 10.9874 25.5872 11.1755 24.3563L12.7076 17.8566C12.4651 17.2679 12.345 16.6361 12.3547 15.9995C12.3547 14.1981 13.404 12.8425 14.7039 12.8425C14.9394 12.8389 15.1729 12.8863 15.3883 12.9814C15.6038 13.0765 15.7962 13.2171 15.9523 13.3935C16.1084 13.5698 16.2245 13.7779 16.2927 14.0033C16.3609 14.2287 16.3796 14.4662 16.3474 14.6996C16.3474 15.8138 15.6417 17.4852 15.2703 19.0265C15.1904 19.314 15.1809 19.6165 15.2426 19.9084C15.3043 20.2003 15.4355 20.473 15.625 20.7035C15.8144 20.9339 16.0567 21.1154 16.3311 21.2324C16.6056 21.3494 16.9042 21.3986 17.2017 21.3757C19.5044 21.3757 21.2872 18.9337 21.2872 15.4238C21.3104 14.7106 21.1846 14.0004 20.918 13.3385C20.6513 12.6766 20.2496 12.0775 19.7385 11.5795C19.2274 11.0815 18.6181 10.6955 17.9495 10.4461C17.2809 10.1968 16.5677 10.0895 15.8553 10.1312C15.0947 10.0985 14.3354 10.2205 13.6234 10.4898C12.9113 10.7591 12.2613 11.17 11.7127 11.6978C11.1641 12.2256 10.7283 12.8592 10.4317 13.5603C10.135 14.2614 9.98373 15.0154 9.98694 15.7767C9.97662 16.8372 10.3016 17.8738 10.9155 18.7387C10.9601 18.7883 10.9919 18.8481 11.0081 18.9128C11.0243 18.9776 11.0244 19.0453 11.0083 19.1101C10.9062 19.5187 10.6833 20.4101 10.6462 20.5865C10.6091 20.7629 10.4512 20.8743 10.2098 20.7629C8.58485 20.0015 7.57275 17.6337 7.57275 15.7209C7.57275 11.6261 10.5533 7.85624 16.1617 7.85624C20.6651 7.85624 24.175 11.069 24.175 15.3681C24.175 19.8436 21.3894 23.4464 17.4245 23.4464C16.8433 23.4666 16.2662 23.3413 15.7457 23.0818C15.2251 22.8224 14.7777 22.437 14.4439 21.9607L13.6361 25.0527C13.2488 26.2544 12.7057 27.4001 12.0204 28.4605C13.283 28.8336 14.5945 29.0152 15.911 28.999C19.3587 28.999 22.6652 27.6294 25.103 25.1915C27.5409 22.7537 28.9105 19.4472 28.9105 15.9995C28.9105 12.5518 27.5409 9.24535 25.103 6.80747C22.6652 4.36959 19.3587 3 15.911 3" fill="black"/>
</svg>
