<svg width="32" height="32" viewBox="0 0 32 32" fill="none" xmlns="http://www.w3.org/2000/svg">
<path d="M26 29H25.83C6.18 27.87 3.39 11.29 3 6.23C2.96858 5.83658 3.01509 5.44082 3.13688 5.06541C3.25866 4.69 3.45333 4.3423 3.70972 4.04225C3.96611 3.7422 4.27919 3.49569 4.63101 3.31684C4.98284 3.13799 5.3665 3.03032 5.76 3H11.27C11.6706 2.99961 12.062 3.11951 12.3936 3.34416C12.7253 3.56881 12.9818 3.88787 13.13 4.26L14.65 8C14.7964 8.36355 14.8327 8.76208 14.7544 9.14609C14.6762 9.5301 14.4869 9.88267 14.21 10.16L12.08 12.31C12.4127 14.2007 13.3182 15.9437 14.6739 17.303C16.0296 18.6622 17.7701 19.5723 19.66 19.91L21.83 17.76C22.1115 17.4862 22.4674 17.3013 22.8533 17.2283C23.2392 17.1554 23.638 17.1977 24 17.35L27.77 18.86C28.1365 19.0129 28.4492 19.2714 28.6683 19.6027C28.8873 19.9339 29.0028 20.3229 29 20.72V26C29 26.7956 28.6839 27.5587 28.1213 28.1213C27.5587 28.6839 26.7957 29 26 29Z" fill="black"/>
</svg>
