<svg width="32" height="32" viewBox="0 0 32 32" fill="none" xmlns="http://www.w3.org/2000/svg">
<path d="M8 19C8 18.4477 8.44772 18 9 18H13C13.5523 18 14 18.4477 14 19V19C14 19.5523 13.5523 20 13 20H9C8.44772 20 8 19.5523 8 19V19ZM8 23C8 22.4477 8.44772 22 9 22H17C17.5523 22 18 22.4477 18 23V23C18 23.5523 17.5523 24 17 24H9C8.44772 24 8 23.5523 8 23V23Z" fill="black"/>
<path d="M26 4H6C5.46977 4.00066 4.96145 4.21159 4.58652 4.58652C4.21159 4.96145 4.00066 5.46977 4 6V26C4.00066 26.5302 4.21159 27.0386 4.58652 27.4135C4.96145 27.7884 5.46977 27.9993 6 28H26C26.5302 27.9993 27.0386 27.7884 27.4135 27.4135C27.7884 27.0386 27.9993 26.5302 28 26V6C27.9993 5.46977 27.7884 4.96145 27.4135 4.58652C27.0386 4.21159 26.5302 4.00066 26 4ZM18 6V10H14V6H18ZM6 26V6H12V10C12 11.1046 12.8954 12 14 12H18C19.1046 12 20 11.1046 20 10V6H26L26.0012 26H6Z" fill="black"/>
</svg>
