<svg width="32" height="32" viewBox="0 0 32 32" fill="none" xmlns="http://www.w3.org/2000/svg">
<g id="AisProcessor">
<path id="Union" fill-rule="evenodd" clip-rule="evenodd" d="M9 3C9 2.44772 9.44772 2 10 2C10.5523 2 11 2.44772 11 3V7H13V3C13 2.44772 13.4477 2 14 2C14.5523 2 15 2.44772 15 3V7H17V3C17 2.44772 17.4477 2 18 2C18.5523 2 19 2.44772 19 3V7H21V3C21 2.44772 21.4477 2 22 2C22.5523 2 23 2.44772 23 3V7C24.1046 7 25 7.89543 25 9H29C29.5523 9 30 9.44772 30 10C30 10.5523 29.5523 11 29 11H25V13H29C29.5523 13 30 13.4477 30 14C30 14.5523 29.5523 15 29 15H25V17H29C29.5523 17 30 17.4477 30 18C30 18.5523 29.5523 19 29 19H25V21H29C29.5523 21 30 21.4477 30 22C30 22.5523 29.5523 23 29 23H25C25 24.1046 24.1046 25 23 25V29C23 29.5523 22.5523 30 22 30C21.4477 30 21 29.5523 21 29V25H19V29C19 29.5523 18.5523 30 18 30C17.4477 30 17 29.5523 17 29V25H15V29C15 29.5523 14.5523 30 14 30C13.4477 30 13 29.5523 13 29V25H11V29C11 29.5523 10.5523 30 10 30C9.44772 30 9 29.5523 9 29V25C7.89543 25 7 24.1046 7 23H3C2.44772 23 2 22.5523 2 22C2 21.4477 2.44772 21 3 21H7V19H3C2.44772 19 2 18.5523 2 18C2 17.4477 2.44772 17 3 17H7V15H3C2.44772 15 2 14.5523 2 14C2 13.4477 2.44772 13 3 13H7V11H3C2.44772 11 2 10.5523 2 10C2 9.44771 2.44772 9 3 9H7C7 7.89543 7.89543 7 9 7V3ZM23 9H9V23H23V9Z" fill="black"/>
</g>
</svg>
