<svg width="32" height="32" viewBox="0 0 32 32" fill="none" xmlns="http://www.w3.org/2000/svg">
<path d="M10.7071 14.7071C11.0976 14.3166 11.0976 13.6834 10.7071 13.2929C10.3166 12.9024 9.68342 12.9024 9.29289 13.2929L8 14.5858L6.70711 13.2929C6.31658 12.9024 5.68342 12.9024 5.29289 13.2929C4.90237 13.6834 4.90237 14.3166 5.29289 14.7071L6.58579 16L5.29289 17.2929C4.90237 17.6834 4.90237 18.3166 5.29289 18.7071C5.68342 19.0976 6.31658 19.0976 6.70711 18.7071L8 17.4142L9.29289 18.7071C9.68342 19.0976 10.3166 19.0976 10.7071 18.7071C11.0976 18.3166 11.0976 17.6834 10.7071 17.2929L9.41421 16L10.7071 14.7071Z" fill="black"/>
<path d="M18.7071 13.2929C19.0976 13.6834 19.0976 14.3166 18.7071 14.7071L17.4142 16L18.7071 17.2929C19.0976 17.6834 19.0976 18.3166 18.7071 18.7071C18.3166 19.0976 17.6834 19.0976 17.2929 18.7071L16 17.4142L14.7071 18.7071C14.3166 19.0976 13.6834 19.0976 13.2929 18.7071C12.9024 18.3166 12.9024 17.6834 13.2929 17.2929L14.5858 16L13.2929 14.7071C12.9024 14.3166 12.9024 13.6834 13.2929 13.2929C13.6834 12.9024 14.3166 12.9024 14.7071 13.2929L16 14.5858L17.2929 13.2929C17.6834 12.9024 18.3166 12.9024 18.7071 13.2929Z" fill="black"/>
<path d="M22 17C21.4477 17 21 17.4477 21 18C21 18.5523 21.4477 19 22 19H26C26.5523 19 27 18.5523 27 18C27 17.4477 26.5523 17 26 17H22Z" fill="black"/>
<path fill-rule="evenodd" clip-rule="evenodd" d="M1 13C1 10.7909 2.79086 9 5 9H27C29.2091 9 31 10.7909 31 13V19C31 21.2091 29.2091 23 27 23H5C2.79086 23 1 21.2091 1 19V13ZM5 11H27C28.1046 11 29 11.8954 29 13V19C29 20.1046 28.1046 21 27 21H5C3.89543 21 3 20.1046 3 19V13C3 11.8954 3.89543 11 5 11Z" fill="black"/>
</svg>
