<svg width="32" height="32" viewBox="0 0 32 32" fill="none" xmlns="http://www.w3.org/2000/svg">
<g id="AisPencil">
<path id="Vector" d="M28.707 8.29301L24.707 4.29301C24.316 3.90201 23.684 3.90201 23.293 4.29301L21 6.58601L18.707 4.29301C18.316 3.90201 17.684 3.90201 17.293 4.29301L13.293 8.29301C12.902 8.68401 12.902 9.31601 13.293 9.70701C13.684 10.098 14.316 10.098 14.707 9.70701L18 6.41401L19.586 8.00001L6.29303 21.293C6.15303 21.433 6.05902 21.61 6.02002 21.804L5.02002 26.804C4.95502 27.132 5.05703 27.471 5.29303 27.707C5.48203 27.896 5.737 28 6 28C6.065 28 6.13098 27.993 6.19598 27.98L11.196 26.98C11.389 26.941 11.567 26.846 11.707 26.707L28.707 9.70701C29.098 9.31601 29.098 8.68401 28.707 8.29301V8.29301ZM10.507 25.079L7.27502 25.725L7.92102 22.493L21 9.41401L23.586 12L10.507 25.079ZM25 10.586L22.414 8.00001L24 6.41401L26.586 9.00001L25 10.586Z" fill="black"/>
</g>
</svg>
