<svg width="32" height="32" viewBox="0 0 32 32" fill="none" xmlns="http://www.w3.org/2000/svg">
<path d="M7 28C6.73478 28 6.48043 27.8947 6.29289 27.7071C6.10536 27.5196 6 27.2652 6 27V5.00001C5.99999 4.82623 6.04526 4.65545 6.13136 4.50449C6.21746 4.35354 6.34141 4.22763 6.491 4.13917C6.64058 4.05072 6.81064 4.00277 6.9844 4.00006C7.15816 3.99735 7.32963 4.03997 7.4819 4.12371L27.4819 15.1237C27.6388 15.21 27.7697 15.3368 27.8608 15.491C27.952 15.6451 28 15.8209 28 16C28 16.179 27.952 16.3548 27.8608 16.509C27.7697 16.6631 27.6388 16.7899 27.4819 16.8762L7.4819 27.8762C7.33425 27.9574 7.1685 28 7 28Z" fill="black"/>
</svg>
