<svg width="32" height="32" viewBox="0 0 32 32" fill="none" xmlns="http://www.w3.org/2000/svg">
<path d="M28.9333 19.2018C29.4667 19.6018 29.4667 20.4018 28.9333 20.8018L23.6 24.8018C22.9408 25.2962 22 24.8259 22 24.0018L22 16.0018C22 15.1778 22.9408 14.7074 23.6 15.2018L28.9333 19.2018Z" fill="black"/>
<path fill-rule="evenodd" clip-rule="evenodd" d="M4 5C3.44772 5 3 5.44772 3 6C3 6.55228 3.44772 7 4 7H28C28.5523 7 29 6.55228 29 6C29 5.44772 28.5523 5 28 5H4ZM4 9C3.44772 9 3 9.44772 3 10C3 10.5523 3.44772 11 4 11H28C28.5523 11 29 10.5523 29 10C29 9.44772 28.5523 9 28 9H4ZM3 14C3 13.4477 3.44772 13 4 13H18C18.5523 13 19 13.4477 19 14C19 14.5523 18.5523 15 18 15H4C3.44772 15 3 14.5523 3 14ZM4 17C3.44772 17 3 17.4477 3 18C3 18.5523 3.44772 19 4 19H18C18.5523 19 19 18.5523 19 18C19 17.4477 18.5523 17 18 17H4ZM3 22C3 21.4477 3.44772 21 4 21H18C18.5523 21 19 21.4477 19 22C19 22.5523 18.5523 23 18 23H4C3.44772 23 3 22.5523 3 22ZM4 25C3.44772 25 3 25.4477 3 26C3 26.5523 3.44772 27 4 27H18C18.5523 27 19 26.5523 19 26C19 25.4477 18.5523 25 18 25H4Z" fill="black"/>
</svg>
