<svg width="32" height="32" viewBox="0 0 32 32" fill="none" xmlns="http://www.w3.org/2000/svg">
<path d="M11 10C10.4477 10 10 10.4477 10 11C10 11.5523 10.4477 12 11 12H21C21.5523 12 22 11.5523 22 11C22 10.4477 21.5523 10 21 10H11Z" fill="black"/>
<path d="M10 15C10 14.4477 10.4477 14 11 14H21C21.5523 14 22 14.4477 22 15C22 15.5523 21.5523 16 21 16H11C10.4477 16 10 15.5523 10 15Z" fill="black"/>
<path d="M13 18C12.4477 18 12 18.4477 12 19C12 19.5523 12.4477 20 13 20H19C19.5523 20 20 19.5523 20 19C20 18.4477 19.5523 18 19 18H13Z" fill="black"/>
<path d="M14 7C14 6.44772 14.4477 6 15 6H17C17.5523 6 18 6.44772 18 7C18 7.55228 17.5523 8 17 8H15C14.4477 8 14 7.55228 14 7Z" fill="black"/>
<path d="M11 24C10.4477 24 10 24.4477 10 25C10 25.5523 10.4477 26 11 26H21C21.5523 26 22 25.5523 22 25C22 24.4477 21.5523 24 21 24H11Z" fill="black"/>
<path fill-rule="evenodd" clip-rule="evenodd" d="M10 2C7.79086 2 6 3.79086 6 6V7C3.79086 7 2 8.79086 2 11V21C2 23.2091 3.79086 25 6 25V26C6 28.2091 7.79086 30 10 30H22C24.2091 30 26 28.2091 26 26V25C28.2091 25 30 23.2091 30 21V11C30 8.79086 28.2091 7 26 7V6C26 3.79086 24.2091 2 22 2H10ZM22 4H10C8.89543 4 8 4.89543 8 6V26C8 27.1046 8.89543 28 10 28H22C23.1046 28 24 27.1046 24 26V6C24 4.89543 23.1046 4 22 4ZM4 11C4 9.89543 4.89543 9 6 9V23C4.89543 23 4 22.1046 4 21V11ZM28 21C28 22.1046 27.1046 23 26 23V9C27.1046 9 28 9.89543 28 11V21Z" fill="black"/>
</svg>
