<svg width="32" height="32" viewBox="0 0 32 32" fill="none" xmlns="http://www.w3.org/2000/svg">
<g id="AisPhone">
<path id="Union" fill-rule="evenodd" clip-rule="evenodd" d="M3 13V5.00101C3 4.52401 3.33702 4.114 3.80402 4.021L8.80402 3.021C9.26902 2.923 9.73501 3.17401 9.91901 3.60801L12.919 10.608C13.109 11.05 12.956 11.566 12.555 11.834L10.0153 13.5272C10.279 18.0722 13.9303 21.7226 18.4757 21.9849L20.169 19.445C20.438 19.044 20.956 18.891 21.395 19.081L28.395 22.081C28.83 22.268 29.075 22.732 28.982 23.196L27.982 28.196C27.888 28.663 27.478 29 27.002 29H19.0088L19 29C10.178 29 3 21.822 3 13ZM8.4665 12.1537L10.753 10.629L8.40002 5.14002L5 5.82001V13C5 20.7172 11.2754 26.9954 18.9915 27L19 27H26.181L26.861 23.6L21.372 21.247L19.833 23.555C19.7173 23.7284 19.5568 23.8541 19.377 23.9267C19.2607 23.974 19.1334 24 19 24C12.9468 24 8.01918 19.0842 8.00006 13.0353C7.99087 12.7717 8.08632 12.5094 8.27358 12.3122C8.33088 12.2517 8.39568 12.1984 8.4665 12.1537Z" fill="black"/>
</g>
</svg>
