<svg width="32" height="32" viewBox="0 0 32 32" fill="none" xmlns="http://www.w3.org/2000/svg">
<path d="M26 7C26 6.44772 25.5523 6 25 6H23C22.4477 6 22 6.44772 22 7V9C22 9.55228 22.4477 10 23 10H25C25.5523 10 26 9.55228 26 9V7Z" fill="black"/>
<path fill-rule="evenodd" clip-rule="evenodd" d="M30 13C30 13.5523 29.5523 14 29 14H19C18.4477 14 18 13.5523 18 13V3C18 2.44772 18.4477 2 19 2H29C29.5523 2 30 2.44772 30 3V13ZM20 11C20 11.5523 20.4477 12 21 12H27C27.5523 12 28 11.5523 28 11V5C28 4.44772 27.5523 4 27 4H21C20.4477 4 20 4.44772 20 5V11Z" fill="black"/>
<path d="M6 23C6 22.4477 6.44772 22 7 22H9C9.55228 22 10 22.4477 10 23V25C10 25.5523 9.55228 26 9 26H7C6.44772 26 6 25.5523 6 25V23Z" fill="black"/>
<path fill-rule="evenodd" clip-rule="evenodd" d="M2 29C2 29.5523 2.44772 30 3 30H13C13.5523 30 14 29.5523 14 29V19C14 18.4477 13.5523 18 13 18H3C2.44772 18 2 18.4477 2 19V29ZM12 27C12 27.5523 11.5523 28 11 28H5C4.44772 28 4 27.5523 4 27V21C4 20.4477 4.44772 20 5 20H11C11.5523 20 12 20.4477 12 21V27Z" fill="black"/>
<path d="M28 26H29C29.5523 26 30 26.4477 30 27V29C30 29.5523 29.5523 30 29 30H27C26.4477 30 26 29.5523 26 29V28H27C27.5523 28 28 27.5523 28 27V26Z" fill="black"/>
<path d="M26 26H28V22H29C29.5523 22 30 21.5523 30 21V19C30 18.4477 29.5523 18 29 18H27C26.4477 18 26 18.4477 26 19C26 19.5523 26.4477 20 27 20C27.5523 20 28 20.4477 28 21V22H27C26.4477 22 26 22.4477 26 23V26Z" fill="black"/>
<path d="M24 26H26V28H25C24.4477 28 24 27.5523 24 27V26Z" fill="black"/>
<path d="M20 26H24V21C24 20.4477 23.5523 20 23 20H22V19C22 18.4477 21.5523 18 21 18H19C18.4477 18 18 18.4477 18 19C18 19.5523 18.4477 20 19 20H22V23C22 23.5523 21.5523 24 21 24H20V23C20 22.4477 19.5523 22 19 22C18.4477 22 18 22.4477 18 23C18 23.5523 18.4477 24 19 24H20V26Z" fill="black"/>
<path d="M20 26V27C20 27.5523 20.4477 28 21 28C21.5523 28 22 28.4477 22 29C22 29.5523 21.5523 30 21 30H19C18.4477 30 18 29.5523 18 29V27C18 26.4477 18.4477 26 19 26H20Z" fill="black"/>
<path d="M6 7C6 6.44772 6.44772 6 7 6H9C9.55228 6 10 6.44772 10 7V9C10 9.55228 9.55228 10 9 10H7C6.44772 10 6 9.55228 6 9V7Z" fill="black"/>
<path fill-rule="evenodd" clip-rule="evenodd" d="M2 13C2 13.5523 2.44772 14 3 14H13C13.5523 14 14 13.5523 14 13V3C14 2.44772 13.5523 2 13 2H3C2.44772 2 2 2.44772 2 3V13ZM12 11C12 11.5523 11.5523 12 11 12H5C4.44772 12 4 11.5523 4 11V5C4 4.44772 4.44772 4 5 4H11C11.5523 4 12 4.44772 12 5V11Z" fill="black"/>
</svg>
