<svg width="32" height="32" viewBox="0 0 32 32" fill="none" xmlns="http://www.w3.org/2000/svg">
<path d="M23.5 22H8.49998C6.89639 21.9898 5.35315 21.3873 4.16697 20.3081C2.98079 19.2289 2.2354 17.7494 2.07411 16.1539C1.91282 14.5584 2.34702 12.9596 3.29323 11.6649C4.23944 10.3701 5.63086 9.47088 7.19998 9.14C7.63169 7.12652 8.74082 5.32197 10.3423 4.02747C11.9438 2.73296 13.9407 2.02679 16 2.02679C18.0592 2.02679 20.0562 2.73296 21.6577 4.02747C23.2591 5.32197 24.3683 7.12652 24.8 9.14C26.3691 9.47088 27.7605 10.3701 28.7067 11.6649C29.6529 12.9596 30.0871 14.5584 29.9258 16.1539C29.7646 17.7494 29.0192 19.2289 27.833 20.3081C26.6468 21.3873 25.1036 21.9898 23.5 22ZM16 4C14.2936 4.0017 12.6466 4.62663 11.3686 5.75731C10.0906 6.88799 9.26962 8.44655 9.05998 10.14L8.99998 11H8.13998C6.94651 11.0477 5.82088 11.5676 5.01072 12.4453C4.20056 13.323 3.77224 14.4865 3.81998 15.68C3.86772 16.8735 4.38761 17.9991 5.26528 18.8093C6.14295 19.6194 7.30651 20.0477 8.49998 20H23.5C24.6935 20.0477 25.857 19.6194 26.7347 18.8093C27.6124 17.9991 28.1322 16.8735 28.18 15.68C28.2277 14.4865 27.7994 13.323 26.9892 12.4453C26.1791 11.5676 25.0535 11.0477 23.86 11H23L22.9 10.18C22.7002 8.48611 21.8889 6.92344 20.6184 5.78549C19.3478 4.64754 17.7056 4.01263 16 4ZM14 30C13.8431 30.0019 13.6883 29.964 13.55 29.89C13.3145 29.7701 13.136 29.5619 13.0535 29.3108C12.9711 29.0597 12.9914 28.7862 13.11 28.55L15.11 24.55C15.1628 24.4231 15.2413 24.3084 15.3405 24.2131C15.4397 24.1179 15.5575 24.0441 15.6864 23.9964C15.8154 23.9488 15.9529 23.9282 16.0902 23.936C16.2274 23.9439 16.3616 23.98 16.4844 24.042C16.6071 24.1041 16.7157 24.1907 16.8034 24.2967C16.8911 24.4026 16.956 24.5255 16.9941 24.6576C17.0321 24.7897 17.0425 24.9283 17.0246 25.0646C17.0067 25.201 16.9609 25.3322 16.89 25.45L14.89 29.45C14.8069 29.6149 14.6797 29.7536 14.5226 29.8507C14.3656 29.9478 14.1846 29.9994 14 30ZM20 30C19.8431 30.0019 19.6883 29.964 19.55 29.89C19.3145 29.7701 19.136 29.5619 19.0535 29.3108C18.9711 29.0597 18.9914 28.7862 19.11 28.55L21.11 24.55C21.1628 24.4231 21.2413 24.3084 21.3405 24.2131C21.4397 24.1179 21.5575 24.0441 21.6864 23.9964C21.8154 23.9488 21.9529 23.9282 22.0902 23.936C22.2274 23.9439 22.3616 23.98 22.4844 24.042C22.6071 24.1041 22.7157 24.1907 22.8034 24.2967C22.8911 24.4026 22.956 24.5255 22.9941 24.6576C23.0321 24.7897 23.0425 24.9283 23.0246 25.0646C23.0067 25.201 22.9609 25.3322 22.89 25.45L20.89 29.45C20.8069 29.6149 20.6797 29.7536 20.5226 29.8507C20.3656 29.9478 20.1846 29.9994 20 30ZM7.99998 30C7.8431 30.0019 7.6883 29.964 7.54998 29.89C7.31446 29.7701 7.13596 29.5619 7.05352 29.3108C6.97107 29.0597 6.99137 28.7862 7.10998 28.55L9.10998 24.55C9.16284 24.4231 9.24132 24.3084 9.34051 24.2131C9.4397 24.1179 9.55746 24.0441 9.68645 23.9964C9.81543 23.9488 9.95286 23.9282 10.0902 23.936C10.2274 23.9439 10.3616 23.98 10.4844 24.042C10.6071 24.1041 10.7157 24.1907 10.8034 24.2967C10.8911 24.4026 10.956 24.5255 10.9941 24.6576C11.0321 24.7897 11.0425 24.9283 11.0246 25.0646C11.0067 25.201 10.9609 25.3322 10.89 25.45L8.88998 29.45C8.80688 29.6149 8.67974 29.7536 8.52265 29.8507C8.36555 29.9478 8.18465 29.9994 7.99998 30Z" fill="black"/>
</svg>
