<svg width="32" height="32" viewBox="0 0 32 32" fill="none" xmlns="http://www.w3.org/2000/svg">
<g id="AisRefresh">
<g id="Vector">
<path d="M27 20H21C20.448 20 20 20.447 20 21C20 21.553 20.448 22 21 22H25.205C23.193 25.08 19.732 27 16 27C10.326 27 5.51501 22.571 5.04701 16.918C5.00201 16.367 4.52701 15.962 3.96801 16.003C3.41801 16.049 3.00901 16.532 3.05401 17.082C3.60701 23.766 9.29301 29 16 29C19.91 29 23.563 27.214 26 24.275V27C26 27.553 26.448 28 27 28C27.552 28 28 27.553 28 27V21C28 20.447 27.552 20 27 20Z" fill="black"/>
<path d="M16 3C12.09 3 8.43701 4.78601 6.00001 7.72501V5C6.00001 4.447 5.55201 4 5.00001 4C4.44801 4 4.00001 4.447 4.00001 5V11C4.00001 11.553 4.44801 12 5.00001 12H11C11.552 12 12 11.553 12 11C12 10.447 11.552 10 11 10H6.79501C8.80701 6.92 12.268 5 16 5C21.674 5 26.485 9.429 26.953 15.082C26.996 15.604 27.433 16 27.949 16C27.976 16 28.004 16 28.032 15.997C28.582 15.951 28.991 15.468 28.946 14.918C28.393 8.234 22.707 3 16 3Z" fill="black"/>
</g>
</g>
</svg>
