<svg width="32" height="32" viewBox="0 0 32 32" fill="none" xmlns="http://www.w3.org/2000/svg">
<path d="M21.3725 14.9617V21.635C21.3545 22.123 21.1642 22.5889 20.8353 22.9499C20.5063 23.3108 20.0601 23.5435 19.5759 23.6067H14.9092C14.5305 23.5788 14.1726 23.4225 13.8948 23.1637C13.6169 22.9049 13.4356 22.5591 13.3809 22.1833C13.3751 22.1135 13.3751 22.0432 13.3809 21.9733C13.3839 21.5515 13.5537 21.1479 13.8531 20.8507C14.1525 20.5534 14.5573 20.3867 14.9792 20.3867H17.0092C17.3186 20.3867 17.6153 20.2637 17.8341 20.045C18.0529 19.8262 18.1759 19.5294 18.1759 19.22V14.9967C18.1738 14.6065 18.3115 14.2285 18.564 13.931C18.8165 13.6335 19.1672 13.4363 19.5525 13.375H19.7509C19.9617 13.3719 20.1711 13.4106 20.367 13.4888C20.5628 13.567 20.7413 13.6832 20.892 13.8307C21.0428 13.9782 21.1628 14.1541 21.2453 14.3482C21.3278 14.5423 21.371 14.7508 21.3725 14.9617ZM13.8359 16.9917V12.8033C13.8359 12.4939 13.9588 12.1972 14.1776 11.9784C14.3964 11.7596 14.6931 11.6367 15.0025 11.6367H17.1609C17.5848 11.6367 17.9913 11.4683 18.291 11.1685C18.5908 10.8688 18.7592 10.4622 18.7592 10.0383C18.7648 9.97234 18.7648 9.90599 18.7592 9.84C18.6912 9.45147 18.4896 9.0989 18.1892 8.84326C17.8889 8.58762 17.5086 8.44498 17.1142 8.44H12.4942C12.0107 8.50055 11.5629 8.72646 11.227 9.07944C10.891 9.43242 10.6875 9.89074 10.6509 10.3767V17.0267C10.6509 17.4506 10.8192 17.8571 11.119 18.1569C11.4187 18.4566 11.8253 18.625 12.2492 18.625H12.4942C12.8751 18.5559 13.2191 18.3538 13.4648 18.0546C13.7106 17.7555 13.8421 17.3788 13.8359 16.9917ZM27.8359 11.9867V25.3333C27.696 26.5523 27.1364 27.6846 26.253 28.536C25.3696 29.3875 24.2174 29.9051 22.9942 30H14.1509C11.5012 29.9969 8.96103 28.9421 7.0885 27.0674C5.21597 25.1927 4.16418 22.6514 4.16418 20.0017V7.29667C4.16418 6.6011 4.30119 5.91234 4.56737 5.26972C4.83355 4.6271 5.2237 4.0432 5.71554 3.55136C6.20738 3.05952 6.79128 2.66937 7.4339 2.40318C8.07653 2.137 8.76528 2 9.46085 2H17.8375C20.4861 2 23.0263 3.05216 24.8992 4.92503C26.772 6.79789 27.8242 9.33804 27.8242 11.9867H27.8359ZM24.6392 11.9867C24.6361 10.1868 23.9197 8.46152 22.647 7.18882C21.3743 5.91611 19.6491 5.19975 17.8492 5.19667H9.46085C9.18464 5.19512 8.91087 5.24838 8.65539 5.35337C8.39991 5.45835 8.16779 5.61298 7.97248 5.80829C7.77717 6.0036 7.62254 6.23572 7.51755 6.4912C7.41257 6.74669 7.3593 7.02046 7.36085 7.29667V20.0017C7.37009 21.7975 8.08917 23.5168 9.36121 24.7845C10.6332 26.0521 12.355 26.7653 14.1509 26.7683H22.8309C23.2761 26.7118 23.6913 26.5133 24.0149 26.2023C24.3386 25.8913 24.5534 25.4843 24.6275 25.0417L24.6392 11.9867Z" fill="black"/>
</svg>
