<svg width="32" height="32" viewBox="0 0 32 32" fill="none" xmlns="http://www.w3.org/2000/svg">
<path d="M18.3053 12.675C15.7713 11.7347 14.39 11.0113 14.39 9.8645C14.39 8.895 15.1868 8.342 16.6078 8.342C19.206 8.342 21.8753 9.343 23.7128 10.2448L24.7512 3.83517C23.294 3.1375 20.3132 2 16.1925 2C13.2782 2 10.8538 2.763 9.12135 4.184C7.32001 5.6715 6.38318 7.824 6.38318 10.421C6.38318 15.1332 9.26135 17.141 13.9385 18.8432C16.9543 19.9165 17.9577 20.6795 17.9577 21.8567C17.9577 23 16.9777 23.6592 15.2113 23.6592C13.0238 23.6592 9.41885 22.5847 7.05635 21.1987L6.00635 27.6795C8.03751 28.8217 11.7825 30 15.6663 30C18.7475 30 21.3165 29.272 23.049 27.8848C24.9903 26.3623 25.9948 24.1095 25.9948 21.1975C25.9948 16.3815 23.0502 14.3713 18.3018 12.675H18.3053Z" fill="black"/>
</svg>
