<svg width="32" height="32" viewBox="0 0 32 32" fill="none" xmlns="http://www.w3.org/2000/svg">
<path d="M27 11C27 8.23858 24.7614 6 22 6H13C10.2386 6 8 8.23858 8 11V12.5858L10.2929 10.2929C10.6834 9.90237 11.3166 9.90237 11.7071 10.2929C12.0976 10.6834 12.0976 11.3166 11.7071 11.7071L7.70711 15.7071C7.31658 16.0976 6.68342 16.0976 6.29289 15.7071L2.29289 11.7071C1.90237 11.3166 1.90237 10.6834 2.29289 10.2929C2.68342 9.90237 3.31658 9.90237 3.70711 10.2929L6 12.5858V11C6 7.13401 9.13401 4 13 4H22C25.866 4 29 7.13401 29 11V18C29 18.5523 28.5523 19 28 19C27.4477 19 27 18.5523 27 18V11Z" fill="black"/>
<path d="M28 21C29.1046 21 30 21.8954 30 23C30 24.1046 29.1046 25 28 25C26.8954 25 26 24.1046 26 23C26 21.8954 26.8954 21 28 21Z" fill="black"/>
<path fill-rule="evenodd" clip-rule="evenodd" d="M12 22C12 19.7909 10.2091 18 8 18H6C3.79086 18 2 19.7909 2 22V24C2 26.2091 3.79086 28 6 28H8C10.2091 28 12 26.2091 12 24V22ZM8 20H6C4.89543 20 4 20.8954 4 22V24C4 25.1046 4.89543 26 6 26H8C9.10457 26 10 25.1046 10 24V22C10 20.8954 9.10457 20 8 20Z" fill="black"/>
</svg>
