<svg width="32" height="32" viewBox="0 0 32 32" fill="none" xmlns="http://www.w3.org/2000/svg">
<path fill-rule="evenodd" clip-rule="evenodd" d="M12.134 2.5C12.5189 1.83333 13.4811 1.83333 13.866 2.5L18.2811 10.1472C18.8396 10.0504 19.4139 10 20 10C25.5228 10 30 14.4772 30 20C30 25.5228 25.5228 30 20 30C14.6448 30 10.2728 25.7906 10.0123 20.5H3.47372C2.70392 20.5 2.2228 19.6667 2.6077 19L12.134 2.5ZM5.20577 18.5L13 5L20.7942 18.5H5.20577ZM12.0154 20.5C12.2735 24.6854 15.7496 28 20 28C24.4183 28 28 24.4183 28 20C28 15.5817 24.4183 12 20 12C19.7863 12 19.5746 12.0084 19.3652 12.0248L23.3923 19C23.7772 19.6667 23.2961 20.5 22.5263 20.5H12.0154Z" fill="black"/>
</svg>
