<svg width="32" height="32" viewBox="0 0 32 32" fill="none" xmlns="http://www.w3.org/2000/svg">
<path d="M10 20C12.2091 20 14 18.2091 14 16C14 13.7909 12.2091 12 10 12C7.79086 12 6 13.7909 6 16C6 18.2091 7.79086 20 10 20Z" fill="black"/>
<path fill-rule="evenodd" clip-rule="evenodd" d="M2 16C2 11.5817 5.58172 8 10 8H22C26.4183 8 30 11.5817 30 16C30 20.4183 26.4183 24 22 24H10C5.58172 24 2 20.4183 2 16ZM10 10H22C25.3137 10 28 12.6863 28 16C28 19.3137 25.3137 22 22 22H10C6.68629 22 4 19.3137 4 16C4 12.6863 6.68629 10 10 10Z" fill="black"/>
</svg>
