<svg width="32" height="32" viewBox="0 0 32 32" fill="none" xmlns="http://www.w3.org/2000/svg">
<path d="M6 4C5.44772 4 5 4.44772 5 5C5 5.55228 5.44772 6 6 6C17.0457 6 26 14.9543 26 26C26 26.5523 26.4477 27 27 27C27.5523 27 28 26.5523 28 26C28 13.8497 18.1503 4 6 4Z" fill="black"/>
<path d="M5 11C5 10.4477 5.44772 10 6 10C14.8366 10 22 17.1634 22 26C22 26.5523 21.5523 27 21 27C20.4477 27 20 26.5523 20 26C20 18.268 13.732 12 6 12C5.44772 12 5 11.5523 5 11Z" fill="black"/>
<path d="M6 16C5.44772 16 5 16.4477 5 17C5 17.5523 5.44772 18 6 18C10.4183 18 14 21.5817 14 26C14 26.5523 14.4477 27 15 27C15.5523 27 16 26.5523 16 26C16 20.4772 11.5228 16 6 16Z" fill="black"/>
<path d="M7 28C8.65685 28 10 26.6569 10 25C10 23.3431 8.65685 22 7 22C5.34315 22 4 23.3431 4 25C4 26.6569 5.34315 28 7 28Z" fill="black"/>
</svg>
