<svg width="32" height="32" viewBox="0 0 32 32" fill="none" xmlns="http://www.w3.org/2000/svg">
<path d="M3.61622 8C9.40114 8 22.2172 8.79124 30.7384 14.1674C31.0009 14.3362 31.0509 14.5049 30.9546 14.8162C30.9059 14.9599 28.2659 23.2411 28.2659 23.2411C28.1459 23.5998 27.9534 23.5998 27.7372 23.5998H1.47999C1.1675 23.5998 1 23.3848 1 23.1198V8.52749C1 8.215 1.21625 8.0475 1.57499 8.0475C2.10374 8.0475 2.77498 8 3.61622 8ZM3.97621 15.9436C3.49622 17.1199 4.8637 17.8399 6.06369 18.3924C7.04867 18.8236 7.74492 19.2799 7.47992 19.7836C7.31242 20.2161 6.59243 20.4086 5.63244 20.4086C4.79245 20.4086 3.73622 20.1436 2.89498 19.7599L2.41623 20.8161C3.04122 21.0798 4.26371 21.4648 5.3437 21.5123C7.33617 21.5598 8.65615 21.0798 9.1849 19.9761C9.71739 18.7561 8.46616 18.0886 7.28742 17.5224L7.17242 17.4661L6.99992 17.3836C6.01619 16.9524 5.3687 16.6874 5.53744 16.2086C5.70369 15.6324 6.68743 15.4162 7.57617 15.4637C8.00866 15.4637 8.31991 15.5124 8.72865 15.6324L9.04115 14.6237C8.60865 14.5274 8.24866 14.5037 7.71992 14.5037C5.94494 14.4562 4.35996 14.9362 3.97621 15.9436ZM20.9697 14.4312C19.2898 14.4312 17.7773 15.0074 16.8648 16.0161C16.8648 16.0636 16.8173 16.0636 16.7686 16.0636C16.7211 16.0636 16.7211 16.0636 16.7211 16.0161L17.201 14.5287H15.7848L14.2011 19.3036C13.7211 17.9124 12.6886 16.0161 11.4636 14.5287H9.95364L8.8499 18.0324C9.40239 18.4636 9.56989 18.7761 9.76239 19.1836C9.76239 19.1836 9.76239 19.2324 9.80989 19.2324C9.80989 19.2324 9.85739 19.2324 9.85739 19.1836C9.85739 19.1361 10.8424 16.1599 10.8424 16.1599C11.9558 17.75 12.8066 19.5087 13.3623 21.3686H14.9461L15.7386 18.8724C15.7386 18.8724 15.7386 18.8236 15.7861 18.8236C15.7861 18.8236 15.8348 18.8236 15.8348 18.8724C16.0498 20.4086 17.6348 21.4648 19.866 21.4648C21.2822 21.4648 22.6035 21.0798 22.9147 20.9361L23.7547 18.2961H26.9709L27.2834 17.2874H24.0185L24.5947 15.5837H28.4347L28.7947 14.5274H23.3697L21.5697 20.2161C21.1622 20.3123 20.6823 20.3361 20.2023 20.3361C19.146 20.3361 18.2585 20.0723 17.7773 19.4961C17.5915 19.2817 17.4579 19.027 17.3872 18.7522C17.3165 18.4774 17.3105 18.1899 17.3698 17.9124C17.586 16.4724 19.0023 15.5362 20.8985 15.5362C21.306 15.5362 21.691 15.5362 22.0985 15.6324L22.5072 14.5274C22.0747 14.4324 21.4985 14.4324 20.9697 14.4324V14.4312Z" fill="black"/>
</svg>
