<svg width="32" height="32" viewBox="0 0 32 32" fill="none" xmlns="http://www.w3.org/2000/svg">
<path d="M14.715 20.715L22.715 12.715C23.106 12.324 23.106 11.692 22.715 11.301C22.324 10.91 21.692 10.91 21.301 11.301L14.008 18.594L10.707 15.293C10.316 14.902 9.684 14.902 9.293 15.293C8.902 15.684 8.902 16.316 9.293 16.707L13.301 20.715C13.496 20.91 13.752 21.008 14.008 21.008C14.264 21.008 14.52 20.91 14.715 20.715Z" fill="black"/>
<path fill-rule="evenodd" clip-rule="evenodd" d="M29 16C29 23.1797 23.1797 29 16 29C8.8203 29 3 23.1797 3 16C3 8.8203 8.8203 3 16 3C23.1797 3 29 8.8203 29 16ZM27 16C27 22.0751 22.0751 27 16 27C9.92487 27 5 22.0751 5 16C5 9.92487 9.92487 5 16 5C22.0751 5 27 9.92487 27 16Z" fill="black"/>
</svg>
