<svg width="32" height="32" viewBox="0 0 32 32" fill="none" xmlns="http://www.w3.org/2000/svg">
<path fill-rule="evenodd" clip-rule="evenodd" d="M16 30C15.833 30 15.667 29.958 15.517 29.875C15.0988 29.645 5.50104 24.2535 5.01882 16.1937C4.97877 15.9922 5.00001 15.77 5.00001 15.565V4.13002C5.00001 3.62102 5.38201 3.193 5.88801 3.136L15.888 2.00502C15.962 1.99702 16.038 1.99702 16.113 2.00502L26.113 3.136C26.619 3.194 27.001 3.62102 27.001 4.13002V15.565C27.001 23.971 16.914 29.638 16.484 29.875C16.334 29.958 16.166 30 16 30ZM8.0966 19.8895C7.59036 18.8851 7.22378 17.8119 7.0743 16.6835L25 10.4095V13.316L8.0966 19.8895ZM9.14661 21.6271L25 15.4619V15.565C25 21.83 17.934 26.638 16 27.836C14.7552 27.067 11.3906 24.8098 9.14661 21.6271ZM25 8.29055L7.00001 14.5905V5.02401L16 4.006L25 5.02401V8.29055Z" fill="black"/>
</svg>
