<svg width="32" height="32" viewBox="0 0 32 32" fill="none" xmlns="http://www.w3.org/2000/svg">
<path fill-rule="evenodd" clip-rule="evenodd" d="M17 7C15.8954 7 15 7.89543 15 9V15H13V13C13 11.8954 12.1046 11 11 11H9C7.89543 11 7 11.8954 7 13V15L3 15C2.44772 15 2 15.4477 2 16C2 16.5523 2.44772 17 3 17L7 17V19C7 20.1046 7.89543 21 9 21H11C12.1046 21 13 20.1046 13 19V17H15V23C15 24.1046 15.8954 25 17 25H23C24.1046 25 25 24.1046 25 23V17H29C29.5523 17 30 16.5523 30 16C30 15.4477 29.5523 15 29 15H25V9C25 7.89543 24.1046 7 23 7H17ZM23 9H17V23H23V9ZM11 13H9V19H11V13Z" fill="black"/>
</svg>
