<svg width="32" height="32" viewBox="0 0 32 32" fill="none" xmlns="http://www.w3.org/2000/svg">
<path fill-rule="evenodd" clip-rule="evenodd" d="M16 15C18.2091 15 20 13.2091 20 11C20 8.79086 18.2091 7 16 7C13.7909 7 12 8.79086 12 11C12 13.2091 13.7909 15 16 15ZM16 13C17.1046 13 18 12.1046 18 11C18 9.89543 17.1046 9 16 9C14.8954 9 14 9.89543 14 11C14 12.1046 14.8954 13 16 13Z" fill="black"/>
<path fill-rule="evenodd" clip-rule="evenodd" d="M16 30C15.833 30 15.667 29.958 15.517 29.875C15.088 29.639 5 23.972 5 15.565V4.13002C5 3.62102 5.382 3.193 5.888 3.136L15.888 2.00502C15.962 1.99702 16.038 1.99702 16.113 2.00502L26.113 3.136C26.619 3.194 27.001 3.62102 27.001 4.13002V15.565C27.001 23.971 16.914 29.638 16.484 29.875C16.334 29.958 16.166 30 16 30ZM7 5.02401V15.565C7 18.2958 8.33613 20.7461 10.0055 22.7418C10.1407 19.5478 12.7728 17 16 17C19.2249 17 21.8555 19.5442 21.9942 22.7349C23.6637 20.7385 25 18.2895 25 15.565V5.02401L16 4.006L7 5.02401ZM20 24.8066C18.3661 26.3015 16.7731 27.3572 16 27.836C15.2263 27.358 13.6335 26.3051 12 24.8123V23C12 20.7909 13.7909 19 16 19C18.2091 19 20 20.7909 20 23V24.8066Z" fill="black"/>
</svg>
