<svg width="32" height="32" viewBox="0 0 32 32" fill="none" xmlns="http://www.w3.org/2000/svg">
<path fill-rule="evenodd" clip-rule="evenodd" d="M23 23L23 17L17 17L9 17L9 23L17 23L23 23ZM25 17C25 15.8954 24.1046 15 23 15L17 15L17 13L19 13C20.1046 13 21 12.1046 21 11L21 9C21 7.89543 20.1046 7 19 7L17 7L17 3C17 2.44772 16.5523 2 16 2C15.4477 2 15 2.44771 15 3L15 7L13 7C11.8954 7 11 7.89543 11 9L11 11C11 12.1046 11.8954 13 13 13L15 13L15 15L9 15C7.89543 15 7 15.8954 7 17L7 23C7 24.1046 7.89543 25 9 25L15 25L15 29C15 29.5523 15.4477 30 16 30C16.5523 30 17 29.5523 17 29L17 25L23 25C24.1046 25 25 24.1046 25 23L25 17ZM17 11L19 11L19 9L17 9L13 9L13 11L17 11Z" fill="black"/>
</svg>
