<svg width="32" height="32" viewBox="0 0 32 32" fill="none" xmlns="http://www.w3.org/2000/svg">
<path fill-rule="evenodd" clip-rule="evenodd" d="M26.7305 3.09764C26.3503 2.95962 25.9544 2.89061 25.543 2.89061C24.9466 2.888 24.4232 3.00649 23.9727 3.24607C23.5247 3.48305 23.1758 3.81118 22.9258 4.23045C22.6758 4.64972 22.5521 5.12759 22.5547 5.66404C22.5547 6.16144 22.6615 6.60415 22.875 6.99217C23.0886 7.38019 23.3802 7.68488 23.75 7.90623C24.1198 8.12759 24.5404 8.23826 25.0117 8.23826C25.306 8.23826 25.5833 8.19269 25.8438 8.10154C26.1068 8.0104 26.3399 7.88149 26.543 7.71483C26.7461 7.54555 26.9076 7.34373 27.0274 7.10936H27.082C27.0794 7.90102 26.9427 8.52472 26.6719 8.98045C26.4011 9.43358 26.0052 9.66014 25.4844 9.66014C25.1771 9.66014 24.9193 9.58071 24.7109 9.42186C24.5026 9.2604 24.3659 9.03384 24.3008 8.74217H22.6328C22.6849 9.19009 22.8346 9.59373 23.082 9.95311C23.332 10.3099 23.6615 10.5924 24.0703 10.8008C24.4792 11.0065 24.9505 11.1094 25.4844 11.1094C25.9792 11.1094 26.4271 11.013 26.8281 10.8203C27.2292 10.625 27.5716 10.3411 27.8555 9.96873C28.1393 9.59634 28.3568 9.14451 28.5078 8.61326C28.6615 8.07941 28.7383 7.47264 28.7383 6.79295C28.7357 6.06899 28.6458 5.45831 28.4688 4.96092C28.2943 4.46092 28.056 4.05988 27.7539 3.75779C27.4544 3.45571 27.1133 3.23566 26.7305 3.09764ZM24.8516 4.40623C25.0573 4.28123 25.2917 4.21873 25.5547 4.21873C25.8125 4.21873 26.0443 4.28253 26.25 4.41014C26.4557 4.53774 26.6172 4.70701 26.7344 4.91795C26.8516 5.12889 26.9115 5.36066 26.9141 5.61326C26.9141 5.80337 26.8789 5.98305 26.8086 6.15232C26.7383 6.3216 26.6406 6.47134 26.5156 6.60154C26.3932 6.72915 26.2487 6.82941 26.082 6.90233C25.9154 6.97524 25.7344 7.0117 25.5391 7.0117C25.2787 7.0117 25.0469 6.9505 24.8438 6.82811C24.6432 6.70311 24.4844 6.53644 24.3672 6.32811C24.2526 6.11717 24.1953 5.88019 24.1953 5.61717C24.1927 5.35675 24.25 5.12107 24.3672 4.91014C24.487 4.6992 24.6484 4.53123 24.8516 4.40623ZM24.0508 28.6797C24.5352 29.0078 25.1133 29.1732 25.7852 29.1758C26.457 29.1758 27.0339 29.0117 27.5156 28.6836C27.9974 28.3555 28.3672 27.8802 28.625 27.2578C28.8854 26.6354 29.0156 25.8854 29.0156 25.0078C29.0182 24.1354 28.8893 23.3932 28.6289 22.7812C28.3685 22.1667 27.9961 21.6979 27.5117 21.375C27.03 21.0521 26.4544 20.8906 25.7852 20.8906C25.1159 20.8906 24.5391 21.0521 24.0547 21.375C23.5729 21.6953 23.2018 22.1628 22.9414 22.7773C22.6836 23.3919 22.5547 24.1354 22.5547 25.0078C22.5521 25.8828 22.6797 26.6315 22.9375 27.2539C23.1979 27.8763 23.569 28.3516 24.0508 28.6797ZM26.8828 27.082C26.6094 27.543 26.2435 27.7734 25.7852 27.7734C25.4805 27.7734 25.2149 27.6719 24.9883 27.4688C24.7617 27.263 24.5859 26.9557 24.4609 26.5469C24.3386 26.1354 24.2774 25.6224 24.2774 25.0078C24.28 24.099 24.418 23.4167 24.6914 22.9609C24.9649 22.5052 25.3294 22.2773 25.7852 22.2773C26.0899 22.2773 26.3542 22.3789 26.5781 22.582C26.8047 22.7852 26.9792 23.0885 27.1016 23.4922C27.2266 23.8958 27.2891 24.401 27.2891 25.0078C27.2917 25.9297 27.1563 26.6211 26.8828 27.082ZM2 7C2 6.44772 2.44772 6 3 6H19C19.5523 6 20 6.44772 20 7C20 7.55228 19.5523 8 19 8H3C2.44772 8 2 7.55228 2 7ZM9 12C8.44772 12 8 12.4477 8 13C8 13.5523 8.44771 14 9 14H19C19.5523 14 20 13.5523 20 13C20 12.4477 19.5523 12 19 12H9ZM12 19C12 18.4477 12.4477 18 13 18H19C19.5523 18 20 18.4477 20 19C20 19.5523 19.5523 20 19 20H13C12.4477 20 12 19.5523 12 19ZM17 24C16.4477 24 16 24.4477 16 25C16 25.5523 16.4477 26 17 26H19C19.5523 26 20 25.5523 20 25C20 24.4477 19.5523 24 19 24H17Z" fill="black"/>
</svg>
