<svg width="32" height="32" viewBox="0 0 32 32" fill="none" xmlns="http://www.w3.org/2000/svg">
<g opacity="0.85">
<path d="M16 7C17.1046 7 18 6.10457 18 5C18 3.89543 17.1046 3 16 3C14.8954 3 14 3.89543 14 5C14 6.10457 14.8954 7 16 7Z" fill="black"/>
<path d="M16 29C17.1046 29 18 28.1046 18 27C18 25.8954 17.1046 25 16 25C14.8954 25 14 25.8954 14 27C14 28.1046 14.8954 29 16 29Z" fill="black"/>
<path d="M8.22198 25.778C9.32655 25.778 10.222 24.8826 10.222 23.778C10.222 22.6734 9.32655 21.778 8.22198 21.778C7.11742 21.778 6.22198 22.6734 6.22198 23.778C6.22198 24.8826 7.11742 25.778 8.22198 25.778Z" fill="black"/>
<path d="M27 18C28.1046 18 29 17.1046 29 16C29 14.8954 28.1046 14 27 14C25.8954 14 25 14.8954 25 16C25 17.1046 25.8954 18 27 18Z" fill="black"/>
<path d="M5 18C6.10457 18 7 17.1046 7 16C7 14.8954 6.10457 14 5 14C3.89543 14 3 14.8954 3 16C3 17.1046 3.89543 18 5 18Z" fill="black"/>
<path d="M23.778 25.778C24.8826 25.778 25.778 24.8826 25.778 23.778C25.778 22.6734 24.8826 21.778 23.778 21.778C22.6734 21.778 21.778 22.6734 21.778 23.778C21.778 24.8826 22.6734 25.778 23.778 25.778Z" fill="black"/>
<path d="M8.22198 10.222C9.32655 10.222 10.222 9.32655 10.222 8.22198C10.222 7.11742 9.32655 6.22198 8.22198 6.22198C7.11742 6.22198 6.22198 7.11742 6.22198 8.22198C6.22198 9.32655 7.11742 10.222 8.22198 10.222Z" fill="black"/>
</g>
</svg>
