<svg width="32" height="32" viewBox="0 0 32 32" fill="none" xmlns="http://www.w3.org/2000/svg">
<path d="M22.6094 11V9.99609L26.6016 4.39453H22.6016V3H28.7266V4.00391L24.7305 9.60547H28.7344V11H22.6094Z" fill="black"/>
<path d="M24.375 28.1133C23.9922 28.1133 23.651 28.0469 23.3516 27.9141C23.0521 27.7786 22.8151 27.5794 22.6406 27.3164C22.4688 27.0508 22.3828 26.7201 22.3828 26.3242C22.3828 25.9909 22.444 25.7109 22.5664 25.4844C22.6888 25.2578 22.8555 25.0755 23.0664 24.9375C23.2773 24.7995 23.5169 24.6953 23.7852 24.625C24.056 24.5547 24.3398 24.5052 24.6367 24.4766C24.9857 24.4401 25.2669 24.4062 25.4805 24.375C25.694 24.3411 25.849 24.2917 25.9453 24.2266C26.0417 24.1615 26.0898 24.0651 26.0898 23.9375V23.9141C26.0898 23.6667 26.0117 23.4753 25.8555 23.3398C25.7018 23.2044 25.4831 23.1367 25.1992 23.1367C24.8997 23.1367 24.6615 23.2031 24.4844 23.3359C24.3073 23.4661 24.1901 23.6302 24.1328 23.8281L22.5938 23.7031C22.6719 23.3385 22.8255 23.0234 23.0547 22.7578C23.2839 22.4896 23.5794 22.2839 23.9414 22.1406C24.306 21.9948 24.7279 21.9219 25.207 21.9219C25.5404 21.9219 25.8594 21.9609 26.1641 22.0391C26.4714 22.1172 26.7435 22.2383 26.9805 22.4023C27.2201 22.5664 27.4089 22.7773 27.5469 23.0352C27.6849 23.2904 27.7539 23.5964 27.7539 23.9531V28H26.1758V27.168H26.1289C26.0326 27.3555 25.9036 27.5208 25.7422 27.6641C25.5807 27.8047 25.3867 27.9154 25.1602 27.9961C24.9336 28.0742 24.6719 28.1133 24.375 28.1133ZM24.8516 26.9648C25.0964 26.9648 25.3125 26.9167 25.5 26.8203C25.6875 26.7214 25.8346 26.5885 25.9414 26.4219C26.0482 26.2552 26.1016 26.0664 26.1016 25.8555V25.2188C26.0495 25.2526 25.9779 25.2839 25.8867 25.3125C25.7982 25.3385 25.6979 25.3633 25.5859 25.3867C25.474 25.4076 25.362 25.4271 25.25 25.4453C25.138 25.4609 25.0365 25.4753 24.9453 25.4883C24.75 25.5169 24.5794 25.5625 24.4336 25.625C24.2878 25.6875 24.1745 25.7721 24.0938 25.8789C24.013 25.9831 23.9727 26.1133 23.9727 26.2695C23.9727 26.4961 24.0547 26.6693 24.2188 26.7891C24.3854 26.9062 24.5964 26.9648 24.8516 26.9648Z" fill="black"/>
<path d="M2 7C2 6.44772 2.44772 6 3 6H19C19.5523 6 20 6.44772 20 7C20 7.55228 19.5523 8 19 8H3C2.44772 8 2 7.55228 2 7Z" fill="black"/>
<path d="M8 13C8 12.4477 8.44772 12 9 12H19C19.5523 12 20 12.4477 20 13C20 13.5523 19.5523 14 19 14H9C8.44772 14 8 13.5523 8 13Z" fill="black"/>
<path d="M12 19C12 18.4477 12.4477 18 13 18H19C19.5523 18 20 18.4477 20 19C20 19.5523 19.5523 20 19 20H13C12.4477 20 12 19.5523 12 19Z" fill="black"/>
<path d="M16 25C16 24.4477 16.4477 24 17 24H19C19.5523 24 20 24.4477 20 25C20 25.5523 19.5523 26 19 26H17C16.4477 26 16 25.5523 16 25Z" fill="black"/>
</svg>
