<svg width="32" height="32" viewBox="0 0 32 32" fill="none" xmlns="http://www.w3.org/2000/svg">
<path d="M7 26C6.44772 26 6 25.5523 6 25C6 24.4477 6.44772 24 7 24H25C25.5523 24 26 24.4477 26 25C26 25.5523 25.5523 26 25 26H7Z" fill="black"/>
<path d="M13 20C12.4477 20 12 19.5523 12 19C12 18.4477 12.4477 18 13 18H25C25.5523 18 26 18.4477 26 19C26 19.5523 25.5523 20 25 20H13Z" fill="black"/>
<path d="M18 13C18 13.5523 18.4477 14 19 14H25C25.5523 14 26 13.5523 26 13C26 12.4477 25.5523 12 25 12H19C18.4477 12 18 12.4477 18 13Z" fill="black"/>
<path d="M23 8C22.4477 8 22 7.55228 22 7C22 6.44772 22.4477 6 23 6H25C25.5523 6 26 6.44772 26 7C26 7.55228 25.5523 8 25 8H23Z" fill="black"/>
</svg>
