<svg width="32" height="32" viewBox="0 0 32 32" fill="none" xmlns="http://www.w3.org/2000/svg">
<path d="M6 2C5.44772 2 5 2.44772 5 3L5 29C5 29.5523 5.44772 30 6 30V30C6.55229 30 7 29.5523 7 29L7 3C7 2.44771 6.55228 2 6 2V2Z" fill="black"/>
<path fill-rule="evenodd" clip-rule="evenodd" d="M17 11L17 9L11 9L11 11L17 11ZM19 9C19 7.89543 18.1046 7 17 7L11 7C9.89543 7 9 7.89543 9 9L9 11C9 12.1046 9.89543 13 11 13L17 13C18.1046 13 19 12.1046 19 11L19 9Z" fill="black"/>
<path fill-rule="evenodd" clip-rule="evenodd" d="M25 23L25 17L11 17L11 23L25 23ZM27 17C27 15.8954 26.1046 15 25 15L11 15C9.89543 15 9 15.8954 9 17L9 23C9 24.1046 9.89543 25 11 25L25 25C26.1046 25 27 24.1046 27 23L27 17Z" fill="black"/>
</svg>
