<svg width="32" height="32" viewBox="0 0 32 32" fill="none" xmlns="http://www.w3.org/2000/svg">
<path d="M26.112 3.13704L16.112 2.006C16.038 1.998 15.962 1.998 15.887 2.006L5.88702 3.13704C5.38102 3.19504 4.99902 3.622 4.99902 4.131V15.566C4.99902 23.972 15.086 29.639 15.516 29.876C15.666 29.959 15.833 30.001 15.999 30.001C16.165 30.001 16.332 29.959 16.482 29.876C16.911 29.64 26.999 23.973 26.999 15.566V4.131C26.999 3.622 26.617 3.19404 26.111 3.13704H26.112ZM25 15.566C25 21.832 17.933 26.639 16 27.837C14.065 26.641 7.00002 21.845 7.00002 15.566V5.02504L16 4.00704L25 5.02504V15.566Z" fill="black"/>
<path d="M12.707 13.293C12.316 12.902 11.684 12.902 11.293 13.293C10.902 13.684 10.902 14.3159 11.293 14.7069L14.293 17.7069C14.488 17.9019 14.744 18 15 18C15.256 18 15.512 17.9019 15.707 17.7069L20.707 12.7069C21.098 12.3159 21.098 11.684 20.707 11.293C20.316 10.902 19.684 10.902 19.293 11.293L15 15.586L12.707 13.293Z" fill="black"/>
</svg>
