<svg width="32" height="32" viewBox="0 0 32 32" fill="none" xmlns="http://www.w3.org/2000/svg">
<path fill-rule="evenodd" clip-rule="evenodd" d="M22.2617 11H24.0742L24.6677 9.17578H27.5561L28.1484 11H29.9609L27.2031 3H25.0234L22.2617 11ZM27.1275 7.85547L26.1445 4.82813H26.082L25.0972 7.85547H27.1275Z" fill="black"/>
<path d="M22.6328 28V27.0078L25.5703 23.3711V23.3281H22.7344V22H27.5742V23.082L24.8164 26.6289V26.6719H27.6758V28H22.6328Z" fill="black"/>
<path d="M2 7C2 6.44772 2.44772 6 3 6H19C19.5523 6 20 6.44772 20 7C20 7.55228 19.5523 8 19 8H3C2.44772 8 2 7.55228 2 7Z" fill="black"/>
<path d="M8 13C8 12.4477 8.44772 12 9 12H19C19.5523 12 20 12.4477 20 13C20 13.5523 19.5523 14 19 14H9C8.44772 14 8 13.5523 8 13Z" fill="black"/>
<path d="M12 19C12 18.4477 12.4477 18 13 18H19C19.5523 18 20 18.4477 20 19C20 19.5523 19.5523 20 19 20H13C12.4477 20 12 19.5523 12 19Z" fill="black"/>
<path d="M16 25C16 24.4477 16.4477 24 17 24H19C19.5523 24 20 24.4477 20 25C20 25.5523 19.5523 26 19 26H17C16.4477 26 16 25.5523 16 25Z" fill="black"/>
</svg>
