<svg width="32" height="32" viewBox="0 0 32 32" fill="none" xmlns="http://www.w3.org/2000/svg">
<path fill-rule="evenodd" clip-rule="evenodd" d="M4 27H23.5317C23.8249 27.0003 24.1146 26.9359 24.3802 26.8115C24.6457 26.687 24.8805 26.5056 25.0679 26.28L29.5361 20.9187C29.8355 20.559 29.9996 20.1059 30 19.6379V7C29.9994 6.46974 29.7886 5.96135 29.4136 5.5864C29.0386 5.21145 28.5303 5.00056 28 5H4C3.46974 5.00056 2.96135 5.21145 2.5864 5.5864C2.21145 5.96135 2.00056 6.46974 2 7V25C2.00056 25.5303 2.21145 26.0386 2.5864 26.4136C2.96135 26.7886 3.46974 26.9994 4 27ZM4 25V7H28V19.6379L23.5317 25H4ZM8 9H21C21.5302 9.00061 22.0386 9.21152 22.4135 9.58646C22.7885 9.9614 22.9994 10.4698 23 11V21C22.9994 21.5302 22.7885 22.0386 22.4135 22.4135C22.0386 22.7885 21.5302 22.9994 21 23H8C7.46975 22.9994 6.9614 22.7885 6.58646 22.4135C6.21152 22.0386 6.00061 21.5302 6 21V11C6.00061 10.4698 6.21152 9.9614 6.58646 9.58646C6.9614 9.21152 7.46975 9.00061 8 9ZM18 13H21V11H18V13ZM21 15H18V17H21V15ZM16 21V11H8V13H12C12.2652 13 12.5196 13.1054 12.7071 13.2929C12.8946 13.4804 13 13.7348 13 14V21H16ZM8 17H11V15H8V17ZM11 19H8V21H11V19ZM18 19V21H21V19H18Z" fill="black"/>
</svg>
