<svg width="32" height="32" viewBox="0 0 32 32" fill="none" xmlns="http://www.w3.org/2000/svg">
<path d="M28.2261 22.812C29.3893 20.73 30 18.3849 30 16C30 13.6151 29.3893 11.27 28.2261 9.18801L28.4141 9.00001C28.7886 8.62468 28.9989 8.11614 28.9989 7.58596C28.9989 7.05578 28.7886 6.54724 28.4141 6.17191L25.8284 3.58591C25.453 3.21153 24.9444 3.00129 24.4142 3.00129C23.884 3.00129 23.3755 3.21153 23 3.58591L22.8123 3.77341C20.7302 2.61036 18.3851 1.99976 16.0002 1.99976C13.6153 1.99976 11.2701 2.61036 9.18802 3.77341L9.00002 3.58591C8.62464 3.21143 8.11605 3.00113 7.58582 3.00113C7.05559 3.00113 6.547 3.21143 6.17162 3.58591L3.58592 6.17191C3.21146 6.54724 3.00116 7.05578 3.00116 7.58596C3.00116 8.11614 3.21146 8.62468 3.58592 9.00001L3.77372 9.18751C2.61067 11.2697 2.00006 13.615 2.00006 16C2.00006 18.385 2.61067 20.7303 3.77372 22.8125L3.58592 23C3.21146 23.3753 3.00116 23.8839 3.00116 24.4141C3.00116 24.9442 3.21146 25.4528 3.58592 25.8281L6.17162 28.4141C6.54696 28.7887 7.05556 28.999 7.58582 28.999C8.11608 28.999 8.62468 28.7887 9.00002 28.4141L9.18802 28.2261C11.2701 29.3892 13.6152 29.9999 16.0001 30C18.385 30.0001 20.7302 29.3896 22.8123 28.2266L23 28.4141C23.3754 28.7887 23.884 28.999 24.4142 28.999C24.9445 28.999 25.4531 28.7887 25.8284 28.4141L28.4141 25.8281C28.7886 25.4528 28.9989 24.9442 28.9989 24.4141C28.9989 23.8839 28.7886 23.3753 28.4141 23L28.2261 22.812ZM28 16C27.9994 17.8502 27.5699 19.6752 26.7454 21.3315L22.8506 17.4365C23.0498 16.4892 23.0498 15.5108 22.8506 14.5635L26.7454 10.6685C27.5699 12.3249 27.9994 14.1498 28 16ZM27 7.58591L22.0654 12.5205C21.4463 11.446 20.5544 10.5539 19.48 9.93461L24.4143 5.00001L27 7.58591ZM16 21C15.0111 21 14.0444 20.7068 13.2222 20.1574C12.3999 19.6079 11.7591 18.8271 11.3806 17.9134C11.0022 16.9998 10.9032 15.9945 11.0961 15.0246C11.289 14.0547 11.7652 13.1637 12.4645 12.4645C13.1637 11.7652 14.0547 11.289 15.0246 11.0961C15.9945 10.9032 16.9998 11.0022 17.9134 11.3806C18.8271 11.759 19.608 12.3999 20.1574 13.2222C20.7068 14.0444 21 15.0111 21 16C20.9985 17.3256 20.4712 18.5965 19.5339 19.5339C18.5965 20.4712 17.3256 20.9985 16 21ZM21.3154 5.27051L17.4365 9.14941C16.4892 8.95021 15.5108 8.95021 14.5635 9.14941L10.6846 5.27051C12.3427 4.47181 14.1596 4.05704 16 4.05704C17.8405 4.05704 19.6573 4.47181 21.3154 5.27051ZM7.58592 5.00001L12.5205 9.93461C11.446 10.5539 10.5539 11.4459 9.93462 12.5205L5.00002 7.58591L7.58592 5.00001ZM4.00002 16C4.00066 14.1499 4.4301 12.3251 5.25462 10.6689L9.14942 14.5635C8.95022 15.5108 8.95022 16.4892 9.14942 17.4365L5.25462 21.3311C4.4301 19.6749 4.00066 17.8501 4.00002 16ZM7.58572 27L5.00002 24.4141L9.93462 19.48C10.5539 20.5546 11.4459 21.4467 12.5205 22.0659L7.58572 27ZM10.6846 26.73L14.5635 22.8511C15.5108 23.0503 16.4892 23.0503 17.4365 22.8511L21.3154 26.73C19.6573 27.5287 17.8405 27.9435 16 27.9435C14.1596 27.9435 12.3427 27.5287 10.6846 26.73ZM24.4146 27L19.48 22.0654C20.5543 21.4462 21.4462 20.5543 22.0654 19.48L27 24.4141L24.4146 27Z" fill="black"/>
</svg>
