<svg width="32" height="32" viewBox="0 0 32 32" fill="none" xmlns="http://www.w3.org/2000/svg">
<path d="M25.7852 11.1758C25.1133 11.1732 24.5352 11.0078 24.0508 10.6797C23.569 10.3516 23.1979 9.8763 22.9375 9.25391C22.6797 8.63151 22.5521 7.88281 22.5547 7.00781C22.5547 6.13542 22.6836 5.39193 22.9414 4.77734C23.2018 4.16276 23.5729 3.69531 24.0547 3.375C24.5391 3.05208 25.1159 2.89062 25.7852 2.89062C26.4544 2.89062 27.03 3.05208 27.5117 3.375C27.9961 3.69792 28.3685 4.16667 28.6289 4.78125C28.8893 5.39323 29.0182 6.13542 29.0156 7.00781C29.0156 7.88542 28.8854 8.63542 28.625 9.25781C28.3672 9.88021 27.9974 10.3555 27.5156 10.6836C27.0339 11.0117 26.457 11.1758 25.7852 11.1758ZM25.7852 9.77344C26.2435 9.77344 26.6094 9.54297 26.8828 9.08203C27.1563 8.62109 27.2917 7.92969 27.2891 7.00781C27.2891 6.40104 27.2266 5.89583 27.1016 5.49219C26.9792 5.08854 26.8047 4.78516 26.5781 4.58203C26.3542 4.37891 26.0899 4.27734 25.7852 4.27734C25.3294 4.27734 24.9649 4.50521 24.6914 4.96094C24.418 5.41667 24.28 6.09896 24.2774 7.00781C24.2774 7.6224 24.3386 8.13542 24.4609 8.54688C24.5859 8.95573 24.7617 9.26302 24.9883 9.46875C25.2149 9.67188 25.4805 9.77344 25.7852 9.77344Z" fill="black"/>
<path d="M25.543 20.8906C25.9544 20.8906 26.3503 20.9596 26.7305 21.0976C27.1133 21.2357 27.4544 21.4557 27.7539 21.7578C28.056 22.0599 28.2943 22.4609 28.4687 22.9609C28.6458 23.4583 28.7357 24.069 28.7383 24.7929C28.7383 25.4726 28.6615 26.0794 28.5078 26.6133C28.3568 27.1445 28.1393 27.5963 27.8555 27.9687C27.5716 28.3411 27.2292 28.625 26.8281 28.8203C26.4271 29.013 25.9792 29.1094 25.4844 29.1094C24.9505 29.1094 24.4792 29.0065 24.0703 28.8008C23.6615 28.5924 23.332 28.3099 23.082 27.9531C22.8346 27.5937 22.6849 27.1901 22.6328 26.7422H24.3008C24.3659 27.0338 24.5026 27.2604 24.7109 27.4219C24.9193 27.5807 25.1771 27.6601 25.4844 27.6601C26.0052 27.6601 26.401 27.4336 26.6719 26.9805C26.9427 26.5247 27.0794 25.901 27.082 25.1094H27.0273C26.9075 25.3437 26.7461 25.5456 26.543 25.7148C26.3398 25.8815 26.1068 26.0104 25.8437 26.1015C25.5833 26.1927 25.306 26.2383 25.0117 26.2383C24.5404 26.2383 24.1198 26.1276 23.75 25.9062C23.3802 25.6849 23.0885 25.3802 22.875 24.9922C22.6615 24.6041 22.5547 24.1614 22.5547 23.664C22.5521 23.1276 22.6758 22.6497 22.9258 22.2304C23.1758 21.8112 23.5247 21.4831 23.9727 21.2461C24.4232 21.0065 24.9466 20.888 25.543 20.8906ZM25.5547 22.2187C25.2917 22.2187 25.0573 22.2812 24.8516 22.4062C24.6484 22.5312 24.487 22.6992 24.3672 22.9101C24.25 23.1211 24.1927 23.3568 24.1953 23.6172C24.1953 23.8802 24.2526 24.1172 24.3672 24.3281C24.4844 24.5364 24.6432 24.7031 24.8437 24.8281C25.0469 24.9505 25.2786 25.0117 25.5391 25.0117C25.7344 25.0117 25.9154 24.9752 26.082 24.9023C26.2487 24.8294 26.3932 24.7291 26.5156 24.6015C26.6406 24.4713 26.7383 24.3216 26.8086 24.1523C26.8789 23.9831 26.9141 23.8034 26.9141 23.6133C26.9115 23.3607 26.8516 23.1289 26.7344 22.9179C26.6172 22.707 26.4557 22.5377 26.25 22.4101C26.0443 22.2825 25.8125 22.2187 25.5547 22.2187Z" fill="black"/>
<rect x="2" y="6" width="18" height="2" rx="1" fill="black"/>
<path d="M8 13C8 12.4477 8.44772 12 9 12H19C19.5523 12 20 12.4477 20 13C20 13.5523 19.5523 14 19 14H9C8.44772 14 8 13.5523 8 13Z" fill="black"/>
<path d="M12 19C12 18.4477 12.4477 18 13 18H19C19.5523 18 20 18.4477 20 19C20 19.5523 19.5523 20 19 20H13C12.4477 20 12 19.5523 12 19Z" fill="black"/>
<path d="M16 25C16 24.4477 16.4477 24 17 24H19C19.5523 24 20 24.4477 20 25C20 25.5523 19.5523 26 19 26H17C16.4477 26 16 25.5523 16 25Z" fill="black"/>
</svg>
