<svg width="32" height="32" viewBox="0 0 32 32" fill="none" xmlns="http://www.w3.org/2000/svg">
<path fill-rule="evenodd" clip-rule="evenodd" d="M15 3C15 2.44772 15.4477 2 16 2C16.5523 2 17 2.44772 17 3V10C17 10.0277 16.9989 10.0552 16.9967 10.0824C19.836 10.5571 22 13.0258 22 16C22 18.9742 19.836 21.4429 16.9967 21.9176C16.9989 21.9448 17 21.9723 17 22V29C17 29.5523 16.5523 30 16 30C15.4477 30 15 29.5523 15 29V22C15 21.9723 15.0011 21.9448 15.0033 21.9176C12.164 21.4429 10 18.9742 10 16C10 13.0258 12.164 10.5571 15.0033 10.0824C15.0011 10.0552 15 10.0277 15 10V3ZM12 16C12 18.2091 13.7909 20 16 20C18.2091 20 20 18.2091 20 16C20 13.7909 18.2091 12 16 12C13.7909 12 12 13.7909 12 16Z" fill="black"/>
</svg>
