<svg width="32" height="32" viewBox="0 0 32 32" fill="none" xmlns="http://www.w3.org/2000/svg">
<g id="AisSun">
<g id="Vector">
<path d="M16 10C12.691 10 10 12.691 10 16C10 19.309 12.691 22 16 22C19.309 22 22 19.309 22 16C22 12.691 19.309 10 16 10ZM16 20C13.794 20 12 18.206 12 16C12 13.794 13.794 12 16 12C18.206 12 20 13.794 20 16C20 18.206 18.206 20 16 20Z" fill="black"/>
<path d="M16 8C16.553 8 17 7.553 17 7V5C17 4.447 16.553 4 16 4C15.447 4 15 4.447 15 5V7C15 7.553 15.447 8 16 8Z" fill="black"/>
<path d="M16 24C15.447 24 15 24.447 15 25V27C15 27.553 15.447 28 16 28C16.553 28 17 27.553 17 27V25C17 24.447 16.553 24 16 24Z" fill="black"/>
<path d="M8 16C8 15.447 7.553 15 7 15H5C4.447 15 4 15.447 4 16C4 16.553 4.447 17 5 17H7C7.553 17 8 16.553 8 16Z" fill="black"/>
<path d="M27 15H25C24.447 15 24 15.447 24 16C24 16.553 24.447 17 25 17H27C27.553 17 28 16.553 28 16C28 15.447 27.553 15 27 15Z" fill="black"/>
<path d="M22.364 10.636C22.62 10.636 22.876 10.538 23.071 10.343L24.485 8.92899C24.876 8.53799 24.876 7.90602 24.485 7.51502C24.094 7.12402 23.462 7.12402 23.071 7.51502L21.657 8.92899C21.266 9.31999 21.266 9.95199 21.657 10.343C21.852 10.538 22.108 10.636 22.364 10.636Z" fill="black"/>
<path d="M8.92899 21.657L7.51499 23.071C7.12399 23.462 7.12399 24.094 7.51499 24.485C7.70999 24.68 7.96596 24.778 8.22196 24.778C8.47796 24.778 8.73399 24.68 8.92899 24.485L10.343 23.071C10.734 22.68 10.734 22.048 10.343 21.657C9.95199 21.266 9.31999 21.266 8.92899 21.657Z" fill="black"/>
<path d="M8.92899 10.343C9.12399 10.538 9.37996 10.636 9.63596 10.636C9.89196 10.636 10.148 10.538 10.343 10.343C10.734 9.95199 10.734 9.31999 10.343 8.92899L8.92899 7.51502C8.53799 7.12402 7.90599 7.12402 7.51499 7.51502C7.12399 7.90602 7.12399 8.53799 7.51499 8.92899L8.92899 10.343Z" fill="black"/>
<path d="M23.071 21.657C22.68 21.266 22.048 21.266 21.657 21.657C21.266 22.048 21.266 22.68 21.657 23.071L23.071 24.485C23.266 24.68 23.522 24.778 23.778 24.778C24.034 24.778 24.29 24.68 24.485 24.485C24.876 24.094 24.876 23.462 24.485 23.071L23.071 21.657Z" fill="black"/>
</g>
</g>
</svg>
