<svg width="32" height="32" viewBox="0 0 32 32" fill="none" xmlns="http://www.w3.org/2000/svg">
<path d="M7 6C6.44772 6 6 6.44772 6 7C6 7.55228 6.44772 8 7 8H25C25.5523 8 26 7.55228 26 7C26 6.44772 25.5523 6 25 6H7Z" fill="black"/>
<path d="M13 12C12.4477 12 12 12.4477 12 13C12 13.5523 12.4477 14 13 14H25C25.5523 14 26 13.5523 26 13C26 12.4477 25.5523 12 25 12H13Z" fill="black"/>
<path d="M18 19C18 18.4477 18.4477 18 19 18H25C25.5523 18 26 18.4477 26 19C26 19.5523 25.5523 20 25 20H19C18.4477 20 18 19.5523 18 19Z" fill="black"/>
<path d="M23 24C22.4477 24 22 24.4477 22 25C22 25.5523 22.4477 26 23 26H25C25.5523 26 26 25.5523 26 25C26 24.4477 25.5523 24 25 24H23Z" fill="black"/>
</svg>
