<svg width="32" height="32" viewBox="0 0 32 32" fill="none" xmlns="http://www.w3.org/2000/svg">
<g id="AisShieldLock">
<g id="Vector">
<path d="M26.112 3.13704L16.112 2.006C16.038 1.998 15.962 1.998 15.887 2.006L5.88696 3.13704C5.38096 3.19504 4.99896 3.622 4.99896 4.131V15.566C4.99896 23.972 15.086 29.639 15.516 29.876C15.666 29.959 15.833 30.001 15.999 30.001C16.165 30.001 16.332 29.959 16.482 29.876C16.911 29.64 26.999 23.973 26.999 15.566V4.131C26.999 3.622 26.618 3.19404 26.112 3.13704ZM25 15.566C25 21.832 17.933 26.639 16 27.837C14.065 26.641 6.99996 21.845 6.99996 15.566V5.02504L16 4.00704L25 5.02504V15.566Z" fill="black"/>
<path d="M13 13C13 14.302 13.839 15.402 15 15.816V18.883C15 19.436 15.448 19.883 16 19.883C16.552 19.883 17 19.436 17 18.883V15.816C18.161 15.402 19 14.302 19 13C19 11.346 17.654 10 16 10C14.346 10 13 11.346 13 13Z" fill="black"/>
</g>
</g>
</svg>
