<svg width="32" height="32" viewBox="0 0 32 32" fill="none" xmlns="http://www.w3.org/2000/svg">
<path d="M19 16C19 17.6569 17.6569 19 16 19C14.3431 19 13 17.6569 13 16C13 14.3431 14.3431 13 16 13C17.6569 13 19 14.3431 19 16Z" fill="black"/>
<path fill-rule="evenodd" clip-rule="evenodd" d="M26.391 16C26.391 16.733 26.642 17.423 27.116 17.994C27.75 18.76 27.927 19.779 27.576 20.657L27.486 20.877C27.119 21.752 26.27 22.355 25.271 22.449C24.531 22.519 23.867 22.829 23.349 23.348C22.83 23.867 22.519 24.531 22.45 25.27C22.356 26.268 21.754 27.118 20.876 27.486L20.663 27.574C19.78 27.927 18.761 27.75 17.996 27.117C16.85 26.169 15.149 26.17 14.006 27.117C13.501 27.535 12.884 27.754 12.272 27.754C11.955 27.754 11.641 27.696 11.343 27.577L11.123 27.487C10.246 27.119 9.64396 26.269 9.54996 25.27C9.48096 24.532 9.17098 23.868 8.65198 23.35C8.13298 22.831 7.46898 22.52 6.72998 22.451C5.72998 22.356 4.88098 21.753 4.51398 20.877L4.42096 20.652C4.07296 19.78 4.24997 18.761 4.88297 17.996C5.35797 17.424 5.60898 16.734 5.60898 16.001C5.60898 15.268 5.35798 14.578 4.88398 14.007C4.24998 13.24 4.07398 12.221 4.42398 11.344L4.51398 11.124C4.88198 10.247 5.73196 9.64501 6.73096 9.55101C7.46896 9.48201 8.13297 9.17203 8.65097 8.65303C9.16997 8.13403 9.48096 7.47 9.54996 6.731C9.64396 5.733 10.246 4.88303 11.124 4.51503L11.337 4.42701C12.219 4.07401 13.239 4.25101 14.004 4.88401C15.15 5.83201 16.851 5.83101 17.994 4.88401C18.761 4.25001 19.783 4.07402 20.657 4.42402L20.877 4.51402C21.754 4.88202 22.356 5.732 22.45 6.731C22.519 7.469 22.829 8.13301 23.348 8.65101C23.867 9.17001 24.531 9.481 25.27 9.55C26.268 9.644 27.118 10.246 27.486 11.124L27.574 11.337C27.926 12.22 27.75 13.239 27.117 14.004C26.642 14.577 26.391 15.267 26.391 16ZM21 16C21 18.7614 18.7614 21 16 21C13.2386 21 11 18.7614 11 16C11 13.2386 13.2386 11 16 11C18.7614 11 21 13.2386 21 16Z" fill="black"/>
</svg>
