<svg width="32" height="32" viewBox="0 0 32 32" fill="none" xmlns="http://www.w3.org/2000/svg">
<g id="AisSupport">
<path id="Union" fill-rule="evenodd" clip-rule="evenodd" d="M26 16C26 18.0382 25.3902 19.9339 24.3432 21.5148L22.1586 19.3302C22.6953 18.3399 23 17.2055 23 16C23 14.7945 22.6953 13.6601 22.1586 12.6698L24.3432 10.4852C25.3902 12.0661 26 13.9618 26 16ZM19.3302 22.1586L21.5148 24.3432C19.9339 25.3902 18.0382 26 16 26C13.9618 26 12.0661 25.3902 10.4852 24.3432L12.6698 22.1586C13.6601 22.6953 14.7945 23 16 23C17.2055 23 18.3399 22.6953 19.3302 22.1586ZM9.84138 19.3302C9.30474 18.3399 9 17.2055 9 16C9 14.7945 9.30474 13.6601 9.84138 12.6698L7.65679 10.4852C6.60975 12.0661 6 13.9618 6 16C6 18.0382 6.60975 19.9339 7.65679 21.5148L9.84138 19.3302ZM10.4852 7.65679L12.6698 9.84138C13.6601 9.30474 14.7945 9 16 9C17.2055 9 18.3399 9.30474 19.3302 9.84138L21.5148 7.65679C19.9339 6.60975 18.0382 6 16 6C13.9618 6 12.0661 6.60975 10.4852 7.65679ZM28 16C28 22.6274 22.6274 28 16 28C9.37258 28 4 22.6274 4 16C4 9.37258 9.37258 4 16 4C22.6274 4 28 9.37258 28 16ZM21 16C21 18.7614 18.7614 21 16 21C13.2386 21 11 18.7614 11 16C11 13.2386 13.2386 11 16 11C18.7614 11 21 13.2386 21 16Z" fill="black"/>
</g>
</svg>
