<svg width="32" height="32" viewBox="0 0 32 32" fill="none" xmlns="http://www.w3.org/2000/svg">
<path fill-rule="evenodd" clip-rule="evenodd" d="M21.9176 16.9967C21.4429 19.836 18.9742 22 16 22C13.0258 22 10.5571 19.836 10.0824 16.9967C10.0552 16.9989 10.0277 17 10 17H3C2.44772 17 2 16.5523 2 16C2 15.4477 2.44772 15 3 15H10C10.0277 15 10.0552 15.0011 10.0824 15.0033C10.5571 12.164 13.0258 10 16 10C18.9742 10 21.4429 12.164 21.9176 15.0033C21.9448 15.0011 21.9723 15 22 15H29C29.5523 15 30 15.4477 30 16C30 16.5523 29.5523 17 29 17H22C21.9723 17 21.9448 16.9989 21.9176 16.9967ZM16 20C18.2091 20 20 18.2091 20 16C20 13.7909 18.2091 12 16 12C13.7909 12 12 13.7909 12 16C12 18.2091 13.7909 20 16 20Z" fill="black"/>
</svg>
