<svg width="32" height="32" viewBox="0 0 32 32" fill="none" xmlns="http://www.w3.org/2000/svg">
<path d="M23 20C21.976 20 21.051 20.398 20.343 21.032L12.97 16.293C12.977 16.195 13 16.101 13 16C13 15.899 12.978 15.806 12.97 15.707L20.343 10.968C21.051 11.602 21.976 12 23 12C25.206 12 27 10.206 27 8C27 5.794 25.206 4 23 4C20.794 4 19 5.794 19 8C19 8.458 19.093 8.892 19.236 9.302L12.308 13.755C11.588 12.696 10.374 11.999 9 11.999C6.794 11.999 5 13.793 5 15.999C5 18.205 6.794 19.999 9 19.999C10.375 19.999 11.588 19.302 12.308 18.243L19.236 22.696C19.093 23.106 19 23.54 19 23.998C19 26.204 20.794 27.998 23 27.998C25.206 27.998 27 26.204 27 23.998C27 21.792 25.206 19.998 23 19.998V20ZM23 6C24.103 6 25 6.897 25 8C25 9.103 24.103 10 23 10C21.897 10 21 9.103 21 8C21 6.897 21.897 6 23 6ZM9 18C7.897 18 7 17.103 7 16C7 14.897 7.897 14 9 14C10.103 14 11 14.897 11 16C11 17.103 10.103 18 9 18ZM23 26C21.897 26 21 25.103 21 24C21 22.897 21.897 22 23 22C24.103 22 25 22.897 25 24C25 25.103 24.103 26 23 26Z" fill="black"/>
</svg>
