<svg width="32" height="32" viewBox="0 0 32 32" fill="none" xmlns="http://www.w3.org/2000/svg">
<path d="M16 2C16.5523 2 17 2.44772 17 3V11.1716C17 11.4368 17.1054 11.6911 17.2929 11.8787L24.1213 18.7071C24.6839 19.2697 25 20.0328 25 20.8284V26.5858L27.2929 24.2929C27.6834 23.9024 28.3166 23.9024 28.7071 24.2929C29.0976 24.6834 29.0976 25.3166 28.7071 25.7071L24.7071 29.7071C24.3166 30.0976 23.6834 30.0976 23.2929 29.7071L19.2929 25.7071C18.9024 25.3166 18.9024 24.6834 19.2929 24.2929C19.6834 23.9024 20.3166 23.9024 20.7071 24.2929L23 26.5858V20.8284C23 20.5632 22.8946 20.3089 22.7071 20.1213L16 13.4142L9.29289 20.1213C9.10536 20.3089 9 20.5632 9 20.8284V26.5858L11.2929 24.2929C11.6834 23.9024 12.3166 23.9024 12.7071 24.2929C13.0976 24.6834 13.0976 25.3166 12.7071 25.7071L8.70711 29.7071C8.31658 30.0976 7.68342 30.0976 7.29289 29.7071L3.29289 25.7071C2.90237 25.3166 2.90237 24.6834 3.29289 24.2929C3.68342 23.9024 4.31658 23.9024 4.70711 24.2929L7 26.5858V20.8284C7 20.0328 7.31607 19.2697 7.87868 18.7071L14.7071 11.8787C14.8946 11.6911 15 11.4368 15 11.1716V3C15 2.44772 15.4477 2 16 2Z" fill="black"/>
</svg>
