<svg width="32" height="32" viewBox="0 0 32 32" fill="none" xmlns="http://www.w3.org/2000/svg">
<g id="AisSettings">
<g id="Vector">
<path d="M16 11C13.243 11 11 13.243 11 16C11 18.757 13.243 21 16 21C18.757 21 21 18.757 21 16C21 13.243 18.757 11 16 11ZM16 19C14.346 19 13 17.654 13 16C13 14.346 14.346 13 16 13C17.654 13 19 14.346 19 16C19 17.654 17.654 19 16 19Z" fill="black"/>
<path d="M27.116 17.994C26.642 17.423 26.391 16.733 26.391 16C26.391 15.267 26.642 14.577 27.117 14.004C27.75 13.239 27.926 12.22 27.574 11.337L27.486 11.124C27.118 10.246 26.268 9.644 25.27 9.55C24.531 9.481 23.867 9.17001 23.348 8.65101C22.829 8.13301 22.519 7.469 22.45 6.731C22.356 5.732 21.754 4.88202 20.877 4.51402L20.657 4.42402C19.783 4.07402 18.761 4.25001 17.994 4.88401C16.851 5.83101 15.15 5.83201 14.004 4.88401C13.239 4.25101 12.219 4.07401 11.337 4.42701L11.124 4.51503C10.246 4.88303 9.64396 5.733 9.54996 6.731C9.48096 7.47 9.16997 8.13403 8.65097 8.65303C8.13297 9.17203 7.46896 9.48201 6.73096 9.55101C5.73196 9.64501 4.88198 10.247 4.51398 11.124L4.42398 11.344C4.07398 12.221 4.24998 13.24 4.88398 14.007C5.35798 14.578 5.60898 15.268 5.60898 16.001C5.60898 16.734 5.35797 17.424 4.88297 17.996C4.24997 18.761 4.07296 19.78 4.42096 20.652L4.51398 20.877C4.88098 21.753 5.72998 22.356 6.72998 22.451C7.46898 22.52 8.13298 22.831 8.65198 23.35C9.17098 23.868 9.48096 24.532 9.54996 25.27C9.64396 26.269 10.246 27.119 11.123 27.487L11.343 27.577C11.641 27.696 11.955 27.754 12.272 27.754C12.884 27.754 13.501 27.535 14.006 27.117C15.149 26.17 16.85 26.169 17.996 27.117C18.761 27.75 19.78 27.927 20.663 27.574L20.876 27.486C21.754 27.118 22.356 26.268 22.45 25.27C22.519 24.531 22.83 23.867 23.349 23.348C23.867 22.829 24.531 22.519 25.271 22.449C26.27 22.355 27.119 21.752 27.486 20.877L27.576 20.657C27.927 19.779 27.75 18.76 27.116 17.994ZM25.576 19.27C25.745 19.474 25.799 19.715 25.716 19.922L25.643 20.102C25.56 20.299 25.351 20.433 25.083 20.457C23.892 20.569 22.773 21.094 21.935 21.933C21.097 22.772 20.571 23.891 20.458 25.083C20.434 25.35 20.301 25.559 20.102 25.642L19.917 25.718C19.715 25.797 19.474 25.743 19.271 25.576C17.427 24.047 14.57 24.048 12.73 25.576C12.525 25.745 12.284 25.8 12.088 25.721L11.897 25.643C11.699 25.56 11.566 25.351 11.542 25.083C11.43 23.892 10.905 22.773 10.066 21.935C9.22698 21.097 8.10797 20.571 6.91797 20.459C6.64897 20.434 6.43997 20.3 6.35697 20.102L6.28098 19.917C6.20098 19.716 6.25498 19.475 6.42298 19.271C7.18798 18.349 7.60898 17.187 7.60898 16C7.60898 14.813 7.18798 13.65 6.42398 12.73C6.25498 12.525 6.20097 12.283 6.27896 12.088L6.35697 11.897C6.43997 11.699 6.64897 11.566 6.91697 11.542C8.10797 11.43 9.22698 10.905 10.065 10.066C10.903 9.22702 11.429 8.108 11.542 6.916C11.566 6.649 11.699 6.44001 11.898 6.35701L12.083 6.28102C12.145 6.25702 12.21 6.24501 12.276 6.24501C12.427 6.24501 12.588 6.30702 12.728 6.42302C14.572 7.95202 17.429 7.95102 19.269 6.42302C19.474 6.25502 19.715 6.20003 19.911 6.27803L20.102 6.356C20.3 6.439 20.433 6.648 20.457 6.916C20.569 8.107 21.094 9.22601 21.933 10.064C22.772 10.902 23.891 11.428 25.083 11.541C25.35 11.565 25.559 11.698 25.642 11.897L25.718 12.082C25.798 12.282 25.744 12.524 25.576 12.728C24.811 13.65 24.39 14.812 24.39 15.999C24.39 17.186 24.812 18.349 25.576 19.27Z" fill="black"/>
</g>
</g>
</svg>
