<svg width="32" height="32" viewBox="0 0 32 32" fill="none" xmlns="http://www.w3.org/2000/svg">
<path d="M15 13C15 12.4477 15.4477 12 16 12C16.5523 12 17 12.4477 17 13V23C17 23.5523 16.5523 24 16 24C15.4477 24 15 23.5523 15 23V13Z" fill="black"/>
<path fill-rule="evenodd" clip-rule="evenodd" d="M11 4V8H10C7.79086 8 6 9.79086 6 12V24C6 26.2091 7.79086 28 10 28H11V29C11 29.5523 11.4477 30 12 30C12.5523 30 13 29.5523 13 29V28H19V29C19 29.5523 19.4477 30 20 30C20.5523 30 21 29.5523 21 29V28H22C24.2091 28 26 26.2091 26 24V12C26 9.79086 24.2091 8 22 8H21V4C21 2.89543 20.1046 2 19 2H13C11.8954 2 11 2.89543 11 4ZM19 4H13V8H19V4ZM10 26H11V10H10C8.89543 10 8 10.8954 8 12V24C8 25.1046 8.89543 26 10 26ZM13 10V26H19V10H13ZM22 26H21V10H22C23.1046 10 24 10.8954 24 12V24C24 25.1046 23.1046 26 22 26Z" fill="black"/>
</svg>
