<svg width="32" height="32" viewBox="0 0 32 32" fill="none" xmlns="http://www.w3.org/2000/svg">
<g id="AisSearch">
<path id="Vector" d="M26.707 25.293L21.738 20.324C23.15 18.599 24 16.397 24 14C24 8.486 19.514 4 14 4C8.486 4 4 8.486 4 14C4 19.514 8.486 24 14 24C16.398 24 18.6 23.15 20.324 21.738L25.293 26.707C25.488 26.902 25.744 27 26 27C26.256 27 26.512 26.902 26.707 26.707C27.098 26.316 27.098 25.684 26.707 25.293ZM14 22C9.589 22 6 18.411 6 14C6 9.589 9.589 6 14 6C18.411 6 22 9.589 22 14C22 18.411 18.411 22 14 22Z" fill="black"/>
</g>
</svg>
