<svg width="32" height="32" viewBox="0 0 32 32" fill="none" xmlns="http://www.w3.org/2000/svg">
<path d="M13.6737 8.1175C14.1313 7.63564 14.6824 7.25204 15.2931 6.99008C15.9039 6.72813 16.5616 6.59331 17.2262 6.59383C19.0462 6.59383 20.6725 7.64383 21.5312 9.16633C22.2662 8.81633 23.1062 8.64133 23.9812 8.64133C27.3062 8.64133 30 11.3713 30 14.7313C30 18.0913 27.305 20.8213 23.9613 20.8213C23.5588 20.8213 23.1563 20.77 22.7713 20.7C22.3936 21.3904 21.8365 21.9662 21.159 22.3666C20.4814 22.767 19.7084 22.9771 18.9213 22.975C18.2213 22.975 17.5738 22.8 16.9963 22.5375C16.6095 23.4467 15.9636 24.2219 15.1391 24.7665C14.3146 25.3111 13.3481 25.601 12.36 25.6C11.33 25.6027 10.3241 25.2885 9.47883 24.6999C8.63355 24.1113 7.98982 23.277 7.635 22.31C7.32 22.3823 7.005 22.3987 6.6725 22.3987C4.10117 22.3987 2 20.2987 2 17.6737C2 15.9237 2.94617 14.4012 4.345 13.5787C4.0475 12.9137 3.89 12.1787 3.89 11.425C3.89 8.415 6.34 6 9.315 6C11.1 6 12.64 6.8225 13.655 8.1" fill="black"/>
</svg>
