<svg width="32" height="32" viewBox="0 0 32 32" fill="none" xmlns="http://www.w3.org/2000/svg">
<path d="M4.44183 8.72C9.84117 8.72 21.803 9.4585 29.7562 14.4763C30.0012 14.6338 30.0478 14.7913 29.958 15.0818C29.9125 15.216 27.4485 22.9452 27.4485 22.9452C27.3365 23.28 27.1568 23.28 26.955 23.28H2.448C2.15633 23.28 2 23.0793 2 22.832V9.21233C2 8.92067 2.20183 8.76433 2.53667 8.76433C3.03017 8.76433 3.65667 8.72 4.44183 8.72ZM4.77783 16.1342C4.32983 17.232 5.60617 17.904 6.72617 18.4197C7.6455 18.8222 8.29533 19.248 8.048 19.7182C7.89167 20.1218 7.21967 20.3015 6.32367 20.3015C5.53967 20.3015 4.55383 20.0542 3.76867 19.696L3.32183 20.6818C3.90517 20.928 5.04617 21.2873 6.05417 21.3317C7.91383 21.376 9.14583 20.928 9.63933 19.8978C10.1363 18.7592 8.9685 18.1362 7.86833 17.6077L7.761 17.5552L7.6 17.4782C6.68183 17.0757 6.0775 16.8283 6.235 16.3815C6.39017 15.8437 7.30833 15.6418 8.13783 15.6862C8.5415 15.6862 8.832 15.7317 9.2135 15.8437L9.50517 14.9022C9.1015 14.8123 8.7655 14.7902 8.272 14.7902C6.61533 14.7458 5.136 15.1938 4.77783 16.1342ZM20.6387 14.7225C19.0707 14.7225 17.659 15.2603 16.8073 16.2018C16.8073 16.2462 16.763 16.2462 16.7175 16.2462C16.6732 16.2462 16.6732 16.2462 16.6732 16.2018L17.1212 14.8135H15.7993L14.3212 19.2702C13.8732 17.9717 12.9095 16.2018 11.7662 14.8135H10.3568L9.32667 18.0837C9.84233 18.4862 9.99867 18.7778 10.1783 19.1582C10.1783 19.1582 10.1783 19.2037 10.2227 19.2037C10.2227 19.2037 10.267 19.2037 10.267 19.1582C10.267 19.1138 11.1863 16.336 11.1863 16.336C12.2255 17.8202 13.0196 19.4615 13.5383 21.1975H15.0165L15.7562 18.8677C15.7562 18.8677 15.7562 18.8222 15.8005 18.8222C15.8005 18.8222 15.846 18.8222 15.846 18.8677C16.0467 20.3015 17.526 21.2873 19.6085 21.2873C20.9303 21.2873 22.1635 20.928 22.454 20.7938L23.238 18.3298H26.2398L26.5315 17.3883H23.4842L24.022 15.7982H27.606L27.942 14.8123H22.8787L21.1987 20.1218C20.8183 20.2117 20.3703 20.2338 19.9223 20.2338C18.9365 20.2338 18.1082 19.9877 17.659 19.4498C17.4856 19.2497 17.3609 19.012 17.2949 18.7555C17.2289 18.499 17.2234 18.2307 17.2787 17.9717C17.4805 16.6277 18.8023 15.7538 20.5722 15.7538C20.9525 15.7538 21.3118 15.7538 21.6922 15.8437L22.0737 14.8123C21.67 14.7237 21.1322 14.7237 20.6387 14.7237V14.7225Z" fill="black"/>
</svg>
