<svg width="32" height="32" viewBox="0 0 32 32" fill="none" xmlns="http://www.w3.org/2000/svg">
<path d="M2 16C2 15.4477 2.44771 15 3 15L11.1716 15C11.4368 15 11.6911 14.8946 11.8787 14.7071L18.7071 7.87868C19.2697 7.31607 20.0328 7 20.8284 7L26.5858 7L24.2929 4.70711C23.9024 4.31658 23.9024 3.68342 24.2929 3.29289C24.6834 2.90237 25.3166 2.90237 25.7071 3.29289L29.7071 7.29289C30.0976 7.68342 30.0976 8.31658 29.7071 8.70711L25.7071 12.7071C25.3166 13.0976 24.6834 13.0976 24.2929 12.7071C23.9024 12.3166 23.9024 11.6834 24.2929 11.2929L26.5858 9L20.8284 9C20.5632 9 20.3089 9.10536 20.1213 9.29289L13.4142 16L20.1213 22.7071C20.3089 22.8946 20.5632 23 20.8284 23L26.5858 23L24.2929 20.7071C23.9024 20.3166 23.9024 19.6834 24.2929 19.2929C24.6834 18.9024 25.3166 18.9024 25.7071 19.2929L29.7071 23.2929C30.0976 23.6834 30.0976 24.3166 29.7071 24.7071L25.7071 28.7071C25.3166 29.0976 24.6834 29.0976 24.2929 28.7071C23.9024 28.3166 23.9024 27.6834 24.2929 27.2929L26.5858 25L20.8284 25C20.0328 25 19.2697 24.6839 18.7071 24.1213L11.8787 17.2929C11.6911 17.1054 11.4368 17 11.1716 17L3 17C2.44771 17 2 16.5523 2 16Z" fill="black"/>
</svg>
