<svg width="32" height="32" viewBox="0 0 32 32" fill="none" xmlns="http://www.w3.org/2000/svg">
<path fill-rule="evenodd" clip-rule="evenodd" d="M11 8V6C11 4.89543 11.8954 4 13 4H19C20.1046 4 21 4.89543 21 6V8H26C28.2091 8 30 9.79086 30 12V24C30 26.2091 28.2091 28 26 28H6C3.79086 28 2 26.2091 2 24V12C2 9.79086 3.79086 8 6 8H11ZM13 6H19V8H13V6ZM11 26H6C4.89543 26 4 25.1046 4 24V12C4 10.8954 4.89543 10 6 10H11V26ZM13 26V10H19V26H13ZM21 26H26C27.1046 26 28 25.1046 28 24V12C28 10.8954 27.1046 10 26 10H21V26Z" fill="black"/>
</svg>
