<svg width="32" height="32" viewBox="0 0 32 32" fill="none" xmlns="http://www.w3.org/2000/svg">
<path d="M10 8C10 9.10457 9.10457 10 8 10C6.89543 10 6 9.10457 6 8C6 6.89543 6.89543 6 8 6C9.10457 6 10 6.89543 10 8Z" fill="black"/>
<path fill-rule="evenodd" clip-rule="evenodd" d="M16.3984 18.554V19.0909C16.3984 19.4986 16.4846 19.8748 16.6569 20.2195C16.8293 20.5609 17.0812 20.8343 17.4126 21.0398C17.7441 21.2486 18.1534 21.353 18.6406 21.353C19.1212 21.353 19.5289 21.2486 19.8636 21.0398C20.1984 20.8343 20.4519 20.5609 20.6243 20.2195C20.7966 19.8748 20.8828 19.4986 20.8828 19.0909V18.554C20.8828 18.143 20.7966 17.7668 20.6243 17.4254C20.4552 17.0807 20.2033 16.8056 19.8686 16.6002C19.5372 16.3947 19.1278 16.2919 18.6406 16.2919C18.16 16.2919 17.7524 16.3963 17.4176 16.6051C17.0862 16.8106 16.8326 17.0857 16.6569 17.4304C16.4846 17.7718 16.3984 18.1463 16.3984 18.554ZM17.8452 19.0909V18.554C17.8452 18.312 17.9032 18.0867 18.0192 17.8779C18.1352 17.669 18.3423 17.5646 18.6406 17.5646C18.9522 17.5646 19.161 17.669 19.267 17.8779C19.3731 18.0867 19.4261 18.312 19.4261 18.554V19.0909C19.4261 19.3329 19.3698 19.5566 19.2571 19.7621C19.1477 19.9676 18.9422 20.0703 18.6406 20.0703C18.339 20.0703 18.1302 19.9659 18.0142 19.7571C17.9015 19.5483 17.8452 19.3262 17.8452 19.0909Z" fill="black"/>
<path fill-rule="evenodd" clip-rule="evenodd" d="M11.1733 12.7273V13.2642C11.1733 13.6719 11.2578 14.0464 11.4268 14.3878C11.5992 14.7259 11.8511 14.9993 12.1825 15.2081C12.5173 15.4136 12.9266 15.5163 13.4105 15.5163C13.8944 15.5163 14.3021 15.4153 14.6335 15.2131C14.9683 15.0076 15.2218 14.7341 15.3942 14.3928C15.5698 14.0514 15.6577 13.6752 15.6577 13.2642V12.7273C15.6577 12.3163 15.5715 11.9401 15.3991 11.5987C15.2268 11.254 14.9749 10.9789 14.6434 10.7734C14.312 10.568 13.901 10.4652 13.4105 10.4652C12.9365 10.4652 12.5322 10.568 12.1974 10.7734C11.866 10.9789 11.6124 11.254 11.4368 11.5987C11.2611 11.9401 11.1733 12.3163 11.1733 12.7273ZM12.63 13.2642V12.7273C12.63 12.492 12.6863 12.2682 12.799 12.0561C12.9117 11.844 13.1155 11.7379 13.4105 11.7379C13.7254 11.7379 13.9358 11.8423 14.0419 12.0511C14.1479 12.26 14.201 12.4853 14.201 12.7273V13.2642C14.201 13.5062 14.1446 13.7299 14.0319 13.9354C13.9226 14.1409 13.7154 14.2436 13.4105 14.2436C13.1188 14.2436 12.915 14.1409 12.799 13.9354C12.6863 13.7299 12.63 13.5062 12.63 13.2642Z" fill="black"/>
<path d="M18.8295 10.8182L11.8295 21H13.1321L20.1321 10.8182H18.8295Z" fill="black"/>
<path fill-rule="evenodd" clip-rule="evenodd" d="M2 5C2 3.34315 3.34315 2 5 2H15.1716C15.9672 2 16.7303 2.31607 17.2929 2.87868L29.2929 14.8787C30.4645 16.0503 30.4645 17.9497 29.2929 19.1213L19.1213 29.2929C17.9497 30.4645 16.0503 30.4645 14.8787 29.2929L2.87868 17.2929C2.31607 16.7303 2 15.9672 2 15.1716V5ZM5 4C4.44772 4 4 4.44772 4 5V15.1716C4 15.4368 4.10536 15.6911 4.29289 15.8787L16.2929 27.8787C16.6834 28.2692 17.3166 28.2692 17.7071 27.8787L27.8787 17.7071C28.2692 17.3166 28.2692 16.6834 27.8787 16.2929L15.8787 4.29289C15.6911 4.10536 15.4368 4 15.1716 4H5Z" fill="black"/>
</svg>
