<svg width="32" height="32" viewBox="0 0 32 32" fill="none" xmlns="http://www.w3.org/2000/svg">
<path d="M23.5 22C25.1036 21.9898 26.6468 21.3873 27.833 20.3081C29.0192 19.2289 29.7646 17.7494 29.9258 16.1539C30.0871 14.5584 29.6529 12.9596 28.7067 11.6649C27.7605 10.3701 26.3691 9.47088 24.8 9.14C24.3683 7.12652 23.2591 5.32197 21.6577 4.02747C20.0562 2.73296 18.0592 2.02679 16 2.02679C13.9407 2.02679 11.9438 2.73296 10.3423 4.02747C8.74082 5.32197 7.63169 7.12652 7.19998 9.14C5.63086 9.47088 4.23944 10.3701 3.29323 11.6649C2.34702 12.9596 1.91282 14.5584 2.07411 16.1539C2.2354 17.7494 2.98079 19.2289 4.16697 20.3081C5.35315 21.3873 6.89639 21.9898 8.49998 22L9 22C9.55229 22 10 21.5523 10 21C10 20.4477 9.55229 20 9 20L8.49998 20C7.30651 20.0477 6.14295 19.6194 5.26528 18.8093C4.38761 17.9991 3.86772 16.8735 3.81998 15.68C3.77224 14.4865 4.20056 13.323 5.01072 12.4453C5.82088 11.5676 6.94651 11.0477 8.13998 11H8.99998L9.01998 10.18C9.24184 8.49645 10.0681 6.95094 11.3449 5.83138C12.6217 4.71182 14.2619 4.09455 15.96 4.09455C17.6581 4.09455 19.2983 4.71182 20.5751 5.83138C21.8518 6.95094 22.6781 8.49645 22.9 10.18L23 11H23.86C25.0535 11.0477 26.1791 11.5676 26.9892 12.4453C27.7994 13.323 28.2277 14.4865 28.18 15.68C28.1322 16.8735 27.6124 17.9991 26.7347 18.8093C25.857 19.6194 24.6935 20.0477 23.5 20L23 20C23 20 23 20 23 20C22.4477 20 22 20.4477 22 21C22 21.5523 22.4477 22 23 22" fill="black"/>
<path d="M17.3638 17.5039C17.6421 17.0268 17.4809 16.4145 17.0039 16.1362C16.5268 15.8579 15.9145 16.0191 15.6362 16.4961L12.1362 22.4961C11.9558 22.8054 11.9545 23.1875 12.1329 23.498C12.3112 23.8085 12.6419 24 13 24H17.3258L14.6195 29.0259C14.3577 29.5121 14.5396 30.1186 15.0259 30.3805C15.5122 30.6423 16.1186 30.4604 16.3805 29.9741L19.8805 23.4741C20.0473 23.1642 20.039 22.7894 19.8585 22.4872C19.678 22.185 19.352 22 19 22H14.741L17.3638 17.5039Z" fill="black"/>
</svg>
