<svg width="32" height="32" viewBox="0 0 32 32" fill="none" xmlns="http://www.w3.org/2000/svg">
<path d="M26 2C26.5523 2 27 2.44772 27 3L27 29C27 29.5523 26.5523 30 26 30V30C25.4477 30 25 29.5523 25 29L25 3C25 2.44771 25.4477 2 26 2V2Z" fill="black"/>
<path fill-rule="evenodd" clip-rule="evenodd" d="M21 11L21 9L15 9L15 11L21 11ZM23 9C23 7.89543 22.1046 7 21 7L15 7C13.8954 7 13 7.89543 13 9L13 11C13 12.1046 13.8954 13 15 13L21 13C22.1046 13 23 12.1046 23 11L23 9Z" fill="black"/>
<path fill-rule="evenodd" clip-rule="evenodd" d="M21 23L21 17L7 17L7 23L21 23ZM23 17C23 15.8954 22.1046 15 21 15L7 15C5.89543 15 5 15.8954 5 17L5 23C5 24.1046 5.89543 25 7 25L21 25C22.1046 25 23 24.1046 23 23L23 17Z" fill="black"/>
</svg>
