<svg width="32" height="32" viewBox="0 0 32 32" fill="none" xmlns="http://www.w3.org/2000/svg">
<path d="M2.99701 25C2.76301 25 2.53399 24.918 2.35199 24.765C2.12599 24.575 1.99701 24.295 1.99701 24V12.43C1.99701 11.943 2.34901 11.526 2.82901 11.445L28.835 7.01502C29.126 6.96502 29.423 7.04603 29.647 7.23603C29.873 7.42603 30.002 7.70598 30.002 8.00098V19.571C30.002 20.058 29.65 20.475 29.17 20.556L3.164 24.986C3.108 24.996 3.052 25.001 2.996 25.001L2.99701 25ZM3.99701 13.273V22.815L28.003 18.726V9.18402L3.99701 13.273Z" fill="black"/>
</svg>
