<svg width="32" height="32" viewBox="0 0 32 32" fill="none" xmlns="http://www.w3.org/2000/svg">
<path d="M27.4471 16.105L5.44705 5.105C5.10905 4.938 4.70305 4.972 4.40005 5.2C4.09605 5.428 3.94802 5.80597 4.01602 6.17897L5.98202 16.991L4.01901 26.803C3.94601 27.171 4.08304 27.549 4.37704 27.782C4.55804 27.925 4.77705 27.999 4.99905 27.999C5.14005 27.999 5.28006 27.97 5.41306 27.909L27.4131 17.909C27.7641 17.75 27.9921 17.403 27.9991 17.017C28.0061 16.631 27.791 16.277 27.446 16.104L27.4471 16.105ZM6.36301 25.282L7.819 18H13.9991C14.5521 18 14.9991 17.553 14.9991 17C14.9991 16.447 14.5521 16 13.9991 16H7.83304L6.34103 7.78899L24.677 16.957L6.36301 25.282Z" fill="black"/>
</svg>
