<svg width="32" height="32" viewBox="0 0 32 32" fill="none" xmlns="http://www.w3.org/2000/svg">
<path d="M22.9141 16.5L25.707 13.707C25.7999 13.6142 25.8736 13.5039 25.9238 13.3826C25.9741 13.2613 26 13.1313 26 13C26 12.8687 25.9741 12.7386 25.9238 12.6173C25.8736 12.496 25.7999 12.3858 25.707 12.293L23.4141 9.99997L25.5 7.91407L27.8788 10.2929C28.2693 10.6834 28.9024 10.6834 29.2929 10.2929C29.6834 9.90243 29.6834 9.26932 29.2929 8.87882L23.1211 2.70702C22.7306 2.31653 22.0975 2.31653 21.707 2.70702C21.3165 3.09752 21.3165 3.73063 21.707 4.12112L24.0859 6.49997L22 8.58587L19.707 6.29297C19.6142 6.20008 19.5039 6.12638 19.3826 6.0761C19.2613 6.02582 19.1313 5.99994 19 5.99994C18.8687 5.99994 18.7386 6.02582 18.6173 6.0761C18.496 6.12638 18.3858 6.20008 18.293 6.29297L15.5 9.08587L8.70697 2.29297C8.61416 2.20008 8.50395 2.12638 8.38264 2.0761C8.26132 2.02582 8.13129 1.99994 7.99997 1.99994C7.86866 1.99994 7.73862 2.02582 7.61731 2.0761C7.496 2.12638 7.38579 2.20008 7.29297 2.29297L2.29297 7.29297C2.20008 7.38579 2.12638 7.496 2.0761 7.61731C2.02582 7.73862 1.99994 7.86866 1.99994 7.99997C1.99994 8.13129 2.02582 8.26132 2.0761 8.38264C2.12638 8.50395 2.20008 8.61416 2.29297 8.70697L9.08587 15.5L6.29297 18.293C6.20008 18.3858 6.12638 18.496 6.0761 18.6173C6.02582 18.7386 5.99994 18.8687 5.99994 19C5.99994 19.1313 6.02582 19.2613 6.0761 19.3826C6.12638 19.5039 6.20008 19.6142 6.29297 19.707L8.58587 22L6.49997 24.0859L4.12112 21.707C3.73063 21.3165 3.09752 21.3165 2.70702 21.707C2.31653 22.0975 2.31653 22.7306 2.70702 23.1211L8.87882 29.2929C9.26932 29.6834 9.90243 29.6834 10.2929 29.2929C10.6834 28.9024 10.6834 28.2693 10.2929 27.8788L7.91407 25.5L9.99997 23.4141L12.293 25.707C12.3858 25.7999 12.496 25.8735 12.6173 25.9238C12.7386 25.9741 12.8687 26 13 26C13.1313 26 13.2613 25.9741 13.3826 25.9238C13.5039 25.8735 13.6142 25.7999 13.707 25.707L16.5 22.9141L23.293 29.707C23.3858 29.7999 23.496 29.8735 23.6173 29.9238C23.7386 29.9741 23.8687 30 24 30C24.1313 30 24.2613 29.9741 24.3826 29.9238C24.5039 29.8735 24.6142 29.7999 24.707 29.707L29.707 24.707C29.7999 24.6142 29.8736 24.5039 29.9238 24.3826C29.9741 24.2613 30 24.1313 30 24C30 23.8687 29.9741 23.7386 29.9238 23.6173C29.8736 23.496 29.7999 23.3858 29.707 23.293L22.9141 16.5ZM4.41407 7.99997L7.99997 4.41407L10.0859 6.49997L6.49997 10.0859L4.41407 7.99997ZM7.91407 11.5L11.5 7.91407L14.0859 10.5L10.5 14.0859L7.91407 11.5ZM13 23.5859L8.41407 19L19 8.41407L23.5859 13L13 23.5859ZM17.9141 21.5L21.5 17.9141L24.0859 20.5L20.5 24.0859L17.9141 21.5ZM24 27.5859L21.9141 25.5L25.5 21.9141L27.5859 24L24 27.5859Z" fill="black"/>
</svg>
