<svg width="32" height="32" viewBox="0 0 32 32" fill="none" xmlns="http://www.w3.org/2000/svg">
<path d="M31 17.875C31 18.91 30.8021 19.8817 30.4062 20.79C30.0112 21.6983 29.4742 22.4917 28.795 23.17C28.1167 23.8492 27.3233 24.3867 26.415 24.7825C25.5067 25.1775 24.535 25.375 23.5 25.375C22.865 25.375 22.2304 25.2917 21.5962 25.125C21.5079 25.9558 21.2758 26.73 20.9 27.4475C20.5242 28.1658 20.0433 28.7883 19.4575 29.315C18.8708 29.8425 18.2017 30.255 17.45 30.5525C16.6983 30.8508 15.9025 31 15.0625 31C14.1542 31 13.3021 30.8267 12.5062 30.48C11.7104 30.1333 11.0171 29.6646 10.4262 29.0737C9.83542 28.4829 9.36667 27.7896 9.02 26.9938C8.67333 26.1979 8.5 25.3458 8.5 24.4375C8.5 24.2808 8.5075 24.1246 8.5225 23.9688C8.53667 23.8121 8.55333 23.6558 8.5725 23.5H2.24625C1.90458 23.5 1.61167 23.3779 1.3675 23.1338C1.12333 22.8896 1.00083 22.5967 1 22.255V9.745C1 9.40333 1.12208 9.11042 1.36625 8.86625C1.61042 8.62208 1.90333 8.5 2.245 8.5H6.67C6.78667 7.43583 7.08917 6.44708 7.5775 5.53375C8.06583 4.62042 8.68583 3.82708 9.4375 3.15375C10.1892 2.47958 11.0463 1.95208 12.0088 1.57125C12.9696 1.19042 13.9875 1 15.0625 1C16.225 1 17.3188 1.22208 18.3438 1.66625C19.3687 2.11042 20.2625 2.71333 21.025 3.475C21.7867 4.2375 22.3896 5.13125 22.8337 6.15625C23.2779 7.18125 23.5 8.275 23.5 9.4375C23.5 9.59417 23.495 9.75042 23.485 9.90625C23.4758 10.0629 23.4612 10.2192 23.4412 10.375C24.4762 10.375 25.4529 10.5704 26.3713 10.9612C27.2888 11.3512 28.0921 11.8833 28.7813 12.5575C29.4696 13.2317 30.0112 14.025 30.4062 14.9375C30.8021 15.8508 31 16.83 31 17.875ZM15.0625 2.875C14.2517 2.875 13.4779 3.01667 12.7412 3.3C12.0037 3.58333 11.3467 3.97625 10.77 4.47875C10.1942 4.98208 9.71333 5.57792 9.3275 6.26625C8.9425 6.95458 8.69167 7.69917 8.575 8.5H14.7563C15.0979 8.5 15.3908 8.62208 15.635 8.86625C15.8792 9.11042 16.0013 9.40333 16.0013 9.745V15.9262L16.2638 15.8825C16.4404 15.2575 16.6946 14.6642 17.0263 14.1025C17.3588 13.5417 17.7521 13.0342 18.2063 12.58C18.6604 12.1258 19.1658 11.7325 19.7225 11.4C20.2792 11.0683 20.875 10.8142 21.51 10.6375C21.5875 10.2183 21.6262 9.81833 21.6262 9.4375C21.6262 8.52917 21.4529 7.67708 21.1062 6.88125C20.7596 6.08542 20.2908 5.39208 19.7 4.80125C19.1092 4.21042 18.4158 3.74167 17.62 3.395C16.8233 3.04833 15.9708 2.875 15.0625 2.875ZM8.64625 20.8775C9.09625 20.8775 9.53792 20.8313 9.97125 20.7388C10.4063 20.6463 10.7946 20.4921 11.1363 20.2762C11.4779 20.0621 11.7537 19.7792 11.9637 19.4275C12.1737 19.0758 12.2787 18.6363 12.2787 18.1088C12.2787 17.5821 12.1692 17.1429 11.95 16.7913C11.73 16.4396 11.4542 16.1467 11.1225 15.9125C10.79 15.6775 10.4333 15.4846 10.0525 15.3338L8.98375 14.9087C8.65125 14.7771 8.37542 14.6379 8.15625 14.4913C7.93625 14.3446 7.82625 14.1592 7.82625 13.935C7.82625 13.7683 7.88458 13.6337 8.00125 13.5312C8.11875 13.4287 8.25833 13.3483 8.42 13.29C8.58083 13.2317 8.74917 13.1925 8.925 13.1725C9.1 13.1533 9.24625 13.1438 9.36375 13.1438C9.86208 13.1438 10.3017 13.2071 10.6825 13.3337C11.0633 13.4612 11.4592 13.6517 11.87 13.905V11.6788C11.635 11.6104 11.4175 11.5521 11.2175 11.5037C11.0175 11.4537 10.8196 11.4121 10.6237 11.3788C10.4287 11.3446 10.2262 11.32 10.0162 11.305C9.80625 11.2908 9.57417 11.2838 9.32 11.2838C8.89083 11.2838 8.45167 11.3325 8.0025 11.43C7.5525 11.5275 7.14458 11.6837 6.77875 11.8987C6.41208 12.1137 6.11417 12.3971 5.885 12.7488C5.65583 13.0996 5.54125 13.5287 5.54125 14.0362C5.54125 14.5346 5.65083 14.95 5.87 15.2825C6.09 15.6142 6.36625 15.8975 6.69875 16.1325C7.03042 16.3658 7.38667 16.5633 7.7675 16.725L8.8375 17.1787C9.16917 17.3204 9.445 17.4696 9.665 17.6262C9.88417 17.7821 9.99375 17.9725 9.99375 18.1975C9.99375 18.3825 9.9425 18.5288 9.84 18.6363C9.7375 18.7446 9.60833 18.8279 9.4525 18.8863C9.29583 18.9446 9.13208 18.9808 8.96125 18.995C8.79042 19.01 8.63667 19.0175 8.5 19.0175C7.91417 19.0175 7.39417 18.92 6.94 18.725C6.48583 18.5292 6.02458 18.2704 5.55625 17.9488V20.2925C6.55208 20.6825 7.58208 20.8775 8.64625 20.8775ZM15.0625 29.125C15.7067 29.125 16.3121 29.0029 16.8788 28.7588C17.4454 28.5146 17.9412 28.18 18.3662 27.755C18.7912 27.33 19.1279 26.8321 19.3763 26.2612C19.6254 25.6896 19.75 25.0817 19.75 24.4375C19.75 23.8808 19.6571 23.3487 19.4713 22.8412C19.2863 22.3329 19.0279 21.8763 18.6962 21.4713C18.3629 21.0663 17.9671 20.7221 17.5087 20.4387C17.0504 20.1554 16.5475 19.9554 16 19.8388V22.255C16 22.5967 15.8779 22.8896 15.6337 23.1338C15.3896 23.3779 15.0967 23.5 14.755 23.5H10.4625C10.4042 23.8125 10.375 24.125 10.375 24.4375C10.375 25.0817 10.4971 25.6896 10.7413 26.2612C10.9854 26.8329 11.32 27.3308 11.745 27.755C12.17 28.18 12.6679 28.5146 13.2388 28.7588C13.8104 29.0029 14.4183 29.125 15.0625 29.125ZM23.5 23.5C24.2717 23.5 24.9992 23.3533 25.6825 23.06C26.3658 22.7675 26.9642 22.365 27.4775 21.8525C27.99 21.3392 28.3925 20.7433 28.685 20.065C28.9783 19.3858 29.125 18.6558 29.125 17.875C29.125 17.1033 28.9783 16.3758 28.685 15.6925C28.3925 15.0092 27.99 14.4108 27.4775 13.8975C26.9642 13.385 26.3658 12.9825 25.6825 12.69C24.9992 12.3967 24.2717 12.25 23.5 12.25C22.7283 12.25 22.0033 12.3988 21.325 12.6963C20.6458 12.9946 20.05 13.4 19.5375 13.9125C19.025 14.425 18.6196 15.0208 18.3213 15.7C18.0238 16.3783 17.875 17.1033 17.875 17.875C17.875 17.9825 17.8775 18.09 17.8825 18.1975C17.8875 18.305 17.8946 18.4125 17.9037 18.52C18.3629 18.745 18.7879 19.0158 19.1788 19.3325C19.5696 19.6492 19.9187 20.0054 20.2262 20.4012C20.5337 20.7971 20.795 21.2246 21.01 21.6838C21.225 22.1421 21.3863 22.6204 21.4938 23.1187C22.1479 23.3729 22.8167 23.5 23.5 23.5Z" fill="black"/>
</svg>
