<svg width="32" height="32" viewBox="0 0 32 32" fill="none" xmlns="http://www.w3.org/2000/svg">
<path fill-rule="evenodd" clip-rule="evenodd" d="M2 7C2 6.44772 2.44772 6 3 6H29C29.5523 6 30 6.44772 30 7V9C30 9.55228 29.5523 10 29 10H3C2.44771 10 2 9.55228 2 9V7ZM2 13C2 12.4477 2.44772 12 3 12H29C29.5523 12 30 12.4477 30 13C30 13.5523 29.5523 14 29 14H3C2.44771 14 2 13.5523 2 13ZM3 16C2.44772 16 2 16.4477 2 17C2 17.5523 2.44772 18 3 18H23C23.5523 18 24 17.5523 24 17C24 16.4477 23.5523 16 23 16H3ZM2 21C2 20.4477 2.44772 20 3 20H25C25.5523 20 26 20.4477 26 21C26 21.5523 25.5523 22 25 22H3C2.44772 22 2 21.5523 2 21ZM3 24C2.44772 24 2 24.4477 2 25C2 25.5523 2.44772 26 3 26H16C16.5523 26 17 25.5523 17 25C17 24.4477 16.5523 24 16 24H3Z" fill="black"/>
</svg>
