<svg width="32" height="32" viewBox="0 0 32 32" fill="none" xmlns="http://www.w3.org/2000/svg">
<path d="M7.31437 19.9524C7.31439 20.5749 7.12982 21.1834 6.784 21.701C6.43817 22.2186 5.94663 22.622 5.37152 22.8603C4.79642 23.0985 4.16358 23.1608 3.55305 23.0394C2.94251 22.9179 2.3817 22.6182 1.94153 22.178C1.50136 21.7379 1.2016 21.177 1.08017 20.5665C0.958729 19.956 1.02107 19.3231 1.2593 18.748C1.49753 18.1729 1.90095 17.6814 2.41854 17.3356C2.93614 16.9897 3.54466 16.8052 4.16716 16.8052H7.31437V19.9524ZM8.90027 19.9524C8.9055 19.1211 9.2394 18.3257 9.82906 17.7397C10.4187 17.1538 11.2162 16.8249 12.0475 16.8249C12.8788 16.8249 13.6764 17.1538 14.266 17.7397C14.8557 18.3257 15.1896 19.1211 15.1948 19.9524V27.8328C15.1974 28.2478 15.118 28.6592 14.961 29.0433C14.804 29.4275 14.5726 29.7768 14.28 30.0711C13.9875 30.3655 13.6397 30.5991 13.2566 30.7585C12.8734 30.9179 12.4625 31 12.0475 31C11.6326 31 11.2217 30.9179 10.8385 30.7585C10.4554 30.5991 10.1076 30.3655 9.81504 30.0711C9.52253 29.7768 9.29112 29.4275 9.13413 29.0433C8.97713 28.6592 8.89766 28.2478 8.90027 27.8328V19.9524ZM12.0476 7.31437C11.4251 7.31439 10.8166 7.12982 10.299 6.784C9.7814 6.43817 9.37797 5.94663 9.13974 5.37152C8.90151 4.79642 8.83918 4.16358 8.96061 3.55305C9.08205 2.94251 9.38181 2.3817 9.82198 1.94153C10.2621 1.50136 10.823 1.2016 11.4335 1.08017C12.044 0.958729 12.6769 1.02107 13.252 1.2593C13.8271 1.49753 14.3186 1.90095 14.6644 2.41854C15.0103 2.93614 15.1948 3.54466 15.1948 4.16716V7.31437H12.0476ZM12.0476 8.90027C12.8789 8.9055 13.6743 9.2394 14.2603 9.82906C14.8462 10.4187 15.1751 11.2162 15.1751 12.0475C15.1751 12.8788 14.8462 13.6764 14.2603 14.266C13.6743 14.8557 12.8789 15.1896 12.0476 15.1948H4.16716C3.75218 15.1974 3.34079 15.118 2.95665 14.961C2.57251 14.804 2.22321 14.5726 1.92885 14.28C1.63449 13.9875 1.40089 13.6397 1.24148 13.2566C1.08207 12.8734 1 12.4625 1 12.0475C1 11.6326 1.08207 11.2217 1.24148 10.8385C1.40089 10.4554 1.63449 10.1076 1.92885 9.81504C2.22321 9.52253 2.57251 9.29112 2.95665 9.13413C3.34079 8.97713 3.75218 8.89766 4.16716 8.90027H12.0476ZM24.6856 12.0476C24.6856 11.4251 24.8702 10.8166 25.216 10.299C25.5618 9.7814 26.0534 9.37797 26.6285 9.13974C27.2036 8.90151 27.8364 8.83918 28.447 8.96061C29.0575 9.08205 29.6183 9.38181 30.0585 9.82198C30.4986 10.2621 30.7984 10.823 30.9198 11.4335C31.0413 12.044 30.9789 12.6769 30.7407 13.252C30.5025 13.8271 30.0991 14.3186 29.5815 14.6644C29.0639 15.0103 28.4553 15.1948 27.8328 15.1948H24.6856V12.0476ZM23.0997 12.0476C23.0945 12.8789 22.7606 13.6743 22.1709 14.2603C21.5813 14.8462 20.7837 15.1751 19.9525 15.1751C19.1212 15.1751 18.3236 14.8462 17.734 14.2603C17.1443 13.6743 16.8104 12.8789 16.8052 12.0476V4.16716C16.8026 3.75218 16.882 3.34079 17.039 2.95665C17.196 2.57251 17.4274 2.22321 17.72 1.92885C18.0125 1.63449 18.3603 1.40089 18.7434 1.24148C19.1266 1.08207 19.5375 1 19.9525 1C20.3674 1 20.7783 1.08207 21.1615 1.24148C21.5446 1.40089 21.8924 1.63449 22.185 1.92885C22.4775 2.22321 22.7089 2.57251 22.8659 2.95665C23.0229 3.34079 23.1023 3.75218 23.0997 4.16716V12.0476ZM19.9524 24.6856C20.5749 24.6856 21.1834 24.8702 21.701 25.216C22.2186 25.5618 22.622 26.0534 22.8603 26.6285C23.0985 27.2036 23.1608 27.8364 23.0394 28.447C22.9179 29.0575 22.6182 29.6183 22.178 30.0585C21.7379 30.4986 21.177 30.7984 20.5665 30.9198C19.956 31.0413 19.3231 30.9789 18.748 30.7407C18.1729 30.5025 17.6814 30.0991 17.3356 29.5815C16.9897 29.0639 16.8052 28.4553 16.8052 27.8328V24.6856H19.9524ZM19.9524 23.0997C19.1211 23.0945 18.3257 22.7606 17.7397 22.1709C17.1538 21.5813 16.8249 20.7837 16.8249 19.9525C16.8249 19.1212 17.1538 18.3236 17.7397 17.734C18.3257 17.1443 19.1211 16.8104 19.9524 16.8052H27.8328C28.2478 16.8026 28.6592 16.882 29.0433 17.039C29.4275 17.196 29.7768 17.4274 30.0711 17.72C30.3655 18.0125 30.5991 18.3603 30.7585 18.7434C30.9179 19.1266 31 19.5375 31 19.9525C31 20.3674 30.9179 20.7783 30.7585 21.1615C30.5991 21.5446 30.3655 21.8924 30.0711 22.185C29.7768 22.4775 29.4275 22.7089 29.0433 22.8659C28.6592 23.0229 28.2478 23.1023 27.8328 23.0997H19.9524Z" fill="black"/>
</svg>
