<svg width="32" height="32" viewBox="0 0 32 32" fill="none" xmlns="http://www.w3.org/2000/svg">
<path d="M19.8932 29.9755L28.3118 28.1543C28.3118 28.1543 25.2738 7.60583 25.2493 7.46933C25.2283 7.334 25.1163 7.24533 25.0032 7.24533C24.89 7.24533 22.7527 7.08667 22.7527 7.08667C22.7527 7.08667 21.2652 5.60033 21.0738 5.4405C21.0213 5.39733 20.9863 5.374 20.9327 5.35417L19.8663 29.9755H19.8932ZM15.6617 15.1892C15.6617 15.1892 14.7167 14.6945 13.592 14.6945C11.9038 14.6945 11.8373 15.7515 11.8373 16.0257C11.8373 17.463 15.6173 18.0265 15.6173 21.4262C15.6173 24.1037 13.9373 25.8128 11.6437 25.8128C8.89733 25.8128 7.51366 24.1037 7.51366 24.1037L8.26733 21.67C8.26733 21.67 9.71983 22.9137 10.9273 22.9137C11.7148 22.9137 12.0648 22.2778 12.0648 21.8263C12.0648 19.9375 8.9685 19.85 8.9685 16.7408C8.92883 14.131 10.8013 11.5888 14.6 11.5888C16.0665 11.5888 16.7875 12.01 16.7875 12.01L15.685 15.1775L15.6617 15.1892ZM15.0317 2.96833C15.1903 2.96833 15.3478 3.01267 15.5042 3.12583C14.3562 3.66833 13.0962 5.038 12.5782 7.78317C11.8128 8.03167 11.0697 8.25567 10.3743 8.4575C10.9798 6.375 12.4428 2.98 15.0317 2.98V2.96833ZM16.4725 6.40883V6.56633C15.5928 6.837 14.6257 7.131 13.6795 7.425C14.2232 5.35183 15.2347 4.33917 16.112 3.95883C16.3372 4.54333 16.4725 5.33083 16.4725 6.40883ZM17.1013 3.8025C17.911 3.88883 18.4325 4.814 18.7685 5.85C18.3613 5.983 17.911 6.1195 17.4175 6.277V5.983C17.4175 5.10567 17.3055 4.3835 17.1013 3.80017V3.8025ZM20.592 5.30633C20.5687 5.30633 20.522 5.33083 20.501 5.33083C20.48 5.33083 20.1638 5.41833 19.668 5.57583C19.1745 4.13733 18.296 2.81083 16.742 2.81083H16.6078C16.1575 2.24383 15.6138 2 15.1425 2C11.5188 2 9.7875 6.52317 9.245 8.82033C7.852 9.24617 6.83816 9.56233 6.725 9.60667C5.9375 9.85517 5.91533 9.87733 5.82433 10.6217C5.73683 11.1607 3.68933 27.0285 3.68933 27.0285L19.5105 30L20.592 5.30633Z" fill="black"/>
</svg>
