<svg width="32" height="32" viewBox="0 0 32 32" fill="none" xmlns="http://www.w3.org/2000/svg">
<g id="AisStarHalfFilled">
<path id="Vector" d="M28.948 12.85C28.829 12.495 28.521 12.236 28.151 12.179L20.387 10.992L16.906 3.57501C16.741 3.22401 16.388 3 16.001 3C15.614 3 15.26 3.22501 15.096 3.57501L11.615 10.992L3.85101 12.179C3.48001 12.236 3.17298 12.494 3.05398 12.85C2.93498 13.206 3.02501 13.597 3.28601 13.866L8.93301 19.654L7.59799 27.84C7.53599 28.218 7.696 28.598 8.009 28.819C8.323 29.04 8.733 29.063 9.069 28.877L16.002 25.045L22.935 28.877C23.086 28.961 23.253 29.002 23.419 29.002C23.621 29.002 23.823 28.94 23.995 28.819C24.308 28.598 24.468 28.218 24.406 27.84L23.071 19.654L28.718 13.866C28.98 13.597 29.07 13.206 28.95 12.85H28.948ZM21.284 18.619C21.062 18.847 20.962 19.165 21.013 19.478L22.098 26.129L16.484 23.025C16.334 22.942 16.167 22.9 16 22.9V6.35303L18.803 12.325C18.945 12.627 19.228 12.839 19.557 12.888L25.925 13.861L21.284 18.618V18.619Z" fill="black"/>
</g>
</svg>
