<svg width="32" height="32" viewBox="0 0 32 32" fill="none" xmlns="http://www.w3.org/2000/svg">
<path d="M5 11C5 8.23858 7.23858 6 10 6H19C21.7614 6 24 8.23858 24 11V12.5858L21.7071 10.2929C21.3166 9.90237 20.6834 9.90237 20.2929 10.2929C19.9024 10.6834 19.9024 11.3166 20.2929 11.7071L24.2929 15.7071C24.6834 16.0976 25.3166 16.0976 25.7071 15.7071L29.7071 11.7071C30.0976 11.3166 30.0976 10.6834 29.7071 10.2929C29.3166 9.90237 28.6834 9.90237 28.2929 10.2929L26 12.5858V11C26 7.13401 22.866 4 19 4H10C6.13401 4 3 7.13401 3 11V18C3 18.5523 3.44772 19 4 19C4.55228 19 5 18.5523 5 18V11Z" fill="black"/>
<path d="M4 21C2.89543 21 2 21.8954 2 23C2 24.1046 2.89543 25 4 25C5.10457 25 6 24.1046 6 23C6 21.8954 5.10457 21 4 21Z" fill="black"/>
<path fill-rule="evenodd" clip-rule="evenodd" d="M20 22C20 19.7909 21.7909 18 24 18H26C28.2091 18 30 19.7909 30 22V24C30 26.2091 28.2091 28 26 28H24C21.7909 28 20 26.2091 20 24V22ZM24 20H26C27.1046 20 28 20.8954 28 22V24C28 25.1046 27.1046 26 26 26H24C22.8954 26 22 25.1046 22 24V22C22 20.8954 22.8954 20 24 20Z" fill="black"/>
</svg>
