<svg width="32" height="32" viewBox="0 0 32 32" fill="none" xmlns="http://www.w3.org/2000/svg">
<path fill-rule="evenodd" clip-rule="evenodd" d="M11 7V5C11 3.89543 11.8954 3 13 3H19C20.1046 3 21 3.89543 21 5V7H26C28.2091 7 30 8.79086 30 11V23C30 25.2091 28.2091 27 26 27H6C3.79086 27 2 25.2091 2 23V11C2 8.79086 3.79086 7 6 7H11ZM13 5H19V7H13V5ZM11 25H6C4.89543 25 4 24.1046 4 23V11C4 9.89543 4.89543 9 6 9H11V25ZM13 25V9H19V25H13ZM21 25H26C27.1046 25 28 24.1046 28 23V11C28 9.89543 27.1046 9 26 9H21V25Z" fill="black"/>
</svg>
