<svg width="32" height="32" viewBox="0 0 32 32" fill="none" xmlns="http://www.w3.org/2000/svg">
<path fill-rule="evenodd" clip-rule="evenodd" d="M14 10C14 11.6569 12.6569 13 11 13C9.34315 13 8 11.6569 8 10C8 8.34315 9.34315 7 11 7C12.6569 7 14 8.34315 14 10ZM12 10C12 10.5523 11.5523 11 11 11C10.4477 11 10 10.5523 10 10C10 9.44772 10.4477 9 11 9C11.5523 9 12 9.44772 12 10Z" fill="black"/>
<path d="M11 14C10.3434 14 9.69321 14.1293 9.08658 14.3806C8.47995 14.6319 7.92876 15.0002 7.46447 15.4645C7.00017 15.9288 6.63188 16.48 6.3806 17.0866C6.12933 17.6932 6 18.3434 6 19V20C6 20.5523 6.44772 21 7 21C7.55228 21 8 20.5523 8 20V19C8 18.606 8.0776 18.2159 8.22836 17.8519C8.37913 17.488 8.6001 17.1573 8.87868 16.8787C9.15726 16.6001 9.48797 16.3791 9.85195 16.2284C10.2159 16.0776 10.606 16 11 16C11.394 16 11.7841 16.0776 12.1481 16.2284C12.512 16.3791 12.8427 16.6001 13.1213 16.8787C13.3999 17.1573 13.6209 17.488 13.7716 17.8519C13.9224 18.2159 14 18.606 14 19V20C14 20.5523 14.4477 21 15 21C15.5523 21 16 20.5523 16 20V19C16 18.3434 15.8707 17.6932 15.6194 17.0866C15.3681 16.48 14.9998 15.9288 14.5355 15.4645C14.0712 15.0002 13.52 14.6319 12.9134 14.3806C12.3068 14.1293 11.6566 14 11 14Z" fill="black"/>
<path d="M24.2929 9.29289C24.6834 8.90237 25.3166 8.90237 25.7071 9.29289C26.0976 9.68342 26.0976 10.3166 25.7071 10.7071L21.7071 14.7071C21.3166 15.0976 20.6834 15.0976 20.2929 14.7071L17.2929 11.7071C16.9024 11.3166 16.9024 10.6834 17.2929 10.2929C17.6834 9.90237 18.3166 9.90237 18.7071 10.2929L21 12.5858L24.2929 9.29289Z" fill="black"/>
<path fill-rule="evenodd" clip-rule="evenodd" d="M30 5C30 3.89543 29.1046 3 28 3H4C2.89543 3 2 3.89543 2 5V23C2 24.1046 2.89543 25 4 25H10.9038C11.4342 25 11.9429 25.2107 12.318 25.5858L14.7197 27.9875C15.5007 28.7685 16.7671 28.7685 17.5481 27.9875L19.9498 25.5858C20.3249 25.2107 20.8336 25 21.364 25H28C29.1046 25 30 24.1046 30 23V5ZM4 5H28V23H21.364C20.3032 23 19.2858 23.4214 18.5356 24.1716L16.1339 26.5733L13.7322 24.1716C12.9821 23.4214 11.9647 23 10.9038 23H4V5Z" fill="black"/>
</svg>
