<svg width="32" height="32" viewBox="0 0 32 32" fill="none" xmlns="http://www.w3.org/2000/svg">
<path d="M12 15C12 16.1046 11.1046 17 10 17C8.89543 17 8 16.1046 8 15C8 13.8954 8.89543 13 10 13C11.1046 13 12 13.8954 12 15Z" fill="black"/>
<path d="M18 15C18 16.1046 17.1046 17 16 17C14.8954 17 14 16.1046 14 15C14 13.8954 14.8954 13 16 13C17.1046 13 18 13.8954 18 15Z" fill="black"/>
<path d="M24 15C24 16.1046 23.1046 17 22 17C20.8954 17 20 16.1046 20 15C20 13.8954 20.8954 13 22 13C23.1046 13 24 13.8954 24 15Z" fill="black"/>
<path fill-rule="evenodd" clip-rule="evenodd" d="M4.49475 28C5.12728 28 5.74631 27.9687 6.34685 27.9089C8.97898 27.6467 11.256 26.8358 12.7579 25.7036C13.7985 25.8974 14.884 26 16 26C23.732 26 30 21.0751 30 15C30 8.92487 23.732 4 16 4C8.26804 4 2.00003 8.92487 2.00003 15C2.00003 18.4664 4.04077 21.5584 7.22979 23.5746C6.82346 24.4831 6.24259 25.2955 5.53016 25.9686C5.21026 26.2708 4.86382 26.545 4.49475 26.7871C3.74559 27.2786 2.90316 27.6382 2 27.8331C2.79821 27.9421 3.63399 28 4.49475 28ZM9.0555 24.3912L9.76275 22.8098L8.29857 21.8841C5.54418 20.1427 4.00003 17.6249 4.00003 15C4.00003 10.4519 8.89642 6 16 6C23.1036 6 28 10.4519 28 15C28 19.5481 23.1036 24 16 24C15.0065 24 14.0436 23.9087 13.1242 23.7374L12.2578 23.576L11.554 24.1065C10.8152 24.6635 9.75724 25.1596 8.46615 25.5041C8.68611 25.148 8.88322 24.7764 9.0555 24.3912Z" fill="black"/>
</svg>
