<svg width="32" height="32" viewBox="0 0 32 32" fill="none" xmlns="http://www.w3.org/2000/svg">
<path d="M2 6C2 5.44772 2.44772 5 3 5H29C29.5523 5 30 5.44772 30 6V6C30 6.55228 29.5523 7 29 7H3C2.44771 7 2 6.55228 2 6V6Z" fill="black"/>
<path fill-rule="evenodd" clip-rule="evenodd" d="M11 11H9L9 17H11V11ZM9 9C7.89543 9 7 9.89543 7 11V17C7 18.1046 7.89543 19 9 19H11C12.1046 19 13 18.1046 13 17V11C13 9.89543 12.1046 9 11 9H9Z" fill="black"/>
<path fill-rule="evenodd" clip-rule="evenodd" d="M23 11H17L17 25H23V11ZM17 9C15.8954 9 15 9.89543 15 11V25C15 26.1046 15.8954 27 17 27H23C24.1046 27 25 26.1046 25 25V11C25 9.89543 24.1046 9 23 9H17Z" fill="black"/>
</svg>
