<svg width="32" height="32" viewBox="0 0 32 32" fill="none" xmlns="http://www.w3.org/2000/svg">
<g id="AisShield">
<path id="Vector" d="M16 30C15.833 30 15.667 29.958 15.517 29.875C15.088 29.639 5 23.972 5 15.565V4.13002C5 3.62102 5.382 3.193 5.888 3.136L15.888 2.00502C15.962 1.99702 16.038 1.99702 16.113 2.00502L26.113 3.136C26.619 3.194 27.001 3.62102 27.001 4.13002V15.565C27.001 23.971 16.914 29.638 16.484 29.875C16.334 29.958 16.167 30 16.001 30H16ZM7 5.02401V15.565C7 21.844 14.064 26.64 16 27.836C17.934 26.638 25 21.83 25 15.565V5.02401L16 4.006L7 5.02401Z" fill="black"/>
</g>
</svg>
