<svg width="32" height="32" viewBox="0 0 32 32" fill="none" xmlns="http://www.w3.org/2000/svg">
<path opacity="0.2" d="M16 29.993C12.415 29.993 8.83001 28.629 6.10101 25.899C0.643007 20.44 0.643007 11.559 6.10101 6.09998L8.92901 8.92798C5.03101 12.827 5.03101 19.171 8.92901 23.071C12.829 26.969 19.173 26.969 23.072 23.071C26.97 19.172 26.97 12.828 23.072 8.92798L25.9 6.09998C31.358 11.559 31.358 20.44 25.9 25.899C23.171 28.628 19.586 29.993 16.001 29.993H16Z" fill="black"/>
<path d="M24.485 9.51503C23.973 9.51503 23.461 9.32003 23.071 8.92903C19.172 5.03103 12.828 5.03103 8.92802 8.92903C8.14802 9.71003 6.88003 9.71003 6.10003 8.92903C5.31903 8.14803 5.31903 6.88203 6.10003 6.10103C11.558 0.642025 20.441 0.642025 25.899 6.10103C26.68 6.88203 26.68 8.14803 25.899 8.92903C25.509 9.32003 24.997 9.51503 24.485 9.51503Z" fill="black"/>
</svg>
