<svg width="32" height="32" viewBox="0 0 32 32" fill="none" xmlns="http://www.w3.org/2000/svg">
<path d="M23.417 29C23.251 29 23.084 28.959 22.933 28.875L16 25.043L9.06699 28.875C8.73099 29.062 8.32099 29.038 8.00699 28.817C7.69399 28.596 7.53398 28.216 7.59598 27.838L8.93098 19.652L3.28398 13.864C3.02198 13.595 2.93199 13.204 3.05199 12.848C3.17199 12.492 3.47898 12.234 3.84898 12.177L11.613 10.99L15.094 3.573C15.259 3.222 15.612 2.99799 15.999 2.99799C16.386 2.99799 16.74 3.223 16.904 3.573L20.385 10.99L28.149 12.177C28.52 12.234 28.827 12.492 28.946 12.848C29.065 13.204 28.975 13.595 28.714 13.864L23.067 19.652L24.402 27.838C24.464 28.216 24.304 28.596 23.991 28.817C23.819 28.938 23.617 29 23.415 29H23.417ZM16 22.9C16.167 22.9 16.333 22.942 16.484 23.025L22.098 26.129L21.013 19.478C20.962 19.165 21.062 18.846 21.284 18.619L25.925 13.862L19.557 12.889C19.227 12.839 18.944 12.627 18.803 12.326L16 6.354L13.197 12.326C13.055 12.628 12.772 12.84 12.443 12.889L6.07498 13.862L10.716 18.619C10.938 18.847 11.038 19.165 10.987 19.478L9.90198 26.129L15.516 23.025C15.666 22.942 15.833 22.9 16 22.9Z" fill="black"/>
</svg>
