<svg width="32" height="32" viewBox="0 0 32 32" fill="none" xmlns="http://www.w3.org/2000/svg">
<g id="AisSlack">
<path id="Vector" d="M9.04231 19.1661C9.04233 19.6647 8.89448 20.1522 8.61745 20.5668C8.34043 20.9815 7.94667 21.3046 7.48598 21.4955C7.02528 21.6863 6.51835 21.7362 6.02927 21.639C5.5402 21.5417 5.09095 21.3016 4.73835 20.949C4.38575 20.5963 4.14563 20.1471 4.04835 19.658C3.95107 19.169 4.00101 18.662 4.19184 18.2013C4.38268 17.7406 4.70584 17.3469 5.12047 17.0699C5.53509 16.7928 6.02255 16.645 6.52121 16.645H9.04231V19.1661ZM10.3127 19.1661C10.3169 18.5002 10.5844 17.863 11.0567 17.3936C11.5291 16.9242 12.1679 16.6608 12.8339 16.6608C13.4998 16.6608 14.1386 16.9242 14.611 17.3936C15.0833 17.863 15.3508 18.5002 15.355 19.1661V25.4788C15.3571 25.8112 15.2934 26.1408 15.1677 26.4485C15.0419 26.7562 14.8565 27.036 14.6222 27.2718C14.3879 27.5076 14.1093 27.6947 13.8023 27.8224C13.4954 27.9501 13.1663 28.0159 12.8339 28.0159C12.5014 28.0159 12.1723 27.9501 11.8654 27.8224C11.5585 27.6947 11.2798 27.5076 11.0455 27.2718C10.8112 27.036 10.6258 26.7562 10.5 26.4485C10.3743 26.1408 10.3106 25.8112 10.3127 25.4788V19.1661ZM12.8339 9.04229C12.3353 9.04231 11.8478 8.89446 11.4332 8.61744C11.0185 8.34041 10.6954 7.94665 10.5045 7.48596C10.3137 7.02527 10.2638 6.51833 10.361 6.02926C10.4583 5.54018 10.6984 5.09094 11.0511 4.73834C11.4037 4.38573 11.8529 4.14561 12.342 4.04833C12.831 3.95106 13.338 4.00099 13.7987 4.19183C14.2594 4.38266 14.6531 4.70583 14.9302 5.12045C15.2072 5.53508 15.355 6.02254 15.355 6.52119V9.04229H12.8339ZM12.8339 10.3127C13.4998 10.3169 14.137 10.5844 14.6064 11.0567C15.0758 11.5291 15.3392 12.1679 15.3392 12.8338C15.3392 13.4998 15.0758 14.1386 14.6064 14.611C14.137 15.0833 13.4998 15.3508 12.8339 15.355H6.52121C6.18879 15.3571 5.85924 15.2934 5.55152 15.1677C5.2438 15.0419 4.96399 14.8565 4.7282 14.6222C4.4924 14.3879 4.30526 14.1093 4.17757 13.8023C4.04987 13.4954 3.98413 13.1663 3.98413 12.8338C3.98413 12.5014 4.04987 12.1723 4.17757 11.8654C4.30526 11.5584 4.4924 11.2798 4.7282 11.0455C4.96399 10.8112 5.2438 10.6258 5.55152 10.5C5.85924 10.3743 6.18879 10.3106 6.52121 10.3127H12.8339ZM22.9577 12.8339C22.9577 12.3352 23.1055 11.8478 23.3826 11.4332C23.6596 11.0185 24.0533 10.6954 24.514 10.5045C24.9747 10.3137 25.4817 10.2638 25.9707 10.361C26.4598 10.4583 26.9091 10.6984 27.2617 11.051C27.6143 11.4036 27.8544 11.8529 27.9517 12.342C28.0489 12.831 27.999 13.338 27.8082 13.7987C27.6173 14.2594 27.2942 14.6531 26.8796 14.9301C26.4649 15.2072 25.9775 15.355 25.4788 15.355H22.9577V12.8339ZM21.6873 12.8339C21.6831 13.4998 21.4156 14.137 20.9433 14.6064C20.4709 15.0758 19.8321 15.3392 19.1662 15.3392C18.5002 15.3392 17.8614 15.0758 17.389 14.6064C16.9167 14.137 16.6492 13.4998 16.645 12.8339V6.52119C16.6429 6.18878 16.7066 5.85922 16.8323 5.55151C16.9581 5.24379 17.1435 4.96398 17.3778 4.72818C17.6121 4.49238 17.8908 4.30525 18.1977 4.17755C18.5046 4.04986 18.8337 3.98412 19.1662 3.98412C19.4986 3.98412 19.8277 4.04986 20.1346 4.17755C20.4416 4.30525 20.7202 4.49238 20.9545 4.72818C21.1888 4.96398 21.3742 5.24379 21.5 5.55151C21.6257 5.85922 21.6894 6.18878 21.6873 6.52119V12.8339ZM19.1661 22.9577C19.6648 22.9577 20.1522 23.1055 20.5669 23.3826C20.9815 23.6596 21.3046 24.0533 21.4955 24.514C21.6863 24.9747 21.7362 25.4817 21.639 25.9707C21.5417 26.4598 21.3016 26.909 20.949 27.2617C20.5964 27.6143 20.1471 27.8544 19.658 27.9517C19.169 28.0489 18.662 27.999 18.2013 27.8082C17.7406 27.6173 17.3469 27.2942 17.0699 26.8795C16.7928 26.4649 16.645 25.9774 16.645 25.4788V22.9577H19.1661ZM19.1661 21.6873C18.5002 21.6831 17.863 21.4156 17.3936 20.9433C16.9242 20.4709 16.6608 19.8321 16.6608 19.1661C16.6608 18.5002 16.9242 17.8614 17.3936 17.389C17.863 16.9167 18.5002 16.6492 19.1661 16.645H25.4788C25.8112 16.6429 26.1408 16.7066 26.4485 16.8323C26.7562 16.9581 27.036 17.1435 27.2718 17.3778C27.5076 17.6121 27.6948 17.8907 27.8225 18.1977C27.9501 18.5046 28.0159 18.8337 28.0159 19.1661C28.0159 19.4986 27.9501 19.8277 27.8225 20.1346C27.6948 20.4416 27.5076 20.7202 27.2718 20.9545C27.036 21.1888 26.7562 21.3742 26.4485 21.5C26.1408 21.6257 25.8112 21.6894 25.4788 21.6873H19.1661Z" fill="black"/>
</g>
</svg>
