<svg width="32" height="32" viewBox="0 0 32 32" fill="none" xmlns="http://www.w3.org/2000/svg">
<path d="M8 10C9.10457 10 10 9.10457 10 8C10 6.89543 9.10457 6 8 6C6.89543 6 6 6.89543 6 8C6 9.10457 6.89543 10 8 10Z" fill="black"/>
<path fill-rule="evenodd" clip-rule="evenodd" d="M5 2C3.34315 2 2 3.34315 2 5V15.1716C2 15.9672 2.31607 16.7303 2.87868 17.2929L14.8787 29.2929C16.0503 30.4645 17.9497 30.4645 19.1213 29.2929L29.2929 19.1213C30.4645 17.9497 30.4645 16.0503 29.2929 14.8787L17.2929 2.87868C16.7303 2.31607 15.9672 2 15.1716 2H5ZM4 5C4 4.44772 4.44772 4 5 4H15.1716C15.4368 4 15.6911 4.10536 15.8787 4.29289L27.8787 16.2929C28.2692 16.6834 28.2692 17.3166 27.8787 17.7071L17.7071 27.8787C17.3166 28.2692 16.6834 28.2692 16.2929 27.8787L4.29289 15.8787C4.10536 15.6911 4 15.4368 4 15.1716V5Z" fill="black"/>
</svg>
