<svg width="32" height="32" viewBox="0 0 32 32" fill="none" xmlns="http://www.w3.org/2000/svg">
<path d="M21.2929 4.29289C21.6834 3.90237 22.3166 3.90237 22.7071 4.29289L25 6.58579L27.2929 4.29289C27.6834 3.90237 28.3166 3.90237 28.7071 4.29289C29.0976 4.68342 29.0976 5.31658 28.7071 5.70711L26.4142 8L28.7071 10.2929C29.0976 10.6834 29.0976 11.3166 28.7071 11.7071C28.3166 12.0976 27.6834 12.0976 27.2929 11.7071L25 9.41421L22.7071 11.7071C22.3166 12.0976 21.6834 12.0976 21.2929 11.7071C20.9024 11.3166 20.9024 10.6834 21.2929 10.2929L23.5858 8L21.2929 5.70711C20.9024 5.31658 20.9024 4.68342 21.2929 4.29289Z" fill="black"/>
<path fill-rule="evenodd" clip-rule="evenodd" d="M3 5C3 4.44772 3.44772 4 4 4H18C18.5523 4 19 4.44772 19 5C19 5.55228 18.5523 6 18 6H5V10H18C18.5523 10 19 10.4477 19 11C19 11.5523 18.5523 12 18 12H13V18H19V15C19 14.4477 19.4477 14 20 14C20.5523 14 21 14.4477 21 15V18H27V15C27 14.4477 27.4477 14 28 14C28.5523 14 29 14.4477 29 15V27C29 27.5523 28.5523 28 28 28H4C3.44772 28 3 27.5523 3 27V5ZM27 20V26H21V20H27ZM19 20V26H13V20H19ZM11 20V26H5V20H11ZM5 18H11V12H5V18Z" fill="black"/>
</svg>
