<svg width="32" height="32" viewBox="0 0 32 32" fill="none" xmlns="http://www.w3.org/2000/svg">
<path d="M2.29289 8.29289C1.90237 8.68342 1.90237 9.31658 2.29289 9.70711C2.68342 10.0976 3.31658 10.0976 3.70711 9.70711L6.70711 6.70711C7.09763 6.31658 7.09763 5.68342 6.70711 5.29289L3.70711 2.29289C3.31658 1.90237 2.68342 1.90237 2.29289 2.29289C1.90237 2.68342 1.90237 3.31658 2.29289 3.70711L4.58579 6L2.29289 8.29289Z" fill="black"/>
<path d="M13 5C13.5523 5 14 4.55228 14 4C14 3.44772 13.5523 3 13 3C12.4477 3 12 3.44772 12 4C12 4.55228 12.4477 5 13 5Z" fill="black"/>
<path fill-rule="evenodd" clip-rule="evenodd" d="M4 11C2.89543 11 2 11.8954 2 13V17C2 18.1046 2.89543 19 4 19H28C29.1046 19 30 18.1046 30 17V13C30 11.8954 29.1046 11 28 11H4ZM28 17V13H4V17H28Z" fill="black"/>
<path fill-rule="evenodd" clip-rule="evenodd" d="M4 21C2.89543 21 2 21.8954 2 23V27C2 28.1046 2.89543 29 4 29H28C29.1046 29 30 28.1046 30 27V23C30 21.8954 29.1046 21 28 21H4ZM28 27V23H4V27H28Z" fill="black"/>
<path d="M14 8C14 8.55228 13.5523 9 13 9C12.4477 9 12 8.55228 12 8C12 7.44772 12.4477 7 13 7C13.5523 7 14 7.44772 14 8Z" fill="black"/>
<path d="M17 5C17.5523 5 18 4.55228 18 4C18 3.44772 17.5523 3 17 3C16.4477 3 16 3.44772 16 4C16 4.55228 16.4477 5 17 5Z" fill="black"/>
<path d="M18 8C18 8.55228 17.5523 9 17 9C16.4477 9 16 8.55228 16 8C16 7.44772 16.4477 7 17 7C17.5523 7 18 7.44772 18 8Z" fill="black"/>
<path d="M21 5C21.5523 5 22 4.55228 22 4C22 3.44772 21.5523 3 21 3C20.4477 3 20 3.44772 20 4C20 4.55228 20.4477 5 21 5Z" fill="black"/>
<path d="M22 8C22 8.55228 21.5523 9 21 9C20.4477 9 20 8.55228 20 8C20 7.44772 20.4477 7 21 7C21.5523 7 22 7.44772 22 8Z" fill="black"/>
<path d="M25 5C25.5523 5 26 4.55228 26 4C26 3.44772 25.5523 3 25 3C24.4477 3 24 3.44772 24 4C24 4.55228 24.4477 5 25 5Z" fill="black"/>
<path d="M26 8C26 8.55228 25.5523 9 25 9C24.4477 9 24 8.55228 24 8C24 7.44772 24.4477 7 25 7C25.5523 7 26 7.44772 26 8Z" fill="black"/>
<path d="M29 5C29.5523 5 30 4.55228 30 4C30 3.44772 29.5523 3 29 3C28.4477 3 28 3.44772 28 4C28 4.55228 28.4477 5 29 5Z" fill="black"/>
<path d="M30 8C30 8.55228 29.5523 9 29 9C28.4477 9 28 8.55228 28 8C28 7.44772 28.4477 7 29 7C29.5523 7 30 7.44772 30 8Z" fill="black"/>
</svg>
