<svg width="32" height="32" viewBox="0 0 32 32" fill="none" xmlns="http://www.w3.org/2000/svg">
<path fill-rule="evenodd" clip-rule="evenodd" d="M28 24H29.8195C30.4375 24 30.9075 23.4451 30.8059 22.8356L29 12V4C29 2.89543 28.1046 2 27 2H11C9.89543 2 9 2.89543 9 4H8C7.44772 4 7 4.44772 7 5H3C2.44772 5 2 5.44772 2 6C2 6.55228 2.44772 7 3 7H7C7 7.55228 7.44772 8 8 8H9C9 9.10457 9.89543 10 11 10H15.1667L17.2106 13.5039C17.3898 13.8111 17.7187 14 18.0744 14H20.3333L21.8607 23.1644C21.9411 23.6466 22.3583 24 22.8471 24H26V26H7C6.44772 26 6 26.4477 6 27V29C6 29.5523 6.44772 30 7 30C7.55228 30 8 29.5523 8 29V28H27C27.5523 28 28 27.5523 28 27V24ZM27 12.1655V4H11V8H16.3154L18.6487 12H22.0276L23.6943 22H28.6391L27 12.1655Z" fill="black"/>
</svg>
