<svg width="32" height="32" viewBox="0 0 32 32" fill="none" xmlns="http://www.w3.org/2000/svg">
<path fill-rule="evenodd" clip-rule="evenodd" d="M9 2C10.1046 2 11 2.89543 11 4V28C11 29.1046 10.1046 30 9 30H5C3.89543 30 3 29.1046 3 28V4C3 2.89543 3.89543 2 5 2H9ZM9 4V28H5V4H9Z" fill="black"/>
<path fill-rule="evenodd" clip-rule="evenodd" d="M19 2C20.1046 2 21 2.89543 21 4V28C21 29.1046 20.1046 30 19 30H15C13.8954 30 13 29.1046 13 28V4C13 2.89543 13.8954 2 15 2H19ZM19 4V28H15V4H19Z" fill="black"/>
<path d="M23.2929 2.29289C23.6834 1.90237 24.3166 1.90237 24.7071 2.29289L26 3.58579L27.2929 2.29289C27.6834 1.90237 28.3166 1.90237 28.7071 2.29289C29.0976 2.68342 29.0976 3.31658 28.7071 3.70711L27.4142 5L28.7071 6.29289C29.0976 6.68342 29.0976 7.31658 28.7071 7.70711C28.3166 8.09763 27.6834 8.09763 27.2929 7.70711L26 6.41421L24.7071 7.70711C24.3166 8.09763 23.6834 8.09763 23.2929 7.70711C22.9024 7.31658 22.9024 6.68342 23.2929 6.29289L24.5858 5L23.2929 3.70711C22.9024 3.31658 22.9024 2.68342 23.2929 2.29289Z" fill="black"/>
<path d="M28 14C27.4477 14 27 13.5523 27 13C27 12.4477 27.4477 12 28 12C28.5523 12 29 12.4477 29 13C29 13.5523 28.5523 14 28 14Z" fill="black"/>
<path d="M23 13C23 13.5523 23.4477 14 24 14C24.5523 14 25 13.5523 25 13C25 12.4477 24.5523 12 24 12C23.4477 12 23 12.4477 23 13Z" fill="black"/>
<path d="M28 18C27.4477 18 27 17.5523 27 17C27 16.4477 27.4477 16 28 16C28.5523 16 29 16.4477 29 17C29 17.5523 28.5523 18 28 18Z" fill="black"/>
<path d="M23 17C23 17.5523 23.4477 18 24 18C24.5523 18 25 17.5523 25 17C25 16.4477 24.5523 16 24 16C23.4477 16 23 16.4477 23 17Z" fill="black"/>
<path d="M28 22C27.4477 22 27 21.5523 27 21C27 20.4477 27.4477 20 28 20C28.5523 20 29 20.4477 29 21C29 21.5523 28.5523 22 28 22Z" fill="black"/>
<path d="M23 21C23 21.5523 23.4477 22 24 22C24.5523 22 25 21.5523 25 21C25 20.4477 24.5523 20 24 20C23.4477 20 23 20.4477 23 21Z" fill="black"/>
<path d="M28 26C27.4477 26 27 25.5523 27 25C27 24.4477 27.4477 24 28 24C28.5523 24 29 24.4477 29 25C29 25.5523 28.5523 26 28 26Z" fill="black"/>
<path d="M23 25C23 25.5523 23.4477 26 24 26C24.5523 26 25 25.5523 25 25C25 24.4477 24.5523 24 24 24C23.4477 24 23 24.4477 23 25Z" fill="black"/>
<path d="M28 30C27.4477 30 27 29.5523 27 29C27 28.4477 27.4477 28 28 28C28.5523 28 29 28.4477 29 29C29 29.5523 28.5523 30 28 30Z" fill="black"/>
<path d="M23 29C23 29.5523 23.4477 30 24 30C24.5523 30 25 29.5523 25 29C25 28.4477 24.5523 28 24 28C23.4477 28 23 28.4477 23 29Z" fill="black"/>
</svg>
