<svg width="32" height="32" viewBox="0 0 32 32" fill="none" xmlns="http://www.w3.org/2000/svg">
<path fill-rule="evenodd" clip-rule="evenodd" d="M4 3C2.89543 3 2 3.89543 2 5V9C2 10.1046 2.89543 11 4 11H28C29.1046 11 30 10.1046 30 9V5C30 3.89543 29.1046 3 28 3H4ZM28 5H4V9H28V5Z" fill="black"/>
<path fill-rule="evenodd" clip-rule="evenodd" d="M4 21C2.89543 21 2 21.8954 2 23V27C2 28.1046 2.89543 29 4 29H28C29.1046 29 30 28.1046 30 27V23C30 21.8954 29.1046 21 28 21H4ZM28 27V23H4V27H28Z" fill="black"/>
<path d="M3 15C3.55228 15 4 14.5523 4 14C4 13.4477 3.55228 13 3 13C2.44772 13 2 13.4477 2 14C2 14.5523 2.44772 15 3 15Z" fill="black"/>
<path d="M4 18C4 18.5523 3.55228 19 3 19C2.44772 19 2 18.5523 2 18C2 17.4477 2.44772 17 3 17C3.55228 17 4 17.4477 4 18Z" fill="black"/>
<path d="M7 15C7.55228 15 8 14.5523 8 14C8 13.4477 7.55228 13 7 13C6.44772 13 6 13.4477 6 14C6 14.5523 6.44772 15 7 15Z" fill="black"/>
<path d="M8 18C8 18.5523 7.55228 19 7 19C6.44772 19 6 18.5523 6 18C6 17.4477 6.44772 17 7 17C7.55228 17 8 17.4477 8 18Z" fill="black"/>
<path d="M11 15C11.5523 15 12 14.5523 12 14C12 13.4477 11.5523 13 11 13C10.4477 13 10 13.4477 10 14C10 14.5523 10.4477 15 11 15Z" fill="black"/>
<path d="M12 18C12 18.5523 11.5523 19 11 19C10.4477 19 10 18.5523 10 18C10 17.4477 10.4477 17 11 17C11.5523 17 12 17.4477 12 18Z" fill="black"/>
<path d="M15 15C15.5523 15 16 14.5523 16 14C16 13.4477 15.5523 13 15 13C14.4477 13 14 13.4477 14 14C14 14.5523 14.4477 15 15 15Z" fill="black"/>
<path d="M16 18C16 18.5523 15.5523 19 15 19C14.4477 19 14 18.5523 14 18C14 17.4477 14.4477 17 15 17C15.5523 17 16 17.4477 16 18Z" fill="black"/>
<path d="M19 15C19.5523 15 20 14.5523 20 14C20 13.4477 19.5523 13 19 13C18.4477 13 18 13.4477 18 14C18 14.5523 18.4477 15 19 15Z" fill="black"/>
<path d="M20 18C20 18.5523 19.5523 19 19 19C18.4477 19 18 18.5523 18 18C18 17.4477 18.4477 17 19 17C19.5523 17 20 17.4477 20 18Z" fill="black"/>
<path d="M24.2929 13.2929C24.6834 12.9024 25.3166 12.9024 25.7071 13.2929L27 14.5858L28.2929 13.2929C28.6834 12.9024 29.3166 12.9024 29.7071 13.2929C30.0976 13.6834 30.0976 14.3166 29.7071 14.7071L28.4142 16L29.7071 17.2929C30.0976 17.6834 30.0976 18.3166 29.7071 18.7071C29.3166 19.0976 28.6834 19.0976 28.2929 18.7071L27 17.4142L25.7071 18.7071C25.3166 19.0976 24.6834 19.0976 24.2929 18.7071C23.9024 18.3166 23.9024 17.6834 24.2929 17.2929L25.5858 16L24.2929 14.7071C23.9024 14.3166 23.9024 13.6834 24.2929 13.2929Z" fill="black"/>
</svg>
