<svg width="32" height="32" viewBox="0 0 32 32" fill="none" xmlns="http://www.w3.org/2000/svg">
<path d="M2.00516 3.89776C2.05637 3.3935 2.48223 3 3 3H10C10.5523 3 11 3.44772 11 4C11 4.55228 10.5523 5 10 5H4V27H10C10.5523 27 11 27.4477 11 28C11 28.5523 10.5523 29 10 29H3C2.44772 29 2 28.5523 2 28V4C2 3.96548 2.00175 3.93137 2.00516 3.89776Z" fill="black"/>
<path d="M9.29289 18.2929C8.90237 18.6834 8.90237 19.3166 9.29289 19.7071C9.68342 20.0976 10.3166 20.0976 10.7071 19.7071L13.7071 16.7071C14.0976 16.3166 14.0976 15.6834 13.7071 15.2929L10.7071 12.2929C10.3166 11.9024 9.68342 11.9024 9.29289 12.2929C8.90237 12.6834 8.90237 13.3166 9.29289 13.7071L10.5858 15H7C6.44772 15 6 15.4477 6 16C6 16.5523 6.44772 17 7 17H10.5858L9.29289 18.2929Z" fill="black"/>
<path d="M22.7071 13.7071C23.0976 13.3166 23.0976 12.6834 22.7071 12.2929C22.3166 11.9024 21.6834 11.9024 21.2929 12.2929L18.2929 15.2929C17.9024 15.6834 17.9024 16.3166 18.2929 16.7071L21.2929 19.7071C21.6834 20.0976 22.3166 20.0976 22.7071 19.7071C23.0976 19.3166 23.0976 18.6834 22.7071 18.2929L21.4142 17H25C25.5523 17 26 16.5523 26 16C26 15.4477 25.5523 15 25 15H21.4142L22.7071 13.7071Z" fill="black"/>
<path d="M22 3C21.4477 3 21 3.44772 21 4C21 4.55228 21.4477 5 22 5H28V27H22C21.4477 27 21 27.4477 21 28C21 28.5523 21.4477 29 22 29H29C29.5523 29 30 28.5523 30 28V4C30 3.44772 29.5523 3 29 3H22Z" fill="black"/>
</svg>
