<svg width="32" height="32" viewBox="0 0 32 32" fill="none" xmlns="http://www.w3.org/2000/svg">
<path fill-rule="evenodd" clip-rule="evenodd" d="M11 4C11 2.89543 10.1046 2 9 2H5C3.89543 2 3 2.89543 3 4V28C3 29.1046 3.89543 30 5 30H9C10.1046 30 11 29.1046 11 28V4ZM9 28V4H5V28H9Z" fill="black"/>
<path fill-rule="evenodd" clip-rule="evenodd" d="M29 4C29 2.89543 28.1046 2 27 2H23C21.8954 2 21 2.89543 21 4V28C21 29.1046 21.8954 30 23 30H27C28.1046 30 29 29.1046 29 28V4ZM23 28H27V4H23V28Z" fill="black"/>
<path d="M17 3C17 3.55228 17.4477 4 18 4C18.5523 4 19 3.55228 19 3C19 2.44772 18.5523 2 18 2C17.4477 2 17 2.44772 17 3Z" fill="black"/>
<path d="M14 4C13.4477 4 13 3.55228 13 3C13 2.44772 13.4477 2 14 2C14.5523 2 15 2.44772 15 3C15 3.55228 14.5523 4 14 4Z" fill="black"/>
<path d="M17 7C17 7.55228 17.4477 8 18 8C18.5523 8 19 7.55228 19 7C19 6.44772 18.5523 6 18 6C17.4477 6 17 6.44772 17 7Z" fill="black"/>
<path d="M14 8C13.4477 8 13 7.55228 13 7C13 6.44772 13.4477 6 14 6C14.5523 6 15 6.44772 15 7C15 7.55228 14.5523 8 14 8Z" fill="black"/>
<path d="M17 11C17 11.5523 17.4477 12 18 12C18.5523 12 19 11.5523 19 11C19 10.4477 18.5523 10 18 10C17.4477 10 17 10.4477 17 11Z" fill="black"/>
<path d="M14 12C13.4477 12 13 11.5523 13 11C13 10.4477 13.4477 10 14 10C14.5523 10 15 10.4477 15 11C15 11.5523 14.5523 12 14 12Z" fill="black"/>
<path d="M17 15C17 15.5523 17.4477 16 18 16C18.5523 16 19 15.5523 19 15C19 14.4477 18.5523 14 18 14C17.4477 14 17 14.4477 17 15Z" fill="black"/>
<path d="M14 16C13.4477 16 13 15.5523 13 15C13 14.4477 13.4477 14 14 14C14.5523 14 15 14.4477 15 15C15 15.5523 14.5523 16 14 16Z" fill="black"/>
<path d="M17 19C17 19.5523 17.4477 20 18 20C18.5523 20 19 19.5523 19 19C19 18.4477 18.5523 18 18 18C17.4477 18 17 18.4477 17 19Z" fill="black"/>
<path d="M14 20C13.4477 20 13 19.5523 13 19C13 18.4477 13.4477 18 14 18C14.5523 18 15 18.4477 15 19C15 19.5523 14.5523 20 14 20Z" fill="black"/>
<path d="M13.2929 25.7071C12.9024 25.3166 12.9024 24.6834 13.2929 24.2929C13.6834 23.9024 14.3166 23.9024 14.7071 24.2929L16 25.5858L17.2929 24.2929C17.6834 23.9024 18.3166 23.9024 18.7071 24.2929C19.0976 24.6834 19.0976 25.3166 18.7071 25.7071L17.4142 27L18.7071 28.2929C19.0976 28.6834 19.0976 29.3166 18.7071 29.7071C18.3166 30.0976 17.6834 30.0976 17.2929 29.7071L16 28.4142L14.7071 29.7071C14.3166 30.0976 13.6834 30.0976 13.2929 29.7071C12.9024 29.3166 12.9024 28.6834 13.2929 28.2929L14.5858 27L13.2929 25.7071Z" fill="black"/>
</svg>
