<svg width="32" height="32" viewBox="0 0 32 32" fill="none" xmlns="http://www.w3.org/2000/svg">
<path d="M8.91407 24.5L13.1711 20.2432L11.7571 18.8291L7.49997 23.0859L6.70697 22.293C6.61416 22.2001 6.50395 22.1264 6.38264 22.0761C6.26132 22.0258 6.13129 22 5.99997 22C5.86866 22 5.73862 22.0258 5.61731 22.0761C5.496 22.1264 5.38579 22.2001 5.29297 22.293L1.29297 26.293C1.20008 26.3858 1.12638 26.496 1.0761 26.6173C1.02582 26.7387 0.999939 26.8687 0.999939 27C0.999939 27.1313 1.02582 27.2614 1.0761 27.3827C1.12638 27.504 1.20008 27.6142 1.29297 27.707L4.29297 30.707C4.3858 30.7999 4.49601 30.8736 4.61732 30.9238C4.73863 30.9741 4.86866 31 4.99997 31C5.13129 31 5.26132 30.9741 5.38263 30.9238C5.50394 30.8736 5.61415 30.7999 5.70697 30.707L9.70697 26.707C9.79987 26.6142 9.87357 26.504 9.92385 26.3827C9.97413 26.2614 10 26.1313 10 26C10 25.8687 9.97413 25.7387 9.92385 25.6173C9.87357 25.496 9.79987 25.3858 9.70697 25.293L8.91407 24.5ZM4.99997 28.5859L3.41407 27L5.99997 24.4141L7.58587 26L4.99997 28.5859Z" fill="black"/>
<path d="M24 30C22.4093 29.9982 20.8842 29.3655 19.7593 28.2407C18.6345 27.1158 18.0018 25.5908 18 24C18.0008 23.4772 18.0717 22.957 18.2109 22.4531L9.54691 13.7893C9.04301 13.9283 8.52274 13.9992 8.00001 14C7.02244 14.004 6.05883 13.7681 5.19366 13.313C4.32848 12.8579 3.58818 12.1974 3.03764 11.3896C2.48711 10.5818 2.14317 9.65128 2.03598 8.67961C1.92878 7.70793 2.06161 6.72479 2.42281 5.8164V5.8164C2.68595 5.1455 3.55094 4.96492 4.06051 5.4745L6.29301 7.707C6.48339 7.88881 6.73651 7.99026 6.99976 7.99026C7.26301 7.99026 7.51613 7.88881 7.70651 7.707C7.79947 7.61421 7.87322 7.504 7.92354 7.38267C7.97386 7.26135 7.99976 7.13129 7.99976 6.99995C7.99976 6.8686 7.97386 6.73855 7.92354 6.61722C7.87322 6.4959 7.79947 6.38569 7.70651 6.2929L5.47422 4.05993C4.96449 3.55005 5.14553 2.68468 5.81691 2.4219V2.4219C6.72536 2.06116 7.70842 1.92871 8.67995 2.03617C9.65148 2.14363 10.5818 2.4877 11.3895 3.03825C12.1972 3.5888 12.8575 4.32903 13.3126 5.19406C13.7677 6.0591 14.0037 7.02255 14 8C13.9993 8.52275 13.9283 9.04303 13.7891 9.5469L22.4531 18.2104C22.957 18.0715 23.4773 18.0008 24 18C24.9776 17.996 25.9412 18.2319 26.8064 18.687C27.6716 19.1421 28.4119 19.8025 28.9624 20.6103C29.513 21.4181 29.8569 22.3487 29.9641 23.3204C30.0712 24.2921 29.9384 25.2752 29.5771 26.1836V26.1836C29.3143 26.8544 28.4495 27.0351 27.9401 26.5257L25.707 24.293C25.5166 24.1112 25.2635 24.0097 25.0003 24.0097C24.737 24.0097 24.4839 24.1112 24.2935 24.293C24.2005 24.3858 24.1267 24.4959 24.0764 24.6172C24.026 24.7385 24.0001 24.8686 24 24.9999C24 25.1313 24.0258 25.2614 24.0761 25.3827C24.1264 25.504 24.2001 25.6143 24.293 25.7071L26.5255 27.9399C27.0351 28.4496 26.8545 29.3146 26.1836 29.5779V29.5779C25.4887 29.8544 24.7479 29.9976 24 30ZM10.0625 11.4763L20.5234 21.9375L20.2842 22.5469C20.05 23.1324 19.9585 23.7652 20.0172 24.393C20.0758 25.0209 20.283 25.6258 20.6216 26.1577C20.9602 26.6897 21.4205 27.1335 21.9644 27.4525C22.5084 27.7715 23.1204 27.9565 23.75 27.9922L22.8789 27.1211C22.6003 26.8426 22.3792 26.5119 22.2284 26.1479C22.0776 25.784 22 25.3939 22 24.9999C22 24.6059 22.0776 24.2158 22.2284 23.8519C22.3792 23.4879 22.6003 23.1572 22.8789 22.8787C23.4505 22.3332 24.2102 22.0288 25.0004 22.0289C25.7905 22.029 26.5502 22.3335 27.1216 22.8792L27.9922 23.75C27.9564 23.1204 27.7713 22.5084 27.4523 21.9644C27.1333 21.4205 26.6894 20.9602 26.1574 20.6216C25.6254 20.283 25.0205 20.0759 24.3926 20.0172C23.7648 19.9585 23.1319 20.05 22.5464 20.2842L21.937 20.5227L11.477 10.0627L11.7162 9.4533C11.9504 8.8678 12.0419 8.23499 11.9833 7.60713C11.9246 6.97927 11.7175 6.37437 11.3789 5.84238C11.0403 5.31039 10.58 4.86657 10.0361 4.54758C9.49213 4.22858 8.88009 4.04356 8.25051 4.0078L9.12111 4.8789C9.39974 5.15741 9.62078 5.4881 9.77158 5.85206C9.92238 6.21602 10 6.60613 10 7.0001C10 7.39406 9.92238 7.78417 9.77158 8.14813C9.62078 8.51209 9.39974 8.84278 9.12111 9.1213C8.54955 9.66682 7.78977 9.97115 6.99966 9.97106C6.20954 9.97097 5.44984 9.66645 4.87841 9.1208L4.00781 8.25C4.04349 8.87959 4.22845 9.49165 4.54742 10.0356C4.86638 10.5796 5.31018 11.0399 5.84218 11.3785C6.37417 11.7171 6.97909 11.9242 7.60696 11.9828C8.23483 12.0415 8.86764 11.9499 9.45311 11.7156L10.0625 11.4763Z" fill="black"/>
<path d="M29.1226 2.85003C28.5512 2.30447 27.7916 2.00006 27.0015 2.00006C26.2115 2.00006 25.4518 2.30447 24.8804 2.85003L17.4 10.33L18.8141 11.744L26.2941 4.26403C26.4847 4.08229 26.7379 3.98089 27.0012 3.98089C27.2645 3.98089 27.5177 4.08229 27.7082 4.26403C27.8954 4.45183 28.0004 4.70615 28.0004 4.97128C28.0004 5.2364 27.8954 5.49072 27.7082 5.67853L20.2282 13.1585L21.6422 14.5726L29.1222 7.09313C29.6843 6.53015 30 5.76717 30.0001 4.97166C30.0001 4.17615 29.6846 3.41311 29.1226 2.85003Z" fill="black"/>
</svg>
