<svg width="32" height="32" viewBox="0 0 32 32" fill="none" xmlns="http://www.w3.org/2000/svg">
<path d="M2.29289 3.29289C2.68342 2.90237 3.31658 2.90237 3.70711 3.29289L5 4.58579L6.29289 3.29289C6.68342 2.90237 7.31658 2.90237 7.70711 3.29289C8.09763 3.68342 8.09763 4.31658 7.70711 4.70711L6.41421 6L7.70711 7.29289C8.09763 7.68342 8.09763 8.31658 7.70711 8.70711C7.31658 9.09763 6.68342 9.09763 6.29289 8.70711L5 7.41421L3.70711 8.70711C3.31658 9.09763 2.68342 9.09763 2.29289 8.70711C1.90237 8.31658 1.90237 7.68342 2.29289 7.29289L3.58579 6L2.29289 4.70711C1.90237 4.31658 1.90237 3.68342 2.29289 3.29289Z" fill="black"/>
<path fill-rule="evenodd" clip-rule="evenodd" d="M2 13C2 11.8954 2.89543 11 4 11H28C29.1046 11 30 11.8954 30 13V17C30 18.1046 29.1046 19 28 19H4C2.89543 19 2 18.1046 2 17V13ZM28 13V17H4V13H28Z" fill="black"/>
<path d="M14 4C14 4.55228 13.5523 5 13 5C12.4477 5 12 4.55228 12 4C12 3.44772 12.4477 3 13 3C13.5523 3 14 3.44772 14 4Z" fill="black"/>
<path fill-rule="evenodd" clip-rule="evenodd" d="M2 23C2 21.8954 2.89543 21 4 21H28C29.1046 21 30 21.8954 30 23V27C30 28.1046 29.1046 29 28 29H4C2.89543 29 2 28.1046 2 27V23ZM28 23V27H4V23H28Z" fill="black"/>
<path d="M22 4C22 4.55228 21.5523 5 21 5C20.4477 5 20 4.55228 20 4C20 3.44772 20.4477 3 21 3C21.5523 3 22 3.44772 22 4Z" fill="black"/>
<path d="M21 9C21.5523 9 22 8.55228 22 8C22 7.44772 21.5523 7 21 7C20.4477 7 20 7.44772 20 8C20 8.55228 20.4477 9 21 9Z" fill="black"/>
<path d="M13 9C13.5523 9 14 8.55228 14 8C14 7.44772 13.5523 7 13 7C12.4477 7 12 7.44772 12 8C12 8.55228 12.4477 9 13 9Z" fill="black"/>
<path d="M18 4C18 4.55228 17.5523 5 17 5C16.4477 5 16 4.55228 16 4C16 3.44772 16.4477 3 17 3C17.5523 3 18 3.44772 18 4Z" fill="black"/>
<path d="M17 9C17.5523 9 18 8.55228 18 8C18 7.44772 17.5523 7 17 7C16.4477 7 16 7.44772 16 8C16 8.55228 16.4477 9 17 9Z" fill="black"/>
<path d="M26 4C26 4.55228 25.5523 5 25 5C24.4477 5 24 4.55228 24 4C24 3.44772 24.4477 3 25 3C25.5523 3 26 3.44772 26 4Z" fill="black"/>
<path d="M25 9C25.5523 9 26 8.55228 26 8C26 7.44772 25.5523 7 25 7C24.4477 7 24 7.44772 24 8C24 8.55228 24.4477 9 25 9Z" fill="black"/>
<path d="M30 4C30 4.55228 29.5523 5 29 5C28.4477 5 28 4.55228 28 4C28 3.44772 28.4477 3 29 3C29.5523 3 30 3.44772 30 4Z" fill="black"/>
<path d="M29 9C29.5523 9 30 8.55228 30 8C30 7.44772 29.5523 7 29 7C28.4477 7 28 7.44772 28 8C28 8.55228 28.4477 9 29 9Z" fill="black"/>
</svg>
