<svg width="32" height="32" viewBox="0 0 32 32" fill="none" xmlns="http://www.w3.org/2000/svg">
<path fill-rule="evenodd" clip-rule="evenodd" d="M8 11C8 9.34315 9.34315 8 11 8C12.6569 8 14 9.34315 14 11C14 12.6569 12.6569 14 11 14C9.34315 14 8 12.6569 8 11ZM11 12C10.4477 12 10 11.5523 10 11C10 10.4477 10.4477 10 11 10C11.5523 10 12 10.4477 12 11C12 11.5523 11.5523 12 11 12Z" fill="black"/>
<path fill-rule="evenodd" clip-rule="evenodd" d="M18.5858 4.58579C18.2107 4.21071 17.702 4 17.1716 4H6C4.89543 4 4 4.89543 4 6V17.1716C4 17.702 4.21071 18.2107 4.58579 18.5858L15.0858 29.0858C15.8668 29.8668 17.1332 29.8668 17.9142 29.0858L29.0858 17.9142C29.8668 17.1332 29.8668 15.8668 29.0858 15.0858L18.5858 4.58579ZM6 6H17.1716L27.6716 16.5L16.5 27.6716L6 17.1716V6Z" fill="black"/>
</svg>
