<svg width="32" height="32" viewBox="0 0 32 32" fill="none" xmlns="http://www.w3.org/2000/svg">
<path fill-rule="evenodd" clip-rule="evenodd" d="M6 2H14.3366C15.3975 2 16.4149 2.42143 17.165 3.17157L29.6491 15.6556C30.4301 16.4367 30.4301 17.703 29.6491 18.4841L18.4841 29.6491C17.703 30.4301 16.4367 30.4301 15.6556 29.6491L3.17157 17.165C2.42143 16.4149 2 15.3975 2 14.3366V6C2 3.79086 3.79086 2 6 2ZM7.38209 9.53493C8.57107 9.53493 9.53493 8.57107 9.53493 7.38209C9.53493 6.19311 8.57107 5.22926 7.38209 5.22926C6.19311 5.22926 5.22926 6.19311 5.22926 7.38209C5.22926 8.57107 6.19311 9.53493 7.38209 9.53493Z" fill="black"/>
</svg>
