<svg width="32" height="32" viewBox="0 0 32 32" fill="none" xmlns="http://www.w3.org/2000/svg">
<path d="M10.4364 27.9997C12.7397 28.0139 15.0231 27.5778 17.1539 26.7166C19.2847 25.8553 21.2207 24.5862 22.8495 22.9826C24.4782 21.3791 25.7674 19.4732 26.6422 17.3754C27.5169 15.2776 27.9599 13.0296 27.9455 10.762C27.9455 10.4935 27.9455 10.2384 27.9455 9.96988C29.1394 9.10865 30.1729 8.05033 31 6.84185C29.8757 7.32595 28.6861 7.64701 27.4682 7.79503C28.7594 7.03756 29.7283 5.84527 30.1955 4.43877C28.9921 5.14955 27.6725 5.64922 26.2955 5.91552C25.3681 4.9427 24.1409 4.29789 22.8038 4.08084C21.4667 3.8638 20.0942 4.08664 18.8987 4.71486C17.7032 5.34309 16.7513 6.3417 16.1904 7.55616C15.6294 8.77063 15.4906 10.1333 15.7955 11.4332C13.3491 11.315 10.9555 10.6908 8.77049 9.60137C6.58546 8.51191 4.658 6.98158 3.11364 5.11002C2.33489 6.44068 2.09885 8.01295 2.45331 9.50849C2.80776 11.004 3.72622 12.3111 5.02273 13.165C4.06629 13.1287 3.13198 12.8712 2.29545 12.4132V12.4804C2.28696 13.871 2.7628 15.2224 3.64369 16.3095C4.52457 17.3966 5.75728 18.1537 7.13636 18.4545C6.24678 18.69 5.31494 18.7267 4.40909 18.5619C4.80834 19.7478 5.57048 20.7831 6.59097 21.5258C7.61147 22.2685 8.84035 22.6822 10.1091 22.7102C7.93983 24.4293 5.24376 25.3756 2.45909 25.3952C1.97085 25.3813 1.48375 25.341 1 25.2744C3.81858 27.0423 7.09437 27.9744 10.4364 27.9594" fill="black"/>
</svg>
