<svg width="32" height="32" viewBox="0 0 32 32" fill="none" xmlns="http://www.w3.org/2000/svg">
<g id="AisTrash">
<g id="Vector">
<path d="M22.142 12.01C21.595 11.931 21.088 12.312 21.01 12.859L19.133 26.001H10.867L8.99001 12.859C8.91201 12.312 8.40299 11.927 7.85799 12.01C7.31099 12.088 6.93099 12.595 7.00899 13.142L9.00899 27.142C9.07899 27.634 9.50104 28 9.99904 28H19.999C20.497 28 20.919 27.634 20.989 27.142L22.989 13.142C23.067 12.595 22.687 12.088 22.14 12.01H22.142Z" fill="black"/>
<path d="M12.999 22C13.04 22 13.082 21.997 13.124 21.992C13.672 21.924 14.061 21.424 13.992 20.876L12.992 12.876C12.923 12.328 12.426 11.943 11.876 12.008C11.328 12.076 10.939 12.576 11.008 13.124L12.008 21.124C12.071 21.63 12.502 22 12.999 22Z" fill="black"/>
<path d="M17.001 22C17.498 22 17.929 21.63 17.992 21.124L18.992 13.124C19.06 12.576 18.672 12.076 18.124 12.008C17.575 11.944 17.077 12.328 17.008 12.876L16.008 20.876C15.94 21.424 16.328 21.924 16.876 21.992C16.918 21.997 16.96 22 17.001 22Z" fill="black"/>
<path d="M24 8H20V5C20 4.447 19.553 4 19 4H12C11.447 4 11 4.447 11 5V8H6C5.447 8 5 8.447 5 9C5 9.553 5.447 10 6 10H24C24.553 10 25 9.553 25 9C25 8.447 24.553 8 24 8ZM13 8V6H18V8H13Z" fill="black"/>
</g>
</g>
</svg>
