<svg width="32" height="32" viewBox="0 0 32 32" fill="none" xmlns="http://www.w3.org/2000/svg">
<g id="AisTerminal">
<g id="Vector">
<path d="M27 6H5C3.346 6 2 7.346 2 9V23C2 24.654 3.346 26 5 26H27C28.654 26 30 24.654 30 23V9C30 7.346 28.654 6 27 6ZM28 23C28 23.552 27.551 24 27 24H5C4.449 24 4 23.552 4 23V9C4 8.448 4.449 8 5 8H27C27.551 8 28 8.448 28 9V23Z" fill="black"/>
<path d="M7.707 12.293C7.316 11.902 6.684 11.902 6.293 12.293C5.902 12.684 5.902 13.316 6.293 13.707L8.586 16L6.293 18.293C5.902 18.684 5.902 19.316 6.293 19.707C6.488 19.902 6.744 20 7 20C7.256 20 7.512 19.902 7.707 19.707L10.707 16.707C11.098 16.316 11.098 15.684 10.707 15.293L7.707 12.293Z" fill="black"/>
<path d="M18 18H14C13.448 18 13 18.447 13 19C13 19.553 13.448 20 14 20H18C18.552 20 19 19.553 19 19C19 18.447 18.552 18 18 18Z" fill="black"/>
</g>
</g>
</svg>
