<svg width="32" height="32" viewBox="0 0 32 32" fill="none" xmlns="http://www.w3.org/2000/svg">
<path d="M3 3C2.48223 3 2.05637 3.3935 2.00516 3.89776C2.00175 3.93137 2 3.96548 2 4V28C2 28.5523 2.44772 29 3 29H10C10.5523 29 11 28.5523 11 28C11 27.4477 10.5523 27 10 27H4V5H10C10.5523 5 11 4.55228 11 4C11 3.44772 10.5523 3 10 3H3Z" fill="black"/>
<path d="M10.7071 12.2929C11.0976 12.6834 11.0976 13.3166 10.7071 13.7071L9.41421 15H12C12.5523 15 13 15.4477 13 16C13 16.5523 12.5523 17 12 17H9.41421L10.7071 18.2929C11.0976 18.6834 11.0976 19.3166 10.7071 19.7071C10.3166 20.0976 9.68342 20.0976 9.29289 19.7071L6.29289 16.7071C5.90237 16.3166 5.90237 15.6834 6.29289 15.2929L9.29289 12.2929C9.68342 11.9024 10.3166 11.9024 10.7071 12.2929Z" fill="black"/>
<path d="M21.2929 19.7071C20.9024 19.3166 20.9024 18.6834 21.2929 18.2929L22.5858 17H20C19.4477 17 19 16.5523 19 16C19 15.4477 19.4477 15 20 15H22.5858L21.2929 13.7071C20.9024 13.3166 20.9024 12.6834 21.2929 12.2929C21.6834 11.9024 22.3166 11.9024 22.7071 12.2929L25.7071 15.2929C26.0976 15.6834 26.0976 16.3166 25.7071 16.7071L22.7071 19.7071C22.3166 20.0976 21.6834 20.0976 21.2929 19.7071Z" fill="black"/>
<path d="M21 4C21 3.44772 21.4477 3 22 3H29C29.5523 3 30 3.44772 30 4V28C30 28.5523 29.5523 29 29 29H22C21.4477 29 21 28.5523 21 28C21 27.4477 21.4477 27 22 27H28V5H22C21.4477 5 21 4.55228 21 4Z" fill="black"/>
<path d="M15 4C15 4.55228 15.4477 5 16 5C16.5523 5 17 4.55228 17 4C17 3.44772 16.5523 3 16 3C15.4477 3 15 3.44772 15 4Z" fill="black"/>
<path d="M16 11C15.4477 11 15 10.5523 15 10C15 9.44771 15.4477 9 16 9C16.5523 9 17 9.44771 17 10C17 10.5523 16.5523 11 16 11Z" fill="black"/>
<path d="M16 15C15.4477 15 15 15.4477 15 16C15 16.5523 15.4477 17 16 17C16.5523 17 17 16.5523 17 16C17 15.4477 16.5523 15 16 15Z" fill="black"/>
<path d="M16 23C15.4477 23 15 22.5523 15 22C15 21.4477 15.4477 21 16 21C16.5523 21 17 21.4477 17 22C17 22.5523 16.5523 23 16 23Z" fill="black"/>
<path d="M15 28C15 28.5523 15.4477 29 16 29C16.5523 29 17 28.5523 17 28C17 27.4477 16.5523 27 16 27C15.4477 27 15 27.4477 15 28Z" fill="black"/>
</svg>
