<svg width="32" height="32" viewBox="0 0 32 32" fill="none" xmlns="http://www.w3.org/2000/svg">
<g id="AisTablet">
<g id="Vector">
<path d="M27 5H5C3.346 5 2 6.346 2 8V24C2 25.654 3.346 27 5 27H27C28.654 27 30 25.654 30 24V8C30 6.346 28.654 5 27 5ZM28 24C28 24.552 27.552 25 27 25H5C4.448 25 4 24.552 4 24V8C4 7.448 4.448 7 5 7H27C27.552 7 28 7.448 28 8V24Z" fill="black"/>
<path d="M25.71 15.29C25.34 14.92 24.66 14.92 24.29 15.29C24.2 15.39 24.13 15.49 24.08 15.62C24.019 15.74 24 15.87 24 16C24 16.13 24.02 16.26 24.069 16.38C24.13 16.5 24.2 16.609 24.29 16.71C24.479 16.899 24.729 17 25 17C25.13 17 25.26 16.97 25.38 16.92C25.5 16.87 25.609 16.8 25.71 16.71C25.8 16.609 25.87 16.5 25.92 16.38C25.97 16.26 26 16.13 26 16C26 15.87 25.97 15.74 25.92 15.62C25.87 15.49 25.8 15.39 25.71 15.29Z" fill="black"/>
</g>
</g>
</svg>
