<svg width="32" height="32" viewBox="0 0 32 32" fill="none" xmlns="http://www.w3.org/2000/svg">
<g id="AisTruck">
<path id="Vector" d="M27.775 13.981L26.72 13.279L24.018 9.22403C23.089 7.83103 21.535 6.99902 19.861 6.99902H5.005C3.348 6.99902 2 8.34703 2 10.004V20.999C2 22.653 3.346 23.999 5 23.999C5.062 23.999 5.115 23.975 5.173 23.964C5.577 25.143 6.685 25.999 8 25.999C9.302 25.999 10.402 25.16 10.816 23.999H20C20.062 23.999 20.115 23.975 20.173 23.964C20.577 25.143 21.685 25.999 23 25.999C24.302 25.999 25.402 25.16 25.816 23.999H27.003C28.655 23.999 30 22.654 30 21.002V18.138C30 16.464 29.168 14.909 27.775 13.981ZM8 24C7.448 24 7 23.552 7 23C7 22.448 7.448 22 8 22C8.552 22 9 22.448 9 23C9 23.552 8.552 24 8 24ZM23 24C22.448 24 22 23.552 22 23C22 22.448 22.448 22 23 22C23.552 22 24 22.448 24 23C24 23.552 23.552 24 23 24ZM28 21.003C28 21.553 27.553 22 27.003 22H25.816C25.402 20.839 24.302 20 23 20C21.685 20 20.578 20.856 20.173 22.035C20.115 22.024 20.061 22 20 22H10.816C10.402 20.839 9.302 20 8 20C6.685 20 5.578 20.856 5.173 22.035C5.115 22.024 5.061 22 5 22C4.448 22 4 21.552 4 21V10.005C4 9.45104 4.451 9.00003 5.005 9.00003H19.861C20.865 9.00003 21.798 9.49905 22.354 10.334L23.742 12.416C21.006 12.018 17.527 12 17 12C16.447 12 16 12.447 16 13C16 13.553 16.447 14 17 14C19.594 14 24.171 14.24 25.516 14.879L26.666 15.645C27.501 16.202 28 17.134 28 18.138V21.002V21.003Z" fill="black"/>
</g>
</svg>
