<svg width="32" height="32" viewBox="0 0 32 32" fill="none" xmlns="http://www.w3.org/2000/svg">
<g id="AisTime">
<g id="Vector">
<path d="M16 4C9.383 4 4 9.383 4 16C4 22.617 9.383 28 16 28C22.617 28 28 22.617 28 16C28 9.383 22.617 4 16 4ZM16 26C10.486 26 6 21.514 6 16C6 10.486 10.486 6 16 6C21.514 6 26 10.486 26 16C26 21.514 21.514 26 16 26Z" fill="black"/>
<path d="M17 15.586V9C17 8.447 16.553 8 16 8C15.447 8 15 8.447 15 9V16C15 16.266 15.105 16.52 15.293 16.707L18.293 19.707C18.488 19.902 18.744 20 19 20C19.256 20 19.512 19.902 19.707 19.707C20.098 19.316 20.098 18.684 19.707 18.293L17 15.586Z" fill="black"/>
</g>
</g>
</svg>
