<svg width="32" height="32" viewBox="0 0 32 32" fill="none" xmlns="http://www.w3.org/2000/svg">
<path d="M13.7071 2.29289C13.3166 1.90237 12.6834 1.90237 12.2929 2.29289C11.9024 2.68342 11.9024 3.31658 12.2929 3.70711L15.2929 6.70711C15.6834 7.09763 16.3166 7.09763 16.7071 6.70711L19.7071 3.70711C20.0976 3.31658 20.0976 2.68342 19.7071 2.29289C19.3166 1.90237 18.6834 1.90237 18.2929 2.29289L16 4.58579L13.7071 2.29289Z" fill="black"/>
<path fill-rule="evenodd" clip-rule="evenodd" d="M11 4C11 2.89543 10.1046 2 9 2H5C3.89543 2 3 2.89543 3 4V28C3 29.1046 3.89543 30 5 30H9C10.1046 30 11 29.1046 11 28V4ZM9 28V4H5V28H9Z" fill="black"/>
<path fill-rule="evenodd" clip-rule="evenodd" d="M29 4C29 2.89543 28.1046 2 27 2H23C21.8954 2 21 2.89543 21 4V28C21 29.1046 21.8954 30 23 30H27C28.1046 30 29 29.1046 29 28V4ZM23 28H27V4H23V28Z" fill="black"/>
<path d="M17 13C17 13.5523 17.4477 14 18 14C18.5523 14 19 13.5523 19 13C19 12.4477 18.5523 12 18 12C17.4477 12 17 12.4477 17 13Z" fill="black"/>
<path d="M14 14C13.4477 14 13 13.5523 13 13C13 12.4477 13.4477 12 14 12C14.5523 12 15 12.4477 15 13C15 13.5523 14.5523 14 14 14Z" fill="black"/>
<path d="M17 17C17 17.5523 17.4477 18 18 18C18.5523 18 19 17.5523 19 17C19 16.4477 18.5523 16 18 16C17.4477 16 17 16.4477 17 17Z" fill="black"/>
<path d="M14 18C13.4477 18 13 17.5523 13 17C13 16.4477 13.4477 16 14 16C14.5523 16 15 16.4477 15 17C15 17.5523 14.5523 18 14 18Z" fill="black"/>
<path d="M17 21C17 21.5523 17.4477 22 18 22C18.5523 22 19 21.5523 19 21C19 20.4477 18.5523 20 18 20C17.4477 20 17 20.4477 17 21Z" fill="black"/>
<path d="M14 22C13.4477 22 13 21.5523 13 21C13 20.4477 13.4477 20 14 20C14.5523 20 15 20.4477 15 21C15 21.5523 14.5523 22 14 22Z" fill="black"/>
<path d="M17 25C17 25.5523 17.4477 26 18 26C18.5523 26 19 25.5523 19 25C19 24.4477 18.5523 24 18 24C17.4477 24 17 24.4477 17 25Z" fill="black"/>
<path d="M14 26C13.4477 26 13 25.5523 13 25C13 24.4477 13.4477 24 14 24C14.5523 24 15 24.4477 15 25C15 25.5523 14.5523 26 14 26Z" fill="black"/>
<path d="M17 29C17 29.5523 17.4477 30 18 30C18.5523 30 19 29.5523 19 29C19 28.4477 18.5523 28 18 28C17.4477 28 17 28.4477 17 29Z" fill="black"/>
<path d="M14 30C13.4477 30 13 29.5523 13 29C13 28.4477 13.4477 28 14 28C14.5523 28 15 28.4477 15 29C15 29.5523 14.5523 30 14 30Z" fill="black"/>
</svg>
