<svg width="32" height="32" viewBox="0 0 32 32" fill="none" xmlns="http://www.w3.org/2000/svg">
<path fill-rule="evenodd" clip-rule="evenodd" d="M2 7C2 5.89543 2.89543 5 4 5H16C17.1046 5 18 5.89543 18 7V9C18 10.1046 17.1046 11 16 11H4C2.89543 11 2 10.1046 2 9V7ZM4 23C4 21.8954 4.89543 21 6 21H13C14.1046 21 15 21.8954 15 23V25C15 26.1046 14.1046 27 13 27H6C4.89543 27 4 26.1046 4 25V23ZM8 13C6.89543 13 6 13.8954 6 15V17C6 18.1046 6.89543 19 8 19H28C29.1046 19 30 18.1046 30 17V15C30 13.8954 29.1046 13 28 13H8Z" fill="black"/>
</svg>
