<svg width="32" height="32" viewBox="0 0 32 32" fill="none" xmlns="http://www.w3.org/2000/svg">
<path d="M17.7071 2.29289C18.0976 2.68342 18.0976 3.31658 17.7071 3.70711L16.4142 5L17.4142 6H27C27.5523 6 28 6.44772 28 7C28 7.55228 27.5523 8 27 8H15.2812C14.0566 8 12.8746 8.44939 11.9594 9.26295L11.1302 10H15C15.5523 10 16 10.4477 16 11C16 11.5523 15.5523 12 15 12H9.01567C8.56472 12.5896 8.2525 13.2736 8.10228 14H29C29.5523 14 30 14.4477 30 15C30 15.5523 29.5523 16 29 16H3C2.44772 16 2 15.5523 2 15C2 14.4477 2.44772 14 3 14H6.0724C6.3064 12.3931 7.09925 10.9072 8.32873 9.81429L10.6306 7.76814C11.7655 6.75937 13.1933 6.15053 14.696 6.02449C14.2373 5.25649 14.3386 4.24716 15 3.58579L16.2929 2.29289C16.6834 1.90237 17.3166 1.90237 17.7071 2.29289Z" fill="black"/>
<path d="M4 21C4 19.3431 5.34315 18 7 18C8.65685 18 10 19.3431 10 21V24C10 24.5523 9.55228 25 9 25C8.44772 25 8 24.5523 8 24V21C8 20.4477 7.55228 20 7 20C6.44772 20 6 20.4477 6 21V24C6 24.5523 5.55228 25 5 25C4.44772 25 4 24.5523 4 24V21Z" fill="black"/>
<path d="M25 18C23.3431 18 22 19.3431 22 21V24C22 24.5523 22.4477 25 23 25C23.5523 25 24 24.5523 24 24V21C24 20.4477 24.4477 20 25 20C25.5523 20 26 20.4477 26 21V24C26 24.5523 26.4477 25 27 25C27.5523 25 28 24.5523 28 24V21C28 19.3431 26.6569 18 25 18Z" fill="black"/>
<path d="M12 22C12 19.7909 13.7909 18 16 18C18.2091 18 20 19.7909 20 22V29C20 29.5523 19.5523 30 19 30C18.4477 30 18 29.5523 18 29V22C18 20.8954 17.1046 20 16 20C14.8954 20 14 20.8954 14 22V29C14 29.5523 13.5523 30 13 30C12.4477 30 12 29.5523 12 29V22Z" fill="black"/>
<path d="M19 10C18.4477 10 18 10.4477 18 11C18 11.5523 18.4477 12 19 12H21C21.5523 12 22 11.5523 22 11C22 10.4477 21.5523 10 21 10H19Z" fill="black"/>
<path d="M25 10C24.4477 10 24 10.4477 24 11C24 11.5523 24.4477 12 25 12H27C27.5523 12 28 11.5523 28 11C28 10.4477 27.5523 10 27 10H25Z" fill="black"/>
</svg>
