<svg width="32" height="32" viewBox="0 0 32 32" fill="none" xmlns="http://www.w3.org/2000/svg">
<path d="M16.2325 31H16.2238C11.7475 30.97 8.30628 29.4937 5.99378 26.6137C3.93753 24.05 2.87503 20.4825 2.84003 16.0125V15.9913C2.87753 11.5175 3.93878 7.95375 5.99628 5.38875C8.30628 2.50625 11.75 1.03 16.225 1H16.2425C19.675 1.025 22.5463 1.90625 24.775 3.6225C26.8713 5.235 28.3475 7.535 29.1613 10.4563L26.6113 11.1675C25.2313 6.2175 21.7388 3.6875 16.2313 3.64875C12.5938 3.67625 9.84378 4.81875 8.05628 7.045C6.38378 9.13 5.52003 12.1425 5.48628 16C5.52003 19.8575 6.38378 22.87 8.05753 24.955C9.84503 27.1838 12.5963 28.3275 16.2325 28.3512C19.5113 28.3263 21.68 27.5625 23.4825 25.795C25.5413 23.7788 25.505 21.3038 24.845 19.7975C24.4575 18.91 23.7538 18.1725 22.8025 17.61C22.5625 19.3 22.025 20.6675 21.1975 21.7C20.09 23.0775 18.5225 23.83 16.535 23.9375C15.0325 24.0188 13.5838 23.665 12.4613 22.9362C11.1325 22.075 10.355 20.7612 10.2713 19.2313C10.19 17.7437 10.7813 16.375 11.9338 15.3787C13.0338 14.4288 14.5825 13.87 16.4125 13.765C17.6736 13.6863 18.9394 13.7458 20.1875 13.9425C20.03 13.015 19.7188 12.2775 19.25 11.7463C18.6088 11.0138 17.615 10.6425 16.3013 10.6337H16.265C15.21 10.6337 13.775 10.9238 12.8638 12.2838L10.6675 10.8088C11.8925 8.99125 13.8775 7.98875 16.265 7.98875H16.32C20.3125 8.01375 22.6913 10.4575 22.9288 14.7238C23.0638 14.7812 23.1988 14.8413 23.33 14.9013C25.1925 15.7762 26.555 17.1025 27.2725 18.7388C28.2688 21.0138 28.3613 24.7263 25.3375 27.6863C23.025 29.9488 20.22 30.9713 16.2413 30.9988L16.2325 31ZM17.4863 16.3875C17.1838 16.3875 16.8775 16.3963 16.5625 16.4138C14.2675 16.5425 12.8375 17.5963 12.9175 19.0925C13.0013 20.6625 14.7325 21.3912 16.3975 21.3012C17.9275 21.22 19.92 20.6225 20.255 16.6637C19.3445 16.4738 18.4164 16.3812 17.4863 16.3875Z" fill="black"/>
</svg>
