<svg width="32" height="32" viewBox="0 0 32 32" fill="none" xmlns="http://www.w3.org/2000/svg">
<path fill-rule="evenodd" clip-rule="evenodd" d="M4 3C2.89543 3 2 3.89543 2 5V9C2 10.1046 2.89543 11 4 11H28C29.1046 11 30 10.1046 30 9V5C30 3.89543 29.1046 3 28 3H4ZM28 5H4V9H28V5Z" fill="black"/>
<path d="M2.29289 28.2929C1.90237 28.6834 1.90237 29.3166 2.29289 29.7071C2.68342 30.0976 3.31658 30.0976 3.70711 29.7071L6.70711 26.7071C7.09763 26.3166 7.09763 25.6834 6.70711 25.2929L3.70711 22.2929C3.31658 21.9024 2.68342 21.9024 2.29289 22.2929C1.90237 22.6834 1.90237 23.3166 2.29289 23.7071L4.58579 26L2.29289 28.2929Z" fill="black"/>
<path d="M14 24C14 24.5523 13.5523 25 13 25C12.4477 25 12 24.5523 12 24C12 23.4477 12.4477 23 13 23C13.5523 23 14 23.4477 14 24Z" fill="black"/>
<path d="M14 28C14 28.5523 13.5523 29 13 29C12.4477 29 12 28.5523 12 28C12 27.4477 12.4477 27 13 27C13.5523 27 14 27.4477 14 28Z" fill="black"/>
<path d="M17 25C17.5523 25 18 24.5523 18 24C18 23.4477 17.5523 23 17 23C16.4477 23 16 23.4477 16 24C16 24.5523 16.4477 25 17 25Z" fill="black"/>
<path d="M18 28C18 28.5523 17.5523 29 17 29C16.4477 29 16 28.5523 16 28C16 27.4477 16.4477 27 17 27C17.5523 27 18 27.4477 18 28Z" fill="black"/>
<path d="M21 25C21.5523 25 22 24.5523 22 24C22 23.4477 21.5523 23 21 23C20.4477 23 20 23.4477 20 24C20 24.5523 20.4477 25 21 25Z" fill="black"/>
<path d="M22 28C22 28.5523 21.5523 29 21 29C20.4477 29 20 28.5523 20 28C20 27.4477 20.4477 27 21 27C21.5523 27 22 27.4477 22 28Z" fill="black"/>
<path d="M25 25C25.5523 25 26 24.5523 26 24C26 23.4477 25.5523 23 25 23C24.4477 23 24 23.4477 24 24C24 24.5523 24.4477 25 25 25Z" fill="black"/>
<path d="M26 28C26 28.5523 25.5523 29 25 29C24.4477 29 24 28.5523 24 28C24 27.4477 24.4477 27 25 27C25.5523 27 26 27.4477 26 28Z" fill="black"/>
<path d="M29 25C29.5523 25 30 24.5523 30 24C30 23.4477 29.5523 23 29 23C28.4477 23 28 23.4477 28 24C28 24.5523 28.4477 25 29 25Z" fill="black"/>
<path d="M30 28C30 28.5523 29.5523 29 29 29C28.4477 29 28 28.5523 28 28C28 27.4477 28.4477 27 29 27C29.5523 27 30 27.4477 30 28Z" fill="black"/>
<path fill-rule="evenodd" clip-rule="evenodd" d="M2 15C2 13.8954 2.89543 13 4 13H28C29.1046 13 30 13.8954 30 15V19C30 20.1046 29.1046 21 28 21H4C2.89543 21 2 20.1046 2 19V15ZM4 15H28V19H4V15Z" fill="black"/>
</svg>
