<svg width="32" height="32" viewBox="0 0 32 32" fill="none" xmlns="http://www.w3.org/2000/svg">
<path fill-rule="evenodd" clip-rule="evenodd" d="M8.39343 7.53786L6.52578 4.30301C6.2166 3.76748 6.46524 3.07612 7.07581 2.9782C9.46175 2.59552 11.9434 3.68662 13.2236 5.90389C14.1909 7.57939 14.2583 9.52751 13.5757 11.1885C13.437 11.5262 13.4487 11.914 13.649 12.2192L16.1303 16H20V11.9171H17C16.4477 11.9171 16 11.4694 16 10.9171V8.03511C16 7.65633 16.214 7.31007 16.5528 7.14068L17.8036 6.5153C17.933 6.45059 18.0468 6.35856 18.1372 6.24557L19.6998 4.29238C19.8895 4.05516 20.1768 3.91707 20.4806 3.91707H29C29.5523 3.91707 30 4.36479 30 4.91707V10.9171C30 11.4694 29.5523 11.9171 29 11.9171H26V16H29C29.5523 16 30 16.4477 30 17V25C30 27.2092 28.2091 29 26 29H6C3.79086 29 2 27.2092 2 25V17C2 16.4477 2.44772 16 3 16H9.07825L8.63833 15.3583C8.44216 15.0721 8.11124 14.9144 7.76464 14.8989C5.78682 14.8103 3.89456 13.7456 2.83125 11.9039C1.55111 9.68662 1.84702 6.99189 3.3714 5.11694C3.76149 4.63713 4.48454 4.76748 4.79373 5.30301L6.66138 8.53786C6.93752 9.01616 7.54911 9.18003 8.0274 8.90389C8.5057 8.62775 8.66957 8.01616 8.39343 7.53786ZM10.1255 6.53786L9.30236 5.11218C10.1948 5.41213 10.9849 6.02637 11.4915 6.90389C12.1358 8.01991 12.183 9.31592 11.7258 10.4283C11.3784 11.2739 11.3575 12.3727 11.9769 13.3166L13.5933 15.7796H11.3519L10.2879 14.2275C9.68161 13.343 8.72389 12.9398 7.8541 12.9009C6.52944 12.8416 5.27111 12.1299 4.5633 10.9039C4.05667 10.0264 3.91973 9.03506 4.10621 8.11218L4.92933 9.53786C5.75775 10.9727 7.59252 11.4644 9.0274 10.6359C10.4623 9.80751 10.9539 7.97274 10.1255 6.53786ZM28 5.91707H20.9613L19.6989 7.49496C19.4278 7.83393 19.0862 8.11002 18.698 8.30415L18 8.65314V9.91707H28V5.91707ZM22 15.9171V11.9171H24V15.9171H22ZM4 18V25C4 26.1046 4.89543 27 6 27H26C27.1046 27 28 26.1046 28 25V18H19V20C19 21.6569 17.6569 23 16 23C14.3431 23 13 21.6569 13 20V18H4ZM17 18V20C17 20.5523 16.5523 21 16 21C15.4477 21 15 20.5523 15 20V18H17Z" fill="black"/>
</svg>
