<svg width="32" height="32" viewBox="0 0 32 32" fill="none" xmlns="http://www.w3.org/2000/svg">
<path fill-rule="evenodd" clip-rule="evenodd" d="M4 3C2.89543 3 2 3.89543 2 5V9C2 10.1046 2.89543 11 4 11H28C29.1046 11 30 10.1046 30 9V5C30 3.89543 29.1046 3 28 3H4ZM28 5H4V9H28V5Z" fill="black"/>
<path fill-rule="evenodd" clip-rule="evenodd" d="M4 21C2.89543 21 2 21.8954 2 23V27C2 28.1046 2.89543 29 4 29H28C29.1046 29 30 28.1046 30 27V23C30 21.8954 29.1046 21 28 21H4ZM28 27V23H4V27H28Z" fill="black"/>
<path d="M13 15C13.5523 15 14 14.5523 14 14C14 13.4477 13.5523 13 13 13C12.4477 13 12 13.4477 12 14C12 14.5523 12.4477 15 13 15Z" fill="black"/>
<path d="M14 18C14 18.5523 13.5523 19 13 19C12.4477 19 12 18.5523 12 18C12 17.4477 12.4477 17 13 17C13.5523 17 14 17.4477 14 18Z" fill="black"/>
<path d="M17 15C17.5523 15 18 14.5523 18 14C18 13.4477 17.5523 13 17 13C16.4477 13 16 13.4477 16 14C16 14.5523 16.4477 15 17 15Z" fill="black"/>
<path d="M18 18C18 18.5523 17.5523 19 17 19C16.4477 19 16 18.5523 16 18C16 17.4477 16.4477 17 17 17C17.5523 17 18 17.4477 18 18Z" fill="black"/>
<path d="M21 15C21.5523 15 22 14.5523 22 14C22 13.4477 21.5523 13 21 13C20.4477 13 20 13.4477 20 14C20 14.5523 20.4477 15 21 15Z" fill="black"/>
<path d="M22 18C22 18.5523 21.5523 19 21 19C20.4477 19 20 18.5523 20 18C20 17.4477 20.4477 17 21 17C21.5523 17 22 17.4477 22 18Z" fill="black"/>
<path d="M25 15C25.5523 15 26 14.5523 26 14C26 13.4477 25.5523 13 25 13C24.4477 13 24 13.4477 24 14C24 14.5523 24.4477 15 25 15Z" fill="black"/>
<path d="M26 18C26 18.5523 25.5523 19 25 19C24.4477 19 24 18.5523 24 18C24 17.4477 24.4477 17 25 17C25.5523 17 26 17.4477 26 18Z" fill="black"/>
<path d="M29 15C29.5523 15 30 14.5523 30 14C30 13.4477 29.5523 13 29 13C28.4477 13 28 13.4477 28 14C28 14.5523 28.4477 15 29 15Z" fill="black"/>
<path d="M30 18C30 18.5523 29.5523 19 29 19C28.4477 19 28 18.5523 28 18C28 17.4477 28.4477 17 29 17C29.5523 17 30 17.4477 30 18Z" fill="black"/>
<path d="M2.29289 18.2929C1.90237 18.6834 1.90237 19.3166 2.29289 19.7071C2.68342 20.0976 3.31658 20.0976 3.70711 19.7071L6.70711 16.7071C7.09763 16.3166 7.09763 15.6834 6.70711 15.2929L3.70711 12.2929C3.31658 11.9024 2.68342 11.9024 2.29289 12.2929C1.90237 12.6834 1.90237 13.3166 2.29289 13.7071L4.58579 16L2.29289 18.2929Z" fill="black"/>
</svg>
