<svg width="32" height="32" viewBox="0 0 32 32" fill="none" xmlns="http://www.w3.org/2000/svg">
<path fill-rule="evenodd" clip-rule="evenodd" d="M17 2C18.1046 2 19 2.89543 19 4V28C19 29.1046 18.1046 30 17 30H13C11.8954 30 11 29.1046 11 28V4C11 2.89543 11.8954 2 13 2H17ZM17 28H13V4H17V28Z" fill="black"/>
<path fill-rule="evenodd" clip-rule="evenodd" d="M27 2C28.1046 2 29 2.89543 29 4V28C29 29.1046 28.1046 30 27 30H23C21.8954 30 21 29.1046 21 28V4C21 2.89543 21.8954 2 23 2H27ZM27 28H23V4H27V28Z" fill="black"/>
<path d="M8 22C7.44772 22 7 21.5523 7 21C7 20.4477 7.44772 20 8 20C8.55228 20 9 20.4477 9 21C9 21.5523 8.55228 22 8 22Z" fill="black"/>
<path d="M3 21C3 21.5523 3.44772 22 4 22C4.55228 22 5 21.5523 5 21C5 20.4477 4.55228 20 4 20C3.44772 20 3 20.4477 3 21Z" fill="black"/>
<path d="M8 14C7.44772 14 7 13.5523 7 13C7 12.4477 7.44772 12 8 12C8.55228 12 9 12.4477 9 13C9 13.5523 8.55228 14 8 14Z" fill="black"/>
<path d="M3 13C3 13.5523 3.44772 14 4 14C4.55228 14 5 13.5523 5 13C5 12.4477 4.55228 12 4 12C3.44772 12 3 12.4477 3 13Z" fill="black"/>
<path d="M8 18C7.44772 18 7 17.5523 7 17C7 16.4477 7.44772 16 8 16C8.55228 16 9 16.4477 9 17C9 17.5523 8.55228 18 8 18Z" fill="black"/>
<path d="M3 17C3 17.5523 3.44772 18 4 18C4.55228 18 5 17.5523 5 17C5 16.4477 4.55228 16 4 16C3.44772 16 3 16.4477 3 17Z" fill="black"/>
<path d="M8 26C7.44772 26 7 25.5523 7 25C7 24.4477 7.44772 24 8 24C8.55228 24 9 24.4477 9 25C9 25.5523 8.55228 26 8 26Z" fill="black"/>
<path d="M3 25C3 25.5523 3.44772 26 4 26C4.55228 26 5 25.5523 5 25C5 24.4477 4.55228 24 4 24C3.44772 24 3 24.4477 3 25Z" fill="black"/>
<path d="M8 30C7.44772 30 7 29.5523 7 29C7 28.4477 7.44772 28 8 28C8.55228 28 9 28.4477 9 29C9 29.5523 8.55228 30 8 30Z" fill="black"/>
<path d="M3 29C3 29.5523 3.44772 30 4 30C4.55228 30 5 29.5523 5 29C5 28.4477 4.55228 28 4 28C3.44772 28 3 28.4477 3 29Z" fill="black"/>
<path d="M3.29289 2.29289C3.68342 1.90237 4.31658 1.90237 4.70711 2.29289L6 3.58579L7.29289 2.29289C7.68342 1.90237 8.31658 1.90237 8.70711 2.29289C9.09763 2.68342 9.09763 3.31658 8.70711 3.70711L7.41421 5L8.70711 6.29289C9.09763 6.68342 9.09763 7.31658 8.70711 7.70711C8.31658 8.09763 7.68342 8.09763 7.29289 7.70711L6 6.41421L4.70711 7.70711C4.31658 8.09763 3.68342 8.09763 3.29289 7.70711C2.90237 7.31658 2.90237 6.68342 3.29289 6.29289L4.58579 5L3.29289 3.70711C2.90237 3.31658 2.90237 2.68342 3.29289 2.29289Z" fill="black"/>
</svg>
