<svg width="32" height="32" viewBox="0 0 32 32" fill="none" xmlns="http://www.w3.org/2000/svg">
<path d="M20 13H22V19H20V13Z" fill="black"/>
<path fill-rule="evenodd" clip-rule="evenodd" d="M30 21V18C28.8954 18 28 17.1046 28 16C28 14.8954 28.8954 14 30 14V11C30 8.79086 28.2091 7 26 7H6C3.79086 7 2 8.79086 2 11V14C3.10457 14 4 14.8954 4 16C4 17.1046 3.10457 18 2 18V21C2 23.2091 3.79086 25 6 25H26C28.2091 25 30 23.2091 30 21ZM20 9H6C4.89543 9 4 9.89543 4 11V12.5351C5.1956 13.2267 6 14.5194 6 16C6 17.4806 5.1956 18.7733 4 19.4649V21C4 22.1046 4.89543 23 6 23H20V21H22V23H26C27.1046 23 28 22.1046 28 21V19.4649C26.8044 18.7733 26 17.4806 26 16C26 14.5194 26.8044 13.2267 28 12.5351V11C28 9.89543 27.1046 9 26 9H22V11H20V9Z" fill="black"/>
</svg>
