<svg width="32" height="32" viewBox="0 0 32 32" fill="none" xmlns="http://www.w3.org/2000/svg">
<path d="M15.5963 2.203V4.77317H13.2957V5.44984H15.5963V8.02H16.4083V5.44984H18.7067V4.77317H16.4083V2.203H16.0023H15.5963ZM22.6313 4.842L22.629 6.7355V8.629H19.1792V9.7105H22.629V13.4298H23.8458L23.8587 11.5842L23.882 9.7455L25.5912 9.72217L27.2945 9.7105V8.629H23.8493V4.842H23.2403H22.6313ZM8.1565 4.912V8.63367H4.67283V9.71284H8.1565V13.4345H9.30567V9.71167H12.8208V8.6325H9.30567V4.912H8.73167H8.1565ZM15.2568 11.0603V15.2522H11.4033V16.6382H15.258V20.8335H16.7513V16.6382H20.6118V15.2522H16.7502V11.0603H16.007H15.2568ZM26.598 12.8687V15.4598H24.2507V16.406H26.598V19.0438H27.6328V16.406H30V15.4598H27.6328V12.8698H27.1405L26.598 12.8687ZM4.30183 13.0215V15.5578H2V16.2823H4.30183V18.842H5.08V16.2823H7.41333V15.559H5.04383V13.0203H4.67283L4.30183 13.0215ZM22.629 18.2902V22.0865H19.1103V23.168H22.629V26.9212H23.8797V23.1692H27.3633V22.0865H23.8797V18.2902H23.2578H22.629ZM8.08883 18.2995V22.0865H4.639V23.1692H8.08883V26.8897H9.37333V23.1692H12.8208V22.0865H9.37333V18.2983H8.73167L8.08883 18.2995ZM15.4575 23.6405L15.4598 24.9273V26.2107H13.1603V27.158H15.4598V29.797H16.5425L16.5565 28.4915L16.5763 27.158H18.8735V26.2107H16.5402V23.6405H15.9977H15.4575Z" fill="black"/>
</svg>
