<svg width="32" height="32" viewBox="0 0 32 32" fill="none" xmlns="http://www.w3.org/2000/svg">
<path d="M3.70711 2.29289C3.31658 1.90237 2.68342 1.90237 2.29289 2.29289C1.90237 2.68342 1.90237 3.31658 2.29289 3.70711L5.29289 6.70711C5.68342 7.09763 6.31658 7.09763 6.70711 6.70711L9.70711 3.70711C10.0976 3.31658 10.0976 2.68342 9.70711 2.29289C9.31658 1.90237 8.68342 1.90237 8.29289 2.29289L6 4.58579L3.70711 2.29289Z" fill="black"/>
<path fill-rule="evenodd" clip-rule="evenodd" d="M19 4C19 2.89543 18.1046 2 17 2H13C11.8954 2 11 2.89543 11 4V28C11 29.1046 11.8954 30 13 30H17C18.1046 30 19 29.1046 19 28V4ZM13 28H17V4H13V28Z" fill="black"/>
<path fill-rule="evenodd" clip-rule="evenodd" d="M29 4C29 2.89543 28.1046 2 27 2H23C21.8954 2 21 2.89543 21 4V28C21 29.1046 21.8954 30 23 30H27C28.1046 30 29 29.1046 29 28V4ZM23 28H27V4H23V28Z" fill="black"/>
<path d="M7 13C7 13.5523 7.44772 14 8 14C8.55228 14 9 13.5523 9 13C9 12.4477 8.55228 12 8 12C7.44772 12 7 12.4477 7 13Z" fill="black"/>
<path d="M4 14C3.44772 14 3 13.5523 3 13C3 12.4477 3.44772 12 4 12C4.55228 12 5 12.4477 5 13C5 13.5523 4.55228 14 4 14Z" fill="black"/>
<path d="M7 17C7 17.5523 7.44772 18 8 18C8.55228 18 9 17.5523 9 17C9 16.4477 8.55228 16 8 16C7.44772 16 7 16.4477 7 17Z" fill="black"/>
<path d="M4 18C3.44772 18 3 17.5523 3 17C3 16.4477 3.44772 16 4 16C4.55228 16 5 16.4477 5 17C5 17.5523 4.55228 18 4 18Z" fill="black"/>
<path d="M7 21C7 21.5523 7.44772 22 8 22C8.55228 22 9 21.5523 9 21C9 20.4477 8.55228 20 8 20C7.44772 20 7 20.4477 7 21Z" fill="black"/>
<path d="M4 22C3.44772 22 3 21.5523 3 21C3 20.4477 3.44772 20 4 20C4.55228 20 5 20.4477 5 21C5 21.5523 4.55228 22 4 22Z" fill="black"/>
<path d="M7 25C7 25.5523 7.44772 26 8 26C8.55228 26 9 25.5523 9 25C9 24.4477 8.55228 24 8 24C7.44772 24 7 24.4477 7 25Z" fill="black"/>
<path d="M4 26C3.44772 26 3 25.5523 3 25C3 24.4477 3.44772 24 4 24C4.55228 24 5 24.4477 5 25C5 25.5523 4.55228 26 4 26Z" fill="black"/>
<path d="M7 29C7 29.5523 7.44772 30 8 30C8.55228 30 9 29.5523 9 29C9 28.4477 8.55228 28 8 28C7.44772 28 7 28.4477 7 29Z" fill="black"/>
<path d="M4 30C3.44772 30 3 29.5523 3 29C3 28.4477 3.44772 28 4 28C4.55228 28 5 28.4477 5 29C5 29.5523 4.55228 30 4 30Z" fill="black"/>
</svg>
