<svg width="32" height="32" viewBox="0 0 32 32" fill="none" xmlns="http://www.w3.org/2000/svg">
<path d="M23.7071 2.29289C23.3166 1.90237 22.6834 1.90237 22.2929 2.29289C21.9024 2.68342 21.9024 3.31658 22.2929 3.70711L25.2929 6.70711C25.6834 7.09763 26.3166 7.09763 26.7071 6.70711L29.7071 3.70711C30.0976 3.31658 30.0976 2.68342 29.7071 2.29289C29.3166 1.90237 28.6834 1.90237 28.2929 2.29289L26 4.58579L23.7071 2.29289Z" fill="black"/>
<path fill-rule="evenodd" clip-rule="evenodd" d="M11 4C11 2.89543 10.1046 2 9 2H5C3.89543 2 3 2.89543 3 4V28C3 29.1046 3.89543 30 5 30H9C10.1046 30 11 29.1046 11 28V4ZM9 28V4H5V28H9Z" fill="black"/>
<path fill-rule="evenodd" clip-rule="evenodd" d="M21 4C21 2.89543 20.1046 2 19 2H15C13.8954 2 13 2.89543 13 4V28C13 29.1046 13.8954 30 15 30H19C20.1046 30 21 29.1046 21 28V4ZM19 28V4H15V28H19Z" fill="black"/>
<path d="M27 13C27 13.5523 27.4477 14 28 14C28.5523 14 29 13.5523 29 13C29 12.4477 28.5523 12 28 12C27.4477 12 27 12.4477 27 13Z" fill="black"/>
<path d="M24 14C23.4477 14 23 13.5523 23 13C23 12.4477 23.4477 12 24 12C24.5523 12 25 12.4477 25 13C25 13.5523 24.5523 14 24 14Z" fill="black"/>
<path d="M27 17C27 17.5523 27.4477 18 28 18C28.5523 18 29 17.5523 29 17C29 16.4477 28.5523 16 28 16C27.4477 16 27 16.4477 27 17Z" fill="black"/>
<path d="M24 18C23.4477 18 23 17.5523 23 17C23 16.4477 23.4477 16 24 16C24.5523 16 25 16.4477 25 17C25 17.5523 24.5523 18 24 18Z" fill="black"/>
<path d="M27 21C27 21.5523 27.4477 22 28 22C28.5523 22 29 21.5523 29 21C29 20.4477 28.5523 20 28 20C27.4477 20 27 20.4477 27 21Z" fill="black"/>
<path d="M24 22C23.4477 22 23 21.5523 23 21C23 20.4477 23.4477 20 24 20C24.5523 20 25 20.4477 25 21C25 21.5523 24.5523 22 24 22Z" fill="black"/>
<path d="M27 25C27 25.5523 27.4477 26 28 26C28.5523 26 29 25.5523 29 25C29 24.4477 28.5523 24 28 24C27.4477 24 27 24.4477 27 25Z" fill="black"/>
<path d="M24 26C23.4477 26 23 25.5523 23 25C23 24.4477 23.4477 24 24 24C24.5523 24 25 24.4477 25 25C25 25.5523 24.5523 26 24 26Z" fill="black"/>
<path d="M27 29C27 29.5523 27.4477 30 28 30C28.5523 30 29 29.5523 29 29C29 28.4477 28.5523 28 28 28C27.4477 28 27 28.4477 27 29Z" fill="black"/>
<path d="M24 30C23.4477 30 23 29.5523 23 29C23 28.4477 23.4477 28 24 28C24.5523 28 25 28.4477 25 29C25 29.5523 24.5523 30 24 30Z" fill="black"/>
</svg>
