<svg width="32" height="32" viewBox="0 0 32 32" fill="none" xmlns="http://www.w3.org/2000/svg">
<path fill-rule="evenodd" clip-rule="evenodd" d="M4 3C2.89543 3 2 3.89543 2 5V9C2 10.1046 2.89543 11 4 11H28C29.1046 11 30 10.1046 30 9V5C30 3.89543 29.1046 3 28 3H4ZM28 5H4V9H28V5Z" fill="black"/>
<path d="M2.29289 23.2929C2.68342 22.9024 3.31658 22.9024 3.70711 23.2929L5 24.5858L6.29289 23.2929C6.68342 22.9024 7.31658 22.9024 7.70711 23.2929C8.09763 23.6834 8.09763 24.3166 7.70711 24.7071L6.41421 26L7.70711 27.2929C8.09763 27.6834 8.09763 28.3166 7.70711 28.7071C7.31658 29.0976 6.68342 29.0976 6.29289 28.7071L5 27.4142L3.70711 28.7071C3.31658 29.0976 2.68342 29.0976 2.29289 28.7071C1.90237 28.3166 1.90237 27.6834 2.29289 27.2929L3.58579 26L2.29289 24.7071C1.90237 24.3166 1.90237 23.6834 2.29289 23.2929Z" fill="black"/>
<path d="M22 24C22 24.5523 21.5523 25 21 25C20.4477 25 20 24.5523 20 24C20 23.4477 20.4477 23 21 23C21.5523 23 22 23.4477 22 24Z" fill="black"/>
<path d="M21 29C21.5523 29 22 28.5523 22 28C22 27.4477 21.5523 27 21 27C20.4477 27 20 27.4477 20 28C20 28.5523 20.4477 29 21 29Z" fill="black"/>
<path d="M26 24C26 24.5523 25.5523 25 25 25C24.4477 25 24 24.5523 24 24C24 23.4477 24.4477 23 25 23C25.5523 23 26 23.4477 26 24Z" fill="black"/>
<path d="M25 29C25.5523 29 26 28.5523 26 28C26 27.4477 25.5523 27 25 27C24.4477 27 24 27.4477 24 28C24 28.5523 24.4477 29 25 29Z" fill="black"/>
<path d="M13 25C13.5523 25 14 24.5523 14 24C14 23.4477 13.5523 23 13 23C12.4477 23 12 23.4477 12 24C12 24.5523 12.4477 25 13 25Z" fill="black"/>
<path d="M13 29C13.5523 29 14 28.5523 14 28C14 27.4477 13.5523 27 13 27C12.4477 27 12 27.4477 12 28C12 28.5523 12.4477 29 13 29Z" fill="black"/>
<path d="M18 24C18 24.5523 17.5523 25 17 25C16.4477 25 16 24.5523 16 24C16 23.4477 16.4477 23 17 23C17.5523 23 18 23.4477 18 24Z" fill="black"/>
<path d="M17 29C17.5523 29 18 28.5523 18 28C18 27.4477 17.5523 27 17 27C16.4477 27 16 27.4477 16 28C16 28.5523 16.4477 29 17 29Z" fill="black"/>
<path d="M30 24C30 24.5523 29.5523 25 29 25C28.4477 25 28 24.5523 28 24C28 23.4477 28.4477 23 29 23C29.5523 23 30 23.4477 30 24Z" fill="black"/>
<path d="M29 29C29.5523 29 30 28.5523 30 28C30 27.4477 29.5523 27 29 27C28.4477 27 28 27.4477 28 28C28 28.5523 28.4477 29 29 29Z" fill="black"/>
<path fill-rule="evenodd" clip-rule="evenodd" d="M2 15C2 13.8954 2.89543 13 4 13H28C29.1046 13 30 13.8954 30 15V19C30 20.1046 29.1046 21 28 21H4C2.89543 21 2 20.1046 2 19V15ZM4 15H28V19H4V15Z" fill="black"/>
</svg>
