<svg width="32" height="32" viewBox="0 0 32 32" fill="none" xmlns="http://www.w3.org/2000/svg">
<path d="M16.6563 1.025C18.2938 1 19.9188 1.0125 21.5438 1C21.6438 2.9125 22.3313 4.8625 23.7313 6.2125C25.1313 7.6 27.1063 8.2375 29.0313 8.45V13.4875C27.2313 13.425 25.4188 13.05 23.7813 12.275C23.0688 11.95 22.4063 11.5375 21.7563 11.1125C21.7438 14.7625 21.7688 18.4125 21.7313 22.05C21.6313 23.8 21.0563 25.5375 20.0438 26.975C18.4063 29.375 15.5688 30.9375 12.6563 30.9875C10.8688 31.0875 9.08128 30.6 7.55628 29.7C5.03128 28.2125 3.25628 25.4875 2.99378 22.5625C2.96878 21.9375 2.95628 21.3125 2.98128 20.7C3.20628 18.325 4.38128 16.05 6.20628 14.5C8.28128 12.7 11.1813 11.8375 13.8938 12.35C13.9188 14.2 13.8438 16.05 13.8438 17.9C12.6063 17.5 11.1563 17.6125 10.0688 18.3625C9.28128 18.875 8.68128 19.6625 8.36878 20.55C8.10628 21.1875 8.18128 21.8875 8.19378 22.5625C8.49378 24.6125 10.4688 26.3375 12.5688 26.15C13.9688 26.1375 15.3063 25.325 16.0313 24.1375C16.2688 23.725 16.5313 23.3 16.5438 22.8125C16.6688 20.575 16.6188 18.35 16.6313 16.1125C16.6438 11.075 16.6188 6.05 16.6563 1.025Z" fill="black"/>
</svg>
