<svg width="32" height="32" viewBox="0 0 32 32" fill="none" xmlns="http://www.w3.org/2000/svg">
<g id="AisTimeline">
<g id="Vector">
<path d="M16 11C17.103 11 18 10.103 18 9V7C18 5.897 17.103 5 16 5H4C2.897 5 2 5.897 2 7V9C2 10.103 2.897 11 4 11H16ZM4 7H16V9H4V7Z" fill="black"/>
<path d="M13 21H6C4.897 21 4 21.897 4 23V25C4 26.103 4.897 27 6 27H13C14.103 27 15 26.103 15 25V23C15 21.897 14.103 21 13 21ZM6 25V23H13V25H6Z" fill="black"/>
<path d="M28 13H8C6.897 13 6 13.897 6 15V17C6 18.103 6.897 19 8 19H28C29.103 19 30 18.103 30 17V15C30 13.897 29.103 13 28 13ZM8 17V15H28V17H8Z" fill="black"/>
</g>
</g>
</svg>
