<svg width="32" height="32" viewBox="0 0 32 32" fill="none" xmlns="http://www.w3.org/2000/svg">
<path d="M13 2H11V6H13V2Z" fill="black"/>
<path d="M6 11H2V13H6V11Z" fill="black"/>
<path d="M30 19H26V21H30V19Z" fill="black"/>
<path d="M21 26H19V30H21V26Z" fill="black"/>
<path d="M12.87 24.79L16.58 21.07L18 22.49L14.32 26.2C13.7549 26.771 13.082 27.2241 12.3405 27.5331C11.5989 27.8421 10.8034 28.0008 10 28C9.21036 28.0046 8.42759 27.8532 7.69656 27.5546C6.96554 27.256 6.30064 26.8161 5.74 26.26C5.17851 25.6979 4.73424 25.0299 4.43298 24.2948C4.13172 23.5596 3.97946 22.7719 3.98504 21.9775C3.99062 21.183 4.15393 20.3975 4.4655 19.6667C4.77706 18.9358 5.23067 18.2741 5.8 17.72L9.51 14L10.93 15.41L7.21 19.13C6.45944 19.8806 6.03778 20.8985 6.03778 21.96C6.03778 23.0215 6.45944 24.0394 7.21 24.79C7.58164 25.1616 8.02284 25.4564 8.50842 25.6576C8.99399 25.8587 9.51442 25.9622 10.04 25.9622C10.5656 25.9622 11.086 25.8587 11.5716 25.6576C12.0572 25.4564 12.4984 25.1616 12.87 24.79Z" fill="black"/>
<path d="M19.13 7.21L15.41 10.93L14 9.51L17.68 5.8C18.2451 5.22902 18.918 4.77591 19.6595 4.46692C20.4011 4.15794 21.1966 3.99923 22 4C22.7896 3.99543 23.5724 4.14678 24.3034 4.44537C25.0345 4.74396 25.6994 5.18391 26.26 5.74C26.8215 6.30209 27.2658 6.97009 27.567 7.70525C27.8683 8.4404 28.0205 9.22807 28.015 10.0225C28.0094 10.817 27.8461 11.6025 27.5345 12.3333C27.2229 13.0642 26.7693 13.7259 26.2 14.28L22.49 18L21.07 16.59L24.79 12.87C25.1616 12.4984 25.4564 12.0572 25.6576 11.5716C25.8587 11.086 25.9622 10.5656 25.9622 10.04C25.9622 9.51442 25.8587 8.99399 25.6576 8.50842C25.4564 8.02284 25.1616 7.58164 24.79 7.21C24.4184 6.83836 23.9772 6.54356 23.4916 6.34243C23.006 6.1413 22.4856 6.03778 21.96 6.03778C21.4344 6.03778 20.914 6.1413 20.4284 6.34243C19.9428 6.54356 19.5016 6.83836 19.13 7.21Z" fill="black"/>
<path d="M3.58389 5.00204L4.99785 3.58758L8.41377 7.00231L6.99981 8.41677L3.58389 5.00204Z" fill="black"/>
<path d="M23.5811 24.9917L24.9956 23.5777L28.4103 26.9936L26.9958 28.4076L23.5811 24.9917Z" fill="black"/>
</svg>
