<svg width="32" height="32" viewBox="0 0 32 32" fill="none" xmlns="http://www.w3.org/2000/svg">
<path d="M2 5.34192V11.172C2 13.3693 3.55342 14.8233 5.59742 14.8233C6.0628 14.8305 6.52485 14.7436 6.95589 14.568C7.38693 14.3924 7.7781 14.1316 8.10598 13.8013V14.6676H9.51917V5.34192H8.0935V11.0981C8.0935 12.573 7.07897 13.5712 5.76553 13.5738C4.43717 13.5711 3.4357 12.6008 3.4357 11.0981V5.34192H2ZM10.5896 5.34192V14.6676H11.9464V13.8138C12.2709 14.1382 12.6561 14.3954 13.08 14.5708C13.5039 14.7461 13.9583 14.8362 14.4171 14.8358C16.4167 14.8918 18.0681 13.2861 18.0681 11.2857C18.0681 9.28537 16.4167 7.67957 14.4171 7.73569C13.9602 7.7354 13.5077 7.82555 13.0858 8.00096C12.6639 8.17636 12.2809 8.43355 11.9589 8.75769V5.34192H10.5896ZM22.1229 7.7407C20.1685 7.73207 18.5798 9.31477 18.5814 11.2693C18.5814 13.2953 20.1834 14.8128 22.2607 14.8128C22.8374 14.8244 23.4087 14.699 23.9275 14.4467C24.4463 14.1944 24.8978 13.8225 25.2448 13.3617L24.2537 12.6411C24.0279 12.9574 23.7284 13.2139 23.3811 13.3884C23.0338 13.563 22.6493 13.6502 22.2607 13.6426C21.1217 13.6573 20.1435 12.8359 19.9612 11.7115H25.5822V11.2693C25.5822 9.24629 24.1192 7.74152 22.1244 7.7407H22.1229ZM29.3133 7.81852C28.9913 7.81571 28.674 7.89656 28.3926 8.05315C28.1112 8.20974 27.8753 8.4367 27.708 8.71184V7.87347H26.3511V14.6676H27.7209V10.8043C27.7209 9.75157 28.372 9.0721 29.2689 9.0721H29.8462V7.82004C29.6624 7.82155 29.4745 7.81899 29.3133 7.81852ZM22.076 8.91985C22.579 8.9131 23.0685 9.08285 23.4594 9.39958C23.8502 9.71632 24.1177 10.16 24.2153 10.6535H19.9947C20.0904 10.1698 20.3493 9.73359 20.7282 9.41798C21.1071 9.10238 21.5829 8.92652 22.076 8.91985ZM14.3073 8.92639C15.6166 8.91659 16.6832 9.97545 16.6831 11.2848C16.68 12.5918 15.6167 13.6482 14.3097 13.6426C13.6884 13.6372 13.0945 13.3861 12.6578 12.9442C12.22 12.5033 11.9745 11.9071 11.975 11.2857C11.9739 10.6645 12.2188 10.068 12.6561 9.62674C13.0923 9.18427 13.686 8.93247 14.3073 8.92639ZM2 17.1508V26.451H8.6759V24.8566H3.80343V22.5571H8.54558V21.0241H3.80343V18.7426H8.6759V17.1508H2ZM18.9876 17.6288V19.5959H17.6437V21.1569H18.9906V24.8237C18.9906 25.7486 19.657 26.4815 20.8579 26.4815H22.7741L22.7667 24.9203H21.4353C21.029 24.9203 20.7686 24.7443 20.7686 24.379V21.1493H22.7667V19.5958H20.7761V17.6288H18.9876ZM12.8073 19.4109C10.7834 19.3989 9.1428 21.0483 9.16567 23.0721C9.18853 25.0958 10.8661 26.7078 12.8891 26.65C13.7003 26.6583 14.489 26.3838 15.1197 25.8736V26.4943H16.8902V19.5959H15.1297V20.2092C14.4985 19.6904 13.706 19.4084 12.8891 19.4118C12.8606 19.411 12.8317 19.4111 12.8073 19.4109ZM26.5401 19.4199C24.6904 19.4199 23.3899 20.1708 23.3899 21.6195C23.3899 22.6236 24.1053 23.2777 25.6486 23.597L27.3377 23.9804C28.002 24.1081 28.1805 24.2819 28.1805 24.5527C28.1805 24.9845 27.6695 25.2553 26.8646 25.2553C25.8426 25.2553 25.2576 25.0328 25.0302 24.2663H23.2417C23.4972 25.7021 24.5907 26.658 26.7982 26.658H26.8008C28.8448 26.658 30 25.7025 30 24.379C30 23.4388 29.3178 22.7359 27.8896 22.4344L26.3796 22.1305C25.5033 21.9721 25.2269 21.8111 25.2269 21.4942C25.2269 21.0777 25.6488 20.8225 26.428 20.8225C27.2712 20.8225 27.8895 21.0471 28.0683 21.8111H29.8388C29.7391 20.3777 28.6838 19.4199 26.5401 19.4199ZM13.0448 20.8784C14.2222 20.8896 15.1668 21.8548 15.1526 23.0322C15.1543 24.2042 14.1962 25.1509 13.0243 25.1351C11.8489 25.1295 10.9006 24.1719 10.9062 22.9966C10.9118 21.8211 11.8694 20.8728 13.0448 20.8784Z" fill="black"/>
</svg>
