<svg width="32" height="32" viewBox="0 0 32 32" fill="none" xmlns="http://www.w3.org/2000/svg">
<path d="M22.62 8.005C21.725 4.522 18.554 2 14.878 2C10.467 2 6.87799 5.589 6.87799 10C6.87799 10.027 6.87799 10.056 6.87799 10.083C4.04399 10.561 1.87799 13.032 1.87799 16C1.87799 19.309 4.56899 22 7.87799 22H12C12.552 22 13 21.553 13 21C13 20.447 12.552 20 12 20H7.87799C5.67199 20 3.87799 18.206 3.87799 16C3.87799 13.81 5.64801 12.024 7.83301 12C7.87701 12.005 7.92701 12.008 7.95901 12.008C8.24901 12.008 8.525 11.882 8.715 11.662C8.905 11.442 8.99 11.151 8.948 10.864C8.9 10.531 8.87701 10.257 8.87701 10C8.87701 6.691 11.568 4 14.877 4C17.882 4 20.438 6.24703 20.821 9.22803C20.856 9.49903 21 9.74501 21.221 9.90601C21.441 10.067 21.719 10.133 21.988 10.085C22.306 10.028 22.597 10.001 22.877 10.001C25.634 10.001 27.877 12.244 27.877 15.001C27.877 17.758 25.634 20.001 22.877 20.001H19.999C19.447 20.001 18.999 20.448 18.999 21.001C18.999 21.554 19.447 22.001 19.999 22.001H22.877C26.737 22.001 29.877 18.86 29.877 15.001C29.877 11.056 26.61 7.87898 22.619 8.00598L22.62 8.005Z" fill="black"/>
<path d="M19.293 17.707C19.488 17.902 19.744 18 20 18C20.256 18 20.512 17.902 20.707 17.707C21.098 17.316 21.098 16.684 20.707 16.293L16.708 12.294C16.616 12.201 16.505 12.128 16.382 12.077C16.138 11.976 15.862 11.976 15.618 12.077C15.495 12.128 15.385 12.201 15.292 12.294L11.293 16.293C10.902 16.684 10.902 17.316 11.293 17.707C11.684 18.098 12.316 18.098 12.707 17.707L15 15.414V29C15 29.553 15.448 30 16 30C16.552 30 17 29.553 17 29V15.414L19.293 17.707Z" fill="black"/>
</svg>
