<svg width="32" height="32" viewBox="0 0 32 32" fill="none" xmlns="http://www.w3.org/2000/svg">
<path d="M16.707 13.293C16.316 12.902 15.684 12.902 15.293 13.293L6.293 22.293C5.902 22.684 5.902 23.316 6.293 23.707C6.684 24.098 7.316 24.098 7.707 23.707L16 15.414L24.293 23.707C24.488 23.902 24.744 24 25 24C25.256 24 25.512 23.902 25.707 23.707C26.098 23.316 26.098 22.684 25.707 22.293L16.707 13.293Z" fill="black"/>
<path d="M27 7H5C4.448 7 4 7.447 4 8C4 8.553 4.448 9 5 9H27C27.552 9 28 8.553 28 8C28 7.447 27.552 7 27 7Z" fill="black"/>
</svg>
