<svg width="32" height="32" viewBox="0 0 32 32" fill="none" xmlns="http://www.w3.org/2000/svg">
<path d="M15.875 19C18.081 19 19.875 17.206 19.875 15C19.875 12.794 18.081 11 15.875 11C13.669 11 11.875 12.794 11.875 15C11.875 17.206 13.669 19 15.875 19ZM15.875 13C16.978 13 17.875 13.897 17.875 15C17.875 16.103 16.978 17 15.875 17C14.772 17 13.875 16.103 13.875 15C13.875 13.897 14.772 13 15.875 13Z" fill="black"/>
<path d="M16 21C12.691 21 10 23.691 10 27V29C10 29.553 10.447 30 11 30C11.553 30 12 29.553 12 29V27C12 24.794 13.794 23 16 23C18.206 23 20 24.794 20 27V29C20 29.553 20.447 30 21 30C21.553 30 22 29.553 22 29V27C22 23.691 19.309 21 16 21Z" fill="black"/>
<path d="M9 11C11.206 11 13 9.206 13 7C13 4.794 11.206 3 9 3C6.794 3 5 4.794 5 7C5 9.206 6.794 11 9 11ZM9 5C10.103 5 11 5.897 11 7C11 8.103 10.103 9 9 9C7.897 9 7 8.103 7 7C7 5.897 7.897 5 9 5Z" fill="black"/>
<path d="M23 11C25.206 11 27 9.206 27 7C27 4.794 25.206 3 23 3C20.794 3 19 4.794 19 7C19 9.206 20.794 11 23 11ZM23 5C24.103 5 25 5.897 25 7C25 8.103 24.103 9 23 9C21.897 9 21 8.103 21 7C21 5.897 21.897 5 23 5Z" fill="black"/>
<path d="M9 13C5.691 13 3 15.691 3 19V21C3 21.553 3.447 22 4 22C4.553 22 5 21.553 5 21V19C5 16.794 6.794 15 9 15C9.553 15 10 14.553 10 14C10 13.447 9.553 13 9 13Z" fill="black"/>
<path d="M23 13C22.447 13 22 13.447 22 14C22 14.553 22.447 15 23 15C25.206 15 27 16.794 27 19V21C27 21.553 27.447 22 28 22C28.553 22 29 21.553 29 21V19C29 15.691 26.309 13 23 13Z" fill="black"/>
</svg>
