<svg width="32" height="32" viewBox="0 0 32 32" fill="none" xmlns="http://www.w3.org/2000/svg">
<path fill-rule="evenodd" clip-rule="evenodd" d="M11 15C14.3137 15 17 12.3137 17 9C17 5.68629 14.3137 3 11 3C7.68629 3 5 5.68629 5 9C5 12.3137 7.68629 15 11 15ZM11 13C13.2091 13 15 11.2091 15 9C15 6.79086 13.2091 5 11 5C8.79086 5 7 6.79086 7 9C7 11.2091 8.79086 13 11 13Z" fill="black"/>
<path d="M11 19C7.13401 19 4 22.134 4 26V28C4 28.5523 3.55228 29 3 29C2.44772 29 2 28.5523 2 28V26C2 21.0294 6.02944 17 11 17C15.9706 17 20 21.0294 20 26V28C20 28.5523 19.5523 29 19 29C18.4477 29 18 28.5523 18 28V26C18 22.134 14.866 19 11 19Z" fill="black"/>
<path fill-rule="evenodd" clip-rule="evenodd" d="M23.3464 7.90189C23.6687 7.45718 24.3314 7.45718 24.6536 7.90189C24.9012 8.24359 25.3703 8.33689 25.7298 8.11596C26.1977 7.82843 26.8099 8.08202 26.9375 8.6162C27.0355 9.02665 27.4331 9.29234 27.8498 9.22581C28.3922 9.13923 28.8608 9.60781 28.7742 10.1501C28.7076 10.5668 28.9733 10.9645 29.3838 11.0625C29.918 11.19 30.1716 11.8023 29.884 12.2702C29.6631 12.6297 29.7564 13.0987 30.0981 13.3464C30.5428 13.6686 30.5428 14.3313 30.0981 14.6536C29.7564 14.9012 29.6631 15.3702 29.884 15.7297C30.1716 16.1977 29.918 16.8099 29.3838 16.9374C28.9733 17.0354 28.7076 17.4331 28.7742 17.8498C28.8608 18.3921 28.3922 18.8607 27.8498 18.7741C27.4331 18.7076 27.0355 18.9733 26.9375 19.3837C26.8099 19.9179 26.1977 20.1715 25.7298 19.884C25.3703 19.663 24.9012 19.7563 24.6536 20.098C24.3314 20.5427 23.6687 20.5427 23.3464 20.098C23.0988 19.7563 22.6298 19.663 22.2702 19.884C21.8023 20.1715 21.1901 19.9179 21.0625 19.3837C20.9645 18.9733 20.5669 18.7076 20.1502 18.7741C19.6079 18.8607 19.1393 18.3921 19.2259 17.8498C19.2924 17.4331 19.0267 17.0354 18.6163 16.9374C18.0821 16.8099 17.8285 16.1977 18.116 15.7297C18.337 15.3702 18.2437 14.9012 17.902 14.6536C17.4572 14.3313 17.4572 13.6686 17.902 13.3464C18.2437 13.0987 18.337 12.6297 18.116 12.2702C17.8285 11.8023 18.0821 11.19 18.6163 11.0625C19.0267 10.9645 19.2924 10.5668 19.2259 10.1501C19.1393 9.60781 19.6079 9.13923 20.1502 9.22581C20.5669 9.29234 20.9645 9.02665 21.0625 8.6162C21.1901 8.08202 21.8023 7.82843 22.2702 8.11596C22.6298 8.33689 23.0988 8.24359 23.3464 7.90189ZM27.7071 11.2929C28.0977 11.6834 28.0977 12.3165 27.7071 12.7071L23.7071 16.7071C23.3166 17.0976 22.6834 17.0976 22.2929 16.7071L20.2929 14.7071C19.9024 14.3165 19.9024 13.6834 20.2929 13.2929C20.6834 12.9023 21.3166 12.9023 21.7071 13.2929L23 14.5857L26.2929 11.2929C26.6834 10.9023 27.3166 10.9023 27.7071 11.2929Z" fill="black"/>
</svg>
