<svg width="32" height="32" viewBox="0 0 32 32" fill="none" xmlns="http://www.w3.org/2000/svg">
<g id="AisUpload">
<g id="Vector">
<path d="M21.293 18.293L17 22.586V11C17 10.447 16.553 10 16 10C15.447 10 15 10.447 15 11V22.586L10.707 18.293C10.316 17.902 9.68401 17.902 9.29301 18.293C8.90201 18.684 8.90201 19.316 9.29301 19.707L15.292 25.706C15.384 25.799 15.495 25.872 15.618 25.923C15.74 25.974 15.87 26 16 26C16.13 26 16.26 25.974 16.382 25.923C16.505 25.872 16.616 25.799 16.708 25.706L22.707 19.707C23.098 19.316 23.098 18.684 22.707 18.293C22.316 17.902 21.684 17.902 21.293 18.293Z" fill="black"/>
<path d="M23 6H9C8.447 6 8 6.447 8 7C8 7.553 8.447 8 9 8H23C23.553 8 24 7.553 24 7C24 6.447 23.553 6 23 6Z" fill="black"/>
</g>
</g>
</svg>
