<svg width="32" height="32" viewBox="0 0 32 32" fill="none" xmlns="http://www.w3.org/2000/svg">
<g id="AisUnlocked">
<path id="Vector" d="M23.532 12H12V10C12 7.794 13.794 6 16 6C17.27 6 18.437 6.58301 19.2 7.60101C19.532 8.04301 20.161 8.13199 20.6 7.79999C21.041 7.46799 21.13 6.84099 20.799 6.39999C19.653 4.87499 17.904 4.00101 15.999 4.00101C12.69 4.00101 9.99902 6.69201 9.99902 10.001V12.001H8.46698C7.10698 12.001 5.99902 13.108 5.99902 14.469V25.533C5.99902 26.893 7.10598 28.001 8.46698 28.001H23.531C24.891 28.001 25.999 26.894 25.999 25.533V14.469C25.999 13.108 24.892 12.001 23.531 12.001L23.532 12ZM24 25.532C24 25.79 23.79 26 23.532 26H8.46802C8.21002 26 8 25.79 8 25.532V14.468C8 14.21 8.21002 14 8.46802 14H23.532C23.79 14 24 14.21 24 14.468V25.532Z" fill="black"/>
</g>
</svg>
