<svg width="32" height="32" viewBox="0 0 32 32" fill="none" xmlns="http://www.w3.org/2000/svg">
<path d="M30 7C29.4477 7 29 6.55229 29 6V3L26 3C25.4477 3 25 2.55229 25 2C25 1.44772 25.4477 1 26 1H29C30.1046 1 31 1.89543 31 3V6C31 6.55229 30.5523 7 30 7Z" fill="black"/>
<path d="M2 25C2.55228 25 3 25.4477 3 26V29H6C6.55229 29 7 29.4477 7 30C7 30.5523 6.55229 31 6 31H3C1.89543 31 1 30.1046 1 29V26C1 25.4477 1.44772 25 2 25Z" fill="black"/>
<path d="M6 3C6.55228 3 7 2.55229 7 2C7 1.44772 6.55228 1 6 1H3C1.89543 1 1 1.89543 1 3V6C1 6.55228 1.44771 7 2 7C2.55228 7 3 6.55228 3 6L3 3H6Z" fill="black"/>
<path d="M25 30C25 29.4477 25.4477 29 26 29H29V26C29 25.4477 29.4477 25 30 25C30.5523 25 31 25.4477 31 26V29C31 30.1046 30.1046 31 29 31H26C25.4477 31 25 30.5523 25 30Z" fill="black"/>
<path fill-rule="evenodd" clip-rule="evenodd" d="M22 9C22 12.309 19.309 15 16 15C12.691 15 10 12.309 10 9C10 5.691 12.691 3 16 3C19.309 3 22 5.691 22 9ZM20 9C20 6.794 18.206 5 16 5C13.794 5 12 6.794 12 9C12 11.206 13.794 13 16 13C18.206 13 20 11.206 20 9Z" fill="black"/>
<path d="M7 26C7 21.037 11.037 17 16 17C20.963 17 25 21.037 25 26V27C25 27.553 24.553 28 24 28C23.447 28 23 27.553 23 27V26C23 22.141 19.859 19 16 19C12.141 19 9 22.141 9 26V27C9 27.553 8.553 28 8 28C7.447 28 7 27.553 7 27V26Z" fill="black"/>
</svg>
