<svg width="32" height="32" viewBox="0 0 32 32" fill="none" xmlns="http://www.w3.org/2000/svg">
<path d="M2 11.2983V17.0827C2 19.2608 3.519 20.7005 5.5 20.7005C6.46367 20.7005 7.32233 20.3318 7.943 19.6855V20.5442H9.315V11.2983H7.929V17.001C7.929 18.4675 6.93733 19.458 5.6575 19.458C4.3625 19.458 3.38717 18.4932 3.38717 17.001V11.2995H2V11.2983ZM10.68 11.2983V20.5442H11.9983V19.6983C12.6062 20.319 13.4648 20.7017 14.4017 20.7017C14.8653 20.706 15.3253 20.6183 15.7549 20.4437C16.1844 20.2691 16.5751 20.0111 16.9043 19.6845C17.2335 19.3579 17.4946 18.9693 17.6726 18.5411C17.8506 18.1129 17.942 17.6537 17.9413 17.19C17.9435 16.7252 17.8534 16.2646 17.6762 15.8349C17.499 15.4052 17.2383 15.0149 16.9091 14.6868C16.58 14.3586 16.189 14.099 15.7587 13.9231C15.3285 13.7472 14.8676 13.6585 14.4028 13.662C13.9575 13.6614 13.5166 13.75 13.106 13.9225C12.6955 14.0951 12.3236 14.348 12.0123 14.6665V11.2995H10.6788L10.68 11.2983ZM22.1938 13.676C20.2257 13.676 18.7347 15.2743 18.7347 17.176C18.7347 19.1827 20.291 20.6877 22.3117 20.6877C23.5402 20.6877 24.5435 20.1475 25.2167 19.2492L24.253 18.5363C23.7513 19.2095 23.091 19.5245 22.3117 19.5245C21.1765 19.5245 20.2665 18.7078 20.081 17.6112H25.5608V17.176C25.5608 15.1693 24.1352 13.676 22.1938 13.676ZM29.538 13.7553C28.7983 13.7553 28.257 14.0983 27.9268 14.6397V13.8078H26.6073V20.5442H27.9397V16.7117C27.9397 15.6687 28.5743 14.9967 29.4458 14.9967H30V13.7542H29.538V13.7553ZM22.1658 14.838C23.1575 14.838 23.9905 15.524 24.2145 16.553H20.1067C20.3435 15.524 21.1753 14.838 22.1658 14.838ZM14.3118 14.852C15.5788 14.852 16.6218 15.8822 16.6218 17.19C16.6243 17.8057 16.3825 18.3972 15.9495 18.8348C15.5164 19.2725 14.9275 19.5205 14.3118 19.5245C14.0055 19.5251 13.7021 19.4651 13.4191 19.3479C13.1361 19.2307 12.8792 19.0586 12.663 18.8416C12.4468 18.6245 12.2758 18.3669 12.1597 18.0834C12.0436 17.7999 11.9848 17.4963 11.9867 17.19C11.9845 16.8836 12.043 16.5797 12.1589 16.296C12.2748 16.0123 12.4456 15.7543 12.6617 15.5369C12.8777 15.3196 13.1347 15.1472 13.4177 15.0296C13.7007 14.9121 14.0042 14.8517 14.3107 14.852H14.3118Z" fill="black"/>
</svg>
