<svg width="32" height="32" viewBox="0 0 32 32" fill="none" xmlns="http://www.w3.org/2000/svg">
<path d="M16 15C19.309 15 22 12.309 22 9C22 5.691 19.309 3 16 3C12.691 3 10 5.691 10 9C10 12.309 12.691 15 16 15ZM16 5C18.206 5 20 6.794 20 9C20 11.206 18.206 13 16 13C13.794 13 12 11.206 12 9C12 6.794 13.794 5 16 5Z" fill="black"/>
<path d="M16 17C11.037 17 7 21.037 7 26V28C7 28.553 7.447 29 8 29C8.553 29 9 28.553 9 28V26C9 22.141 12.141 19 16 19C19.859 19 23 22.141 23 26V28C23 28.553 23.447 29 24 29C24.553 29 25 28.553 25 28V26C25 21.037 20.963 17 16 17Z" fill="black"/>
</svg>
