<svg width="32" height="32" viewBox="0 0 32 32" fill="none" xmlns="http://www.w3.org/2000/svg">
<path d="M15.875 15C18.081 15 19.875 13.206 19.875 11C19.875 8.794 18.081 7 15.875 7C13.669 7 11.875 8.794 11.875 11C11.875 13.206 13.669 15 15.875 15ZM15.875 9C16.978 9 17.875 9.897 17.875 11C17.875 12.103 16.978 13 15.875 13C14.772 13 13.875 12.103 13.875 11C13.875 9.897 14.772 9 15.875 9Z" fill="black"/>
<path d="M16 17C12.691 17 10 19.691 10 23V24C10 24.553 10.447 25 11 25C11.553 25 12 24.553 12 24V23C12 20.794 13.794 19 16 19C18.206 19 20 20.794 20 23V24C20 24.553 20.447 25 21 25C21.553 25 22 24.553 22 24V23C22 19.691 19.309 17 16 17Z" fill="black"/>
<path d="M7 3C6.48798 3 5.75774 3.1587 5.1323 3.64995C4.46185 4.17656 4 5.01832 4 6.18182V13.8182C4 14.0384 3.93188 14.3787 3.76539 14.631C3.63445 14.8294 3.43592 15 3 15C2.44772 15 2 15.4477 2 16C2 16.5523 2.44772 17 3 17C3.43592 17 3.63445 17.1706 3.76539 17.369C3.93188 17.6213 4 17.9616 4 18.1818V25.8182C4 26.9817 4.46185 27.8234 5.1323 28.3501C5.75774 28.8413 6.48798 29 7 29C7.55228 29 8 28.5523 8 28C8 27.4477 7.55228 27 7 27C6.84536 27 6.57559 26.9405 6.3677 26.7772C6.20482 26.6493 6 26.4001 6 25.8182V18.1818C6 17.6747 5.86812 16.9242 5.43461 16.2673C5.3739 16.1754 5.30762 16.086 5.23571 16C5.30762 15.9141 5.3739 15.8246 5.43461 15.7327C5.86812 15.0758 6 14.3253 6 13.8182V6.18182C6 5.59986 6.20482 5.35072 6.3677 5.22278C6.57559 5.05949 6.84536 5 7 5C7.55228 5 8 4.55229 8 4C8 3.44772 7.55228 3 7 3Z" fill="black"/>
<path d="M25 29C25.512 29 26.2423 28.8413 26.8677 28.3501C27.5381 27.8234 28 26.9817 28 25.8182V18.1818C28 17.9616 28.0681 17.6213 28.2346 17.369C28.3656 17.1706 28.5641 17 29 17C29.5523 17 30 16.5523 30 16C30 15.4477 29.5523 15 29 15C28.5641 15 28.3656 14.8294 28.2346 14.631C28.0681 14.3787 28 14.0384 28 13.8182V6.18182C28 5.01832 27.5381 4.17656 26.8677 3.64995C26.2423 3.1587 25.512 3 25 3C24.4477 3 24 3.44772 24 4C24 4.55228 24.4477 5 25 5C25.1546 5 25.4244 5.05949 25.6323 5.22278C25.7952 5.35072 26 5.59986 26 6.18182V13.8182C26 14.3253 26.1319 15.0758 26.5654 15.7327C26.6261 15.8246 26.6924 15.914 26.7643 16C26.6924 16.0859 26.6261 16.1754 26.5654 16.2673C26.1319 16.9242 26 17.6747 26 18.1818V25.8182C26 26.4001 25.7952 26.6493 25.6323 26.7772C25.4244 26.9405 25.1546 27 25 27C24.4477 27 24 27.4477 24 28C24 28.5523 24.4477 29 25 29Z" fill="black"/>
</svg>
