<svg width="32" height="32" viewBox="0 0 32 32" fill="none" xmlns="http://www.w3.org/2000/svg">
<path fill-rule="evenodd" clip-rule="evenodd" d="M17.3072 3.8039C16.6626 2.91449 15.3373 2.91449 14.6928 3.8039C14.1975 4.48731 13.2595 4.6739 12.5404 4.23204C11.6046 3.65697 10.3801 4.16416 10.125 5.23252C9.92902 6.05342 9.13376 6.5848 8.30033 6.45174C7.21567 6.27858 6.27852 7.21573 6.45168 8.30039C6.58473 9.13382 6.05336 9.92908 5.23246 10.1251C4.1641 10.3802 3.65691 11.6046 4.23198 12.5405C4.67384 13.2595 4.48725 14.1976 3.80384 14.6928C2.91443 15.3374 2.91443 16.6627 3.80384 17.3072C4.48725 17.8025 4.67384 18.7405 4.23198 19.4596C3.65691 20.3954 4.1641 21.6199 5.23246 21.875C6.05336 22.071 6.58474 22.8663 6.45168 23.6997C6.27852 24.7844 7.21567 25.7215 8.30033 25.5483C9.13376 25.4153 9.92902 25.9467 10.125 26.7676C10.3801 27.8359 11.6046 28.3431 12.5404 27.768C13.2595 27.3262 14.1975 27.5128 14.6928 28.1962C15.3373 29.0856 16.6626 29.0856 17.3072 28.1962C17.8024 27.5128 18.7405 27.3262 19.4596 27.768C20.3954 28.3431 21.6198 27.8359 21.8749 26.7676C22.0709 25.9467 22.8662 25.4153 23.6996 25.5483C24.7843 25.7215 25.7214 24.7844 25.5483 23.6997C25.4152 22.8663 25.9466 22.071 26.7675 21.875C27.8359 21.6199 28.343 20.3954 27.768 19.4596C27.3261 18.7405 27.5127 17.8025 28.1961 17.3072C29.0855 16.6627 29.0855 15.3374 28.1961 14.6928C27.5127 14.1976 27.3261 13.2595 27.768 12.5405C28.343 11.6046 27.8359 10.3802 26.7675 10.1251C25.9466 9.92908 25.4152 9.13382 25.5483 8.30039C25.7214 7.21573 24.7843 6.27858 23.6996 6.45174C22.8662 6.5848 22.0709 6.05342 21.8749 5.23252C21.6198 4.16416 20.3954 3.65697 19.4596 4.23204C18.7405 4.6739 17.8024 4.48731 17.3072 3.8039ZM22.7071 12.7071C23.0976 12.3166 23.0976 11.6835 22.7071 11.2929C22.3166 10.9024 21.6834 10.9024 21.2929 11.2929L14 18.5858L10.7071 15.2929C10.3166 14.9024 9.6834 14.9024 9.29287 15.2929C8.90235 15.6835 8.90235 16.3166 9.29287 16.7071L13.2929 20.7071C13.6834 21.0977 14.3166 21.0977 14.7071 20.7071L22.7071 12.7071Z" fill="black"/>
</svg>
