<svg width="32" height="32" viewBox="0 0 32 32" fill="none" xmlns="http://www.w3.org/2000/svg">
<path d="M20 24H6C4.897 24 4 23.103 4 22V10C4 8.897 4.897 8 6 8H20C21.103 8 22 8.897 22 10V12.612L26.684 11.051C26.989 10.947 27.323 10.999 27.585 11.188C27.846 11.376 28.001 11.678 28.001 12V20C28.001 20.321 27.847 20.623 27.585 20.812C27.323 21 26.989 21.051 26.684 20.949L22 19.388V22C22 23.103 21.103 24 20 24ZM6 10V22.001H20V18C20 17.679 20.154 17.377 20.416 17.188C20.677 17 21.011 16.948 21.317 17.051L26.001 18.612V13.387L21.317 14.948C21.011 15.052 20.677 14.999 20.416 14.811C20.155 14.623 20 14.321 20 13.999V9.99899H6V10Z" fill="black"/>
</svg>
