<svg width="32" height="32" viewBox="0 0 32 32" fill="none" xmlns="http://www.w3.org/2000/svg">
<path d="M11.3722 5L11.1855 5.95806C10.1817 6.13943 9.23635 6.67168 8.34931 7.55484C7.47006 8.43011 6.69974 9.61685 6.03835 11.1151C5.45477 12.424 4.99958 13.9301 4.67278 15.6333C4.34598 17.3366 4.18258 18.9609 4.18258 20.5065C4.18258 22.0599 4.42379 23.3333 4.90621 24.3269C5.39642 25.3204 6.18619 25.9197 7.27553 26.1247L7.07712 27C5.46644 26.795 4.21759 26.0616 3.33055 24.8C2.44352 23.5384 2 21.8391 2 19.7022C2 15.7753 2.89871 12.4358 4.69612 9.68387C6.50132 6.92401 8.72669 5.36272 11.3722 5Z" fill="black"/>
<path d="M22.1917 12.4871C22.184 12.9444 22.0167 13.2835 21.6899 13.5043C21.3708 13.7172 21.0207 13.8237 20.6394 13.8237C20.406 13.8237 20.1414 13.7842 19.8458 13.7054C19.5501 13.6186 19.3167 13.5477 19.1455 13.4925C18.7953 13.8079 18.3868 14.2731 17.92 14.8882C17.4609 15.5032 17.0251 16.1814 16.6128 16.9226C16.7995 17.6717 16.9668 18.3143 17.1146 18.8505C17.2625 19.3789 17.422 19.9111 17.5932 20.4473C17.741 20.9283 17.9705 21.3147 18.2818 21.6065C18.6008 21.8903 19.0171 22.0323 19.5306 22.0323C19.7174 22.0323 19.9742 22.0086 20.301 21.9613C20.6278 21.9061 20.8806 21.847 21.0596 21.7839L20.8495 22.5645C20.1025 22.8799 19.5384 23.0849 19.1571 23.1796C18.7837 23.2742 18.379 23.3215 17.9433 23.3215C17.3986 23.3215 16.9473 23.1953 16.5894 22.943C16.2393 22.6907 15.9553 22.1702 15.7374 21.3817C15.5818 20.8061 15.4534 20.3251 15.3522 19.9387C15.2589 19.5444 15.1655 19.1541 15.0721 18.7677C14.7142 19.3118 14.4185 19.7771 14.1851 20.1634C13.9516 20.5419 13.5626 21.0663 13.0179 21.7366C12.5433 22.3201 12.1075 22.7341 11.7107 22.9785C11.3139 23.2229 10.9093 23.3452 10.4969 23.3452C10.1312 23.3452 9.8316 23.2387 9.59817 23.0258C9.35695 22.805 9.23635 22.5014 9.23635 22.1151C9.23635 21.7444 9.37641 21.429 9.65652 21.1688C9.93664 20.9007 10.3218 20.7667 10.812 20.7667C11.061 20.7667 11.3022 20.814 11.5356 20.9086C11.7769 20.9953 12.0258 21.0781 12.2826 21.157C12.5783 20.8731 12.9673 20.4315 13.4498 19.8323C13.94 19.233 14.3952 18.5509 14.8153 17.786C14.6675 17.2262 14.5041 16.6111 14.3251 15.9409C14.154 15.2706 13.9906 14.6832 13.8349 14.1785C13.6326 13.5398 13.3992 13.1297 13.1346 12.9484C12.8701 12.767 12.5316 12.6763 12.1192 12.6763C11.8936 12.6763 11.6524 12.7079 11.3956 12.771C11.1466 12.8341 10.9132 12.8971 10.6953 12.9602L10.917 12.1796C11.5162 11.9272 12.0531 11.7222 12.5277 11.5645C13.0101 11.3989 13.3369 11.3161 13.5081 11.3161C14.045 11.3161 14.4885 11.4502 14.8387 11.7183C15.1966 11.9785 15.4806 12.4871 15.6907 13.2441C15.9319 14.1194 16.072 14.6556 16.1109 14.8527C16.1576 15.0419 16.2432 15.4204 16.3677 15.9882C16.7411 15.4047 17.0446 14.9118 17.278 14.5097C17.5115 14.1075 17.8927 13.5753 18.4218 12.9129C18.912 12.29 19.3633 11.8642 19.7757 11.6355C20.1959 11.3989 20.5966 11.2806 20.9779 11.2806C21.3203 11.2806 21.6082 11.395 21.8416 11.6237C22.0828 11.8444 22.1995 12.1323 22.1917 12.4871Z" fill="black"/>
<path d="M30 12.2978C30 16.2247 29.0974 19.5681 27.2922 22.328C25.4948 25.0799 23.2733 26.6373 20.6278 27L20.8145 26.0419C21.8183 25.8606 22.7598 25.3283 23.639 24.4452C24.5261 23.5699 25.3003 22.3832 25.9617 20.8849C26.5374 19.576 26.9887 18.0699 27.3155 16.3667C27.6501 14.6634 27.8174 13.0391 27.8174 11.4935C27.8174 9.94014 27.5723 8.66667 27.0821 7.67312C26.5997 6.67957 25.8138 6.08029 24.7245 5.87527L24.9229 5C26.5336 5.20502 27.7824 5.93835 28.6694 7.2C29.5565 8.46165 30 10.1609 30 12.2978Z" fill="black"/>
</svg>
