<svg width="32" height="32" viewBox="0 0 32 32" fill="none" xmlns="http://www.w3.org/2000/svg">
<path fill-rule="evenodd" clip-rule="evenodd" d="M18.2715 5.271L29.6265 24.059C30.1145 24.867 30.1295 25.839 29.6665 26.66C29.1925 27.499 28.3295 28 27.3565 28H4.64654C3.67254 28 2.80954 27.499 2.33654 26.66C1.87454 25.838 1.88853 24.867 2.37653 24.059L13.7315 5.271C14.2125 4.476 15.0615 4 16.0015 4C16.9415 4 17.7905 4.475 18.2715 5.271ZM15 12C15 11.447 15.448 11 16 11C16.552 11 17 11.447 17 12V18C17 18.553 16.552 19 16 19C15.448 19 15 18.553 15 18V12ZM17 22C17 22.5523 16.5523 23 16 23C15.4477 23 15 22.5523 15 22C15 21.4477 15.4477 21 16 21C16.5523 21 17 21.4477 17 22Z" fill="black"/>
</svg>
