<svg width="32" height="32" viewBox="0 0 32 32" fill="none" xmlns="http://www.w3.org/2000/svg">
<path d="M16 10C16.5523 10 17 10.4477 17 11V15.5858L18.7071 17.2929C19.0976 17.6834 19.0976 18.3166 18.7071 18.7071C18.3166 19.0976 17.6834 19.0976 17.2929 18.7071L15.5858 17C15.2107 16.6249 15 16.1162 15 15.5858V11C15 10.4477 15.4477 10 16 10Z" fill="black"/>
<path fill-rule="evenodd" clip-rule="evenodd" d="M8.03848 9.72528L8.18058 9.76588C6.81583 11.4754 6 13.6424 6 16C6 18.3346 6.80004 20.4824 8.1409 22.1841L8.02219 22.2095L9.18342 27.6286C9.47982 29.0118 10.7022 30 12.1168 30L18.9914 30C20.3308 30 21.508 29.1121 21.876 27.8242L23.3023 22.8321C24.546 21.5033 25.4313 19.8348 25.8038 17.9808C25.8673 17.9934 25.9329 18 26 18C26.5523 18 27 17.5523 27 17V15C27 14.4477 26.5523 14 26 14C25.9329 14 25.8673 14.0066 25.8038 14.0192C25.4368 12.1926 24.572 10.546 23.357 9.22689L22.3166 4.37141C22.0202 2.9882 20.7978 2 19.3832 2H12.5086C11.1692 2 9.99201 2.88793 9.62404 4.17584L8.03848 9.72528ZM12.5086 4C12.0621 4 11.6697 4.29598 11.5471 4.72528L10.7596 7.4814C12.2835 6.54198 14.0784 6 16 6C17.7778 6 19.4472 6.46392 20.8939 7.27729L20.361 4.79047C20.2622 4.3294 19.8547 4 19.3832 4H12.5086ZM21.5765 21.7361L21.5385 21.7253L21.5198 21.7907C20.0842 23.1596 18.1402 24 16 24C11.5817 24 8 20.4183 8 16C8 11.5817 11.5817 8 16 8C20.4183 8 24 11.5817 24 16C24 18.2498 23.0713 20.2826 21.5765 21.7361ZM20.6431 24.859L19.9529 27.2747C19.8303 27.704 19.4379 28 18.9914 28L12.1168 28C11.6453 28 11.2378 27.6706 11.139 27.2095L10.5313 24.3736C12.1029 25.402 13.9816 26 16 26C17.676 26 19.2556 25.5877 20.6431 24.859Z" fill="black"/>
</svg>
