<svg width="32" height="32" viewBox="0 0 32 32" fill="none" xmlns="http://www.w3.org/2000/svg">
<path d="M15 11C15 10.4477 15.4477 10 16 10C16.5523 10 17 10.4477 17 11V15.5858L19.5625 18.1483C19.953 18.5388 19.953 19.172 19.5625 19.5625C19.172 19.953 18.5388 19.953 18.1483 19.5625L15.3198 16.7341C15.3152 16.7294 15.3106 16.7248 15.3061 16.72C15.1174 16.5382 15 16.2828 15 16V11Z" fill="black"/>
<path d="M15 11C15 10.4477 15.4477 10 16 10C16.5523 10 17 10.4477 17 11V15.5858L19.5625 18.1483C19.953 18.5388 19.953 19.172 19.5625 19.5625C19.172 19.953 18.5388 19.953 18.1483 19.5625L15.3198 16.7341C15.3152 16.7294 15.3106 16.7248 15.3061 16.72C15.1174 16.5382 15 16.2828 15 16V11Z" fill="black"/>
<path fill-rule="evenodd" clip-rule="evenodd" d="M10 4V6C7.79086 6 6 7.79086 6 10V22C6 24.2091 7.79086 26 10 26V28C10 29.1046 10.8954 30 12 30H20C21.1046 30 22 29.1046 22 28V26C24.2091 26 26 24.2091 26 22V16C27.1046 16 28 15.1046 28 14V12C28 10.8954 27.1046 10 26 10C26 7.79086 24.2091 6 22 6V4C22 2.89543 21.1046 2 20 2H12C10.8954 2 10 2.89543 10 4ZM20 4H12V6H20V4ZM24 10C24 8.89543 23.1046 8 22 8H10C8.89543 8 8 8.89543 8 10V22C8 23.1046 8.89543 24 10 24H22C23.1046 24 24 23.1046 24 22V10ZM12 26V28H20V26H12Z" fill="black"/>
<path fill-rule="evenodd" clip-rule="evenodd" d="M10 4V6C7.79086 6 6 7.79086 6 10V22C6 24.2091 7.79086 26 10 26V28C10 29.1046 10.8954 30 12 30H20C21.1046 30 22 29.1046 22 28V26C24.2091 26 26 24.2091 26 22V16C27.1046 16 28 15.1046 28 14V12C28 10.8954 27.1046 10 26 10C26 7.79086 24.2091 6 22 6V4C22 2.89543 21.1046 2 20 2H12C10.8954 2 10 2.89543 10 4ZM20 4H12V6H20V4ZM24 10C24 8.89543 23.1046 8 22 8H10C8.89543 8 8 8.89543 8 10V22C8 23.1046 8.89543 24 10 24H22C23.1046 24 24 23.1046 24 22V10ZM12 26V28H20V26H12Z" fill="black"/>
</svg>
