<svg width="32" height="32" viewBox="0 0 32 32" fill="none" xmlns="http://www.w3.org/2000/svg">
<path fill-rule="evenodd" clip-rule="evenodd" d="M9 8C10.1046 8 11 7.10457 11 6C11 4.89543 10.1046 4 9 4C7.89543 4 7 4.89543 7 6C7 7.10457 7.89543 8 9 8ZM9 10C11.2091 10 13 8.20914 13 6C13 3.79086 11.2091 2 9 2C6.79086 2 5 3.79086 5 6C5 8.20914 6.79086 10 9 10Z" fill="black"/>
<path fill-rule="evenodd" clip-rule="evenodd" d="M23 8C24.1046 8 25 7.10457 25 6C25 4.89543 24.1046 4 23 4C21.8954 4 21 4.89543 21 6C21 7.10457 21.8954 8 23 8ZM23 10C25.2091 10 27 8.20914 27 6C27 3.79086 25.2091 2 23 2C20.7909 2 19 3.79086 19 6C19 8.20914 20.7909 10 23 10Z" fill="black"/>
<path fill-rule="evenodd" clip-rule="evenodd" d="M9 14C6.79086 14 5 15.7909 5 18V21H6C7.10457 21 8 21.8954 8 23V27H10V23C10 21.8954 10.8954 21 12 21H13V18C13 15.7909 11.2091 14 9 14ZM3 18C3 14.6863 5.68629 12 9 12C12.3137 12 15 14.6863 15 18V21C15 22.1046 14.1046 23 13 23H12V27C12 28.1046 11.1046 29 10 29H8C6.89543 29 6 28.1046 6 27V23H5C3.89543 23 3 22.1046 3 21V18Z" fill="black"/>
<path fill-rule="evenodd" clip-rule="evenodd" d="M19.0194 23H20C21.1046 23 22 23.8954 22 25V27H24V25C24 23.8954 24.8954 23 26 23H26.9795C26.9003 21.0276 26.5837 18.6702 25.8794 16.8357C25.1471 14.9282 24.1794 14 23 14C21.8093 14 20.8431 14.917 20.1149 16.8035C19.4118 18.6255 19.0966 20.9822 19.0194 23ZM18.2491 16.0834C19.0503 14.0074 20.4983 12 23 12C25.5049 12 26.9489 14.0412 27.7465 16.1189C28.5673 18.257 28.8992 20.8808 28.9796 22.9633C29.0238 24.1093 28.0922 25 27 25H26V27C26 28.1046 25.1046 29 24 29H22C20.8954 29 20 28.1046 20 27V25H19C17.9072 25 16.9772 24.109 17.0193 22.9649C17.0976 20.8382 17.4274 18.2125 18.2491 16.0834Z" fill="black"/>
</svg>
