<svg width="32" height="32" viewBox="0 0 32 32" fill="none" xmlns="http://www.w3.org/2000/svg">
<g id="AisWarning">
<g id="Vector">
<path d="M29.625 24.06L18.27 5.27197C17.789 4.47597 16.94 4.00098 16 4.00098C15.06 4.00098 14.211 4.47697 13.73 5.27197L2.37501 24.06C1.88701 24.868 1.87302 25.839 2.33502 26.661C2.80802 27.5 3.67101 28.001 4.64501 28.001H27.355C28.328 28.001 29.191 27.5 29.665 26.661C30.128 25.84 30.113 24.868 29.625 24.06ZM27.922 25.678C27.867 25.775 27.703 26 27.355 26H4.64501C4.29701 26 4.13201 25.774 4.07801 25.678C4.01601 25.569 3.93501 25.347 4.08701 25.095L15.442 6.30698C15.609 6.03098 15.888 5.99997 16 5.99997C16.112 5.99997 16.391 6.02998 16.558 6.30698L27.913 25.095C28.065 25.347 27.984 25.569 27.922 25.678Z" fill="black"/>
<path d="M16 12C15.448 12 15 12.447 15 13V19C15 19.553 15.448 20 16 20C16.552 20 17 19.553 17 19V13C17 12.447 16.552 12 16 12Z" fill="black"/>
<path d="M16 24C16.5523 24 17 23.5523 17 23C17 22.4477 16.5523 22 16 22C15.4477 22 15 22.4477 15 23C15 23.5523 15.4477 24 16 24Z" fill="black"/>
</g>
</g>
</svg>
