<svg width="32" height="32" viewBox="0 0 32 32" fill="none" xmlns="http://www.w3.org/2000/svg">
<path d="M6.47826 20.3939C7.10119 20.0415 7.82874 19.921 8.53201 20.0537L9.64351 18.1094C10.6151 16.4082 11.2602 15.2793 11.7172 14.5366C10.6538 13.7139 9.84984 12.6024 9.40135 11.3349C8.95285 10.0674 8.87882 8.69761 9.18809 7.38917C9.49737 6.08074 10.1769 4.88903 11.1454 3.95649C12.1139 3.02395 13.3305 2.39002 14.6497 2.13047C15.9689 1.87092 17.3349 1.99673 18.5845 2.49286C19.8341 2.98899 20.9144 3.83445 21.6963 4.9282C22.4782 6.02195 22.9286 7.31771 22.9937 8.66063C23.0588 10.0035 22.7359 11.3368 22.0634 12.501L20.3319 11.499C20.8263 10.6416 21.0551 9.65675 20.9893 8.6692C20.9235 7.68164 20.5661 6.73582 19.9624 5.95154C19.3587 5.16725 18.5358 4.57979 17.5979 4.26357C16.66 3.94734 15.6494 3.91657 14.694 4.17516C13.7387 4.43375 12.8815 4.97006 12.2312 5.71616C11.5809 6.46227 11.1666 7.38459 11.0409 8.36632C10.9151 9.34805 11.0836 10.345 11.5249 11.2309C11.9662 12.1168 12.6605 12.8518 13.5199 13.3428L14.3876 13.8398L13.89 14.708C13.8784 14.7285 13.5518 15.2999 13.0704 16.1424C12.3114 17.4705 11.1673 19.4723 10.2646 21.0522C10.732 21.5942 10.9925 22.2841 11 22.9998C11.0074 23.7154 10.7612 24.4106 10.3052 24.9621C9.84906 25.5137 9.21247 25.886 8.50815 26.013C7.80384 26.1401 7.07728 26.0138 6.45719 25.6564C5.83711 25.2991 5.36353 24.7338 5.12037 24.0607C4.87721 23.3875 4.88016 22.6501 5.1287 21.9789C5.37725 21.3078 5.85533 20.7463 6.47826 20.3939Z" fill="black"/>
<path d="M24 16C23.1204 16.0001 22.2486 16.1654 21.43 16.4873L18.2644 10.9478C18.7358 10.4034 18.9991 9.70953 19.0077 8.98939C19.0162 8.26925 18.7693 7.56938 18.3109 7.01393C17.8525 6.45849 17.2121 6.08338 16.5034 5.95515C15.7948 5.82693 15.0636 5.95388 14.4396 6.31348C13.8156 6.67308 13.3392 7.24209 13.0948 7.91955C12.8505 8.59702 12.854 9.33914 13.1047 10.0143C13.3555 10.6894 13.8373 11.2539 14.4646 11.6075C15.092 11.9612 15.8244 12.0812 16.5318 11.9463L20.6507 19.1548L21.5193 18.6572C22.3773 18.1672 23.3612 17.9423 24.3469 18.011C25.3326 18.0796 26.2758 18.4388 27.0576 19.043C27.8393 19.6473 28.4245 20.4696 28.7394 21.4062C29.0542 22.3428 29.0845 23.3516 28.8264 24.3054C28.5684 25.2592 28.0336 26.1151 27.2895 26.7652C26.5454 27.4153 25.6254 27.8304 24.6457 27.9581C23.6659 28.0858 22.6702 27.9204 21.7844 27.4828C20.8985 27.0451 20.1622 26.3548 19.6683 25.499L17.937 26.501C18.5514 27.5652 19.4352 28.4488 20.4994 29.0632C21.5636 29.6776 22.7707 30.001 23.9995 30.001C25.2283 30.001 26.4355 29.6775 27.4997 29.0631C28.5639 28.4487 29.4476 27.565 30.062 26.5009C30.6764 25.4367 30.9999 24.2296 31 23.0007C31 21.7719 30.6766 20.5648 30.0622 19.5006C29.4479 18.4363 28.5642 17.5526 27.5001 16.9381C26.4359 16.3237 25.2288 16.0001 24 16Z" fill="black"/>
<path d="M24 26C24.5505 26.0022 25.091 25.8529 25.5623 25.5684C26.0336 25.284 26.4175 24.8753 26.6721 24.3872C26.9266 23.899 27.0419 23.3503 27.0054 22.801C26.9689 22.2517 26.7819 21.723 26.465 21.2729C26.148 20.8228 25.7134 20.4686 25.2085 20.249C24.7037 20.0294 24.1482 19.953 23.6029 20.0281C23.0575 20.1032 22.5433 20.3269 22.1166 20.6747C21.6899 21.0225 21.3671 21.481 21.1836 22H13V23C13 23.9889 12.7067 24.9556 12.1573 25.7779C11.6079 26.6001 10.827 27.241 9.91341 27.6194C8.99978 27.9979 7.99445 28.0969 7.02454 27.904C6.05464 27.711 5.16372 27.2348 4.46446 26.5356C3.7652 25.8363 3.289 24.9454 3.09607 23.9755C2.90314 23.0056 3.00216 22.0002 3.3806 21.0866C3.75904 20.173 4.3999 19.3921 5.22214 18.8427C6.04439 18.2933 7.01109 18 8 18V16C6.65825 16.0001 5.3448 16.3858 4.21604 17.1112C3.08729 17.8366 2.1908 18.8711 1.63331 20.0916C1.07583 21.312 0.880845 22.667 1.07158 23.9951C1.26232 25.3232 1.83074 26.5686 2.70915 27.5828C3.58757 28.597 4.73897 29.3374 6.02624 29.7159C7.31352 30.0943 8.68243 30.0948 9.96998 29.7173C11.2575 29.3397 12.4094 28.6002 13.2886 27.5865C14.1677 26.5729 14.737 25.328 14.9287 24H21.1836C21.3886 24.5837 21.7696 25.0894 22.2739 25.4476C22.7783 25.8058 23.3814 25.9988 24 26Z" fill="black"/>
</svg>
