<svg width="32" height="32" viewBox="0 0 32 32" fill="none" xmlns="http://www.w3.org/2000/svg">
<g id="AisWallet">
<g id="Vector">
<path d="M25 8H7C6.648 8 6.314 8.07199 6 8.18399V7C6 6.448 6.448 6 7 6H25V4H7C5.346 4 4 5.346 4 7V25C4 26.654 5.346 28 7 28H25C26.654 28 28 26.654 28 25V11C28 9.346 26.654 8 25 8ZM26 25C26 25.552 25.552 26 25 26H7C6.448 26 6 25.552 6 25V11C6 10.448 6.448 10 7 10H25C25.552 10 26 10.448 26 11V13H20C18.897 13 18 13.897 18 15V21C18 22.103 18.897 23 20 23H26V25ZM26 21L20 21.002V15H26V21Z" fill="black"/>
<path d="M23 19C23.5523 19 24 18.5523 24 18C24 17.4477 23.5523 17 23 17C22.4477 17 22 17.4477 22 18C22 18.5523 22.4477 19 23 19Z" fill="black"/>
</g>
</g>
</svg>
