<svg width="32" height="32" viewBox="0 0 32 32" fill="none" xmlns="http://www.w3.org/2000/svg">
<g clip-path="url(#clip0_62_49)">
<path d="M22.84 18.9776C22.4687 18.7913 20.6425 17.8938 20.3025 17.7688C19.9612 17.6451 19.7137 17.5838 19.465 17.9563C19.2187 18.3276 18.5062 19.1638 18.29 19.4113C18.0737 19.6601 17.8562 19.6901 17.485 19.5051C17.1137 19.3176 15.9162 18.9263 14.4975 17.6613C13.3937 16.6763 12.6475 15.4601 12.4312 15.0876C12.215 14.7163 12.4087 14.5151 12.5937 14.3301C12.7612 14.1638 12.9662 13.8963 13.1512 13.6801C13.3375 13.4626 13.3987 13.3076 13.5237 13.0588C13.6475 12.8113 13.5862 12.5951 13.4925 12.4088C13.3987 12.2226 12.6562 10.3938 12.3475 9.65005C12.045 8.9263 11.7387 9.02505 11.5112 9.01255C11.295 9.00255 11.0475 9.00005 10.7987 9.00005C10.5512 9.00005 10.1487 9.09255 9.80873 9.46505C9.46873 9.8363 8.50873 10.7351 8.50873 12.5638C8.50873 14.3913 9.83998 16.1576 10.025 16.4063C10.2112 16.6538 12.645 20.4063 16.3712 22.0151C17.2575 22.3976 17.9487 22.6263 18.4887 22.7963C19.3787 23.08 20.1887 23.0401 20.8275 22.9438C21.5412 22.8376 23.025 22.045 23.335 21.1776C23.645 20.3101 23.645 19.5663 23.5512 19.4113C23.4587 19.2563 23.2125 19.1638 22.84 18.9776ZM16.0625 28.2313H16.0575C13.8447 28.2315 11.6726 27.6365 9.76873 26.5088L9.31748 26.2413L4.64123 27.4688L5.88873 22.9088L5.59498 22.4413C4.35803 20.4716 3.70365 18.1922 3.70748 15.8663C3.70873 9.0538 9.25248 3.5113 16.0675 3.5113C19.3675 3.5113 22.47 4.7988 24.8025 7.1338C25.9533 8.27957 26.8655 9.64221 27.4862 11.1429C28.107 12.6435 28.4239 14.2524 28.4187 15.8763C28.415 22.6888 22.8725 28.2313 16.0625 28.2313ZM26.5787 5.36005C25.2015 3.97371 23.5628 2.87447 21.7576 2.12605C19.9524 1.37763 18.0166 0.994905 16.0625 1.00005C7.86873 1.00005 1.19998 7.6688 1.19623 15.8651C1.19623 18.4851 1.87998 21.0425 3.18123 23.2963L1.07123 31L8.95248 28.9326C11.132 30.1199 13.5743 30.7422 16.0562 30.7425H16.0625C24.255 30.7425 30.925 24.0738 30.9287 15.8763C30.9348 13.9229 30.5534 11.9877 29.8068 10.1826C29.0601 8.37751 27.9629 6.73839 26.5787 5.36005Z" fill="black"/>
</g>
<defs>
<clipPath id="clip0_62_49">
<rect width="30" height="30" fill="white" transform="translate(1 1)"/>
</clipPath>
</defs>
</svg>
