<svg width="32" height="32" viewBox="0 0 32 32" fill="none" xmlns="http://www.w3.org/2000/svg">
<path d="M18.1642 15.8728C18.1642 11.9272 20.9642 9.57283 24.5925 9.57283C27.8358 9.57283 30 11.2283 30 13.5185C30 15.6827 28.1543 17.0827 26.1173 17.0827C24.9717 17.0827 24.1457 16.8913 23.5717 16.4457C23.3815 16.2543 23.2543 16.3185 23.2543 16.5098C23.2543 17.337 23.5717 17.9728 24.0815 18.5457C24.5272 18.9913 25.3532 19.3098 26.1173 19.3098C26.9457 19.3098 27.6457 19.1185 28.2815 18.8C28.9173 18.4827 29.4272 18.6098 29.7445 19.1185C30.1272 19.6902 29.6173 20.4543 29.1728 20.9642C28.3445 21.8543 26.7543 22.4913 24.7173 22.4913C20.5815 22.363 18.1642 19.563 18.1642 15.8728ZM9.70117 18.4827C10.0827 18.4827 10.337 18.6728 10.5913 19.1185L11.737 20.9642C12.1827 21.6642 12.5642 22.1728 13.3913 22.1728C14.2197 22.1728 14.6642 21.8543 15.0457 20.9012C15.7001 19.448 16.212 17.9347 16.574 16.3827C17.1457 14.2185 17.4012 12.9457 17.4012 11.8642C17.4012 10.7827 17.0827 10.1457 15.8728 9.95433C14.2827 9.63699 12.0555 9.50983 9.70117 9.50983C7.34567 9.50983 5.1185 9.63699 3.52833 9.89133C2.3185 10.1457 2 10.7827 2 11.863C2 12.9457 2.2555 14.2185 2.76417 16.3827C3.16565 17.9228 3.67639 19.4324 4.2925 20.9C4.737 21.8543 5.1185 22.1728 5.94567 22.1728C6.774 22.1728 7.1555 21.6642 7.60117 20.9642L8.74567 19.1185C9.06417 18.737 9.3185 18.4827 9.70117 18.4827Z" fill="black"/>
</svg>
