<svg width="32" height="32" viewBox="0 0 32 32" fill="none" xmlns="http://www.w3.org/2000/svg">
<path d="M18.3187 15.8175C18.3187 11.59 21.3187 9.0675 25.2062 9.0675C28.6812 9.0675 31 10.8413 31 13.295C31 15.6138 29.0225 17.1138 26.84 17.1138C25.6125 17.1138 24.7275 16.9088 24.1125 16.4313C23.9087 16.2263 23.7725 16.295 23.7725 16.5C23.7725 17.3863 24.1125 18.0675 24.6588 18.6813C25.1363 19.1588 26.0213 19.5 26.84 19.5C27.7275 19.5 28.4775 19.295 29.1588 18.9537C29.84 18.6137 30.3863 18.75 30.7263 19.295C31.1363 19.9075 30.59 20.7262 30.1138 21.2725C29.2263 22.2262 27.5225 22.9087 25.34 22.9087C20.9088 22.7712 18.3187 19.7713 18.3187 15.8175ZM9.25125 18.6138C9.66 18.6138 9.9325 18.8175 10.205 19.295L11.4325 21.2725C11.91 22.0225 12.3187 22.5675 13.205 22.5675C14.0925 22.5675 14.5688 22.2262 14.9775 21.205C15.6787 19.648 16.2271 18.0267 16.615 16.3638C17.2275 14.045 17.5013 12.6813 17.5013 11.5225C17.5013 10.3638 17.16 9.68125 15.8637 9.47625C14.16 9.13625 11.7737 9 9.25125 9C6.7275 9 4.34125 9.13625 2.6375 9.40875C1.34125 9.68125 1 10.3638 1 11.5213C1 12.6813 1.27375 14.045 1.81875 16.3638C2.24891 18.0139 2.79613 19.6314 3.45625 21.2038C3.9325 22.2263 4.34125 22.5675 5.2275 22.5675C6.115 22.5675 6.52375 22.0225 7.00125 21.2725L8.2275 19.295C8.56875 18.8863 8.84125 18.6138 9.25125 18.6138Z" fill="black"/>
</svg>
