<svg width="32" height="32" viewBox="0 0 32 32" fill="none" xmlns="http://www.w3.org/2000/svg">
<path d="M22.769 11.677C22.769 11.677 20.4987 18.7972 20.3132 19.3852C19.7415 14.9227 19.1643 10.461 18.5818 6C14.7132 6 12.6447 8.75333 11.5515 11.6595L8.559 19.4027C8.5415 18.8473 8.139 11.7435 8.139 11.7435C7.901 8.18283 4.639 6.01517 2 6.01517L5.1955 25.3818C9.2485 25.3643 11.4337 22.6273 12.5782 19.7212C12.5782 19.7212 15.0165 13.4235 15.1168 13.1377C15.1343 13.406 16.8668 25.3807 16.8668 25.3807C20.9362 25.3807 23.1225 22.8117 24.2985 20.007L30 6.01633C25.9808 6.01633 23.8622 8.75333 22.769 11.6758V11.677Z" fill="black"/>
</svg>
