<svg width="32" height="32" viewBox="0 0 32 32" fill="none" xmlns="http://www.w3.org/2000/svg">
<path d="M21.4661 23.5339C22.4035 24.4712 23.6744 24.9985 25 25C26.3261 25 27.5979 24.4732 28.5355 23.5355C29.4732 22.5979 30 21.3261 30 20C30 18.6739 29.4732 17.4021 28.5355 16.4645C27.5979 15.5268 26.3261 15 25 15H3C2.44772 15 2 15.4477 2 16V16C2 16.5523 2.44772 17 3 17H25C25.5933 17 26.1734 17.1759 26.6667 17.5056C27.1601 17.8352 27.5446 18.3038 27.7716 18.852C27.9987 19.4001 28.0581 20.0033 27.9424 20.5853C27.8266 21.1672 27.5409 21.7018 27.1213 22.1213C26.7018 22.5409 26.1672 22.8266 25.5853 22.9424C25.0033 23.0581 24.4001 22.9987 23.8519 22.7716C23.3038 22.5446 22.8352 22.1601 22.5056 21.6667C22.3625 21.4525 22.2483 21.2219 22.1649 20.9811C21.9844 20.4594 21.5525 20 21.0006 20V20C20.4482 20 19.9905 20.4526 20.1008 20.9938C20.2954 21.949 20.7666 22.8343 21.4661 23.5339Z" fill="black"/>
<path d="M6 11C6 11.5523 6.44772 12 7 12H21C21.9889 12 22.9556 11.7068 23.7779 11.1573C24.6001 10.6079 25.241 9.82705 25.6194 8.91342C25.9978 7.99979 26.0969 6.99446 25.9039 6.02455C25.711 5.05465 25.2348 4.16373 24.5355 3.46447C23.8363 2.76521 22.9454 2.289 21.9755 2.09608C21.0055 1.90315 20.0002 2.00217 19.0866 2.3806C18.173 2.75904 17.3921 3.39991 16.8427 4.22215C16.4795 4.76564 16.2283 5.37223 16.0997 6.00664C15.9899 6.54791 16.4477 7 17 7V7C17.5523 7 17.9844 6.54029 18.1651 6.01841C18.2485 5.77771 18.3626 5.54734 18.5056 5.33329C18.8352 4.83994 19.3038 4.45543 19.8519 4.22836C20.4001 4.0013 21.0033 3.94189 21.5853 4.05765C22.1672 4.1734 22.7018 4.45912 23.1213 4.87868C23.5409 5.29824 23.8266 5.83279 23.9424 6.41473C24.0581 6.99667 23.9987 7.59987 23.7716 8.14805C23.5446 8.69623 23.1601 9.16477 22.6667 9.49441C22.1734 9.82406 21.5933 10 21 10H7C6.44772 10 6 10.4477 6 11V11Z" fill="black"/>
<path d="M9.46613 28.5339C10.4035 29.4712 11.6744 29.9985 13 30C14.3261 30 15.5979 29.4732 16.5355 28.5355C17.4732 27.5979 18 26.3261 18 25C18 23.6739 17.4732 22.4021 16.5355 21.4645C15.5979 20.5268 14.3261 20 13 20H5C4.44772 20 4 20.4477 4 21V21C4 21.5523 4.44772 22 5 22H13C13.5933 22 14.1734 22.1759 14.6667 22.5056C15.1601 22.8352 15.5446 23.3038 15.7716 23.8519C15.9987 24.4001 16.0581 25.0033 15.9424 25.5853C15.8266 26.1672 15.5409 26.7018 15.1213 27.1213C14.7018 27.5409 14.1672 27.8266 13.5853 27.9424C13.0033 28.0581 12.4001 27.9987 11.8519 27.7716C11.3038 27.5446 10.8352 27.1601 10.5056 26.6667C10.3625 26.4525 10.2483 26.2219 10.1649 25.9811C9.98444 25.4594 9.55254 25 9.00057 25V25C8.44815 25 7.99047 25.4525 8.10078 25.9938C8.29545 26.949 8.76659 27.8343 9.46613 28.5339Z" fill="black"/>
</svg>
