<svg width="32" height="32" viewBox="0 0 32 32" fill="none" xmlns="http://www.w3.org/2000/svg">
<path d="M30.3671 9.2784C30.1964 8.64419 29.8621 8.06594 29.3977 7.60152C28.9333 7.13711 28.355 6.80282 27.7208 6.63211C25.3852 6 16 6 16 6C16 6 6.61479 6 4.2792 6.63211C3.64499 6.80282 3.06674 7.13711 2.60233 7.60152C2.13791 8.06594 1.80362 8.64419 1.63291 9.2784C1.19681 11.6603 0.985178 14.0779 1.00081 16.4994C0.985178 18.9209 1.19681 21.3385 1.63291 23.7205C1.80362 24.3547 2.13791 24.9329 2.60233 25.3973C3.06674 25.8618 3.64499 26.1961 4.2792 26.3668C6.61479 26.9989 16 26.9989 16 26.9989C16 26.9989 25.3852 26.9989 27.7208 26.3668C28.355 26.1961 28.9333 25.8618 29.3977 25.3973C29.8621 24.9329 30.1964 24.3547 30.3671 23.7205C30.8032 21.3385 31.0148 18.9209 30.9992 16.4994C31.0148 14.0779 30.8032 11.6603 30.3671 9.2784V9.2784ZM13.0002 20.9992V11.9997L20.789 16.4994L13.0002 20.9992Z" fill="black"/>
</svg>
