<svg width="32" height="32" viewBox="0 0 32 32" fill="none" xmlns="http://www.w3.org/2000/svg">
<g id="AisZoomIn">
<g id="Vector">
<path d="M16 4C9.383 4 4 9.383 4 16C4 22.617 9.383 28 16 28C22.617 28 28 22.617 28 16C28 9.383 22.617 4 16 4ZM16 26C10.486 26 6 21.514 6 16C6 10.486 10.486 6 16 6C21.514 6 26 10.486 26 16C26 21.514 21.514 26 16 26Z" fill="black"/>
<path d="M21 15H17V11C17 10.447 16.552 10 16 10C15.448 10 15 10.447 15 11V15H11C10.448 15 10 15.447 10 16C10 16.553 10.448 17 11 17H15V21C15 21.553 15.448 22 16 22C16.552 22 17 21.553 17 21V17H21C21.552 17 22 16.553 22 16C22 15.447 21.552 15 21 15Z" fill="black"/>
</g>
</g>
</svg>
