<svg width="32" height="32" viewBox="0 0 32 32" fill="none" xmlns="http://www.w3.org/2000/svg">
<path d="M19.5 16.0047C19.5 17.0465 19.3075 18.0417 18.9622 18.9622C18.044 19.3087 17.0453 19.5 16.0047 19.5H15.9942C14.9523 19.5 13.9583 19.3075 13.0378 18.9622C12.6913 18.0417 12.5 17.0453 12.5 16.0047V15.9942C12.5 14.9523 12.6913 13.9583 13.0378 13.0378C13.9583 12.6913 14.9535 12.5 15.9942 12.5H16.0047C17.0465 12.5 18.044 12.6913 18.9622 13.039C19.3087 13.9583 19.5 14.9535 19.5 15.9965V16.0047ZM29.8075 13.6667H21.635L27.4077 7.88933C26.9527 7.25 26.451 6.65267 25.8968 6.10083C25.345 5.54783 24.7477 5.04267 24.1118 4.58883L18.3322 10.3627V2.1925C17.575 2.07117 16.8003 2 16.0047 2H15.993C15.1997 2 14.4227 2.07117 13.6655 2.1925V10.365L7.8905 4.59117C7.25 5.0415 6.65383 5.549 6.10083 6.10083C5.54783 6.65383 5.0415 7.25233 4.58883 7.88933L10.3627 13.6667H2.1925C2.1925 13.6667 2 15.202 2 15.9942V16.0047C2 16.798 2.07117 17.5773 2.1925 18.3322H10.365L4.59117 24.1095C5.49767 25.3882 6.613 26.5023 7.88933 27.4112L13.6667 21.6362V29.8075C14.4227 29.93 15.1985 30 15.9895 30H16.0093C16.8015 30 17.5773 29.93 18.3322 29.8075V21.6362L24.1095 27.4112C24.7488 26.9737 25.3462 26.4638 25.8933 25.9062H25.8992C26.451 25.3637 26.9562 24.7675 27.4112 24.12L21.6362 18.3462H29.8075C29.93 17.5937 30 16.8248 30 16.0362V16C30 15.209 29.93 14.4332 29.8075 13.6783" fill="black"/>
</svg>
