<svg width="32" height="32" viewBox="0 0 32 32" fill="none" xmlns="http://www.w3.org/2000/svg">
<g clip-path="url(#clip0_121_55)">
<path d="M15.0095 11.0173V24.9988H3L15.0095 11.0173ZM15.0095 6C15.0095 7.53569 14.3768 9.00847 13.2507 10.0944C12.1246 11.1803 10.5973 11.7903 9.00474 11.7903C7.41219 11.7903 5.88486 11.1803 4.75875 10.0944C3.63264 9.00847 3 7.53569 3 6H15.0095ZM16.9879 25C16.9879 23.4643 17.6206 21.9915 18.7467 20.9056C19.8728 19.8197 21.4001 19.2097 22.9927 19.2097C24.5852 19.2097 26.1126 19.8197 27.2387 20.9056C28.3648 21.9915 28.9974 23.4643 28.9974 25H16.9879ZM16.9879 19.9827V6H29L16.9879 19.9815V19.9827Z" fill="black"/>
</g>
<defs>
<clipPath id="clip0_121_55">
<rect width="26" height="19" fill="white" transform="translate(3 6)"/>
</clipPath>
</defs>
</svg>
