<svg width="32" height="32" viewBox="0 0 32 32" fill="none" xmlns="http://www.w3.org/2000/svg">
<path fill-rule="evenodd" clip-rule="evenodd" d="M4 16C4 9.383 9.383 4 16 4C22.617 4 28 9.383 28 16C28 22.617 22.617 28 16 28C9.383 28 4 22.617 4 16ZM16 10C16.5523 10 17 10.4477 17 11V15H21C21.5523 15 22 15.4477 22 16C22 16.5523 21.5523 17 21 17H17V21C17 21.5523 16.5523 22 16 22C15.4477 22 15 21.5523 15 21V17H11C10.4477 17 10 16.5523 10 16C10 15.4477 10.4477 15 11 15H15V11C15 10.4477 15.4477 10 16 10Z" fill="black"/>
</svg>
