<?xml version="1.0" encoding="UTF-8"?><svg id="Calque_1" xmlns="http://www.w3.org/2000/svg" viewBox="0 0 32 32"><path d="M25.899,5.101c-1.133-1.133-2.64-1.757-4.242-1.757s-3.109,.624-4.243,1.757l-2.121,2.121c-.391,.391-.391,1.023,0,1.414,.195,.195,.451,.293,.707,.293s.512-.098,.707-.293l2.121-2.121c.756-.755,1.761-1.171,2.829-1.171s2.072,.416,2.828,1.171c1.56,1.56,1.56,4.098,0,5.657l-5.657,5.657-5.656,5.657c-.756,.755-1.761,1.171-2.829,1.171s-2.072-.416-2.828-1.171c-1.56-1.56-1.56-4.098,0-5.657l5.091-5.091c.779-.781,2.05-.779,2.829,0,.378,.378,.586,.88,.586,1.414s-.208,1.037-.586,1.415c-.025,.025-.034,.058-.056,.084-.027,.022-.06,.032-.086,.057l-3.535,3.536c-.391,.391-.391,1.024,0,1.414,.195,.195,.451,.293,.707,.293s.512-.098,.707-.293l3.535-3.536c.025-.025,.034-.058,.056-.084,.027-.022,.06-.032,.086-.057,.756-.755,1.172-1.76,1.172-2.829s-.416-2.073-1.172-2.828c-1.562-1.561-4.098-1.559-5.657,0l-5.091,5.091c-2.339,2.339-2.339,6.146,0,8.485,1.133,1.133,2.64,1.757,4.242,1.757s3.109-.624,4.243-1.757l5.656-5.657,5.657-5.657c2.339-2.339,2.339-6.146,0-8.485Z"/></svg>