<?xml version="1.0" encoding="UTF-8"?><svg id="Calque_1" xmlns="http://www.w3.org/2000/svg" viewBox="0 0 32 32"><path d="M26,18h-3v-3.586l2.707-2.707c.391-.391,.391-1.023,0-1.414s-1.023-.391-1.414,0l-1.533,1.533c-.332-.778-.989-1.376-1.795-1.653,.011-.058,.035-.112,.035-.173,0-1.528-.704-2.881-1.787-3.799l.494-.494c.391-.391,.391-1.023,0-1.414s-1.023-.391-1.414,0l-.922,.922c-.439-.126-.892-.215-1.371-.215s-.932,.089-1.371,.215l-.922-.922c-.391-.391-1.023-.391-1.414,0s-.391,1.023,0,1.414l.494,.494c-1.084,.918-1.787,2.271-1.787,3.799,0,.062,.024,.115,.035,.173-.806,.276-1.463,.874-1.795,1.653l-1.533-1.533c-.391-.391-1.023-.391-1.414,0s-.391,1.023,0,1.414l2.707,2.707v3.586h-3c-.553,0-1,.447-1,1s.447,1,1,1h3v1c0,.492,.052,.972,.15,1.436l-2.857,2.857c-.391,.391-.391,1.023,0,1.414,.195,.195,.451,.293,.707,.293s.512-.098,.707-.293l2.228-2.228c1.21,2.1,3.473,3.521,6.065,3.521s4.855-1.421,6.065-3.521l2.228,2.228c.195,.195,.451,.293,.707,.293s.512-.098,.707-.293c.391-.391,.391-1.023,0-1.414l-2.857-2.857c.097-.464,.15-.944,.15-1.436v-1h3c.553,0,1-.447,1-1s-.447-1-1-1Zm-7-8h-6c0-1.654,1.346-3,3-3s3,1.346,3,3Zm-3,16c-2.757,0-5-2.243-5-5V13c0-.552,.448-1,1-1h8c.552,0,1,.448,1,1v8c0,2.757-2.243,5-5,5Z"/></svg>