<?xml version="1.0" encoding="UTF-8"?><svg id="Calque_1" xmlns="http://www.w3.org/2000/svg" viewBox="0 0 32 32"><path d="M24,2H8c-1.654,0-3,1.346-3,3V27c0,1.654,1.346,3,3,3H24c1.654,0,3-1.346,3-3V5c0-1.654-1.346-3-3-3Zm1,25c0,.551-.449,1-1,1H8c-.551,0-1-.449-1-1V5c0-.551,.449-1,1-1H24c.551,0,1,.449,1,1V27Z"/><circle cx="10" cy="17" r="1"/><circle cx="14" cy="17" r="1"/><circle cx="18" cy="17" r="1"/><circle cx="22" cy="17" r="1"/><circle cx="10" cy="21" r="1"/><circle cx="14" cy="21" r="1"/><circle cx="18" cy="21" r="1"/><circle cx="22" cy="21" r="1"/><circle cx="10" cy="13" r="1"/><circle cx="14" cy="13" r="1"/><circle cx="18" cy="13" r="1"/><circle cx="22" cy="13" r="1"/><circle cx="10" cy="25" r="1"/><circle cx="14" cy="25" r="1"/><circle cx="18" cy="25" r="1"/><circle cx="22" cy="25" r="1"/><rect x="9" y="6" width="14" height="4"/></svg>