<?xml version="1.0" encoding="UTF-8"?><svg id="Calque_1" xmlns="http://www.w3.org/2000/svg" viewBox="0 0 32 32"><path d="M24.186,6h-1.186v-1c0-.552-.448-1-1-1s-1,.448-1,1v1H11v-1c0-.552-.448-1-1-1s-1,.448-1,1v1h-1.186c-1.552,0-2.814,1.263-2.814,2.814V25.186c0,1.552,1.263,2.814,2.814,2.814H24.186c1.552,0,2.814-1.263,2.814-2.814V8.814c0-1.552-1.263-2.814-2.814-2.814Zm.814,19.186c0,.449-.365,.814-.814,.814H7.814c-.449,0-.814-.365-.814-.814V8.814c0-.449,.365-.814,.814-.814h1.186v1c0,.552,.448,1,1,1s1-.448,1-1v-1h10v1c0,.552,.448,1,1,1s1-.448,1-1v-1h1.186c.449,0,.814,.365,.814,.814V25.186Z"/><path d="M18,10h-4c-.552,0-1,.448-1,1s.448,1,1,1h4c.552,0,1-.448,1-1s-.448-1-1-1Z"/><circle cx="10" cy="15" r="1"/><circle cx="14" cy="15" r="1"/><circle cx="18" cy="15" r="1"/><circle cx="22" cy="15" r="1"/><circle cx="10" cy="19" r="1"/><circle cx="14" cy="19" r="1"/><circle cx="18" cy="19" r="1"/><circle cx="22" cy="19" r="1"/><circle cx="10" cy="23" r="1"/><circle cx="14" cy="23" r="1"/><circle cx="18" cy="23" r="1"/><circle cx="22" cy="23" r="1"/></svg>