<?xml version="1.0" encoding="UTF-8"?><svg id="Calque_1" xmlns="http://www.w3.org/2000/svg" viewBox="0 0 32 32"><path d="M21.293,20.293l-5.293,5.293-5.293-5.293c-.391-.391-1.023-.391-1.414,0s-.391,1.023,0,1.414l6,6c.195,.195,.451,.293,.707,.293s.512-.098,.707-.293l6-6c.391-.391,.391-1.023,0-1.414s-1.023-.391-1.414,0Z"/><path d="M10.707,11.707l5.293-5.293,5.293,5.293c.195,.195,.451,.293,.707,.293s.512-.098,.707-.293c.391-.391,.391-1.023,0-1.414l-6-6c-.391-.391-1.023-.391-1.414,0l-6,6c-.391,.391-.391,1.023,0,1.414s1.023,.391,1.414,0Z"/></svg>