<?xml version="1.0" encoding="UTF-8"?><svg id="Calque_1" xmlns="http://www.w3.org/2000/svg" viewBox="0 0 32 32"><path d="M23,26H8c-3.309,0-6-2.691-6-6,0-2.968,2.166-5.439,5-5.917,0-.028,0-.055,0-.083,0-4.411,3.589-8,8-8,3.676,0,6.847,2.521,7.742,6.005,3.977-.158,7.258,3.049,7.258,6.995,0,3.86-3.14,7-7,7ZM7.952,16c-2.184,.025-3.952,1.81-3.952,4,0,2.206,1.794,4,4,4h15c2.757,0,5-2.243,5-5s-2.243-5-5-5c-.282,0-.573,.027-.888,.084-.269,.049-.547-.016-.768-.178-.221-.162-.366-.407-.4-.679-.383-2.98-2.938-5.227-5.944-5.227-3.309,0-6,2.691-6,6,0,.256,.022,.531,.07,.866,.042,.29-.046,.584-.24,.804-.194,.22-.434,.35-.768,.338-.028,0-.071-.004-.11-.008Z"/></svg>