<?xml version="1.0" encoding="UTF-8"?><svg id="Calque_1" xmlns="http://www.w3.org/2000/svg" viewBox="0 0 32 32"><path d="M25,4H11c-1.654,0-3,1.346-3,3v14c0,1.654,1.346,3,3,3h14c1.654,0,3-1.346,3-3V7c0-1.654-1.346-3-3-3Zm1,17c0,.551-.448,1-1,1H11c-.552,0-1-.449-1-1V7c0-.551,.448-1,1-1h14c.552,0,1,.449,1,1v14Z"/><circle cx="22" cy="27" r="1"/><circle cx="18" cy="27" r="1"/><circle cx="14" cy="27" r="1"/><circle cx="10" cy="27" r="1"/><circle cx="5" cy="10" r="1"/><circle cx="5" cy="14" r="1"/><circle cx="5" cy="18" r="1"/><circle cx="5" cy="22" r="1"/><circle cx="6" cy="26" r="1"/></svg>