<?xml version="1.0" encoding="UTF-8"?><svg id="Calque_1" xmlns="http://www.w3.org/2000/svg" viewBox="0 0 32 32"><path d="M22.742,12.005c-.896-3.484-4.066-6.005-7.742-6.005-1.405,0-2.725,.367-3.873,1.005l1.491,1.491c.731-.318,1.536-.496,2.383-.496,3.005,0,5.561,2.247,5.943,5.227,.035,.271,.18,.517,.4,.679,.221,.162,.498,.225,.769,.178,.314-.057,.604-.084,.888-.084,2.757,0,5,2.243,5,5,0,1.348-.542,2.567-1.411,3.467l1.416,1.416c1.232-1.262,1.995-2.985,1.995-4.884,0-3.946-3.329-7.16-7.258-6.995Z"/><path d="M5.707,4.293c-.391-.391-1.023-.391-1.414,0s-.391,1.023,0,1.414l3.981,3.981c-.802,1.246-1.274,2.724-1.274,4.312,0,.028,0,.055,0,.083-2.835,.478-5.001,2.949-5.001,5.917,0,3.309,2.691,6,6,6h15c.491,0,.967-.059,1.429-.157l1.864,1.864c.195,.195,.451,.293,.707,.293s.512-.098,.707-.293c.391-.391,.391-1.023,0-1.414L5.707,4.293Zm2.293,19.707c-2.206,0-4-1.794-4-4,0-2.19,1.769-3.974,3.952-4,.04,.004,.084,.007,.111,.008,.288-.001,.574-.119,.768-.339,.194-.22,.281-.514,.239-.805-.048-.333-.07-.607-.07-.865,0-1.034,.267-2.005,.732-2.854l12.854,12.854H8Z"/></svg>