<?xml version="1.0" encoding="UTF-8"?><svg id="Calque_1" xmlns="http://www.w3.org/2000/svg" viewBox="0 0 32 32"><path d="M16,28c-.256,0-.512-.098-.707-.293L5.293,17.707c-1.524-1.524-2.364-3.551-2.364-5.707s.84-4.183,2.364-5.707c2.921-2.921,7.543-3.129,10.707-.629,3.165-2.5,7.787-2.292,10.707,.629,1.524,1.524,2.364,3.551,2.364,5.707s-.84,4.183-2.364,5.707l-10,10c-.195,.195-.451,.293-.707,.293ZM11,5.932c-1.555,0-3.109,.592-4.293,1.775-1.146,1.146-1.778,2.671-1.778,4.293s.632,3.146,1.778,4.293l9.293,9.293,9.293-9.293c1.146-1.146,1.778-2.671,1.778-4.293s-.632-3.146-1.778-4.293c-2.367-2.366-6.219-2.366-8.586,0-.391,.391-1.023,.391-1.414,0-1.184-1.183-2.738-1.775-4.293-1.775Z"/></svg>