<?xml version="1.0" encoding="UTF-8"?><svg id="Calque_1" xmlns="http://www.w3.org/2000/svg" viewBox="0 0 32 32"><path d="M27.472,9.118c-.324-.174-.72-.154-1.026,.05l-4.445,2.964v-2.132c0-.369-.203-.708-.528-.882-.323-.174-.721-.154-1.026,.05l-4.445,2.964v-2.132c0-.369-.203-.708-.528-.882-.324-.174-.72-.154-1.026,.05l-4.445,2.964V5c0-.553-.447-1-1-1H5c-.553,0-1,.447-1,1V27c0,.553,.447,1,1,1H27c.553,0,1-.447,1-1V10c0-.369-.203-.708-.528-.882ZM10,26v-6h2v6h-2Zm16,0H14v-7c0-.553-.447-1-1-1h-4c-.553,0-1,.447-1,1v7h-2V6h2V14c0,.369,.203,.708,.528,.882,.324,.174,.72,.154,1.026-.05l4.445-2.964v2.132c0,.369,.203,.708,.528,.882,.324,.174,.721,.154,1.026-.05l4.445-2.964v2.132c0,.369,.203,.708,.528,.882,.324,.174,.72,.154,1.026-.05l4.445-2.964v14.132Z"/></svg>