<?xml version="1.0" encoding="UTF-8"?><svg id="Calque_1" xmlns="http://www.w3.org/2000/svg" viewBox="0 0 32 32"><path d="M16,10.515c-1.922,0-3.485,1.563-3.485,3.485s1.563,3.485,3.485,3.485,3.485-1.563,3.485-3.485-1.563-3.485-3.485-3.485Zm0,4.971c-.819,0-1.485-.667-1.485-1.485s.666-1.485,1.485-1.485,1.485,.667,1.485,1.485-.666,1.485-1.485,1.485Z"/><path d="M23.776,6.203c-4.287-4.263-11.266-4.263-15.553,0-2.079,2.066-3.224,4.814-3.224,7.738s1.145,5.672,3.224,7.739l7.071,7.029c.195,.194,.45,.291,.705,.291s.51-.097,.705-.291l7.071-7.029c2.079-2.067,3.224-4.815,3.224-7.739s-1.145-5.671-3.224-7.738Zm-1.41,14.059l-6.366,6.328-6.366-6.328c-1.698-1.689-2.634-3.934-2.634-6.321s.936-4.632,2.634-6.32c1.755-1.745,4.061-2.617,6.366-2.617s4.611,.873,6.366,2.617c1.698,1.688,2.634,3.933,2.634,6.32s-.936,4.631-2.634,6.321Z"/></svg>