<?xml version="1.0" encoding="UTF-8"?><svg id="Calque_1" xmlns="http://www.w3.org/2000/svg" viewBox="0 0 32 32"><path d="M16,28c-5.308,0-10.045-3.562-11.52-8.662-.102-.351-.004-.728,.253-.985,.257-.258,.636-.354,.985-.254,.92,.267,1.856,.401,2.782,.401,5.514,0,10-4.486,10-10,0-.927-.135-1.862-.401-2.781-.102-.351-.004-.728,.253-.985,.257-.259,.635-.355,.985-.254,5.101,1.476,8.663,6.213,8.663,11.521,0,6.617-5.383,12-12,12Zm-8.969-7.593c1.659,3.362,5.135,5.593,8.969,5.593,5.514,0,10-4.486,10-10,0-3.833-2.23-7.31-5.593-8.969,.062,.489,.093,.979,.093,1.469,0,6.617-5.383,12-12,12-.489,0-.979-.031-1.469-.093Z"/></svg>