<?xml version="1.0" encoding="UTF-8"?><svg id="Calque_1" xmlns="http://www.w3.org/2000/svg" viewBox="0 0 32 32"><path d="M16,29.993c-3.585,0-7.17-1.364-9.899-4.094C.642,20.44,.642,11.56,6.101,6.101l2.828,2.828c-3.898,3.899-3.898,10.243,0,14.143,3.9,3.898,10.244,3.898,14.143,0,3.898-3.899,3.898-10.243,0-14.143l2.828-2.828c5.458,5.459,5.458,14.34,0,19.799-2.729,2.729-6.314,4.094-9.899,4.094Z"/><path d="M24.485,9.515c-.512,0-1.024-.195-1.414-.586-3.899-3.898-10.243-3.898-14.143,0-.78,.781-2.048,.781-2.828,0-.781-.781-.781-2.047,0-2.828C11.559,.642,20.441,.642,25.899,6.101c.781,.781,.781,2.047,0,2.828-.39,.391-.902,.586-1.414,.586Z"/></svg>
