<?xml version="1.0" encoding="UTF-8"?><svg id="Calque_1" xmlns="http://www.w3.org/2000/svg" viewBox="0 0 32 32"><path d="M28.948,12.85c-.119-.355-.427-.614-.797-.671l-7.764-1.187-3.481-7.417c-.165-.351-.518-.575-.905-.575s-.741,.225-.905,.575l-3.481,7.417-7.764,1.187c-.371,.057-.678,.315-.797,.671s-.029,.747,.232,1.016l5.647,5.788-1.335,8.186c-.062,.378,.098,.758,.411,.979,.314,.221,.724,.244,1.06,.058l6.933-3.832,6.933,3.832c.151,.084,.318,.125,.484,.125,.202,0,.404-.062,.576-.183,.313-.221,.473-.601,.411-.979l-1.335-8.186,5.647-5.788c.262-.269,.352-.66,.232-1.016Zm-7.664,5.769c-.222,.228-.322,.546-.271,.859l1.085,6.651-5.614-3.104c-.15-.083-.317-.125-.484-.125V6.354l2.803,5.972c.142,.302,.425,.514,.754,.563l6.368,.973-4.641,4.757Z"/></svg>