<?xml version="1.0" encoding="UTF-8"?><svg id="Calque_1" xmlns="http://www.w3.org/2000/svg" viewBox="0 0 32 32"><polygon points="29.003 19.57 2.997 24 2.997 12.43 29.003 8 29.003 19.57"/><path d="M2.997,25c-.234,0-.463-.082-.645-.235-.226-.19-.355-.47-.355-.765V12.43c0-.487,.352-.904,.832-.985L28.835,7.015c.291-.05,.588,.031,.812,.221,.226,.19,.355,.47,.355,.765v11.57c0,.487-.352,.904-.832,.985L3.165,24.985c-.056,.01-.112,.015-.168,.015Zm1-11.727v9.542l24.006-4.089V9.185L3.997,13.273Zm25.006,6.297h0Z"/></svg>