<?xml version="1.0" encoding="UTF-8"?><svg id="Calque_1" xmlns="http://www.w3.org/2000/svg" viewBox="0 0 32 32"><path d="M27,5H5c-1.654,0-3,1.346-3,3V24c0,1.654,1.346,3,3,3H27c1.654,0,3-1.346,3-3V8c0-1.654-1.346-3-3-3Zm1,19c0,.552-.448,1-1,1H5c-.552,0-1-.448-1-1V8c0-.552,.448-1,1-1H27c.552,0,1,.448,1,1V24Z"/><path d="M25.71,15.29c-.37-.37-1.05-.37-1.42,0-.09,.1-.16,.2-.21,.33-.061,.12-.08,.25-.08,.38s.02,.26,.069,.38c.061,.12,.131,.229,.221,.33,.189,.189,.439,.29,.71,.29,.13,0,.26-.03,.38-.08s.229-.12,.33-.21c.09-.101,.16-.21,.21-.33s.08-.25,.08-.38-.03-.26-.08-.38c-.05-.13-.12-.23-.21-.33Z"/></svg>