<?xml version="1.0" encoding="UTF-8"?><svg id="Calque_1" xmlns="http://www.w3.org/2000/svg" viewBox="0 0 32 32"><path d="M20,24H6c-1.103,0-2-.897-2-2V10c0-1.103,.897-2,2-2h14c1.103,0,2,.897,2,2v2.612l4.684-1.561c.305-.104,.639-.052,.901,.137,.261,.188,.416,.49,.416,.812v8c0,.321-.154,.623-.416,.812-.262,.188-.596,.239-.901,.137l-4.684-1.561v2.612c0,1.103-.897,2-2,2ZM6,10v12.001h14v-4.001c0-.321,.154-.623,.416-.812,.261-.188,.595-.24,.901-.137l4.684,1.561v-5.225l-4.684,1.561c-.306,.104-.64,.051-.901-.137-.261-.188-.416-.49-.416-.812v-4H6Z"/></svg>